<?xml version="1.0" encoding="utf-8"?>
<svg xmlns="http://www.w3.org/2000/svg" xmlns:xlink="http://www.w3.org/1999/xlink" width="600" height="400" viewBox="0 0 2400 1600">
<defs>
  <clipPath id="clip880">
    <rect x="0" y="0" width="2400" height="1600"/>
  </clipPath>
</defs>
<path clip-path="url(#clip880)" d="M0 1600 L2400 1600 L2400 0 L0 0  Z" fill="#ffffff" fill-rule="evenodd" fill-opacity="1"/>
<defs>
  <clipPath id="clip881">
    <rect x="219" y="47" width="1894" height="1377"/>
  </clipPath>
</defs>
<path clip-path="url(#clip880)" d="M219.542 1423.18 L2112.76 1423.18 L2112.76 47.2441 L219.542 47.2441  Z" fill="#ffffff" fill-rule="evenodd" fill-opacity="1"/>
<polyline clip-path="url(#clip881)" style="stroke:#000000; stroke-linecap:round; stroke-linejoin:round; stroke-width:2; stroke-opacity:0.1; fill:none" points="392.194,1423.18 392.194,47.2441 "/>
<polyline clip-path="url(#clip881)" style="stroke:#000000; stroke-linecap:round; stroke-linejoin:round; stroke-width:2; stroke-opacity:0.1; fill:none" points="749.404,1423.18 749.404,47.2441 "/>
<polyline clip-path="url(#clip881)" style="stroke:#000000; stroke-linecap:round; stroke-linejoin:round; stroke-width:2; stroke-opacity:0.1; fill:none" points="1106.61,1423.18 1106.61,47.2441 "/>
<polyline clip-path="url(#clip881)" style="stroke:#000000; stroke-linecap:round; stroke-linejoin:round; stroke-width:2; stroke-opacity:0.1; fill:none" points="1463.82,1423.18 1463.82,47.2441 "/>
<polyline clip-path="url(#clip881)" style="stroke:#000000; stroke-linecap:round; stroke-linejoin:round; stroke-width:2; stroke-opacity:0.1; fill:none" points="1821.03,1423.18 1821.03,47.2441 "/>
<polyline clip-path="url(#clip881)" style="stroke:#000000; stroke-linecap:round; stroke-linejoin:round; stroke-width:2; stroke-opacity:0.1; fill:none" points="219.542,1198.8 2112.76,1198.8 "/>
<polyline clip-path="url(#clip881)" style="stroke:#000000; stroke-linecap:round; stroke-linejoin:round; stroke-width:2; stroke-opacity:0.1; fill:none" points="219.542,827.93 2112.76,827.93 "/>
<polyline clip-path="url(#clip881)" style="stroke:#000000; stroke-linecap:round; stroke-linejoin:round; stroke-width:2; stroke-opacity:0.1; fill:none" points="219.542,457.058 2112.76,457.058 "/>
<polyline clip-path="url(#clip881)" style="stroke:#000000; stroke-linecap:round; stroke-linejoin:round; stroke-width:2; stroke-opacity:0.1; fill:none" points="219.542,86.1857 2112.76,86.1857 "/>
<polyline clip-path="url(#clip880)" style="stroke:#000000; stroke-linecap:round; stroke-linejoin:round; stroke-width:4; stroke-opacity:1; fill:none" points="219.542,1423.18 2112.76,1423.18 "/>
<polyline clip-path="url(#clip880)" style="stroke:#000000; stroke-linecap:round; stroke-linejoin:round; stroke-width:4; stroke-opacity:1; fill:none" points="392.194,1423.18 392.194,1404.28 "/>
<polyline clip-path="url(#clip880)" style="stroke:#000000; stroke-linecap:round; stroke-linejoin:round; stroke-width:4; stroke-opacity:1; fill:none" points="749.404,1423.18 749.404,1404.28 "/>
<polyline clip-path="url(#clip880)" style="stroke:#000000; stroke-linecap:round; stroke-linejoin:round; stroke-width:4; stroke-opacity:1; fill:none" points="1106.61,1423.18 1106.61,1404.28 "/>
<polyline clip-path="url(#clip880)" style="stroke:#000000; stroke-linecap:round; stroke-linejoin:round; stroke-width:4; stroke-opacity:1; fill:none" points="1463.82,1423.18 1463.82,1404.28 "/>
<polyline clip-path="url(#clip880)" style="stroke:#000000; stroke-linecap:round; stroke-linejoin:round; stroke-width:4; stroke-opacity:1; fill:none" points="1821.03,1423.18 1821.03,1404.28 "/>
<path clip-path="url(#clip880)" d="M377.599 1466.44 Q374.451 1466.44 372.599 1468.59 Q370.77 1470.74 370.77 1474.49 Q370.77 1478.22 372.599 1480.39 Q374.451 1482.55 377.599 1482.55 Q380.747 1482.55 382.576 1480.39 Q384.428 1478.22 384.428 1474.49 Q384.428 1470.74 382.576 1468.59 Q380.747 1466.44 377.599 1466.44 M386.881 1451.78 L386.881 1456.04 Q385.122 1455.21 383.316 1454.77 Q381.534 1454.33 379.775 1454.33 Q375.145 1454.33 372.692 1457.45 Q370.261 1460.58 369.914 1466.9 Q371.28 1464.89 373.34 1463.82 Q375.4 1462.73 377.877 1462.73 Q383.085 1462.73 386.094 1465.9 Q389.127 1469.05 389.127 1474.49 Q389.127 1479.82 385.979 1483.03 Q382.83 1486.25 377.599 1486.25 Q371.604 1486.25 368.432 1481.67 Q365.261 1477.06 365.261 1468.33 Q365.261 1460.14 369.15 1455.28 Q373.039 1450.39 379.59 1450.39 Q381.349 1450.39 383.131 1450.74 Q384.937 1451.09 386.881 1451.78 Z" fill="#000000" fill-rule="nonzero" fill-opacity="1" /><path clip-path="url(#clip880)" d="M407.182 1454.1 Q403.571 1454.1 401.742 1457.66 Q399.937 1461.2 399.937 1468.33 Q399.937 1475.44 401.742 1479.01 Q403.571 1482.55 407.182 1482.55 Q410.816 1482.55 412.622 1479.01 Q414.451 1475.44 414.451 1468.33 Q414.451 1461.2 412.622 1457.66 Q410.816 1454.1 407.182 1454.1 M407.182 1450.39 Q412.992 1450.39 416.048 1455 Q419.126 1459.58 419.126 1468.33 Q419.126 1477.06 416.048 1481.67 Q412.992 1486.25 407.182 1486.25 Q401.372 1486.25 398.293 1481.67 Q395.238 1477.06 395.238 1468.33 Q395.238 1459.58 398.293 1455 Q401.372 1450.39 407.182 1450.39 Z" fill="#000000" fill-rule="nonzero" fill-opacity="1" /><path clip-path="url(#clip880)" d="M724.531 1484.86 L724.531 1480.6 Q726.291 1481.44 728.096 1481.88 Q729.902 1482.32 731.638 1482.32 Q736.267 1482.32 738.698 1479.21 Q741.152 1476.09 741.499 1469.75 Q740.156 1471.74 738.096 1472.8 Q736.036 1473.87 733.536 1473.87 Q728.351 1473.87 725.318 1470.74 Q722.309 1467.59 722.309 1462.15 Q722.309 1456.83 725.457 1453.61 Q728.605 1450.39 733.837 1450.39 Q739.832 1450.39 742.98 1455 Q746.152 1459.58 746.152 1468.33 Q746.152 1476.51 742.263 1481.39 Q738.397 1486.25 731.846 1486.25 Q730.087 1486.25 728.281 1485.9 Q726.476 1485.56 724.531 1484.86 M733.837 1470.21 Q736.985 1470.21 738.814 1468.06 Q740.666 1465.9 740.666 1462.15 Q740.666 1458.43 738.814 1456.27 Q736.985 1454.1 733.837 1454.1 Q730.689 1454.1 728.837 1456.27 Q727.008 1458.43 727.008 1462.15 Q727.008 1465.9 728.837 1468.06 Q730.689 1470.21 733.837 1470.21 Z" fill="#000000" fill-rule="nonzero" fill-opacity="1" /><path clip-path="url(#clip880)" d="M764.554 1454.1 Q760.943 1454.1 759.114 1457.66 Q757.309 1461.2 757.309 1468.33 Q757.309 1475.44 759.114 1479.01 Q760.943 1482.55 764.554 1482.55 Q768.189 1482.55 769.994 1479.01 Q771.823 1475.44 771.823 1468.33 Q771.823 1461.2 769.994 1457.66 Q768.189 1454.1 764.554 1454.1 M764.554 1450.39 Q770.364 1450.39 773.42 1455 Q776.499 1459.58 776.499 1468.33 Q776.499 1477.06 773.42 1481.67 Q770.364 1486.25 764.554 1486.25 Q758.744 1486.25 755.665 1481.67 Q752.61 1477.06 752.61 1468.33 Q752.61 1459.58 755.665 1455 Q758.744 1450.39 764.554 1450.39 Z" fill="#000000" fill-rule="nonzero" fill-opacity="1" /><path clip-path="url(#clip880)" d="M1066.22 1481.64 L1073.86 1481.64 L1073.86 1455.28 L1065.55 1456.95 L1065.55 1452.69 L1073.81 1451.02 L1078.49 1451.02 L1078.49 1481.64 L1086.13 1481.64 L1086.13 1485.58 L1066.22 1485.58 L1066.22 1481.64 Z" fill="#000000" fill-rule="nonzero" fill-opacity="1" /><path clip-path="url(#clip880)" d="M1099.6 1481.64 L1115.92 1481.64 L1115.92 1485.58 L1093.98 1485.58 L1093.98 1481.64 Q1096.64 1478.89 1101.22 1474.26 Q1105.83 1469.61 1107.01 1468.27 Q1109.25 1465.74 1110.13 1464.01 Q1111.04 1462.25 1111.04 1460.56 Q1111.04 1457.8 1109.09 1456.07 Q1107.17 1454.33 1104.07 1454.33 Q1101.87 1454.33 1099.41 1455.09 Q1096.98 1455.86 1094.21 1457.41 L1094.21 1452.69 Q1097.03 1451.55 1099.48 1450.97 Q1101.94 1450.39 1103.98 1450.39 Q1109.35 1450.39 1112.54 1453.08 Q1115.73 1455.77 1115.73 1460.26 Q1115.73 1462.39 1114.92 1464.31 Q1114.14 1466.2 1112.03 1468.8 Q1111.45 1469.47 1108.35 1472.69 Q1105.25 1475.88 1099.6 1481.64 Z" fill="#000000" fill-rule="nonzero" fill-opacity="1" /><path clip-path="url(#clip880)" d="M1135.73 1454.1 Q1132.12 1454.1 1130.29 1457.66 Q1128.49 1461.2 1128.49 1468.33 Q1128.49 1475.44 1130.29 1479.01 Q1132.12 1482.55 1135.73 1482.55 Q1139.37 1482.55 1141.17 1479.01 Q1143 1475.44 1143 1468.33 Q1143 1461.2 1141.17 1457.66 Q1139.37 1454.1 1135.73 1454.1 M1135.73 1450.39 Q1141.54 1450.39 1144.6 1455 Q1147.68 1459.58 1147.68 1468.33 Q1147.68 1477.06 1144.6 1481.67 Q1141.54 1486.25 1135.73 1486.25 Q1129.92 1486.25 1126.85 1481.67 Q1123.79 1477.06 1123.79 1468.33 Q1123.79 1459.58 1126.85 1455 Q1129.92 1450.39 1135.73 1450.39 Z" fill="#000000" fill-rule="nonzero" fill-opacity="1" /><path clip-path="url(#clip880)" d="M1423.43 1481.64 L1431.07 1481.64 L1431.07 1455.28 L1422.76 1456.95 L1422.76 1452.69 L1431.02 1451.02 L1435.7 1451.02 L1435.7 1481.64 L1443.34 1481.64 L1443.34 1485.58 L1423.43 1485.58 L1423.43 1481.64 Z" fill="#000000" fill-rule="nonzero" fill-opacity="1" /><path clip-path="url(#clip880)" d="M1452.83 1451.02 L1471.19 1451.02 L1471.19 1454.96 L1457.11 1454.96 L1457.11 1463.43 Q1458.13 1463.08 1459.15 1462.92 Q1460.17 1462.73 1461.19 1462.73 Q1466.97 1462.73 1470.35 1465.9 Q1473.73 1469.08 1473.73 1474.49 Q1473.73 1480.07 1470.26 1483.17 Q1466.79 1486.25 1460.47 1486.25 Q1458.29 1486.25 1456.02 1485.88 Q1453.78 1485.51 1451.37 1484.77 L1451.37 1480.07 Q1453.45 1481.2 1455.68 1481.76 Q1457.9 1482.32 1460.38 1482.32 Q1464.38 1482.32 1466.72 1480.21 Q1469.06 1478.1 1469.06 1474.49 Q1469.06 1470.88 1466.72 1468.77 Q1464.38 1466.67 1460.38 1466.67 Q1458.5 1466.67 1456.63 1467.08 Q1454.77 1467.5 1452.83 1468.38 L1452.83 1451.02 Z" fill="#000000" fill-rule="nonzero" fill-opacity="1" /><path clip-path="url(#clip880)" d="M1492.94 1454.1 Q1489.33 1454.1 1487.5 1457.66 Q1485.7 1461.2 1485.7 1468.33 Q1485.7 1475.44 1487.5 1479.01 Q1489.33 1482.55 1492.94 1482.55 Q1496.58 1482.55 1498.38 1479.01 Q1500.21 1475.44 1500.21 1468.33 Q1500.21 1461.2 1498.38 1457.66 Q1496.58 1454.1 1492.94 1454.1 M1492.94 1450.39 Q1498.75 1450.39 1501.81 1455 Q1504.89 1459.58 1504.89 1468.33 Q1504.89 1477.06 1501.81 1481.67 Q1498.75 1486.25 1492.94 1486.25 Q1487.13 1486.25 1484.06 1481.67 Q1481 1477.06 1481 1468.33 Q1481 1459.58 1484.06 1455 Q1487.13 1450.39 1492.94 1450.39 Z" fill="#000000" fill-rule="nonzero" fill-opacity="1" /><path clip-path="url(#clip880)" d="M1780.64 1481.64 L1788.28 1481.64 L1788.28 1455.28 L1779.97 1456.95 L1779.97 1452.69 L1788.23 1451.02 L1792.91 1451.02 L1792.91 1481.64 L1800.55 1481.64 L1800.55 1485.58 L1780.64 1485.58 L1780.64 1481.64 Z" fill="#000000" fill-rule="nonzero" fill-opacity="1" /><path clip-path="url(#clip880)" d="M1819.99 1469.17 Q1816.66 1469.17 1814.74 1470.95 Q1812.84 1472.73 1812.84 1475.86 Q1812.84 1478.98 1814.74 1480.77 Q1816.66 1482.55 1819.99 1482.55 Q1823.33 1482.55 1825.25 1480.77 Q1827.17 1478.96 1827.17 1475.86 Q1827.17 1472.73 1825.25 1470.95 Q1823.35 1469.17 1819.99 1469.17 M1815.32 1467.18 Q1812.31 1466.44 1810.62 1464.38 Q1808.95 1462.32 1808.95 1459.35 Q1808.95 1455.21 1811.89 1452.8 Q1814.85 1450.39 1819.99 1450.39 Q1825.15 1450.39 1828.09 1452.8 Q1831.03 1455.21 1831.03 1459.35 Q1831.03 1462.32 1829.34 1464.38 Q1827.68 1466.44 1824.69 1467.18 Q1828.07 1467.96 1829.95 1470.26 Q1831.84 1472.55 1831.84 1475.86 Q1831.84 1480.88 1828.77 1483.57 Q1825.71 1486.25 1819.99 1486.25 Q1814.28 1486.25 1811.2 1483.57 Q1808.14 1480.88 1808.14 1475.86 Q1808.14 1472.55 1810.04 1470.26 Q1811.94 1467.96 1815.32 1467.18 M1813.6 1459.79 Q1813.6 1462.48 1815.27 1463.98 Q1816.96 1465.49 1819.99 1465.49 Q1823 1465.49 1824.69 1463.98 Q1826.4 1462.48 1826.4 1459.79 Q1826.4 1457.11 1824.69 1455.6 Q1823 1454.1 1819.99 1454.1 Q1816.96 1454.1 1815.27 1455.6 Q1813.6 1457.11 1813.6 1459.79 Z" fill="#000000" fill-rule="nonzero" fill-opacity="1" /><path clip-path="url(#clip880)" d="M1850.15 1454.1 Q1846.54 1454.1 1844.71 1457.66 Q1842.91 1461.2 1842.91 1468.33 Q1842.91 1475.44 1844.71 1479.01 Q1846.54 1482.55 1850.15 1482.55 Q1853.79 1482.55 1855.59 1479.01 Q1857.42 1475.44 1857.42 1468.33 Q1857.42 1461.2 1855.59 1457.66 Q1853.79 1454.1 1850.15 1454.1 M1850.15 1450.39 Q1855.96 1450.39 1859.02 1455 Q1862.1 1459.58 1862.1 1468.33 Q1862.1 1477.06 1859.02 1481.67 Q1855.96 1486.25 1850.15 1486.25 Q1844.34 1486.25 1841.27 1481.67 Q1838.21 1477.06 1838.21 1468.33 Q1838.21 1459.58 1841.27 1455 Q1844.34 1450.39 1850.15 1450.39 Z" fill="#000000" fill-rule="nonzero" fill-opacity="1" /><path clip-path="url(#clip880)" d="M1147.29 1520.52 L1153.72 1520.52 L1153.72 1540.61 L1175.05 1520.52 L1183.32 1520.52 L1159.74 1542.68 L1185.01 1568.04 L1176.54 1568.04 L1153.72 1545.16 L1153.72 1568.04 L1147.29 1568.04 L1147.29 1520.52 Z" fill="#000000" fill-rule="nonzero" fill-opacity="1" /><polyline clip-path="url(#clip880)" style="stroke:#000000; stroke-linecap:round; stroke-linejoin:round; stroke-width:4; stroke-opacity:1; fill:none" points="219.542,1423.18 219.542,47.2441 "/>
<polyline clip-path="url(#clip880)" style="stroke:#000000; stroke-linecap:round; stroke-linejoin:round; stroke-width:4; stroke-opacity:1; fill:none" points="219.542,1198.8 236.314,1198.8 "/>
<polyline clip-path="url(#clip880)" style="stroke:#000000; stroke-linecap:round; stroke-linejoin:round; stroke-width:4; stroke-opacity:1; fill:none" points="219.542,827.93 236.314,827.93 "/>
<polyline clip-path="url(#clip880)" style="stroke:#000000; stroke-linecap:round; stroke-linejoin:round; stroke-width:4; stroke-opacity:1; fill:none" points="219.542,457.058 236.314,457.058 "/>
<polyline clip-path="url(#clip880)" style="stroke:#000000; stroke-linecap:round; stroke-linejoin:round; stroke-width:4; stroke-opacity:1; fill:none" points="219.542,86.1857 236.314,86.1857 "/>
<path clip-path="url(#clip880)" d="M126.205 1184.6 Q122.593 1184.6 120.765 1188.17 Q118.959 1191.71 118.959 1198.84 Q118.959 1205.94 120.765 1209.51 Q122.593 1213.05 126.205 1213.05 Q129.839 1213.05 131.644 1209.51 Q133.473 1205.94 133.473 1198.84 Q133.473 1191.71 131.644 1188.17 Q129.839 1184.6 126.205 1184.6 M126.205 1180.9 Q132.015 1180.9 135.07 1185.5 Q138.149 1190.09 138.149 1198.84 Q138.149 1207.56 135.07 1212.17 Q132.015 1216.75 126.205 1216.75 Q120.394 1216.75 117.316 1212.17 Q114.26 1207.56 114.26 1198.84 Q114.26 1190.09 117.316 1185.5 Q120.394 1180.9 126.205 1180.9 Z" fill="#000000" fill-rule="nonzero" fill-opacity="1" /><path clip-path="url(#clip880)" d="M146.366 1210.2 L151.251 1210.2 L151.251 1216.08 L146.366 1216.08 L146.366 1210.2 Z" fill="#000000" fill-rule="nonzero" fill-opacity="1" /><path clip-path="url(#clip880)" d="M172.014 1196.94 Q168.866 1196.94 167.015 1199.09 Q165.186 1201.24 165.186 1204.99 Q165.186 1208.72 167.015 1210.9 Q168.866 1213.05 172.014 1213.05 Q175.163 1213.05 176.991 1210.9 Q178.843 1208.72 178.843 1204.99 Q178.843 1201.24 176.991 1199.09 Q175.163 1196.94 172.014 1196.94 M181.297 1182.29 L181.297 1186.55 Q179.538 1185.71 177.732 1185.27 Q175.95 1184.83 174.19 1184.83 Q169.561 1184.83 167.107 1187.96 Q164.677 1191.08 164.329 1197.4 Q165.695 1195.39 167.755 1194.32 Q169.815 1193.24 172.292 1193.24 Q177.501 1193.24 180.51 1196.41 Q183.542 1199.55 183.542 1204.99 Q183.542 1210.32 180.394 1213.54 Q177.246 1216.75 172.014 1216.75 Q166.019 1216.75 162.848 1212.17 Q159.677 1207.56 159.677 1198.84 Q159.677 1190.64 163.565 1185.78 Q167.454 1180.9 174.005 1180.9 Q175.764 1180.9 177.547 1181.24 Q179.352 1181.59 181.297 1182.29 Z" fill="#000000" fill-rule="nonzero" fill-opacity="1" /><path clip-path="url(#clip880)" d="M126.459 813.729 Q122.848 813.729 121.019 817.293 Q119.214 820.835 119.214 827.965 Q119.214 835.071 121.019 838.636 Q122.848 842.178 126.459 842.178 Q130.093 842.178 131.899 838.636 Q133.728 835.071 133.728 827.965 Q133.728 820.835 131.899 817.293 Q130.093 813.729 126.459 813.729 M126.459 810.025 Q132.269 810.025 135.325 814.631 Q138.404 819.215 138.404 827.965 Q138.404 836.692 135.325 841.298 Q132.269 845.881 126.459 845.881 Q120.649 845.881 117.57 841.298 Q114.515 836.692 114.515 827.965 Q114.515 819.215 117.57 814.631 Q120.649 810.025 126.459 810.025 Z" fill="#000000" fill-rule="nonzero" fill-opacity="1" /><path clip-path="url(#clip880)" d="M146.621 839.33 L151.505 839.33 L151.505 845.21 L146.621 845.21 L146.621 839.33 Z" fill="#000000" fill-rule="nonzero" fill-opacity="1" /><path clip-path="url(#clip880)" d="M171.69 828.798 Q168.357 828.798 166.436 830.58 Q164.538 832.363 164.538 835.488 Q164.538 838.613 166.436 840.395 Q168.357 842.178 171.69 842.178 Q175.024 842.178 176.945 840.395 Q178.866 838.59 178.866 835.488 Q178.866 832.363 176.945 830.58 Q175.047 828.798 171.69 828.798 M167.015 826.807 Q164.005 826.067 162.315 824.006 Q160.649 821.946 160.649 818.983 Q160.649 814.84 163.589 812.432 Q166.552 810.025 171.69 810.025 Q176.852 810.025 179.792 812.432 Q182.732 814.84 182.732 818.983 Q182.732 821.946 181.042 824.006 Q179.376 826.067 176.389 826.807 Q179.769 827.594 181.644 829.886 Q183.542 832.178 183.542 835.488 Q183.542 840.511 180.464 843.196 Q177.408 845.881 171.69 845.881 Q165.973 845.881 162.894 843.196 Q159.839 840.511 159.839 835.488 Q159.839 832.178 161.737 829.886 Q163.635 827.594 167.015 826.807 M165.302 819.423 Q165.302 822.108 166.968 823.613 Q168.658 825.118 171.69 825.118 Q174.7 825.118 176.389 823.613 Q178.102 822.108 178.102 819.423 Q178.102 816.738 176.389 815.233 Q174.7 813.729 171.69 813.729 Q168.658 813.729 166.968 815.233 Q165.302 816.738 165.302 819.423 Z" fill="#000000" fill-rule="nonzero" fill-opacity="1" /><path clip-path="url(#clip880)" d="M117.177 470.403 L124.816 470.403 L124.816 444.037 L116.506 445.704 L116.506 441.444 L124.769 439.778 L129.445 439.778 L129.445 470.403 L137.084 470.403 L137.084 474.338 L117.177 474.338 L117.177 470.403 Z" fill="#000000" fill-rule="nonzero" fill-opacity="1" /><path clip-path="url(#clip880)" d="M146.529 468.458 L151.413 468.458 L151.413 474.338 L146.529 474.338 L146.529 468.458 Z" fill="#000000" fill-rule="nonzero" fill-opacity="1" /><path clip-path="url(#clip880)" d="M171.598 442.857 Q167.987 442.857 166.158 446.421 Q164.352 449.963 164.352 457.093 Q164.352 464.199 166.158 467.764 Q167.987 471.305 171.598 471.305 Q175.232 471.305 177.038 467.764 Q178.866 464.199 178.866 457.093 Q178.866 449.963 177.038 446.421 Q175.232 442.857 171.598 442.857 M171.598 439.153 Q177.408 439.153 180.464 443.759 Q183.542 448.343 183.542 457.093 Q183.542 465.819 180.464 470.426 Q177.408 475.009 171.598 475.009 Q165.788 475.009 162.709 470.426 Q159.653 465.819 159.653 457.093 Q159.653 448.343 162.709 443.759 Q165.788 439.153 171.598 439.153 Z" fill="#000000" fill-rule="nonzero" fill-opacity="1" /><path clip-path="url(#clip880)" d="M118.774 99.5305 L126.413 99.5305 L126.413 73.1649 L118.103 74.8316 L118.103 70.5723 L126.367 68.9057 L131.042 68.9057 L131.042 99.5305 L138.681 99.5305 L138.681 103.466 L118.774 103.466 L118.774 99.5305 Z" fill="#000000" fill-rule="nonzero" fill-opacity="1" /><path clip-path="url(#clip880)" d="M148.126 97.5861 L153.01 97.5861 L153.01 103.466 L148.126 103.466 L148.126 97.5861 Z" fill="#000000" fill-rule="nonzero" fill-opacity="1" /><path clip-path="url(#clip880)" d="M167.223 99.5305 L183.542 99.5305 L183.542 103.466 L161.598 103.466 L161.598 99.5305 Q164.26 96.7759 168.843 92.1463 Q173.45 87.4935 174.63 86.151 Q176.876 83.6278 177.755 81.8917 Q178.658 80.1325 178.658 78.4427 Q178.658 75.688 176.714 73.9519 Q174.792 72.2158 171.69 72.2158 Q169.491 72.2158 167.038 72.9797 Q164.607 73.7436 161.829 75.2945 L161.829 70.5723 Q164.653 69.4381 167.107 68.8594 Q169.561 68.2807 171.598 68.2807 Q176.968 68.2807 180.163 70.9658 Q183.357 73.651 183.357 78.1417 Q183.357 80.2714 182.547 82.1926 Q181.76 84.0908 179.653 86.6834 Q179.075 87.3546 175.973 90.5722 Q172.871 93.7667 167.223 99.5305 Z" fill="#000000" fill-rule="nonzero" fill-opacity="1" /><path clip-path="url(#clip880)" d="M33.0032 736.756 Q33.0032 741.594 36.5043 744.204 Q40.1646 746.941 46.212 746.941 Q52.6095 746.941 56.3017 744.235 Q59.9619 741.498 59.9619 736.756 Q59.9619 732.077 56.2698 729.34 Q52.5777 726.602 46.212 726.602 Q40.3874 726.602 36.5043 729.34 Q33.0032 731.854 33.0032 736.756 M28.3562 736.756 L28.3562 717.308 L34.2127 717.308 L34.2127 723.865 Q39.1779 720.396 46.212 720.396 Q54.9649 720.396 59.9301 724.756 Q64.9272 729.117 64.9272 736.756 Q64.9272 744.426 59.9301 748.755 Q54.9649 753.116 46.212 753.116 Q37.3955 753.116 32.4621 748.755 Q28.3562 745.158 28.3562 736.756 Z" fill="#000000" fill-rule="nonzero" fill-opacity="1" /><polyline clip-path="url(#clip881)" style="stroke:#02010e; stroke-linecap:round; stroke-linejoin:round; stroke-width:4; stroke-opacity:1; fill:none" points="813.286,1092.84 819.874,1109.26 825.727,1119.33 850.723,1145.82 856.324,1149.82 892.774,1162.69 929.224,1164.58 965.674,1159.42 1002.12,1149.63 1012.09,1145.82 1038.57,1135.44 1073.2,1119.33 1075.02,1118.46 1111.47,1097.77 1119.27,1092.84 1147.92,1074.24 1159.01,1066.35 1184.37,1047.82 1194.4,1039.86 1220.82,1018.33 1226.47,1013.37 1255.74,986.875 1257.27,985.43 1281.79,960.384 1293.72,947.906 1306.2,933.893 1329.18,907.403 1330.17,906.171 1349.24,880.912 1366.62,857.372 1368.66,854.421 1385.49,827.93 1401.78,801.439 1403.07,799.112 1415.58,774.948 1428.39,748.457 1439.52,723.58 1440.2,721.967 1449.65,695.476 1457.97,668.985 1465.05,642.494 1470.75,616.003 1474.92,589.512 1475.97,577.921 1477.21,563.021 1477.73,536.53 1476.47,510.04 1475.97,505.776 1472.77,483.549 1466.41,457.058 1457.15,430.567 1444.67,404.076 1439.52,395.253 1425.37,377.585 1403.07,355.185 1396.68,351.094 1366.62,334.698 1330.17,325.711 1293.72,325.516 1257.27,332.492 1220.82,345.533 1210.13,351.094 1184.37,364.27 1164.3,377.585 1147.92,388.283 1128.32,404.076 1111.47,417.467 1097.66,430.567 1075.02,451.762 1070.17,457.058 1045.84,483.549 1038.57,491.413 1023.62,510.04 1002.13,536.53 1002.12,536.542 983.442,563.021 965.674,587.99 964.71,589.512 948.259,616.003 931.784,642.494 929.224,646.7 917.104,668.985 902.877,695.476 892.774,714.619 889.287,721.967 877.19,748.457 865.4,774.948 856.324,796.097 854.257,801.439 844.683,827.93 835.66,854.421 827.278,880.912 819.874,906.677 819.686,907.403 813.927,933.893 809.232,960.384 805.829,986.875 804.023,1013.37 804.229,1039.86 807.032,1066.35 813.286,1092.84 "/>
<polyline clip-path="url(#clip881)" style="stroke:#010007; stroke-linecap:round; stroke-linejoin:round; stroke-width:4; stroke-opacity:1; fill:none" points="918.435,1039.86 929.224,1051.13 964.628,1066.35 965.674,1066.64 1002.12,1066.37 1002.23,1066.35 1038.57,1057.2 1075.02,1042.87 1080.67,1039.86 1111.47,1022.98 1126.16,1013.37 1147.92,998.754 1163.18,986.875 1184.37,969.953 1194.93,960.384 1220.82,936.335 1223.18,933.893 1247.13,907.403 1257.27,895.797 1268.93,880.912 1288.79,854.421 1293.72,847.277 1305.73,827.93 1321.11,801.439 1330.17,784.34 1334.66,774.948 1345.52,748.457 1354.98,721.967 1362.78,695.476 1366.62,677.531 1368.25,668.985 1371.02,642.494 1371.45,616.003 1369.18,589.512 1366.62,576.563 1362.84,563.021 1350.52,536.53 1331.54,510.04 1330.17,508.567 1293.72,487.342 1268.74,483.549 1257.27,482.123 1247.98,483.549 1220.82,487.632 1184.37,501.427 1169.55,510.04 1147.92,522.408 1129.49,536.53 1111.47,550.14 1097.93,563.021 1075.02,584.532 1070.64,589.512 1047.52,616.003 1038.57,626.244 1026.62,642.494 1007.18,668.985 1002.12,676.035 990.193,695.476 974.206,721.967 965.674,736.529 959.623,748.457 946.897,774.948 934.676,801.439 929.224,814.256 924.17,827.93 915.477,854.421 907.897,880.912 901.728,907.403 897.394,933.893 895.531,960.384 897.123,986.875 903.796,1013.37 918.435,1039.86 "/>
<polyline clip-path="url(#clip881)" style="stroke:#000004; stroke-linecap:round; stroke-linejoin:round; stroke-width:4; stroke-opacity:1; fill:none" points="995.463,986.875 1002.12,990.635 1038.57,993.42 1064.44,986.875 1075.02,984.119 1111.47,966.014 1119.87,960.384 1147.92,941.061 1156.35,933.893 1184.37,909.455 1186.36,907.403 1209.99,880.912 1220.82,868.323 1230.97,854.421 1248.94,827.93 1257.27,814.409 1264.11,801.439 1276.01,774.948 1286.13,748.457 1293.72,722.649 1293.89,721.967 1297.35,695.476 1297.62,668.985 1293.85,642.494 1293.72,642.084 1280.04,616.003 1257.27,592.984 1245.28,589.512 1220.82,584.514 1193.52,589.512 1184.37,591.157 1147.92,608.857 1138.27,616.003 1111.47,635.57 1104.42,642.494 1077.31,668.985 1075.02,671.25 1056.05,695.476 1038.57,717.602 1035.77,721.967 1019.79,748.457 1004.09,774.948 1002.12,778.623 992.113,801.439 981.659,827.93 972.632,854.421 965.674,880.654 965.618,880.912 962.7,907.403 963.222,933.893 965.674,946.291 970.674,960.384 995.463,986.875 "/>
<circle clip-path="url(#clip881)" cx="1126.85" cy="803.831" r="14.4" fill="#e26f46" fill-rule="evenodd" fill-opacity="1" stroke="#000000" stroke-opacity="1" stroke-width="3.2"/>
<defs>
  <clipPath id="clip882">
    <rect x="2160" y="47" width="73" height="1377"/>
  </clipPath>
</defs>
<polyline clip-path="url(#clip882)" style="stroke:#000006; stroke-linecap:round; stroke-linejoin:round; stroke-width:4; stroke-opacity:1; fill:none" points="2160.76,1414.72 2232.76,1414.72 "/>
<polyline clip-path="url(#clip882)" style="stroke:#010007; stroke-linecap:round; stroke-linejoin:round; stroke-width:4; stroke-opacity:1; fill:none" points="2160.76,1406.09 2232.76,1406.09 "/>
<polyline clip-path="url(#clip882)" style="stroke:#02010e; stroke-linecap:round; stroke-linejoin:round; stroke-width:4; stroke-opacity:1; fill:none" points="2160.76,1388.91 2232.76,1388.91 "/>
<path clip-path="url(#clip880)" d="M2270.21 1215.65 L2288.57 1215.65 L2288.57 1219.59 L2274.5 1219.59 L2274.5 1228.06 Q2275.52 1227.71 2276.53 1227.55 Q2277.55 1227.37 2278.57 1227.37 Q2284.36 1227.37 2287.74 1230.54 Q2291.12 1233.71 2291.12 1239.12 Q2291.12 1244.7 2287.64 1247.8 Q2284.17 1250.88 2277.85 1250.88 Q2275.68 1250.88 2273.41 1250.51 Q2271.16 1250.14 2268.76 1249.4 L2268.76 1244.7 Q2270.84 1245.84 2273.06 1246.39 Q2275.28 1246.95 2277.76 1246.95 Q2281.77 1246.95 2284.1 1244.84 Q2286.44 1242.74 2286.44 1239.12 Q2286.44 1235.51 2284.1 1233.41 Q2281.77 1231.3 2277.76 1231.3 Q2275.89 1231.3 2274.01 1231.72 Q2272.16 1232.13 2270.21 1233.01 L2270.21 1215.65 Z" fill="#000000" fill-rule="nonzero" fill-opacity="1" /><path clip-path="url(#clip880)" d="M2310.33 1218.73 Q2306.72 1218.73 2304.89 1222.3 Q2303.08 1225.84 2303.08 1232.97 Q2303.08 1240.07 2304.89 1243.64 Q2306.72 1247.18 2310.33 1247.18 Q2313.96 1247.18 2315.77 1243.64 Q2317.6 1240.07 2317.6 1232.97 Q2317.6 1225.84 2315.77 1222.3 Q2313.96 1218.73 2310.33 1218.73 M2310.33 1215.03 Q2316.14 1215.03 2319.2 1219.63 Q2322.27 1224.22 2322.27 1232.97 Q2322.27 1241.69 2319.2 1246.3 Q2316.14 1250.88 2310.33 1250.88 Q2304.52 1250.88 2301.44 1246.3 Q2298.39 1241.69 2298.39 1232.97 Q2298.39 1224.22 2301.44 1219.63 Q2304.52 1215.03 2310.33 1215.03 Z" fill="#000000" fill-rule="nonzero" fill-opacity="1" /><polyline clip-path="url(#clip880)" style="stroke:#000000; stroke-linecap:round; stroke-linejoin:round; stroke-width:4; stroke-opacity:1; fill:none" points="2232.76,1236.56 2256.76,1236.56 "/>
<path clip-path="url(#clip880)" d="M2269.43 1059.53 L2277.07 1059.53 L2277.07 1033.17 L2268.76 1034.83 L2268.76 1030.57 L2277.02 1028.91 L2281.7 1028.91 L2281.7 1059.53 L2289.33 1059.53 L2289.33 1063.47 L2269.43 1063.47 L2269.43 1059.53 Z" fill="#000000" fill-rule="nonzero" fill-opacity="1" /><path clip-path="url(#clip880)" d="M2308.78 1031.99 Q2305.17 1031.99 2303.34 1035.55 Q2301.53 1039.09 2301.53 1046.22 Q2301.53 1053.33 2303.34 1056.89 Q2305.17 1060.43 2308.78 1060.43 Q2312.41 1060.43 2314.22 1056.89 Q2316.05 1053.33 2316.05 1046.22 Q2316.05 1039.09 2314.22 1035.55 Q2312.41 1031.99 2308.78 1031.99 M2308.78 1028.28 Q2314.59 1028.28 2317.64 1032.89 Q2320.72 1037.47 2320.72 1046.22 Q2320.72 1054.95 2317.64 1059.56 Q2314.59 1064.14 2308.78 1064.14 Q2302.97 1064.14 2299.89 1059.56 Q2296.83 1054.95 2296.83 1046.22 Q2296.83 1037.47 2299.89 1032.89 Q2302.97 1028.28 2308.78 1028.28 Z" fill="#000000" fill-rule="nonzero" fill-opacity="1" /><path clip-path="url(#clip880)" d="M2338.94 1031.99 Q2335.33 1031.99 2333.5 1035.55 Q2331.7 1039.09 2331.7 1046.22 Q2331.7 1053.33 2333.5 1056.89 Q2335.33 1060.43 2338.94 1060.43 Q2342.57 1060.43 2344.38 1056.89 Q2346.21 1053.33 2346.21 1046.22 Q2346.21 1039.09 2344.38 1035.55 Q2342.57 1031.99 2338.94 1031.99 M2338.94 1028.28 Q2344.75 1028.28 2347.81 1032.89 Q2350.89 1037.47 2350.89 1046.22 Q2350.89 1054.95 2347.81 1059.56 Q2344.75 1064.14 2338.94 1064.14 Q2333.13 1064.14 2330.05 1059.56 Q2327 1054.95 2327 1046.22 Q2327 1037.47 2330.05 1032.89 Q2333.13 1028.28 2338.94 1028.28 Z" fill="#000000" fill-rule="nonzero" fill-opacity="1" /><polyline clip-path="url(#clip880)" style="stroke:#000000; stroke-linecap:round; stroke-linejoin:round; stroke-width:4; stroke-opacity:1; fill:none" points="2232.76,1049.82 2256.76,1049.82 "/>
<path clip-path="url(#clip880)" d="M2269.43 872.787 L2277.07 872.787 L2277.07 846.421 L2268.76 848.088 L2268.76 843.829 L2277.02 842.162 L2281.7 842.162 L2281.7 872.787 L2289.33 872.787 L2289.33 876.722 L2269.43 876.722 L2269.43 872.787 Z" fill="#000000" fill-rule="nonzero" fill-opacity="1" /><path clip-path="url(#clip880)" d="M2298.83 842.162 L2317.18 842.162 L2317.18 846.097 L2303.11 846.097 L2303.11 854.569 Q2304.13 854.222 2305.14 854.06 Q2306.16 853.875 2307.18 853.875 Q2312.97 853.875 2316.35 857.046 Q2319.73 860.217 2319.73 865.634 Q2319.73 871.213 2316.26 874.315 Q2312.78 877.393 2306.46 877.393 Q2304.29 877.393 2302.02 877.023 Q2299.77 876.653 2297.37 875.912 L2297.37 871.213 Q2299.45 872.347 2301.67 872.903 Q2303.89 873.458 2306.37 873.458 Q2310.38 873.458 2312.71 871.352 Q2315.05 869.245 2315.05 865.634 Q2315.05 862.023 2312.71 859.917 Q2310.38 857.81 2306.37 857.81 Q2304.5 857.81 2302.62 858.227 Q2300.77 858.643 2298.83 859.523 L2298.83 842.162 Z" fill="#000000" fill-rule="nonzero" fill-opacity="1" /><path clip-path="url(#clip880)" d="M2338.94 845.241 Q2335.33 845.241 2333.5 848.805 Q2331.7 852.347 2331.7 859.477 Q2331.7 866.583 2333.5 870.148 Q2335.33 873.69 2338.94 873.69 Q2342.57 873.69 2344.38 870.148 Q2346.21 866.583 2346.21 859.477 Q2346.21 852.347 2344.38 848.805 Q2342.57 845.241 2338.94 845.241 M2338.94 841.537 Q2344.75 841.537 2347.81 846.143 Q2350.89 850.727 2350.89 859.477 Q2350.89 868.204 2347.81 872.81 Q2344.75 877.393 2338.94 877.393 Q2333.13 877.393 2330.05 872.81 Q2327 868.204 2327 859.477 Q2327 850.727 2330.05 846.143 Q2333.13 841.537 2338.94 841.537 Z" fill="#000000" fill-rule="nonzero" fill-opacity="1" /><polyline clip-path="url(#clip880)" style="stroke:#000000; stroke-linecap:round; stroke-linejoin:round; stroke-width:4; stroke-opacity:1; fill:none" points="2232.76,863.071 2256.76,863.071 "/>
<path clip-path="url(#clip880)" d="M2274.38 686.042 L2290.7 686.042 L2290.7 689.977 L2268.76 689.977 L2268.76 686.042 Q2271.42 683.287 2276 678.657 Q2280.61 674.005 2281.79 672.662 Q2284.03 670.139 2284.91 668.403 Q2285.82 666.644 2285.82 664.954 Q2285.82 662.199 2283.87 660.463 Q2281.95 658.727 2278.85 658.727 Q2276.65 658.727 2274.2 659.491 Q2271.77 660.255 2268.99 661.806 L2268.99 657.084 Q2271.81 655.949 2274.27 655.371 Q2276.72 654.792 2278.76 654.792 Q2284.13 654.792 2287.32 657.477 Q2290.52 660.162 2290.52 664.653 Q2290.52 666.783 2289.7 668.704 Q2288.92 670.602 2286.81 673.195 Q2286.23 673.866 2283.13 677.083 Q2280.03 680.278 2274.38 686.042 Z" fill="#000000" fill-rule="nonzero" fill-opacity="1" /><path clip-path="url(#clip880)" d="M2310.51 658.496 Q2306.9 658.496 2305.08 662.06 Q2303.27 665.602 2303.27 672.732 Q2303.27 679.838 2305.08 683.403 Q2306.9 686.944 2310.51 686.944 Q2314.15 686.944 2315.95 683.403 Q2317.78 679.838 2317.78 672.732 Q2317.78 665.602 2315.95 662.06 Q2314.15 658.496 2310.51 658.496 M2310.51 654.792 Q2316.33 654.792 2319.38 659.398 Q2322.46 663.982 2322.46 672.732 Q2322.46 681.458 2319.38 686.065 Q2316.33 690.648 2310.51 690.648 Q2304.7 690.648 2301.63 686.065 Q2298.57 681.458 2298.57 672.732 Q2298.57 663.982 2301.63 659.398 Q2304.7 654.792 2310.51 654.792 Z" fill="#000000" fill-rule="nonzero" fill-opacity="1" /><path clip-path="url(#clip880)" d="M2340.68 658.496 Q2337.07 658.496 2335.24 662.06 Q2333.43 665.602 2333.43 672.732 Q2333.43 679.838 2335.24 683.403 Q2337.07 686.944 2340.68 686.944 Q2344.31 686.944 2346.12 683.403 Q2347.95 679.838 2347.95 672.732 Q2347.95 665.602 2346.12 662.06 Q2344.31 658.496 2340.68 658.496 M2340.68 654.792 Q2346.49 654.792 2349.54 659.398 Q2352.62 663.982 2352.62 672.732 Q2352.62 681.458 2349.54 686.065 Q2346.49 690.648 2340.68 690.648 Q2334.87 690.648 2331.79 686.065 Q2328.73 681.458 2328.73 672.732 Q2328.73 663.982 2331.79 659.398 Q2334.87 654.792 2340.68 654.792 Z" fill="#000000" fill-rule="nonzero" fill-opacity="1" /><polyline clip-path="url(#clip880)" style="stroke:#000000; stroke-linecap:round; stroke-linejoin:round; stroke-width:4; stroke-opacity:1; fill:none" points="2232.76,676.326 2256.76,676.326 "/>
<path clip-path="url(#clip880)" d="M2274.38 499.297 L2290.7 499.297 L2290.7 503.232 L2268.76 503.232 L2268.76 499.297 Q2271.42 496.542 2276 491.912 Q2280.61 487.26 2281.79 485.917 Q2284.03 483.394 2284.91 481.658 Q2285.82 479.899 2285.82 478.209 Q2285.82 475.454 2283.87 473.718 Q2281.95 471.982 2278.85 471.982 Q2276.65 471.982 2274.2 472.746 Q2271.77 473.51 2268.99 475.061 L2268.99 470.338 Q2271.81 469.204 2274.27 468.625 Q2276.72 468.047 2278.76 468.047 Q2284.13 468.047 2287.32 470.732 Q2290.52 473.417 2290.52 477.908 Q2290.52 480.037 2289.7 481.959 Q2288.92 483.857 2286.81 486.449 Q2286.23 487.121 2283.13 490.338 Q2280.03 493.533 2274.38 499.297 Z" fill="#000000" fill-rule="nonzero" fill-opacity="1" /><path clip-path="url(#clip880)" d="M2300.56 468.672 L2318.92 468.672 L2318.92 472.607 L2304.84 472.607 L2304.84 481.079 Q2305.86 480.732 2306.88 480.57 Q2307.9 480.385 2308.92 480.385 Q2314.7 480.385 2318.08 483.556 Q2321.46 486.727 2321.46 492.144 Q2321.46 497.723 2317.99 500.824 Q2314.52 503.903 2308.2 503.903 Q2306.02 503.903 2303.76 503.533 Q2301.51 503.162 2299.1 502.422 L2299.1 497.723 Q2301.19 498.857 2303.41 499.412 Q2305.63 499.968 2308.11 499.968 Q2312.11 499.968 2314.45 497.861 Q2316.79 495.755 2316.79 492.144 Q2316.79 488.533 2314.45 486.426 Q2312.11 484.32 2308.11 484.32 Q2306.23 484.32 2304.36 484.736 Q2302.51 485.153 2300.56 486.033 L2300.56 468.672 Z" fill="#000000" fill-rule="nonzero" fill-opacity="1" /><path clip-path="url(#clip880)" d="M2340.68 471.75 Q2337.07 471.75 2335.24 475.315 Q2333.43 478.857 2333.43 485.986 Q2333.43 493.093 2335.24 496.658 Q2337.07 500.199 2340.68 500.199 Q2344.31 500.199 2346.12 496.658 Q2347.95 493.093 2347.95 485.986 Q2347.95 478.857 2346.12 475.315 Q2344.31 471.75 2340.68 471.75 M2340.68 468.047 Q2346.49 468.047 2349.54 472.653 Q2352.62 477.237 2352.62 485.986 Q2352.62 494.713 2349.54 499.32 Q2346.49 503.903 2340.68 503.903 Q2334.87 503.903 2331.79 499.32 Q2328.73 494.713 2328.73 485.986 Q2328.73 477.237 2331.79 472.653 Q2334.87 468.047 2340.68 468.047 Z" fill="#000000" fill-rule="nonzero" fill-opacity="1" /><polyline clip-path="url(#clip880)" style="stroke:#000000; stroke-linecap:round; stroke-linejoin:round; stroke-width:4; stroke-opacity:1; fill:none" points="2232.76,489.581 2256.76,489.581 "/>
<path clip-path="url(#clip880)" d="M2284.38 297.852 Q2287.74 298.57 2289.61 300.839 Q2291.51 303.107 2291.51 306.44 Q2291.51 311.556 2287.99 314.357 Q2284.47 317.158 2277.99 317.158 Q2275.82 317.158 2273.5 316.718 Q2271.21 316.301 2268.76 315.445 L2268.76 310.931 Q2270.7 312.065 2273.02 312.644 Q2275.33 313.223 2277.85 313.223 Q2282.25 313.223 2284.54 311.487 Q2286.86 309.751 2286.86 306.44 Q2286.86 303.385 2284.7 301.672 Q2282.58 299.936 2278.76 299.936 L2274.73 299.936 L2274.73 296.093 L2278.94 296.093 Q2282.39 296.093 2284.22 294.727 Q2286.05 293.339 2286.05 290.746 Q2286.05 288.084 2284.15 286.672 Q2282.27 285.237 2278.76 285.237 Q2276.83 285.237 2274.64 285.653 Q2272.44 286.07 2269.8 286.95 L2269.8 282.783 Q2272.46 282.042 2274.77 281.672 Q2277.11 281.302 2279.17 281.302 Q2284.5 281.302 2287.6 283.732 Q2290.7 286.14 2290.7 290.26 Q2290.7 293.13 2289.06 295.121 Q2287.41 297.089 2284.38 297.852 Z" fill="#000000" fill-rule="nonzero" fill-opacity="1" /><path clip-path="url(#clip880)" d="M2310.38 285.005 Q2306.76 285.005 2304.94 288.57 Q2303.13 292.112 2303.13 299.241 Q2303.13 306.348 2304.94 309.913 Q2306.76 313.454 2310.38 313.454 Q2314.01 313.454 2315.82 309.913 Q2317.64 306.348 2317.64 299.241 Q2317.64 292.112 2315.82 288.57 Q2314.01 285.005 2310.38 285.005 M2310.38 281.302 Q2316.19 281.302 2319.24 285.908 Q2322.32 290.491 2322.32 299.241 Q2322.32 307.968 2319.24 312.575 Q2316.19 317.158 2310.38 317.158 Q2304.57 317.158 2301.49 312.575 Q2298.43 307.968 2298.43 299.241 Q2298.43 290.491 2301.49 285.908 Q2304.57 281.302 2310.38 281.302 Z" fill="#000000" fill-rule="nonzero" fill-opacity="1" /><path clip-path="url(#clip880)" d="M2340.54 285.005 Q2336.93 285.005 2335.1 288.57 Q2333.29 292.112 2333.29 299.241 Q2333.29 306.348 2335.1 309.913 Q2336.93 313.454 2340.54 313.454 Q2344.17 313.454 2345.98 309.913 Q2347.81 306.348 2347.81 299.241 Q2347.81 292.112 2345.98 288.57 Q2344.17 285.005 2340.54 285.005 M2340.54 281.302 Q2346.35 281.302 2349.4 285.908 Q2352.48 290.491 2352.48 299.241 Q2352.48 307.968 2349.4 312.575 Q2346.35 317.158 2340.54 317.158 Q2334.73 317.158 2331.65 312.575 Q2328.59 307.968 2328.59 299.241 Q2328.59 290.491 2331.65 285.908 Q2334.73 281.302 2340.54 281.302 Z" fill="#000000" fill-rule="nonzero" fill-opacity="1" /><polyline clip-path="url(#clip880)" style="stroke:#000000; stroke-linecap:round; stroke-linejoin:round; stroke-width:4; stroke-opacity:1; fill:none" points="2232.76,302.835 2256.76,302.835 "/>
<path clip-path="url(#clip880)" d="M2284.38 111.107 Q2287.74 111.825 2289.61 114.093 Q2291.51 116.362 2291.51 119.695 Q2291.51 124.811 2287.99 127.612 Q2284.47 130.413 2277.99 130.413 Q2275.82 130.413 2273.5 129.973 Q2271.21 129.556 2268.76 128.7 L2268.76 124.186 Q2270.7 125.32 2273.02 125.899 Q2275.33 126.478 2277.85 126.478 Q2282.25 126.478 2284.54 124.742 Q2286.86 123.005 2286.86 119.695 Q2286.86 116.64 2284.7 114.927 Q2282.58 113.191 2278.76 113.191 L2274.73 113.191 L2274.73 109.348 L2278.94 109.348 Q2282.39 109.348 2284.22 107.982 Q2286.05 106.593 2286.05 104.001 Q2286.05 101.339 2284.15 99.9268 Q2282.27 98.4916 2278.76 98.4916 Q2276.83 98.4916 2274.64 98.9083 Q2272.44 99.325 2269.8 100.205 L2269.8 96.038 Q2272.46 95.2972 2274.77 94.9269 Q2277.11 94.5565 2279.17 94.5565 Q2284.5 94.5565 2287.6 96.987 Q2290.7 99.3944 2290.7 103.515 Q2290.7 106.385 2289.06 108.376 Q2287.41 110.343 2284.38 111.107 Z" fill="#000000" fill-rule="nonzero" fill-opacity="1" /><path clip-path="url(#clip880)" d="M2300.42 95.1815 L2318.78 95.1815 L2318.78 99.1166 L2304.7 99.1166 L2304.7 107.589 Q2305.72 107.242 2306.74 107.08 Q2307.76 106.894 2308.78 106.894 Q2314.57 106.894 2317.95 110.066 Q2321.33 113.237 2321.33 118.654 Q2321.33 124.232 2317.85 127.334 Q2314.38 130.413 2308.06 130.413 Q2305.89 130.413 2303.62 130.042 Q2301.37 129.672 2298.96 128.931 L2298.96 124.232 Q2301.05 125.367 2303.27 125.922 Q2305.49 126.478 2307.97 126.478 Q2311.97 126.478 2314.31 124.371 Q2316.65 122.265 2316.65 118.654 Q2316.65 115.042 2314.31 112.936 Q2311.97 110.83 2307.97 110.83 Q2306.09 110.83 2304.22 111.246 Q2302.37 111.663 2300.42 112.542 L2300.42 95.1815 Z" fill="#000000" fill-rule="nonzero" fill-opacity="1" /><path clip-path="url(#clip880)" d="M2340.54 98.2602 Q2336.93 98.2602 2335.1 101.825 Q2333.29 105.367 2333.29 112.496 Q2333.29 119.603 2335.1 123.167 Q2336.93 126.709 2340.54 126.709 Q2344.17 126.709 2345.98 123.167 Q2347.81 119.603 2347.81 112.496 Q2347.81 105.367 2345.98 101.825 Q2344.17 98.2602 2340.54 98.2602 M2340.54 94.5565 Q2346.35 94.5565 2349.4 99.1629 Q2352.48 103.746 2352.48 112.496 Q2352.48 121.223 2349.4 125.829 Q2346.35 130.413 2340.54 130.413 Q2334.73 130.413 2331.65 125.829 Q2328.59 121.223 2328.59 112.496 Q2328.59 103.746 2331.65 99.1629 Q2334.73 94.5565 2340.54 94.5565 Z" fill="#000000" fill-rule="nonzero" fill-opacity="1" /><polyline clip-path="url(#clip880)" style="stroke:#000000; stroke-linecap:round; stroke-linejoin:round; stroke-width:4; stroke-opacity:1; fill:none" points="2232.76,116.09 2256.76,116.09 "/>
<polyline clip-path="url(#clip880)" style="stroke:#000000; stroke-linecap:round; stroke-linejoin:round; stroke-width:4; stroke-opacity:1; fill:none" points="2232.76,1423.18 2232.76,47.2441 "/>
<path clip-path="url(#clip880)" d="M282.649 196.789 L524.031 196.789 L524.031 93.1086 L282.649 93.1086  Z" fill="#ffffff" fill-rule="evenodd" fill-opacity="1"/>
<polyline clip-path="url(#clip880)" style="stroke:#000000; stroke-linecap:round; stroke-linejoin:round; stroke-width:4; stroke-opacity:1; fill:none" points="282.649,196.789 524.031,196.789 524.031,93.1086 282.649,93.1086 282.649,196.789 "/>
<circle clip-path="url(#clip880)" cx="366.792" cy="144.949" r="20.48" fill="#e26f46" fill-rule="evenodd" fill-opacity="1" stroke="#000000" stroke-opacity="1" stroke-width="4.55111"/>
<path clip-path="url(#clip880)" d="M464.777 164.636 Q462.972 169.266 461.259 170.678 Q459.546 172.09 456.676 172.09 L453.273 172.09 L453.273 168.525 L455.773 168.525 Q457.532 168.525 458.504 167.692 Q459.477 166.858 460.657 163.756 L461.421 161.812 L450.935 136.303 L455.449 136.303 L463.551 156.581 L471.652 136.303 L476.166 136.303 L464.777 164.636 Z" fill="#000000" fill-rule="nonzero" fill-opacity="1" /><path clip-path="url(#clip880)" d="M486.676 158.293 L502.995 158.293 L502.995 162.229 L481.051 162.229 L481.051 158.293 Q483.713 155.539 488.296 150.909 Q492.902 146.256 494.083 144.914 Q496.328 142.391 497.208 140.655 Q498.111 138.895 498.111 137.206 Q498.111 134.451 496.166 132.715 Q494.245 130.979 491.143 130.979 Q488.944 130.979 486.49 131.743 Q484.06 132.507 481.282 134.057 L481.282 129.335 Q484.106 128.201 486.56 127.622 Q489.013 127.044 491.051 127.044 Q496.421 127.044 499.615 129.729 Q502.81 132.414 502.81 136.905 Q502.81 139.034 502 140.956 Q501.212 142.854 499.106 145.446 Q498.527 146.118 495.425 149.335 Q492.324 152.53 486.676 158.293 Z" fill="#000000" fill-rule="nonzero" fill-opacity="1" /></svg>
