<?xml version="1.0" encoding="utf-8"?>
<svg xmlns="http://www.w3.org/2000/svg" xmlns:xlink="http://www.w3.org/1999/xlink" width="600" height="400" viewBox="0 0 2400 1600">
<defs>
  <clipPath id="clip300">
    <rect x="0" y="0" width="2400" height="1600"/>
  </clipPath>
</defs>
<path clip-path="url(#clip300)" d="M0 1600 L2400 1600 L2400 0 L0 0  Z" fill="#ffffff" fill-rule="evenodd" fill-opacity="1"/>
<defs>
  <clipPath id="clip301">
    <rect x="170" y="47" width="2183" height="1440"/>
  </clipPath>
</defs>
<path clip-path="url(#clip300)" d="M170.857 1486.45 L2352.76 1486.45 L2352.76 47.2441 L170.857 47.2441  Z" fill="#ffffff" fill-rule="evenodd" fill-opacity="1"/>
<polyline clip-path="url(#clip301)" style="stroke:#000000; stroke-linecap:round; stroke-linejoin:round; stroke-width:2; stroke-opacity:0.1; fill:none" points="452.689,1486.45 452.689,47.2441 "/>
<polyline clip-path="url(#clip301)" style="stroke:#000000; stroke-linecap:round; stroke-linejoin:round; stroke-width:2; stroke-opacity:0.1; fill:none" points="776.336,1486.45 776.336,47.2441 "/>
<polyline clip-path="url(#clip301)" style="stroke:#000000; stroke-linecap:round; stroke-linejoin:round; stroke-width:2; stroke-opacity:0.1; fill:none" points="1099.98,1486.45 1099.98,47.2441 "/>
<polyline clip-path="url(#clip301)" style="stroke:#000000; stroke-linecap:round; stroke-linejoin:round; stroke-width:2; stroke-opacity:0.1; fill:none" points="1423.63,1486.45 1423.63,47.2441 "/>
<polyline clip-path="url(#clip301)" style="stroke:#000000; stroke-linecap:round; stroke-linejoin:round; stroke-width:2; stroke-opacity:0.1; fill:none" points="1747.28,1486.45 1747.28,47.2441 "/>
<polyline clip-path="url(#clip301)" style="stroke:#000000; stroke-linecap:round; stroke-linejoin:round; stroke-width:2; stroke-opacity:0.1; fill:none" points="2070.92,1486.45 2070.92,47.2441 "/>
<polyline clip-path="url(#clip301)" style="stroke:#000000; stroke-linecap:round; stroke-linejoin:round; stroke-width:2; stroke-opacity:0.1; fill:none" points="170.857,1486.45 2352.76,1486.45 "/>
<polyline clip-path="url(#clip301)" style="stroke:#000000; stroke-linecap:round; stroke-linejoin:round; stroke-width:2; stroke-opacity:0.1; fill:none" points="170.857,1006.71 2352.76,1006.71 "/>
<polyline clip-path="url(#clip301)" style="stroke:#000000; stroke-linecap:round; stroke-linejoin:round; stroke-width:2; stroke-opacity:0.1; fill:none" points="170.857,526.979 2352.76,526.979 "/>
<polyline clip-path="url(#clip301)" style="stroke:#000000; stroke-linecap:round; stroke-linejoin:round; stroke-width:2; stroke-opacity:0.1; fill:none" points="170.857,47.2441 2352.76,47.2441 "/>
<polyline clip-path="url(#clip300)" style="stroke:#000000; stroke-linecap:round; stroke-linejoin:round; stroke-width:4; stroke-opacity:1; fill:none" points="170.857,1486.45 2352.76,1486.45 "/>
<polyline clip-path="url(#clip300)" style="stroke:#000000; stroke-linecap:round; stroke-linejoin:round; stroke-width:4; stroke-opacity:1; fill:none" points="452.689,1486.45 452.689,1467.55 "/>
<polyline clip-path="url(#clip300)" style="stroke:#000000; stroke-linecap:round; stroke-linejoin:round; stroke-width:4; stroke-opacity:1; fill:none" points="776.336,1486.45 776.336,1467.55 "/>
<polyline clip-path="url(#clip300)" style="stroke:#000000; stroke-linecap:round; stroke-linejoin:round; stroke-width:4; stroke-opacity:1; fill:none" points="1099.98,1486.45 1099.98,1467.55 "/>
<polyline clip-path="url(#clip300)" style="stroke:#000000; stroke-linecap:round; stroke-linejoin:round; stroke-width:4; stroke-opacity:1; fill:none" points="1423.63,1486.45 1423.63,1467.55 "/>
<polyline clip-path="url(#clip300)" style="stroke:#000000; stroke-linecap:round; stroke-linejoin:round; stroke-width:4; stroke-opacity:1; fill:none" points="1747.28,1486.45 1747.28,1467.55 "/>
<polyline clip-path="url(#clip300)" style="stroke:#000000; stroke-linecap:round; stroke-linejoin:round; stroke-width:4; stroke-opacity:1; fill:none" points="2070.92,1486.45 2070.92,1467.55 "/>
<path clip-path="url(#clip300)" d="M431.462 1544.91 L447.782 1544.91 L447.782 1548.85 L425.838 1548.85 L425.838 1544.91 Q428.5 1542.16 433.083 1537.53 Q437.689 1532.88 438.87 1531.53 Q441.115 1529.01 441.995 1527.27 Q442.898 1525.51 442.898 1523.82 Q442.898 1521.07 440.953 1519.33 Q439.032 1517.6 435.93 1517.6 Q433.731 1517.6 431.277 1518.36 Q428.847 1519.13 426.069 1520.68 L426.069 1515.95 Q428.893 1514.82 431.347 1514.24 Q433.8 1513.66 435.837 1513.66 Q441.208 1513.66 444.402 1516.35 Q447.597 1519.03 447.597 1523.52 Q447.597 1525.65 446.786 1527.57 Q445.999 1529.47 443.893 1532.07 Q443.314 1532.74 440.212 1535.95 Q437.111 1539.15 431.462 1544.91 Z" fill="#000000" fill-rule="nonzero" fill-opacity="1" /><path clip-path="url(#clip300)" d="M467.597 1517.37 Q463.985 1517.37 462.157 1520.93 Q460.351 1524.47 460.351 1531.6 Q460.351 1538.71 462.157 1542.27 Q463.985 1545.82 467.597 1545.82 Q471.231 1545.82 473.036 1542.27 Q474.865 1538.71 474.865 1531.6 Q474.865 1524.47 473.036 1520.93 Q471.231 1517.37 467.597 1517.37 M467.597 1513.66 Q473.407 1513.66 476.462 1518.27 Q479.541 1522.85 479.541 1531.6 Q479.541 1540.33 476.462 1544.94 Q473.407 1549.52 467.597 1549.52 Q461.786 1549.52 458.708 1544.94 Q455.652 1540.33 455.652 1531.6 Q455.652 1522.85 458.708 1518.27 Q461.786 1513.66 467.597 1513.66 Z" fill="#000000" fill-rule="nonzero" fill-opacity="1" /><path clip-path="url(#clip300)" d="M765.179 1530.21 Q768.535 1530.93 770.41 1533.2 Q772.308 1535.47 772.308 1538.8 Q772.308 1543.92 768.79 1546.72 Q765.271 1549.52 758.79 1549.52 Q756.614 1549.52 754.299 1549.08 Q752.008 1548.66 749.554 1547.81 L749.554 1543.29 Q751.498 1544.43 753.813 1545.01 Q756.128 1545.58 758.651 1545.58 Q763.049 1545.58 765.341 1543.85 Q767.656 1542.11 767.656 1538.8 Q767.656 1535.75 765.503 1534.03 Q763.373 1532.3 759.554 1532.3 L755.526 1532.3 L755.526 1528.45 L759.739 1528.45 Q763.188 1528.45 765.017 1527.09 Q766.845 1525.7 766.845 1523.11 Q766.845 1520.45 764.947 1519.03 Q763.072 1517.6 759.554 1517.6 Q757.633 1517.6 755.434 1518.01 Q753.234 1518.43 750.596 1519.31 L750.596 1515.14 Q753.258 1514.4 755.572 1514.03 Q757.91 1513.66 759.971 1513.66 Q765.295 1513.66 768.396 1516.09 Q771.498 1518.5 771.498 1522.62 Q771.498 1525.49 769.855 1527.48 Q768.211 1529.45 765.179 1530.21 Z" fill="#000000" fill-rule="nonzero" fill-opacity="1" /><path clip-path="url(#clip300)" d="M791.174 1517.37 Q787.563 1517.37 785.734 1520.93 Q783.929 1524.47 783.929 1531.6 Q783.929 1538.71 785.734 1542.27 Q787.563 1545.82 791.174 1545.82 Q794.808 1545.82 796.614 1542.27 Q798.443 1538.71 798.443 1531.6 Q798.443 1524.47 796.614 1520.93 Q794.808 1517.37 791.174 1517.37 M791.174 1513.66 Q796.984 1513.66 800.04 1518.27 Q803.118 1522.85 803.118 1531.6 Q803.118 1540.33 800.04 1544.94 Q796.984 1549.52 791.174 1549.52 Q785.364 1549.52 782.285 1544.94 Q779.23 1540.33 779.23 1531.6 Q779.23 1522.85 782.285 1518.27 Q785.364 1513.66 791.174 1513.66 Z" fill="#000000" fill-rule="nonzero" fill-opacity="1" /><path clip-path="url(#clip300)" d="M1088.15 1518.36 L1076.35 1536.81 L1088.15 1536.81 L1088.15 1518.36 M1086.93 1514.29 L1092.81 1514.29 L1092.81 1536.81 L1097.74 1536.81 L1097.74 1540.7 L1092.81 1540.7 L1092.81 1548.85 L1088.15 1548.85 L1088.15 1540.7 L1072.55 1540.7 L1072.55 1536.19 L1086.93 1514.29 Z" fill="#000000" fill-rule="nonzero" fill-opacity="1" /><path clip-path="url(#clip300)" d="M1115.47 1517.37 Q1111.86 1517.37 1110.03 1520.93 Q1108.22 1524.47 1108.22 1531.6 Q1108.22 1538.71 1110.03 1542.27 Q1111.86 1545.82 1115.47 1545.82 Q1119.1 1545.82 1120.91 1542.27 Q1122.74 1538.71 1122.74 1531.6 Q1122.74 1524.47 1120.91 1520.93 Q1119.1 1517.37 1115.47 1517.37 M1115.47 1513.66 Q1121.28 1513.66 1124.33 1518.27 Q1127.41 1522.85 1127.41 1531.6 Q1127.41 1540.33 1124.33 1544.94 Q1121.28 1549.52 1115.47 1549.52 Q1109.66 1549.52 1106.58 1544.94 Q1103.52 1540.33 1103.52 1531.6 Q1103.52 1522.85 1106.58 1518.27 Q1109.66 1513.66 1115.47 1513.66 Z" fill="#000000" fill-rule="nonzero" fill-opacity="1" /><path clip-path="url(#clip300)" d="M1398.33 1514.29 L1416.69 1514.29 L1416.69 1518.22 L1402.61 1518.22 L1402.61 1526.7 Q1403.63 1526.35 1404.65 1526.19 Q1405.67 1526 1406.69 1526 Q1412.47 1526 1415.85 1529.17 Q1419.23 1532.34 1419.23 1537.76 Q1419.23 1543.34 1415.76 1546.44 Q1412.29 1549.52 1405.97 1549.52 Q1403.79 1549.52 1401.52 1549.15 Q1399.28 1548.78 1396.87 1548.04 L1396.87 1543.34 Q1398.95 1544.47 1401.18 1545.03 Q1403.4 1545.58 1405.88 1545.58 Q1409.88 1545.58 1412.22 1543.48 Q1414.56 1541.37 1414.56 1537.76 Q1414.56 1534.15 1412.22 1532.04 Q1409.88 1529.94 1405.88 1529.94 Q1404 1529.94 1402.13 1530.35 Q1400.27 1530.77 1398.33 1531.65 L1398.33 1514.29 Z" fill="#000000" fill-rule="nonzero" fill-opacity="1" /><path clip-path="url(#clip300)" d="M1438.44 1517.37 Q1434.83 1517.37 1433.01 1520.93 Q1431.2 1524.47 1431.2 1531.6 Q1431.2 1538.71 1433.01 1542.27 Q1434.83 1545.82 1438.44 1545.82 Q1442.08 1545.82 1443.88 1542.27 Q1445.71 1538.71 1445.71 1531.6 Q1445.71 1524.47 1443.88 1520.93 Q1442.08 1517.37 1438.44 1517.37 M1438.44 1513.66 Q1444.26 1513.66 1447.31 1518.27 Q1450.39 1522.85 1450.39 1531.6 Q1450.39 1540.33 1447.31 1544.94 Q1444.26 1549.52 1438.44 1549.52 Q1432.63 1549.52 1429.56 1544.94 Q1426.5 1540.33 1426.5 1531.6 Q1426.5 1522.85 1429.56 1518.27 Q1432.63 1513.66 1438.44 1513.66 Z" fill="#000000" fill-rule="nonzero" fill-opacity="1" /><path clip-path="url(#clip300)" d="M1732.68 1529.7 Q1729.53 1529.7 1727.68 1531.86 Q1725.85 1534.01 1725.85 1537.76 Q1725.85 1541.49 1727.68 1543.66 Q1729.53 1545.82 1732.68 1545.82 Q1735.83 1545.82 1737.66 1543.66 Q1739.51 1541.49 1739.51 1537.76 Q1739.51 1534.01 1737.66 1531.86 Q1735.83 1529.7 1732.68 1529.7 M1741.96 1515.05 L1741.96 1519.31 Q1740.21 1518.48 1738.4 1518.04 Q1736.62 1517.6 1734.86 1517.6 Q1730.23 1517.6 1727.77 1520.72 Q1725.34 1523.85 1725 1530.17 Q1726.36 1528.15 1728.42 1527.09 Q1730.48 1526 1732.96 1526 Q1738.17 1526 1741.18 1529.17 Q1744.21 1532.32 1744.21 1537.76 Q1744.21 1543.08 1741.06 1546.3 Q1737.91 1549.52 1732.68 1549.52 Q1726.69 1549.52 1723.52 1544.94 Q1720.34 1540.33 1720.34 1531.6 Q1720.34 1523.41 1724.23 1518.55 Q1728.12 1513.66 1734.67 1513.66 Q1736.43 1513.66 1738.21 1514.01 Q1740.02 1514.36 1741.96 1515.05 Z" fill="#000000" fill-rule="nonzero" fill-opacity="1" /><path clip-path="url(#clip300)" d="M1762.27 1517.37 Q1758.65 1517.37 1756.83 1520.93 Q1755.02 1524.47 1755.02 1531.6 Q1755.02 1538.71 1756.83 1542.27 Q1758.65 1545.82 1762.27 1545.82 Q1765.9 1545.82 1767.71 1542.27 Q1769.53 1538.71 1769.53 1531.6 Q1769.53 1524.47 1767.71 1520.93 Q1765.9 1517.37 1762.27 1517.37 M1762.27 1513.66 Q1768.08 1513.66 1771.13 1518.27 Q1774.21 1522.85 1774.21 1531.6 Q1774.21 1540.33 1771.13 1544.94 Q1768.08 1549.52 1762.27 1549.52 Q1756.46 1549.52 1753.38 1544.94 Q1750.32 1540.33 1750.32 1531.6 Q1750.32 1522.85 1753.38 1518.27 Q1756.46 1513.66 1762.27 1513.66 Z" fill="#000000" fill-rule="nonzero" fill-opacity="1" /><path clip-path="url(#clip300)" d="M2044.28 1514.29 L2066.5 1514.29 L2066.5 1516.28 L2053.96 1548.85 L2049.07 1548.85 L2060.88 1518.22 L2044.28 1518.22 L2044.28 1514.29 Z" fill="#000000" fill-rule="nonzero" fill-opacity="1" /><path clip-path="url(#clip300)" d="M2085.62 1517.37 Q2082.01 1517.37 2080.18 1520.93 Q2078.38 1524.47 2078.38 1531.6 Q2078.38 1538.71 2080.18 1542.27 Q2082.01 1545.82 2085.62 1545.82 Q2089.26 1545.82 2091.06 1542.27 Q2092.89 1538.71 2092.89 1531.6 Q2092.89 1524.47 2091.06 1520.93 Q2089.26 1517.37 2085.62 1517.37 M2085.62 1513.66 Q2091.43 1513.66 2094.49 1518.27 Q2097.57 1522.85 2097.57 1531.6 Q2097.57 1540.33 2094.49 1544.94 Q2091.43 1549.52 2085.62 1549.52 Q2079.81 1549.52 2076.73 1544.94 Q2073.68 1540.33 2073.68 1531.6 Q2073.68 1522.85 2076.73 1518.27 Q2079.81 1513.66 2085.62 1513.66 Z" fill="#000000" fill-rule="nonzero" fill-opacity="1" /><polyline clip-path="url(#clip300)" style="stroke:#000000; stroke-linecap:round; stroke-linejoin:round; stroke-width:4; stroke-opacity:1; fill:none" points="170.857,1486.45 170.857,47.2441 "/>
<polyline clip-path="url(#clip300)" style="stroke:#000000; stroke-linecap:round; stroke-linejoin:round; stroke-width:4; stroke-opacity:1; fill:none" points="170.857,1486.45 189.755,1486.45 "/>
<polyline clip-path="url(#clip300)" style="stroke:#000000; stroke-linecap:round; stroke-linejoin:round; stroke-width:4; stroke-opacity:1; fill:none" points="170.857,1006.71 189.755,1006.71 "/>
<polyline clip-path="url(#clip300)" style="stroke:#000000; stroke-linecap:round; stroke-linejoin:round; stroke-width:4; stroke-opacity:1; fill:none" points="170.857,526.979 189.755,526.979 "/>
<polyline clip-path="url(#clip300)" style="stroke:#000000; stroke-linecap:round; stroke-linejoin:round; stroke-width:4; stroke-opacity:1; fill:none" points="170.857,47.2441 189.755,47.2441 "/>
<path clip-path="url(#clip300)" d="M122.913 1472.25 Q119.302 1472.25 117.473 1475.81 Q115.668 1479.35 115.668 1486.48 Q115.668 1493.59 117.473 1497.15 Q119.302 1500.7 122.913 1500.7 Q126.547 1500.7 128.353 1497.15 Q130.182 1493.59 130.182 1486.48 Q130.182 1479.35 128.353 1475.81 Q126.547 1472.25 122.913 1472.25 M122.913 1468.54 Q128.723 1468.54 131.779 1473.15 Q134.857 1477.73 134.857 1486.48 Q134.857 1495.21 131.779 1499.82 Q128.723 1504.4 122.913 1504.4 Q117.103 1504.4 114.024 1499.82 Q110.969 1495.21 110.969 1486.48 Q110.969 1477.73 114.024 1473.15 Q117.103 1468.54 122.913 1468.54 Z" fill="#000000" fill-rule="nonzero" fill-opacity="1" /><path clip-path="url(#clip300)" d="M53.3995 1020.06 L61.0384 1020.06 L61.0384 993.693 L52.7282 995.359 L52.7282 991.1 L60.9921 989.433 L65.668 989.433 L65.668 1020.06 L73.3068 1020.06 L73.3068 1023.99 L53.3995 1023.99 L53.3995 1020.06 Z" fill="#000000" fill-rule="nonzero" fill-opacity="1" /><path clip-path="url(#clip300)" d="M92.7512 992.512 Q89.1401 992.512 87.3114 996.077 Q85.5058 999.618 85.5058 1006.75 Q85.5058 1013.85 87.3114 1017.42 Q89.1401 1020.96 92.7512 1020.96 Q96.3854 1020.96 98.1909 1017.42 Q100.02 1013.85 100.02 1006.75 Q100.02 999.618 98.1909 996.077 Q96.3854 992.512 92.7512 992.512 M92.7512 988.808 Q98.5613 988.808 101.617 993.415 Q104.696 997.998 104.696 1006.75 Q104.696 1015.47 101.617 1020.08 Q98.5613 1024.66 92.7512 1024.66 Q86.941 1024.66 83.8623 1020.08 Q80.8068 1015.47 80.8068 1006.75 Q80.8068 997.998 83.8623 993.415 Q86.941 988.808 92.7512 988.808 Z" fill="#000000" fill-rule="nonzero" fill-opacity="1" /><path clip-path="url(#clip300)" d="M122.913 992.512 Q119.302 992.512 117.473 996.077 Q115.668 999.618 115.668 1006.75 Q115.668 1013.85 117.473 1017.42 Q119.302 1020.96 122.913 1020.96 Q126.547 1020.96 128.353 1017.42 Q130.182 1013.85 130.182 1006.75 Q130.182 999.618 128.353 996.077 Q126.547 992.512 122.913 992.512 M122.913 988.808 Q128.723 988.808 131.779 993.415 Q134.857 997.998 134.857 1006.75 Q134.857 1015.47 131.779 1020.08 Q128.723 1024.66 122.913 1024.66 Q117.103 1024.66 114.024 1020.08 Q110.969 1015.47 110.969 1006.75 Q110.969 997.998 114.024 993.415 Q117.103 988.808 122.913 988.808 Z" fill="#000000" fill-rule="nonzero" fill-opacity="1" /><path clip-path="url(#clip300)" d="M56.6171 540.324 L72.9365 540.324 L72.9365 544.259 L50.9921 544.259 L50.9921 540.324 Q53.6541 537.569 58.2375 532.939 Q62.8439 528.287 64.0245 526.944 Q66.2698 524.421 67.1494 522.685 Q68.0522 520.925 68.0522 519.236 Q68.0522 516.481 66.1078 514.745 Q64.1865 513.009 61.0847 513.009 Q58.8856 513.009 56.4319 513.773 Q54.0014 514.537 51.2236 516.088 L51.2236 511.365 Q54.0477 510.231 56.5014 509.652 Q58.955 509.074 60.9921 509.074 Q66.3624 509.074 69.5568 511.759 Q72.7513 514.444 72.7513 518.935 Q72.7513 521.064 71.9411 522.986 Q71.1541 524.884 69.0476 527.476 Q68.4689 528.148 65.367 531.365 Q62.2652 534.56 56.6171 540.324 Z" fill="#000000" fill-rule="nonzero" fill-opacity="1" /><path clip-path="url(#clip300)" d="M92.7512 512.777 Q89.1401 512.777 87.3114 516.342 Q85.5058 519.884 85.5058 527.013 Q85.5058 534.12 87.3114 537.685 Q89.1401 541.226 92.7512 541.226 Q96.3854 541.226 98.1909 537.685 Q100.02 534.12 100.02 527.013 Q100.02 519.884 98.1909 516.342 Q96.3854 512.777 92.7512 512.777 M92.7512 509.074 Q98.5613 509.074 101.617 513.68 Q104.696 518.263 104.696 527.013 Q104.696 535.74 101.617 540.347 Q98.5613 544.93 92.7512 544.93 Q86.941 544.93 83.8623 540.347 Q80.8068 535.74 80.8068 527.013 Q80.8068 518.263 83.8623 513.68 Q86.941 509.074 92.7512 509.074 Z" fill="#000000" fill-rule="nonzero" fill-opacity="1" /><path clip-path="url(#clip300)" d="M122.913 512.777 Q119.302 512.777 117.473 516.342 Q115.668 519.884 115.668 527.013 Q115.668 534.12 117.473 537.685 Q119.302 541.226 122.913 541.226 Q126.547 541.226 128.353 537.685 Q130.182 534.12 130.182 527.013 Q130.182 519.884 128.353 516.342 Q126.547 512.777 122.913 512.777 M122.913 509.074 Q128.723 509.074 131.779 513.68 Q134.857 518.263 134.857 527.013 Q134.857 535.74 131.779 540.347 Q128.723 544.93 122.913 544.93 Q117.103 544.93 114.024 540.347 Q110.969 535.74 110.969 527.013 Q110.969 518.263 114.024 513.68 Q117.103 509.074 122.913 509.074 Z" fill="#000000" fill-rule="nonzero" fill-opacity="1" /><path clip-path="url(#clip300)" d="M66.7559 45.8899 Q70.1124 46.6075 71.9874 48.876 Q73.8855 51.1445 73.8855 54.4779 Q73.8855 59.5936 70.367 62.3945 Q66.8485 65.1954 60.3671 65.1954 Q58.1912 65.1954 55.8764 64.7556 Q53.5847 64.3389 51.131 63.4824 L51.131 58.9686 Q53.0754 60.1028 55.3903 60.6815 Q57.7051 61.2602 60.2282 61.2602 Q64.6263 61.2602 66.918 59.5241 Q69.2328 57.788 69.2328 54.4779 Q69.2328 51.4223 67.08 49.7094 Q64.9504 47.9733 61.131 47.9733 L57.1032 47.9733 L57.1032 44.1307 L61.3161 44.1307 Q64.7652 44.1307 66.5939 42.765 Q68.4226 41.3761 68.4226 38.7835 Q68.4226 36.1215 66.5245 34.7094 Q64.6495 33.2743 61.131 33.2743 Q59.2097 33.2743 57.0106 33.6909 Q54.8115 34.1076 52.1727 34.9872 L52.1727 30.8206 Q54.8347 30.0798 57.1495 29.7095 Q59.4875 29.3391 61.5476 29.3391 Q66.8717 29.3391 69.9735 31.7696 Q73.0753 34.177 73.0753 38.2974 Q73.0753 41.1677 71.4318 43.1585 Q69.7883 45.1261 66.7559 45.8899 Z" fill="#000000" fill-rule="nonzero" fill-opacity="1" /><path clip-path="url(#clip300)" d="M92.7512 33.0428 Q89.1401 33.0428 87.3114 36.6076 Q85.5058 40.1492 85.5058 47.2788 Q85.5058 54.3853 87.3114 57.9501 Q89.1401 61.4917 92.7512 61.4917 Q96.3854 61.4917 98.1909 57.9501 Q100.02 54.3853 100.02 47.2788 Q100.02 40.1492 98.1909 36.6076 Q96.3854 33.0428 92.7512 33.0428 M92.7512 29.3391 Q98.5613 29.3391 101.617 33.9456 Q104.696 38.5289 104.696 47.2788 Q104.696 56.0056 101.617 60.6121 Q98.5613 65.1954 92.7512 65.1954 Q86.941 65.1954 83.8623 60.6121 Q80.8068 56.0056 80.8068 47.2788 Q80.8068 38.5289 83.8623 33.9456 Q86.941 29.3391 92.7512 29.3391 Z" fill="#000000" fill-rule="nonzero" fill-opacity="1" /><path clip-path="url(#clip300)" d="M122.913 33.0428 Q119.302 33.0428 117.473 36.6076 Q115.668 40.1492 115.668 47.2788 Q115.668 54.3853 117.473 57.9501 Q119.302 61.4917 122.913 61.4917 Q126.547 61.4917 128.353 57.9501 Q130.182 54.3853 130.182 47.2788 Q130.182 40.1492 128.353 36.6076 Q126.547 33.0428 122.913 33.0428 M122.913 29.3391 Q128.723 29.3391 131.779 33.9456 Q134.857 38.5289 134.857 47.2788 Q134.857 56.0056 131.779 60.6121 Q128.723 65.1954 122.913 65.1954 Q117.103 65.1954 114.024 60.6121 Q110.969 56.0056 110.969 47.2788 Q110.969 38.5289 114.024 33.9456 Q117.103 29.3391 122.913 29.3391 Z" fill="#000000" fill-rule="nonzero" fill-opacity="1" /><path clip-path="url(#clip301)" d="M290.866 1481.65 L290.866 1486.45 L452.689 1486.45 L452.689 1481.65 L290.866 1481.65 L290.866 1481.65  Z" fill="#009af9" fill-rule="evenodd" fill-opacity="1"/>
<polyline clip-path="url(#clip301)" style="stroke:#000000; stroke-linecap:round; stroke-linejoin:round; stroke-width:4; stroke-opacity:1; fill:none" points="290.866,1481.65 290.866,1486.45 452.689,1486.45 452.689,1481.65 290.866,1481.65 "/>
<path clip-path="url(#clip301)" d="M452.689 1390.5 L452.689 1486.45 L614.513 1486.45 L614.513 1390.5 L452.689 1390.5 L452.689 1390.5  Z" fill="#009af9" fill-rule="evenodd" fill-opacity="1"/>
<polyline clip-path="url(#clip301)" style="stroke:#000000; stroke-linecap:round; stroke-linejoin:round; stroke-width:4; stroke-opacity:1; fill:none" points="452.689,1390.5 452.689,1486.45 614.513,1486.45 614.513,1390.5 452.689,1390.5 "/>
<path clip-path="url(#clip301)" d="M614.513 1222.59 L614.513 1486.45 L776.336 1486.45 L776.336 1222.59 L614.513 1222.59 L614.513 1222.59  Z" fill="#009af9" fill-rule="evenodd" fill-opacity="1"/>
<polyline clip-path="url(#clip301)" style="stroke:#000000; stroke-linecap:round; stroke-linejoin:round; stroke-width:4; stroke-opacity:1; fill:none" points="614.513,1222.59 614.513,1486.45 776.336,1486.45 776.336,1222.59 614.513,1222.59 "/>
<path clip-path="url(#clip301)" d="M776.336 819.617 L776.336 1486.45 L938.16 1486.45 L938.16 819.617 L776.336 819.617 L776.336 819.617  Z" fill="#009af9" fill-rule="evenodd" fill-opacity="1"/>
<polyline clip-path="url(#clip301)" style="stroke:#000000; stroke-linecap:round; stroke-linejoin:round; stroke-width:4; stroke-opacity:1; fill:none" points="776.336,819.617 776.336,1486.45 938.16,1486.45 938.16,819.617 776.336,819.617 "/>
<path clip-path="url(#clip301)" d="M938.16 431.032 L938.16 1486.45 L1099.98 1486.45 L1099.98 431.032 L938.16 431.032 L938.16 431.032  Z" fill="#009af9" fill-rule="evenodd" fill-opacity="1"/>
<polyline clip-path="url(#clip301)" style="stroke:#000000; stroke-linecap:round; stroke-linejoin:round; stroke-width:4; stroke-opacity:1; fill:none" points="938.16,431.032 938.16,1486.45 1099.98,1486.45 1099.98,431.032 938.16,431.032 "/>
<path clip-path="url(#clip301)" d="M1099.98 335.085 L1099.98 1486.45 L1261.81 1486.45 L1261.81 335.085 L1099.98 335.085 L1099.98 335.085  Z" fill="#009af9" fill-rule="evenodd" fill-opacity="1"/>
<polyline clip-path="url(#clip301)" style="stroke:#000000; stroke-linecap:round; stroke-linejoin:round; stroke-width:4; stroke-opacity:1; fill:none" points="1099.98,335.085 1099.98,1486.45 1261.81,1486.45 1261.81,335.085 1099.98,335.085 "/>
<path clip-path="url(#clip301)" d="M1261.81 814.819 L1261.81 1486.45 L1423.63 1486.45 L1423.63 814.819 L1261.81 814.819 L1261.81 814.819  Z" fill="#009af9" fill-rule="evenodd" fill-opacity="1"/>
<polyline clip-path="url(#clip301)" style="stroke:#000000; stroke-linecap:round; stroke-linejoin:round; stroke-width:4; stroke-opacity:1; fill:none" points="1261.81,814.819 1261.81,1486.45 1423.63,1486.45 1423.63,814.819 1261.81,814.819 "/>
<path clip-path="url(#clip301)" d="M1423.63 1064.28 L1423.63 1486.45 L1585.45 1486.45 L1585.45 1064.28 L1423.63 1064.28 L1423.63 1064.28  Z" fill="#009af9" fill-rule="evenodd" fill-opacity="1"/>
<polyline clip-path="url(#clip301)" style="stroke:#000000; stroke-linecap:round; stroke-linejoin:round; stroke-width:4; stroke-opacity:1; fill:none" points="1423.63,1064.28 1423.63,1486.45 1585.45,1486.45 1585.45,1064.28 1423.63,1064.28 "/>
<path clip-path="url(#clip301)" d="M1585.45 1241.78 L1585.45 1486.45 L1747.28 1486.45 L1747.28 1241.78 L1585.45 1241.78 L1585.45 1241.78  Z" fill="#009af9" fill-rule="evenodd" fill-opacity="1"/>
<polyline clip-path="url(#clip301)" style="stroke:#000000; stroke-linecap:round; stroke-linejoin:round; stroke-width:4; stroke-opacity:1; fill:none" points="1585.45,1241.78 1585.45,1486.45 1747.28,1486.45 1747.28,1241.78 1585.45,1241.78 "/>
<path clip-path="url(#clip301)" d="M1747.28 1356.92 L1747.28 1486.45 L1909.1 1486.45 L1909.1 1356.92 L1747.28 1356.92 L1747.28 1356.92  Z" fill="#009af9" fill-rule="evenodd" fill-opacity="1"/>
<polyline clip-path="url(#clip301)" style="stroke:#000000; stroke-linecap:round; stroke-linejoin:round; stroke-width:4; stroke-opacity:1; fill:none" points="1747.28,1356.92 1747.28,1486.45 1909.1,1486.45 1909.1,1356.92 1747.28,1356.92 "/>
<path clip-path="url(#clip301)" d="M1909.1 1428.88 L1909.1 1486.45 L2070.92 1486.45 L2070.92 1428.88 L1909.1 1428.88 L1909.1 1428.88  Z" fill="#009af9" fill-rule="evenodd" fill-opacity="1"/>
<polyline clip-path="url(#clip301)" style="stroke:#000000; stroke-linecap:round; stroke-linejoin:round; stroke-width:4; stroke-opacity:1; fill:none" points="1909.1,1428.88 1909.1,1486.45 2070.92,1486.45 2070.92,1428.88 1909.1,1428.88 "/>
<path clip-path="url(#clip301)" d="M2070.92 1452.87 L2070.92 1486.45 L2232.75 1486.45 L2232.75 1452.87 L2070.92 1452.87 L2070.92 1452.87  Z" fill="#009af9" fill-rule="evenodd" fill-opacity="1"/>
<polyline clip-path="url(#clip301)" style="stroke:#000000; stroke-linecap:round; stroke-linejoin:round; stroke-width:4; stroke-opacity:1; fill:none" points="2070.92,1452.87 2070.92,1486.45 2232.75,1486.45 2232.75,1452.87 2070.92,1452.87 "/>
<circle clip-path="url(#clip301)" style="fill:#009af9; stroke:none; fill-opacity:0" cx="371.777" cy="1481.65" r="2"/>
<circle clip-path="url(#clip301)" style="fill:#009af9; stroke:none; fill-opacity:0" cx="533.601" cy="1390.5" r="2"/>
<circle clip-path="url(#clip301)" style="fill:#009af9; stroke:none; fill-opacity:0" cx="695.424" cy="1222.59" r="2"/>
<circle clip-path="url(#clip301)" style="fill:#009af9; stroke:none; fill-opacity:0" cx="857.248" cy="819.617" r="2"/>
<circle clip-path="url(#clip301)" style="fill:#009af9; stroke:none; fill-opacity:0" cx="1019.07" cy="431.032" r="2"/>
<circle clip-path="url(#clip301)" style="fill:#009af9; stroke:none; fill-opacity:0" cx="1180.89" cy="335.085" r="2"/>
<circle clip-path="url(#clip301)" style="fill:#009af9; stroke:none; fill-opacity:0" cx="1342.72" cy="814.819" r="2"/>
<circle clip-path="url(#clip301)" style="fill:#009af9; stroke:none; fill-opacity:0" cx="1504.54" cy="1064.28" r="2"/>
<circle clip-path="url(#clip301)" style="fill:#009af9; stroke:none; fill-opacity:0" cx="1666.37" cy="1241.78" r="2"/>
<circle clip-path="url(#clip301)" style="fill:#009af9; stroke:none; fill-opacity:0" cx="1828.19" cy="1356.92" r="2"/>
<circle clip-path="url(#clip301)" style="fill:#009af9; stroke:none; fill-opacity:0" cx="1990.01" cy="1428.88" r="2"/>
<circle clip-path="url(#clip301)" style="fill:#009af9; stroke:none; fill-opacity:0" cx="2151.84" cy="1452.87" r="2"/>
<polyline clip-path="url(#clip301)" style="stroke:#e26f46; stroke-linecap:round; stroke-linejoin:round; stroke-width:4; stroke-opacity:1; fill:none" points="1228.47,2925.65 1228.47,-1391.96 "/>
<path clip-path="url(#clip300)" d="M1829.71 250.738 L2280.03 250.738 L2280.03 95.2176 L1829.71 95.2176  Z" fill="#ffffff" fill-rule="evenodd" fill-opacity="1"/>
<polyline clip-path="url(#clip300)" style="stroke:#000000; stroke-linecap:round; stroke-linejoin:round; stroke-width:4; stroke-opacity:1; fill:none" points="1829.71,250.738 2280.03,250.738 2280.03,95.2176 1829.71,95.2176 1829.71,250.738 "/>
<path clip-path="url(#clip300)" d="M1853.95 167.794 L1999.41 167.794 L1999.41 126.322 L1853.95 126.322 L1853.95 167.794  Z" fill="#009af9" fill-rule="evenodd" fill-opacity="1"/>
<polyline clip-path="url(#clip300)" style="stroke:#000000; stroke-linecap:round; stroke-linejoin:round; stroke-width:4; stroke-opacity:1; fill:none" points="1853.95,167.794 1999.41,167.794 1999.41,126.322 1853.95,126.322 1853.95,167.794 "/>
<path clip-path="url(#clip300)" d="M2045.9 130.912 L2045.9 135.472 Q2043.24 134.199 2040.88 133.574 Q2038.52 132.949 2036.32 132.949 Q2032.5 132.949 2030.41 134.43 Q2028.35 135.912 2028.35 138.643 Q2028.35 140.935 2029.72 142.115 Q2031.11 143.273 2034.95 143.99 L2037.77 144.569 Q2043.01 145.565 2045.48 148.088 Q2047.98 150.588 2047.98 154.801 Q2047.98 159.824 2044.6 162.416 Q2041.25 165.009 2034.74 165.009 Q2032.29 165.009 2029.51 164.453 Q2026.76 163.898 2023.79 162.81 L2023.79 157.995 Q2026.64 159.592 2029.37 160.402 Q2032.1 161.213 2034.74 161.213 Q2038.75 161.213 2040.92 159.639 Q2043.1 158.064 2043.1 155.148 Q2043.1 152.602 2041.52 151.166 Q2039.97 149.731 2036.41 149.014 L2033.56 148.458 Q2028.33 147.416 2025.99 145.194 Q2023.65 142.972 2023.65 139.014 Q2023.65 134.43 2026.87 131.791 Q2030.11 129.153 2035.78 129.153 Q2038.21 129.153 2040.74 129.592 Q2043.26 130.032 2045.9 130.912 Z" fill="#000000" fill-rule="nonzero" fill-opacity="1" /><path clip-path="url(#clip300)" d="M2055.09 138.412 L2059.35 138.412 L2059.35 164.338 L2055.09 164.338 L2055.09 138.412 M2055.09 128.319 L2059.35 128.319 L2059.35 133.713 L2055.09 133.713 L2055.09 128.319 Z" fill="#000000" fill-rule="nonzero" fill-opacity="1" /><path clip-path="url(#clip300)" d="M2088.45 143.389 Q2090.04 140.518 2092.26 139.153 Q2094.49 137.787 2097.5 137.787 Q2101.55 137.787 2103.75 140.634 Q2105.95 143.458 2105.95 148.689 L2105.95 164.338 L2101.66 164.338 L2101.66 148.828 Q2101.66 145.102 2100.34 143.296 Q2099.02 141.49 2096.32 141.49 Q2093.01 141.49 2091.08 143.69 Q2089.16 145.889 2089.16 149.685 L2089.16 164.338 L2084.88 164.338 L2084.88 148.828 Q2084.88 145.078 2083.56 143.296 Q2082.24 141.49 2079.49 141.49 Q2076.22 141.49 2074.3 143.713 Q2072.38 145.912 2072.38 149.685 L2072.38 164.338 L2068.1 164.338 L2068.1 138.412 L2072.38 138.412 L2072.38 142.44 Q2073.84 140.055 2075.88 138.921 Q2077.91 137.787 2080.71 137.787 Q2083.54 137.787 2085.51 139.222 Q2087.5 140.657 2088.45 143.389 Z" fill="#000000" fill-rule="nonzero" fill-opacity="1" /><path clip-path="url(#clip300)" d="M2114 154.106 L2114 138.412 L2118.26 138.412 L2118.26 153.944 Q2118.26 157.625 2119.7 159.476 Q2121.13 161.305 2124 161.305 Q2127.45 161.305 2129.44 159.106 Q2131.45 156.907 2131.45 153.111 L2131.45 138.412 L2135.71 138.412 L2135.71 164.338 L2131.45 164.338 L2131.45 160.356 Q2129.9 162.717 2127.84 163.875 Q2125.81 165.009 2123.1 165.009 Q2118.63 165.009 2116.32 162.231 Q2114 159.453 2114 154.106 M2124.72 137.787 L2124.72 137.787 Z" fill="#000000" fill-rule="nonzero" fill-opacity="1" /><path clip-path="url(#clip300)" d="M2144.49 128.319 L2148.75 128.319 L2148.75 164.338 L2144.49 164.338 L2144.49 128.319 Z" fill="#000000" fill-rule="nonzero" fill-opacity="1" /><path clip-path="url(#clip300)" d="M2169.44 151.305 Q2164.28 151.305 2162.29 152.486 Q2160.3 153.666 2160.3 156.514 Q2160.3 158.782 2161.78 160.125 Q2163.28 161.444 2165.85 161.444 Q2169.39 161.444 2171.52 158.944 Q2173.68 156.421 2173.68 152.254 L2173.68 151.305 L2169.44 151.305 M2177.94 149.546 L2177.94 164.338 L2173.68 164.338 L2173.68 160.402 Q2172.22 162.763 2170.04 163.898 Q2167.87 165.009 2164.72 165.009 Q2160.74 165.009 2158.38 162.787 Q2156.04 160.541 2156.04 156.791 Q2156.04 152.416 2158.95 150.194 Q2161.89 147.972 2167.7 147.972 L2173.68 147.972 L2173.68 147.555 Q2173.68 144.615 2171.73 143.018 Q2169.81 141.398 2166.32 141.398 Q2164.09 141.398 2161.99 141.93 Q2159.88 142.463 2157.94 143.527 L2157.94 139.592 Q2160.27 138.69 2162.47 138.25 Q2164.67 137.787 2166.76 137.787 Q2172.38 137.787 2175.16 140.703 Q2177.94 143.62 2177.94 149.546 Z" fill="#000000" fill-rule="nonzero" fill-opacity="1" /><path clip-path="url(#clip300)" d="M2190.92 131.051 L2190.92 138.412 L2199.69 138.412 L2199.69 141.722 L2190.92 141.722 L2190.92 155.796 Q2190.92 158.967 2191.78 159.87 Q2192.66 160.773 2195.32 160.773 L2199.69 160.773 L2199.69 164.338 L2195.32 164.338 Q2190.39 164.338 2188.51 162.509 Q2186.64 160.657 2186.64 155.796 L2186.64 141.722 L2183.51 141.722 L2183.51 138.412 L2186.64 138.412 L2186.64 131.051 L2190.92 131.051 Z" fill="#000000" fill-rule="nonzero" fill-opacity="1" /><path clip-path="url(#clip300)" d="M2227.47 150.31 L2227.47 152.393 L2207.89 152.393 Q2208.17 156.791 2210.53 159.106 Q2212.91 161.398 2217.15 161.398 Q2219.6 161.398 2221.89 160.796 Q2224.21 160.194 2226.48 158.99 L2226.48 163.018 Q2224.19 163.99 2221.78 164.5 Q2219.37 165.009 2216.89 165.009 Q2210.69 165.009 2207.06 161.398 Q2203.44 157.787 2203.44 151.629 Q2203.44 145.264 2206.87 141.537 Q2210.32 137.787 2216.15 137.787 Q2221.38 137.787 2224.42 141.166 Q2227.47 144.523 2227.47 150.31 M2223.21 149.06 Q2223.17 145.565 2221.25 143.481 Q2219.35 141.398 2216.2 141.398 Q2212.63 141.398 2210.48 143.412 Q2208.35 145.426 2208.03 149.083 L2223.21 149.06 Z" fill="#000000" fill-rule="nonzero" fill-opacity="1" /><path clip-path="url(#clip300)" d="M2251.52 142.347 L2251.52 128.319 L2255.78 128.319 L2255.78 164.338 L2251.52 164.338 L2251.52 160.449 Q2250.18 162.763 2248.12 163.898 Q2246.08 165.009 2243.21 165.009 Q2238.51 165.009 2235.55 161.259 Q2232.61 157.509 2232.61 151.398 Q2232.61 145.287 2235.55 141.537 Q2238.51 137.787 2243.21 137.787 Q2246.08 137.787 2248.12 138.921 Q2250.18 140.032 2251.52 142.347 M2237.01 151.398 Q2237.01 156.097 2238.93 158.782 Q2240.88 161.444 2244.25 161.444 Q2247.63 161.444 2249.58 158.782 Q2251.52 156.097 2251.52 151.398 Q2251.52 146.699 2249.58 144.037 Q2247.63 141.352 2244.25 141.352 Q2240.88 141.352 2238.93 144.037 Q2237.01 146.699 2237.01 151.398 Z" fill="#000000" fill-rule="nonzero" fill-opacity="1" /><polyline clip-path="url(#clip300)" style="stroke:#e26f46; stroke-linecap:round; stroke-linejoin:round; stroke-width:4; stroke-opacity:1; fill:none" points="1853.95,198.898 1999.41,198.898 "/>
<path clip-path="url(#clip300)" d="M2028.33 199.673 L2028.33 212.335 L2035.83 212.335 Q2039.6 212.335 2041.41 210.784 Q2043.24 209.21 2043.24 205.992 Q2043.24 202.752 2041.41 201.224 Q2039.6 199.673 2035.83 199.673 L2028.33 199.673 M2028.33 185.46 L2028.33 195.877 L2035.25 195.877 Q2038.68 195.877 2040.34 194.604 Q2042.03 193.307 2042.03 190.668 Q2042.03 188.053 2040.34 186.756 Q2038.68 185.46 2035.25 185.46 L2028.33 185.46 M2023.65 181.618 L2035.6 181.618 Q2040.95 181.618 2043.84 183.84 Q2046.73 186.062 2046.73 190.159 Q2046.73 193.33 2045.25 195.205 Q2043.77 197.08 2040.9 197.543 Q2044.35 198.284 2046.25 200.645 Q2048.17 202.983 2048.17 206.502 Q2048.17 211.131 2045.02 213.654 Q2041.87 216.178 2036.06 216.178 L2023.65 216.178 L2023.65 181.618 Z" fill="#000000" fill-rule="nonzero" fill-opacity="1" /><path clip-path="url(#clip300)" d="M2078.17 202.15 L2078.17 204.233 L2058.58 204.233 Q2058.86 208.631 2061.22 210.946 Q2063.61 213.238 2067.84 213.238 Q2070.3 213.238 2072.59 212.636 Q2074.9 212.034 2077.17 210.83 L2077.17 214.858 Q2074.88 215.83 2072.47 216.34 Q2070.07 216.849 2067.59 216.849 Q2061.39 216.849 2057.75 213.238 Q2054.14 209.627 2054.14 203.469 Q2054.14 197.104 2057.57 193.377 Q2061.02 189.627 2066.85 189.627 Q2072.08 189.627 2075.11 193.006 Q2078.17 196.363 2078.17 202.15 M2073.91 200.9 Q2073.86 197.405 2071.94 195.321 Q2070.04 193.238 2066.89 193.238 Q2063.33 193.238 2061.18 195.252 Q2059.05 197.266 2058.72 200.923 L2073.91 200.9 Z" fill="#000000" fill-rule="nonzero" fill-opacity="1" /><path clip-path="url(#clip300)" d="M2101.69 191.016 L2101.69 195.043 Q2099.88 194.117 2097.94 193.655 Q2095.99 193.192 2093.91 193.192 Q2090.74 193.192 2089.14 194.164 Q2087.57 195.136 2087.57 197.08 Q2087.57 198.562 2088.7 199.418 Q2089.83 200.252 2093.26 201.016 L2094.72 201.34 Q2099.26 202.312 2101.15 204.094 Q2103.08 205.854 2103.08 209.025 Q2103.08 212.636 2100.2 214.742 Q2097.36 216.849 2092.36 216.849 Q2090.27 216.849 2088.01 216.432 Q2085.76 216.039 2083.26 215.228 L2083.26 210.83 Q2085.62 212.057 2087.91 212.682 Q2090.2 213.284 2092.45 213.284 Q2095.46 213.284 2097.08 212.266 Q2098.7 211.224 2098.7 209.349 Q2098.7 207.613 2097.52 206.687 Q2096.36 205.761 2092.4 204.904 L2090.92 204.557 Q2086.96 203.724 2085.2 202.011 Q2083.45 200.275 2083.45 197.266 Q2083.45 193.608 2086.04 191.618 Q2088.63 189.627 2093.4 189.627 Q2095.76 189.627 2097.84 189.974 Q2099.93 190.321 2101.69 191.016 Z" fill="#000000" fill-rule="nonzero" fill-opacity="1" /><path clip-path="url(#clip300)" d="M2114.07 182.891 L2114.07 190.252 L2122.84 190.252 L2122.84 193.562 L2114.07 193.562 L2114.07 207.636 Q2114.07 210.807 2114.93 211.71 Q2115.81 212.613 2118.47 212.613 L2122.84 212.613 L2122.84 216.178 L2118.47 216.178 Q2113.54 216.178 2111.66 214.349 Q2109.79 212.497 2109.79 207.636 L2109.79 193.562 L2106.66 193.562 L2106.66 190.252 L2109.79 190.252 L2109.79 182.891 L2114.07 182.891 Z" fill="#000000" fill-rule="nonzero" fill-opacity="1" /><path clip-path="url(#clip300)" d="M2156.64 180.159 L2156.64 183.701 L2152.57 183.701 Q2150.27 183.701 2149.37 184.627 Q2148.49 185.553 2148.49 187.96 L2148.49 190.252 L2155.51 190.252 L2155.51 193.562 L2148.49 193.562 L2148.49 216.178 L2144.21 216.178 L2144.21 193.562 L2140.14 193.562 L2140.14 190.252 L2144.21 190.252 L2144.21 188.446 Q2144.21 184.118 2146.22 182.15 Q2148.24 180.159 2152.61 180.159 L2156.64 180.159 Z" fill="#000000" fill-rule="nonzero" fill-opacity="1" /><path clip-path="url(#clip300)" d="M2160.2 190.252 L2164.46 190.252 L2164.46 216.178 L2160.2 216.178 L2160.2 190.252 M2160.2 180.159 L2164.46 180.159 L2164.46 185.553 L2160.2 185.553 L2160.2 180.159 Z" fill="#000000" fill-rule="nonzero" fill-opacity="1" /><path clip-path="url(#clip300)" d="M2177.59 182.891 L2177.59 190.252 L2186.36 190.252 L2186.36 193.562 L2177.59 193.562 L2177.59 207.636 Q2177.59 210.807 2178.45 211.71 Q2179.32 212.613 2181.99 212.613 L2186.36 212.613 L2186.36 216.178 L2181.99 216.178 Q2177.06 216.178 2175.18 214.349 Q2173.31 212.497 2173.31 207.636 L2173.31 193.562 L2170.18 193.562 L2170.18 190.252 L2173.31 190.252 L2173.31 182.891 L2177.59 182.891 Z" fill="#000000" fill-rule="nonzero" fill-opacity="1" /></svg>
