<?xml version="1.0" encoding="utf-8"?>
<svg xmlns="http://www.w3.org/2000/svg" xmlns:xlink="http://www.w3.org/1999/xlink" width="600" height="400" viewBox="0 0 2400 1600">
<defs>
  <clipPath id="clip420">
    <rect x="0" y="0" width="2400" height="1600"/>
  </clipPath>
</defs>
<path clip-path="url(#clip420)" d="M0 1600 L2400 1600 L2400 0 L0 0  Z" fill="#ffffff" fill-rule="evenodd" fill-opacity="1"/>
<defs>
  <clipPath id="clip421">
    <rect x="147" y="47" width="2206" height="1440"/>
  </clipPath>
</defs>
<path clip-path="url(#clip420)" d="M147.478 1486.45 L2352.76 1486.45 L2352.76 47.2441 L147.478 47.2441  Z" fill="#ffffff" fill-rule="evenodd" fill-opacity="1"/>
<polyline clip-path="url(#clip421)" style="stroke:#000000; stroke-linecap:round; stroke-linejoin:round; stroke-width:2; stroke-opacity:0.1; fill:none" points="361.414,1486.45 361.414,47.2441 "/>
<polyline clip-path="url(#clip421)" style="stroke:#000000; stroke-linecap:round; stroke-linejoin:round; stroke-width:2; stroke-opacity:0.1; fill:none" points="664.458,1486.45 664.458,47.2441 "/>
<polyline clip-path="url(#clip421)" style="stroke:#000000; stroke-linecap:round; stroke-linejoin:round; stroke-width:2; stroke-opacity:0.1; fill:none" points="967.502,1486.45 967.502,47.2441 "/>
<polyline clip-path="url(#clip421)" style="stroke:#000000; stroke-linecap:round; stroke-linejoin:round; stroke-width:2; stroke-opacity:0.1; fill:none" points="1270.55,1486.45 1270.55,47.2441 "/>
<polyline clip-path="url(#clip421)" style="stroke:#000000; stroke-linecap:round; stroke-linejoin:round; stroke-width:2; stroke-opacity:0.1; fill:none" points="1573.59,1486.45 1573.59,47.2441 "/>
<polyline clip-path="url(#clip421)" style="stroke:#000000; stroke-linecap:round; stroke-linejoin:round; stroke-width:2; stroke-opacity:0.1; fill:none" points="1876.64,1486.45 1876.64,47.2441 "/>
<polyline clip-path="url(#clip421)" style="stroke:#000000; stroke-linecap:round; stroke-linejoin:round; stroke-width:2; stroke-opacity:0.1; fill:none" points="2179.68,1486.45 2179.68,47.2441 "/>
<polyline clip-path="url(#clip421)" style="stroke:#000000; stroke-linecap:round; stroke-linejoin:round; stroke-width:2; stroke-opacity:0.1; fill:none" points="147.478,1318.8 2352.76,1318.8 "/>
<polyline clip-path="url(#clip421)" style="stroke:#000000; stroke-linecap:round; stroke-linejoin:round; stroke-width:2; stroke-opacity:0.1; fill:none" points="147.478,1110.93 2352.76,1110.93 "/>
<polyline clip-path="url(#clip421)" style="stroke:#000000; stroke-linecap:round; stroke-linejoin:round; stroke-width:2; stroke-opacity:0.1; fill:none" points="147.478,903.054 2352.76,903.054 "/>
<polyline clip-path="url(#clip421)" style="stroke:#000000; stroke-linecap:round; stroke-linejoin:round; stroke-width:2; stroke-opacity:0.1; fill:none" points="147.478,695.18 2352.76,695.18 "/>
<polyline clip-path="url(#clip421)" style="stroke:#000000; stroke-linecap:round; stroke-linejoin:round; stroke-width:2; stroke-opacity:0.1; fill:none" points="147.478,487.307 2352.76,487.307 "/>
<polyline clip-path="url(#clip421)" style="stroke:#000000; stroke-linecap:round; stroke-linejoin:round; stroke-width:2; stroke-opacity:0.1; fill:none" points="147.478,279.434 2352.76,279.434 "/>
<polyline clip-path="url(#clip421)" style="stroke:#000000; stroke-linecap:round; stroke-linejoin:round; stroke-width:2; stroke-opacity:0.1; fill:none" points="147.478,71.5611 2352.76,71.5611 "/>
<polyline clip-path="url(#clip420)" style="stroke:#000000; stroke-linecap:round; stroke-linejoin:round; stroke-width:4; stroke-opacity:1; fill:none" points="147.478,1486.45 2352.76,1486.45 "/>
<polyline clip-path="url(#clip420)" style="stroke:#000000; stroke-linecap:round; stroke-linejoin:round; stroke-width:4; stroke-opacity:1; fill:none" points="361.414,1486.45 361.414,1467.55 "/>
<polyline clip-path="url(#clip420)" style="stroke:#000000; stroke-linecap:round; stroke-linejoin:round; stroke-width:4; stroke-opacity:1; fill:none" points="664.458,1486.45 664.458,1467.55 "/>
<polyline clip-path="url(#clip420)" style="stroke:#000000; stroke-linecap:round; stroke-linejoin:round; stroke-width:4; stroke-opacity:1; fill:none" points="967.502,1486.45 967.502,1467.55 "/>
<polyline clip-path="url(#clip420)" style="stroke:#000000; stroke-linecap:round; stroke-linejoin:round; stroke-width:4; stroke-opacity:1; fill:none" points="1270.55,1486.45 1270.55,1467.55 "/>
<polyline clip-path="url(#clip420)" style="stroke:#000000; stroke-linecap:round; stroke-linejoin:round; stroke-width:4; stroke-opacity:1; fill:none" points="1573.59,1486.45 1573.59,1467.55 "/>
<polyline clip-path="url(#clip420)" style="stroke:#000000; stroke-linecap:round; stroke-linejoin:round; stroke-width:4; stroke-opacity:1; fill:none" points="1876.64,1486.45 1876.64,1467.55 "/>
<polyline clip-path="url(#clip420)" style="stroke:#000000; stroke-linecap:round; stroke-linejoin:round; stroke-width:4; stroke-opacity:1; fill:none" points="2179.68,1486.45 2179.68,1467.55 "/>
<path clip-path="url(#clip420)" d="M356.066 1544.91 L372.386 1544.91 L372.386 1548.85 L350.441 1548.85 L350.441 1544.91 Q353.104 1542.16 357.687 1537.53 Q362.293 1532.88 363.474 1531.53 Q365.719 1529.01 366.599 1527.27 Q367.502 1525.51 367.502 1523.82 Q367.502 1521.07 365.557 1519.33 Q363.636 1517.6 360.534 1517.6 Q358.335 1517.6 355.881 1518.36 Q353.451 1519.13 350.673 1520.68 L350.673 1515.95 Q353.497 1514.82 355.951 1514.24 Q358.404 1513.66 360.441 1513.66 Q365.812 1513.66 369.006 1516.35 Q372.201 1519.03 372.201 1523.52 Q372.201 1525.65 371.39 1527.57 Q370.603 1529.47 368.497 1532.07 Q367.918 1532.74 364.816 1535.95 Q361.715 1539.15 356.066 1544.91 Z" fill="#000000" fill-rule="nonzero" fill-opacity="1" /><path clip-path="url(#clip420)" d="M667.467 1518.36 L655.662 1536.81 L667.467 1536.81 L667.467 1518.36 M666.24 1514.29 L672.12 1514.29 L672.12 1536.81 L677.051 1536.81 L677.051 1540.7 L672.12 1540.7 L672.12 1548.85 L667.467 1548.85 L667.467 1540.7 L651.866 1540.7 L651.866 1536.19 L666.24 1514.29 Z" fill="#000000" fill-rule="nonzero" fill-opacity="1" /><path clip-path="url(#clip420)" d="M967.908 1529.7 Q964.759 1529.7 962.908 1531.86 Q961.079 1534.01 961.079 1537.76 Q961.079 1541.49 962.908 1543.66 Q964.759 1545.82 967.908 1545.82 Q971.056 1545.82 972.884 1543.66 Q974.736 1541.49 974.736 1537.76 Q974.736 1534.01 972.884 1531.86 Q971.056 1529.7 967.908 1529.7 M977.19 1515.05 L977.19 1519.31 Q975.431 1518.48 973.625 1518.04 Q971.843 1517.6 970.083 1517.6 Q965.454 1517.6 963 1520.72 Q960.57 1523.85 960.222 1530.17 Q961.588 1528.15 963.648 1527.09 Q965.709 1526 968.185 1526 Q973.394 1526 976.403 1529.17 Q979.435 1532.32 979.435 1537.76 Q979.435 1543.08 976.287 1546.3 Q973.139 1549.52 967.908 1549.52 Q961.912 1549.52 958.741 1544.94 Q955.57 1540.33 955.57 1531.6 Q955.57 1523.41 959.459 1518.55 Q963.347 1513.66 969.898 1513.66 Q971.658 1513.66 973.44 1514.01 Q975.245 1514.36 977.19 1515.05 Z" fill="#000000" fill-rule="nonzero" fill-opacity="1" /><path clip-path="url(#clip420)" d="M1270.55 1532.44 Q1267.21 1532.44 1265.29 1534.22 Q1263.39 1536 1263.39 1539.13 Q1263.39 1542.25 1265.29 1544.03 Q1267.21 1545.82 1270.55 1545.82 Q1273.88 1545.82 1275.8 1544.03 Q1277.72 1542.23 1277.72 1539.13 Q1277.72 1536 1275.8 1534.22 Q1273.9 1532.44 1270.55 1532.44 M1265.87 1530.45 Q1262.86 1529.7 1261.17 1527.64 Q1259.51 1525.58 1259.51 1522.62 Q1259.51 1518.48 1262.45 1516.07 Q1265.41 1513.66 1270.55 1513.66 Q1275.71 1513.66 1278.65 1516.07 Q1281.59 1518.48 1281.59 1522.62 Q1281.59 1525.58 1279.9 1527.64 Q1278.23 1529.7 1275.25 1530.45 Q1278.63 1531.23 1280.5 1533.52 Q1282.4 1535.82 1282.4 1539.13 Q1282.4 1544.15 1279.32 1546.83 Q1276.26 1549.52 1270.55 1549.52 Q1264.83 1549.52 1261.75 1546.83 Q1258.7 1544.15 1258.7 1539.13 Q1258.7 1535.82 1260.59 1533.52 Q1262.49 1531.23 1265.87 1530.45 M1264.16 1523.06 Q1264.16 1525.75 1265.82 1527.25 Q1267.51 1528.76 1270.55 1528.76 Q1273.56 1528.76 1275.25 1527.25 Q1276.96 1525.75 1276.96 1523.06 Q1276.96 1520.38 1275.25 1518.87 Q1273.56 1517.37 1270.55 1517.37 Q1267.51 1517.37 1265.82 1518.87 Q1264.16 1520.38 1264.16 1523.06 Z" fill="#000000" fill-rule="nonzero" fill-opacity="1" /><path clip-path="url(#clip420)" d="M1548.28 1544.91 L1555.92 1544.91 L1555.92 1518.55 L1547.61 1520.21 L1547.61 1515.95 L1555.87 1514.29 L1560.55 1514.29 L1560.55 1544.91 L1568.19 1544.91 L1568.19 1548.85 L1548.28 1548.85 L1548.28 1544.91 Z" fill="#000000" fill-rule="nonzero" fill-opacity="1" /><path clip-path="url(#clip420)" d="M1587.63 1517.37 Q1584.02 1517.37 1582.19 1520.93 Q1580.39 1524.47 1580.39 1531.6 Q1580.39 1538.71 1582.19 1542.27 Q1584.02 1545.82 1587.63 1545.82 Q1591.26 1545.82 1593.07 1542.27 Q1594.9 1538.71 1594.9 1531.6 Q1594.9 1524.47 1593.07 1520.93 Q1591.26 1517.37 1587.63 1517.37 M1587.63 1513.66 Q1593.44 1513.66 1596.5 1518.27 Q1599.57 1522.85 1599.57 1531.6 Q1599.57 1540.33 1596.5 1544.94 Q1593.44 1549.52 1587.63 1549.52 Q1581.82 1549.52 1578.74 1544.94 Q1575.69 1540.33 1575.69 1531.6 Q1575.69 1522.85 1578.74 1518.27 Q1581.82 1513.66 1587.63 1513.66 Z" fill="#000000" fill-rule="nonzero" fill-opacity="1" /><path clip-path="url(#clip420)" d="M1852.12 1544.91 L1859.76 1544.91 L1859.76 1518.55 L1851.45 1520.21 L1851.45 1515.95 L1859.71 1514.29 L1864.39 1514.29 L1864.39 1544.91 L1872.03 1544.91 L1872.03 1548.85 L1852.12 1548.85 L1852.12 1544.91 Z" fill="#000000" fill-rule="nonzero" fill-opacity="1" /><path clip-path="url(#clip420)" d="M1885.5 1544.91 L1901.82 1544.91 L1901.82 1548.85 L1879.88 1548.85 L1879.88 1544.91 Q1882.54 1542.16 1887.12 1537.53 Q1891.73 1532.88 1892.91 1531.53 Q1895.15 1529.01 1896.03 1527.27 Q1896.94 1525.51 1896.94 1523.82 Q1896.94 1521.07 1894.99 1519.33 Q1893.07 1517.6 1889.97 1517.6 Q1887.77 1517.6 1885.32 1518.36 Q1882.89 1519.13 1880.11 1520.68 L1880.11 1515.95 Q1882.93 1514.82 1885.39 1514.24 Q1887.84 1513.66 1889.88 1513.66 Q1895.25 1513.66 1898.44 1516.35 Q1901.64 1519.03 1901.64 1523.52 Q1901.64 1525.65 1900.83 1527.57 Q1900.04 1529.47 1897.93 1532.07 Q1897.35 1532.74 1894.25 1535.95 Q1891.15 1539.15 1885.5 1544.91 Z" fill="#000000" fill-rule="nonzero" fill-opacity="1" /><path clip-path="url(#clip420)" d="M2154.12 1544.91 L2161.76 1544.91 L2161.76 1518.55 L2153.45 1520.21 L2153.45 1515.95 L2161.72 1514.29 L2166.39 1514.29 L2166.39 1544.91 L2174.03 1544.91 L2174.03 1548.85 L2154.12 1548.85 L2154.12 1544.91 Z" fill="#000000" fill-rule="nonzero" fill-opacity="1" /><path clip-path="url(#clip420)" d="M2196.32 1518.36 L2184.52 1536.81 L2196.32 1536.81 L2196.32 1518.36 M2195.1 1514.29 L2200.98 1514.29 L2200.98 1536.81 L2205.91 1536.81 L2205.91 1540.7 L2200.98 1540.7 L2200.98 1548.85 L2196.32 1548.85 L2196.32 1540.7 L2180.72 1540.7 L2180.72 1536.19 L2195.1 1514.29 Z" fill="#000000" fill-rule="nonzero" fill-opacity="1" /><polyline clip-path="url(#clip420)" style="stroke:#000000; stroke-linecap:round; stroke-linejoin:round; stroke-width:4; stroke-opacity:1; fill:none" points="147.478,1486.45 147.478,47.2441 "/>
<polyline clip-path="url(#clip420)" style="stroke:#000000; stroke-linecap:round; stroke-linejoin:round; stroke-width:4; stroke-opacity:1; fill:none" points="147.478,1318.8 166.376,1318.8 "/>
<polyline clip-path="url(#clip420)" style="stroke:#000000; stroke-linecap:round; stroke-linejoin:round; stroke-width:4; stroke-opacity:1; fill:none" points="147.478,1110.93 166.376,1110.93 "/>
<polyline clip-path="url(#clip420)" style="stroke:#000000; stroke-linecap:round; stroke-linejoin:round; stroke-width:4; stroke-opacity:1; fill:none" points="147.478,903.054 166.376,903.054 "/>
<polyline clip-path="url(#clip420)" style="stroke:#000000; stroke-linecap:round; stroke-linejoin:round; stroke-width:4; stroke-opacity:1; fill:none" points="147.478,695.18 166.376,695.18 "/>
<polyline clip-path="url(#clip420)" style="stroke:#000000; stroke-linecap:round; stroke-linejoin:round; stroke-width:4; stroke-opacity:1; fill:none" points="147.478,487.307 166.376,487.307 "/>
<polyline clip-path="url(#clip420)" style="stroke:#000000; stroke-linecap:round; stroke-linejoin:round; stroke-width:4; stroke-opacity:1; fill:none" points="147.478,279.434 166.376,279.434 "/>
<polyline clip-path="url(#clip420)" style="stroke:#000000; stroke-linecap:round; stroke-linejoin:round; stroke-width:4; stroke-opacity:1; fill:none" points="147.478,71.5611 166.376,71.5611 "/>
<path clip-path="url(#clip420)" d="M51.3625 1319.25 L81.0383 1319.25 L81.0383 1323.19 L51.3625 1323.19 L51.3625 1319.25 Z" fill="#000000" fill-rule="nonzero" fill-opacity="1" /><path clip-path="url(#clip420)" d="M95.1586 1332.14 L111.478 1332.14 L111.478 1336.08 L89.5336 1336.08 L89.5336 1332.14 Q92.1956 1329.39 96.7789 1324.76 Q101.385 1320.11 102.566 1318.77 Q104.811 1316.24 105.691 1314.51 Q106.594 1312.75 106.594 1311.06 Q106.594 1308.3 104.649 1306.57 Q102.728 1304.83 99.6261 1304.83 Q97.4271 1304.83 94.9734 1305.59 Q92.5428 1306.36 89.7651 1307.91 L89.7651 1303.19 Q92.5891 1302.05 95.0428 1301.47 Q97.4965 1300.89 99.5335 1300.89 Q104.904 1300.89 108.098 1303.58 Q111.293 1306.27 111.293 1310.76 Q111.293 1312.89 110.483 1314.81 Q109.696 1316.7 107.589 1319.3 Q107.01 1319.97 103.909 1323.19 Q100.807 1326.38 95.1586 1332.14 Z" fill="#000000" fill-rule="nonzero" fill-opacity="1" /><path clip-path="url(#clip420)" d="M50.9921 1111.38 L80.6679 1111.38 L80.6679 1115.31 L50.9921 1115.31 L50.9921 1111.38 Z" fill="#000000" fill-rule="nonzero" fill-opacity="1" /><path clip-path="url(#clip420)" d="M91.5706 1124.27 L99.2095 1124.27 L99.2095 1097.91 L90.8993 1099.57 L90.8993 1095.31 L99.1632 1093.65 L103.839 1093.65 L103.839 1124.27 L111.478 1124.27 L111.478 1128.21 L91.5706 1128.21 L91.5706 1124.27 Z" fill="#000000" fill-rule="nonzero" fill-opacity="1" /><path clip-path="url(#clip420)" d="M99.5335 888.852 Q95.9224 888.852 94.0937 892.417 Q92.2882 895.959 92.2882 903.088 Q92.2882 910.195 94.0937 913.759 Q95.9224 917.301 99.5335 917.301 Q103.168 917.301 104.973 913.759 Q106.802 910.195 106.802 903.088 Q106.802 895.959 104.973 892.417 Q103.168 888.852 99.5335 888.852 M99.5335 885.149 Q105.344 885.149 108.399 889.755 Q111.478 894.338 111.478 903.088 Q111.478 911.815 108.399 916.421 Q105.344 921.005 99.5335 921.005 Q93.7234 921.005 90.6447 916.421 Q87.5892 911.815 87.5892 903.088 Q87.5892 894.338 90.6447 889.755 Q93.7234 885.149 99.5335 885.149 Z" fill="#000000" fill-rule="nonzero" fill-opacity="1" /><path clip-path="url(#clip420)" d="M91.5706 708.525 L99.2095 708.525 L99.2095 682.16 L90.8993 683.826 L90.8993 679.567 L99.1632 677.9 L103.839 677.9 L103.839 708.525 L111.478 708.525 L111.478 712.46 L91.5706 712.46 L91.5706 708.525 Z" fill="#000000" fill-rule="nonzero" fill-opacity="1" /><path clip-path="url(#clip420)" d="M95.1586 500.652 L111.478 500.652 L111.478 504.587 L89.5336 504.587 L89.5336 500.652 Q92.1956 497.898 96.7789 493.268 Q101.385 488.615 102.566 487.273 Q104.811 484.749 105.691 483.013 Q106.594 481.254 106.594 479.564 Q106.594 476.81 104.649 475.074 Q102.728 473.337 99.6261 473.337 Q97.4271 473.337 94.9734 474.101 Q92.5428 474.865 89.7651 476.416 L89.7651 471.694 Q92.5891 470.56 95.0428 469.981 Q97.4965 469.402 99.5335 469.402 Q104.904 469.402 108.098 472.087 Q111.293 474.773 111.293 479.263 Q111.293 481.393 110.483 483.314 Q109.696 485.212 107.589 487.805 Q107.01 488.476 103.909 491.694 Q100.807 494.888 95.1586 500.652 Z" fill="#000000" fill-rule="nonzero" fill-opacity="1" /><path clip-path="url(#clip420)" d="M104.348 278.08 Q107.705 278.798 109.58 281.066 Q111.478 283.335 111.478 286.668 Q111.478 291.784 107.959 294.585 Q104.441 297.385 97.9595 297.385 Q95.7836 297.385 93.4688 296.946 Q91.1771 296.529 88.7234 295.673 L88.7234 291.159 Q90.6678 292.293 92.9826 292.872 Q95.2974 293.45 97.8206 293.45 Q102.219 293.45 104.51 291.714 Q106.825 289.978 106.825 286.668 Q106.825 283.612 104.672 281.899 Q102.543 280.163 98.7234 280.163 L94.6956 280.163 L94.6956 276.321 L98.9085 276.321 Q102.358 276.321 104.186 274.955 Q106.015 273.566 106.015 270.974 Q106.015 268.312 104.117 266.9 Q102.242 265.464 98.7234 265.464 Q96.8021 265.464 94.603 265.881 Q92.4039 266.298 89.7651 267.177 L89.7651 263.011 Q92.4271 262.27 94.7419 261.9 Q97.0798 261.529 99.14 261.529 Q104.464 261.529 107.566 263.96 Q110.668 266.367 110.668 270.487 Q110.668 273.358 109.024 275.349 Q107.381 277.316 104.348 278.08 Z" fill="#000000" fill-rule="nonzero" fill-opacity="1" /><path clip-path="url(#clip420)" d="M101.895 58.3551 L90.0891 76.8041 L101.895 76.8041 L101.895 58.3551 M100.668 54.2811 L106.547 54.2811 L106.547 76.8041 L111.478 76.8041 L111.478 80.693 L106.547 80.693 L106.547 88.8411 L101.895 88.8411 L101.895 80.693 L86.2929 80.693 L86.2929 76.1791 L100.668 54.2811 Z" fill="#000000" fill-rule="nonzero" fill-opacity="1" /><polyline clip-path="url(#clip421)" style="stroke:#009af9; stroke-linecap:round; stroke-linejoin:round; stroke-width:4; stroke-opacity:1; fill:none" stroke-dasharray="16, 10" points="-2057.8,903.054 4558.03,903.054 "/>
<polyline clip-path="url(#clip421)" style="stroke:#e26f46; stroke-linecap:round; stroke-linejoin:round; stroke-width:4; stroke-opacity:1; fill:none" points="251.271,517.826 269.226,517.826 269.226,960.91 305.834,960.91 305.834,908.591 343.351,908.591 343.351,841.939 381.059,841.939 381.059,753.245 418.685,753.245 418.685,1235.21 456.229,1235.21 456.229,1337.74 493.797,1337.74 493.797,744.422 531.452,744.422 531.452,618.483 569.25,618.483 569.25,814.006 607.456,814.006 607.456,598.047 646.441,598.047 646.441,1091.99 686.244,1091.99 686.244,883.076 726.608,883.076 726.608,920.739 767.397,920.739 767.397,964.584 808.606,964.584 808.606,1037.12 850.235,1037.12 850.235,966.505 892.289,966.505 892.289,764.375 934.783,764.375 934.783,602.186 977.739,602.186 977.739,986.943 1021.18,986.943 1021.18,992.509 1065.15,992.509 1065.15,516.32 1109.66,516.32 1109.66,831.196 1154.72,831.196 1154.72,829.282 1200.36,829.282 1200.36,906.228 1246.57,906.228 1246.57,1220.54 1293.35,1220.54 1293.35,973.419 1340.7,973.419 1340.7,1161.16 1388.62,1161.16 1388.62,1123.13 1437.13,1123.13 1437.13,1069.54 1486.26,1069.54 1486.26,1082.74 1536.07,1082.74 1536.07,1186.78 1586.61,1186.78 1586.61,1302.09 1637.95,1302.09 1637.95,856.296 1690.15,856.296 1690.15,1326.96 1743.26,1326.96 1743.26,946.239 1797.3,946.239 1797.3,1027.77 1852.28,1027.77 1852.28,728.175 1908.16,728.175 1908.16,732.948 1964.91,732.948 1964.91,883.379 2022.48,883.379 2022.48,1092.95 2080.81,1092.95 2080.81,757.293 2139.86,757.293 2139.86,1001.14 2199.59,1001.14 2199.59,755.873 2259.98,755.873 2259.98,890.681 2290.34,890.681 "/>
<polyline clip-path="url(#clip421)" style="stroke:#3da44d; stroke-linecap:round; stroke-linejoin:round; stroke-width:4; stroke-opacity:1; fill:none" points="251.271,322.642 269.226,322.642 269.226,514.6 305.834,514.6 305.834,249.289 343.351,249.289 343.351,188.191 381.059,188.191 381.059,312.143 418.685,312.143 418.685,1080.88 456.229,1080.88 456.229,1445.72 493.797,1445.72 493.797,1041.82 531.452,1041.82 531.452,1034.59 569.25,1034.59 569.25,1275.81 607.456,1275.81 607.456,1030.71 646.441,1030.71 646.441,1441.01 686.244,1441.01 686.244,1106.36 726.608,1106.36 726.608,1006.95 767.397,1006.95 767.397,915.988 808.606,915.988 808.606,868.776 850.235,868.776 850.235,700.213 892.289,700.213 892.289,424.719 934.783,424.719 934.783,213.184 977.739,213.184 977.739,566.901 1021.18,566.901 1021.18,559.017 1065.15,559.017 1065.15,87.9763 1109.66,87.9763 1109.66,419.623 1154.72,419.623 1154.72,437.146 1200.36,437.146 1200.36,538.591 1246.57,538.591 1246.57,879.599 1293.35,879.599 1293.35,662.092 1340.7,662.092 1340.7,879.72 1388.62,879.72 1388.62,873.974 1437.13,873.974 1437.13,850.501 1486.26,850.501 1486.26,893.569 1536.07,893.569 1536.07,1023.97 1586.61,1023.97 1586.61,1161.58 1637.95,1161.58 1637.95,735.123 1690.15,735.123 1690.15,1223.76 1743.26,1223.76 1743.26,857.584 1797.3,857.584 1797.3,951.303 1852.28,951.303 1852.28,662.377 1908.16,662.377 1908.16,676.175 1964.91,676.175 1964.91,834.025 2022.48,834.025 2022.48,1049.4 2080.81,1049.4 2080.81,718.586 2139.86,718.586 2139.86,966.209 2199.59,966.209 2199.59,723.995 2259.98,723.995 2259.98,861.344 2290.34,861.344 "/>
<polyline clip-path="url(#clip421)" style="stroke:#c271d2; stroke-linecap:round; stroke-linejoin:round; stroke-width:4; stroke-opacity:1; fill:none" points="251.271,552.457 269.226,552.457 269.226,989.056 305.834,989.056 305.834,896.059 343.351,896.059 343.351,787.035 381.059,787.035 381.059,683.189 418.685,683.189 418.685,1178.2 456.229,1178.2 456.229,1310.91 493.797,1310.91 493.797,751.367 531.452,751.367 531.452,655.124 569.25,655.124 569.25,872.895 607.456,872.895 607.456,668.731 646.441,668.731 646.441,1164.94 686.244,1164.94 686.244,948.773 726.608,948.773 726.608,974.107 767.397,974.107 767.397,1001.68 808.606,1001.68 808.606,1056.88 850.235,1056.88 850.235,969.071 892.289,969.071 892.289,751.089 934.783,751.089 934.783,575.112 977.739,575.112 977.739,948.225 1021.18,948.225 1021.18,944.496 1065.15,944.496 1065.15,461.846 1109.66,461.846 1109.66,772.539 1154.72,772.539 1154.72,767.488 1200.36,767.488 1200.36,842.644 1246.57,842.644 1246.57,1156.11 1293.35,1156.11 1293.35,909.333 1340.7,909.333 1340.7,1098.26 1388.62,1098.26 1388.62,1062.85 1437.13,1062.85 1437.13,1012.37 1486.26,1012.37 1486.26,1029.65 1536.07,1029.65 1536.07,1137.79 1586.61,1137.79 1586.61,1256.91 1637.95,1256.91 1637.95,814.778 1690.15,814.778 1690.15,1289.38 1743.26,1289.38 1743.26,912.022 1797.3,912.022 1797.3,996.579 1852.28,996.579 1852.28,699.888 1908.16,699.888 1908.16,707.293 1964.91,707.293 1964.91,859.994 2022.48,859.994 2022.48,1071.37 2080.81,1071.37 2080.81,737.281 2139.86,737.281 2139.86,982.344 2199.59,982.344 2199.59,738.054 2259.98,738.054 2259.98,873.687 2290.34,873.687 "/>
</svg>
