<?xml version="1.0" encoding="utf-8"?>
<svg xmlns="http://www.w3.org/2000/svg" xmlns:xlink="http://www.w3.org/1999/xlink" width="600" height="400" viewBox="0 0 2400 1600">
<defs>
  <clipPath id="clip910">
    <rect x="0" y="0" width="2400" height="1600"/>
  </clipPath>
</defs>
<path clip-path="url(#clip910)" d="M0 1600 L2400 1600 L2400 0 L0 0  Z" fill="#ffffff" fill-rule="evenodd" fill-opacity="1"/>
<defs>
  <clipPath id="clip911">
    <rect x="186" y="47" width="2167" height="1377"/>
  </clipPath>
</defs>
<path clip-path="url(#clip910)" d="M186.274 1423.18 L2352.76 1423.18 L2352.76 47.2441 L186.274 47.2441  Z" fill="#ffffff" fill-rule="evenodd" fill-opacity="1"/>
<polyline clip-path="url(#clip911)" style="stroke:#000000; stroke-linecap:round; stroke-linejoin:round; stroke-width:2; stroke-opacity:0.1; fill:none" points="237.267,1423.18 237.267,47.2441 "/>
<polyline clip-path="url(#clip911)" style="stroke:#000000; stroke-linecap:round; stroke-linejoin:round; stroke-width:2; stroke-opacity:0.1; fill:none" points="753.391,1423.18 753.391,47.2441 "/>
<polyline clip-path="url(#clip911)" style="stroke:#000000; stroke-linecap:round; stroke-linejoin:round; stroke-width:2; stroke-opacity:0.1; fill:none" points="1269.51,1423.18 1269.51,47.2441 "/>
<polyline clip-path="url(#clip911)" style="stroke:#000000; stroke-linecap:round; stroke-linejoin:round; stroke-width:2; stroke-opacity:0.1; fill:none" points="1785.64,1423.18 1785.64,47.2441 "/>
<polyline clip-path="url(#clip911)" style="stroke:#000000; stroke-linecap:round; stroke-linejoin:round; stroke-width:2; stroke-opacity:0.1; fill:none" points="2301.76,1423.18 2301.76,47.2441 "/>
<polyline clip-path="url(#clip911)" style="stroke:#000000; stroke-linecap:round; stroke-linejoin:round; stroke-width:2; stroke-opacity:0.1; fill:none" points="186.274,1384.24 2352.76,1384.24 "/>
<polyline clip-path="url(#clip911)" style="stroke:#000000; stroke-linecap:round; stroke-linejoin:round; stroke-width:2; stroke-opacity:0.1; fill:none" points="186.274,1064.81 2352.76,1064.81 "/>
<polyline clip-path="url(#clip911)" style="stroke:#000000; stroke-linecap:round; stroke-linejoin:round; stroke-width:2; stroke-opacity:0.1; fill:none" points="186.274,745.389 2352.76,745.389 "/>
<polyline clip-path="url(#clip911)" style="stroke:#000000; stroke-linecap:round; stroke-linejoin:round; stroke-width:2; stroke-opacity:0.1; fill:none" points="186.274,425.964 2352.76,425.964 "/>
<polyline clip-path="url(#clip911)" style="stroke:#000000; stroke-linecap:round; stroke-linejoin:round; stroke-width:2; stroke-opacity:0.1; fill:none" points="186.274,106.539 2352.76,106.539 "/>
<polyline clip-path="url(#clip910)" style="stroke:#000000; stroke-linecap:round; stroke-linejoin:round; stroke-width:4; stroke-opacity:1; fill:none" points="186.274,1423.18 2352.76,1423.18 "/>
<polyline clip-path="url(#clip910)" style="stroke:#000000; stroke-linecap:round; stroke-linejoin:round; stroke-width:4; stroke-opacity:1; fill:none" points="237.267,1423.18 237.267,1404.28 "/>
<polyline clip-path="url(#clip910)" style="stroke:#000000; stroke-linecap:round; stroke-linejoin:round; stroke-width:4; stroke-opacity:1; fill:none" points="753.391,1423.18 753.391,1404.28 "/>
<polyline clip-path="url(#clip910)" style="stroke:#000000; stroke-linecap:round; stroke-linejoin:round; stroke-width:4; stroke-opacity:1; fill:none" points="1269.51,1423.18 1269.51,1404.28 "/>
<polyline clip-path="url(#clip910)" style="stroke:#000000; stroke-linecap:round; stroke-linejoin:round; stroke-width:4; stroke-opacity:1; fill:none" points="1785.64,1423.18 1785.64,1404.28 "/>
<polyline clip-path="url(#clip910)" style="stroke:#000000; stroke-linecap:round; stroke-linejoin:round; stroke-width:4; stroke-opacity:1; fill:none" points="2301.76,1423.18 2301.76,1404.28 "/>
<path clip-path="url(#clip910)" d="M237.267 1454.1 Q233.656 1454.1 231.827 1457.66 Q230.022 1461.2 230.022 1468.33 Q230.022 1475.44 231.827 1479.01 Q233.656 1482.55 237.267 1482.55 Q240.901 1482.55 242.707 1479.01 Q244.536 1475.44 244.536 1468.33 Q244.536 1461.2 242.707 1457.66 Q240.901 1454.1 237.267 1454.1 M237.267 1450.39 Q243.077 1450.39 246.133 1455 Q249.211 1459.58 249.211 1468.33 Q249.211 1477.06 246.133 1481.67 Q243.077 1486.25 237.267 1486.25 Q231.457 1486.25 228.378 1481.67 Q225.323 1477.06 225.323 1468.33 Q225.323 1459.58 228.378 1455 Q231.457 1450.39 237.267 1450.39 Z" fill="#000000" fill-rule="nonzero" fill-opacity="1" /><path clip-path="url(#clip910)" d="M743.669 1451.02 L762.025 1451.02 L762.025 1454.96 L747.951 1454.96 L747.951 1463.43 Q748.97 1463.08 749.988 1462.92 Q751.007 1462.73 752.025 1462.73 Q757.812 1462.73 761.192 1465.9 Q764.571 1469.08 764.571 1474.49 Q764.571 1480.07 761.099 1483.17 Q757.627 1486.25 751.308 1486.25 Q749.132 1486.25 746.863 1485.88 Q744.618 1485.51 742.211 1484.77 L742.211 1480.07 Q744.294 1481.2 746.516 1481.76 Q748.738 1482.32 751.215 1482.32 Q755.22 1482.32 757.558 1480.21 Q759.896 1478.1 759.896 1474.49 Q759.896 1470.88 757.558 1468.77 Q755.22 1466.67 751.215 1466.67 Q749.34 1466.67 747.465 1467.08 Q745.613 1467.5 743.669 1468.38 L743.669 1451.02 Z" fill="#000000" fill-rule="nonzero" fill-opacity="1" /><path clip-path="url(#clip910)" d="M1244.2 1481.64 L1251.84 1481.64 L1251.84 1455.28 L1243.53 1456.95 L1243.53 1452.69 L1251.8 1451.02 L1256.47 1451.02 L1256.47 1481.64 L1264.11 1481.64 L1264.11 1485.58 L1244.2 1485.58 L1244.2 1481.64 Z" fill="#000000" fill-rule="nonzero" fill-opacity="1" /><path clip-path="url(#clip910)" d="M1283.55 1454.1 Q1279.94 1454.1 1278.11 1457.66 Q1276.31 1461.2 1276.31 1468.33 Q1276.31 1475.44 1278.11 1479.01 Q1279.94 1482.55 1283.55 1482.55 Q1287.19 1482.55 1288.99 1479.01 Q1290.82 1475.44 1290.82 1468.33 Q1290.82 1461.2 1288.99 1457.66 Q1287.19 1454.1 1283.55 1454.1 M1283.55 1450.39 Q1289.36 1450.39 1292.42 1455 Q1295.5 1459.58 1295.5 1468.33 Q1295.5 1477.06 1292.42 1481.67 Q1289.36 1486.25 1283.55 1486.25 Q1277.74 1486.25 1274.67 1481.67 Q1271.61 1477.06 1271.61 1468.33 Q1271.61 1459.58 1274.67 1455 Q1277.74 1450.39 1283.55 1450.39 Z" fill="#000000" fill-rule="nonzero" fill-opacity="1" /><path clip-path="url(#clip910)" d="M1760.82 1481.64 L1768.46 1481.64 L1768.46 1455.28 L1760.15 1456.95 L1760.15 1452.69 L1768.42 1451.02 L1773.09 1451.02 L1773.09 1481.64 L1780.73 1481.64 L1780.73 1485.58 L1760.82 1485.58 L1760.82 1481.64 Z" fill="#000000" fill-rule="nonzero" fill-opacity="1" /><path clip-path="url(#clip910)" d="M1790.22 1451.02 L1808.58 1451.02 L1808.58 1454.96 L1794.5 1454.96 L1794.5 1463.43 Q1795.52 1463.08 1796.54 1462.92 Q1797.56 1462.73 1798.58 1462.73 Q1804.37 1462.73 1807.75 1465.9 Q1811.12 1469.08 1811.12 1474.49 Q1811.12 1480.07 1807.65 1483.17 Q1804.18 1486.25 1797.86 1486.25 Q1795.69 1486.25 1793.42 1485.88 Q1791.17 1485.51 1788.76 1484.77 L1788.76 1480.07 Q1790.85 1481.2 1793.07 1481.76 Q1795.29 1482.32 1797.77 1482.32 Q1801.77 1482.32 1804.11 1480.21 Q1806.45 1478.1 1806.45 1474.49 Q1806.45 1470.88 1804.11 1468.77 Q1801.77 1466.67 1797.77 1466.67 Q1795.89 1466.67 1794.02 1467.08 Q1792.17 1467.5 1790.22 1468.38 L1790.22 1451.02 Z" fill="#000000" fill-rule="nonzero" fill-opacity="1" /><path clip-path="url(#clip910)" d="M2280.54 1481.64 L2296.86 1481.64 L2296.86 1485.58 L2274.91 1485.58 L2274.91 1481.64 Q2277.57 1478.89 2282.16 1474.26 Q2286.76 1469.61 2287.94 1468.27 Q2290.19 1465.74 2291.07 1464.01 Q2291.97 1462.25 2291.97 1460.56 Q2291.97 1457.8 2290.03 1456.07 Q2288.11 1454.33 2285 1454.33 Q2282.8 1454.33 2280.35 1455.09 Q2277.92 1455.86 2275.14 1457.41 L2275.14 1452.69 Q2277.97 1451.55 2280.42 1450.97 Q2282.87 1450.39 2284.91 1450.39 Q2290.28 1450.39 2293.48 1453.08 Q2296.67 1455.77 2296.67 1460.26 Q2296.67 1462.39 2295.86 1464.31 Q2295.07 1466.2 2292.97 1468.8 Q2292.39 1469.47 2289.29 1472.69 Q2286.18 1475.88 2280.54 1481.64 Z" fill="#000000" fill-rule="nonzero" fill-opacity="1" /><path clip-path="url(#clip910)" d="M2316.67 1454.1 Q2313.06 1454.1 2311.23 1457.66 Q2309.42 1461.2 2309.42 1468.33 Q2309.42 1475.44 2311.23 1479.01 Q2313.06 1482.55 2316.67 1482.55 Q2320.3 1482.55 2322.11 1479.01 Q2323.94 1475.44 2323.94 1468.33 Q2323.94 1461.2 2322.11 1457.66 Q2320.3 1454.1 2316.67 1454.1 M2316.67 1450.39 Q2322.48 1450.39 2325.54 1455 Q2328.61 1459.58 2328.61 1468.33 Q2328.61 1477.06 2325.54 1481.67 Q2322.48 1486.25 2316.67 1486.25 Q2310.86 1486.25 2307.78 1481.67 Q2304.73 1477.06 2304.73 1468.33 Q2304.73 1459.58 2307.78 1455 Q2310.86 1450.39 2316.67 1450.39 Z" fill="#000000" fill-rule="nonzero" fill-opacity="1" /><path clip-path="url(#clip910)" d="M1159.07 1520.52 L1189.12 1520.52 L1189.12 1525.93 L1165.5 1525.93 L1165.5 1540 L1188.13 1540 L1188.13 1545.41 L1165.5 1545.41 L1165.5 1562.63 L1189.69 1562.63 L1189.69 1568.04 L1159.07 1568.04 L1159.07 1520.52 Z" fill="#000000" fill-rule="nonzero" fill-opacity="1" /><path clip-path="url(#clip910)" d="M1234.79 1518.58 Q1230.53 1525.9 1228.46 1533.06 Q1226.39 1540.23 1226.39 1547.58 Q1226.39 1554.93 1228.46 1562.16 Q1230.56 1569.35 1234.79 1576.64 L1229.7 1576.64 Q1224.92 1569.16 1222.54 1561.93 Q1220.18 1554.71 1220.18 1547.58 Q1220.18 1540.48 1222.54 1533.29 Q1224.89 1526.09 1229.7 1518.58 L1234.79 1518.58 Z" fill="#000000" fill-rule="nonzero" fill-opacity="1" /><path clip-path="url(#clip910)" d="M1245.93 1518.52 L1251.82 1518.52 L1251.82 1547.77 L1269.29 1532.4 L1276.77 1532.4 L1257.87 1549.07 L1277.57 1568.04 L1269.93 1568.04 L1251.82 1550.63 L1251.82 1568.04 L1245.93 1568.04 L1245.93 1518.52 Z" fill="#000000" fill-rule="nonzero" fill-opacity="1" /><path clip-path="url(#clip910)" d="M1312.07 1548.76 L1312.07 1551.62 L1285.14 1551.62 Q1285.52 1557.67 1288.77 1560.85 Q1292.05 1564 1297.87 1564 Q1301.25 1564 1304.4 1563.17 Q1307.58 1562.35 1310.7 1560.69 L1310.7 1566.23 Q1307.55 1567.57 1304.24 1568.27 Q1300.93 1568.97 1297.52 1568.97 Q1288.99 1568.97 1284 1564 Q1279.03 1559.04 1279.03 1550.57 Q1279.03 1541.82 1283.74 1536.69 Q1288.48 1531.54 1296.51 1531.54 Q1303.7 1531.54 1307.87 1536.18 Q1312.07 1540.8 1312.07 1548.76 M1306.21 1547.04 Q1306.15 1542.23 1303.51 1539.37 Q1300.9 1536.5 1296.57 1536.5 Q1291.67 1536.5 1288.71 1539.27 Q1285.78 1542.04 1285.33 1547.07 L1306.21 1547.04 Z" fill="#000000" fill-rule="nonzero" fill-opacity="1" /><path clip-path="url(#clip910)" d="M1334.19 1568.04 L1316.05 1520.52 L1322.76 1520.52 L1337.82 1560.53 L1352.91 1520.52 L1359.59 1520.52 L1341.48 1568.04 L1334.19 1568.04 Z" fill="#000000" fill-rule="nonzero" fill-opacity="1" /><path clip-path="url(#clip910)" d="M1365.35 1518.58 L1370.44 1518.58 Q1375.22 1526.09 1377.57 1533.29 Q1379.96 1540.48 1379.96 1547.58 Q1379.96 1554.71 1377.57 1561.93 Q1375.22 1569.16 1370.44 1576.64 L1365.35 1576.64 Q1369.58 1569.35 1371.65 1562.16 Q1373.75 1554.93 1373.75 1547.58 Q1373.75 1540.23 1371.65 1533.06 Q1369.58 1525.9 1365.35 1518.58 Z" fill="#000000" fill-rule="nonzero" fill-opacity="1" /><polyline clip-path="url(#clip910)" style="stroke:#000000; stroke-linecap:round; stroke-linejoin:round; stroke-width:4; stroke-opacity:1; fill:none" points="186.274,1423.18 186.274,47.2441 "/>
<polyline clip-path="url(#clip910)" style="stroke:#000000; stroke-linecap:round; stroke-linejoin:round; stroke-width:4; stroke-opacity:1; fill:none" points="186.274,1384.24 205.172,1384.24 "/>
<polyline clip-path="url(#clip910)" style="stroke:#000000; stroke-linecap:round; stroke-linejoin:round; stroke-width:4; stroke-opacity:1; fill:none" points="186.274,1064.81 205.172,1064.81 "/>
<polyline clip-path="url(#clip910)" style="stroke:#000000; stroke-linecap:round; stroke-linejoin:round; stroke-width:4; stroke-opacity:1; fill:none" points="186.274,745.389 205.172,745.389 "/>
<polyline clip-path="url(#clip910)" style="stroke:#000000; stroke-linecap:round; stroke-linejoin:round; stroke-width:4; stroke-opacity:1; fill:none" points="186.274,425.964 205.172,425.964 "/>
<polyline clip-path="url(#clip910)" style="stroke:#000000; stroke-linecap:round; stroke-linejoin:round; stroke-width:4; stroke-opacity:1; fill:none" points="186.274,106.539 205.172,106.539 "/>
<path clip-path="url(#clip910)" d="M62.9365 1370.04 Q59.3254 1370.04 57.4967 1373.6 Q55.6912 1377.14 55.6912 1384.27 Q55.6912 1391.38 57.4967 1394.94 Q59.3254 1398.49 62.9365 1398.49 Q66.5707 1398.49 68.3763 1394.94 Q70.205 1391.38 70.205 1384.27 Q70.205 1377.14 68.3763 1373.6 Q66.5707 1370.04 62.9365 1370.04 M62.9365 1366.33 Q68.7467 1366.33 71.8022 1370.94 Q74.8809 1375.52 74.8809 1384.27 Q74.8809 1393 71.8022 1397.61 Q68.7467 1402.19 62.9365 1402.19 Q57.1264 1402.19 54.0477 1397.61 Q50.9921 1393 50.9921 1384.27 Q50.9921 1375.52 54.0477 1370.94 Q57.1264 1366.33 62.9365 1366.33 Z" fill="#000000" fill-rule="nonzero" fill-opacity="1" /><path clip-path="url(#clip910)" d="M83.0984 1395.64 L87.9827 1395.64 L87.9827 1401.52 L83.0984 1401.52 L83.0984 1395.64 Z" fill="#000000" fill-rule="nonzero" fill-opacity="1" /><path clip-path="url(#clip910)" d="M108.168 1370.04 Q104.557 1370.04 102.728 1373.6 Q100.922 1377.14 100.922 1384.27 Q100.922 1391.38 102.728 1394.94 Q104.557 1398.49 108.168 1398.49 Q111.802 1398.49 113.608 1394.94 Q115.436 1391.38 115.436 1384.27 Q115.436 1377.14 113.608 1373.6 Q111.802 1370.04 108.168 1370.04 M108.168 1366.33 Q113.978 1366.33 117.033 1370.94 Q120.112 1375.52 120.112 1384.27 Q120.112 1393 117.033 1397.61 Q113.978 1402.19 108.168 1402.19 Q102.358 1402.19 99.2789 1397.61 Q96.2234 1393 96.2234 1384.27 Q96.2234 1375.52 99.2789 1370.94 Q102.358 1366.33 108.168 1366.33 Z" fill="#000000" fill-rule="nonzero" fill-opacity="1" /><path clip-path="url(#clip910)" d="M138.33 1370.04 Q134.719 1370.04 132.89 1373.6 Q131.084 1377.14 131.084 1384.27 Q131.084 1391.38 132.89 1394.94 Q134.719 1398.49 138.33 1398.49 Q141.964 1398.49 143.769 1394.94 Q145.598 1391.38 145.598 1384.27 Q145.598 1377.14 143.769 1373.6 Q141.964 1370.04 138.33 1370.04 M138.33 1366.33 Q144.14 1366.33 147.195 1370.94 Q150.274 1375.52 150.274 1384.27 Q150.274 1393 147.195 1397.61 Q144.14 1402.19 138.33 1402.19 Q132.519 1402.19 129.441 1397.61 Q126.385 1393 126.385 1384.27 Q126.385 1375.52 129.441 1370.94 Q132.519 1366.33 138.33 1366.33 Z" fill="#000000" fill-rule="nonzero" fill-opacity="1" /><path clip-path="url(#clip910)" d="M63.9319 1050.61 Q60.3208 1050.61 58.4921 1054.18 Q56.6865 1057.72 56.6865 1064.85 Q56.6865 1071.95 58.4921 1075.52 Q60.3208 1079.06 63.9319 1079.06 Q67.5661 1079.06 69.3717 1075.52 Q71.2004 1071.95 71.2004 1064.85 Q71.2004 1057.72 69.3717 1054.18 Q67.5661 1050.61 63.9319 1050.61 M63.9319 1046.91 Q69.742 1046.91 72.7976 1051.51 Q75.8763 1056.1 75.8763 1064.85 Q75.8763 1073.57 72.7976 1078.18 Q69.742 1082.76 63.9319 1082.76 Q58.1217 1082.76 55.043 1078.18 Q51.9875 1073.57 51.9875 1064.85 Q51.9875 1056.1 55.043 1051.51 Q58.1217 1046.91 63.9319 1046.91 Z" fill="#000000" fill-rule="nonzero" fill-opacity="1" /><path clip-path="url(#clip910)" d="M84.0938 1076.21 L88.978 1076.21 L88.978 1082.09 L84.0938 1082.09 L84.0938 1076.21 Z" fill="#000000" fill-rule="nonzero" fill-opacity="1" /><path clip-path="url(#clip910)" d="M103.191 1078.16 L119.51 1078.16 L119.51 1082.09 L97.566 1082.09 L97.566 1078.16 Q100.228 1075.4 104.811 1070.77 Q109.418 1066.12 110.598 1064.78 Q112.844 1062.26 113.723 1060.52 Q114.626 1058.76 114.626 1057.07 Q114.626 1054.32 112.682 1052.58 Q110.76 1050.84 107.658 1050.84 Q105.459 1050.84 103.006 1051.61 Q100.575 1052.37 97.7974 1053.92 L97.7974 1049.2 Q100.621 1048.07 103.075 1047.49 Q105.529 1046.91 107.566 1046.91 Q112.936 1046.91 116.131 1049.59 Q119.325 1052.28 119.325 1056.77 Q119.325 1058.9 118.515 1060.82 Q117.728 1062.72 115.621 1065.31 Q115.043 1065.98 111.941 1069.2 Q108.839 1072.39 103.191 1078.16 Z" fill="#000000" fill-rule="nonzero" fill-opacity="1" /><path clip-path="url(#clip910)" d="M129.371 1047.53 L147.728 1047.53 L147.728 1051.47 L133.654 1051.47 L133.654 1059.94 Q134.672 1059.59 135.691 1059.43 Q136.709 1059.25 137.728 1059.25 Q143.515 1059.25 146.894 1062.42 Q150.274 1065.59 150.274 1071.01 Q150.274 1076.58 146.802 1079.69 Q143.33 1082.76 137.01 1082.76 Q134.834 1082.76 132.566 1082.39 Q130.32 1082.02 127.913 1081.28 L127.913 1076.58 Q129.996 1077.72 132.219 1078.27 Q134.441 1078.83 136.918 1078.83 Q140.922 1078.83 143.26 1076.72 Q145.598 1074.62 145.598 1071.01 Q145.598 1067.39 143.26 1065.29 Q140.922 1063.18 136.918 1063.18 Q135.043 1063.18 133.168 1063.6 Q131.316 1064.01 129.371 1064.89 L129.371 1047.53 Z" fill="#000000" fill-rule="nonzero" fill-opacity="1" /><path clip-path="url(#clip910)" d="M62.9365 731.187 Q59.3254 731.187 57.4967 734.752 Q55.6912 738.294 55.6912 745.423 Q55.6912 752.53 57.4967 756.095 Q59.3254 759.636 62.9365 759.636 Q66.5707 759.636 68.3763 756.095 Q70.205 752.53 70.205 745.423 Q70.205 738.294 68.3763 734.752 Q66.5707 731.187 62.9365 731.187 M62.9365 727.484 Q68.7467 727.484 71.8022 732.09 Q74.8809 736.673 74.8809 745.423 Q74.8809 754.15 71.8022 758.757 Q68.7467 763.34 62.9365 763.34 Q57.1264 763.34 54.0477 758.757 Q50.9921 754.15 50.9921 745.423 Q50.9921 736.673 54.0477 732.09 Q57.1264 727.484 62.9365 727.484 Z" fill="#000000" fill-rule="nonzero" fill-opacity="1" /><path clip-path="url(#clip910)" d="M83.0984 756.789 L87.9827 756.789 L87.9827 762.669 L83.0984 762.669 L83.0984 756.789 Z" fill="#000000" fill-rule="nonzero" fill-opacity="1" /><path clip-path="url(#clip910)" d="M98.2141 728.109 L116.57 728.109 L116.57 732.044 L102.496 732.044 L102.496 740.516 Q103.515 740.169 104.534 740.007 Q105.552 739.821 106.571 739.821 Q112.358 739.821 115.737 742.993 Q119.117 746.164 119.117 751.581 Q119.117 757.159 115.645 760.261 Q112.172 763.34 105.853 763.34 Q103.677 763.34 101.409 762.969 Q99.1632 762.599 96.7558 761.858 L96.7558 757.159 Q98.8391 758.294 101.061 758.849 Q103.284 759.405 105.76 759.405 Q109.765 759.405 112.103 757.298 Q114.441 755.192 114.441 751.581 Q114.441 747.97 112.103 745.863 Q109.765 743.757 105.76 743.757 Q103.885 743.757 102.01 744.173 Q100.159 744.59 98.2141 745.47 L98.2141 728.109 Z" fill="#000000" fill-rule="nonzero" fill-opacity="1" /><path clip-path="url(#clip910)" d="M138.33 731.187 Q134.719 731.187 132.89 734.752 Q131.084 738.294 131.084 745.423 Q131.084 752.53 132.89 756.095 Q134.719 759.636 138.33 759.636 Q141.964 759.636 143.769 756.095 Q145.598 752.53 145.598 745.423 Q145.598 738.294 143.769 734.752 Q141.964 731.187 138.33 731.187 M138.33 727.484 Q144.14 727.484 147.195 732.09 Q150.274 736.673 150.274 745.423 Q150.274 754.15 147.195 758.757 Q144.14 763.34 138.33 763.34 Q132.519 763.34 129.441 758.757 Q126.385 754.15 126.385 745.423 Q126.385 736.673 129.441 732.09 Q132.519 727.484 138.33 727.484 Z" fill="#000000" fill-rule="nonzero" fill-opacity="1" /><path clip-path="url(#clip910)" d="M63.9319 411.762 Q60.3208 411.762 58.4921 415.327 Q56.6865 418.869 56.6865 425.998 Q56.6865 433.105 58.4921 436.67 Q60.3208 440.211 63.9319 440.211 Q67.5661 440.211 69.3717 436.67 Q71.2004 433.105 71.2004 425.998 Q71.2004 418.869 69.3717 415.327 Q67.5661 411.762 63.9319 411.762 M63.9319 408.059 Q69.742 408.059 72.7976 412.665 Q75.8763 417.248 75.8763 425.998 Q75.8763 434.725 72.7976 439.332 Q69.742 443.915 63.9319 443.915 Q58.1217 443.915 55.043 439.332 Q51.9875 434.725 51.9875 425.998 Q51.9875 417.248 55.043 412.665 Q58.1217 408.059 63.9319 408.059 Z" fill="#000000" fill-rule="nonzero" fill-opacity="1" /><path clip-path="url(#clip910)" d="M84.0938 437.364 L88.978 437.364 L88.978 443.244 L84.0938 443.244 L84.0938 437.364 Z" fill="#000000" fill-rule="nonzero" fill-opacity="1" /><path clip-path="url(#clip910)" d="M97.9826 408.684 L120.205 408.684 L120.205 410.674 L107.658 443.244 L102.774 443.244 L114.58 412.619 L97.9826 412.619 L97.9826 408.684 Z" fill="#000000" fill-rule="nonzero" fill-opacity="1" /><path clip-path="url(#clip910)" d="M129.371 408.684 L147.728 408.684 L147.728 412.619 L133.654 412.619 L133.654 421.091 Q134.672 420.744 135.691 420.582 Q136.709 420.397 137.728 420.397 Q143.515 420.397 146.894 423.568 Q150.274 426.739 150.274 432.156 Q150.274 437.734 146.802 440.836 Q143.33 443.915 137.01 443.915 Q134.834 443.915 132.566 443.545 Q130.32 443.174 127.913 442.434 L127.913 437.734 Q129.996 438.869 132.219 439.424 Q134.441 439.98 136.918 439.98 Q140.922 439.98 143.26 437.873 Q145.598 435.767 145.598 432.156 Q145.598 428.545 143.26 426.438 Q140.922 424.332 136.918 424.332 Q135.043 424.332 133.168 424.748 Q131.316 425.165 129.371 426.045 L129.371 408.684 Z" fill="#000000" fill-rule="nonzero" fill-opacity="1" /><path clip-path="url(#clip910)" d="M53.7467 119.884 L61.3856 119.884 L61.3856 93.5181 L53.0754 95.1847 L53.0754 90.9255 L61.3393 89.2589 L66.0152 89.2589 L66.0152 119.884 L73.654 119.884 L73.654 123.819 L53.7467 123.819 L53.7467 119.884 Z" fill="#000000" fill-rule="nonzero" fill-opacity="1" /><path clip-path="url(#clip910)" d="M83.0984 117.939 L87.9827 117.939 L87.9827 123.819 L83.0984 123.819 L83.0984 117.939 Z" fill="#000000" fill-rule="nonzero" fill-opacity="1" /><path clip-path="url(#clip910)" d="M108.168 92.3375 Q104.557 92.3375 102.728 95.9023 Q100.922 99.444 100.922 106.574 Q100.922 113.68 102.728 117.245 Q104.557 120.786 108.168 120.786 Q111.802 120.786 113.608 117.245 Q115.436 113.68 115.436 106.574 Q115.436 99.444 113.608 95.9023 Q111.802 92.3375 108.168 92.3375 M108.168 88.6339 Q113.978 88.6339 117.033 93.2403 Q120.112 97.8236 120.112 106.574 Q120.112 115.3 117.033 119.907 Q113.978 124.49 108.168 124.49 Q102.358 124.49 99.2789 119.907 Q96.2234 115.3 96.2234 106.574 Q96.2234 97.8236 99.2789 93.2403 Q102.358 88.6339 108.168 88.6339 Z" fill="#000000" fill-rule="nonzero" fill-opacity="1" /><path clip-path="url(#clip910)" d="M138.33 92.3375 Q134.719 92.3375 132.89 95.9023 Q131.084 99.444 131.084 106.574 Q131.084 113.68 132.89 117.245 Q134.719 120.786 138.33 120.786 Q141.964 120.786 143.769 117.245 Q145.598 113.68 145.598 106.574 Q145.598 99.444 143.769 95.9023 Q141.964 92.3375 138.33 92.3375 M138.33 88.6339 Q144.14 88.6339 147.195 93.2403 Q150.274 97.8236 150.274 106.574 Q150.274 115.3 147.195 119.907 Q144.14 124.49 138.33 124.49 Q132.519 124.49 129.441 119.907 Q126.385 115.3 126.385 106.574 Q126.385 97.8236 129.441 93.2403 Q132.519 88.6339 138.33 88.6339 Z" fill="#000000" fill-rule="nonzero" fill-opacity="1" /><polyline clip-path="url(#clip911)" style="stroke:#009af9; stroke-linecap:round; stroke-linejoin:round; stroke-width:4; stroke-opacity:1; fill:none" points="247.59,1384.24 257.912,1384.24 268.234,1384.24 278.557,1384.24 288.879,1384.24 299.202,1384.24 309.524,1384.24 319.847,1384.24 330.169,1384.24 340.492,1384.24 350.814,1384.24 361.137,1384.24 371.459,1384.24 381.782,1384.24 392.104,1384.24 402.427,1384.24 412.749,1384.24 423.072,1384.23 433.394,1384.22 443.717,1384.14 454.039,1383.93 464.362,1383.39 474.684,1382.28 485.007,1380.86 495.329,1378.9 505.652,1374.91 515.974,1369.07 526.296,1361.13 536.619,1350.81 546.941,1337.84 557.264,1322.25 567.586,1306.25 577.909,1288.68 588.231,1266.63 598.554,1242.57 608.876,1216.76 619.199,1189.48 629.521,1161.03 639.844,1131.67 650.166,1105.95 660.489,1080.42 670.811,1050.2 681.134,1019.94 691.456,989.833 701.779,960.014 712.101,930.615 722.424,901.742 732.746,873.482 743.069,845.903 753.391,819.059 763.713,792.991 774.036,767.727 784.358,743.284 794.681,719.673 805.003,696.894 815.326,674.944 825.648,653.815 835.971,633.492 846.293,615.581 856.616,598.452 866.938,580.384 877.261,563.043 887.583,546.404 897.906,530.445 908.228,515.141 918.551,500.468 928.873,486.402 939.196,472.919 949.518,459.995 959.841,447.608 970.163,588.557 980.486,704.644 990.808,688.734 1001.13,673.247 1011.45,658.18 1021.78,643.527 1032.1,629.501 1042.42,615.876 1052.74,602.422 1063.07,589.353 1073.39,576.663 1083.71,564.343 1094.03,557.141 1104.36,550.254 1114.68,538.832 1125,527.744 1135.32,516.982 1145.65,506.536 1155.97,496.399 1166.29,486.561 1176.61,477.015 1186.94,467.75 1197.26,458.759 1207.58,450.035 1217.9,441.568 1228.23,433.351 1238.55,425.376 1248.87,417.636 1259.19,410.123 1269.51,402.83 1279.84,395.751 1290.16,388.878 1300.48,382.206 1310.8,375.726 1321.13,369.434 1331.45,363.324 1341.77,357.388 1352.09,351.623 1362.42,346.022 1372.74,340.581 1383.06,335.293 1393.38,330.154 1403.71,325.16 1414.03,320.305 1424.35,315.586 1434.67,310.997 1445,306.535 1455.32,302.195 1465.64,297.975 1475.96,293.869 1486.29,289.874 1496.61,285.988 1506.93,282.205 1517.25,278.524 1527.58,274.941 1537.9,271.452 1548.22,268.056 1558.54,264.749 1568.87,261.528 1579.19,258.39 1589.51,255.334 1599.83,252.356 1610.16,249.455 1620.48,246.627 1630.8,243.871 1641.12,241.184 1651.45,238.565 1661.77,236.012 1672.09,233.521 1682.41,231.093 1692.74,228.724 1703.06,226.413 1713.38,224.158 1723.7,221.958 1734.03,219.811 1744.35,217.715 1754.67,215.669 1764.99,213.672 1775.32,211.723 1785.64,209.819 1795.96,207.959 1806.28,206.143 1816.61,204.369 1826.93,202.636 1837.25,200.943 1847.57,199.288 1857.9,197.671 1868.22,196.09 1878.54,194.545 1888.86,193.034 1899.19,191.558 1909.51,190.113 1919.83,188.701 1930.15,187.32 1940.48,185.969 1950.8,184.647 1961.12,183.354 1971.44,182.089 1981.77,180.85 1992.09,179.639 2002.41,178.453 2012.73,177.292 2023.06,176.155 2033.38,175.042 2043.7,173.953 2054.02,172.886 2064.35,171.84 2074.67,170.817 2084.99,169.814 2095.31,168.832 2105.64,167.87 2115.96,166.927 2126.28,166.003 2136.6,165.097 2146.93,164.209 2157.25,163.339 2167.57,162.487 2177.89,161.65 2188.22,160.831 2198.54,160.027 2208.86,159.238 2219.18,158.465 2229.51,157.707 2239.83,156.963 2250.15,156.234 2260.47,155.518 2270.8,154.815 2281.12,154.126 2291.44,153.45 "/>
<polyline clip-path="url(#clip911)" style="stroke:#e26f46; stroke-linecap:round; stroke-linejoin:round; stroke-width:4; stroke-opacity:1; fill:none" points="247.59,1384.24 257.912,1384.24 268.234,1384.24 278.557,1384.24 288.879,1384.24 299.202,1384.24 309.524,1384.24 319.847,1384.24 330.169,1384.24 340.492,1384.24 350.814,1384.24 361.137,1384.24 371.459,1384.23 381.782,1384.22 392.104,1384.17 402.427,1384.05 412.749,1383.82 423.072,1383.57 433.394,1383.26 443.717,1382.61 454.039,1381.63 464.362,1380.16 474.684,1377.91 485.007,1375.51 495.329,1372.55 505.652,1367 515.974,1359.45 526.296,1349.64 536.619,1337.34 546.941,1322.27 557.264,1304.51 567.586,1286.54 577.909,1267.03 588.231,1242.77 598.554,1216.53 608.876,1188.58 619.199,1159.23 629.521,1128.76 639.844,1097.48 650.166,1070.16 660.489,1043.13 670.811,1011.22 681.134,979.376 691.456,947.757 701.779,916.515 712.101,885.774 722.424,855.638 732.746,826.191 743.069,797.497 753.391,769.607 763.713,742.557 774.036,716.372 784.358,691.065 794.681,666.643 805.003,643.103 815.326,620.44 825.648,598.64 835.971,577.687 846.293,559.234 856.616,541.596 866.938,523.002 877.261,505.165 887.583,488.06 897.906,471.661 908.228,455.943 918.551,440.879 928.873,426.444 939.196,412.613 949.518,399.359 959.841,386.66 970.163,531.411 980.486,651.11 990.808,634.675 1001.13,618.688 1011.45,603.142 1021.78,588.032 1032.1,573.574 1042.42,559.538 1052.74,545.682 1063.07,532.23 1073.39,519.173 1083.71,506.501 1094.03,499.096 1104.36,492.016 1114.68,480.277 1125,468.886 1135.32,457.833 1145.65,447.108 1155.97,436.702 1166.29,426.607 1176.61,416.813 1186.94,407.311 1197.26,398.092 1207.58,389.148 1217.9,380.47 1228.23,372.05 1238.55,363.88 1248.87,355.952 1259.19,348.258 1269.51,340.791 1279.84,333.544 1290.16,326.509 1300.48,319.681 1310.8,313.051 1321.13,306.614 1331.45,300.363 1341.77,294.293 1352.09,288.397 1362.42,282.67 1372.74,277.107 1383.06,271.702 1393.38,266.449 1403.71,261.345 1414.03,256.384 1424.35,251.562 1434.67,246.874 1445,242.315 1455.32,237.883 1465.64,233.572 1475.96,229.378 1486.29,225.299 1496.61,221.331 1506.93,217.469 1517.25,213.71 1527.58,210.052 1537.9,206.492 1548.22,203.025 1558.54,199.649 1568.87,196.362 1579.19,193.16 1589.51,190.041 1599.83,187.003 1610.16,184.043 1620.48,181.158 1630.8,178.346 1641.12,175.605 1651.45,172.934 1661.77,170.329 1672.09,167.789 1682.41,165.312 1692.74,162.896 1703.06,160.539 1713.38,158.24 1723.7,155.996 1734.03,153.807 1744.35,151.67 1754.67,149.584 1764.99,147.548 1775.32,145.561 1785.64,143.619 1795.96,141.724 1806.28,139.873 1816.61,138.064 1826.93,136.297 1837.25,134.571 1847.57,132.885 1857.9,131.237 1868.22,129.626 1878.54,128.051 1888.86,126.512 1899.19,125.006 1909.51,123.535 1919.83,122.096 1930.15,120.688 1940.48,119.311 1950.8,117.965 1961.12,116.647 1971.44,115.358 1981.77,114.096 1992.09,112.861 2002.41,111.653 2012.73,110.47 2023.06,109.312 2033.38,108.179 2043.7,107.069 2054.02,105.981 2064.35,104.917 2074.67,103.874 2084.99,102.853 2095.31,101.852 2105.64,100.872 2115.96,99.9114 2126.28,98.9702 2136.6,98.0478 2146.93,97.1438 2157.25,96.2576 2167.57,95.3889 2177.89,94.5373 2188.22,93.7023 2198.54,92.8836 2208.86,92.0808 2219.18,91.2934 2229.51,90.5211 2239.83,89.7636 2250.15,89.0205 2260.47,88.2915 2270.8,87.5762 2281.12,86.8744 2291.44,86.1857 "/>
<path clip-path="url(#clip910)" d="M1925.03 1377.32 L2280.54 1377.32 L2280.54 1221.8 L1925.03 1221.8  Z" fill="#ffffff" fill-rule="evenodd" fill-opacity="1"/>
<polyline clip-path="url(#clip910)" style="stroke:#000000; stroke-linecap:round; stroke-linejoin:round; stroke-width:4; stroke-opacity:1; fill:none" points="1925.03,1377.32 2280.54,1377.32 2280.54,1221.8 1925.03,1221.8 1925.03,1377.32 "/>
<polyline clip-path="url(#clip910)" style="stroke:#009af9; stroke-linecap:round; stroke-linejoin:round; stroke-width:4; stroke-opacity:1; fill:none" points="1949.1,1273.64 2093.53,1273.64 "/>
<path clip-path="url(#clip910)" d="M2137.95 1269.97 Q2139.55 1267.1 2141.77 1265.73 Q2143.99 1264.36 2147 1264.36 Q2151.05 1264.36 2153.25 1267.21 Q2155.45 1270.04 2155.45 1275.27 L2155.45 1290.92 L2151.17 1290.92 L2151.17 1275.41 Q2151.17 1271.68 2149.85 1269.87 Q2148.53 1268.07 2145.82 1268.07 Q2142.51 1268.07 2140.59 1270.27 Q2138.67 1272.47 2138.67 1276.26 L2138.67 1290.92 L2134.39 1290.92 L2134.39 1275.41 Q2134.39 1271.66 2133.07 1269.87 Q2131.75 1268.07 2128.99 1268.07 Q2125.73 1268.07 2123.81 1270.29 Q2121.89 1272.49 2121.89 1276.26 L2121.89 1290.92 L2117.6 1290.92 L2117.6 1264.99 L2121.89 1264.99 L2121.89 1269.02 Q2123.34 1266.63 2125.38 1265.5 Q2127.42 1264.36 2130.22 1264.36 Q2133.04 1264.36 2135.01 1265.8 Q2137 1267.23 2137.95 1269.97 Z" fill="#000000" fill-rule="nonzero" fill-opacity="1" /><path clip-path="url(#clip910)" d="M2173.99 1267.98 Q2170.57 1267.98 2168.57 1270.66 Q2166.58 1273.32 2166.58 1277.98 Q2166.58 1282.63 2168.55 1285.31 Q2170.54 1287.98 2173.99 1287.98 Q2177.39 1287.98 2179.38 1285.29 Q2181.38 1282.61 2181.38 1277.98 Q2181.38 1273.37 2179.38 1270.68 Q2177.39 1267.98 2173.99 1267.98 M2173.99 1264.36 Q2179.55 1264.36 2182.72 1267.98 Q2185.89 1271.59 2185.89 1277.98 Q2185.89 1284.34 2182.72 1287.98 Q2179.55 1291.59 2173.99 1291.59 Q2168.41 1291.59 2165.24 1287.98 Q2162.09 1284.34 2162.09 1277.98 Q2162.09 1271.59 2165.24 1267.98 Q2168.41 1264.36 2173.99 1264.36 Z" fill="#000000" fill-rule="nonzero" fill-opacity="1" /><path clip-path="url(#clip910)" d="M2210.01 1268.92 L2210.01 1254.9 L2214.27 1254.9 L2214.27 1290.92 L2210.01 1290.92 L2210.01 1287.03 Q2208.67 1289.34 2206.61 1290.48 Q2204.57 1291.59 2201.7 1291.59 Q2197 1291.59 2194.04 1287.84 Q2191.1 1284.09 2191.1 1277.98 Q2191.1 1271.86 2194.04 1268.11 Q2197 1264.36 2201.7 1264.36 Q2204.57 1264.36 2206.61 1265.5 Q2208.67 1266.61 2210.01 1268.92 M2195.5 1277.98 Q2195.5 1282.67 2197.42 1285.36 Q2199.36 1288.02 2202.74 1288.02 Q2206.12 1288.02 2208.07 1285.36 Q2210.01 1282.67 2210.01 1277.98 Q2210.01 1273.28 2208.07 1270.61 Q2206.12 1267.93 2202.74 1267.93 Q2199.36 1267.93 2197.42 1270.61 Q2195.5 1273.28 2195.5 1277.98 Z" fill="#000000" fill-rule="nonzero" fill-opacity="1" /><path clip-path="url(#clip910)" d="M2245.22 1276.89 L2245.22 1278.97 L2225.63 1278.97 Q2225.91 1283.37 2228.27 1285.68 Q2230.66 1287.98 2234.89 1287.98 Q2237.35 1287.98 2239.64 1287.37 Q2241.95 1286.77 2244.22 1285.57 L2244.22 1289.6 Q2241.93 1290.57 2239.52 1291.08 Q2237.12 1291.59 2234.64 1291.59 Q2228.44 1291.59 2224.8 1287.98 Q2221.19 1284.36 2221.19 1278.21 Q2221.19 1271.84 2224.62 1268.11 Q2228.07 1264.36 2233.9 1264.36 Q2239.13 1264.36 2242.16 1267.74 Q2245.22 1271.1 2245.22 1276.89 M2240.96 1275.64 Q2240.91 1272.14 2238.99 1270.06 Q2237.09 1267.98 2233.94 1267.98 Q2230.38 1267.98 2228.23 1269.99 Q2226.1 1272 2225.77 1275.66 L2240.96 1275.64 Z" fill="#000000" fill-rule="nonzero" fill-opacity="1" /><path clip-path="url(#clip910)" d="M2252.21 1254.9 L2256.47 1254.9 L2256.47 1290.92 L2252.21 1290.92 L2252.21 1254.9 Z" fill="#000000" fill-rule="nonzero" fill-opacity="1" /><polyline clip-path="url(#clip910)" style="stroke:#e26f46; stroke-linecap:round; stroke-linejoin:round; stroke-width:4; stroke-opacity:1; fill:none" points="1949.1,1325.48 2093.53,1325.48 "/>
<path clip-path="url(#clip910)" d="M2136.03 1317.59 L2136.03 1321.62 Q2134.22 1320.7 2132.28 1320.23 Q2130.33 1319.77 2128.25 1319.77 Q2125.08 1319.77 2123.48 1320.74 Q2121.91 1321.71 2121.91 1323.66 Q2121.91 1325.14 2123.04 1326 Q2124.18 1326.83 2127.6 1327.59 L2129.06 1327.92 Q2133.6 1328.89 2135.5 1330.67 Q2137.42 1332.43 2137.42 1335.6 Q2137.42 1339.21 2134.55 1341.32 Q2131.7 1343.43 2126.7 1343.43 Q2124.62 1343.43 2122.35 1343.01 Q2120.1 1342.62 2117.6 1341.81 L2117.6 1337.41 Q2119.96 1338.63 2122.26 1339.26 Q2124.55 1339.86 2126.79 1339.86 Q2129.8 1339.86 2131.42 1338.84 Q2133.04 1337.8 2133.04 1335.93 Q2133.04 1334.19 2131.86 1333.26 Q2130.7 1332.34 2126.75 1331.48 L2125.26 1331.14 Q2121.31 1330.3 2119.55 1328.59 Q2117.79 1326.85 2117.79 1323.84 Q2117.79 1320.19 2120.38 1318.2 Q2122.97 1316.2 2127.74 1316.2 Q2130.1 1316.2 2132.19 1316.55 Q2134.27 1316.9 2136.03 1317.59 Z" fill="#000000" fill-rule="nonzero" fill-opacity="1" /><path clip-path="url(#clip910)" d="M2143.76 1332.52 L2143.76 1316.83 L2148.02 1316.83 L2148.02 1332.36 Q2148.02 1336.04 2149.45 1337.89 Q2150.89 1339.72 2153.76 1339.72 Q2157.21 1339.72 2159.2 1337.52 Q2161.21 1335.32 2161.21 1331.53 L2161.21 1316.83 L2165.47 1316.83 L2165.47 1342.76 L2161.21 1342.76 L2161.21 1338.77 Q2159.66 1341.13 2157.6 1342.29 Q2155.57 1343.43 2152.86 1343.43 Q2148.39 1343.43 2146.07 1340.65 Q2143.76 1337.87 2143.76 1332.52 M2154.48 1316.2 L2154.48 1316.2 Z" fill="#000000" fill-rule="nonzero" fill-opacity="1" /><path clip-path="url(#clip910)" d="M2189.27 1320.81 Q2188.55 1320.39 2187.7 1320.21 Q2186.86 1320 2185.84 1320 Q2182.23 1320 2180.29 1322.36 Q2178.37 1324.7 2178.37 1329.1 L2178.37 1342.76 L2174.08 1342.76 L2174.08 1316.83 L2178.37 1316.83 L2178.37 1320.86 Q2179.71 1318.5 2181.86 1317.36 Q2184.01 1316.2 2187.09 1316.2 Q2187.53 1316.2 2188.07 1316.27 Q2188.6 1316.32 2189.25 1316.44 L2189.27 1320.81 Z" fill="#000000" fill-rule="nonzero" fill-opacity="1" /><path clip-path="url(#clip910)" d="M2207.93 1320.81 Q2207.21 1320.39 2206.35 1320.21 Q2205.52 1320 2204.5 1320 Q2200.89 1320 2198.94 1322.36 Q2197.02 1324.7 2197.02 1329.1 L2197.02 1342.76 L2192.74 1342.76 L2192.74 1316.83 L2197.02 1316.83 L2197.02 1320.86 Q2198.37 1318.5 2200.52 1317.36 Q2202.67 1316.2 2205.75 1316.2 Q2206.19 1316.2 2206.72 1316.27 Q2207.26 1316.32 2207.9 1316.44 L2207.93 1320.81 Z" fill="#000000" fill-rule="nonzero" fill-opacity="1" /></svg>
