<?xml version="1.0" encoding="utf-8"?>
<svg xmlns="http://www.w3.org/2000/svg" xmlns:xlink="http://www.w3.org/1999/xlink" width="600" height="400" viewBox="0 0 2400 1600">
<defs>
  <clipPath id="clip330">
    <rect x="0" y="0" width="2400" height="1600"/>
  </clipPath>
</defs>
<path clip-path="url(#clip330)" d="
M0 1600 L2400 1600 L2400 0 L0 0  Z
  " fill="#ffffff" fill-rule="evenodd" fill-opacity="1"/>
<defs>
  <clipPath id="clip331">
    <rect x="480" y="0" width="1681" height="1600"/>
  </clipPath>
</defs>
<path clip-path="url(#clip330)" d="
M175.445 1423.18 L2352.76 1423.18 L2352.76 47.2441 L175.445 47.2441  Z
  " fill="#ffffff" fill-rule="evenodd" fill-opacity="1"/>
<defs>
  <clipPath id="clip332">
    <rect x="175" y="47" width="2178" height="1377"/>
  </clipPath>
</defs>
<polyline clip-path="url(#clip332)" style="stroke:#000000; stroke-linecap:butt; stroke-linejoin:round; stroke-width:2; stroke-opacity:0.1; fill:none" points="
  237.067,1423.18 237.067,47.2441 
  "/>
<polyline clip-path="url(#clip332)" style="stroke:#000000; stroke-linecap:butt; stroke-linejoin:round; stroke-width:2; stroke-opacity:0.1; fill:none" points="
  750.584,1423.18 750.584,47.2441 
  "/>
<polyline clip-path="url(#clip332)" style="stroke:#000000; stroke-linecap:butt; stroke-linejoin:round; stroke-width:2; stroke-opacity:0.1; fill:none" points="
  1264.1,1423.18 1264.1,47.2441 
  "/>
<polyline clip-path="url(#clip332)" style="stroke:#000000; stroke-linecap:butt; stroke-linejoin:round; stroke-width:2; stroke-opacity:0.1; fill:none" points="
  1777.62,1423.18 1777.62,47.2441 
  "/>
<polyline clip-path="url(#clip332)" style="stroke:#000000; stroke-linecap:butt; stroke-linejoin:round; stroke-width:2; stroke-opacity:0.1; fill:none" points="
  2291.13,1423.18 2291.13,47.2441 
  "/>
<polyline clip-path="url(#clip330)" style="stroke:#000000; stroke-linecap:butt; stroke-linejoin:round; stroke-width:4; stroke-opacity:1; fill:none" points="
  175.445,1423.18 2352.76,1423.18 
  "/>
<polyline clip-path="url(#clip330)" style="stroke:#000000; stroke-linecap:butt; stroke-linejoin:round; stroke-width:4; stroke-opacity:1; fill:none" points="
  237.067,1423.18 237.067,1404.28 
  "/>
<polyline clip-path="url(#clip330)" style="stroke:#000000; stroke-linecap:butt; stroke-linejoin:round; stroke-width:4; stroke-opacity:1; fill:none" points="
  750.584,1423.18 750.584,1404.28 
  "/>
<polyline clip-path="url(#clip330)" style="stroke:#000000; stroke-linecap:butt; stroke-linejoin:round; stroke-width:4; stroke-opacity:1; fill:none" points="
  1264.1,1423.18 1264.1,1404.28 
  "/>
<polyline clip-path="url(#clip330)" style="stroke:#000000; stroke-linecap:butt; stroke-linejoin:round; stroke-width:4; stroke-opacity:1; fill:none" points="
  1777.62,1423.18 1777.62,1404.28 
  "/>
<polyline clip-path="url(#clip330)" style="stroke:#000000; stroke-linecap:butt; stroke-linejoin:round; stroke-width:4; stroke-opacity:1; fill:none" points="
  2291.13,1423.18 2291.13,1404.28 
  "/>
<path clip-path="url(#clip330)" d="M237.067 1454.1 Q233.456 1454.1 231.627 1457.66 Q229.822 1461.2 229.822 1468.33 Q229.822 1475.44 231.627 1479.01 Q233.456 1482.55 237.067 1482.55 Q240.701 1482.55 242.507 1479.01 Q244.336 1475.44 244.336 1468.33 Q244.336 1461.2 242.507 1457.66 Q240.701 1454.1 237.067 1454.1 M237.067 1450.39 Q242.877 1450.39 245.933 1455 Q249.012 1459.58 249.012 1468.33 Q249.012 1477.06 245.933 1481.67 Q242.877 1486.25 237.067 1486.25 Q231.257 1486.25 228.178 1481.67 Q225.123 1477.06 225.123 1468.33 Q225.123 1459.58 228.178 1455 Q231.257 1450.39 237.067 1450.39 Z" fill="#000000" fill-rule="evenodd" fill-opacity="1" /><path clip-path="url(#clip330)" d="M729.855 1481.64 L746.174 1481.64 L746.174 1485.58 L724.23 1485.58 L724.23 1481.64 Q726.892 1478.89 731.475 1474.26 Q736.082 1469.61 737.262 1468.27 Q739.508 1465.74 740.387 1464.01 Q741.29 1462.25 741.29 1460.56 Q741.29 1457.8 739.346 1456.07 Q737.424 1454.33 734.322 1454.33 Q732.123 1454.33 729.67 1455.09 Q727.239 1455.86 724.461 1457.41 L724.461 1452.69 Q727.285 1451.55 729.739 1450.97 Q732.193 1450.39 734.23 1450.39 Q739.6 1450.39 742.795 1453.08 Q745.989 1455.77 745.989 1460.26 Q745.989 1462.39 745.179 1464.31 Q744.392 1466.2 742.285 1468.8 Q741.707 1469.47 738.605 1472.69 Q735.503 1475.88 729.855 1481.64 Z" fill="#000000" fill-rule="evenodd" fill-opacity="1" /><path clip-path="url(#clip330)" d="M756.035 1451.02 L774.392 1451.02 L774.392 1454.96 L760.318 1454.96 L760.318 1463.43 Q761.336 1463.08 762.355 1462.92 Q763.373 1462.73 764.392 1462.73 Q770.179 1462.73 773.558 1465.9 Q776.938 1469.08 776.938 1474.49 Q776.938 1480.07 773.466 1483.17 Q769.994 1486.25 763.674 1486.25 Q761.498 1486.25 759.23 1485.88 Q756.984 1485.51 754.577 1484.77 L754.577 1480.07 Q756.66 1481.2 758.882 1481.76 Q761.105 1482.32 763.581 1482.32 Q767.586 1482.32 769.924 1480.21 Q772.262 1478.1 772.262 1474.49 Q772.262 1470.88 769.924 1468.77 Q767.586 1466.67 763.581 1466.67 Q761.707 1466.67 759.832 1467.08 Q757.98 1467.5 756.035 1468.38 L756.035 1451.02 Z" fill="#000000" fill-rule="evenodd" fill-opacity="1" /><path clip-path="url(#clip330)" d="M1238.8 1451.02 L1257.16 1451.02 L1257.16 1454.96 L1243.08 1454.96 L1243.08 1463.43 Q1244.1 1463.08 1245.12 1462.92 Q1246.14 1462.73 1247.16 1462.73 Q1252.94 1462.73 1256.32 1465.9 Q1259.7 1469.08 1259.7 1474.49 Q1259.7 1480.07 1256.23 1483.17 Q1252.76 1486.25 1246.44 1486.25 Q1244.26 1486.25 1241.99 1485.88 Q1239.75 1485.51 1237.34 1484.77 L1237.34 1480.07 Q1239.42 1481.2 1241.65 1481.76 Q1243.87 1482.32 1246.35 1482.32 Q1250.35 1482.32 1252.69 1480.21 Q1255.03 1478.1 1255.03 1474.49 Q1255.03 1470.88 1252.69 1468.77 Q1250.35 1466.67 1246.35 1466.67 Q1244.47 1466.67 1242.6 1467.08 Q1240.74 1467.5 1238.8 1468.38 L1238.8 1451.02 Z" fill="#000000" fill-rule="evenodd" fill-opacity="1" /><path clip-path="url(#clip330)" d="M1278.92 1454.1 Q1275.3 1454.1 1273.48 1457.66 Q1271.67 1461.2 1271.67 1468.33 Q1271.67 1475.44 1273.48 1479.01 Q1275.3 1482.55 1278.92 1482.55 Q1282.55 1482.55 1284.36 1479.01 Q1286.18 1475.44 1286.18 1468.33 Q1286.18 1461.2 1284.36 1457.66 Q1282.55 1454.1 1278.92 1454.1 M1278.92 1450.39 Q1284.73 1450.39 1287.78 1455 Q1290.86 1459.58 1290.86 1468.33 Q1290.86 1477.06 1287.78 1481.67 Q1284.73 1486.25 1278.92 1486.25 Q1273.11 1486.25 1270.03 1481.67 Q1266.97 1477.06 1266.97 1468.33 Q1266.97 1459.58 1270.03 1455 Q1273.11 1450.39 1278.92 1450.39 Z" fill="#000000" fill-rule="evenodd" fill-opacity="1" /><path clip-path="url(#clip330)" d="M1751.47 1451.02 L1773.69 1451.02 L1773.69 1453.01 L1761.15 1485.58 L1756.26 1485.58 L1768.07 1454.96 L1751.47 1454.96 L1751.47 1451.02 Z" fill="#000000" fill-rule="evenodd" fill-opacity="1" /><path clip-path="url(#clip330)" d="M1782.86 1451.02 L1801.22 1451.02 L1801.22 1454.96 L1787.14 1454.96 L1787.14 1463.43 Q1788.16 1463.08 1789.18 1462.92 Q1790.2 1462.73 1791.22 1462.73 Q1797 1462.73 1800.38 1465.9 Q1803.76 1469.08 1803.76 1474.49 Q1803.76 1480.07 1800.29 1483.17 Q1796.82 1486.25 1790.5 1486.25 Q1788.32 1486.25 1786.05 1485.88 Q1783.81 1485.51 1781.4 1484.77 L1781.4 1480.07 Q1783.49 1481.2 1785.71 1481.76 Q1787.93 1482.32 1790.41 1482.32 Q1794.41 1482.32 1796.75 1480.21 Q1799.09 1478.1 1799.09 1474.49 Q1799.09 1470.88 1796.75 1468.77 Q1794.41 1466.67 1790.41 1466.67 Q1788.53 1466.67 1786.66 1467.08 Q1784.8 1467.5 1782.86 1468.38 L1782.86 1451.02 Z" fill="#000000" fill-rule="evenodd" fill-opacity="1" /><path clip-path="url(#clip330)" d="M2250.74 1481.64 L2258.38 1481.64 L2258.38 1455.28 L2250.07 1456.95 L2250.07 1452.69 L2258.33 1451.02 L2263.01 1451.02 L2263.01 1481.64 L2270.65 1481.64 L2270.65 1485.58 L2250.74 1485.58 L2250.74 1481.64 Z" fill="#000000" fill-rule="evenodd" fill-opacity="1" /><path clip-path="url(#clip330)" d="M2290.09 1454.1 Q2286.48 1454.1 2284.65 1457.66 Q2282.85 1461.2 2282.85 1468.33 Q2282.85 1475.44 2284.65 1479.01 Q2286.48 1482.55 2290.09 1482.55 Q2293.73 1482.55 2295.53 1479.01 Q2297.36 1475.44 2297.36 1468.33 Q2297.36 1461.2 2295.53 1457.66 Q2293.73 1454.1 2290.09 1454.1 M2290.09 1450.39 Q2295.9 1450.39 2298.96 1455 Q2302.04 1459.58 2302.04 1468.33 Q2302.04 1477.06 2298.96 1481.67 Q2295.9 1486.25 2290.09 1486.25 Q2284.28 1486.25 2281.2 1481.67 Q2278.15 1477.06 2278.15 1468.33 Q2278.15 1459.58 2281.2 1455 Q2284.28 1450.39 2290.09 1450.39 Z" fill="#000000" fill-rule="evenodd" fill-opacity="1" /><path clip-path="url(#clip330)" d="M2320.25 1454.1 Q2316.64 1454.1 2314.81 1457.66 Q2313.01 1461.2 2313.01 1468.33 Q2313.01 1475.44 2314.81 1479.01 Q2316.64 1482.55 2320.25 1482.55 Q2323.89 1482.55 2325.69 1479.01 Q2327.52 1475.44 2327.52 1468.33 Q2327.52 1461.2 2325.69 1457.66 Q2323.89 1454.1 2320.25 1454.1 M2320.25 1450.39 Q2326.06 1450.39 2329.12 1455 Q2332.2 1459.58 2332.2 1468.33 Q2332.2 1477.06 2329.12 1481.67 Q2326.06 1486.25 2320.25 1486.25 Q2314.44 1486.25 2311.37 1481.67 Q2308.31 1477.06 2308.31 1468.33 Q2308.31 1459.58 2311.37 1455 Q2314.44 1450.39 2320.25 1450.39 Z" fill="#000000" fill-rule="evenodd" fill-opacity="1" /><path clip-path="url(#clip330)" d="M1280.72 1532.4 L1267.82 1549.74 L1281.38 1568.04 L1274.48 1568.04 L1264.1 1554.04 L1253.72 1568.04 L1246.82 1568.04 L1260.66 1549.39 L1248 1532.4 L1254.9 1532.4 L1264.36 1545.1 L1273.81 1532.4 L1280.72 1532.4 Z" fill="#000000" fill-rule="evenodd" fill-opacity="1" /><polyline clip-path="url(#clip332)" style="stroke:#000000; stroke-linecap:butt; stroke-linejoin:round; stroke-width:2; stroke-opacity:0.1; fill:none" points="
  175.445,1415.26 2352.76,1415.26 
  "/>
<polyline clip-path="url(#clip332)" style="stroke:#000000; stroke-linecap:butt; stroke-linejoin:round; stroke-width:2; stroke-opacity:0.1; fill:none" points="
  175.445,1046.25 2352.76,1046.25 
  "/>
<polyline clip-path="url(#clip332)" style="stroke:#000000; stroke-linecap:butt; stroke-linejoin:round; stroke-width:2; stroke-opacity:0.1; fill:none" points="
  175.445,677.245 2352.76,677.245 
  "/>
<polyline clip-path="url(#clip332)" style="stroke:#000000; stroke-linecap:butt; stroke-linejoin:round; stroke-width:2; stroke-opacity:0.1; fill:none" points="
  175.445,308.237 2352.76,308.237 
  "/>
<polyline clip-path="url(#clip330)" style="stroke:#000000; stroke-linecap:butt; stroke-linejoin:round; stroke-width:4; stroke-opacity:1; fill:none" points="
  175.445,1423.18 175.445,47.2441 
  "/>
<polyline clip-path="url(#clip330)" style="stroke:#000000; stroke-linecap:butt; stroke-linejoin:round; stroke-width:4; stroke-opacity:1; fill:none" points="
  175.445,1415.26 194.343,1415.26 
  "/>
<polyline clip-path="url(#clip330)" style="stroke:#000000; stroke-linecap:butt; stroke-linejoin:round; stroke-width:4; stroke-opacity:1; fill:none" points="
  175.445,1046.25 194.343,1046.25 
  "/>
<polyline clip-path="url(#clip330)" style="stroke:#000000; stroke-linecap:butt; stroke-linejoin:round; stroke-width:4; stroke-opacity:1; fill:none" points="
  175.445,677.245 194.343,677.245 
  "/>
<polyline clip-path="url(#clip330)" style="stroke:#000000; stroke-linecap:butt; stroke-linejoin:round; stroke-width:4; stroke-opacity:1; fill:none" points="
  175.445,308.237 194.343,308.237 
  "/>
<path clip-path="url(#clip330)" d="M127.501 1401.06 Q123.89 1401.06 122.061 1404.62 Q120.255 1408.17 120.255 1415.3 Q120.255 1422.4 122.061 1425.97 Q123.89 1429.51 127.501 1429.51 Q131.135 1429.51 132.941 1425.97 Q134.769 1422.4 134.769 1415.3 Q134.769 1408.17 132.941 1404.62 Q131.135 1401.06 127.501 1401.06 M127.501 1397.36 Q133.311 1397.36 136.367 1401.96 Q139.445 1406.55 139.445 1415.3 Q139.445 1424.02 136.367 1428.63 Q133.311 1433.21 127.501 1433.21 Q121.691 1433.21 118.612 1428.63 Q115.556 1424.02 115.556 1415.3 Q115.556 1406.55 118.612 1401.96 Q121.691 1397.36 127.501 1397.36 Z" fill="#000000" fill-rule="evenodd" fill-opacity="1" /><path clip-path="url(#clip330)" d="M123.126 1059.6 L139.445 1059.6 L139.445 1063.53 L117.501 1063.53 L117.501 1059.6 Q120.163 1056.84 124.746 1052.21 Q129.353 1047.56 130.533 1046.22 Q132.779 1043.69 133.658 1041.96 Q134.561 1040.2 134.561 1038.51 Q134.561 1035.75 132.617 1034.02 Q130.695 1032.28 127.593 1032.28 Q125.394 1032.28 122.941 1033.05 Q120.51 1033.81 117.732 1035.36 L117.732 1030.64 Q120.556 1029.5 123.01 1028.93 Q125.464 1028.35 127.501 1028.35 Q132.871 1028.35 136.066 1031.03 Q139.26 1033.72 139.26 1038.21 Q139.26 1040.34 138.45 1042.26 Q137.663 1044.16 135.556 1046.75 Q134.978 1047.42 131.876 1050.64 Q128.774 1053.83 123.126 1059.6 Z" fill="#000000" fill-rule="evenodd" fill-opacity="1" /><path clip-path="url(#clip330)" d="M129.862 664.039 L118.056 682.488 L129.862 682.488 L129.862 664.039 M128.635 659.965 L134.515 659.965 L134.515 682.488 L139.445 682.488 L139.445 686.377 L134.515 686.377 L134.515 694.525 L129.862 694.525 L129.862 686.377 L114.26 686.377 L114.26 681.863 L128.635 659.965 Z" fill="#000000" fill-rule="evenodd" fill-opacity="1" /><path clip-path="url(#clip330)" d="M127.917 306.374 Q124.769 306.374 122.918 308.526 Q121.089 310.679 121.089 314.429 Q121.089 318.156 122.918 320.332 Q124.769 322.485 127.917 322.485 Q131.066 322.485 132.894 320.332 Q134.746 318.156 134.746 314.429 Q134.746 310.679 132.894 308.526 Q131.066 306.374 127.917 306.374 M137.2 291.721 L137.2 295.98 Q135.441 295.147 133.635 294.707 Q131.853 294.267 130.093 294.267 Q125.464 294.267 123.01 297.392 Q120.58 300.517 120.232 306.837 Q121.598 304.823 123.658 303.758 Q125.718 302.67 128.195 302.67 Q133.404 302.67 136.413 305.841 Q139.445 308.989 139.445 314.429 Q139.445 319.753 136.297 322.971 Q133.149 326.188 127.917 326.188 Q121.922 326.188 118.751 321.605 Q115.58 316.999 115.58 308.272 Q115.58 300.077 119.468 295.216 Q123.357 290.332 129.908 290.332 Q131.667 290.332 133.45 290.679 Q135.255 291.026 137.2 291.721 Z" fill="#000000" fill-rule="evenodd" fill-opacity="1" /><path clip-path="url(#clip330)" d="M67.3143 733.525 Q73.68 736.008 75.6216 738.363 Q77.5631 740.718 77.5631 744.665 L77.5631 749.344 L72.6615 749.344 L72.6615 745.906 Q72.6615 743.487 71.5157 742.151 Q70.3699 740.814 66.1048 739.191 L63.4312 738.14 L28.3562 752.559 L28.3562 746.352 L56.238 735.212 L28.3562 724.072 L28.3562 717.865 L67.3143 733.525 Z" fill="#000000" fill-rule="evenodd" fill-opacity="1" /><circle clip-path="url(#clip332)" cx="237.067" cy="859.783" r="14.4" fill="#009af9" fill-rule="evenodd" fill-opacity="1" stroke="#000000" stroke-opacity="1" stroke-width="3.2"/>
<circle clip-path="url(#clip332)" cx="257.608" cy="1220.94" r="14.4" fill="#009af9" fill-rule="evenodd" fill-opacity="1" stroke="#000000" stroke-opacity="1" stroke-width="3.2"/>
<circle clip-path="url(#clip332)" cx="278.149" cy="875.132" r="14.4" fill="#009af9" fill-rule="evenodd" fill-opacity="1" stroke="#000000" stroke-opacity="1" stroke-width="3.2"/>
<circle clip-path="url(#clip332)" cx="298.689" cy="1048.69" r="14.4" fill="#009af9" fill-rule="evenodd" fill-opacity="1" stroke="#000000" stroke-opacity="1" stroke-width="3.2"/>
<circle clip-path="url(#clip332)" cx="319.23" cy="1154.44" r="14.4" fill="#009af9" fill-rule="evenodd" fill-opacity="1" stroke="#000000" stroke-opacity="1" stroke-width="3.2"/>
<circle clip-path="url(#clip332)" cx="339.771" cy="1311.05" r="14.4" fill="#009af9" fill-rule="evenodd" fill-opacity="1" stroke="#000000" stroke-opacity="1" stroke-width="3.2"/>
<circle clip-path="url(#clip332)" cx="360.311" cy="545.542" r="14.4" fill="#009af9" fill-rule="evenodd" fill-opacity="1" stroke="#000000" stroke-opacity="1" stroke-width="3.2"/>
<circle clip-path="url(#clip332)" cx="380.852" cy="764.322" r="14.4" fill="#009af9" fill-rule="evenodd" fill-opacity="1" stroke="#000000" stroke-opacity="1" stroke-width="3.2"/>
<circle clip-path="url(#clip332)" cx="401.393" cy="905.771" r="14.4" fill="#009af9" fill-rule="evenodd" fill-opacity="1" stroke="#000000" stroke-opacity="1" stroke-width="3.2"/>
<circle clip-path="url(#clip332)" cx="421.933" cy="1208.81" r="14.4" fill="#009af9" fill-rule="evenodd" fill-opacity="1" stroke="#000000" stroke-opacity="1" stroke-width="3.2"/>
<circle clip-path="url(#clip332)" cx="442.474" cy="915.994" r="14.4" fill="#009af9" fill-rule="evenodd" fill-opacity="1" stroke="#000000" stroke-opacity="1" stroke-width="3.2"/>
<circle clip-path="url(#clip332)" cx="463.015" cy="844.783" r="14.4" fill="#009af9" fill-rule="evenodd" fill-opacity="1" stroke="#000000" stroke-opacity="1" stroke-width="3.2"/>
<circle clip-path="url(#clip332)" cx="483.555" cy="885.163" r="14.4" fill="#009af9" fill-rule="evenodd" fill-opacity="1" stroke="#000000" stroke-opacity="1" stroke-width="3.2"/>
<circle clip-path="url(#clip332)" cx="504.096" cy="1029.78" r="14.4" fill="#009af9" fill-rule="evenodd" fill-opacity="1" stroke="#000000" stroke-opacity="1" stroke-width="3.2"/>
<circle clip-path="url(#clip332)" cx="524.637" cy="867.933" r="14.4" fill="#009af9" fill-rule="evenodd" fill-opacity="1" stroke="#000000" stroke-opacity="1" stroke-width="3.2"/>
<circle clip-path="url(#clip332)" cx="545.177" cy="876.908" r="14.4" fill="#009af9" fill-rule="evenodd" fill-opacity="1" stroke="#000000" stroke-opacity="1" stroke-width="3.2"/>
<circle clip-path="url(#clip332)" cx="565.718" cy="1313.91" r="14.4" fill="#009af9" fill-rule="evenodd" fill-opacity="1" stroke="#000000" stroke-opacity="1" stroke-width="3.2"/>
<circle clip-path="url(#clip332)" cx="586.259" cy="1082.46" r="14.4" fill="#009af9" fill-rule="evenodd" fill-opacity="1" stroke="#000000" stroke-opacity="1" stroke-width="3.2"/>
<circle clip-path="url(#clip332)" cx="606.799" cy="935.422" r="14.4" fill="#009af9" fill-rule="evenodd" fill-opacity="1" stroke="#000000" stroke-opacity="1" stroke-width="3.2"/>
<circle clip-path="url(#clip332)" cx="627.34" cy="1371.58" r="14.4" fill="#009af9" fill-rule="evenodd" fill-opacity="1" stroke="#000000" stroke-opacity="1" stroke-width="3.2"/>
<circle clip-path="url(#clip332)" cx="647.881" cy="1233.8" r="14.4" fill="#009af9" fill-rule="evenodd" fill-opacity="1" stroke="#000000" stroke-opacity="1" stroke-width="3.2"/>
<circle clip-path="url(#clip332)" cx="668.421" cy="1009.95" r="14.4" fill="#009af9" fill-rule="evenodd" fill-opacity="1" stroke="#000000" stroke-opacity="1" stroke-width="3.2"/>
<circle clip-path="url(#clip332)" cx="688.962" cy="1374.84" r="14.4" fill="#009af9" fill-rule="evenodd" fill-opacity="1" stroke="#000000" stroke-opacity="1" stroke-width="3.2"/>
<circle clip-path="url(#clip332)" cx="709.503" cy="1231.87" r="14.4" fill="#009af9" fill-rule="evenodd" fill-opacity="1" stroke="#000000" stroke-opacity="1" stroke-width="3.2"/>
<circle clip-path="url(#clip332)" cx="730.043" cy="861.718" r="14.4" fill="#009af9" fill-rule="evenodd" fill-opacity="1" stroke="#000000" stroke-opacity="1" stroke-width="3.2"/>
<circle clip-path="url(#clip332)" cx="750.584" cy="1384.24" r="14.4" fill="#009af9" fill-rule="evenodd" fill-opacity="1" stroke="#000000" stroke-opacity="1" stroke-width="3.2"/>
<circle clip-path="url(#clip332)" cx="771.125" cy="984.208" r="14.4" fill="#009af9" fill-rule="evenodd" fill-opacity="1" stroke="#000000" stroke-opacity="1" stroke-width="3.2"/>
<circle clip-path="url(#clip332)" cx="791.665" cy="950.032" r="14.4" fill="#009af9" fill-rule="evenodd" fill-opacity="1" stroke="#000000" stroke-opacity="1" stroke-width="3.2"/>
<circle clip-path="url(#clip332)" cx="812.206" cy="1040.03" r="14.4" fill="#009af9" fill-rule="evenodd" fill-opacity="1" stroke="#000000" stroke-opacity="1" stroke-width="3.2"/>
<circle clip-path="url(#clip332)" cx="832.747" cy="734.754" r="14.4" fill="#009af9" fill-rule="evenodd" fill-opacity="1" stroke="#000000" stroke-opacity="1" stroke-width="3.2"/>
<circle clip-path="url(#clip332)" cx="853.287" cy="1014.7" r="14.4" fill="#009af9" fill-rule="evenodd" fill-opacity="1" stroke="#000000" stroke-opacity="1" stroke-width="3.2"/>
<circle clip-path="url(#clip332)" cx="873.828" cy="1180.41" r="14.4" fill="#009af9" fill-rule="evenodd" fill-opacity="1" stroke="#000000" stroke-opacity="1" stroke-width="3.2"/>
<circle clip-path="url(#clip332)" cx="894.369" cy="936.601" r="14.4" fill="#009af9" fill-rule="evenodd" fill-opacity="1" stroke="#000000" stroke-opacity="1" stroke-width="3.2"/>
<circle clip-path="url(#clip332)" cx="914.909" cy="950.782" r="14.4" fill="#009af9" fill-rule="evenodd" fill-opacity="1" stroke="#000000" stroke-opacity="1" stroke-width="3.2"/>
<circle clip-path="url(#clip332)" cx="935.45" cy="1234.91" r="14.4" fill="#009af9" fill-rule="evenodd" fill-opacity="1" stroke="#000000" stroke-opacity="1" stroke-width="3.2"/>
<circle clip-path="url(#clip332)" cx="955.991" cy="1174" r="14.4" fill="#009af9" fill-rule="evenodd" fill-opacity="1" stroke="#000000" stroke-opacity="1" stroke-width="3.2"/>
<circle clip-path="url(#clip332)" cx="976.531" cy="1080.83" r="14.4" fill="#009af9" fill-rule="evenodd" fill-opacity="1" stroke="#000000" stroke-opacity="1" stroke-width="3.2"/>
<circle clip-path="url(#clip332)" cx="997.072" cy="1036.67" r="14.4" fill="#009af9" fill-rule="evenodd" fill-opacity="1" stroke="#000000" stroke-opacity="1" stroke-width="3.2"/>
<circle clip-path="url(#clip332)" cx="1017.61" cy="1219.71" r="14.4" fill="#009af9" fill-rule="evenodd" fill-opacity="1" stroke="#000000" stroke-opacity="1" stroke-width="3.2"/>
<circle clip-path="url(#clip332)" cx="1038.15" cy="1123.21" r="14.4" fill="#009af9" fill-rule="evenodd" fill-opacity="1" stroke="#000000" stroke-opacity="1" stroke-width="3.2"/>
<circle clip-path="url(#clip332)" cx="1058.69" cy="956.177" r="14.4" fill="#009af9" fill-rule="evenodd" fill-opacity="1" stroke="#000000" stroke-opacity="1" stroke-width="3.2"/>
<circle clip-path="url(#clip332)" cx="1079.23" cy="1206.84" r="14.4" fill="#009af9" fill-rule="evenodd" fill-opacity="1" stroke="#000000" stroke-opacity="1" stroke-width="3.2"/>
<circle clip-path="url(#clip332)" cx="1099.78" cy="1027.66" r="14.4" fill="#009af9" fill-rule="evenodd" fill-opacity="1" stroke="#000000" stroke-opacity="1" stroke-width="3.2"/>
<circle clip-path="url(#clip332)" cx="1120.32" cy="941.266" r="14.4" fill="#009af9" fill-rule="evenodd" fill-opacity="1" stroke="#000000" stroke-opacity="1" stroke-width="3.2"/>
<circle clip-path="url(#clip332)" cx="1140.86" cy="1128.55" r="14.4" fill="#009af9" fill-rule="evenodd" fill-opacity="1" stroke="#000000" stroke-opacity="1" stroke-width="3.2"/>
<circle clip-path="url(#clip332)" cx="1161.4" cy="650.892" r="14.4" fill="#009af9" fill-rule="evenodd" fill-opacity="1" stroke="#000000" stroke-opacity="1" stroke-width="3.2"/>
<circle clip-path="url(#clip332)" cx="1181.94" cy="754.562" r="14.4" fill="#009af9" fill-rule="evenodd" fill-opacity="1" stroke="#000000" stroke-opacity="1" stroke-width="3.2"/>
<circle clip-path="url(#clip332)" cx="1202.48" cy="1114.2" r="14.4" fill="#009af9" fill-rule="evenodd" fill-opacity="1" stroke="#000000" stroke-opacity="1" stroke-width="3.2"/>
<circle clip-path="url(#clip332)" cx="1223.02" cy="948.824" r="14.4" fill="#009af9" fill-rule="evenodd" fill-opacity="1" stroke="#000000" stroke-opacity="1" stroke-width="3.2"/>
<circle clip-path="url(#clip332)" cx="1243.56" cy="663.105" r="14.4" fill="#009af9" fill-rule="evenodd" fill-opacity="1" stroke="#000000" stroke-opacity="1" stroke-width="3.2"/>
<circle clip-path="url(#clip332)" cx="1264.1" cy="968.239" r="14.4" fill="#009af9" fill-rule="evenodd" fill-opacity="1" stroke="#000000" stroke-opacity="1" stroke-width="3.2"/>
<circle clip-path="url(#clip332)" cx="1284.64" cy="706.667" r="14.4" fill="#009af9" fill-rule="evenodd" fill-opacity="1" stroke="#000000" stroke-opacity="1" stroke-width="3.2"/>
<circle clip-path="url(#clip332)" cx="1305.18" cy="1047.12" r="14.4" fill="#009af9" fill-rule="evenodd" fill-opacity="1" stroke="#000000" stroke-opacity="1" stroke-width="3.2"/>
<circle clip-path="url(#clip332)" cx="1325.72" cy="511.279" r="14.4" fill="#009af9" fill-rule="evenodd" fill-opacity="1" stroke="#000000" stroke-opacity="1" stroke-width="3.2"/>
<circle clip-path="url(#clip332)" cx="1346.26" cy="756.738" r="14.4" fill="#009af9" fill-rule="evenodd" fill-opacity="1" stroke="#000000" stroke-opacity="1" stroke-width="3.2"/>
<circle clip-path="url(#clip332)" cx="1366.8" cy="763.925" r="14.4" fill="#009af9" fill-rule="evenodd" fill-opacity="1" stroke="#000000" stroke-opacity="1" stroke-width="3.2"/>
<circle clip-path="url(#clip332)" cx="1387.34" cy="616.522" r="14.4" fill="#009af9" fill-rule="evenodd" fill-opacity="1" stroke="#000000" stroke-opacity="1" stroke-width="3.2"/>
<circle clip-path="url(#clip332)" cx="1407.89" cy="640.272" r="14.4" fill="#009af9" fill-rule="evenodd" fill-opacity="1" stroke="#000000" stroke-opacity="1" stroke-width="3.2"/>
<circle clip-path="url(#clip332)" cx="1428.43" cy="714.151" r="14.4" fill="#009af9" fill-rule="evenodd" fill-opacity="1" stroke="#000000" stroke-opacity="1" stroke-width="3.2"/>
<circle clip-path="url(#clip332)" cx="1448.97" cy="840.88" r="14.4" fill="#009af9" fill-rule="evenodd" fill-opacity="1" stroke="#000000" stroke-opacity="1" stroke-width="3.2"/>
<circle clip-path="url(#clip332)" cx="1469.51" cy="898.825" r="14.4" fill="#009af9" fill-rule="evenodd" fill-opacity="1" stroke="#000000" stroke-opacity="1" stroke-width="3.2"/>
<circle clip-path="url(#clip332)" cx="1490.05" cy="561.223" r="14.4" fill="#009af9" fill-rule="evenodd" fill-opacity="1" stroke="#000000" stroke-opacity="1" stroke-width="3.2"/>
<circle clip-path="url(#clip332)" cx="1510.59" cy="953.122" r="14.4" fill="#009af9" fill-rule="evenodd" fill-opacity="1" stroke="#000000" stroke-opacity="1" stroke-width="3.2"/>
<circle clip-path="url(#clip332)" cx="1531.13" cy="653.816" r="14.4" fill="#009af9" fill-rule="evenodd" fill-opacity="1" stroke="#000000" stroke-opacity="1" stroke-width="3.2"/>
<circle clip-path="url(#clip332)" cx="1551.67" cy="756.986" r="14.4" fill="#009af9" fill-rule="evenodd" fill-opacity="1" stroke="#000000" stroke-opacity="1" stroke-width="3.2"/>
<circle clip-path="url(#clip332)" cx="1572.21" cy="1052.16" r="14.4" fill="#009af9" fill-rule="evenodd" fill-opacity="1" stroke="#000000" stroke-opacity="1" stroke-width="3.2"/>
<circle clip-path="url(#clip332)" cx="1592.75" cy="976.407" r="14.4" fill="#009af9" fill-rule="evenodd" fill-opacity="1" stroke="#000000" stroke-opacity="1" stroke-width="3.2"/>
<circle clip-path="url(#clip332)" cx="1613.29" cy="709.101" r="14.4" fill="#009af9" fill-rule="evenodd" fill-opacity="1" stroke="#000000" stroke-opacity="1" stroke-width="3.2"/>
<circle clip-path="url(#clip332)" cx="1633.83" cy="873.47" r="14.4" fill="#009af9" fill-rule="evenodd" fill-opacity="1" stroke="#000000" stroke-opacity="1" stroke-width="3.2"/>
<circle clip-path="url(#clip332)" cx="1654.37" cy="834.685" r="14.4" fill="#009af9" fill-rule="evenodd" fill-opacity="1" stroke="#000000" stroke-opacity="1" stroke-width="3.2"/>
<circle clip-path="url(#clip332)" cx="1674.91" cy="925.13" r="14.4" fill="#009af9" fill-rule="evenodd" fill-opacity="1" stroke="#000000" stroke-opacity="1" stroke-width="3.2"/>
<circle clip-path="url(#clip332)" cx="1695.45" cy="969.959" r="14.4" fill="#009af9" fill-rule="evenodd" fill-opacity="1" stroke="#000000" stroke-opacity="1" stroke-width="3.2"/>
<circle clip-path="url(#clip332)" cx="1716" cy="936.485" r="14.4" fill="#009af9" fill-rule="evenodd" fill-opacity="1" stroke="#000000" stroke-opacity="1" stroke-width="3.2"/>
<circle clip-path="url(#clip332)" cx="1736.54" cy="755.013" r="14.4" fill="#009af9" fill-rule="evenodd" fill-opacity="1" stroke="#000000" stroke-opacity="1" stroke-width="3.2"/>
<circle clip-path="url(#clip332)" cx="1757.08" cy="640.433" r="14.4" fill="#009af9" fill-rule="evenodd" fill-opacity="1" stroke="#000000" stroke-opacity="1" stroke-width="3.2"/>
<circle clip-path="url(#clip332)" cx="1777.62" cy="703.768" r="14.4" fill="#009af9" fill-rule="evenodd" fill-opacity="1" stroke="#000000" stroke-opacity="1" stroke-width="3.2"/>
<circle clip-path="url(#clip332)" cx="1798.16" cy="770.669" r="14.4" fill="#009af9" fill-rule="evenodd" fill-opacity="1" stroke="#000000" stroke-opacity="1" stroke-width="3.2"/>
<circle clip-path="url(#clip332)" cx="1818.7" cy="166.483" r="14.4" fill="#009af9" fill-rule="evenodd" fill-opacity="1" stroke="#000000" stroke-opacity="1" stroke-width="3.2"/>
<circle clip-path="url(#clip332)" cx="1839.24" cy="882.774" r="14.4" fill="#009af9" fill-rule="evenodd" fill-opacity="1" stroke="#000000" stroke-opacity="1" stroke-width="3.2"/>
<circle clip-path="url(#clip332)" cx="1859.78" cy="882.794" r="14.4" fill="#009af9" fill-rule="evenodd" fill-opacity="1" stroke="#000000" stroke-opacity="1" stroke-width="3.2"/>
<circle clip-path="url(#clip332)" cx="1880.32" cy="862.3" r="14.4" fill="#009af9" fill-rule="evenodd" fill-opacity="1" stroke="#000000" stroke-opacity="1" stroke-width="3.2"/>
<circle clip-path="url(#clip332)" cx="1900.86" cy="593.485" r="14.4" fill="#009af9" fill-rule="evenodd" fill-opacity="1" stroke="#000000" stroke-opacity="1" stroke-width="3.2"/>
<circle clip-path="url(#clip332)" cx="1921.4" cy="726.797" r="14.4" fill="#009af9" fill-rule="evenodd" fill-opacity="1" stroke="#000000" stroke-opacity="1" stroke-width="3.2"/>
<circle clip-path="url(#clip332)" cx="1941.94" cy="821.416" r="14.4" fill="#009af9" fill-rule="evenodd" fill-opacity="1" stroke="#000000" stroke-opacity="1" stroke-width="3.2"/>
<circle clip-path="url(#clip332)" cx="1962.48" cy="611.267" r="14.4" fill="#009af9" fill-rule="evenodd" fill-opacity="1" stroke="#000000" stroke-opacity="1" stroke-width="3.2"/>
<circle clip-path="url(#clip332)" cx="1983.02" cy="860.948" r="14.4" fill="#009af9" fill-rule="evenodd" fill-opacity="1" stroke="#000000" stroke-opacity="1" stroke-width="3.2"/>
<circle clip-path="url(#clip332)" cx="2003.56" cy="740.298" r="14.4" fill="#009af9" fill-rule="evenodd" fill-opacity="1" stroke="#000000" stroke-opacity="1" stroke-width="3.2"/>
<circle clip-path="url(#clip332)" cx="2024.11" cy="662.738" r="14.4" fill="#009af9" fill-rule="evenodd" fill-opacity="1" stroke="#000000" stroke-opacity="1" stroke-width="3.2"/>
<circle clip-path="url(#clip332)" cx="2044.65" cy="348.231" r="14.4" fill="#009af9" fill-rule="evenodd" fill-opacity="1" stroke="#000000" stroke-opacity="1" stroke-width="3.2"/>
<circle clip-path="url(#clip332)" cx="2065.19" cy="376.812" r="14.4" fill="#009af9" fill-rule="evenodd" fill-opacity="1" stroke="#000000" stroke-opacity="1" stroke-width="3.2"/>
<circle clip-path="url(#clip332)" cx="2085.73" cy="825.531" r="14.4" fill="#009af9" fill-rule="evenodd" fill-opacity="1" stroke="#000000" stroke-opacity="1" stroke-width="3.2"/>
<circle clip-path="url(#clip332)" cx="2106.27" cy="574.69" r="14.4" fill="#009af9" fill-rule="evenodd" fill-opacity="1" stroke="#000000" stroke-opacity="1" stroke-width="3.2"/>
<circle clip-path="url(#clip332)" cx="2126.81" cy="86.1857" r="14.4" fill="#009af9" fill-rule="evenodd" fill-opacity="1" stroke="#000000" stroke-opacity="1" stroke-width="3.2"/>
<circle clip-path="url(#clip332)" cx="2147.35" cy="514.944" r="14.4" fill="#009af9" fill-rule="evenodd" fill-opacity="1" stroke="#000000" stroke-opacity="1" stroke-width="3.2"/>
<circle clip-path="url(#clip332)" cx="2167.89" cy="443.956" r="14.4" fill="#009af9" fill-rule="evenodd" fill-opacity="1" stroke="#000000" stroke-opacity="1" stroke-width="3.2"/>
<circle clip-path="url(#clip332)" cx="2188.43" cy="392.018" r="14.4" fill="#009af9" fill-rule="evenodd" fill-opacity="1" stroke="#000000" stroke-opacity="1" stroke-width="3.2"/>
<circle clip-path="url(#clip332)" cx="2208.97" cy="538.356" r="14.4" fill="#009af9" fill-rule="evenodd" fill-opacity="1" stroke="#000000" stroke-opacity="1" stroke-width="3.2"/>
<circle clip-path="url(#clip332)" cx="2229.51" cy="345.451" r="14.4" fill="#009af9" fill-rule="evenodd" fill-opacity="1" stroke="#000000" stroke-opacity="1" stroke-width="3.2"/>
<circle clip-path="url(#clip332)" cx="2250.05" cy="698.71" r="14.4" fill="#009af9" fill-rule="evenodd" fill-opacity="1" stroke="#000000" stroke-opacity="1" stroke-width="3.2"/>
<circle clip-path="url(#clip332)" cx="2270.59" cy="260.285" r="14.4" fill="#009af9" fill-rule="evenodd" fill-opacity="1" stroke="#000000" stroke-opacity="1" stroke-width="3.2"/>
<circle clip-path="url(#clip332)" cx="2291.13" cy="223.357" r="14.4" fill="#009af9" fill-rule="evenodd" fill-opacity="1" stroke="#000000" stroke-opacity="1" stroke-width="3.2"/>
<path clip-path="url(#clip330)" d="
M1938.39 196.789 L2280.18 196.789 L2280.18 93.1086 L1938.39 93.1086  Z
  " fill="#ffffff" fill-rule="evenodd" fill-opacity="1"/>
<polyline clip-path="url(#clip330)" style="stroke:#000000; stroke-linecap:butt; stroke-linejoin:round; stroke-width:4; stroke-opacity:1; fill:none" points="
  1938.39,196.789 2280.18,196.789 2280.18,93.1086 1938.39,93.1086 1938.39,196.789 
  "/>
<circle clip-path="url(#clip330)" cx="2035.16" cy="144.949" r="23.04" fill="#009af9" fill-rule="evenodd" fill-opacity="1" stroke="#000000" stroke-opacity="1" stroke-width="5.12"/>
<path clip-path="url(#clip330)" d="M2150.85 140.238 L2150.85 126.21 L2155.1 126.21 L2155.1 162.229 L2150.85 162.229 L2150.85 158.34 Q2149.5 160.655 2147.44 161.789 Q2145.41 162.9 2142.54 162.9 Q2137.84 162.9 2134.87 159.15 Q2131.93 155.4 2131.93 149.289 Q2131.93 143.178 2134.87 139.428 Q2137.84 135.678 2142.54 135.678 Q2145.41 135.678 2147.44 136.812 Q2149.5 137.923 2150.85 140.238 M2136.33 149.289 Q2136.33 153.988 2138.25 156.673 Q2140.2 159.335 2143.58 159.335 Q2146.96 159.335 2148.9 156.673 Q2150.85 153.988 2150.85 149.289 Q2150.85 144.59 2148.9 141.928 Q2146.96 139.243 2143.58 139.243 Q2140.2 139.243 2138.25 141.928 Q2136.33 144.59 2136.33 149.289 Z" fill="#000000" fill-rule="evenodd" fill-opacity="1" /><path clip-path="url(#clip330)" d="M2175.66 149.196 Q2170.5 149.196 2168.51 150.377 Q2166.52 151.557 2166.52 154.405 Q2166.52 156.673 2168 158.016 Q2169.5 159.335 2172.07 159.335 Q2175.61 159.335 2177.74 156.835 Q2179.9 154.312 2179.9 150.145 L2179.9 149.196 L2175.66 149.196 M2184.16 147.437 L2184.16 162.229 L2179.9 162.229 L2179.9 158.293 Q2178.44 160.655 2176.26 161.789 Q2174.09 162.9 2170.94 162.9 Q2166.96 162.9 2164.6 160.678 Q2162.26 158.432 2162.26 154.682 Q2162.26 150.307 2165.17 148.085 Q2168.11 145.863 2173.92 145.863 L2179.9 145.863 L2179.9 145.446 Q2179.9 142.507 2177.95 140.909 Q2176.03 139.289 2172.54 139.289 Q2170.31 139.289 2168.21 139.821 Q2166.1 140.354 2164.16 141.419 L2164.16 137.483 Q2166.49 136.581 2168.69 136.141 Q2170.89 135.678 2172.98 135.678 Q2178.6 135.678 2181.38 138.594 Q2184.16 141.511 2184.16 147.437 Z" fill="#000000" fill-rule="evenodd" fill-opacity="1" /><path clip-path="url(#clip330)" d="M2197.14 128.942 L2197.14 136.303 L2205.91 136.303 L2205.91 139.613 L2197.14 139.613 L2197.14 153.687 Q2197.14 156.858 2198 157.761 Q2198.88 158.664 2201.54 158.664 L2205.91 158.664 L2205.91 162.229 L2201.54 162.229 Q2196.61 162.229 2194.73 160.4 Q2192.86 158.548 2192.86 153.687 L2192.86 139.613 L2189.73 139.613 L2189.73 136.303 L2192.86 136.303 L2192.86 128.942 L2197.14 128.942 Z" fill="#000000" fill-rule="evenodd" fill-opacity="1" /><path clip-path="url(#clip330)" d="M2223.3 149.196 Q2218.14 149.196 2216.15 150.377 Q2214.16 151.557 2214.16 154.405 Q2214.16 156.673 2215.64 158.016 Q2217.14 159.335 2219.71 159.335 Q2223.25 159.335 2225.38 156.835 Q2227.53 154.312 2227.53 150.145 L2227.53 149.196 L2223.3 149.196 M2231.79 147.437 L2231.79 162.229 L2227.53 162.229 L2227.53 158.293 Q2226.08 160.655 2223.9 161.789 Q2221.72 162.9 2218.58 162.9 Q2214.6 162.9 2212.23 160.678 Q2209.9 158.432 2209.9 154.682 Q2209.9 150.307 2212.81 148.085 Q2215.75 145.863 2221.56 145.863 L2227.53 145.863 L2227.53 145.446 Q2227.53 142.507 2225.59 140.909 Q2223.67 139.289 2220.17 139.289 Q2217.95 139.289 2215.85 139.821 Q2213.74 140.354 2211.79 141.419 L2211.79 137.483 Q2214.13 136.581 2216.33 136.141 Q2218.53 135.678 2220.61 135.678 Q2226.24 135.678 2229.02 138.594 Q2231.79 141.511 2231.79 147.437 Z" fill="#000000" fill-rule="evenodd" fill-opacity="1" /></svg>
