<?xml version="1.0" encoding="utf-8"?>
<svg xmlns="http://www.w3.org/2000/svg" xmlns:xlink="http://www.w3.org/1999/xlink" width="600" height="400" viewBox="0 0 2400 1600">
<defs>
  <clipPath id="clip110">
    <rect x="0" y="0" width="2400" height="1600"/>
  </clipPath>
</defs>
<path clip-path="url(#clip110)" d="
M0 1600 L2400 1600 L2400 0 L0 0  Z
  " fill="#ffffff" fill-rule="evenodd" fill-opacity="1"/>
<defs>
  <clipPath id="clip111">
    <rect x="480" y="0" width="1681" height="1600"/>
  </clipPath>
</defs>
<path clip-path="url(#clip110)" d="
M175.445 1423.18 L2352.76 1423.18 L2352.76 47.2441 L175.445 47.2441  Z
  " fill="#ffffff" fill-rule="evenodd" fill-opacity="1"/>
<defs>
  <clipPath id="clip112">
    <rect x="175" y="47" width="2178" height="1377"/>
  </clipPath>
</defs>
<polyline clip-path="url(#clip112)" style="stroke:#000000; stroke-linecap:butt; stroke-linejoin:round; stroke-width:2; stroke-opacity:0.1; fill:none" points="
  237.067,1423.18 237.067,47.2441 
  "/>
<polyline clip-path="url(#clip112)" style="stroke:#000000; stroke-linecap:butt; stroke-linejoin:round; stroke-width:2; stroke-opacity:0.1; fill:none" points="
  750.584,1423.18 750.584,47.2441 
  "/>
<polyline clip-path="url(#clip112)" style="stroke:#000000; stroke-linecap:butt; stroke-linejoin:round; stroke-width:2; stroke-opacity:0.1; fill:none" points="
  1264.1,1423.18 1264.1,47.2441 
  "/>
<polyline clip-path="url(#clip112)" style="stroke:#000000; stroke-linecap:butt; stroke-linejoin:round; stroke-width:2; stroke-opacity:0.1; fill:none" points="
  1777.62,1423.18 1777.62,47.2441 
  "/>
<polyline clip-path="url(#clip112)" style="stroke:#000000; stroke-linecap:butt; stroke-linejoin:round; stroke-width:2; stroke-opacity:0.1; fill:none" points="
  2291.13,1423.18 2291.13,47.2441 
  "/>
<polyline clip-path="url(#clip110)" style="stroke:#000000; stroke-linecap:butt; stroke-linejoin:round; stroke-width:4; stroke-opacity:1; fill:none" points="
  175.445,1423.18 2352.76,1423.18 
  "/>
<polyline clip-path="url(#clip110)" style="stroke:#000000; stroke-linecap:butt; stroke-linejoin:round; stroke-width:4; stroke-opacity:1; fill:none" points="
  237.067,1423.18 237.067,1404.28 
  "/>
<polyline clip-path="url(#clip110)" style="stroke:#000000; stroke-linecap:butt; stroke-linejoin:round; stroke-width:4; stroke-opacity:1; fill:none" points="
  750.584,1423.18 750.584,1404.28 
  "/>
<polyline clip-path="url(#clip110)" style="stroke:#000000; stroke-linecap:butt; stroke-linejoin:round; stroke-width:4; stroke-opacity:1; fill:none" points="
  1264.1,1423.18 1264.1,1404.28 
  "/>
<polyline clip-path="url(#clip110)" style="stroke:#000000; stroke-linecap:butt; stroke-linejoin:round; stroke-width:4; stroke-opacity:1; fill:none" points="
  1777.62,1423.18 1777.62,1404.28 
  "/>
<polyline clip-path="url(#clip110)" style="stroke:#000000; stroke-linecap:butt; stroke-linejoin:round; stroke-width:4; stroke-opacity:1; fill:none" points="
  2291.13,1423.18 2291.13,1404.28 
  "/>
<path clip-path="url(#clip110)" d="M237.067 1454.1 Q233.456 1454.1 231.627 1457.66 Q229.822 1461.2 229.822 1468.33 Q229.822 1475.44 231.627 1479.01 Q233.456 1482.55 237.067 1482.55 Q240.701 1482.55 242.507 1479.01 Q244.336 1475.44 244.336 1468.33 Q244.336 1461.2 242.507 1457.66 Q240.701 1454.1 237.067 1454.1 M237.067 1450.39 Q242.877 1450.39 245.933 1455 Q249.012 1459.58 249.012 1468.33 Q249.012 1477.06 245.933 1481.67 Q242.877 1486.25 237.067 1486.25 Q231.257 1486.25 228.178 1481.67 Q225.123 1477.06 225.123 1468.33 Q225.123 1459.58 228.178 1455 Q231.257 1450.39 237.067 1450.39 Z" fill="#000000" fill-rule="evenodd" fill-opacity="1" /><path clip-path="url(#clip110)" d="M729.855 1481.64 L746.174 1481.64 L746.174 1485.58 L724.23 1485.58 L724.23 1481.64 Q726.892 1478.89 731.475 1474.26 Q736.082 1469.61 737.262 1468.27 Q739.508 1465.74 740.387 1464.01 Q741.29 1462.25 741.29 1460.56 Q741.29 1457.8 739.346 1456.07 Q737.424 1454.33 734.322 1454.33 Q732.123 1454.33 729.67 1455.09 Q727.239 1455.86 724.461 1457.41 L724.461 1452.69 Q727.285 1451.55 729.739 1450.97 Q732.193 1450.39 734.23 1450.39 Q739.6 1450.39 742.795 1453.08 Q745.989 1455.77 745.989 1460.26 Q745.989 1462.39 745.179 1464.31 Q744.392 1466.2 742.285 1468.8 Q741.707 1469.47 738.605 1472.69 Q735.503 1475.88 729.855 1481.64 Z" fill="#000000" fill-rule="evenodd" fill-opacity="1" /><path clip-path="url(#clip110)" d="M756.035 1451.02 L774.392 1451.02 L774.392 1454.96 L760.318 1454.96 L760.318 1463.43 Q761.336 1463.08 762.355 1462.92 Q763.373 1462.73 764.392 1462.73 Q770.179 1462.73 773.558 1465.9 Q776.938 1469.08 776.938 1474.49 Q776.938 1480.07 773.466 1483.17 Q769.994 1486.25 763.674 1486.25 Q761.498 1486.25 759.23 1485.88 Q756.984 1485.51 754.577 1484.77 L754.577 1480.07 Q756.66 1481.2 758.882 1481.76 Q761.105 1482.32 763.581 1482.32 Q767.586 1482.32 769.924 1480.21 Q772.262 1478.1 772.262 1474.49 Q772.262 1470.88 769.924 1468.77 Q767.586 1466.67 763.581 1466.67 Q761.707 1466.67 759.832 1467.08 Q757.98 1467.5 756.035 1468.38 L756.035 1451.02 Z" fill="#000000" fill-rule="evenodd" fill-opacity="1" /><path clip-path="url(#clip110)" d="M1238.8 1451.02 L1257.16 1451.02 L1257.16 1454.96 L1243.08 1454.96 L1243.08 1463.43 Q1244.1 1463.08 1245.12 1462.92 Q1246.14 1462.73 1247.16 1462.73 Q1252.94 1462.73 1256.32 1465.9 Q1259.7 1469.08 1259.7 1474.49 Q1259.7 1480.07 1256.23 1483.17 Q1252.76 1486.25 1246.44 1486.25 Q1244.26 1486.25 1241.99 1485.88 Q1239.75 1485.51 1237.34 1484.77 L1237.34 1480.07 Q1239.42 1481.2 1241.65 1481.76 Q1243.87 1482.32 1246.35 1482.32 Q1250.35 1482.32 1252.69 1480.21 Q1255.03 1478.1 1255.03 1474.49 Q1255.03 1470.88 1252.69 1468.77 Q1250.35 1466.67 1246.35 1466.67 Q1244.47 1466.67 1242.6 1467.08 Q1240.74 1467.5 1238.8 1468.38 L1238.8 1451.02 Z" fill="#000000" fill-rule="evenodd" fill-opacity="1" /><path clip-path="url(#clip110)" d="M1278.92 1454.1 Q1275.3 1454.1 1273.48 1457.66 Q1271.67 1461.2 1271.67 1468.33 Q1271.67 1475.44 1273.48 1479.01 Q1275.3 1482.55 1278.92 1482.55 Q1282.55 1482.55 1284.36 1479.01 Q1286.18 1475.44 1286.18 1468.33 Q1286.18 1461.2 1284.36 1457.66 Q1282.55 1454.1 1278.92 1454.1 M1278.92 1450.39 Q1284.73 1450.39 1287.78 1455 Q1290.86 1459.58 1290.86 1468.33 Q1290.86 1477.06 1287.78 1481.67 Q1284.73 1486.25 1278.92 1486.25 Q1273.11 1486.25 1270.03 1481.67 Q1266.97 1477.06 1266.97 1468.33 Q1266.97 1459.58 1270.03 1455 Q1273.11 1450.39 1278.92 1450.39 Z" fill="#000000" fill-rule="evenodd" fill-opacity="1" /><path clip-path="url(#clip110)" d="M1751.47 1451.02 L1773.69 1451.02 L1773.69 1453.01 L1761.15 1485.58 L1756.26 1485.58 L1768.07 1454.96 L1751.47 1454.96 L1751.47 1451.02 Z" fill="#000000" fill-rule="evenodd" fill-opacity="1" /><path clip-path="url(#clip110)" d="M1782.86 1451.02 L1801.22 1451.02 L1801.22 1454.96 L1787.14 1454.96 L1787.14 1463.43 Q1788.16 1463.08 1789.18 1462.92 Q1790.2 1462.73 1791.22 1462.73 Q1797 1462.73 1800.38 1465.9 Q1803.76 1469.08 1803.76 1474.49 Q1803.76 1480.07 1800.29 1483.17 Q1796.82 1486.25 1790.5 1486.25 Q1788.32 1486.25 1786.05 1485.88 Q1783.81 1485.51 1781.4 1484.77 L1781.4 1480.07 Q1783.49 1481.2 1785.71 1481.76 Q1787.93 1482.32 1790.41 1482.32 Q1794.41 1482.32 1796.75 1480.21 Q1799.09 1478.1 1799.09 1474.49 Q1799.09 1470.88 1796.75 1468.77 Q1794.41 1466.67 1790.41 1466.67 Q1788.53 1466.67 1786.66 1467.08 Q1784.8 1467.5 1782.86 1468.38 L1782.86 1451.02 Z" fill="#000000" fill-rule="evenodd" fill-opacity="1" /><path clip-path="url(#clip110)" d="M2250.74 1481.64 L2258.38 1481.64 L2258.38 1455.28 L2250.07 1456.95 L2250.07 1452.69 L2258.33 1451.02 L2263.01 1451.02 L2263.01 1481.64 L2270.65 1481.64 L2270.65 1485.58 L2250.74 1485.58 L2250.74 1481.64 Z" fill="#000000" fill-rule="evenodd" fill-opacity="1" /><path clip-path="url(#clip110)" d="M2290.09 1454.1 Q2286.48 1454.1 2284.65 1457.66 Q2282.85 1461.2 2282.85 1468.33 Q2282.85 1475.44 2284.65 1479.01 Q2286.48 1482.55 2290.09 1482.55 Q2293.73 1482.55 2295.53 1479.01 Q2297.36 1475.44 2297.36 1468.33 Q2297.36 1461.2 2295.53 1457.66 Q2293.73 1454.1 2290.09 1454.1 M2290.09 1450.39 Q2295.9 1450.39 2298.96 1455 Q2302.04 1459.58 2302.04 1468.33 Q2302.04 1477.06 2298.96 1481.67 Q2295.9 1486.25 2290.09 1486.25 Q2284.28 1486.25 2281.2 1481.67 Q2278.15 1477.06 2278.15 1468.33 Q2278.15 1459.58 2281.2 1455 Q2284.28 1450.39 2290.09 1450.39 Z" fill="#000000" fill-rule="evenodd" fill-opacity="1" /><path clip-path="url(#clip110)" d="M2320.25 1454.1 Q2316.64 1454.1 2314.81 1457.66 Q2313.01 1461.2 2313.01 1468.33 Q2313.01 1475.44 2314.81 1479.01 Q2316.64 1482.55 2320.25 1482.55 Q2323.89 1482.55 2325.69 1479.01 Q2327.52 1475.44 2327.52 1468.33 Q2327.52 1461.2 2325.69 1457.66 Q2323.89 1454.1 2320.25 1454.1 M2320.25 1450.39 Q2326.06 1450.39 2329.12 1455 Q2332.2 1459.58 2332.2 1468.33 Q2332.2 1477.06 2329.12 1481.67 Q2326.06 1486.25 2320.25 1486.25 Q2314.44 1486.25 2311.37 1481.67 Q2308.31 1477.06 2308.31 1468.33 Q2308.31 1459.58 2311.37 1455 Q2314.44 1450.39 2320.25 1450.39 Z" fill="#000000" fill-rule="evenodd" fill-opacity="1" /><path clip-path="url(#clip110)" d="M1280.72 1532.4 L1267.82 1549.74 L1281.38 1568.04 L1274.48 1568.04 L1264.1 1554.04 L1253.72 1568.04 L1246.82 1568.04 L1260.66 1549.39 L1248 1532.4 L1254.9 1532.4 L1264.36 1545.1 L1273.81 1532.4 L1280.72 1532.4 Z" fill="#000000" fill-rule="evenodd" fill-opacity="1" /><polyline clip-path="url(#clip112)" style="stroke:#000000; stroke-linecap:butt; stroke-linejoin:round; stroke-width:2; stroke-opacity:0.1; fill:none" points="
  175.445,1415.26 2352.76,1415.26 
  "/>
<polyline clip-path="url(#clip112)" style="stroke:#000000; stroke-linecap:butt; stroke-linejoin:round; stroke-width:2; stroke-opacity:0.1; fill:none" points="
  175.445,1046.25 2352.76,1046.25 
  "/>
<polyline clip-path="url(#clip112)" style="stroke:#000000; stroke-linecap:butt; stroke-linejoin:round; stroke-width:2; stroke-opacity:0.1; fill:none" points="
  175.445,677.245 2352.76,677.245 
  "/>
<polyline clip-path="url(#clip112)" style="stroke:#000000; stroke-linecap:butt; stroke-linejoin:round; stroke-width:2; stroke-opacity:0.1; fill:none" points="
  175.445,308.237 2352.76,308.237 
  "/>
<polyline clip-path="url(#clip110)" style="stroke:#000000; stroke-linecap:butt; stroke-linejoin:round; stroke-width:4; stroke-opacity:1; fill:none" points="
  175.445,1423.18 175.445,47.2441 
  "/>
<polyline clip-path="url(#clip110)" style="stroke:#000000; stroke-linecap:butt; stroke-linejoin:round; stroke-width:4; stroke-opacity:1; fill:none" points="
  175.445,1415.26 194.343,1415.26 
  "/>
<polyline clip-path="url(#clip110)" style="stroke:#000000; stroke-linecap:butt; stroke-linejoin:round; stroke-width:4; stroke-opacity:1; fill:none" points="
  175.445,1046.25 194.343,1046.25 
  "/>
<polyline clip-path="url(#clip110)" style="stroke:#000000; stroke-linecap:butt; stroke-linejoin:round; stroke-width:4; stroke-opacity:1; fill:none" points="
  175.445,677.245 194.343,677.245 
  "/>
<polyline clip-path="url(#clip110)" style="stroke:#000000; stroke-linecap:butt; stroke-linejoin:round; stroke-width:4; stroke-opacity:1; fill:none" points="
  175.445,308.237 194.343,308.237 
  "/>
<path clip-path="url(#clip110)" d="M127.501 1401.06 Q123.89 1401.06 122.061 1404.62 Q120.255 1408.17 120.255 1415.3 Q120.255 1422.4 122.061 1425.97 Q123.89 1429.51 127.501 1429.51 Q131.135 1429.51 132.941 1425.97 Q134.769 1422.4 134.769 1415.3 Q134.769 1408.17 132.941 1404.62 Q131.135 1401.06 127.501 1401.06 M127.501 1397.36 Q133.311 1397.36 136.367 1401.96 Q139.445 1406.55 139.445 1415.3 Q139.445 1424.02 136.367 1428.63 Q133.311 1433.21 127.501 1433.21 Q121.691 1433.21 118.612 1428.63 Q115.556 1424.02 115.556 1415.3 Q115.556 1406.55 118.612 1401.96 Q121.691 1397.36 127.501 1397.36 Z" fill="#000000" fill-rule="evenodd" fill-opacity="1" /><path clip-path="url(#clip110)" d="M123.126 1059.6 L139.445 1059.6 L139.445 1063.53 L117.501 1063.53 L117.501 1059.6 Q120.163 1056.84 124.746 1052.21 Q129.353 1047.56 130.533 1046.22 Q132.779 1043.69 133.658 1041.96 Q134.561 1040.2 134.561 1038.51 Q134.561 1035.75 132.617 1034.02 Q130.695 1032.28 127.593 1032.28 Q125.394 1032.28 122.941 1033.05 Q120.51 1033.81 117.732 1035.36 L117.732 1030.64 Q120.556 1029.5 123.01 1028.93 Q125.464 1028.35 127.501 1028.35 Q132.871 1028.35 136.066 1031.03 Q139.26 1033.72 139.26 1038.21 Q139.26 1040.34 138.45 1042.26 Q137.663 1044.16 135.556 1046.75 Q134.978 1047.42 131.876 1050.64 Q128.774 1053.83 123.126 1059.6 Z" fill="#000000" fill-rule="evenodd" fill-opacity="1" /><path clip-path="url(#clip110)" d="M129.862 664.039 L118.056 682.488 L129.862 682.488 L129.862 664.039 M128.635 659.965 L134.515 659.965 L134.515 682.488 L139.445 682.488 L139.445 686.377 L134.515 686.377 L134.515 694.525 L129.862 694.525 L129.862 686.377 L114.26 686.377 L114.26 681.863 L128.635 659.965 Z" fill="#000000" fill-rule="evenodd" fill-opacity="1" /><path clip-path="url(#clip110)" d="M127.917 306.374 Q124.769 306.374 122.918 308.526 Q121.089 310.679 121.089 314.429 Q121.089 318.156 122.918 320.332 Q124.769 322.485 127.917 322.485 Q131.066 322.485 132.894 320.332 Q134.746 318.156 134.746 314.429 Q134.746 310.679 132.894 308.526 Q131.066 306.374 127.917 306.374 M137.2 291.721 L137.2 295.98 Q135.441 295.147 133.635 294.707 Q131.853 294.267 130.093 294.267 Q125.464 294.267 123.01 297.392 Q120.58 300.517 120.232 306.837 Q121.598 304.823 123.658 303.758 Q125.718 302.67 128.195 302.67 Q133.404 302.67 136.413 305.841 Q139.445 308.989 139.445 314.429 Q139.445 319.753 136.297 322.971 Q133.149 326.188 127.917 326.188 Q121.922 326.188 118.751 321.605 Q115.58 316.999 115.58 308.272 Q115.58 300.077 119.468 295.216 Q123.357 290.332 129.908 290.332 Q131.667 290.332 133.45 290.679 Q135.255 291.026 137.2 291.721 Z" fill="#000000" fill-rule="evenodd" fill-opacity="1" /><path clip-path="url(#clip110)" d="M67.3143 733.525 Q73.68 736.008 75.6216 738.363 Q77.5631 740.718 77.5631 744.665 L77.5631 749.344 L72.6615 749.344 L72.6615 745.906 Q72.6615 743.487 71.5157 742.151 Q70.3699 740.814 66.1048 739.191 L63.4312 738.14 L28.3562 752.559 L28.3562 746.352 L56.238 735.212 L28.3562 724.072 L28.3562 717.865 L67.3143 733.525 Z" fill="#000000" fill-rule="evenodd" fill-opacity="1" /><circle clip-path="url(#clip112)" cx="237.067" cy="859.783" r="14.4" fill="#009af9" fill-rule="evenodd" fill-opacity="1" stroke="#000000" stroke-opacity="1" stroke-width="3.2"/>
<circle clip-path="url(#clip112)" cx="257.608" cy="1220.94" r="14.4" fill="#009af9" fill-rule="evenodd" fill-opacity="1" stroke="#000000" stroke-opacity="1" stroke-width="3.2"/>
<circle clip-path="url(#clip112)" cx="278.149" cy="875.132" r="14.4" fill="#009af9" fill-rule="evenodd" fill-opacity="1" stroke="#000000" stroke-opacity="1" stroke-width="3.2"/>
<circle clip-path="url(#clip112)" cx="298.689" cy="1048.69" r="14.4" fill="#009af9" fill-rule="evenodd" fill-opacity="1" stroke="#000000" stroke-opacity="1" stroke-width="3.2"/>
<circle clip-path="url(#clip112)" cx="319.23" cy="1154.44" r="14.4" fill="#009af9" fill-rule="evenodd" fill-opacity="1" stroke="#000000" stroke-opacity="1" stroke-width="3.2"/>
<circle clip-path="url(#clip112)" cx="339.771" cy="1311.05" r="14.4" fill="#009af9" fill-rule="evenodd" fill-opacity="1" stroke="#000000" stroke-opacity="1" stroke-width="3.2"/>
<circle clip-path="url(#clip112)" cx="360.311" cy="545.542" r="14.4" fill="#009af9" fill-rule="evenodd" fill-opacity="1" stroke="#000000" stroke-opacity="1" stroke-width="3.2"/>
<circle clip-path="url(#clip112)" cx="380.852" cy="764.322" r="14.4" fill="#009af9" fill-rule="evenodd" fill-opacity="1" stroke="#000000" stroke-opacity="1" stroke-width="3.2"/>
<circle clip-path="url(#clip112)" cx="401.393" cy="905.771" r="14.4" fill="#009af9" fill-rule="evenodd" fill-opacity="1" stroke="#000000" stroke-opacity="1" stroke-width="3.2"/>
<circle clip-path="url(#clip112)" cx="421.933" cy="1208.81" r="14.4" fill="#009af9" fill-rule="evenodd" fill-opacity="1" stroke="#000000" stroke-opacity="1" stroke-width="3.2"/>
<circle clip-path="url(#clip112)" cx="442.474" cy="915.994" r="14.4" fill="#009af9" fill-rule="evenodd" fill-opacity="1" stroke="#000000" stroke-opacity="1" stroke-width="3.2"/>
<circle clip-path="url(#clip112)" cx="463.015" cy="844.783" r="14.4" fill="#009af9" fill-rule="evenodd" fill-opacity="1" stroke="#000000" stroke-opacity="1" stroke-width="3.2"/>
<circle clip-path="url(#clip112)" cx="483.555" cy="885.163" r="14.4" fill="#009af9" fill-rule="evenodd" fill-opacity="1" stroke="#000000" stroke-opacity="1" stroke-width="3.2"/>
<circle clip-path="url(#clip112)" cx="504.096" cy="1029.78" r="14.4" fill="#009af9" fill-rule="evenodd" fill-opacity="1" stroke="#000000" stroke-opacity="1" stroke-width="3.2"/>
<circle clip-path="url(#clip112)" cx="524.637" cy="867.933" r="14.4" fill="#009af9" fill-rule="evenodd" fill-opacity="1" stroke="#000000" stroke-opacity="1" stroke-width="3.2"/>
<circle clip-path="url(#clip112)" cx="545.177" cy="876.908" r="14.4" fill="#009af9" fill-rule="evenodd" fill-opacity="1" stroke="#000000" stroke-opacity="1" stroke-width="3.2"/>
<circle clip-path="url(#clip112)" cx="565.718" cy="1313.91" r="14.4" fill="#009af9" fill-rule="evenodd" fill-opacity="1" stroke="#000000" stroke-opacity="1" stroke-width="3.2"/>
<circle clip-path="url(#clip112)" cx="586.259" cy="1082.46" r="14.4" fill="#009af9" fill-rule="evenodd" fill-opacity="1" stroke="#000000" stroke-opacity="1" stroke-width="3.2"/>
<circle clip-path="url(#clip112)" cx="606.799" cy="935.422" r="14.4" fill="#009af9" fill-rule="evenodd" fill-opacity="1" stroke="#000000" stroke-opacity="1" stroke-width="3.2"/>
<circle clip-path="url(#clip112)" cx="627.34" cy="1371.58" r="14.4" fill="#009af9" fill-rule="evenodd" fill-opacity="1" stroke="#000000" stroke-opacity="1" stroke-width="3.2"/>
<circle clip-path="url(#clip112)" cx="647.881" cy="1233.8" r="14.4" fill="#009af9" fill-rule="evenodd" fill-opacity="1" stroke="#000000" stroke-opacity="1" stroke-width="3.2"/>
<circle clip-path="url(#clip112)" cx="668.421" cy="1009.95" r="14.4" fill="#009af9" fill-rule="evenodd" fill-opacity="1" stroke="#000000" stroke-opacity="1" stroke-width="3.2"/>
<circle clip-path="url(#clip112)" cx="688.962" cy="1374.84" r="14.4" fill="#009af9" fill-rule="evenodd" fill-opacity="1" stroke="#000000" stroke-opacity="1" stroke-width="3.2"/>
<circle clip-path="url(#clip112)" cx="709.503" cy="1231.87" r="14.4" fill="#009af9" fill-rule="evenodd" fill-opacity="1" stroke="#000000" stroke-opacity="1" stroke-width="3.2"/>
<circle clip-path="url(#clip112)" cx="730.043" cy="861.718" r="14.4" fill="#009af9" fill-rule="evenodd" fill-opacity="1" stroke="#000000" stroke-opacity="1" stroke-width="3.2"/>
<circle clip-path="url(#clip112)" cx="750.584" cy="1384.24" r="14.4" fill="#009af9" fill-rule="evenodd" fill-opacity="1" stroke="#000000" stroke-opacity="1" stroke-width="3.2"/>
<circle clip-path="url(#clip112)" cx="771.125" cy="984.208" r="14.4" fill="#009af9" fill-rule="evenodd" fill-opacity="1" stroke="#000000" stroke-opacity="1" stroke-width="3.2"/>
<circle clip-path="url(#clip112)" cx="791.665" cy="950.032" r="14.4" fill="#009af9" fill-rule="evenodd" fill-opacity="1" stroke="#000000" stroke-opacity="1" stroke-width="3.2"/>
<circle clip-path="url(#clip112)" cx="812.206" cy="1040.03" r="14.4" fill="#009af9" fill-rule="evenodd" fill-opacity="1" stroke="#000000" stroke-opacity="1" stroke-width="3.2"/>
<circle clip-path="url(#clip112)" cx="832.747" cy="734.754" r="14.4" fill="#009af9" fill-rule="evenodd" fill-opacity="1" stroke="#000000" stroke-opacity="1" stroke-width="3.2"/>
<circle clip-path="url(#clip112)" cx="853.287" cy="1014.7" r="14.4" fill="#009af9" fill-rule="evenodd" fill-opacity="1" stroke="#000000" stroke-opacity="1" stroke-width="3.2"/>
<circle clip-path="url(#clip112)" cx="873.828" cy="1180.41" r="14.4" fill="#009af9" fill-rule="evenodd" fill-opacity="1" stroke="#000000" stroke-opacity="1" stroke-width="3.2"/>
<circle clip-path="url(#clip112)" cx="894.369" cy="936.601" r="14.4" fill="#009af9" fill-rule="evenodd" fill-opacity="1" stroke="#000000" stroke-opacity="1" stroke-width="3.2"/>
<circle clip-path="url(#clip112)" cx="914.909" cy="950.782" r="14.4" fill="#009af9" fill-rule="evenodd" fill-opacity="1" stroke="#000000" stroke-opacity="1" stroke-width="3.2"/>
<circle clip-path="url(#clip112)" cx="935.45" cy="1234.91" r="14.4" fill="#009af9" fill-rule="evenodd" fill-opacity="1" stroke="#000000" stroke-opacity="1" stroke-width="3.2"/>
<circle clip-path="url(#clip112)" cx="955.991" cy="1174" r="14.4" fill="#009af9" fill-rule="evenodd" fill-opacity="1" stroke="#000000" stroke-opacity="1" stroke-width="3.2"/>
<circle clip-path="url(#clip112)" cx="976.531" cy="1080.83" r="14.4" fill="#009af9" fill-rule="evenodd" fill-opacity="1" stroke="#000000" stroke-opacity="1" stroke-width="3.2"/>
<circle clip-path="url(#clip112)" cx="997.072" cy="1036.67" r="14.4" fill="#009af9" fill-rule="evenodd" fill-opacity="1" stroke="#000000" stroke-opacity="1" stroke-width="3.2"/>
<circle clip-path="url(#clip112)" cx="1017.61" cy="1219.71" r="14.4" fill="#009af9" fill-rule="evenodd" fill-opacity="1" stroke="#000000" stroke-opacity="1" stroke-width="3.2"/>
<circle clip-path="url(#clip112)" cx="1038.15" cy="1123.21" r="14.4" fill="#009af9" fill-rule="evenodd" fill-opacity="1" stroke="#000000" stroke-opacity="1" stroke-width="3.2"/>
<circle clip-path="url(#clip112)" cx="1058.69" cy="956.177" r="14.4" fill="#009af9" fill-rule="evenodd" fill-opacity="1" stroke="#000000" stroke-opacity="1" stroke-width="3.2"/>
<circle clip-path="url(#clip112)" cx="1079.23" cy="1206.84" r="14.4" fill="#009af9" fill-rule="evenodd" fill-opacity="1" stroke="#000000" stroke-opacity="1" stroke-width="3.2"/>
<circle clip-path="url(#clip112)" cx="1099.78" cy="1027.66" r="14.4" fill="#009af9" fill-rule="evenodd" fill-opacity="1" stroke="#000000" stroke-opacity="1" stroke-width="3.2"/>
<circle clip-path="url(#clip112)" cx="1120.32" cy="941.266" r="14.4" fill="#009af9" fill-rule="evenodd" fill-opacity="1" stroke="#000000" stroke-opacity="1" stroke-width="3.2"/>
<circle clip-path="url(#clip112)" cx="1140.86" cy="1128.55" r="14.4" fill="#009af9" fill-rule="evenodd" fill-opacity="1" stroke="#000000" stroke-opacity="1" stroke-width="3.2"/>
<circle clip-path="url(#clip112)" cx="1161.4" cy="650.892" r="14.4" fill="#009af9" fill-rule="evenodd" fill-opacity="1" stroke="#000000" stroke-opacity="1" stroke-width="3.2"/>
<circle clip-path="url(#clip112)" cx="1181.94" cy="754.562" r="14.4" fill="#009af9" fill-rule="evenodd" fill-opacity="1" stroke="#000000" stroke-opacity="1" stroke-width="3.2"/>
<circle clip-path="url(#clip112)" cx="1202.48" cy="1114.2" r="14.4" fill="#009af9" fill-rule="evenodd" fill-opacity="1" stroke="#000000" stroke-opacity="1" stroke-width="3.2"/>
<circle clip-path="url(#clip112)" cx="1223.02" cy="948.824" r="14.4" fill="#009af9" fill-rule="evenodd" fill-opacity="1" stroke="#000000" stroke-opacity="1" stroke-width="3.2"/>
<circle clip-path="url(#clip112)" cx="1243.56" cy="663.105" r="14.4" fill="#009af9" fill-rule="evenodd" fill-opacity="1" stroke="#000000" stroke-opacity="1" stroke-width="3.2"/>
<circle clip-path="url(#clip112)" cx="1264.1" cy="968.239" r="14.4" fill="#009af9" fill-rule="evenodd" fill-opacity="1" stroke="#000000" stroke-opacity="1" stroke-width="3.2"/>
<circle clip-path="url(#clip112)" cx="1284.64" cy="706.667" r="14.4" fill="#009af9" fill-rule="evenodd" fill-opacity="1" stroke="#000000" stroke-opacity="1" stroke-width="3.2"/>
<circle clip-path="url(#clip112)" cx="1305.18" cy="1047.12" r="14.4" fill="#009af9" fill-rule="evenodd" fill-opacity="1" stroke="#000000" stroke-opacity="1" stroke-width="3.2"/>
<circle clip-path="url(#clip112)" cx="1325.72" cy="511.279" r="14.4" fill="#009af9" fill-rule="evenodd" fill-opacity="1" stroke="#000000" stroke-opacity="1" stroke-width="3.2"/>
<circle clip-path="url(#clip112)" cx="1346.26" cy="756.738" r="14.4" fill="#009af9" fill-rule="evenodd" fill-opacity="1" stroke="#000000" stroke-opacity="1" stroke-width="3.2"/>
<circle clip-path="url(#clip112)" cx="1366.8" cy="763.925" r="14.4" fill="#009af9" fill-rule="evenodd" fill-opacity="1" stroke="#000000" stroke-opacity="1" stroke-width="3.2"/>
<circle clip-path="url(#clip112)" cx="1387.34" cy="616.522" r="14.4" fill="#009af9" fill-rule="evenodd" fill-opacity="1" stroke="#000000" stroke-opacity="1" stroke-width="3.2"/>
<circle clip-path="url(#clip112)" cx="1407.89" cy="640.272" r="14.4" fill="#009af9" fill-rule="evenodd" fill-opacity="1" stroke="#000000" stroke-opacity="1" stroke-width="3.2"/>
<circle clip-path="url(#clip112)" cx="1428.43" cy="714.151" r="14.4" fill="#009af9" fill-rule="evenodd" fill-opacity="1" stroke="#000000" stroke-opacity="1" stroke-width="3.2"/>
<circle clip-path="url(#clip112)" cx="1448.97" cy="840.88" r="14.4" fill="#009af9" fill-rule="evenodd" fill-opacity="1" stroke="#000000" stroke-opacity="1" stroke-width="3.2"/>
<circle clip-path="url(#clip112)" cx="1469.51" cy="898.825" r="14.4" fill="#009af9" fill-rule="evenodd" fill-opacity="1" stroke="#000000" stroke-opacity="1" stroke-width="3.2"/>
<circle clip-path="url(#clip112)" cx="1490.05" cy="561.223" r="14.4" fill="#009af9" fill-rule="evenodd" fill-opacity="1" stroke="#000000" stroke-opacity="1" stroke-width="3.2"/>
<circle clip-path="url(#clip112)" cx="1510.59" cy="953.122" r="14.4" fill="#009af9" fill-rule="evenodd" fill-opacity="1" stroke="#000000" stroke-opacity="1" stroke-width="3.2"/>
<circle clip-path="url(#clip112)" cx="1531.13" cy="653.816" r="14.4" fill="#009af9" fill-rule="evenodd" fill-opacity="1" stroke="#000000" stroke-opacity="1" stroke-width="3.2"/>
<circle clip-path="url(#clip112)" cx="1551.67" cy="756.986" r="14.4" fill="#009af9" fill-rule="evenodd" fill-opacity="1" stroke="#000000" stroke-opacity="1" stroke-width="3.2"/>
<circle clip-path="url(#clip112)" cx="1572.21" cy="1052.16" r="14.4" fill="#009af9" fill-rule="evenodd" fill-opacity="1" stroke="#000000" stroke-opacity="1" stroke-width="3.2"/>
<circle clip-path="url(#clip112)" cx="1592.75" cy="976.407" r="14.4" fill="#009af9" fill-rule="evenodd" fill-opacity="1" stroke="#000000" stroke-opacity="1" stroke-width="3.2"/>
<circle clip-path="url(#clip112)" cx="1613.29" cy="709.101" r="14.4" fill="#009af9" fill-rule="evenodd" fill-opacity="1" stroke="#000000" stroke-opacity="1" stroke-width="3.2"/>
<circle clip-path="url(#clip112)" cx="1633.83" cy="873.47" r="14.4" fill="#009af9" fill-rule="evenodd" fill-opacity="1" stroke="#000000" stroke-opacity="1" stroke-width="3.2"/>
<circle clip-path="url(#clip112)" cx="1654.37" cy="834.685" r="14.4" fill="#009af9" fill-rule="evenodd" fill-opacity="1" stroke="#000000" stroke-opacity="1" stroke-width="3.2"/>
<circle clip-path="url(#clip112)" cx="1674.91" cy="925.13" r="14.4" fill="#009af9" fill-rule="evenodd" fill-opacity="1" stroke="#000000" stroke-opacity="1" stroke-width="3.2"/>
<circle clip-path="url(#clip112)" cx="1695.45" cy="969.959" r="14.4" fill="#009af9" fill-rule="evenodd" fill-opacity="1" stroke="#000000" stroke-opacity="1" stroke-width="3.2"/>
<circle clip-path="url(#clip112)" cx="1716" cy="936.485" r="14.4" fill="#009af9" fill-rule="evenodd" fill-opacity="1" stroke="#000000" stroke-opacity="1" stroke-width="3.2"/>
<circle clip-path="url(#clip112)" cx="1736.54" cy="755.013" r="14.4" fill="#009af9" fill-rule="evenodd" fill-opacity="1" stroke="#000000" stroke-opacity="1" stroke-width="3.2"/>
<circle clip-path="url(#clip112)" cx="1757.08" cy="640.433" r="14.4" fill="#009af9" fill-rule="evenodd" fill-opacity="1" stroke="#000000" stroke-opacity="1" stroke-width="3.2"/>
<circle clip-path="url(#clip112)" cx="1777.62" cy="703.768" r="14.4" fill="#009af9" fill-rule="evenodd" fill-opacity="1" stroke="#000000" stroke-opacity="1" stroke-width="3.2"/>
<circle clip-path="url(#clip112)" cx="1798.16" cy="770.669" r="14.4" fill="#009af9" fill-rule="evenodd" fill-opacity="1" stroke="#000000" stroke-opacity="1" stroke-width="3.2"/>
<circle clip-path="url(#clip112)" cx="1818.7" cy="166.483" r="14.4" fill="#009af9" fill-rule="evenodd" fill-opacity="1" stroke="#000000" stroke-opacity="1" stroke-width="3.2"/>
<circle clip-path="url(#clip112)" cx="1839.24" cy="882.774" r="14.4" fill="#009af9" fill-rule="evenodd" fill-opacity="1" stroke="#000000" stroke-opacity="1" stroke-width="3.2"/>
<circle clip-path="url(#clip112)" cx="1859.78" cy="882.794" r="14.4" fill="#009af9" fill-rule="evenodd" fill-opacity="1" stroke="#000000" stroke-opacity="1" stroke-width="3.2"/>
<circle clip-path="url(#clip112)" cx="1880.32" cy="862.3" r="14.4" fill="#009af9" fill-rule="evenodd" fill-opacity="1" stroke="#000000" stroke-opacity="1" stroke-width="3.2"/>
<circle clip-path="url(#clip112)" cx="1900.86" cy="593.485" r="14.4" fill="#009af9" fill-rule="evenodd" fill-opacity="1" stroke="#000000" stroke-opacity="1" stroke-width="3.2"/>
<circle clip-path="url(#clip112)" cx="1921.4" cy="726.797" r="14.4" fill="#009af9" fill-rule="evenodd" fill-opacity="1" stroke="#000000" stroke-opacity="1" stroke-width="3.2"/>
<circle clip-path="url(#clip112)" cx="1941.94" cy="821.416" r="14.4" fill="#009af9" fill-rule="evenodd" fill-opacity="1" stroke="#000000" stroke-opacity="1" stroke-width="3.2"/>
<circle clip-path="url(#clip112)" cx="1962.48" cy="611.267" r="14.4" fill="#009af9" fill-rule="evenodd" fill-opacity="1" stroke="#000000" stroke-opacity="1" stroke-width="3.2"/>
<circle clip-path="url(#clip112)" cx="1983.02" cy="860.948" r="14.4" fill="#009af9" fill-rule="evenodd" fill-opacity="1" stroke="#000000" stroke-opacity="1" stroke-width="3.2"/>
<circle clip-path="url(#clip112)" cx="2003.56" cy="740.298" r="14.4" fill="#009af9" fill-rule="evenodd" fill-opacity="1" stroke="#000000" stroke-opacity="1" stroke-width="3.2"/>
<circle clip-path="url(#clip112)" cx="2024.11" cy="662.738" r="14.4" fill="#009af9" fill-rule="evenodd" fill-opacity="1" stroke="#000000" stroke-opacity="1" stroke-width="3.2"/>
<circle clip-path="url(#clip112)" cx="2044.65" cy="348.231" r="14.4" fill="#009af9" fill-rule="evenodd" fill-opacity="1" stroke="#000000" stroke-opacity="1" stroke-width="3.2"/>
<circle clip-path="url(#clip112)" cx="2065.19" cy="376.812" r="14.4" fill="#009af9" fill-rule="evenodd" fill-opacity="1" stroke="#000000" stroke-opacity="1" stroke-width="3.2"/>
<circle clip-path="url(#clip112)" cx="2085.73" cy="825.531" r="14.4" fill="#009af9" fill-rule="evenodd" fill-opacity="1" stroke="#000000" stroke-opacity="1" stroke-width="3.2"/>
<circle clip-path="url(#clip112)" cx="2106.27" cy="574.69" r="14.4" fill="#009af9" fill-rule="evenodd" fill-opacity="1" stroke="#000000" stroke-opacity="1" stroke-width="3.2"/>
<circle clip-path="url(#clip112)" cx="2126.81" cy="86.1857" r="14.4" fill="#009af9" fill-rule="evenodd" fill-opacity="1" stroke="#000000" stroke-opacity="1" stroke-width="3.2"/>
<circle clip-path="url(#clip112)" cx="2147.35" cy="514.944" r="14.4" fill="#009af9" fill-rule="evenodd" fill-opacity="1" stroke="#000000" stroke-opacity="1" stroke-width="3.2"/>
<circle clip-path="url(#clip112)" cx="2167.89" cy="443.956" r="14.4" fill="#009af9" fill-rule="evenodd" fill-opacity="1" stroke="#000000" stroke-opacity="1" stroke-width="3.2"/>
<circle clip-path="url(#clip112)" cx="2188.43" cy="392.018" r="14.4" fill="#009af9" fill-rule="evenodd" fill-opacity="1" stroke="#000000" stroke-opacity="1" stroke-width="3.2"/>
<circle clip-path="url(#clip112)" cx="2208.97" cy="538.356" r="14.4" fill="#009af9" fill-rule="evenodd" fill-opacity="1" stroke="#000000" stroke-opacity="1" stroke-width="3.2"/>
<circle clip-path="url(#clip112)" cx="2229.51" cy="345.451" r="14.4" fill="#009af9" fill-rule="evenodd" fill-opacity="1" stroke="#000000" stroke-opacity="1" stroke-width="3.2"/>
<circle clip-path="url(#clip112)" cx="2250.05" cy="698.71" r="14.4" fill="#009af9" fill-rule="evenodd" fill-opacity="1" stroke="#000000" stroke-opacity="1" stroke-width="3.2"/>
<circle clip-path="url(#clip112)" cx="2270.59" cy="260.285" r="14.4" fill="#009af9" fill-rule="evenodd" fill-opacity="1" stroke="#000000" stroke-opacity="1" stroke-width="3.2"/>
<circle clip-path="url(#clip112)" cx="2291.13" cy="223.357" r="14.4" fill="#009af9" fill-rule="evenodd" fill-opacity="1" stroke="#000000" stroke-opacity="1" stroke-width="3.2"/>
<polyline clip-path="url(#clip112)" style="stroke:#e26f46; stroke-linecap:butt; stroke-linejoin:round; stroke-width:4; stroke-opacity:1; fill:none" points="
  237.067,1000.9 257.608,1004.32 278.149,1007.55 298.689,1010.58 319.23,1013.42 339.771,1016.06 360.311,1018.52 380.852,1020.77 401.393,1022.84 421.933,1024.71 
  442.474,1026.39 463.015,1027.88 483.555,1029.17 504.096,1030.27 524.637,1031.17 545.177,1031.89 565.718,1032.4 586.259,1032.73 606.799,1032.86 627.34,1032.8 
  647.881,1032.55 668.421,1032.1 688.962,1031.46 709.503,1030.63 730.043,1029.6 750.584,1028.38 771.125,1026.97 791.665,1025.36 812.206,1023.56 832.747,1021.57 
  853.287,1019.38 873.828,1017 894.369,1014.43 914.909,1011.66 935.45,1008.7 955.991,1005.55 976.531,1002.2 997.072,998.662 1017.61,994.929 1038.15,991.003 
  1058.69,986.884 1079.23,982.571 1099.78,978.065 1120.32,973.366 1140.86,968.473 1161.4,963.388 1181.94,958.108 1202.48,952.636 1223.02,946.971 1243.56,941.112 
  1264.1,935.059 1284.64,928.814 1305.18,922.375 1325.72,915.743 1346.26,908.918 1366.8,901.899 1387.34,894.688 1407.89,887.283 1428.43,879.684 1448.97,871.893 
  1469.51,863.908 1490.05,855.729 1510.59,847.358 1531.13,838.793 1551.67,830.035 1572.21,821.084 1592.75,811.939 1613.29,802.601 1633.83,793.07 1654.37,783.346 
  1674.91,773.428 1695.45,763.317 1716,753.013 1736.54,742.515 1757.08,731.825 1777.62,720.941 1798.16,709.863 1818.7,698.593 1839.24,687.129 1859.78,675.471 
  1880.32,663.621 1900.86,651.577 1921.4,639.34 1941.94,626.91 1962.48,614.286 1983.02,601.47 2003.56,588.46 2024.11,575.256 2044.65,561.859 2065.19,548.27 
  2085.73,534.486 2106.27,520.51 2126.81,506.34 2147.35,491.977 2167.89,477.421 2188.43,462.671 2208.97,447.728 2229.51,432.592 2250.05,417.263 2270.59,401.74 
  2291.13,386.024 
  "/>
<path clip-path="url(#clip110)" d="
M1752.84 248.629 L2280.18 248.629 L2280.18 93.1086 L1752.84 93.1086  Z
  " fill="#ffffff" fill-rule="evenodd" fill-opacity="1"/>
<polyline clip-path="url(#clip110)" style="stroke:#000000; stroke-linecap:butt; stroke-linejoin:round; stroke-width:4; stroke-opacity:1; fill:none" points="
  1752.84,248.629 2280.18,248.629 2280.18,93.1086 1752.84,93.1086 1752.84,248.629 
  "/>
<circle clip-path="url(#clip110)" cx="1849.61" cy="144.949" r="23.04" fill="#009af9" fill-rule="evenodd" fill-opacity="1" stroke="#000000" stroke-opacity="1" stroke-width="5.12"/>
<path clip-path="url(#clip110)" d="M1965.29 140.238 L1965.29 126.21 L1969.55 126.21 L1969.55 162.229 L1965.29 162.229 L1965.29 158.34 Q1963.95 160.655 1961.89 161.789 Q1959.85 162.9 1956.98 162.9 Q1952.28 162.9 1949.32 159.15 Q1946.38 155.4 1946.38 149.289 Q1946.38 143.178 1949.32 139.428 Q1952.28 135.678 1956.98 135.678 Q1959.85 135.678 1961.89 136.812 Q1963.95 137.923 1965.29 140.238 M1950.78 149.289 Q1950.78 153.988 1952.7 156.673 Q1954.64 159.335 1958.02 159.335 Q1961.4 159.335 1963.35 156.673 Q1965.29 153.988 1965.29 149.289 Q1965.29 144.59 1963.35 141.928 Q1961.4 139.243 1958.02 139.243 Q1954.64 139.243 1952.7 141.928 Q1950.78 144.59 1950.78 149.289 Z" fill="#000000" fill-rule="evenodd" fill-opacity="1" /><path clip-path="url(#clip110)" d="M1990.11 149.196 Q1984.94 149.196 1982.95 150.377 Q1980.96 151.557 1980.96 154.405 Q1980.96 156.673 1982.44 158.016 Q1983.95 159.335 1986.52 159.335 Q1990.06 159.335 1992.19 156.835 Q1994.34 154.312 1994.34 150.145 L1994.34 149.196 L1990.11 149.196 M1998.6 147.437 L1998.6 162.229 L1994.34 162.229 L1994.34 158.293 Q1992.88 160.655 1990.71 161.789 Q1988.53 162.9 1985.38 162.9 Q1981.4 162.9 1979.04 160.678 Q1976.7 158.432 1976.7 154.682 Q1976.7 150.307 1979.62 148.085 Q1982.56 145.863 1988.37 145.863 L1994.34 145.863 L1994.34 145.446 Q1994.34 142.507 1992.4 140.909 Q1990.48 139.289 1986.98 139.289 Q1984.76 139.289 1982.65 139.821 Q1980.55 140.354 1978.6 141.419 L1978.6 137.483 Q1980.94 136.581 1983.14 136.141 Q1985.34 135.678 1987.42 135.678 Q1993.05 135.678 1995.82 138.594 Q1998.6 141.511 1998.6 147.437 Z" fill="#000000" fill-rule="evenodd" fill-opacity="1" /><path clip-path="url(#clip110)" d="M2011.59 128.942 L2011.59 136.303 L2020.36 136.303 L2020.36 139.613 L2011.59 139.613 L2011.59 153.687 Q2011.59 156.858 2012.44 157.761 Q2013.32 158.664 2015.99 158.664 L2020.36 158.664 L2020.36 162.229 L2015.99 162.229 Q2011.05 162.229 2009.18 160.4 Q2007.3 158.548 2007.3 153.687 L2007.3 139.613 L2004.18 139.613 L2004.18 136.303 L2007.3 136.303 L2007.3 128.942 L2011.59 128.942 Z" fill="#000000" fill-rule="evenodd" fill-opacity="1" /><path clip-path="url(#clip110)" d="M2037.74 149.196 Q2032.58 149.196 2030.59 150.377 Q2028.6 151.557 2028.6 154.405 Q2028.6 156.673 2030.08 158.016 Q2031.59 159.335 2034.16 159.335 Q2037.7 159.335 2039.83 156.835 Q2041.98 154.312 2041.98 150.145 L2041.98 149.196 L2037.74 149.196 M2046.24 147.437 L2046.24 162.229 L2041.98 162.229 L2041.98 158.293 Q2040.52 160.655 2038.35 161.789 Q2036.17 162.9 2033.02 162.9 Q2029.04 162.9 2026.68 160.678 Q2024.34 158.432 2024.34 154.682 Q2024.34 150.307 2027.26 148.085 Q2030.2 145.863 2036.01 145.863 L2041.98 145.863 L2041.98 145.446 Q2041.98 142.507 2040.04 140.909 Q2038.11 139.289 2034.62 139.289 Q2032.4 139.289 2030.29 139.821 Q2028.18 140.354 2026.24 141.419 L2026.24 137.483 Q2028.58 136.581 2030.78 136.141 Q2032.98 135.678 2035.06 135.678 Q2040.68 135.678 2043.46 138.594 Q2046.24 141.511 2046.24 147.437 Z" fill="#000000" fill-rule="evenodd" fill-opacity="1" /><polyline clip-path="url(#clip110)" style="stroke:#e26f46; stroke-linecap:butt; stroke-linejoin:round; stroke-width:4; stroke-opacity:1; fill:none" points="
  1777.03,196.789 1922.19,196.789 
  "/>
<path clip-path="url(#clip110)" d="M1950.78 201.129 Q1950.78 205.828 1952.7 208.513 Q1954.64 211.175 1958.02 211.175 Q1961.4 211.175 1963.35 208.513 Q1965.29 205.828 1965.29 201.129 Q1965.29 196.43 1963.35 193.768 Q1961.4 191.083 1958.02 191.083 Q1954.64 191.083 1952.7 193.768 Q1950.78 196.43 1950.78 201.129 M1965.29 210.18 Q1963.95 212.495 1961.89 213.629 Q1959.85 214.74 1956.98 214.74 Q1952.28 214.74 1949.32 210.99 Q1946.38 207.24 1946.38 201.129 Q1946.38 195.018 1949.32 191.268 Q1952.28 187.518 1956.98 187.518 Q1959.85 187.518 1961.89 188.652 Q1963.95 189.763 1965.29 192.078 L1965.29 188.143 L1969.55 188.143 L1969.55 223.93 L1965.29 223.93 L1965.29 210.18 Z" fill="#000000" fill-rule="evenodd" fill-opacity="1" /><path clip-path="url(#clip110)" d="M1977.88 203.837 L1977.88 188.143 L1982.14 188.143 L1982.14 203.675 Q1982.14 207.356 1983.58 209.208 Q1985.01 211.036 1987.88 211.036 Q1991.33 211.036 1993.32 208.837 Q1995.34 206.638 1995.34 202.842 L1995.34 188.143 L1999.6 188.143 L1999.6 214.069 L1995.34 214.069 L1995.34 210.087 Q1993.79 212.448 1991.73 213.606 Q1989.69 214.74 1986.98 214.74 Q1982.51 214.74 1980.2 211.962 Q1977.88 209.184 1977.88 203.837 M1988.6 187.518 L1988.6 187.518 Z" fill="#000000" fill-rule="evenodd" fill-opacity="1" /><path clip-path="url(#clip110)" d="M2020.15 201.036 Q2014.99 201.036 2013 202.217 Q2011.01 203.397 2011.01 206.245 Q2011.01 208.513 2012.49 209.856 Q2013.99 211.175 2016.56 211.175 Q2020.11 211.175 2022.24 208.675 Q2024.39 206.152 2024.39 201.985 L2024.39 201.036 L2020.15 201.036 M2028.65 199.277 L2028.65 214.069 L2024.39 214.069 L2024.39 210.133 Q2022.93 212.495 2020.75 213.629 Q2018.58 214.74 2015.43 214.74 Q2011.45 214.74 2009.09 212.518 Q2006.75 210.272 2006.75 206.522 Q2006.75 202.147 2009.67 199.925 Q2012.61 197.703 2018.42 197.703 L2024.39 197.703 L2024.39 197.286 Q2024.39 194.347 2022.44 192.749 Q2020.52 191.129 2017.03 191.129 Q2014.8 191.129 2012.7 191.661 Q2010.59 192.194 2008.65 193.259 L2008.65 189.323 Q2010.99 188.421 2013.18 187.981 Q2015.38 187.518 2017.47 187.518 Q2023.09 187.518 2025.87 190.434 Q2028.65 193.351 2028.65 199.277 Z" fill="#000000" fill-rule="evenodd" fill-opacity="1" /><path clip-path="url(#clip110)" d="M2054.48 192.078 L2054.48 178.05 L2058.74 178.05 L2058.74 214.069 L2054.48 214.069 L2054.48 210.18 Q2053.14 212.495 2051.08 213.629 Q2049.04 214.74 2046.17 214.74 Q2041.47 214.74 2038.51 210.99 Q2035.57 207.24 2035.57 201.129 Q2035.57 195.018 2038.51 191.268 Q2041.47 187.518 2046.17 187.518 Q2049.04 187.518 2051.08 188.652 Q2053.14 189.763 2054.48 192.078 M2039.97 201.129 Q2039.97 205.828 2041.89 208.513 Q2043.83 211.175 2047.21 211.175 Q2050.59 211.175 2052.54 208.513 Q2054.48 205.828 2054.48 201.129 Q2054.48 196.43 2052.54 193.768 Q2050.59 191.083 2047.21 191.083 Q2043.83 191.083 2041.89 193.768 Q2039.97 196.43 2039.97 201.129 Z" fill="#000000" fill-rule="evenodd" fill-opacity="1" /><path clip-path="url(#clip110)" d="M2082.54 192.124 Q2081.82 191.708 2080.96 191.522 Q2080.13 191.314 2079.11 191.314 Q2075.5 191.314 2073.55 193.675 Q2071.63 196.013 2071.63 200.411 L2071.63 214.069 L2067.35 214.069 L2067.35 188.143 L2071.63 188.143 L2071.63 192.171 Q2072.98 189.809 2075.13 188.675 Q2077.28 187.518 2080.36 187.518 Q2080.8 187.518 2081.33 187.587 Q2081.86 187.634 2082.51 187.749 L2082.54 192.124 Z" fill="#000000" fill-rule="evenodd" fill-opacity="1" /><path clip-path="url(#clip110)" d="M2098.79 201.036 Q2093.62 201.036 2091.63 202.217 Q2089.64 203.397 2089.64 206.245 Q2089.64 208.513 2091.12 209.856 Q2092.63 211.175 2095.2 211.175 Q2098.74 211.175 2100.87 208.675 Q2103.02 206.152 2103.02 201.985 L2103.02 201.036 L2098.79 201.036 M2107.28 199.277 L2107.28 214.069 L2103.02 214.069 L2103.02 210.133 Q2101.56 212.495 2099.39 213.629 Q2097.21 214.74 2094.06 214.74 Q2090.08 214.74 2087.72 212.518 Q2085.38 210.272 2085.38 206.522 Q2085.38 202.147 2088.3 199.925 Q2091.24 197.703 2097.05 197.703 L2103.02 197.703 L2103.02 197.286 Q2103.02 194.347 2101.08 192.749 Q2099.16 191.129 2095.66 191.129 Q2093.44 191.129 2091.33 191.661 Q2089.23 192.194 2087.28 193.259 L2087.28 189.323 Q2089.62 188.421 2091.82 187.981 Q2094.02 187.518 2096.1 187.518 Q2101.73 187.518 2104.5 190.434 Q2107.28 193.351 2107.28 199.277 Z" fill="#000000" fill-rule="evenodd" fill-opacity="1" /><path clip-path="url(#clip110)" d="M2120.27 180.782 L2120.27 188.143 L2129.04 188.143 L2129.04 191.453 L2120.27 191.453 L2120.27 205.527 Q2120.27 208.698 2121.12 209.601 Q2122 210.504 2124.67 210.504 L2129.04 210.504 L2129.04 214.069 L2124.67 214.069 Q2119.73 214.069 2117.86 212.24 Q2115.98 210.388 2115.98 205.527 L2115.98 191.453 L2112.86 191.453 L2112.86 188.143 L2115.98 188.143 L2115.98 180.782 L2120.27 180.782 Z" fill="#000000" fill-rule="evenodd" fill-opacity="1" /><path clip-path="url(#clip110)" d="M2134.64 188.143 L2138.9 188.143 L2138.9 214.069 L2134.64 214.069 L2134.64 188.143 M2134.64 178.05 L2138.9 178.05 L2138.9 183.444 L2134.64 183.444 L2134.64 178.05 Z" fill="#000000" fill-rule="evenodd" fill-opacity="1" /><path clip-path="url(#clip110)" d="M2166.47 189.138 L2166.47 193.12 Q2164.66 192.124 2162.84 191.638 Q2161.03 191.129 2159.18 191.129 Q2155.04 191.129 2152.74 193.768 Q2150.45 196.384 2150.45 201.129 Q2150.45 205.874 2152.74 208.513 Q2155.04 211.129 2159.18 211.129 Q2161.03 211.129 2162.84 210.643 Q2164.66 210.133 2166.47 209.138 L2166.47 213.073 Q2164.69 213.907 2162.77 214.323 Q2160.87 214.74 2158.72 214.74 Q2152.86 214.74 2149.41 211.059 Q2145.96 207.379 2145.96 201.129 Q2145.96 194.786 2149.43 191.152 Q2152.93 187.518 2158.99 187.518 Q2160.96 187.518 2162.84 187.935 Q2164.71 188.328 2166.47 189.138 Z" fill="#000000" fill-rule="evenodd" fill-opacity="1" /><path clip-path="url(#clip110)" d="M2202.07 178.05 L2202.07 181.592 L2198 181.592 Q2195.71 181.592 2194.8 182.518 Q2193.92 183.444 2193.92 185.851 L2193.92 188.143 L2200.94 188.143 L2200.94 191.453 L2193.92 191.453 L2193.92 214.069 L2189.64 214.069 L2189.64 191.453 L2185.57 191.453 L2185.57 188.143 L2189.64 188.143 L2189.64 186.337 Q2189.64 182.009 2191.66 180.041 Q2193.67 178.05 2198.04 178.05 L2202.07 178.05 Z" fill="#000000" fill-rule="evenodd" fill-opacity="1" /><path clip-path="url(#clip110)" d="M2205.64 188.143 L2209.9 188.143 L2209.9 214.069 L2205.64 214.069 L2205.64 188.143 M2205.64 178.05 L2209.9 178.05 L2209.9 183.444 L2205.64 183.444 L2205.64 178.05 Z" fill="#000000" fill-rule="evenodd" fill-opacity="1" /><path clip-path="url(#clip110)" d="M2223.02 180.782 L2223.02 188.143 L2231.79 188.143 L2231.79 191.453 L2223.02 191.453 L2223.02 205.527 Q2223.02 208.698 2223.88 209.601 Q2224.76 210.504 2227.42 210.504 L2231.79 210.504 L2231.79 214.069 L2227.42 214.069 Q2222.49 214.069 2220.61 212.24 Q2218.74 210.388 2218.74 205.527 L2218.74 191.453 L2215.61 191.453 L2215.61 188.143 L2218.74 188.143 L2218.74 180.782 L2223.02 180.782 Z" fill="#000000" fill-rule="evenodd" fill-opacity="1" /></svg>
