<?xml version="1.0" encoding="UTF-8"?>
<svg xmlns="http://www.w3.org/2000/svg" xmlns:xlink="http://www.w3.org/1999/xlink" width="250" height="250" viewBox="0 0 250 250">
<rect x="-25" y="-25" width="300" height="300" fill="rgb(100%, 100%, 100%)" fill-opacity="1"/>
<path fill-rule="nonzero" fill="rgb(79.6%, 23.5%, 20%)" fill-opacity="1" d="M 96.679688 176.011719 C 96.640625 176.015625 96.601562 176.019531 96.5625 176.027344 L 93.5 176.625 C 93.480469 176.625 93.464844 176.628906 93.445312 176.636719 L 91.402344 177.15625 C 91.386719 177.160156 91.375 177.164062 91.359375 177.167969 L 89.816406 177.632812 C 89.804688 177.636719 89.792969 177.640625 89.78125 177.644531 L 88.539062 178.070312 C 88.527344 178.074219 88.519531 178.078125 88.507812 178.082031 L 87.46875 178.476562 C 87.460938 178.480469 87.449219 178.484375 87.441406 178.488281 L 86.546875 178.859375 C 86.539062 178.863281 86.53125 178.863281 86.523438 178.867188 L 85.738281 179.21875 C 85.730469 179.222656 85.722656 179.226562 85.714844 179.230469 L 85.015625 179.5625 C 85.007812 179.566406 85 179.566406 84.996094 179.570312 L 84.363281 179.890625 C 84.359375 179.890625 84.351562 179.894531 84.34375 179.898438 L 83.769531 180.203125 C 83.765625 180.207031 83.757812 180.210938 83.75 180.214844 L 83.222656 180.507812 C 83.21875 180.511719 83.210938 180.515625 83.207031 180.519531 L 82.714844 180.804688 C 82.710938 180.804688 82.707031 180.808594 82.699219 180.8125 L 82.246094 181.089844 C 82.238281 181.09375 82.234375 181.097656 82.230469 181.097656 L 81.800781 181.371094 C 81.796875 181.371094 81.792969 181.375 81.789062 181.378906 L 81.382812 181.644531 C 81.378906 181.644531 81.375 181.648438 81.371094 181.652344 L 80.988281 181.910156 C 80.984375 181.914062 80.980469 181.917969 80.976562 181.921875 L 80.613281 182.175781 C 80.609375 182.179688 80.605469 182.179688 80.601562 182.183594 L 80.253906 182.433594 C 80.25 182.4375 80.246094 182.441406 80.242188 182.445312 L 79.910156 182.691406 C 79.90625 182.695312 79.902344 182.699219 79.898438 182.703125 L 79.578125 182.949219 C 79.574219 182.949219 79.570312 182.953125 79.566406 182.957031 L 79.257812 183.203125 C 79.253906 183.203125 79.25 183.207031 79.246094 183.210938 L 78.949219 183.453125 C 78.945312 183.457031 78.941406 183.460938 78.9375 183.460938 L 78.648438 183.707031 C 78.644531 183.707031 78.644531 183.710938 78.640625 183.714844 L 78.359375 183.957031 C 78.355469 183.960938 78.351562 183.964844 78.347656 183.964844 L 78.074219 184.210938 C 78.070312 184.210938 78.066406 184.214844 78.0625 184.21875 L 77.796875 184.464844 C 77.792969 184.464844 77.789062 184.46875 77.785156 184.472656 L 77.523438 184.71875 C 77.519531 184.722656 77.515625 184.722656 77.515625 184.726562 L 77.253906 184.976562 C 77.253906 184.980469 77.25 184.980469 77.246094 184.984375 L 76.992188 185.234375 C 76.988281 185.238281 76.984375 185.242188 76.984375 185.246094 L 76.730469 185.5 C 76.730469 185.503906 76.726562 185.503906 76.722656 185.507812 L 76.472656 185.765625 C 76.472656 185.769531 76.46875 185.773438 76.464844 185.777344 L 76.21875 186.039062 C 76.214844 186.042969 76.214844 186.046875 76.210938 186.050781 L 75.964844 186.316406 C 75.960938 186.320312 75.960938 186.324219 75.957031 186.328125 L 75.714844 186.601562 C 75.710938 186.605469 75.707031 186.609375 75.703125 186.613281 L 75.460938 186.894531 C 75.457031 186.894531 75.457031 186.898438 75.453125 186.902344 L 75.210938 187.191406 C 75.207031 187.195312 75.203125 187.199219 75.199219 187.203125 L 74.957031 187.5 C 74.953125 187.503906 74.953125 187.507812 74.949219 187.511719 L 74.703125 187.820312 C 74.699219 187.824219 74.699219 187.828125 74.695312 187.832031 L 74.449219 188.148438 C 74.445312 188.152344 74.441406 188.15625 74.441406 188.160156 L 74.191406 188.496094 C 74.1875 188.5 74.183594 188.503906 74.183594 188.507812 L 73.929688 188.851562 C 73.929688 188.855469 73.925781 188.859375 73.921875 188.867188 L 73.667969 189.230469 C 73.664062 189.234375 73.660156 189.238281 73.65625 189.242188 L 73.398438 189.625 C 73.394531 189.628906 73.394531 189.632812 73.390625 189.636719 L 73.125 190.039062 C 73.121094 190.046875 73.117188 190.050781 73.117188 190.054688 L 72.847656 190.484375 C 72.84375 190.488281 72.839844 190.492188 72.835938 190.496094 L 72.558594 190.953125 C 72.554688 190.960938 72.554688 190.964844 72.550781 190.96875 L 72.265625 191.460938 C 72.261719 191.464844 72.257812 191.472656 72.253906 191.476562 L 71.960938 192.003906 C 71.957031 192.011719 71.953125 192.015625 71.949219 192.023438 L 71.644531 192.597656 C 71.640625 192.605469 71.640625 192.609375 71.636719 192.617188 L 71.316406 193.246094 C 71.316406 193.253906 71.3125 193.261719 71.308594 193.269531 L 70.976562 193.96875 C 70.972656 193.976562 70.96875 193.984375 70.964844 193.992188 L 70.617188 194.773438 C 70.613281 194.785156 70.609375 194.792969 70.605469 194.800781 L 70.234375 195.695312 C 70.230469 195.703125 70.226562 195.710938 70.222656 195.722656 L 69.828125 196.761719 C 69.824219 196.773438 69.820312 196.78125 69.816406 196.792969 L 69.390625 198.035156 C 69.386719 198.046875 69.382812 198.058594 69.378906 198.070312 L 68.914062 199.613281 C 68.910156 199.625 68.90625 199.640625 68.902344 199.65625 L 68.382812 201.699219 C 68.378906 201.714844 68.375 201.734375 68.371094 201.753906 L 67.773438 204.816406 C 67.765625 204.855469 67.761719 204.894531 67.757812 204.933594 L 67.761719 204.875 C 67.691406 205.832031 66.28125 205.832031 66.210938 204.875 L 66.214844 204.933594 C 66.210938 204.894531 66.207031 204.855469 66.199219 204.816406 L 65.605469 201.753906 C 65.601562 201.734375 65.597656 201.714844 65.59375 201.699219 L 65.074219 199.65625 C 65.070312 199.640625 65.066406 199.625 65.0625 199.613281 L 64.59375 198.070312 C 64.589844 198.058594 64.585938 198.046875 64.582031 198.035156 L 64.15625 196.792969 C 64.152344 196.78125 64.148438 196.773438 64.144531 196.761719 L 63.75 195.722656 C 63.746094 195.710938 63.742188 195.703125 63.738281 195.695312 L 63.371094 194.800781 C 63.367188 194.792969 63.363281 194.785156 63.359375 194.773438 L 63.007812 193.992188 C 63.007812 193.984375 63.003906 193.976562 63 193.96875 L 62.667969 193.269531 C 62.664062 193.261719 62.660156 193.253906 62.65625 193.246094 L 62.339844 192.617188 C 62.335938 192.609375 62.332031 192.605469 62.328125 192.597656 L 62.023438 192.023438 C 62.019531 192.015625 62.015625 192.011719 62.015625 192.003906 L 61.71875 191.476562 C 61.714844 191.472656 61.714844 191.464844 61.710938 191.460938 L 61.425781 190.96875 C 61.421875 190.964844 61.417969 190.960938 61.414062 190.953125 L 61.136719 190.496094 C 61.136719 190.492188 61.132812 190.488281 61.128906 190.484375 L 60.859375 190.054688 C 60.855469 190.050781 60.851562 190.046875 60.847656 190.039062 L 60.585938 189.636719 C 60.582031 189.632812 60.578125 189.628906 60.574219 189.625 L 60.316406 189.242188 C 60.3125 189.238281 60.3125 189.234375 60.308594 189.230469 L 60.050781 188.867188 C 60.050781 188.859375 60.046875 188.855469 60.042969 188.851562 L 59.792969 188.507812 C 59.789062 188.503906 59.785156 188.5 59.785156 188.496094 L 59.535156 188.160156 C 59.53125 188.15625 59.527344 188.152344 59.527344 188.148438 L 59.28125 187.832031 C 59.277344 187.828125 59.273438 187.824219 59.269531 187.820312 L 59.027344 187.511719 C 59.023438 187.507812 59.019531 187.503906 59.015625 187.5 L 58.773438 187.203125 C 58.769531 187.199219 58.769531 187.195312 58.765625 187.191406 L 58.523438 186.902344 C 58.519531 186.898438 58.515625 186.894531 58.511719 186.894531 L 58.269531 186.613281 C 58.265625 186.609375 58.265625 186.605469 58.261719 186.601562 L 58.019531 186.328125 C 58.015625 186.324219 58.011719 186.320312 58.007812 186.316406 L 57.765625 186.050781 C 57.761719 186.046875 57.757812 186.042969 57.753906 186.039062 L 57.507812 185.777344 C 57.507812 185.773438 57.503906 185.769531 57.5 185.765625 L 57.253906 185.507812 C 57.25 185.503906 57.246094 185.503906 57.242188 185.5 L 56.992188 185.246094 C 56.988281 185.242188 56.984375 185.238281 56.984375 185.234375 L 56.726562 184.984375 C 56.726562 184.980469 56.722656 184.980469 56.71875 184.976562 L 56.460938 184.726562 C 56.457031 184.722656 56.453125 184.722656 56.453125 184.71875 L 56.1875 184.472656 C 56.183594 184.46875 56.183594 184.464844 56.179688 184.464844 L 55.910156 184.21875 C 55.90625 184.214844 55.902344 184.210938 55.902344 184.210938 L 55.625 183.964844 C 55.621094 183.964844 55.621094 183.960938 55.617188 183.957031 L 55.335938 183.714844 C 55.332031 183.710938 55.328125 183.707031 55.324219 183.707031 L 55.035156 183.460938 C 55.03125 183.460938 55.027344 183.457031 55.023438 183.453125 L 54.726562 183.210938 C 54.722656 183.207031 54.71875 183.203125 54.714844 183.203125 L 54.40625 182.957031 C 54.40625 182.953125 54.402344 182.949219 54.398438 182.949219 L 54.078125 182.703125 C 54.074219 182.699219 54.070312 182.695312 54.066406 182.691406 L 53.734375 182.445312 C 53.730469 182.441406 53.726562 182.4375 53.722656 182.433594 L 53.375 182.183594 C 53.371094 182.179688 53.367188 182.179688 53.363281 182.175781 L 53 181.921875 C 52.996094 181.917969 52.992188 181.914062 52.984375 181.910156 L 52.605469 181.652344 C 52.601562 181.648438 52.59375 181.644531 52.589844 181.644531 L 52.1875 181.378906 C 52.183594 181.375 52.179688 181.371094 52.171875 181.371094 L 51.746094 181.097656 C 51.738281 181.097656 51.734375 181.09375 51.730469 181.089844 L 51.273438 180.8125 C 51.269531 180.808594 51.261719 180.804688 51.257812 180.804688 L 50.769531 180.519531 C 50.761719 180.515625 50.757812 180.511719 50.75 180.507812 L 50.222656 180.214844 C 50.21875 180.210938 50.210938 180.207031 50.203125 180.203125 L 49.628906 179.898438 C 49.625 179.894531 49.617188 179.890625 49.609375 179.890625 L 48.980469 179.570312 C 48.972656 179.566406 48.964844 179.566406 48.960938 179.5625 L 48.261719 179.230469 C 48.253906 179.226562 48.246094 179.222656 48.238281 179.21875 L 47.453125 178.867188 C 47.445312 178.863281 47.4375 178.863281 47.429688 178.859375 L 46.535156 178.488281 C 46.523438 178.484375 46.515625 178.480469 46.507812 178.476562 L 45.464844 178.082031 C 45.457031 178.078125 45.445312 178.074219 45.4375 178.070312 L 44.195312 177.644531 C 44.183594 177.640625 44.167969 177.636719 44.15625 177.632812 L 42.613281 177.167969 C 42.601562 177.164062 42.585938 177.160156 42.570312 177.15625 L 40.53125 176.636719 C 40.511719 176.628906 40.492188 176.625 40.472656 176.625 L 37.410156 176.027344 C 37.375 176.019531 37.335938 176.015625 37.296875 176.011719 L 37.355469 176.015625 C 36.394531 175.945312 36.394531 174.535156 37.355469 174.464844 L 37.296875 174.46875 C 37.335938 174.464844 37.375 174.460938 37.410156 174.453125 L 40.472656 173.859375 C 40.492188 173.855469 40.511719 173.851562 40.53125 173.84375 L 42.570312 173.324219 C 42.585938 173.324219 42.601562 173.320312 42.613281 173.3125 L 44.15625 172.847656 C 44.167969 172.84375 44.183594 172.839844 44.195312 172.835938 L 45.4375 172.410156 C 45.445312 172.40625 45.457031 172.402344 45.464844 172.398438 L 46.507812 172.003906 C 46.515625 172 46.523438 171.996094 46.535156 171.992188 L 47.429688 171.621094 C 47.4375 171.621094 47.445312 171.617188 47.453125 171.613281 L 48.238281 171.261719 C 48.246094 171.257812 48.253906 171.253906 48.261719 171.253906 L 48.960938 170.917969 C 48.964844 170.917969 48.972656 170.914062 48.980469 170.910156 L 49.609375 170.59375 C 49.617188 170.589844 49.625 170.585938 49.628906 170.582031 L 50.203125 170.277344 C 50.210938 170.273438 50.21875 170.269531 50.222656 170.265625 L 50.75 169.972656 C 50.757812 169.96875 50.761719 169.964844 50.769531 169.964844 L 51.257812 169.679688 C 51.261719 169.675781 51.269531 169.671875 51.273438 169.667969 L 51.730469 169.390625 C 51.734375 169.386719 51.738281 169.386719 51.746094 169.382812 L 52.171875 169.113281 C 52.179688 169.109375 52.183594 169.105469 52.1875 169.101562 L 52.589844 168.839844 C 52.59375 168.835938 52.601562 168.832031 52.605469 168.828125 L 52.984375 168.570312 C 52.992188 168.566406 52.996094 168.5625 53 168.5625 L 53.363281 168.304688 C 53.367188 168.304688 53.371094 168.300781 53.375 168.296875 L 53.722656 168.046875 C 53.726562 168.042969 53.730469 168.039062 53.734375 168.035156 L 54.066406 167.789062 C 54.070312 167.785156 54.074219 167.78125 54.078125 167.777344 L 54.398438 167.53125 C 54.402344 167.53125 54.40625 167.527344 54.40625 167.523438 L 54.714844 167.28125 C 54.71875 167.277344 54.722656 167.273438 54.726562 167.269531 L 55.023438 167.027344 C 55.027344 167.023438 55.03125 167.019531 55.035156 167.019531 L 55.324219 166.773438 C 55.328125 166.773438 55.332031 166.769531 55.335938 166.765625 L 55.617188 166.523438 C 55.621094 166.519531 55.621094 166.515625 55.625 166.515625 L 55.902344 166.269531 C 55.902344 166.269531 55.90625 166.265625 55.910156 166.261719 L 56.179688 166.019531 C 56.183594 166.015625 56.183594 166.011719 56.1875 166.007812 L 56.453125 165.761719 C 56.453125 165.757812 56.457031 165.757812 56.460938 165.753906 L 56.71875 165.503906 C 56.722656 165.503906 56.726562 165.5 56.726562 165.496094 L 56.984375 165.246094 C 56.984375 165.242188 56.988281 165.238281 56.992188 165.234375 L 57.242188 164.980469 C 57.246094 164.976562 57.25 164.976562 57.253906 164.972656 L 57.5 164.714844 C 57.503906 164.710938 57.507812 164.707031 57.507812 164.703125 L 57.753906 164.441406 C 57.757812 164.4375 57.761719 164.433594 57.765625 164.433594 L 58.007812 164.164062 C 58.011719 164.160156 58.015625 164.15625 58.019531 164.152344 L 58.261719 163.878906 C 58.265625 163.875 58.265625 163.871094 58.269531 163.871094 L 58.511719 163.589844 C 58.515625 163.585938 58.519531 163.582031 58.523438 163.578125 L 58.765625 163.289062 C 58.769531 163.285156 58.769531 163.28125 58.773438 163.277344 L 59.015625 162.980469 C 59.019531 162.976562 59.023438 162.972656 59.027344 162.96875 L 59.269531 162.660156 C 59.273438 162.65625 59.277344 162.652344 59.28125 162.648438 L 59.527344 162.332031 C 59.527344 162.328125 59.53125 162.324219 59.535156 162.320312 L 59.785156 161.988281 C 59.785156 161.984375 59.789062 161.980469 59.792969 161.976562 L 60.042969 161.628906 C 60.046875 161.625 60.050781 161.621094 60.050781 161.617188 L 60.308594 161.253906 C 60.3125 161.246094 60.3125 161.242188 60.316406 161.238281 L 60.574219 160.855469 C 60.578125 160.851562 60.582031 160.847656 60.585938 160.84375 L 60.847656 160.441406 C 60.851562 160.4375 60.855469 160.429688 60.859375 160.425781 L 61.128906 160 C 61.132812 159.992188 61.136719 159.988281 61.136719 159.984375 L 61.414062 159.527344 C 61.417969 159.523438 61.421875 159.515625 61.425781 159.511719 L 61.710938 159.019531 C 61.714844 159.015625 61.714844 159.011719 61.71875 159.003906 L 62.015625 158.476562 C 62.015625 158.46875 62.019531 158.464844 62.023438 158.457031 L 62.328125 157.882812 C 62.332031 157.875 62.335938 157.871094 62.339844 157.863281 L 62.65625 157.234375 C 62.660156 157.226562 62.664062 157.21875 62.667969 157.210938 L 63 156.511719 C 63.003906 156.503906 63.007812 156.5 63.007812 156.492188 L 63.359375 155.707031 C 63.363281 155.699219 63.367188 155.691406 63.371094 155.679688 L 63.738281 154.785156 C 63.742188 154.777344 63.746094 154.769531 63.75 154.757812 L 64.144531 153.71875 C 64.148438 153.710938 64.152344 153.699219 64.15625 153.6875 L 64.582031 152.445312 C 64.585938 152.433594 64.589844 152.421875 64.59375 152.410156 L 65.0625 150.867188 C 65.066406 150.855469 65.070312 150.839844 65.074219 150.824219 L 65.59375 148.78125 C 65.597656 148.765625 65.601562 148.746094 65.605469 148.726562 L 66.199219 145.664062 C 66.207031 145.625 66.210938 145.585938 66.214844 145.546875 L 66.210938 145.605469 C 66.28125 144.648438 67.691406 144.648438 67.761719 145.605469 L 67.757812 145.546875 C 67.761719 145.585938 67.765625 145.625 67.773438 145.664062 L 68.371094 148.726562 C 68.375 148.746094 68.378906 148.765625 68.382812 148.78125 L 68.902344 150.824219 C 68.90625 150.839844 68.910156 150.855469 68.914062 150.867188 L 69.378906 152.410156 C 69.382812 152.421875 69.386719 152.433594 69.390625 152.445312 L 69.816406 153.6875 C 69.820312 153.699219 69.824219 153.710938 69.828125 153.71875 L 70.222656 154.757812 C 70.226562 154.769531 70.230469 154.777344 70.234375 154.785156 L 70.605469 155.679688 C 70.609375 155.691406 70.613281 155.699219 70.617188 155.707031 L 70.964844 156.492188 C 70.96875 156.5 70.972656 156.503906 70.976562 156.511719 L 71.308594 157.210938 C 71.3125 157.21875 71.316406 157.226562 71.316406 157.234375 L 71.636719 157.863281 C 71.640625 157.871094 71.640625 157.875 71.644531 157.882812 L 71.949219 158.457031 C 71.953125 158.464844 71.957031 158.46875 71.960938 158.476562 L 72.253906 159.003906 C 72.257812 159.011719 72.261719 159.015625 72.265625 159.019531 L 72.550781 159.511719 C 72.554688 159.515625 72.554688 159.523438 72.558594 159.527344 L 72.835938 159.984375 C 72.839844 159.988281 72.84375 159.992188 72.847656 160 L 73.117188 160.425781 C 73.117188 160.429688 73.121094 160.4375 73.125 160.441406 L 73.390625 160.84375 C 73.394531 160.847656 73.394531 160.851562 73.398438 160.855469 L 73.65625 161.238281 C 73.660156 161.242188 73.664062 161.246094 73.667969 161.253906 L 73.921875 161.617188 C 73.925781 161.621094 73.929688 161.625 73.929688 161.628906 L 74.183594 161.976562 C 74.183594 161.980469 74.1875 161.984375 74.191406 161.988281 L 74.441406 162.320312 C 74.441406 162.324219 74.445312 162.328125 74.449219 162.332031 L 74.695312 162.648438 C 74.699219 162.652344 74.699219 162.65625 74.703125 162.660156 L 74.949219 162.96875 C 74.953125 162.972656 74.953125 162.976562 74.957031 162.980469 L 75.199219 163.277344 C 75.203125 163.28125 75.207031 163.285156 75.210938 163.289062 L 75.453125 163.578125 C 75.457031 163.582031 75.457031 163.585938 75.460938 163.589844 L 75.703125 163.871094 C 75.707031 163.871094 75.710938 163.875 75.714844 163.878906 L 75.957031 164.152344 C 75.960938 164.15625 75.960938 164.160156 75.964844 164.164062 L 76.210938 164.433594 C 76.214844 164.433594 76.214844 164.4375 76.21875 164.441406 L 76.464844 164.703125 C 76.46875 164.707031 76.472656 164.710938 76.472656 164.714844 L 76.722656 164.972656 C 76.726562 164.976562 76.730469 164.976562 76.730469 164.980469 L 76.984375 165.234375 C 76.984375 165.238281 76.988281 165.242188 76.992188 165.246094 L 77.246094 165.496094 C 77.25 165.5 77.253906 165.503906 77.253906 165.503906 L 77.515625 165.753906 C 77.515625 165.757812 77.519531 165.757812 77.523438 165.761719 L 77.785156 166.007812 C 77.789062 166.011719 77.792969 166.015625 77.796875 166.019531 L 78.0625 166.261719 C 78.066406 166.265625 78.070312 166.269531 78.074219 166.269531 L 78.347656 166.515625 C 78.351562 166.515625 78.355469 166.519531 78.359375 166.523438 L 78.640625 166.765625 C 78.644531 166.769531 78.644531 166.773438 78.648438 166.773438 L 78.9375 167.019531 C 78.941406 167.019531 78.945312 167.023438 78.949219 167.027344 L 79.246094 167.269531 C 79.25 167.273438 79.253906 167.277344 79.257812 167.28125 L 79.566406 167.523438 C 79.570312 167.527344 79.574219 167.53125 79.578125 167.53125 L 79.898438 167.777344 C 79.902344 167.78125 79.90625 167.785156 79.910156 167.789062 L 80.242188 168.035156 C 80.246094 168.039062 80.25 168.042969 80.253906 168.046875 L 80.601562 168.296875 C 80.605469 168.300781 80.609375 168.304688 80.613281 168.304688 L 80.976562 168.5625 C 80.980469 168.5625 80.984375 168.566406 80.988281 168.570312 L 81.371094 168.828125 C 81.375 168.832031 81.378906 168.835938 81.382812 168.839844 L 81.789062 169.101562 C 81.792969 169.105469 81.796875 169.109375 81.800781 169.113281 L 82.230469 169.382812 C 82.234375 169.386719 82.238281 169.386719 82.246094 169.390625 L 82.699219 169.667969 C 82.707031 169.671875 82.710938 169.675781 82.714844 169.679688 L 83.207031 169.964844 C 83.210938 169.964844 83.21875 169.96875 83.222656 169.972656 L 83.75 170.265625 C 83.757812 170.269531 83.765625 170.273438 83.769531 170.277344 L 84.34375 170.582031 C 84.351562 170.585938 84.359375 170.589844 84.363281 170.59375 L 84.996094 170.910156 C 85 170.914062 85.007812 170.917969 85.015625 170.917969 L 85.714844 171.253906 C 85.722656 171.253906 85.730469 171.257812 85.738281 171.261719 L 86.523438 171.613281 C 86.53125 171.617188 86.539062 171.621094 86.546875 171.621094 L 87.441406 171.992188 C 87.449219 171.996094 87.460938 172 87.46875 172.003906 L 88.507812 172.398438 C 88.519531 172.402344 88.527344 172.40625 88.539062 172.410156 L 89.78125 172.835938 C 89.792969 172.839844 89.804688 172.84375 89.816406 172.847656 L 91.359375 173.3125 C 91.375 173.320312 91.386719 173.324219 91.402344 173.324219 L 93.445312 173.84375 C 93.464844 173.851562 93.480469 173.855469 93.5 173.859375 L 96.5625 174.453125 C 96.601562 174.460938 96.640625 174.464844 96.679688 174.46875 L 96.621094 174.464844 C 97.582031 174.535156 97.582031 175.945312 96.621094 176.015625 L 96.679688 176.011719 "/>
<path fill-rule="nonzero" fill="rgb(22%, 59.6%, 14.9%)" fill-opacity="1" d="M 176.917969 76.113281 C 176.878906 76.117188 176.839844 76.121094 176.800781 76.128906 L 171.378906 77.183594 C 171.359375 77.1875 171.339844 77.191406 171.320312 77.195312 L 167.710938 78.113281 C 167.695312 78.117188 167.679688 78.121094 167.667969 78.125 L 164.9375 78.949219 C 164.925781 78.953125 164.914062 78.957031 164.902344 78.960938 L 162.703125 79.714844 C 162.695312 79.71875 162.683594 79.722656 162.671875 79.726562 L 160.832031 80.425781 C 160.824219 80.429688 160.8125 80.433594 160.804688 80.4375 L 159.21875 81.09375 C 159.210938 81.097656 159.203125 81.101562 159.195312 81.105469 L 157.804688 81.726562 C 157.796875 81.726562 157.789062 81.730469 157.78125 81.734375 L 156.542969 82.324219 C 156.535156 82.328125 156.527344 82.332031 156.519531 82.335938 L 155.402344 82.898438 C 155.394531 82.902344 155.390625 82.90625 155.382812 82.90625 L 154.363281 83.449219 C 154.355469 83.453125 154.351562 83.457031 154.34375 83.460938 L 153.40625 83.980469 C 153.402344 83.984375 153.394531 83.988281 153.390625 83.992188 L 152.519531 84.496094 C 152.515625 84.5 152.511719 84.503906 152.503906 84.507812 L 151.695312 85 C 151.691406 85.003906 151.683594 85.003906 151.679688 85.007812 L 150.917969 85.488281 C 150.914062 85.492188 150.910156 85.496094 150.90625 85.496094 L 150.1875 85.96875 C 150.183594 85.96875 150.179688 85.972656 150.175781 85.976562 L 149.496094 86.4375 C 149.492188 86.4375 149.488281 86.441406 149.484375 86.445312 L 148.839844 86.898438 C 148.835938 86.902344 148.832031 86.90625 148.828125 86.90625 L 148.210938 87.355469 C 148.207031 87.355469 148.203125 87.359375 148.199219 87.363281 L 147.609375 87.804688 C 147.605469 87.808594 147.601562 87.808594 147.597656 87.8125 L 147.027344 88.25 C 147.023438 88.253906 147.023438 88.257812 147.019531 88.261719 L 146.46875 88.695312 C 146.46875 88.699219 146.464844 88.699219 146.460938 88.703125 L 145.929688 89.136719 C 145.925781 89.140625 145.921875 89.140625 145.917969 89.144531 L 145.40625 89.578125 C 145.402344 89.578125 145.398438 89.582031 145.394531 89.585938 L 144.894531 90.019531 C 144.890625 90.019531 144.890625 90.023438 144.886719 90.027344 L 144.398438 90.460938 C 144.394531 90.460938 144.390625 90.464844 144.386719 90.46875 L 143.910156 90.902344 C 143.910156 90.90625 143.90625 90.910156 143.902344 90.910156 L 143.433594 91.347656 C 143.429688 91.351562 143.429688 91.355469 143.425781 91.359375 L 142.964844 91.800781 C 142.964844 91.800781 142.960938 91.804688 142.957031 91.808594 L 142.503906 92.253906 C 142.5 92.257812 142.5 92.261719 142.496094 92.265625 L 142.050781 92.714844 C 142.046875 92.71875 142.042969 92.722656 142.039062 92.726562 L 141.597656 93.183594 C 141.597656 93.1875 141.59375 93.191406 141.589844 93.195312 L 141.152344 93.660156 C 141.148438 93.664062 141.144531 93.667969 141.144531 93.671875 L 140.707031 94.148438 C 140.707031 94.152344 140.703125 94.152344 140.699219 94.15625 L 140.265625 94.644531 C 140.265625 94.648438 140.261719 94.652344 140.257812 94.65625 L 139.828125 95.15625 C 139.824219 95.160156 139.820312 95.160156 139.816406 95.164062 L 139.386719 95.679688 C 139.382812 95.683594 139.378906 95.6875 139.375 95.691406 L 138.945312 96.21875 C 138.941406 96.222656 138.9375 96.226562 138.933594 96.230469 L 138.5 96.777344 C 138.496094 96.78125 138.496094 96.785156 138.492188 96.789062 L 138.054688 97.355469 C 138.050781 97.359375 138.046875 97.363281 138.046875 97.367188 L 137.601562 97.957031 C 137.601562 97.960938 137.597656 97.964844 137.59375 97.96875 L 137.148438 98.585938 C 137.144531 98.589844 137.140625 98.59375 137.140625 98.597656 L 136.6875 99.242188 C 136.683594 99.246094 136.679688 99.253906 136.675781 99.257812 L 136.214844 99.933594 C 136.214844 99.941406 136.210938 99.945312 136.207031 99.949219 L 135.738281 100.664062 C 135.734375 100.667969 135.730469 100.675781 135.730469 100.679688 L 135.25 101.4375 C 135.246094 101.445312 135.242188 101.449219 135.238281 101.453125 L 134.746094 102.265625 C 134.746094 102.269531 134.742188 102.273438 134.738281 102.28125 L 134.230469 103.148438 C 134.230469 103.15625 134.226562 103.160156 134.222656 103.164062 L 133.699219 104.105469 C 133.695312 104.109375 133.691406 104.117188 133.691406 104.121094 L 133.148438 105.140625 C 133.144531 105.148438 133.140625 105.15625 133.140625 105.160156 L 132.574219 106.28125 C 132.570312 106.289062 132.566406 106.292969 132.566406 106.300781 L 131.976562 107.539062 C 131.972656 107.546875 131.96875 107.554688 131.964844 107.5625 L 131.34375 108.953125 C 131.339844 108.960938 131.339844 108.972656 131.335938 108.980469 L 130.679688 110.5625 C 130.675781 110.574219 130.671875 110.582031 130.667969 110.589844 L 129.96875 112.433594 C 129.964844 112.441406 129.960938 112.453125 129.957031 112.464844 L 129.203125 114.660156 C 129.199219 114.671875 129.195312 114.6875 129.191406 114.699219 L 128.367188 117.425781 C 128.363281 117.441406 128.359375 117.457031 128.355469 117.46875 L 127.4375 121.082031 C 127.429688 121.101562 127.425781 121.117188 127.421875 121.136719 L 126.371094 126.558594 C 126.363281 126.597656 126.355469 126.636719 126.355469 126.675781 L 125.996094 131.4375 C 125.90625 132.671875 124.09375 132.671875 124.003906 131.4375 L 123.644531 126.675781 C 123.644531 126.636719 123.636719 126.597656 123.628906 126.558594 L 122.578125 121.136719 C 122.574219 121.117188 122.570312 121.101562 122.5625 121.082031 L 121.644531 117.46875 C 121.640625 117.457031 121.636719 117.441406 121.632812 117.425781 L 120.808594 114.699219 C 120.804688 114.6875 120.800781 114.671875 120.796875 114.660156 L 120.042969 112.464844 C 120.039062 112.453125 120.035156 112.441406 120.03125 112.433594 L 119.332031 110.589844 C 119.328125 110.582031 119.324219 110.574219 119.320312 110.5625 L 118.664062 108.980469 C 118.660156 108.972656 118.660156 108.960938 118.65625 108.953125 L 118.035156 107.5625 C 118.03125 107.554688 118.027344 107.546875 118.023438 107.539062 L 117.433594 106.300781 C 117.433594 106.292969 117.429688 106.289062 117.425781 106.28125 L 116.859375 105.160156 C 116.859375 105.15625 116.855469 105.148438 116.851562 105.140625 L 116.308594 104.121094 C 116.308594 104.117188 116.304688 104.109375 116.300781 104.105469 L 115.777344 103.164062 C 115.773438 103.160156 115.769531 103.15625 115.769531 103.148438 L 115.261719 102.28125 C 115.257812 102.273438 115.253906 102.269531 115.253906 102.265625 L 114.761719 101.453125 C 114.757812 101.449219 114.753906 101.445312 114.75 101.4375 L 114.269531 100.679688 C 114.269531 100.675781 114.265625 100.667969 114.261719 100.664062 L 113.792969 99.949219 C 113.789062 99.945312 113.785156 99.941406 113.785156 99.933594 L 113.324219 99.257812 C 113.320312 99.253906 113.316406 99.246094 113.3125 99.242188 L 112.859375 98.597656 C 112.859375 98.59375 112.855469 98.589844 112.851562 98.585938 L 112.40625 97.96875 C 112.402344 97.964844 112.398438 97.960938 112.398438 97.957031 L 111.953125 97.367188 C 111.953125 97.363281 111.949219 97.359375 111.945312 97.355469 L 111.507812 96.789062 C 111.503906 96.785156 111.503906 96.78125 111.5 96.777344 L 111.066406 96.230469 C 111.0625 96.226562 111.058594 96.222656 111.054688 96.21875 L 110.625 95.691406 C 110.621094 95.6875 110.617188 95.683594 110.613281 95.679688 L 110.183594 95.164062 C 110.179688 95.160156 110.175781 95.160156 110.171875 95.15625 L 109.742188 94.65625 C 109.738281 94.652344 109.734375 94.648438 109.734375 94.644531 L 109.300781 94.15625 C 109.296875 94.152344 109.292969 94.152344 109.292969 94.148438 L 108.855469 93.671875 C 108.855469 93.667969 108.851562 93.664062 108.847656 93.660156 L 108.410156 93.195312 C 108.40625 93.191406 108.402344 93.1875 108.402344 93.183594 L 107.960938 92.726562 C 107.957031 92.722656 107.953125 92.71875 107.949219 92.714844 L 107.503906 92.265625 C 107.5 92.261719 107.5 92.257812 107.496094 92.253906 L 107.042969 91.808594 C 107.039062 91.804688 107.035156 91.800781 107.035156 91.800781 L 106.574219 91.359375 C 106.570312 91.355469 106.570312 91.351562 106.566406 91.347656 L 106.097656 90.910156 C 106.09375 90.910156 106.089844 90.90625 106.089844 90.902344 L 105.613281 90.46875 C 105.609375 90.464844 105.605469 90.460938 105.601562 90.460938 L 105.113281 90.027344 C 105.109375 90.023438 105.109375 90.019531 105.105469 90.019531 L 104.605469 89.585938 C 104.601562 89.582031 104.597656 89.578125 104.59375 89.578125 L 104.082031 89.144531 C 104.078125 89.140625 104.074219 89.140625 104.070312 89.136719 L 103.539062 88.703125 C 103.535156 88.699219 103.53125 88.699219 103.53125 88.695312 L 102.980469 88.261719 C 102.976562 88.257812 102.976562 88.253906 102.972656 88.25 L 102.402344 87.8125 C 102.398438 87.808594 102.394531 87.808594 102.390625 87.804688 L 101.800781 87.363281 C 101.796875 87.359375 101.792969 87.355469 101.789062 87.355469 L 101.171875 86.90625 C 101.167969 86.90625 101.164062 86.902344 101.160156 86.898438 L 100.515625 86.445312 C 100.511719 86.441406 100.507812 86.4375 100.503906 86.4375 L 99.824219 85.976562 C 99.820312 85.972656 99.816406 85.96875 99.8125 85.96875 L 99.09375 85.496094 C 99.089844 85.496094 99.085938 85.492188 99.082031 85.488281 L 98.320312 85.007812 C 98.316406 85.003906 98.308594 85.003906 98.304688 85 L 97.496094 84.507812 C 97.488281 84.503906 97.484375 84.5 97.480469 84.496094 L 96.609375 83.992188 C 96.605469 83.988281 96.597656 83.984375 96.59375 83.980469 L 95.65625 83.460938 C 95.648438 83.457031 95.644531 83.453125 95.636719 83.449219 L 94.617188 82.90625 C 94.609375 82.90625 94.605469 82.902344 94.597656 82.898438 L 93.480469 82.335938 C 93.472656 82.332031 93.464844 82.328125 93.457031 82.324219 L 92.21875 81.734375 C 92.210938 81.730469 92.203125 81.726562 92.195312 81.726562 L 90.804688 81.105469 C 90.796875 81.101562 90.789062 81.097656 90.78125 81.09375 L 89.195312 80.4375 C 89.1875 80.433594 89.175781 80.429688 89.167969 80.425781 L 87.328125 79.726562 C 87.316406 79.722656 87.304688 79.71875 87.296875 79.714844 L 85.097656 78.960938 C 85.085938 78.957031 85.074219 78.953125 85.0625 78.949219 L 82.332031 78.125 C 82.320312 78.121094 82.304688 78.117188 82.289062 78.113281 L 78.679688 77.195312 C 78.660156 77.191406 78.640625 77.1875 78.621094 77.183594 L 73.199219 76.128906 C 73.160156 76.121094 73.121094 76.117188 73.082031 76.113281 L 68.320312 75.757812 C 67.089844 75.664062 67.089844 73.855469 68.320312 73.761719 L 73.082031 73.40625 C 73.121094 73.402344 73.160156 73.398438 73.199219 73.390625 L 78.621094 72.335938 C 78.640625 72.332031 78.660156 72.328125 78.679688 72.324219 L 82.289062 71.40625 C 82.304688 71.402344 82.320312 71.398438 82.332031 71.394531 L 85.0625 70.570312 C 85.074219 70.566406 85.085938 70.5625 85.097656 70.558594 L 87.296875 69.804688 C 87.304688 69.800781 87.316406 69.796875 87.328125 69.792969 L 89.167969 69.089844 C 89.175781 69.089844 89.1875 69.085938 89.195312 69.082031 L 90.78125 68.425781 C 90.789062 68.421875 90.796875 68.417969 90.804688 68.414062 L 92.195312 67.792969 C 92.203125 67.789062 92.210938 67.789062 92.21875 67.785156 L 93.457031 67.195312 C 93.464844 67.191406 93.472656 67.1875 93.480469 67.183594 L 94.597656 66.621094 C 94.605469 66.617188 94.609375 66.613281 94.617188 66.609375 L 95.636719 66.070312 C 95.644531 66.066406 95.648438 66.0625 95.65625 66.058594 L 96.59375 65.535156 C 96.597656 65.535156 96.605469 65.53125 96.609375 65.527344 L 97.480469 65.019531 C 97.484375 65.019531 97.488281 65.015625 97.496094 65.011719 L 98.304688 64.519531 C 98.308594 64.515625 98.316406 64.515625 98.320312 64.511719 L 99.082031 64.03125 C 99.085938 64.027344 99.089844 64.023438 99.09375 64.023438 L 99.8125 63.550781 C 99.816406 63.550781 99.820312 63.546875 99.824219 63.542969 L 100.503906 63.082031 C 100.507812 63.078125 100.511719 63.078125 100.515625 63.074219 L 101.160156 62.621094 C 101.164062 62.617188 101.167969 62.613281 101.171875 62.613281 L 101.789062 62.164062 C 101.792969 62.160156 101.796875 62.160156 101.800781 62.15625 L 102.390625 61.714844 C 102.394531 61.710938 102.398438 61.707031 102.402344 61.707031 L 102.972656 61.269531 C 102.976562 61.265625 102.976562 61.261719 102.980469 61.257812 L 103.53125 60.824219 C 103.53125 60.820312 103.535156 60.820312 103.539062 60.816406 L 104.070312 60.382812 C 104.074219 60.378906 104.078125 60.375 104.082031 60.375 L 104.59375 59.941406 C 104.597656 59.9375 104.601562 59.9375 104.605469 59.933594 L 105.105469 59.5 C 105.109375 59.5 105.109375 59.496094 105.113281 59.492188 L 105.601562 59.058594 C 105.605469 59.058594 105.609375 59.054688 105.613281 59.050781 L 106.089844 58.617188 C 106.089844 58.613281 106.09375 58.609375 106.097656 58.605469 L 106.566406 58.167969 C 106.570312 58.167969 106.570312 58.164062 106.574219 58.160156 L 107.035156 57.71875 C 107.035156 57.714844 107.039062 57.714844 107.042969 57.710938 L 107.496094 57.265625 C 107.5 57.261719 107.5 57.257812 107.503906 57.253906 L 107.949219 56.804688 C 107.953125 56.800781 107.957031 56.796875 107.960938 56.792969 L 108.402344 56.335938 C 108.402344 56.332031 108.40625 56.328125 108.410156 56.324219 L 108.847656 55.859375 C 108.851562 55.855469 108.855469 55.851562 108.855469 55.847656 L 109.292969 55.371094 C 109.292969 55.367188 109.296875 55.363281 109.300781 55.363281 L 109.734375 54.875 C 109.734375 54.871094 109.738281 54.867188 109.742188 54.863281 L 110.171875 54.363281 C 110.175781 54.359375 110.179688 54.355469 110.183594 54.355469 L 110.613281 53.839844 C 110.617188 53.835938 110.621094 53.832031 110.625 53.828125 L 111.054688 53.300781 C 111.058594 53.296875 111.0625 53.292969 111.066406 53.289062 L 111.5 52.742188 C 111.503906 52.738281 111.503906 52.734375 111.507812 52.730469 L 111.945312 52.164062 C 111.949219 52.160156 111.953125 52.15625 111.953125 52.152344 L 112.398438 51.5625 C 112.398438 51.558594 112.402344 51.554688 112.40625 51.550781 L 112.851562 50.933594 C 112.855469 50.929688 112.859375 50.925781 112.859375 50.921875 L 113.3125 50.277344 C 113.316406 50.269531 113.320312 50.265625 113.324219 50.261719 L 113.785156 49.585938 C 113.785156 49.578125 113.789062 49.574219 113.792969 49.570312 L 114.261719 48.855469 C 114.265625 48.847656 114.269531 48.84375 114.269531 48.839844 L 114.75 48.078125 C 114.753906 48.074219 114.757812 48.070312 114.761719 48.066406 L 115.253906 47.253906 C 115.253906 47.25 115.257812 47.246094 115.261719 47.238281 L 115.769531 46.371094 C 115.769531 46.363281 115.773438 46.359375 115.777344 46.351562 L 116.300781 45.414062 C 116.304688 45.410156 116.308594 45.402344 116.308594 45.398438 L 116.851562 44.375 C 116.855469 44.371094 116.859375 44.363281 116.859375 44.359375 L 117.425781 43.238281 C 117.429688 43.230469 117.433594 43.226562 117.433594 43.21875 L 118.023438 41.976562 C 118.027344 41.972656 118.03125 41.964844 118.035156 41.957031 L 118.65625 40.566406 C 118.660156 40.554688 118.660156 40.546875 118.664062 40.539062 L 119.320312 38.957031 C 119.324219 38.945312 119.328125 38.9375 119.332031 38.929688 L 120.03125 37.085938 C 120.035156 37.074219 120.039062 37.066406 120.042969 37.054688 L 120.796875 34.855469 C 120.800781 34.84375 120.804688 34.832031 120.808594 34.820312 L 121.632812 32.09375 C 121.636719 32.078125 121.640625 32.0625 121.644531 32.050781 L 122.5625 28.4375 C 122.570312 28.417969 122.574219 28.402344 122.578125 28.382812 L 123.628906 22.957031 C 123.636719 22.921875 123.644531 22.882812 123.644531 22.84375 L 124.003906 18.082031 C 124.09375 16.847656 125.90625 16.847656 125.996094 18.082031 L 126.355469 22.84375 C 126.355469 22.882812 126.363281 22.921875 126.371094 22.957031 L 127.421875 28.382812 C 127.425781 28.402344 127.429688 28.417969 127.4375 28.4375 L 128.355469 32.050781 C 128.359375 32.0625 128.363281 32.078125 128.367188 32.09375 L 129.191406 34.820312 C 129.195312 34.832031 129.199219 34.84375 129.203125 34.855469 L 129.957031 37.054688 C 129.960938 37.066406 129.964844 37.074219 129.96875 37.085938 L 130.667969 38.929688 C 130.671875 38.9375 130.675781 38.945312 130.679688 38.957031 L 131.335938 40.539062 C 131.339844 40.546875 131.339844 40.554688 131.34375 40.566406 L 131.964844 41.957031 C 131.96875 41.964844 131.972656 41.972656 131.976562 41.976562 L 132.566406 43.21875 C 132.566406 43.226562 132.570312 43.230469 132.574219 43.238281 L 133.140625 44.359375 C 133.140625 44.363281 133.144531 44.371094 133.148438 44.375 L 133.691406 45.398438 C 133.691406 45.402344 133.695312 45.410156 133.699219 45.414062 L 134.222656 46.351562 C 134.226562 46.359375 134.230469 46.363281 134.230469 46.371094 L 134.738281 47.238281 C 134.742188 47.246094 134.746094 47.25 134.746094 47.253906 L 135.238281 48.066406 C 135.242188 48.070312 135.246094 48.074219 135.25 48.078125 L 135.730469 48.839844 C 135.730469 48.84375 135.734375 48.847656 135.738281 48.855469 L 136.207031 49.570312 C 136.210938 49.574219 136.214844 49.578125 136.214844 49.585938 L 136.675781 50.261719 C 136.679688 50.265625 136.683594 50.269531 136.6875 50.277344 L 137.140625 50.921875 C 137.140625 50.925781 137.144531 50.929688 137.148438 50.933594 L 137.59375 51.550781 C 137.597656 51.554688 137.601562 51.558594 137.601562 51.5625 L 138.046875 52.152344 C 138.046875 52.15625 138.050781 52.160156 138.054688 52.164062 L 138.492188 52.730469 C 138.496094 52.734375 138.496094 52.738281 138.5 52.742188 L 138.933594 53.289062 C 138.9375 53.292969 138.941406 53.296875 138.945312 53.300781 L 139.375 53.828125 C 139.378906 53.832031 139.382812 53.835938 139.386719 53.839844 L 139.816406 54.355469 C 139.820312 54.355469 139.824219 54.359375 139.828125 54.363281 L 140.257812 54.863281 C 140.261719 54.867188 140.265625 54.871094 140.265625 54.875 L 140.699219 55.363281 C 140.703125 55.363281 140.707031 55.367188 140.707031 55.371094 L 141.144531 55.847656 C 141.144531 55.851562 141.148438 55.855469 141.152344 55.859375 L 141.589844 56.324219 C 141.59375 56.328125 141.597656 56.332031 141.597656 56.335938 L 142.039062 56.792969 C 142.042969 56.796875 142.046875 56.800781 142.050781 56.804688 L 142.496094 57.253906 C 142.5 57.257812 142.5 57.261719 142.503906 57.265625 L 142.957031 57.710938 C 142.960938 57.714844 142.964844 57.714844 142.964844 57.71875 L 143.425781 58.160156 C 143.429688 58.164062 143.429688 58.167969 143.433594 58.167969 L 143.902344 58.605469 C 143.90625 58.609375 143.910156 58.613281 143.910156 58.617188 L 144.386719 59.050781 C 144.390625 59.054688 144.394531 59.058594 144.398438 59.058594 L 144.886719 59.492188 C 144.890625 59.496094 144.890625 59.5 144.894531 59.5 L 145.394531 59.933594 C 145.398438 59.9375 145.402344 59.9375 145.40625 59.941406 L 145.917969 60.375 C 145.921875 60.375 145.925781 60.378906 145.929688 60.382812 L 146.460938 60.816406 C 146.464844 60.820312 146.46875 60.820312 146.46875 60.824219 L 147.019531 61.257812 C 147.023438 61.261719 147.023438 61.265625 147.027344 61.269531 L 147.597656 61.707031 C 147.601562 61.707031 147.605469 61.710938 147.609375 61.714844 L 148.199219 62.15625 C 148.203125 62.160156 148.207031 62.160156 148.210938 62.164062 L 148.828125 62.613281 C 148.832031 62.613281 148.835938 62.617188 148.839844 62.621094 L 149.484375 63.074219 C 149.488281 63.078125 149.492188 63.078125 149.496094 63.082031 L 150.175781 63.542969 C 150.179688 63.546875 150.183594 63.550781 150.1875 63.550781 L 150.90625 64.023438 C 150.910156 64.023438 150.914062 64.027344 150.917969 64.03125 L 151.679688 64.511719 C 151.683594 64.515625 151.691406 64.515625 151.695312 64.519531 L 152.503906 65.011719 C 152.511719 65.015625 152.515625 65.019531 152.519531 65.019531 L 153.390625 65.527344 C 153.394531 65.53125 153.402344 65.535156 153.40625 65.535156 L 154.34375 66.058594 C 154.351562 66.0625 154.355469 66.066406 154.363281 66.070312 L 155.382812 66.609375 C 155.390625 66.613281 155.394531 66.617188 155.402344 66.621094 L 156.519531 67.183594 C 156.527344 67.1875 156.535156 67.191406 156.542969 67.195312 L 157.78125 67.785156 C 157.789062 67.789062 157.796875 67.789062 157.804688 67.792969 L 159.195312 68.414062 C 159.203125 68.417969 159.210938 68.421875 159.21875 68.425781 L 160.804688 69.082031 C 160.8125 69.085938 160.824219 69.089844 160.832031 69.089844 L 162.671875 69.792969 C 162.683594 69.796875 162.695312 69.800781 162.703125 69.804688 L 164.902344 70.558594 C 164.914062 70.5625 164.925781 70.566406 164.9375 70.570312 L 167.667969 71.394531 C 167.679688 71.398438 167.695312 71.402344 167.710938 71.40625 L 171.320312 72.324219 C 171.339844 72.328125 171.359375 72.332031 171.378906 72.335938 L 176.800781 73.390625 C 176.839844 73.398438 176.878906 73.402344 176.917969 73.40625 L 181.679688 73.761719 C 182.910156 73.855469 182.910156 75.664062 181.679688 75.757812 L 176.917969 76.113281 "/>
<path fill-rule="nonzero" fill="rgb(58.4%, 34.5%, 69.8%)" fill-opacity="1" d="M 223.816406 176.304688 C 223.777344 176.304688 223.738281 176.3125 223.699219 176.320312 L 219.457031 177.144531 C 219.441406 177.148438 219.421875 177.152344 219.402344 177.15625 L 216.574219 177.875 C 216.5625 177.878906 216.546875 177.882812 216.53125 177.886719 L 214.394531 178.53125 C 214.382812 178.535156 214.371094 178.539062 214.359375 178.542969 L 212.640625 179.132812 C 212.628906 179.136719 212.621094 179.140625 212.609375 179.144531 L 211.167969 179.691406 C 211.160156 179.695312 211.152344 179.699219 211.140625 179.703125 L 209.902344 180.214844 C 209.894531 180.21875 209.886719 180.222656 209.878906 180.226562 L 208.789062 180.710938 C 208.78125 180.714844 208.773438 180.71875 208.765625 180.722656 L 207.796875 181.183594 C 207.789062 181.1875 207.785156 181.191406 207.777344 181.195312 L 206.902344 181.632812 C 206.894531 181.636719 206.890625 181.640625 206.882812 181.644531 L 206.085938 182.066406 C 206.078125 182.070312 206.074219 182.074219 206.066406 182.078125 L 205.332031 182.484375 C 205.328125 182.488281 205.324219 182.492188 205.316406 182.496094 L 204.636719 182.890625 C 204.632812 182.894531 204.628906 182.898438 204.621094 182.898438 L 203.988281 183.285156 C 203.984375 183.289062 203.980469 183.292969 203.972656 183.292969 L 203.378906 183.667969 C 203.375 183.671875 203.371094 183.675781 203.367188 183.679688 L 202.804688 184.046875 C 202.800781 184.046875 202.796875 184.050781 202.792969 184.054688 L 202.261719 184.414062 C 202.257812 184.417969 202.253906 184.421875 202.25 184.421875 L 201.746094 184.777344 C 201.742188 184.78125 201.734375 184.78125 201.730469 184.785156 L 201.25 185.136719 C 201.246094 185.136719 201.242188 185.140625 201.238281 185.144531 L 200.777344 185.488281 C 200.773438 185.492188 200.769531 185.496094 200.765625 185.5 L 200.324219 185.839844 C 200.320312 185.84375 200.316406 185.847656 200.3125 185.847656 L 199.882812 186.1875 C 199.878906 186.191406 199.875 186.195312 199.871094 186.199219 L 199.457031 186.535156 C 199.457031 186.539062 199.453125 186.542969 199.449219 186.542969 L 199.046875 186.882812 C 199.042969 186.882812 199.039062 186.886719 199.035156 186.890625 L 198.644531 187.226562 C 198.644531 187.230469 198.640625 187.234375 198.636719 187.238281 L 198.253906 187.574219 C 198.25 187.578125 198.25 187.582031 198.246094 187.582031 L 197.871094 187.921875 C 197.871094 187.925781 197.867188 187.929688 197.863281 187.933594 L 197.5 188.273438 C 197.496094 188.277344 197.492188 188.28125 197.488281 188.285156 L 197.128906 188.628906 C 197.125 188.632812 197.125 188.632812 197.121094 188.636719 L 196.765625 188.984375 C 196.765625 188.988281 196.761719 188.992188 196.757812 188.996094 L 196.410156 189.347656 C 196.40625 189.351562 196.402344 189.355469 196.402344 189.359375 L 196.054688 189.714844 C 196.050781 189.71875 196.050781 189.722656 196.046875 189.726562 L 195.703125 190.089844 C 195.703125 190.09375 195.699219 190.097656 195.695312 190.101562 L 195.355469 190.472656 C 195.351562 190.476562 195.351562 190.480469 195.347656 190.484375 L 195.007812 190.863281 C 195.007812 190.867188 195.003906 190.871094 195 190.875 L 194.664062 191.265625 C 194.660156 191.269531 194.65625 191.269531 194.652344 191.273438 L 194.316406 191.675781 C 194.3125 191.679688 194.3125 191.683594 194.308594 191.6875 L 193.96875 192.101562 C 193.964844 192.105469 193.964844 192.109375 193.960938 192.109375 L 193.621094 192.539062 C 193.617188 192.542969 193.613281 192.546875 193.613281 192.550781 L 193.269531 192.992188 C 193.265625 192.996094 193.265625 193 193.261719 193.003906 L 192.917969 193.464844 C 192.914062 193.46875 192.910156 193.472656 192.90625 193.480469 L 192.558594 193.960938 C 192.554688 193.964844 192.550781 193.96875 192.550781 193.972656 L 192.195312 194.476562 C 192.191406 194.480469 192.191406 194.484375 192.1875 194.488281 L 191.828125 195.019531 C 191.824219 195.023438 191.820312 195.027344 191.816406 195.035156 L 191.449219 195.59375 C 191.449219 195.597656 191.445312 195.601562 191.441406 195.605469 L 191.066406 196.203125 C 191.0625 196.207031 191.058594 196.210938 191.058594 196.214844 L 190.671875 196.851562 C 190.667969 196.855469 190.667969 196.859375 190.664062 196.867188 L 190.265625 197.546875 C 190.265625 197.550781 190.261719 197.554688 190.257812 197.5625 L 189.847656 198.296875 C 189.847656 198.300781 189.84375 198.308594 189.839844 198.3125 L 189.417969 199.109375 C 189.414062 199.117188 189.410156 199.125 189.40625 199.128906 L 188.964844 200.003906 C 188.960938 200.011719 188.957031 200.019531 188.957031 200.023438 L 188.496094 200.996094 C 188.492188 201.003906 188.488281 201.007812 188.484375 201.015625 L 188 202.105469 C 187.996094 202.113281 187.992188 202.121094 187.988281 202.128906 L 187.476562 203.371094 C 187.472656 203.378906 187.46875 203.386719 187.464844 203.398438 L 186.917969 204.835938 C 186.914062 204.847656 186.910156 204.859375 186.90625 204.867188 L 186.316406 206.589844 C 186.3125 206.601562 186.308594 206.613281 186.304688 206.625 L 185.660156 208.761719 C 185.65625 208.773438 185.652344 208.789062 185.648438 208.804688 L 184.929688 211.628906 C 184.921875 211.648438 184.917969 211.667969 184.914062 211.6875 L 184.089844 215.929688 C 184.082031 215.96875 184.078125 216.007812 184.074219 216.046875 L 184.011719 216.917969 C 183.917969 218.152344 182.109375 218.152344 182.015625 216.917969 L 181.949219 216.046875 C 181.945312 216.007812 181.941406 215.96875 181.933594 215.929688 L 181.109375 211.6875 C 181.105469 211.667969 181.101562 211.648438 181.097656 211.628906 L 180.378906 208.804688 C 180.375 208.789062 180.371094 208.773438 180.367188 208.761719 L 179.722656 206.625 C 179.71875 206.613281 179.714844 206.601562 179.710938 206.589844 L 179.121094 204.867188 C 179.117188 204.859375 179.113281 204.847656 179.109375 204.835938 L 178.5625 203.398438 C 178.558594 203.386719 178.554688 203.378906 178.550781 203.371094 L 178.035156 202.128906 C 178.03125 202.121094 178.03125 202.113281 178.027344 202.105469 L 177.542969 201.015625 C 177.539062 201.007812 177.535156 201.003906 177.53125 200.996094 L 177.070312 200.023438 C 177.066406 200.019531 177.0625 200.011719 177.058594 200.003906 L 176.617188 199.128906 C 176.617188 199.125 176.613281 199.117188 176.609375 199.109375 L 176.1875 198.3125 C 176.183594 198.308594 176.179688 198.300781 176.175781 198.296875 L 175.765625 197.5625 C 175.765625 197.554688 175.761719 197.550781 175.757812 197.546875 L 175.363281 196.867188 C 175.359375 196.859375 175.355469 196.855469 175.351562 196.851562 L 174.96875 196.214844 C 174.964844 196.210938 174.960938 196.207031 174.960938 196.203125 L 174.582031 195.605469 C 174.582031 195.601562 174.578125 195.597656 174.574219 195.59375 L 174.207031 195.035156 C 174.203125 195.027344 174.203125 195.023438 174.199219 195.019531 L 173.839844 194.488281 C 173.835938 194.484375 173.832031 194.480469 173.828125 194.476562 L 173.476562 193.972656 C 173.472656 193.96875 173.46875 193.964844 173.46875 193.960938 L 173.117188 193.480469 C 173.113281 193.472656 173.113281 193.46875 173.109375 193.464844 L 172.765625 193.003906 C 172.761719 193 172.757812 192.996094 172.753906 192.992188 L 172.414062 192.550781 C 172.410156 192.546875 172.40625 192.542969 172.402344 192.539062 L 172.066406 192.109375 C 172.0625 192.109375 172.058594 192.105469 172.054688 192.101562 L 171.71875 191.6875 C 171.714844 191.683594 171.710938 191.679688 171.707031 191.675781 L 171.371094 191.273438 C 171.367188 191.269531 171.367188 191.269531 171.363281 191.265625 L 171.023438 190.875 C 171.023438 190.871094 171.019531 190.867188 171.015625 190.863281 L 170.679688 190.484375 C 170.675781 190.480469 170.671875 190.476562 170.667969 190.472656 L 170.328125 190.101562 C 170.328125 190.097656 170.324219 190.09375 170.320312 190.089844 L 169.980469 189.726562 C 169.976562 189.722656 169.972656 189.71875 169.96875 189.714844 L 169.625 189.359375 C 169.621094 189.355469 169.617188 189.351562 169.617188 189.347656 L 169.265625 188.996094 C 169.265625 188.992188 169.261719 188.988281 169.257812 188.984375 L 168.90625 188.636719 C 168.902344 188.632812 168.898438 188.632812 168.894531 188.628906 L 168.535156 188.285156 C 168.535156 188.28125 168.53125 188.277344 168.527344 188.273438 L 168.164062 187.933594 C 168.160156 187.929688 168.15625 187.925781 168.152344 187.921875 L 167.78125 187.582031 C 167.777344 187.582031 167.773438 187.578125 167.769531 187.574219 L 167.390625 187.238281 C 167.386719 187.234375 167.382812 187.230469 167.378906 187.226562 L 166.988281 186.890625 C 166.984375 186.886719 166.980469 186.882812 166.980469 186.882812 L 166.578125 186.542969 C 166.574219 186.542969 166.570312 186.539062 166.566406 186.535156 L 166.152344 186.199219 C 166.148438 186.195312 166.144531 186.191406 166.140625 186.1875 L 165.714844 185.847656 C 165.710938 185.847656 165.707031 185.84375 165.703125 185.839844 L 165.257812 185.5 C 165.253906 185.496094 165.25 185.492188 165.246094 185.488281 L 164.785156 185.144531 C 164.78125 185.140625 164.777344 185.136719 164.773438 185.136719 L 164.292969 184.785156 C 164.289062 184.78125 164.285156 184.78125 164.28125 184.777344 L 163.777344 184.421875 C 163.773438 184.421875 163.769531 184.417969 163.761719 184.414062 L 163.234375 184.054688 C 163.230469 184.050781 163.222656 184.046875 163.21875 184.046875 L 162.660156 183.679688 C 162.65625 183.675781 162.652344 183.671875 162.644531 183.667969 L 162.050781 183.292969 C 162.046875 183.292969 162.042969 183.289062 162.035156 183.285156 L 161.402344 182.898438 C 161.398438 182.898438 161.394531 182.894531 161.386719 182.890625 L 160.707031 182.496094 C 160.703125 182.492188 160.695312 182.488281 160.691406 182.484375 L 159.957031 182.078125 C 159.953125 182.074219 159.945312 182.070312 159.941406 182.066406 L 159.144531 181.644531 C 159.136719 181.640625 159.128906 181.636719 159.125 181.632812 L 158.25 181.195312 C 158.242188 181.191406 158.234375 181.1875 158.226562 181.183594 L 157.257812 180.722656 C 157.25 180.71875 157.242188 180.714844 157.234375 180.710938 L 156.148438 180.226562 C 156.140625 180.222656 156.132812 180.21875 156.125 180.214844 L 154.882812 179.703125 C 154.875 179.699219 154.867188 179.695312 154.855469 179.691406 L 153.414062 179.144531 C 153.40625 179.140625 153.394531 179.136719 153.386719 179.132812 L 151.664062 178.542969 C 151.652344 178.539062 151.640625 178.535156 151.628906 178.53125 L 149.492188 177.886719 C 149.480469 177.882812 149.464844 177.878906 149.449219 177.875 L 146.621094 177.15625 C 146.605469 177.152344 146.585938 177.148438 146.566406 177.144531 L 142.324219 176.320312 C 142.285156 176.3125 142.246094 176.304688 142.207031 176.304688 L 141.335938 176.238281 C 140.101562 176.144531 140.101562 174.335938 141.335938 174.242188 L 142.207031 174.179688 C 142.246094 174.175781 142.285156 174.167969 142.324219 174.164062 L 146.566406 173.335938 C 146.585938 173.332031 146.605469 173.328125 146.621094 173.324219 L 149.449219 172.605469 C 149.464844 172.601562 149.480469 172.597656 149.492188 172.59375 L 151.628906 171.949219 C 151.640625 171.945312 151.652344 171.941406 151.664062 171.9375 L 153.386719 171.347656 C 153.394531 171.34375 153.40625 171.339844 153.414062 171.335938 L 154.855469 170.789062 C 154.867188 170.785156 154.875 170.78125 154.882812 170.777344 L 156.125 170.265625 C 156.132812 170.261719 156.140625 170.257812 156.148438 170.253906 L 157.234375 169.769531 C 157.242188 169.765625 157.25 169.761719 157.257812 169.757812 L 158.226562 169.296875 C 158.234375 169.292969 158.242188 169.289062 158.25 169.289062 L 159.125 168.847656 C 159.128906 168.84375 159.136719 168.839844 159.144531 168.835938 L 159.941406 168.414062 C 159.945312 168.410156 159.953125 168.40625 159.957031 168.402344 L 160.691406 167.996094 C 160.695312 167.992188 160.703125 167.988281 160.707031 167.984375 L 161.386719 167.589844 C 161.394531 167.585938 161.398438 167.582031 161.402344 167.582031 L 162.035156 167.195312 C 162.042969 167.191406 162.046875 167.191406 162.050781 167.1875 L 162.644531 166.8125 C 162.652344 166.808594 162.65625 166.804688 162.660156 166.800781 L 163.21875 166.4375 C 163.222656 166.433594 163.230469 166.429688 163.234375 166.425781 L 163.761719 166.066406 C 163.769531 166.0625 163.773438 166.0625 163.777344 166.058594 L 164.28125 165.703125 C 164.285156 165.699219 164.289062 165.699219 164.292969 165.695312 L 164.773438 165.34375 C 164.777344 165.34375 164.78125 165.339844 164.785156 165.335938 L 165.246094 164.992188 C 165.25 164.988281 165.253906 164.984375 165.257812 164.984375 L 165.703125 164.640625 C 165.707031 164.636719 165.710938 164.636719 165.714844 164.632812 L 166.140625 164.292969 C 166.144531 164.289062 166.148438 164.285156 166.152344 164.285156 L 166.566406 163.945312 C 166.570312 163.941406 166.574219 163.941406 166.578125 163.9375 L 166.980469 163.597656 C 166.980469 163.597656 166.984375 163.59375 166.988281 163.589844 L 167.378906 163.253906 C 167.382812 163.25 167.386719 163.246094 167.390625 163.242188 L 167.769531 162.90625 C 167.773438 162.902344 167.777344 162.898438 167.78125 162.898438 L 168.152344 162.558594 C 168.15625 162.554688 168.160156 162.550781 168.164062 162.546875 L 168.527344 162.207031 C 168.53125 162.203125 168.535156 162.199219 168.535156 162.199219 L 168.894531 161.851562 C 168.898438 161.851562 168.902344 161.847656 168.90625 161.84375 L 169.257812 161.496094 C 169.261719 161.492188 169.265625 161.488281 169.265625 161.484375 L 169.617188 161.132812 C 169.617188 161.128906 169.621094 161.125 169.625 161.125 L 169.96875 160.765625 C 169.972656 160.761719 169.976562 160.757812 169.980469 160.753906 L 170.320312 160.390625 C 170.324219 160.386719 170.328125 160.382812 170.328125 160.378906 L 170.667969 160.007812 C 170.671875 160.003906 170.675781 160 170.679688 160 L 171.015625 159.617188 C 171.019531 159.613281 171.023438 159.609375 171.023438 159.605469 L 171.363281 159.214844 C 171.367188 159.214844 171.367188 159.210938 171.371094 159.207031 L 171.707031 158.804688 C 171.710938 158.800781 171.714844 158.796875 171.71875 158.792969 L 172.054688 158.378906 C 172.058594 158.375 172.0625 158.375 172.066406 158.371094 L 172.402344 157.941406 C 172.40625 157.9375 172.410156 157.933594 172.414062 157.929688 L 172.753906 157.488281 C 172.757812 157.484375 172.761719 157.480469 172.765625 157.476562 L 173.109375 157.015625 C 173.113281 157.011719 173.113281 157.007812 173.117188 157.003906 L 173.46875 156.519531 C 173.46875 156.515625 173.472656 156.511719 173.476562 156.507812 L 173.828125 156.003906 C 173.832031 156 173.835938 155.996094 173.839844 155.992188 L 174.199219 155.460938 C 174.203125 155.457031 174.203125 155.453125 174.207031 155.449219 L 174.574219 154.886719 C 174.578125 154.882812 174.582031 154.878906 174.582031 154.875 L 174.960938 154.28125 C 174.960938 154.273438 174.964844 154.269531 174.96875 154.265625 L 175.351562 153.632812 C 175.355469 153.625 175.359375 153.621094 175.363281 153.617188 L 175.757812 152.9375 C 175.761719 152.929688 175.765625 152.925781 175.765625 152.917969 L 176.175781 152.1875 C 176.179688 152.179688 176.183594 152.175781 176.1875 152.167969 L 176.609375 151.371094 C 176.613281 151.363281 176.617188 151.359375 176.617188 151.351562 L 177.058594 150.476562 C 177.0625 150.46875 177.066406 150.460938 177.070312 150.457031 L 177.53125 149.484375 C 177.535156 149.480469 177.539062 149.472656 177.542969 149.464844 L 178.027344 148.375 C 178.03125 148.367188 178.03125 148.359375 178.035156 148.351562 L 178.550781 147.113281 C 178.554688 147.101562 178.558594 147.09375 178.5625 147.085938 L 179.109375 145.644531 C 179.113281 145.632812 179.117188 145.621094 179.121094 145.613281 L 179.710938 143.890625 C 179.714844 143.878906 179.71875 143.867188 179.722656 143.855469 L 180.367188 141.71875 C 180.371094 141.707031 180.375 141.691406 180.378906 141.679688 L 181.097656 138.851562 C 181.101562 138.832031 181.105469 138.8125 181.109375 138.796875 L 181.933594 134.550781 C 181.941406 134.515625 181.945312 134.476562 181.949219 134.4375 L 182.015625 133.5625 C 182.109375 132.328125 183.917969 132.328125 184.011719 133.5625 L 184.074219 134.4375 C 184.078125 134.476562 184.082031 134.515625 184.089844 134.550781 L 184.914062 138.796875 C 184.917969 138.8125 184.921875 138.832031 184.929688 138.851562 L 185.648438 141.679688 C 185.652344 141.691406 185.65625 141.707031 185.660156 141.71875 L 186.304688 143.855469 C 186.308594 143.867188 186.3125 143.878906 186.316406 143.890625 L 186.90625 145.613281 C 186.910156 145.621094 186.914062 145.632812 186.917969 145.644531 L 187.464844 147.085938 C 187.46875 147.09375 187.472656 147.101562 187.476562 147.113281 L 187.988281 148.351562 C 187.992188 148.359375 187.996094 148.367188 188 148.375 L 188.484375 149.464844 C 188.488281 149.472656 188.492188 149.480469 188.496094 149.484375 L 188.957031 150.457031 C 188.957031 150.460938 188.960938 150.46875 188.964844 150.476562 L 189.40625 151.351562 C 189.410156 151.359375 189.414062 151.363281 189.417969 151.371094 L 189.839844 152.167969 C 189.84375 152.175781 189.847656 152.179688 189.847656 152.1875 L 190.257812 152.917969 C 190.261719 152.925781 190.265625 152.929688 190.265625 152.9375 L 190.664062 153.617188 C 190.667969 153.621094 190.667969 153.625 190.671875 153.632812 L 191.058594 154.265625 C 191.058594 154.269531 191.0625 154.273438 191.066406 154.28125 L 191.441406 154.875 C 191.445312 154.878906 191.449219 154.882812 191.449219 154.886719 L 191.816406 155.449219 C 191.820312 155.453125 191.824219 155.457031 191.828125 155.460938 L 192.1875 155.992188 C 192.191406 155.996094 192.191406 156 192.195312 156.003906 L 192.550781 156.507812 C 192.550781 156.511719 192.554688 156.515625 192.558594 156.519531 L 192.90625 157.003906 C 192.910156 157.007812 192.914062 157.011719 192.917969 157.015625 L 193.261719 157.476562 C 193.265625 157.480469 193.265625 157.484375 193.269531 157.488281 L 193.613281 157.929688 C 193.613281 157.933594 193.617188 157.9375 193.621094 157.941406 L 193.960938 158.371094 C 193.964844 158.375 193.964844 158.375 193.96875 158.378906 L 194.308594 158.792969 C 194.3125 158.796875 194.3125 158.800781 194.316406 158.804688 L 194.652344 159.207031 C 194.65625 159.210938 194.660156 159.214844 194.664062 159.214844 L 195 159.605469 C 195.003906 159.609375 195.007812 159.613281 195.007812 159.617188 L 195.347656 160 C 195.351562 160 195.351562 160.003906 195.355469 160.007812 L 195.695312 160.378906 C 195.699219 160.382812 195.703125 160.386719 195.703125 160.390625 L 196.046875 160.753906 C 196.050781 160.757812 196.050781 160.761719 196.054688 160.765625 L 196.402344 161.125 C 196.402344 161.125 196.40625 161.128906 196.410156 161.132812 L 196.757812 161.484375 C 196.761719 161.488281 196.765625 161.492188 196.765625 161.496094 L 197.121094 161.84375 C 197.125 161.847656 197.125 161.851562 197.128906 161.851562 L 197.488281 162.199219 C 197.492188 162.199219 197.496094 162.203125 197.5 162.207031 L 197.863281 162.546875 C 197.867188 162.550781 197.871094 162.554688 197.871094 162.558594 L 198.246094 162.898438 C 198.25 162.898438 198.25 162.902344 198.253906 162.90625 L 198.636719 163.242188 C 198.640625 163.246094 198.644531 163.25 198.644531 163.253906 L 199.035156 163.589844 C 199.039062 163.59375 199.042969 163.597656 199.046875 163.597656 L 199.449219 163.9375 C 199.453125 163.941406 199.457031 163.941406 199.457031 163.945312 L 199.871094 164.285156 C 199.875 164.285156 199.878906 164.289062 199.882812 164.292969 L 200.3125 164.632812 C 200.316406 164.636719 200.320312 164.636719 200.324219 164.640625 L 200.765625 164.984375 C 200.769531 164.984375 200.773438 164.988281 200.777344 164.992188 L 201.238281 165.335938 C 201.242188 165.339844 201.246094 165.34375 201.25 165.34375 L 201.730469 165.695312 C 201.734375 165.699219 201.742188 165.699219 201.746094 165.703125 L 202.25 166.058594 C 202.253906 166.0625 202.257812 166.0625 202.261719 166.066406 L 202.792969 166.425781 C 202.796875 166.429688 202.800781 166.433594 202.804688 166.4375 L 203.367188 166.800781 C 203.371094 166.804688 203.375 166.808594 203.378906 166.8125 L 203.972656 167.1875 C 203.980469 167.191406 203.984375 167.191406 203.988281 167.195312 L 204.621094 167.582031 C 204.628906 167.582031 204.632812 167.585938 204.636719 167.589844 L 205.316406 167.984375 C 205.324219 167.988281 205.328125 167.992188 205.332031 167.996094 L 206.066406 168.402344 C 206.074219 168.40625 206.078125 168.410156 206.085938 168.414062 L 206.882812 168.835938 C 206.890625 168.839844 206.894531 168.84375 206.902344 168.847656 L 207.777344 169.289062 C 207.785156 169.289062 207.789062 169.292969 207.796875 169.296875 L 208.765625 169.757812 C 208.773438 169.761719 208.78125 169.765625 208.789062 169.769531 L 209.878906 170.253906 C 209.886719 170.257812 209.894531 170.261719 209.902344 170.265625 L 211.140625 170.777344 C 211.152344 170.78125 211.160156 170.785156 211.167969 170.789062 L 212.609375 171.335938 C 212.621094 171.339844 212.628906 171.34375 212.640625 171.347656 L 214.359375 171.9375 C 214.371094 171.941406 214.382812 171.945312 214.394531 171.949219 L 216.53125 172.59375 C 216.546875 172.597656 216.5625 172.601562 216.574219 172.605469 L 219.402344 173.324219 C 219.421875 173.328125 219.441406 173.332031 219.457031 173.335938 L 223.699219 174.164062 C 223.738281 174.167969 223.777344 174.175781 223.816406 174.179688 L 224.691406 174.242188 C 225.925781 174.335938 225.925781 176.144531 224.691406 176.238281 L 223.816406 176.304688 "/>
</svg>
