<?xml version="1.0" encoding="utf-8"?>
<svg xmlns="http://www.w3.org/2000/svg" xmlns:xlink="http://www.w3.org/1999/xlink" width="500" height="300" viewBox="0 0 2000 1200">
<defs>
  <clipPath id="clip710">
    <rect x="0" y="0" width="2000" height="1200"/>
  </clipPath>
</defs>
<path clip-path="url(#clip710)" d="M0 1200 L2000 1200 L2000 0 L0 0  Z" fill="#ffffff" fill-rule="evenodd" fill-opacity="1"/>
<defs>
  <clipPath id="clip711">
    <rect x="400" y="0" width="1401" height="1200"/>
  </clipPath>
</defs>
<path clip-path="url(#clip710)" d="M243.749 1093.9 L1439.59 1093.9 L1439.59 47.2441 L243.749 47.2441  Z" fill="#ffffff" fill-rule="evenodd" fill-opacity="1"/>
<defs>
  <clipPath id="clip712">
    <rect x="243" y="47" width="1197" height="1048"/>
  </clipPath>
</defs>
<polyline clip-path="url(#clip712)" style="stroke:#000000; stroke-linecap:round; stroke-linejoin:round; stroke-width:2; stroke-opacity:0.1; fill:none" points="458.465,1093.9 458.465,47.2441 "/>
<polyline clip-path="url(#clip712)" style="stroke:#000000; stroke-linecap:round; stroke-linejoin:round; stroke-width:2; stroke-opacity:0.1; fill:none" points="841.669,1093.9 841.669,47.2441 "/>
<polyline clip-path="url(#clip712)" style="stroke:#000000; stroke-linecap:round; stroke-linejoin:round; stroke-width:2; stroke-opacity:0.1; fill:none" points="1224.87,1093.9 1224.87,47.2441 "/>
<polyline clip-path="url(#clip712)" style="stroke:#000000; stroke-linecap:round; stroke-linejoin:round; stroke-width:2; stroke-opacity:0.1; fill:none" points="243.749,772.778 1439.59,772.778 "/>
<polyline clip-path="url(#clip712)" style="stroke:#000000; stroke-linecap:round; stroke-linejoin:round; stroke-width:2; stroke-opacity:0.1; fill:none" points="243.749,396.345 1439.59,396.345 "/>
<polyline clip-path="url(#clip710)" style="stroke:#000000; stroke-linecap:round; stroke-linejoin:round; stroke-width:4; stroke-opacity:1; fill:none" points="243.749,1093.9 1439.59,1093.9 "/>
<polyline clip-path="url(#clip710)" style="stroke:#000000; stroke-linecap:round; stroke-linejoin:round; stroke-width:4; stroke-opacity:1; fill:none" points="458.465,1093.9 458.465,1075.01 "/>
<polyline clip-path="url(#clip710)" style="stroke:#000000; stroke-linecap:round; stroke-linejoin:round; stroke-width:4; stroke-opacity:1; fill:none" points="841.669,1093.9 841.669,1075.01 "/>
<polyline clip-path="url(#clip710)" style="stroke:#000000; stroke-linecap:round; stroke-linejoin:round; stroke-width:4; stroke-opacity:1; fill:none" points="1224.87,1093.9 1224.87,1075.01 "/>
<path clip-path="url(#clip710)" d="M378.616 1148.17 L378.616 1138.89 L370.977 1138.89 L370.977 1135.05 L383.246 1135.05 L383.246 1149.89 Q380.537 1151.81 377.274 1152.8 Q374.01 1153.78 370.306 1153.78 Q362.204 1153.78 357.621 1149.05 Q353.061 1144.31 353.061 1135.86 Q353.061 1127.39 357.621 1122.66 Q362.204 1117.92 370.306 1117.92 Q373.686 1117.92 376.718 1118.75 Q379.774 1119.59 382.343 1121.21 L382.343 1126.18 Q379.75 1123.98 376.834 1122.87 Q373.917 1121.76 370.7 1121.76 Q364.357 1121.76 361.163 1125.3 Q357.991 1128.84 357.991 1135.86 Q357.991 1142.85 361.163 1146.39 Q364.357 1149.93 370.7 1149.93 Q373.176 1149.93 375.121 1149.52 Q377.065 1149.08 378.616 1148.17 Z" fill="#000000" fill-rule="nonzero" fill-opacity="1" /><path clip-path="url(#clip710)" d="M403.385 1140.07 Q398.223 1140.07 396.232 1141.25 Q394.241 1142.43 394.241 1145.28 Q394.241 1147.55 395.723 1148.89 Q397.227 1150.21 399.797 1150.21 Q403.338 1150.21 405.468 1147.71 Q407.621 1145.19 407.621 1141.02 L407.621 1140.07 L403.385 1140.07 M411.88 1138.31 L411.88 1153.1 L407.621 1153.1 L407.621 1149.17 Q406.162 1151.53 403.986 1152.66 Q401.81 1153.78 398.662 1153.78 Q394.681 1153.78 392.32 1151.55 Q389.982 1149.31 389.982 1145.56 Q389.982 1141.18 392.898 1138.96 Q395.838 1136.74 401.648 1136.74 L407.621 1136.74 L407.621 1136.32 Q407.621 1133.38 405.676 1131.78 Q403.755 1130.16 400.26 1130.16 Q398.037 1130.16 395.931 1130.7 Q393.824 1131.23 391.88 1132.29 L391.88 1128.36 Q394.218 1127.46 396.417 1127.02 Q398.616 1126.55 400.699 1126.55 Q406.324 1126.55 409.102 1129.47 Q411.88 1132.39 411.88 1138.31 Z" fill="#000000" fill-rule="nonzero" fill-opacity="1" /><path clip-path="url(#clip710)" d="M420.213 1142.87 L420.213 1127.18 L424.472 1127.18 L424.472 1142.71 Q424.472 1146.39 425.908 1148.24 Q427.343 1150.07 430.213 1150.07 Q433.662 1150.07 435.653 1147.87 Q437.667 1145.67 437.667 1141.88 L437.667 1127.18 L441.926 1127.18 L441.926 1153.1 L437.667 1153.1 L437.667 1149.12 Q436.116 1151.48 434.056 1152.64 Q432.019 1153.78 429.31 1153.78 Q424.843 1153.78 422.528 1151 Q420.213 1148.22 420.213 1142.87 M430.931 1126.55 L430.931 1126.55 Z" fill="#000000" fill-rule="nonzero" fill-opacity="1" /><path clip-path="url(#clip710)" d="M467.227 1127.94 L467.227 1131.97 Q465.421 1131.04 463.477 1130.58 Q461.532 1130.12 459.449 1130.12 Q456.278 1130.12 454.681 1131.09 Q453.106 1132.06 453.106 1134.01 Q453.106 1135.49 454.241 1136.34 Q455.375 1137.18 458.801 1137.94 L460.259 1138.27 Q464.796 1139.24 466.694 1141.02 Q468.616 1142.78 468.616 1145.95 Q468.616 1149.56 465.745 1151.67 Q462.898 1153.78 457.898 1153.78 Q455.815 1153.78 453.546 1153.36 Q451.301 1152.96 448.801 1152.15 L448.801 1147.76 Q451.162 1148.98 453.454 1149.61 Q455.745 1150.21 457.991 1150.21 Q461 1150.21 462.62 1149.19 Q464.241 1148.15 464.241 1146.28 Q464.241 1144.54 463.06 1143.61 Q461.903 1142.69 457.944 1141.83 L456.463 1141.48 Q452.505 1140.65 450.745 1138.94 Q448.986 1137.2 448.986 1134.19 Q448.986 1130.53 451.579 1128.54 Q454.171 1126.55 458.94 1126.55 Q461.301 1126.55 463.384 1126.9 Q465.468 1127.25 467.227 1127.94 Z" fill="#000000" fill-rule="nonzero" fill-opacity="1" /><path clip-path="url(#clip710)" d="M491.926 1127.94 L491.926 1131.97 Q490.12 1131.04 488.176 1130.58 Q486.231 1130.12 484.148 1130.12 Q480.977 1130.12 479.379 1131.09 Q477.805 1132.06 477.805 1134.01 Q477.805 1135.49 478.94 1136.34 Q480.074 1137.18 483.5 1137.94 L484.958 1138.27 Q489.495 1139.24 491.393 1141.02 Q493.315 1142.78 493.315 1145.95 Q493.315 1149.56 490.444 1151.67 Q487.597 1153.78 482.597 1153.78 Q480.514 1153.78 478.245 1153.36 Q476 1152.96 473.5 1152.15 L473.5 1147.76 Q475.861 1148.98 478.153 1149.61 Q480.444 1150.21 482.69 1150.21 Q485.699 1150.21 487.319 1149.19 Q488.94 1148.15 488.94 1146.28 Q488.94 1144.54 487.759 1143.61 Q486.602 1142.69 482.643 1141.83 L481.162 1141.48 Q477.204 1140.65 475.444 1138.94 Q473.685 1137.2 473.685 1134.19 Q473.685 1130.53 476.278 1128.54 Q478.87 1126.55 483.639 1126.55 Q486 1126.55 488.083 1126.9 Q490.166 1127.25 491.926 1127.94 Z" fill="#000000" fill-rule="nonzero" fill-opacity="1" /><path clip-path="url(#clip710)" d="M500.097 1127.18 L504.356 1127.18 L504.356 1153.1 L500.097 1153.1 L500.097 1127.18 M500.097 1117.09 L504.356 1117.09 L504.356 1122.48 L500.097 1122.48 L500.097 1117.09 Z" fill="#000000" fill-rule="nonzero" fill-opacity="1" /><path clip-path="url(#clip710)" d="M525.051 1140.07 Q519.889 1140.07 517.898 1141.25 Q515.907 1142.43 515.907 1145.28 Q515.907 1147.55 517.389 1148.89 Q518.893 1150.21 521.463 1150.21 Q525.004 1150.21 527.134 1147.71 Q529.287 1145.19 529.287 1141.02 L529.287 1140.07 L525.051 1140.07 M533.546 1138.31 L533.546 1153.1 L529.287 1153.1 L529.287 1149.17 Q527.828 1151.53 525.652 1152.66 Q523.476 1153.78 520.328 1153.78 Q516.347 1153.78 513.986 1151.55 Q511.648 1149.31 511.648 1145.56 Q511.648 1141.18 514.564 1138.96 Q517.504 1136.74 523.314 1136.74 L529.287 1136.74 L529.287 1136.32 Q529.287 1133.38 527.342 1131.78 Q525.421 1130.16 521.926 1130.16 Q519.703 1130.16 517.597 1130.7 Q515.49 1131.23 513.546 1132.29 L513.546 1128.36 Q515.884 1127.46 518.083 1127.02 Q520.282 1126.55 522.365 1126.55 Q527.99 1126.55 530.768 1129.47 Q533.546 1132.39 533.546 1138.31 Z" fill="#000000" fill-rule="nonzero" fill-opacity="1" /><path clip-path="url(#clip710)" d="M563.87 1137.46 L563.87 1153.1 L559.611 1153.1 L559.611 1137.59 Q559.611 1133.91 558.175 1132.09 Q556.74 1130.26 553.87 1130.26 Q550.421 1130.26 548.43 1132.46 Q546.439 1134.65 546.439 1138.45 L546.439 1153.1 L542.157 1153.1 L542.157 1127.18 L546.439 1127.18 L546.439 1131.21 Q547.967 1128.87 550.027 1127.71 Q552.111 1126.55 554.819 1126.55 Q559.286 1126.55 561.578 1129.33 Q563.87 1132.09 563.87 1137.46 Z" fill="#000000" fill-rule="nonzero" fill-opacity="1" /><path clip-path="url(#clip710)" d="M760.269 1123.15 L753.926 1140.35 L766.634 1140.35 L760.269 1123.15 M757.63 1118.54 L762.931 1118.54 L776.102 1153.1 L771.241 1153.1 L768.093 1144.24 L752.514 1144.24 L749.366 1153.1 L744.435 1153.1 L757.63 1118.54 Z" fill="#000000" fill-rule="nonzero" fill-opacity="1" /><path clip-path="url(#clip710)" d="M780.963 1127.18 L785.222 1127.18 L785.222 1153.1 L780.963 1153.1 L780.963 1127.18 M780.963 1117.09 L785.222 1117.09 L785.222 1122.48 L780.963 1122.48 L780.963 1117.09 Z" fill="#000000" fill-rule="nonzero" fill-opacity="1" /><path clip-path="url(#clip710)" d="M809.157 1131.16 Q808.44 1130.74 807.583 1130.56 Q806.75 1130.35 805.731 1130.35 Q802.12 1130.35 800.176 1132.71 Q798.255 1135.05 798.255 1139.45 L798.255 1153.1 L793.972 1153.1 L793.972 1127.18 L798.255 1127.18 L798.255 1131.21 Q799.597 1128.84 801.75 1127.71 Q803.903 1126.55 806.981 1126.55 Q807.421 1126.55 807.954 1126.62 Q808.486 1126.67 809.134 1126.78 L809.157 1131.16 Z" fill="#000000" fill-rule="nonzero" fill-opacity="1" /><path clip-path="url(#clip710)" d="M824.412 1155.51 Q822.606 1160.14 820.893 1161.55 Q819.18 1162.96 816.31 1162.96 L812.907 1162.96 L812.907 1159.4 L815.407 1159.4 Q817.167 1159.4 818.139 1158.57 Q819.111 1157.73 820.292 1154.63 L821.055 1152.69 L810.569 1127.18 L815.083 1127.18 L823.185 1147.46 L831.287 1127.18 L835.801 1127.18 L824.412 1155.51 Z" fill="#000000" fill-rule="nonzero" fill-opacity="1" /><path clip-path="url(#clip710)" d="M846.541 1122.39 L846.541 1149.26 L852.19 1149.26 Q859.342 1149.26 862.652 1146.02 Q865.986 1142.78 865.986 1135.79 Q865.986 1128.84 862.652 1125.63 Q859.342 1122.39 852.19 1122.39 L846.541 1122.39 M841.866 1118.54 L851.472 1118.54 Q861.518 1118.54 866.217 1122.73 Q870.916 1126.9 870.916 1135.79 Q870.916 1144.72 866.194 1148.91 Q861.472 1153.1 851.472 1153.1 L841.866 1153.1 L841.866 1118.54 Z" fill="#000000" fill-rule="nonzero" fill-opacity="1" /><path clip-path="url(#clip710)" d="M878.185 1127.18 L882.444 1127.18 L882.444 1153.1 L878.185 1153.1 L878.185 1127.18 M878.185 1117.09 L882.444 1117.09 L882.444 1122.48 L878.185 1122.48 L878.185 1117.09 Z" fill="#000000" fill-rule="nonzero" fill-opacity="1" /><path clip-path="url(#clip710)" d="M907.884 1127.94 L907.884 1131.97 Q906.078 1131.04 904.134 1130.58 Q902.189 1130.12 900.106 1130.12 Q896.935 1130.12 895.337 1131.09 Q893.763 1132.06 893.763 1134.01 Q893.763 1135.49 894.898 1136.34 Q896.032 1137.18 899.458 1137.94 L900.916 1138.27 Q905.453 1139.24 907.351 1141.02 Q909.273 1142.78 909.273 1145.95 Q909.273 1149.56 906.402 1151.67 Q903.555 1153.78 898.555 1153.78 Q896.472 1153.78 894.203 1153.36 Q891.958 1152.96 889.458 1152.15 L889.458 1147.76 Q891.819 1148.98 894.111 1149.61 Q896.402 1150.21 898.648 1150.21 Q901.657 1150.21 903.277 1149.19 Q904.898 1148.15 904.898 1146.28 Q904.898 1144.54 903.717 1143.61 Q902.56 1142.69 898.601 1141.83 L897.12 1141.48 Q893.162 1140.65 891.402 1138.94 Q889.643 1137.2 889.643 1134.19 Q889.643 1130.53 892.236 1128.54 Q894.828 1126.55 899.597 1126.55 Q901.958 1126.55 904.041 1126.9 Q906.124 1127.25 907.884 1127.94 Z" fill="#000000" fill-rule="nonzero" fill-opacity="1" /><path clip-path="url(#clip710)" d="M915.893 1117.09 L920.175 1117.09 L920.175 1138.36 L932.884 1127.18 L938.323 1127.18 L924.573 1139.31 L938.902 1153.1 L933.347 1153.1 L920.175 1140.44 L920.175 1153.1 L915.893 1153.1 L915.893 1117.09 Z" fill="#000000" fill-rule="nonzero" fill-opacity="1" /><path clip-path="url(#clip710)" d="M1152.3 1118.54 L1159.27 1118.54 L1168.09 1142.06 L1176.96 1118.54 L1183.92 1118.54 L1183.92 1153.1 L1179.36 1153.1 L1179.36 1122.76 L1170.45 1146.46 L1165.75 1146.46 L1156.84 1122.76 L1156.84 1153.1 L1152.3 1153.1 L1152.3 1118.54 Z" fill="#000000" fill-rule="nonzero" fill-opacity="1" /><path clip-path="url(#clip710)" d="M1203.07 1130.16 Q1199.64 1130.16 1197.65 1132.85 Q1195.66 1135.51 1195.66 1140.16 Q1195.66 1144.82 1197.63 1147.5 Q1199.62 1150.16 1203.07 1150.16 Q1206.47 1150.16 1208.46 1147.48 Q1210.45 1144.79 1210.45 1140.16 Q1210.45 1135.56 1208.46 1132.87 Q1206.47 1130.16 1203.07 1130.16 M1203.07 1126.55 Q1208.62 1126.55 1211.79 1130.16 Q1214.96 1133.78 1214.96 1140.16 Q1214.96 1146.53 1211.79 1150.16 Q1208.62 1153.78 1203.07 1153.78 Q1197.49 1153.78 1194.32 1150.16 Q1191.17 1146.53 1191.17 1140.16 Q1191.17 1133.78 1194.32 1130.16 Q1197.49 1126.55 1203.07 1126.55 Z" fill="#000000" fill-rule="nonzero" fill-opacity="1" /><path clip-path="url(#clip710)" d="M1235.15 1117.09 L1235.15 1120.63 L1231.08 1120.63 Q1228.78 1120.63 1227.88 1121.55 Q1227 1122.48 1227 1124.89 L1227 1127.18 L1234.02 1127.18 L1234.02 1130.49 L1227 1130.49 L1227 1153.1 L1222.72 1153.1 L1222.72 1130.49 L1218.65 1130.49 L1218.65 1127.18 L1222.72 1127.18 L1222.72 1125.37 Q1222.72 1121.04 1224.73 1119.08 Q1226.75 1117.09 1231.12 1117.09 L1235.15 1117.09 Z" fill="#000000" fill-rule="nonzero" fill-opacity="1" /><path clip-path="url(#clip710)" d="M1251.84 1117.09 L1251.84 1120.63 L1247.77 1120.63 Q1245.47 1120.63 1244.57 1121.55 Q1243.69 1122.48 1243.69 1124.89 L1243.69 1127.18 L1250.71 1127.18 L1250.71 1130.49 L1243.69 1130.49 L1243.69 1153.1 L1239.41 1153.1 L1239.41 1130.49 L1235.34 1130.49 L1235.34 1127.18 L1239.41 1127.18 L1239.41 1125.37 Q1239.41 1121.04 1241.42 1119.08 Q1243.44 1117.09 1247.81 1117.09 L1251.84 1117.09 Z" fill="#000000" fill-rule="nonzero" fill-opacity="1" /><path clip-path="url(#clip710)" d="M1267.19 1140.07 Q1262.02 1140.07 1260.03 1141.25 Q1258.04 1142.43 1258.04 1145.28 Q1258.04 1147.55 1259.52 1148.89 Q1261.03 1150.21 1263.6 1150.21 Q1267.14 1150.21 1269.27 1147.71 Q1271.42 1145.19 1271.42 1141.02 L1271.42 1140.07 L1267.19 1140.07 M1275.68 1138.31 L1275.68 1153.1 L1271.42 1153.1 L1271.42 1149.17 Q1269.96 1151.53 1267.79 1152.66 Q1265.61 1153.78 1262.46 1153.78 Q1258.48 1153.78 1256.12 1151.55 Q1253.78 1149.31 1253.78 1145.56 Q1253.78 1141.18 1256.7 1138.96 Q1259.64 1136.74 1265.45 1136.74 L1271.42 1136.74 L1271.42 1136.32 Q1271.42 1133.38 1269.48 1131.78 Q1267.56 1130.16 1264.06 1130.16 Q1261.84 1130.16 1259.73 1130.7 Q1257.63 1131.23 1255.68 1132.29 L1255.68 1128.36 Q1258.02 1127.46 1260.22 1127.02 Q1262.42 1126.55 1264.5 1126.55 Q1270.13 1126.55 1272.9 1129.47 Q1275.68 1132.39 1275.68 1138.31 Z" fill="#000000" fill-rule="nonzero" fill-opacity="1" /><path clip-path="url(#clip710)" d="M1288.67 1119.82 L1288.67 1127.18 L1297.44 1127.18 L1297.44 1130.49 L1288.67 1130.49 L1288.67 1144.56 Q1288.67 1147.73 1289.52 1148.64 Q1290.4 1149.54 1293.07 1149.54 L1297.44 1149.54 L1297.44 1153.1 L1293.07 1153.1 Q1288.14 1153.1 1286.26 1151.28 Q1284.39 1149.42 1284.39 1144.56 L1284.39 1130.49 L1281.26 1130.49 L1281.26 1127.18 L1284.39 1127.18 L1284.39 1119.82 L1288.67 1119.82 Z" fill="#000000" fill-rule="nonzero" fill-opacity="1" /><polyline clip-path="url(#clip710)" style="stroke:#000000; stroke-linecap:round; stroke-linejoin:round; stroke-width:4; stroke-opacity:1; fill:none" points="243.749,1093.9 243.749,47.2441 "/>
<polyline clip-path="url(#clip710)" style="stroke:#000000; stroke-linecap:round; stroke-linejoin:round; stroke-width:4; stroke-opacity:1; fill:none" points="243.749,772.778 256.972,772.778 "/>
<polyline clip-path="url(#clip710)" style="stroke:#000000; stroke-linecap:round; stroke-linejoin:round; stroke-width:4; stroke-opacity:1; fill:none" points="243.749,396.345 256.972,396.345 "/>
<path clip-path="url(#clip710)" d="M112.386 792.571 L120.025 792.571 L120.025 766.205 L111.715 767.872 L111.715 763.612 L119.979 761.946 L124.655 761.946 L124.655 792.571 L132.294 792.571 L132.294 796.506 L112.386 796.506 L112.386 792.571 Z" fill="#000000" fill-rule="nonzero" fill-opacity="1" /><path clip-path="url(#clip710)" d="M151.738 765.024 Q148.127 765.024 146.298 768.589 Q144.493 772.131 144.493 779.26 Q144.493 786.367 146.298 789.932 Q148.127 793.473 151.738 793.473 Q155.372 793.473 157.178 789.932 Q159.006 786.367 159.006 779.26 Q159.006 772.131 157.178 768.589 Q155.372 765.024 151.738 765.024 M151.738 761.321 Q157.548 761.321 160.604 765.927 Q163.682 770.511 163.682 779.26 Q163.682 787.987 160.604 792.594 Q157.548 797.177 151.738 797.177 Q145.928 797.177 142.849 792.594 Q139.794 787.987 139.794 779.26 Q139.794 770.511 142.849 765.927 Q145.928 761.321 151.738 761.321 Z" fill="#000000" fill-rule="nonzero" fill-opacity="1" /><path clip-path="url(#clip710)" d="M163.682 755.422 L187.794 755.422 L187.794 758.619 L163.682 758.619 L163.682 755.422 Z" fill="#000000" fill-rule="nonzero" fill-opacity="1" /><path clip-path="url(#clip710)" d="M204.119 755.761 Q201.411 755.761 199.85 757.209 Q198.307 758.657 198.307 761.196 Q198.307 763.735 199.85 765.183 Q201.411 766.632 204.119 766.632 Q206.827 766.632 208.388 765.183 Q209.949 763.716 209.949 761.196 Q209.949 758.657 208.388 757.209 Q206.846 755.761 204.119 755.761 M200.32 754.143 Q197.875 753.541 196.502 751.867 Q195.148 750.194 195.148 747.786 Q195.148 744.42 197.536 742.464 Q199.944 740.508 204.119 740.508 Q208.313 740.508 210.702 742.464 Q213.09 744.42 213.09 747.786 Q213.09 750.194 211.717 751.867 Q210.363 753.541 207.937 754.143 Q210.683 754.783 212.206 756.645 Q213.749 758.507 213.749 761.196 Q213.749 765.277 211.247 767.459 Q208.765 769.641 204.119 769.641 Q199.474 769.641 196.972 767.459 Q194.489 765.277 194.489 761.196 Q194.489 758.507 196.032 756.645 Q197.574 754.783 200.32 754.143 M198.928 748.144 Q198.928 750.325 200.282 751.548 Q201.655 752.77 204.119 752.77 Q206.564 752.77 207.937 751.548 Q209.329 750.325 209.329 748.144 Q209.329 745.962 207.937 744.739 Q206.564 743.517 204.119 743.517 Q201.655 743.517 200.282 744.739 Q198.928 745.962 198.928 748.144 Z" fill="#000000" fill-rule="nonzero" fill-opacity="1" /><path clip-path="url(#clip710)" d="M112.179 416.138 L119.818 416.138 L119.818 389.772 L111.508 391.439 L111.508 387.18 L119.772 385.513 L124.448 385.513 L124.448 416.138 L132.087 416.138 L132.087 420.073 L112.179 420.073 L112.179 416.138 Z" fill="#000000" fill-rule="nonzero" fill-opacity="1" /><path clip-path="url(#clip710)" d="M151.531 388.592 Q147.92 388.592 146.091 392.156 Q144.286 395.698 144.286 402.828 Q144.286 409.934 146.091 413.499 Q147.92 417.04 151.531 417.04 Q155.165 417.04 156.971 413.499 Q158.8 409.934 158.8 402.828 Q158.8 395.698 156.971 392.156 Q155.165 388.592 151.531 388.592 M151.531 384.888 Q157.341 384.888 160.397 389.494 Q163.475 394.078 163.475 402.828 Q163.475 411.554 160.397 416.161 Q157.341 420.744 151.531 420.744 Q145.721 420.744 142.642 416.161 Q139.587 411.554 139.587 402.828 Q139.587 394.078 142.642 389.494 Q145.721 384.888 151.531 384.888 Z" fill="#000000" fill-rule="nonzero" fill-opacity="1" /><path clip-path="url(#clip710)" d="M163.475 378.989 L187.587 378.989 L187.587 382.187 L163.475 382.187 L163.475 378.989 Z" fill="#000000" fill-rule="nonzero" fill-opacity="1" /><path clip-path="url(#clip710)" d="M204.382 377.108 Q201.825 377.108 200.32 378.858 Q198.834 380.607 198.834 383.654 Q198.834 386.682 200.32 388.45 Q201.825 390.199 204.382 390.199 Q206.94 390.199 208.426 388.45 Q209.931 386.682 209.931 383.654 Q209.931 380.607 208.426 378.858 Q206.94 377.108 204.382 377.108 M211.924 365.203 L211.924 368.664 Q210.495 367.987 209.028 367.629 Q207.58 367.272 206.15 367.272 Q202.389 367.272 200.395 369.811 Q198.42 372.35 198.138 377.485 Q199.248 375.848 200.922 374.983 Q202.596 374.099 204.608 374.099 Q208.84 374.099 211.285 376.676 Q213.749 379.234 213.749 383.654 Q213.749 387.979 211.191 390.594 Q208.633 393.208 204.382 393.208 Q199.511 393.208 196.934 389.484 Q194.358 385.741 194.358 378.651 Q194.358 371.993 197.518 368.043 Q200.677 364.075 206 364.075 Q207.429 364.075 208.877 364.357 Q210.344 364.639 211.924 365.203 Z" fill="#000000" fill-rule="nonzero" fill-opacity="1" /><path clip-path="url(#clip710)" d="M21.4827 683.12 L31.6042 683.12 L31.6042 671.057 L36.1557 671.057 L36.1557 683.12 L55.5074 683.12 Q59.8679 683.12 61.1093 681.942 Q62.3506 680.733 62.3506 677.072 L62.3506 671.057 L67.2522 671.057 L67.2522 677.072 Q67.2522 683.852 64.7377 686.43 Q62.1914 689.008 55.5074 689.008 L36.1557 689.008 L36.1557 693.305 L31.6042 693.305 L31.6042 689.008 L21.4827 689.008 L21.4827 683.12 Z" fill="#000000" fill-rule="nonzero" fill-opacity="1" /><path clip-path="url(#clip710)" d="M31.6042 663.354 L31.6042 657.498 L67.2522 657.498 L67.2522 663.354 L31.6042 663.354 M17.727 663.354 L17.727 657.498 L25.143 657.498 L25.143 663.354 L17.727 663.354 Z" fill="#000000" fill-rule="nonzero" fill-opacity="1" /><path clip-path="url(#clip710)" d="M38.4473 617.489 Q34.5006 615.293 32.6227 612.238 Q30.7448 609.182 30.7448 605.044 Q30.7448 599.474 34.6597 596.451 Q38.5428 593.427 45.7361 593.427 L67.2522 593.427 L67.2522 599.315 L45.927 599.315 Q40.8026 599.315 38.32 601.129 Q35.8374 602.944 35.8374 606.668 Q35.8374 611.219 38.8611 613.861 Q41.8848 616.503 47.1047 616.503 L67.2522 616.503 L67.2522 622.391 L45.927 622.391 Q40.7708 622.391 38.32 624.205 Q35.8374 626.019 35.8374 629.807 Q35.8374 634.295 38.8929 636.936 Q41.9166 639.578 47.1047 639.578 L67.2522 639.578 L67.2522 645.467 L31.6042 645.467 L31.6042 639.578 L37.1424 639.578 Q33.864 637.573 32.3044 634.772 Q30.7448 631.971 30.7448 628.12 Q30.7448 624.237 32.7182 621.531 Q34.6916 618.794 38.4473 617.489 Z" fill="#000000" fill-rule="nonzero" fill-opacity="1" /><path clip-path="url(#clip710)" d="M47.9641 551.254 L50.8286 551.254 L50.8286 578.181 Q56.8761 577.799 60.0589 574.553 Q63.2099 571.274 63.2099 565.45 Q63.2099 562.076 62.3824 558.925 Q61.5549 555.742 59.8998 552.623 L65.4379 552.623 Q66.7747 555.774 67.475 559.084 Q68.1752 562.394 68.1752 565.8 Q68.1752 574.33 63.2099 579.327 Q58.2447 584.292 49.7783 584.292 Q41.0254 584.292 35.9011 579.581 Q30.7448 574.839 30.7448 566.818 Q30.7448 559.625 35.3918 555.455 Q40.0069 551.254 47.9641 551.254 M46.2453 557.111 Q41.4392 557.174 38.5746 559.816 Q35.7101 562.426 35.7101 566.755 Q35.7101 571.656 38.4792 574.616 Q41.2482 577.544 46.2772 577.99 L46.2453 557.111 Z" fill="#000000" fill-rule="nonzero" fill-opacity="1" /><path clip-path="url(#clip710)" d="M17.7906 506.853 Q25.1112 511.118 32.2726 513.187 Q39.434 515.256 46.7864 515.256 Q54.1388 515.256 61.3639 513.187 Q68.5571 511.086 75.8459 506.853 L75.8459 511.946 Q68.3662 516.72 61.1411 519.107 Q53.916 521.463 46.7864 521.463 Q39.6886 521.463 32.4954 519.107 Q25.3022 516.752 17.7906 511.946 L17.7906 506.853 Z" fill="#000000" fill-rule="nonzero" fill-opacity="1" /><path clip-path="url(#clip710)" d="M32.6545 472.765 L38.1927 472.765 Q36.9196 475.248 36.283 477.921 Q35.6464 480.595 35.6464 483.459 Q35.6464 487.82 36.9832 490.016 Q38.32 492.18 40.9936 492.18 Q43.0306 492.18 44.2083 490.621 Q45.3541 489.061 46.4045 484.35 L46.8501 482.345 Q48.1869 476.107 50.6377 473.497 Q53.0566 470.855 57.4171 470.855 Q62.3824 470.855 65.2788 474.802 Q68.1752 478.717 68.1752 485.592 Q68.1752 488.456 67.6023 491.576 Q67.0612 494.663 65.9472 498.1 L59.8998 498.1 Q61.5867 494.854 62.446 491.703 Q63.2736 488.552 63.2736 485.464 Q63.2736 481.327 61.8731 479.099 Q60.4409 476.871 57.8627 476.871 Q55.4756 476.871 54.2025 478.494 Q52.9293 480.085 51.7517 485.528 L51.2742 487.565 Q50.1284 493.008 47.7731 495.427 Q45.386 497.846 41.2482 497.846 Q36.2193 497.846 33.4821 494.281 Q30.7448 490.716 30.7448 484.16 Q30.7448 480.913 31.2223 478.048 Q31.6997 475.184 32.6545 472.765 Z" fill="#000000" fill-rule="nonzero" fill-opacity="1" /><path clip-path="url(#clip710)" d="M17.7906 462.452 L17.7906 457.36 Q25.3022 452.586 32.4954 450.23 Q39.6886 447.843 46.7864 447.843 Q53.916 447.843 61.1411 450.23 Q68.3662 452.586 75.8459 457.36 L75.8459 462.452 Q68.5571 458.219 61.3639 456.15 Q54.1388 454.05 46.7864 454.05 Q39.434 454.05 32.2726 456.15 Q25.1112 458.219 17.7906 462.452 Z" fill="#000000" fill-rule="nonzero" fill-opacity="1" /><path clip-path="url(#clip712)" d="M305.184 703.596 L305.184 1093.9 L458.465 1093.9 L458.465 703.596 L305.184 703.596 L305.184 703.596  Z" fill="#009af9" fill-rule="evenodd" fill-opacity="1"/>
<polyline clip-path="url(#clip712)" style="stroke:#000000; stroke-linecap:round; stroke-linejoin:round; stroke-width:4; stroke-opacity:1; fill:none" points="305.184,703.596 305.184,1093.9 458.465,1093.9 458.465,703.596 305.184,703.596 "/>
<path clip-path="url(#clip712)" d="M688.387 717.471 L688.387 1093.9 L841.669 1093.9 L841.669 717.471 L688.387 717.471 L688.387 717.471  Z" fill="#009af9" fill-rule="evenodd" fill-opacity="1"/>
<polyline clip-path="url(#clip712)" style="stroke:#000000; stroke-linecap:round; stroke-linejoin:round; stroke-width:4; stroke-opacity:1; fill:none" points="688.387,717.471 688.387,1093.9 841.669,1093.9 841.669,717.471 688.387,717.471 "/>
<path clip-path="url(#clip712)" d="M1071.59 703.547 L1071.59 1093.9 L1224.87 1093.9 L1224.87 703.547 L1071.59 703.547 L1071.59 703.547  Z" fill="#009af9" fill-rule="evenodd" fill-opacity="1"/>
<polyline clip-path="url(#clip712)" style="stroke:#000000; stroke-linecap:round; stroke-linejoin:round; stroke-width:4; stroke-opacity:1; fill:none" points="1071.59,703.547 1071.59,1093.9 1224.87,1093.9 1224.87,703.547 1071.59,703.547 "/>
<circle clip-path="url(#clip712)" style="fill:#009af9; stroke:none; fill-opacity:0" cx="381.825" cy="703.596" r="2"/>
<circle clip-path="url(#clip712)" style="fill:#009af9; stroke:none; fill-opacity:0" cx="765.028" cy="717.471" r="2"/>
<circle clip-path="url(#clip712)" style="fill:#009af9; stroke:none; fill-opacity:0" cx="1148.23" cy="703.547" r="2"/>
<path clip-path="url(#clip712)" d="M458.465 47.2441 L458.465 1093.9 L611.747 1093.9 L611.747 47.2441 L458.465 47.2441 L458.465 47.2441  Z" fill="#e26f46" fill-rule="evenodd" fill-opacity="1"/>
<polyline clip-path="url(#clip712)" style="stroke:#000000; stroke-linecap:round; stroke-linejoin:round; stroke-width:4; stroke-opacity:1; fill:none" points="458.465,47.2441 458.465,1093.9 611.747,1093.9 611.747,47.2441 458.465,47.2441 "/>
<path clip-path="url(#clip712)" d="M841.669 65.6144 L841.669 1093.9 L994.95 1093.9 L994.95 65.6144 L841.669 65.6144 L841.669 65.6144  Z" fill="#e26f46" fill-rule="evenodd" fill-opacity="1"/>
<polyline clip-path="url(#clip712)" style="stroke:#000000; stroke-linecap:round; stroke-linejoin:round; stroke-width:4; stroke-opacity:1; fill:none" points="841.669,65.6144 841.669,1093.9 994.95,1093.9 994.95,65.6144 841.669,65.6144 "/>
<path clip-path="url(#clip712)" d="M1224.87 71.3667 L1224.87 1093.9 L1378.15 1093.9 L1378.15 71.3667 L1224.87 71.3667 L1224.87 71.3667  Z" fill="#e26f46" fill-rule="evenodd" fill-opacity="1"/>
<polyline clip-path="url(#clip712)" style="stroke:#000000; stroke-linecap:round; stroke-linejoin:round; stroke-width:4; stroke-opacity:1; fill:none" points="1224.87,71.3667 1224.87,1093.9 1378.15,1093.9 1378.15,71.3667 1224.87,71.3667 "/>
<circle clip-path="url(#clip712)" style="fill:#e26f46; stroke:none; fill-opacity:0" cx="535.106" cy="47.2441" r="2"/>
<circle clip-path="url(#clip712)" style="fill:#e26f46; stroke:none; fill-opacity:0" cx="918.309" cy="65.6144" r="2"/>
<circle clip-path="url(#clip712)" style="fill:#e26f46; stroke:none; fill-opacity:0" cx="1301.51" cy="71.3667" r="2"/>
<path clip-path="url(#clip710)" d="M1496.56 237.653 L1952.76 237.653 L1952.76 82.1328 L1496.56 82.1328  Z" fill="#ffffff" fill-rule="evenodd" fill-opacity="1"/>
<polyline clip-path="url(#clip710)" style="stroke:#000000; stroke-linecap:round; stroke-linejoin:round; stroke-width:4; stroke-opacity:1; fill:none" points="1496.56,237.653 1952.76,237.653 1952.76,82.1328 1496.56,82.1328 1496.56,237.653 "/>
<path clip-path="url(#clip710)" d="M1515.54 154.709 L1629.48 154.709 L1629.48 113.237 L1515.54 113.237 L1515.54 154.709  Z" fill="#009af9" fill-rule="evenodd" fill-opacity="1"/>
<polyline clip-path="url(#clip710)" style="stroke:#000000; stroke-linecap:round; stroke-linejoin:round; stroke-width:4; stroke-opacity:1; fill:none" points="1515.54,154.709 1629.48,154.709 1629.48,113.237 1515.54,113.237 1515.54,154.709 "/>
<path clip-path="url(#clip710)" d="M1653.14 120.535 L1653.14 133.521 L1659.02 133.521 Q1662.29 133.521 1664.07 131.832 Q1665.85 130.142 1665.85 127.017 Q1665.85 123.915 1664.07 122.225 Q1662.29 120.535 1659.02 120.535 L1653.14 120.535 M1648.47 116.693 L1659.02 116.693 Q1664.83 116.693 1667.8 119.332 Q1670.78 121.947 1670.78 127.017 Q1670.78 132.132 1667.8 134.748 Q1664.83 137.364 1659.02 137.364 L1653.14 137.364 L1653.14 151.253 L1648.47 151.253 L1648.47 116.693 Z" fill="#000000" fill-rule="nonzero" fill-opacity="1" /><path clip-path="url(#clip710)" d="M1697.77 117.827 L1697.77 122.387 Q1695.11 121.114 1692.75 120.489 Q1690.39 119.864 1688.19 119.864 Q1684.37 119.864 1682.29 121.346 Q1680.23 122.827 1680.23 125.558 Q1680.23 127.85 1681.59 129.031 Q1682.98 130.188 1686.82 130.906 L1689.65 131.484 Q1694.88 132.48 1697.36 135.003 Q1699.86 137.503 1699.86 141.716 Q1699.86 146.739 1696.48 149.331 Q1693.12 151.924 1686.62 151.924 Q1684.16 151.924 1681.38 151.368 Q1678.63 150.813 1675.67 149.725 L1675.67 144.91 Q1678.51 146.507 1681.25 147.318 Q1683.98 148.128 1686.62 148.128 Q1690.62 148.128 1692.8 146.554 Q1694.97 144.98 1694.97 142.063 Q1694.97 139.517 1693.4 138.082 Q1691.85 136.646 1688.28 135.929 L1685.43 135.373 Q1680.2 134.332 1677.87 132.109 Q1675.53 129.887 1675.53 125.929 Q1675.53 121.346 1678.75 118.707 Q1681.99 116.068 1687.66 116.068 Q1690.09 116.068 1692.61 116.508 Q1695.13 116.947 1697.77 117.827 Z" fill="#000000" fill-rule="nonzero" fill-opacity="1" /><path clip-path="url(#clip710)" d="M1707.15 116.693 L1727.01 116.693 L1727.01 120.628 L1711.82 120.628 L1711.82 130.813 L1725.53 130.813 L1725.53 134.748 L1711.82 134.748 L1711.82 151.253 L1707.15 151.253 L1707.15 116.693 Z" fill="#000000" fill-rule="nonzero" fill-opacity="1" /><path clip-path="url(#clip710)" d="M1734.42 116.693 L1741.38 116.693 L1750.2 140.211 L1759.07 116.693 L1766.04 116.693 L1766.04 151.253 L1761.48 151.253 L1761.48 120.906 L1752.56 144.609 L1747.87 144.609 L1738.95 120.906 L1738.95 151.253 L1734.42 151.253 L1734.42 116.693 Z" fill="#000000" fill-rule="nonzero" fill-opacity="1" /><path clip-path="url(#clip710)" d="M1785.18 128.313 Q1781.75 128.313 1779.76 130.998 Q1777.77 133.66 1777.77 138.313 Q1777.77 142.966 1779.74 145.651 Q1781.73 148.313 1785.18 148.313 Q1788.58 148.313 1790.57 145.628 Q1792.56 142.943 1792.56 138.313 Q1792.56 133.707 1790.57 131.021 Q1788.58 128.313 1785.18 128.313 M1785.18 124.702 Q1790.74 124.702 1793.91 128.313 Q1797.08 131.924 1797.08 138.313 Q1797.08 144.679 1793.91 148.313 Q1790.74 151.924 1785.18 151.924 Q1779.6 151.924 1776.43 148.313 Q1773.28 144.679 1773.28 138.313 Q1773.28 131.924 1776.43 128.313 Q1779.6 124.702 1785.18 124.702 Z" fill="#000000" fill-rule="nonzero" fill-opacity="1" /><path clip-path="url(#clip710)" d="M1821.2 129.262 L1821.2 115.234 L1825.46 115.234 L1825.46 151.253 L1821.2 151.253 L1821.2 147.364 Q1819.86 149.679 1817.8 150.813 Q1815.76 151.924 1812.89 151.924 Q1808.19 151.924 1805.23 148.174 Q1802.29 144.424 1802.29 138.313 Q1802.29 132.202 1805.23 128.452 Q1808.19 124.702 1812.89 124.702 Q1815.76 124.702 1817.8 125.836 Q1819.86 126.947 1821.2 129.262 M1806.68 138.313 Q1806.68 143.012 1808.61 145.697 Q1810.55 148.359 1813.93 148.359 Q1817.31 148.359 1819.25 145.697 Q1821.2 143.012 1821.2 138.313 Q1821.2 133.614 1819.25 130.952 Q1817.31 128.267 1813.93 128.267 Q1810.55 128.267 1808.61 130.952 Q1806.68 133.614 1806.68 138.313 Z" fill="#000000" fill-rule="nonzero" fill-opacity="1" /><path clip-path="url(#clip710)" d="M1856.41 137.225 L1856.41 139.308 L1836.82 139.308 Q1837.1 143.706 1839.46 146.021 Q1841.85 148.313 1846.08 148.313 Q1848.54 148.313 1850.83 147.711 Q1853.14 147.109 1855.41 145.906 L1855.41 149.933 Q1853.12 150.906 1850.71 151.415 Q1848.3 151.924 1845.83 151.924 Q1839.62 151.924 1835.99 148.313 Q1832.38 144.702 1832.38 138.544 Q1832.38 132.179 1835.8 128.452 Q1839.25 124.702 1845.09 124.702 Q1850.32 124.702 1853.35 128.082 Q1856.41 131.438 1856.41 137.225 M1852.15 135.975 Q1852.1 132.48 1850.18 130.396 Q1848.28 128.313 1845.13 128.313 Q1841.57 128.313 1839.42 130.327 Q1837.29 132.341 1836.96 135.998 L1852.15 135.975 Z" fill="#000000" fill-rule="nonzero" fill-opacity="1" /><path clip-path="url(#clip710)" d="M1863.4 115.234 L1867.66 115.234 L1867.66 151.253 L1863.4 151.253 L1863.4 115.234 Z" fill="#000000" fill-rule="nonzero" fill-opacity="1" /><path clip-path="url(#clip710)" d="M1893.1 126.091 L1893.1 130.119 Q1891.29 129.193 1889.35 128.73 Q1887.4 128.267 1885.32 128.267 Q1882.15 128.267 1880.55 129.239 Q1878.98 130.211 1878.98 132.156 Q1878.98 133.637 1880.11 134.494 Q1881.24 135.327 1884.67 136.091 L1886.13 136.415 Q1890.67 137.387 1892.56 139.169 Q1894.48 140.929 1894.48 144.1 Q1894.48 147.711 1891.61 149.818 Q1888.77 151.924 1883.77 151.924 Q1881.68 151.924 1879.42 151.507 Q1877.17 151.114 1874.67 150.304 L1874.67 145.906 Q1877.03 147.132 1879.32 147.757 Q1881.61 148.359 1883.86 148.359 Q1886.87 148.359 1888.49 147.341 Q1890.11 146.299 1890.11 144.424 Q1890.11 142.688 1888.93 141.762 Q1887.77 140.836 1883.81 139.98 L1882.33 139.632 Q1878.37 138.799 1876.61 137.086 Q1874.86 135.35 1874.86 132.341 Q1874.86 128.683 1877.45 126.693 Q1880.04 124.702 1884.81 124.702 Q1887.17 124.702 1889.25 125.049 Q1891.34 125.396 1893.1 126.091 Z" fill="#000000" fill-rule="nonzero" fill-opacity="1" /><path clip-path="url(#clip710)" d="M1901.87 145.373 L1906.75 145.373 L1906.75 151.253 L1901.87 151.253 L1901.87 145.373 Z" fill="#000000" fill-rule="nonzero" fill-opacity="1" /><path clip-path="url(#clip710)" d="M1916.34 125.327 L1920.6 125.327 L1920.6 151.716 Q1920.6 156.669 1918.7 158.892 Q1916.82 161.114 1912.63 161.114 L1911.01 161.114 L1911.01 157.503 L1912.15 157.503 Q1914.58 157.503 1915.46 156.368 Q1916.34 155.257 1916.34 151.716 L1916.34 125.327 M1916.34 115.234 L1920.6 115.234 L1920.6 120.628 L1916.34 120.628 L1916.34 115.234 Z" fill="#000000" fill-rule="nonzero" fill-opacity="1" /><path clip-path="url(#clip710)" d="M1929.51 115.234 L1933.77 115.234 L1933.77 151.253 L1929.51 151.253 L1929.51 115.234 Z" fill="#000000" fill-rule="nonzero" fill-opacity="1" /><path clip-path="url(#clip710)" d="M1515.54 206.549 L1629.48 206.549 L1629.48 165.077 L1515.54 165.077 L1515.54 206.549  Z" fill="#e26f46" fill-rule="evenodd" fill-opacity="1"/>
<polyline clip-path="url(#clip710)" style="stroke:#000000; stroke-linecap:round; stroke-linejoin:round; stroke-width:4; stroke-opacity:1; fill:none" points="1515.54,206.549 1629.48,206.549 1629.48,165.077 1515.54,165.077 1515.54,206.549 "/>
<path clip-path="url(#clip710)" d="M1664.3 173.139 L1657.96 190.338 L1670.67 190.338 L1664.3 173.139 M1661.66 168.533 L1666.96 168.533 L1680.13 203.093 L1675.27 203.093 L1672.12 194.227 L1656.55 194.227 L1653.4 203.093 L1648.47 203.093 L1661.66 168.533 Z" fill="#000000" fill-rule="nonzero" fill-opacity="1" /><path clip-path="url(#clip710)" d="M1701.52 177.931 L1701.52 181.959 Q1699.72 181.033 1697.77 180.57 Q1695.83 180.107 1693.75 180.107 Q1690.57 180.107 1688.98 181.079 Q1687.4 182.051 1687.4 183.996 Q1687.4 185.477 1688.54 186.334 Q1689.67 187.167 1693.1 187.931 L1694.56 188.255 Q1699.09 189.227 1700.99 191.009 Q1702.91 192.769 1702.91 195.94 Q1702.91 199.551 1700.04 201.658 Q1697.19 203.764 1692.19 203.764 Q1690.11 203.764 1687.84 203.347 Q1685.6 202.954 1683.1 202.144 L1683.1 197.746 Q1685.46 198.972 1687.75 199.597 Q1690.04 200.199 1692.29 200.199 Q1695.3 200.199 1696.92 199.181 Q1698.54 198.139 1698.54 196.264 Q1698.54 194.528 1697.36 193.602 Q1696.2 192.676 1692.24 191.82 L1690.76 191.472 Q1686.8 190.639 1685.04 188.926 Q1683.28 187.19 1683.28 184.181 Q1683.28 180.523 1685.87 178.533 Q1688.47 176.542 1693.24 176.542 Q1695.6 176.542 1697.68 176.889 Q1699.76 177.236 1701.52 177.931 Z" fill="#000000" fill-rule="nonzero" fill-opacity="1" /><path clip-path="url(#clip710)" d="M1713.91 169.806 L1713.91 177.167 L1722.68 177.167 L1722.68 180.477 L1713.91 180.477 L1713.91 194.551 Q1713.91 197.722 1714.76 198.625 Q1715.64 199.528 1718.31 199.528 L1722.68 199.528 L1722.68 203.093 L1718.31 203.093 Q1713.37 203.093 1711.5 201.264 Q1709.62 199.412 1709.62 194.551 L1709.62 180.477 L1706.5 180.477 L1706.5 177.167 L1709.62 177.167 L1709.62 169.806 L1713.91 169.806 Z" fill="#000000" fill-rule="nonzero" fill-opacity="1" /><path clip-path="url(#clip710)" d="M1743.3 181.148 Q1742.59 180.732 1741.73 180.547 Q1740.9 180.338 1739.88 180.338 Q1736.27 180.338 1734.32 182.699 Q1732.4 185.037 1732.4 189.435 L1732.4 203.093 L1728.12 203.093 L1728.12 177.167 L1732.4 177.167 L1732.4 181.195 Q1733.74 178.834 1735.9 177.699 Q1738.05 176.542 1741.13 176.542 Q1741.57 176.542 1742.1 176.611 Q1742.63 176.658 1743.28 176.773 L1743.3 181.148 Z" fill="#000000" fill-rule="nonzero" fill-opacity="1" /><path clip-path="url(#clip710)" d="M1756.78 180.153 Q1753.35 180.153 1751.36 182.838 Q1749.37 185.5 1749.37 190.153 Q1749.37 194.806 1751.34 197.491 Q1753.33 200.153 1756.78 200.153 Q1760.18 200.153 1762.17 197.468 Q1764.16 194.783 1764.16 190.153 Q1764.16 185.547 1762.17 182.861 Q1760.18 180.153 1756.78 180.153 M1756.78 176.542 Q1762.33 176.542 1765.5 180.153 Q1768.68 183.764 1768.68 190.153 Q1768.68 196.519 1765.5 200.153 Q1762.33 203.764 1756.78 203.764 Q1751.2 203.764 1748.03 200.153 Q1744.88 196.519 1744.88 190.153 Q1744.88 183.764 1748.03 180.153 Q1751.2 176.542 1756.78 176.542 Z" fill="#000000" fill-rule="nonzero" fill-opacity="1" /><path clip-path="url(#clip710)" d="M1779.86 199.204 L1779.86 212.954 L1775.57 212.954 L1775.57 177.167 L1779.86 177.167 L1779.86 181.102 Q1781.2 178.787 1783.24 177.676 Q1785.3 176.542 1788.14 176.542 Q1792.86 176.542 1795.8 180.292 Q1798.77 184.042 1798.77 190.153 Q1798.77 196.264 1795.8 200.014 Q1792.86 203.764 1788.14 203.764 Q1785.3 203.764 1783.24 202.653 Q1781.2 201.519 1779.86 199.204 M1794.35 190.153 Q1794.35 185.454 1792.4 182.792 Q1790.48 180.107 1787.1 180.107 Q1783.72 180.107 1781.78 182.792 Q1779.86 185.454 1779.86 190.153 Q1779.86 194.852 1781.78 197.537 Q1783.72 200.199 1787.1 200.199 Q1790.48 200.199 1792.4 197.537 Q1794.35 194.852 1794.35 190.153 Z" fill="#000000" fill-rule="nonzero" fill-opacity="1" /><path clip-path="url(#clip710)" d="M1816.61 205.5 Q1814.81 210.13 1813.1 211.542 Q1811.38 212.954 1808.51 212.954 L1805.11 212.954 L1805.11 209.389 L1807.61 209.389 Q1809.37 209.389 1810.34 208.556 Q1811.31 207.722 1812.49 204.621 L1813.26 202.676 L1802.77 177.167 L1807.29 177.167 L1815.39 197.445 L1823.49 177.167 L1828 177.167 L1816.61 205.5 Z" fill="#000000" fill-rule="nonzero" fill-opacity="1" /></svg>
