<?xml version="1.0" encoding="utf-8"?>
<svg xmlns="http://www.w3.org/2000/svg" xmlns:xlink="http://www.w3.org/1999/xlink" width="600" height="400" viewBox="0 0 2400 1600">
<defs>
  <clipPath id="clip390">
    <rect x="0" y="0" width="2400" height="1600"/>
  </clipPath>
</defs>
<path clip-path="url(#clip390)" d="
M0 1600 L2400 1600 L2400 0 L0 0  Z
  " fill="#ffffff" fill-rule="evenodd" fill-opacity="1"/>
<defs>
  <clipPath id="clip391">
    <rect x="480" y="0" width="1681" height="1600"/>
  </clipPath>
</defs>
<path clip-path="url(#clip390)" d="
M203.964 1423.18 L2352.76 1423.18 L2352.76 47.2441 L203.964 47.2441  Z
  " fill="#ffffff" fill-rule="evenodd" fill-opacity="1"/>
<defs>
  <clipPath id="clip392">
    <rect x="203" y="47" width="2150" height="1377"/>
  </clipPath>
</defs>
<polyline clip-path="url(#clip392)" style="stroke:#000000; stroke-linecap:butt; stroke-linejoin:round; stroke-width:2; stroke-opacity:0.1; fill:none" points="
  264.778,1423.18 264.778,47.2441 
  "/>
<polyline clip-path="url(#clip392)" style="stroke:#000000; stroke-linecap:butt; stroke-linejoin:round; stroke-width:2; stroke-opacity:0.1; fill:none" points="
  771.569,1423.18 771.569,47.2441 
  "/>
<polyline clip-path="url(#clip392)" style="stroke:#000000; stroke-linecap:butt; stroke-linejoin:round; stroke-width:2; stroke-opacity:0.1; fill:none" points="
  1278.36,1423.18 1278.36,47.2441 
  "/>
<polyline clip-path="url(#clip392)" style="stroke:#000000; stroke-linecap:butt; stroke-linejoin:round; stroke-width:2; stroke-opacity:0.1; fill:none" points="
  1785.15,1423.18 1785.15,47.2441 
  "/>
<polyline clip-path="url(#clip392)" style="stroke:#000000; stroke-linecap:butt; stroke-linejoin:round; stroke-width:2; stroke-opacity:0.1; fill:none" points="
  2291.94,1423.18 2291.94,47.2441 
  "/>
<polyline clip-path="url(#clip390)" style="stroke:#000000; stroke-linecap:butt; stroke-linejoin:round; stroke-width:4; stroke-opacity:1; fill:none" points="
  203.964,1423.18 2352.76,1423.18 
  "/>
<polyline clip-path="url(#clip390)" style="stroke:#000000; stroke-linecap:butt; stroke-linejoin:round; stroke-width:4; stroke-opacity:1; fill:none" points="
  264.778,1423.18 264.778,1404.28 
  "/>
<polyline clip-path="url(#clip390)" style="stroke:#000000; stroke-linecap:butt; stroke-linejoin:round; stroke-width:4; stroke-opacity:1; fill:none" points="
  771.569,1423.18 771.569,1404.28 
  "/>
<polyline clip-path="url(#clip390)" style="stroke:#000000; stroke-linecap:butt; stroke-linejoin:round; stroke-width:4; stroke-opacity:1; fill:none" points="
  1278.36,1423.18 1278.36,1404.28 
  "/>
<polyline clip-path="url(#clip390)" style="stroke:#000000; stroke-linecap:butt; stroke-linejoin:round; stroke-width:4; stroke-opacity:1; fill:none" points="
  1785.15,1423.18 1785.15,1404.28 
  "/>
<polyline clip-path="url(#clip390)" style="stroke:#000000; stroke-linecap:butt; stroke-linejoin:round; stroke-width:4; stroke-opacity:1; fill:none" points="
  2291.94,1423.18 2291.94,1404.28 
  "/>
<path clip-path="url(#clip390)" d="M264.778 1454.1 Q261.167 1454.1 259.339 1457.66 Q257.533 1461.2 257.533 1468.33 Q257.533 1475.44 259.339 1479.01 Q261.167 1482.55 264.778 1482.55 Q268.413 1482.55 270.218 1479.01 Q272.047 1475.44 272.047 1468.33 Q272.047 1461.2 270.218 1457.66 Q268.413 1454.1 264.778 1454.1 M264.778 1450.39 Q270.589 1450.39 273.644 1455 Q276.723 1459.58 276.723 1468.33 Q276.723 1477.06 273.644 1481.67 Q270.589 1486.25 264.778 1486.25 Q258.968 1486.25 255.89 1481.67 Q252.834 1477.06 252.834 1468.33 Q252.834 1459.58 255.89 1455 Q258.968 1450.39 264.778 1450.39 Z" fill="#000000" fill-rule="evenodd" fill-opacity="1" /><path clip-path="url(#clip390)" d="M750.84 1481.64 L767.159 1481.64 L767.159 1485.58 L745.215 1485.58 L745.215 1481.64 Q747.877 1478.89 752.46 1474.26 Q757.067 1469.61 758.247 1468.27 Q760.493 1465.74 761.372 1464.01 Q762.275 1462.25 762.275 1460.56 Q762.275 1457.8 760.331 1456.07 Q758.409 1454.33 755.308 1454.33 Q753.109 1454.33 750.655 1455.09 Q748.224 1455.86 745.447 1457.41 L745.447 1452.69 Q748.271 1451.55 750.724 1450.97 Q753.178 1450.39 755.215 1450.39 Q760.585 1450.39 763.78 1453.08 Q766.974 1455.77 766.974 1460.26 Q766.974 1462.39 766.164 1464.31 Q765.377 1466.2 763.271 1468.8 Q762.692 1469.47 759.59 1472.69 Q756.488 1475.88 750.84 1481.64 Z" fill="#000000" fill-rule="evenodd" fill-opacity="1" /><path clip-path="url(#clip390)" d="M777.02 1451.02 L795.377 1451.02 L795.377 1454.96 L781.303 1454.96 L781.303 1463.43 Q782.321 1463.08 783.34 1462.92 Q784.358 1462.73 785.377 1462.73 Q791.164 1462.73 794.544 1465.9 Q797.923 1469.08 797.923 1474.49 Q797.923 1480.07 794.451 1483.17 Q790.979 1486.25 784.659 1486.25 Q782.483 1486.25 780.215 1485.88 Q777.97 1485.51 775.562 1484.77 L775.562 1480.07 Q777.645 1481.2 779.868 1481.76 Q782.09 1482.32 784.567 1482.32 Q788.571 1482.32 790.909 1480.21 Q793.247 1478.1 793.247 1474.49 Q793.247 1470.88 790.909 1468.77 Q788.571 1466.67 784.567 1466.67 Q782.692 1466.67 780.817 1467.08 Q778.965 1467.5 777.02 1468.38 L777.02 1451.02 Z" fill="#000000" fill-rule="evenodd" fill-opacity="1" /><path clip-path="url(#clip390)" d="M1253.06 1451.02 L1271.42 1451.02 L1271.42 1454.96 L1257.34 1454.96 L1257.34 1463.43 Q1258.36 1463.08 1259.38 1462.92 Q1260.4 1462.73 1261.42 1462.73 Q1267.2 1462.73 1270.58 1465.9 Q1273.96 1469.08 1273.96 1474.49 Q1273.96 1480.07 1270.49 1483.17 Q1267.02 1486.25 1260.7 1486.25 Q1258.52 1486.25 1256.25 1485.88 Q1254.01 1485.51 1251.6 1484.77 L1251.6 1480.07 Q1253.68 1481.2 1255.91 1481.76 Q1258.13 1482.32 1260.61 1482.32 Q1264.61 1482.32 1266.95 1480.21 Q1269.29 1478.1 1269.29 1474.49 Q1269.29 1470.88 1266.95 1468.77 Q1264.61 1466.67 1260.61 1466.67 Q1258.73 1466.67 1256.86 1467.08 Q1255 1467.5 1253.06 1468.38 L1253.06 1451.02 Z" fill="#000000" fill-rule="evenodd" fill-opacity="1" /><path clip-path="url(#clip390)" d="M1293.17 1454.1 Q1289.56 1454.1 1287.73 1457.66 Q1285.93 1461.2 1285.93 1468.33 Q1285.93 1475.44 1287.73 1479.01 Q1289.56 1482.55 1293.17 1482.55 Q1296.81 1482.55 1298.61 1479.01 Q1300.44 1475.44 1300.44 1468.33 Q1300.44 1461.2 1298.61 1457.66 Q1296.81 1454.1 1293.17 1454.1 M1293.17 1450.39 Q1298.98 1450.39 1302.04 1455 Q1305.12 1459.58 1305.12 1468.33 Q1305.12 1477.06 1302.04 1481.67 Q1298.98 1486.25 1293.17 1486.25 Q1287.36 1486.25 1284.29 1481.67 Q1281.23 1477.06 1281.23 1468.33 Q1281.23 1459.58 1284.29 1455 Q1287.36 1450.39 1293.17 1450.39 Z" fill="#000000" fill-rule="evenodd" fill-opacity="1" /><path clip-path="url(#clip390)" d="M1759 1451.02 L1781.23 1451.02 L1781.23 1453.01 L1768.68 1485.58 L1763.8 1485.58 L1775.6 1454.96 L1759 1454.96 L1759 1451.02 Z" fill="#000000" fill-rule="evenodd" fill-opacity="1" /><path clip-path="url(#clip390)" d="M1790.39 1451.02 L1808.75 1451.02 L1808.75 1454.96 L1794.68 1454.96 L1794.68 1463.43 Q1795.69 1463.08 1796.71 1462.92 Q1797.73 1462.73 1798.75 1462.73 Q1804.54 1462.73 1807.92 1465.9 Q1811.3 1469.08 1811.3 1474.49 Q1811.3 1480.07 1807.82 1483.17 Q1804.35 1486.25 1798.03 1486.25 Q1795.86 1486.25 1793.59 1485.88 Q1791.34 1485.51 1788.94 1484.77 L1788.94 1480.07 Q1791.02 1481.2 1793.24 1481.76 Q1795.46 1482.32 1797.94 1482.32 Q1801.94 1482.32 1804.28 1480.21 Q1806.62 1478.1 1806.62 1474.49 Q1806.62 1470.88 1804.28 1468.77 Q1801.94 1466.67 1797.94 1466.67 Q1796.06 1466.67 1794.19 1467.08 Q1792.34 1467.5 1790.39 1468.38 L1790.39 1451.02 Z" fill="#000000" fill-rule="evenodd" fill-opacity="1" /><path clip-path="url(#clip390)" d="M2251.55 1481.64 L2259.19 1481.64 L2259.19 1455.28 L2250.88 1456.95 L2250.88 1452.69 L2259.14 1451.02 L2263.82 1451.02 L2263.82 1481.64 L2271.46 1481.64 L2271.46 1485.58 L2251.55 1485.58 L2251.55 1481.64 Z" fill="#000000" fill-rule="evenodd" fill-opacity="1" /><path clip-path="url(#clip390)" d="M2290.9 1454.1 Q2287.29 1454.1 2285.46 1457.66 Q2283.65 1461.2 2283.65 1468.33 Q2283.65 1475.44 2285.46 1479.01 Q2287.29 1482.55 2290.9 1482.55 Q2294.53 1482.55 2296.34 1479.01 Q2298.17 1475.44 2298.17 1468.33 Q2298.17 1461.2 2296.34 1457.66 Q2294.53 1454.1 2290.9 1454.1 M2290.9 1450.39 Q2296.71 1450.39 2299.77 1455 Q2302.84 1459.58 2302.84 1468.33 Q2302.84 1477.06 2299.77 1481.67 Q2296.71 1486.25 2290.9 1486.25 Q2285.09 1486.25 2282.01 1481.67 Q2278.95 1477.06 2278.95 1468.33 Q2278.95 1459.58 2282.01 1455 Q2285.09 1450.39 2290.9 1450.39 Z" fill="#000000" fill-rule="evenodd" fill-opacity="1" /><path clip-path="url(#clip390)" d="M2321.06 1454.1 Q2317.45 1454.1 2315.62 1457.66 Q2313.82 1461.2 2313.82 1468.33 Q2313.82 1475.44 2315.62 1479.01 Q2317.45 1482.55 2321.06 1482.55 Q2324.7 1482.55 2326.5 1479.01 Q2328.33 1475.44 2328.33 1468.33 Q2328.33 1461.2 2326.5 1457.66 Q2324.7 1454.1 2321.06 1454.1 M2321.06 1450.39 Q2326.87 1450.39 2329.93 1455 Q2333.01 1459.58 2333.01 1468.33 Q2333.01 1477.06 2329.93 1481.67 Q2326.87 1486.25 2321.06 1486.25 Q2315.25 1486.25 2312.17 1481.67 Q2309.12 1477.06 2309.12 1468.33 Q2309.12 1459.58 2312.17 1455 Q2315.25 1450.39 2321.06 1450.39 Z" fill="#000000" fill-rule="evenodd" fill-opacity="1" /><path clip-path="url(#clip390)" d="M1294.97 1532.4 L1282.08 1549.74 L1295.64 1568.04 L1288.74 1568.04 L1278.36 1554.04 L1267.98 1568.04 L1261.08 1568.04 L1274.92 1549.39 L1262.25 1532.4 L1269.16 1532.4 L1278.61 1545.1 L1288.07 1532.4 L1294.97 1532.4 Z" fill="#000000" fill-rule="evenodd" fill-opacity="1" /><polyline clip-path="url(#clip392)" style="stroke:#000000; stroke-linecap:butt; stroke-linejoin:round; stroke-width:2; stroke-opacity:0.1; fill:none" points="
  203.964,1306.51 2352.76,1306.51 
  "/>
<polyline clip-path="url(#clip392)" style="stroke:#000000; stroke-linecap:butt; stroke-linejoin:round; stroke-width:2; stroke-opacity:0.1; fill:none" points="
  203.964,1074.16 2352.76,1074.16 
  "/>
<polyline clip-path="url(#clip392)" style="stroke:#000000; stroke-linecap:butt; stroke-linejoin:round; stroke-width:2; stroke-opacity:0.1; fill:none" points="
  203.964,841.802 2352.76,841.802 
  "/>
<polyline clip-path="url(#clip392)" style="stroke:#000000; stroke-linecap:butt; stroke-linejoin:round; stroke-width:2; stroke-opacity:0.1; fill:none" points="
  203.964,609.448 2352.76,609.448 
  "/>
<polyline clip-path="url(#clip392)" style="stroke:#000000; stroke-linecap:butt; stroke-linejoin:round; stroke-width:2; stroke-opacity:0.1; fill:none" points="
  203.964,377.094 2352.76,377.094 
  "/>
<polyline clip-path="url(#clip392)" style="stroke:#000000; stroke-linecap:butt; stroke-linejoin:round; stroke-width:2; stroke-opacity:0.1; fill:none" points="
  203.964,144.741 2352.76,144.741 
  "/>
<polyline clip-path="url(#clip390)" style="stroke:#000000; stroke-linecap:butt; stroke-linejoin:round; stroke-width:4; stroke-opacity:1; fill:none" points="
  203.964,1423.18 203.964,47.2441 
  "/>
<polyline clip-path="url(#clip390)" style="stroke:#000000; stroke-linecap:butt; stroke-linejoin:round; stroke-width:4; stroke-opacity:1; fill:none" points="
  203.964,1306.51 222.861,1306.51 
  "/>
<polyline clip-path="url(#clip390)" style="stroke:#000000; stroke-linecap:butt; stroke-linejoin:round; stroke-width:4; stroke-opacity:1; fill:none" points="
  203.964,1074.16 222.861,1074.16 
  "/>
<polyline clip-path="url(#clip390)" style="stroke:#000000; stroke-linecap:butt; stroke-linejoin:round; stroke-width:4; stroke-opacity:1; fill:none" points="
  203.964,841.802 222.861,841.802 
  "/>
<polyline clip-path="url(#clip390)" style="stroke:#000000; stroke-linecap:butt; stroke-linejoin:round; stroke-width:4; stroke-opacity:1; fill:none" points="
  203.964,609.448 222.861,609.448 
  "/>
<polyline clip-path="url(#clip390)" style="stroke:#000000; stroke-linecap:butt; stroke-linejoin:round; stroke-width:4; stroke-opacity:1; fill:none" points="
  203.964,377.094 222.861,377.094 
  "/>
<polyline clip-path="url(#clip390)" style="stroke:#000000; stroke-linecap:butt; stroke-linejoin:round; stroke-width:4; stroke-opacity:1; fill:none" points="
  203.964,144.741 222.861,144.741 
  "/>
<path clip-path="url(#clip390)" d="M156.019 1292.31 Q152.408 1292.31 150.579 1295.87 Q148.774 1299.41 148.774 1306.54 Q148.774 1313.65 150.579 1317.21 Q152.408 1320.76 156.019 1320.76 Q159.653 1320.76 161.459 1317.21 Q163.288 1313.65 163.288 1306.54 Q163.288 1299.41 161.459 1295.87 Q159.653 1292.31 156.019 1292.31 M156.019 1288.6 Q161.829 1288.6 164.885 1293.21 Q167.964 1297.79 167.964 1306.54 Q167.964 1315.27 164.885 1319.88 Q161.829 1324.46 156.019 1324.46 Q150.209 1324.46 147.13 1319.88 Q144.075 1315.27 144.075 1306.54 Q144.075 1297.79 147.13 1293.21 Q150.209 1288.6 156.019 1288.6 Z" fill="#000000" fill-rule="evenodd" fill-opacity="1" /><path clip-path="url(#clip390)" d="M147.061 1056.88 L165.417 1056.88 L165.417 1060.81 L151.343 1060.81 L151.343 1069.28 Q152.362 1068.94 153.38 1068.77 Q154.399 1068.59 155.417 1068.59 Q161.204 1068.59 164.584 1071.76 Q167.964 1074.93 167.964 1080.35 Q167.964 1085.93 164.491 1089.03 Q161.019 1092.11 154.7 1092.11 Q152.524 1092.11 150.255 1091.74 Q148.01 1091.37 145.603 1090.63 L145.603 1085.93 Q147.686 1087.06 149.908 1087.62 Q152.13 1088.17 154.607 1088.17 Q158.612 1088.17 160.95 1086.06 Q163.288 1083.96 163.288 1080.35 Q163.288 1076.74 160.95 1074.63 Q158.612 1072.52 154.607 1072.52 Q152.732 1072.52 150.857 1072.94 Q149.005 1073.36 147.061 1074.24 L147.061 1056.88 Z" fill="#000000" fill-rule="evenodd" fill-opacity="1" /><path clip-path="url(#clip390)" d="M116.668 855.146 L124.306 855.146 L124.306 828.781 L115.996 830.448 L115.996 826.188 L124.26 824.522 L128.936 824.522 L128.936 855.146 L136.575 855.146 L136.575 859.082 L116.668 859.082 L116.668 855.146 Z" fill="#000000" fill-rule="evenodd" fill-opacity="1" /><path clip-path="url(#clip390)" d="M156.019 827.6 Q152.408 827.6 150.579 831.165 Q148.774 834.707 148.774 841.836 Q148.774 848.943 150.579 852.508 Q152.408 856.049 156.019 856.049 Q159.653 856.049 161.459 852.508 Q163.288 848.943 163.288 841.836 Q163.288 834.707 161.459 831.165 Q159.653 827.6 156.019 827.6 M156.019 823.897 Q161.829 823.897 164.885 828.503 Q167.964 833.086 167.964 841.836 Q167.964 850.563 164.885 855.17 Q161.829 859.753 156.019 859.753 Q150.209 859.753 147.13 855.17 Q144.075 850.563 144.075 841.836 Q144.075 833.086 147.13 828.503 Q150.209 823.897 156.019 823.897 Z" fill="#000000" fill-rule="evenodd" fill-opacity="1" /><path clip-path="url(#clip390)" d="M117.663 622.793 L125.302 622.793 L125.302 596.427 L116.992 598.094 L116.992 593.835 L125.255 592.168 L129.931 592.168 L129.931 622.793 L137.57 622.793 L137.57 626.728 L117.663 626.728 L117.663 622.793 Z" fill="#000000" fill-rule="evenodd" fill-opacity="1" /><path clip-path="url(#clip390)" d="M147.061 592.168 L165.417 592.168 L165.417 596.103 L151.343 596.103 L151.343 604.575 Q152.362 604.228 153.38 604.066 Q154.399 603.881 155.417 603.881 Q161.204 603.881 164.584 607.052 Q167.964 610.223 167.964 615.64 Q167.964 621.219 164.491 624.321 Q161.019 627.399 154.7 627.399 Q152.524 627.399 150.255 627.029 Q148.01 626.659 145.603 625.918 L145.603 621.219 Q147.686 622.353 149.908 622.909 Q152.13 623.464 154.607 623.464 Q158.612 623.464 160.95 621.358 Q163.288 619.251 163.288 615.64 Q163.288 612.029 160.95 609.923 Q158.612 607.816 154.607 607.816 Q152.732 607.816 150.857 608.233 Q149.005 608.649 147.061 609.529 L147.061 592.168 Z" fill="#000000" fill-rule="evenodd" fill-opacity="1" /><path clip-path="url(#clip390)" d="M119.885 390.439 L136.204 390.439 L136.204 394.374 L114.26 394.374 L114.26 390.439 Q116.922 387.685 121.505 383.055 Q126.112 378.402 127.292 377.06 Q129.538 374.537 130.417 372.8 Q131.32 371.041 131.32 369.351 Q131.32 366.597 129.376 364.861 Q127.455 363.125 124.353 363.125 Q122.154 363.125 119.7 363.888 Q117.269 364.652 114.492 366.203 L114.492 361.481 Q117.316 360.347 119.769 359.768 Q122.223 359.189 124.26 359.189 Q129.63 359.189 132.825 361.875 Q136.019 364.56 136.019 369.05 Q136.019 371.18 135.209 373.101 Q134.422 375 132.316 377.592 Q131.737 378.263 128.635 381.481 Q125.533 384.675 119.885 390.439 Z" fill="#000000" fill-rule="evenodd" fill-opacity="1" /><path clip-path="url(#clip390)" d="M156.019 362.893 Q152.408 362.893 150.579 366.458 Q148.774 370 148.774 377.129 Q148.774 384.236 150.579 387.8 Q152.408 391.342 156.019 391.342 Q159.653 391.342 161.459 387.8 Q163.288 384.236 163.288 377.129 Q163.288 370 161.459 366.458 Q159.653 362.893 156.019 362.893 M156.019 359.189 Q161.829 359.189 164.885 363.796 Q167.964 368.379 167.964 377.129 Q167.964 385.856 164.885 390.462 Q161.829 395.046 156.019 395.046 Q150.209 395.046 147.13 390.462 Q144.075 385.856 144.075 377.129 Q144.075 368.379 147.13 363.796 Q150.209 359.189 156.019 359.189 Z" fill="#000000" fill-rule="evenodd" fill-opacity="1" /><path clip-path="url(#clip390)" d="M120.88 158.086 L137.2 158.086 L137.2 162.021 L115.256 162.021 L115.256 158.086 Q117.918 155.331 122.501 150.701 Q127.107 146.049 128.288 144.706 Q130.533 142.183 131.413 140.447 Q132.316 138.688 132.316 136.998 Q132.316 134.243 130.371 132.507 Q128.45 130.771 125.348 130.771 Q123.149 130.771 120.695 131.535 Q118.265 132.299 115.487 133.85 L115.487 129.127 Q118.311 127.993 120.765 127.415 Q123.218 126.836 125.255 126.836 Q130.626 126.836 133.82 129.521 Q137.015 132.206 137.015 136.697 Q137.015 138.826 136.204 140.748 Q135.417 142.646 133.311 145.238 Q132.732 145.91 129.63 149.127 Q126.529 152.322 120.88 158.086 Z" fill="#000000" fill-rule="evenodd" fill-opacity="1" /><path clip-path="url(#clip390)" d="M147.061 127.461 L165.417 127.461 L165.417 131.396 L151.343 131.396 L151.343 139.868 Q152.362 139.521 153.38 139.359 Q154.399 139.174 155.417 139.174 Q161.204 139.174 164.584 142.345 Q167.964 145.516 167.964 150.933 Q167.964 156.512 164.491 159.613 Q161.019 162.692 154.7 162.692 Q152.524 162.692 150.255 162.322 Q148.01 161.951 145.603 161.211 L145.603 156.512 Q147.686 157.646 149.908 158.201 Q152.13 158.757 154.607 158.757 Q158.612 158.757 160.95 156.65 Q163.288 154.544 163.288 150.933 Q163.288 147.322 160.95 145.215 Q158.612 143.109 154.607 143.109 Q152.732 143.109 150.857 143.526 Q149.005 143.942 147.061 144.822 L147.061 127.461 Z" fill="#000000" fill-rule="evenodd" fill-opacity="1" /><path clip-path="url(#clip390)" d="M67.3143 733.525 Q73.68 736.008 75.6216 738.363 Q77.5631 740.718 77.5631 744.665 L77.5631 749.344 L72.6615 749.344 L72.6615 745.906 Q72.6615 743.487 71.5157 742.151 Q70.3699 740.814 66.1048 739.191 L63.4312 738.14 L28.3562 752.559 L28.3562 746.352 L56.238 735.212 L28.3562 724.072 L28.3562 717.865 L67.3143 733.525 Z" fill="#000000" fill-rule="evenodd" fill-opacity="1" /><circle clip-path="url(#clip392)" cx="264.778" cy="1166.6" r="14.4" fill="#009af9" fill-rule="evenodd" fill-opacity="1" stroke="#000000" stroke-opacity="1" stroke-width="3.2"/>
<circle clip-path="url(#clip392)" cx="366.137" cy="1258.96" r="14.4" fill="#009af9" fill-rule="evenodd" fill-opacity="1" stroke="#000000" stroke-opacity="1" stroke-width="3.2"/>
<circle clip-path="url(#clip392)" cx="467.495" cy="1167.47" r="14.4" fill="#009af9" fill-rule="evenodd" fill-opacity="1" stroke="#000000" stroke-opacity="1" stroke-width="3.2"/>
<circle clip-path="url(#clip392)" cx="568.853" cy="1201.03" r="14.4" fill="#009af9" fill-rule="evenodd" fill-opacity="1" stroke="#000000" stroke-opacity="1" stroke-width="3.2"/>
<circle clip-path="url(#clip392)" cx="670.211" cy="1211.75" r="14.4" fill="#009af9" fill-rule="evenodd" fill-opacity="1" stroke="#000000" stroke-opacity="1" stroke-width="3.2"/>
<circle clip-path="url(#clip392)" cx="771.569" cy="1229.49" r="14.4" fill="#009af9" fill-rule="evenodd" fill-opacity="1" stroke="#000000" stroke-opacity="1" stroke-width="3.2"/>
<circle clip-path="url(#clip392)" cx="872.927" cy="1009.22" r="14.4" fill="#009af9" fill-rule="evenodd" fill-opacity="1" stroke="#000000" stroke-opacity="1" stroke-width="3.2"/>
<circle clip-path="url(#clip392)" cx="974.285" cy="1031.08" r="14.4" fill="#009af9" fill-rule="evenodd" fill-opacity="1" stroke="#000000" stroke-opacity="1" stroke-width="3.2"/>
<circle clip-path="url(#clip392)" cx="1075.64" cy="1027.69" r="14.4" fill="#009af9" fill-rule="evenodd" fill-opacity="1" stroke="#000000" stroke-opacity="1" stroke-width="3.2"/>
<circle clip-path="url(#clip392)" cx="1177" cy="1059.24" r="14.4" fill="#009af9" fill-rule="evenodd" fill-opacity="1" stroke="#000000" stroke-opacity="1" stroke-width="3.2"/>
<circle clip-path="url(#clip392)" cx="1278.36" cy="934.929" r="14.4" fill="#009af9" fill-rule="evenodd" fill-opacity="1" stroke="#000000" stroke-opacity="1" stroke-width="3.2"/>
<circle clip-path="url(#clip392)" cx="1379.72" cy="860.666" r="14.4" fill="#009af9" fill-rule="evenodd" fill-opacity="1" stroke="#000000" stroke-opacity="1" stroke-width="3.2"/>
<circle clip-path="url(#clip392)" cx="1481.08" cy="808.738" r="14.4" fill="#009af9" fill-rule="evenodd" fill-opacity="1" stroke="#000000" stroke-opacity="1" stroke-width="3.2"/>
<circle clip-path="url(#clip392)" cx="1582.43" cy="777.291" r="14.4" fill="#009af9" fill-rule="evenodd" fill-opacity="1" stroke="#000000" stroke-opacity="1" stroke-width="3.2"/>
<circle clip-path="url(#clip392)" cx="1683.79" cy="662.886" r="14.4" fill="#009af9" fill-rule="evenodd" fill-opacity="1" stroke="#000000" stroke-opacity="1" stroke-width="3.2"/>
<circle clip-path="url(#clip392)" cx="1785.15" cy="585.732" r="14.4" fill="#009af9" fill-rule="evenodd" fill-opacity="1" stroke="#000000" stroke-opacity="1" stroke-width="3.2"/>
<circle clip-path="url(#clip392)" cx="1886.51" cy="552.086" r="14.4" fill="#009af9" fill-rule="evenodd" fill-opacity="1" stroke="#000000" stroke-opacity="1" stroke-width="3.2"/>
<circle clip-path="url(#clip392)" cx="1987.87" cy="415.516" r="14.4" fill="#009af9" fill-rule="evenodd" fill-opacity="1" stroke="#000000" stroke-opacity="1" stroke-width="3.2"/>
<circle clip-path="url(#clip392)" cx="2089.22" cy="410.736" r="14.4" fill="#009af9" fill-rule="evenodd" fill-opacity="1" stroke="#000000" stroke-opacity="1" stroke-width="3.2"/>
<circle clip-path="url(#clip392)" cx="2190.58" cy="200.785" r="14.4" fill="#009af9" fill-rule="evenodd" fill-opacity="1" stroke="#000000" stroke-opacity="1" stroke-width="3.2"/>
<circle clip-path="url(#clip392)" cx="2291.94" cy="86.1857" r="14.4" fill="#009af9" fill-rule="evenodd" fill-opacity="1" stroke="#000000" stroke-opacity="1" stroke-width="3.2"/>
<polyline clip-path="url(#clip392)" style="stroke:#e26f46; stroke-linecap:butt; stroke-linejoin:round; stroke-width:4; stroke-opacity:1; fill:none" points="
  264.778,1384.24 366.137,1329.9 467.495,1275.56 568.853,1221.23 670.211,1166.89 771.569,1112.55 872.927,1058.21 974.285,1003.87 1075.64,949.536 1177,895.199 
  1278.36,840.861 1379.72,786.523 1481.08,732.185 1582.43,677.848 1683.79,623.51 1785.15,569.172 1886.51,514.834 1987.87,460.497 2089.22,406.159 2190.58,351.821 
  2291.94,297.483 
  "/>
<path clip-path="url(#clip390)" d="
M1881.75 248.629 L2281.13 248.629 L2281.13 93.1086 L1881.75 93.1086  Z
  " fill="#ffffff" fill-rule="evenodd" fill-opacity="1"/>
<polyline clip-path="url(#clip390)" style="stroke:#000000; stroke-linecap:butt; stroke-linejoin:round; stroke-width:4; stroke-opacity:1; fill:none" points="
  1881.75,248.629 2281.13,248.629 2281.13,93.1086 1881.75,93.1086 1881.75,248.629 
  "/>
<circle clip-path="url(#clip390)" cx="1977.25" cy="144.949" r="23.04" fill="#009af9" fill-rule="evenodd" fill-opacity="1" stroke="#000000" stroke-opacity="1" stroke-width="5.12"/>
<path clip-path="url(#clip390)" d="M2091.67 140.238 L2091.67 126.21 L2095.93 126.21 L2095.93 162.229 L2091.67 162.229 L2091.67 158.34 Q2090.32 160.655 2088.26 161.789 Q2086.23 162.9 2083.36 162.9 Q2078.66 162.9 2075.69 159.15 Q2072.75 155.4 2072.75 149.289 Q2072.75 143.178 2075.69 139.428 Q2078.66 135.678 2083.36 135.678 Q2086.23 135.678 2088.26 136.812 Q2090.32 137.923 2091.67 140.238 M2077.15 149.289 Q2077.15 153.988 2079.07 156.673 Q2081.02 159.335 2084.4 159.335 Q2087.78 159.335 2089.72 156.673 Q2091.67 153.988 2091.67 149.289 Q2091.67 144.59 2089.72 141.928 Q2087.78 139.243 2084.4 139.243 Q2081.02 139.243 2079.07 141.928 Q2077.15 144.59 2077.15 149.289 Z" fill="#000000" fill-rule="evenodd" fill-opacity="1" /><path clip-path="url(#clip390)" d="M2116.48 149.196 Q2111.32 149.196 2109.33 150.377 Q2107.34 151.557 2107.34 154.405 Q2107.34 156.673 2108.82 158.016 Q2110.32 159.335 2112.89 159.335 Q2116.43 159.335 2118.56 156.835 Q2120.72 154.312 2120.72 150.145 L2120.72 149.196 L2116.48 149.196 M2124.98 147.437 L2124.98 162.229 L2120.72 162.229 L2120.72 158.293 Q2119.26 160.655 2117.08 161.789 Q2114.91 162.9 2111.76 162.9 Q2107.78 162.9 2105.42 160.678 Q2103.08 158.432 2103.08 154.682 Q2103.08 150.307 2105.99 148.085 Q2108.93 145.863 2114.74 145.863 L2120.72 145.863 L2120.72 145.446 Q2120.72 142.507 2118.77 140.909 Q2116.85 139.289 2113.36 139.289 Q2111.13 139.289 2109.03 139.821 Q2106.92 140.354 2104.98 141.419 L2104.98 137.483 Q2107.31 136.581 2109.51 136.141 Q2111.71 135.678 2113.8 135.678 Q2119.42 135.678 2122.2 138.594 Q2124.98 141.511 2124.98 147.437 Z" fill="#000000" fill-rule="evenodd" fill-opacity="1" /><path clip-path="url(#clip390)" d="M2137.96 128.942 L2137.96 136.303 L2146.74 136.303 L2146.74 139.613 L2137.96 139.613 L2137.96 153.687 Q2137.96 156.858 2138.82 157.761 Q2139.7 158.664 2142.36 158.664 L2146.74 158.664 L2146.74 162.229 L2142.36 162.229 Q2137.43 162.229 2135.56 160.4 Q2133.68 158.548 2133.68 153.687 L2133.68 139.613 L2130.56 139.613 L2130.56 136.303 L2133.68 136.303 L2133.68 128.942 L2137.96 128.942 Z" fill="#000000" fill-rule="evenodd" fill-opacity="1" /><path clip-path="url(#clip390)" d="M2164.12 149.196 Q2158.96 149.196 2156.97 150.377 Q2154.98 151.557 2154.98 154.405 Q2154.98 156.673 2156.46 158.016 Q2157.96 159.335 2160.53 159.335 Q2164.07 159.335 2166.2 156.835 Q2168.36 154.312 2168.36 150.145 L2168.36 149.196 L2164.12 149.196 M2172.61 147.437 L2172.61 162.229 L2168.36 162.229 L2168.36 158.293 Q2166.9 160.655 2164.72 161.789 Q2162.55 162.9 2159.4 162.9 Q2155.42 162.9 2153.05 160.678 Q2150.72 158.432 2150.72 154.682 Q2150.72 150.307 2153.63 148.085 Q2156.57 145.863 2162.38 145.863 L2168.36 145.863 L2168.36 145.446 Q2168.36 142.507 2166.41 140.909 Q2164.49 139.289 2160.99 139.289 Q2158.77 139.289 2156.67 139.821 Q2154.56 140.354 2152.62 141.419 L2152.62 137.483 Q2154.95 136.581 2157.15 136.141 Q2159.35 135.678 2161.43 135.678 Q2167.06 135.678 2169.84 138.594 Q2172.61 141.511 2172.61 147.437 Z" fill="#000000" fill-rule="evenodd" fill-opacity="1" /><polyline clip-path="url(#clip390)" style="stroke:#e26f46; stroke-linecap:butt; stroke-linejoin:round; stroke-width:4; stroke-opacity:1; fill:none" points="
  1905.63,196.789 2048.88,196.789 
  "/>
<path clip-path="url(#clip390)" d="M2091.53 201.129 Q2091.53 196.43 2089.58 193.768 Q2087.66 191.083 2084.28 191.083 Q2080.9 191.083 2078.96 193.768 Q2077.04 196.43 2077.04 201.129 Q2077.04 205.828 2078.96 208.513 Q2080.9 211.175 2084.28 211.175 Q2087.66 211.175 2089.58 208.513 Q2091.53 205.828 2091.53 201.129 M2077.04 192.078 Q2078.38 189.763 2080.42 188.652 Q2082.48 187.518 2085.32 187.518 Q2090.05 187.518 2092.99 191.268 Q2095.95 195.018 2095.95 201.129 Q2095.95 207.24 2092.99 210.99 Q2090.05 214.74 2085.32 214.74 Q2082.48 214.74 2080.42 213.629 Q2078.38 212.495 2077.04 210.18 L2077.04 214.069 L2072.75 214.069 L2072.75 178.05 L2077.04 178.05 L2077.04 192.078 Z" fill="#000000" fill-rule="evenodd" fill-opacity="1" /><path clip-path="url(#clip390)" d="M2125.18 200.041 L2125.18 202.124 L2105.6 202.124 Q2105.88 206.522 2108.24 208.837 Q2110.62 211.129 2114.86 211.129 Q2117.31 211.129 2119.61 210.527 Q2121.92 209.925 2124.19 208.721 L2124.19 212.749 Q2121.9 213.721 2119.49 214.231 Q2117.08 214.74 2114.61 214.74 Q2108.4 214.74 2104.77 211.129 Q2101.16 207.518 2101.16 201.36 Q2101.16 194.995 2104.58 191.268 Q2108.03 187.518 2113.87 187.518 Q2119.1 187.518 2122.13 190.897 Q2125.18 194.254 2125.18 200.041 M2120.93 198.791 Q2120.88 195.296 2118.96 193.212 Q2117.06 191.129 2113.91 191.129 Q2110.35 191.129 2108.19 193.143 Q2106.06 195.157 2105.74 198.814 L2120.93 198.791 Z" fill="#000000" fill-rule="evenodd" fill-opacity="1" /><path clip-path="url(#clip390)" d="M2148.7 188.907 L2148.7 192.934 Q2146.9 192.009 2144.95 191.546 Q2143.01 191.083 2140.93 191.083 Q2137.75 191.083 2136.16 192.055 Q2134.58 193.027 2134.58 194.971 Q2134.58 196.453 2135.72 197.309 Q2136.85 198.143 2140.28 198.907 L2141.74 199.231 Q2146.27 200.203 2148.17 201.985 Q2150.09 203.745 2150.09 206.916 Q2150.09 210.527 2147.22 212.633 Q2144.37 214.74 2139.37 214.74 Q2137.29 214.74 2135.02 214.323 Q2132.78 213.93 2130.28 213.12 L2130.28 208.721 Q2132.64 209.948 2134.93 210.573 Q2137.22 211.175 2139.47 211.175 Q2142.48 211.175 2144.1 210.157 Q2145.72 209.115 2145.72 207.24 Q2145.72 205.504 2144.54 204.578 Q2143.38 203.652 2139.42 202.796 L2137.94 202.448 Q2133.98 201.615 2132.22 199.902 Q2130.46 198.166 2130.46 195.157 Q2130.46 191.499 2133.06 189.509 Q2135.65 187.518 2140.42 187.518 Q2142.78 187.518 2144.86 187.865 Q2146.94 188.212 2148.7 188.907 Z" fill="#000000" fill-rule="evenodd" fill-opacity="1" /><path clip-path="url(#clip390)" d="M2161.09 180.782 L2161.09 188.143 L2169.86 188.143 L2169.86 191.453 L2161.09 191.453 L2161.09 205.527 Q2161.09 208.698 2161.94 209.601 Q2162.82 210.504 2165.49 210.504 L2169.86 210.504 L2169.86 214.069 L2165.49 214.069 Q2160.55 214.069 2158.68 212.24 Q2156.8 210.388 2156.8 205.527 L2156.8 191.453 L2153.68 191.453 L2153.68 188.143 L2156.8 188.143 L2156.8 180.782 L2161.09 180.782 Z" fill="#000000" fill-rule="evenodd" fill-opacity="1" /><path clip-path="url(#clip390)" d="M2203.66 178.05 L2203.66 181.592 L2199.58 181.592 Q2197.29 181.592 2196.39 182.518 Q2195.51 183.444 2195.51 185.851 L2195.51 188.143 L2202.52 188.143 L2202.52 191.453 L2195.51 191.453 L2195.51 214.069 L2191.23 214.069 L2191.23 191.453 L2187.15 191.453 L2187.15 188.143 L2191.23 188.143 L2191.23 186.337 Q2191.23 182.009 2193.24 180.041 Q2195.25 178.05 2199.63 178.05 L2203.66 178.05 Z" fill="#000000" fill-rule="evenodd" fill-opacity="1" /><path clip-path="url(#clip390)" d="M2207.22 188.143 L2211.48 188.143 L2211.48 214.069 L2207.22 214.069 L2207.22 188.143 M2207.22 178.05 L2211.48 178.05 L2211.48 183.444 L2207.22 183.444 L2207.22 178.05 Z" fill="#000000" fill-rule="evenodd" fill-opacity="1" /><path clip-path="url(#clip390)" d="M2224.61 180.782 L2224.61 188.143 L2233.38 188.143 L2233.38 191.453 L2224.61 191.453 L2224.61 205.527 Q2224.61 208.698 2225.46 209.601 Q2226.34 210.504 2229 210.504 L2233.38 210.504 L2233.38 214.069 L2229 214.069 Q2224.07 214.069 2222.2 212.24 Q2220.32 210.388 2220.32 205.527 L2220.32 191.453 L2217.2 191.453 L2217.2 188.143 L2220.32 188.143 L2220.32 180.782 L2224.61 180.782 Z" fill="#000000" fill-rule="evenodd" fill-opacity="1" /></svg>
