<?xml version="1.0" encoding="utf-8"?>
<svg xmlns="http://www.w3.org/2000/svg" xmlns:xlink="http://www.w3.org/1999/xlink" width="600" height="400" viewBox="0 0 2400 1600">
<defs>
  <clipPath id="clip270">
    <rect x="0" y="0" width="2400" height="1600"/>
  </clipPath>
</defs>
<path clip-path="url(#clip270)" d="M0 1600 L2400 1600 L2400 0 L0 0  Z" fill="#ffffff" fill-rule="evenodd" fill-opacity="1"/>
<defs>
  <clipPath id="clip271">
    <rect x="251" y="47" width="2103" height="1365"/>
  </clipPath>
</defs>
<path clip-path="url(#clip270)" d="M251.071 1410.9 L2352.76 1410.9 L2352.76 47.2441 L251.071 47.2441  Z" fill="#ffffff" fill-rule="evenodd" fill-opacity="1"/>
<polyline clip-path="url(#clip271)" style="stroke:#000000; stroke-linecap:round; stroke-linejoin:round; stroke-width:2; stroke-opacity:0.05; fill:none" points="251.071,1286.54 2352.76,1286.54 "/>
<polyline clip-path="url(#clip271)" style="stroke:#000000; stroke-linecap:round; stroke-linejoin:round; stroke-width:2; stroke-opacity:0.05; fill:none" points="251.071,1213.8 2352.76,1213.8 "/>
<polyline clip-path="url(#clip271)" style="stroke:#000000; stroke-linecap:round; stroke-linejoin:round; stroke-width:2; stroke-opacity:0.05; fill:none" points="251.071,1162.19 2352.76,1162.19 "/>
<polyline clip-path="url(#clip271)" style="stroke:#000000; stroke-linecap:round; stroke-linejoin:round; stroke-width:2; stroke-opacity:0.05; fill:none" points="251.071,1122.15 2352.76,1122.15 "/>
<polyline clip-path="url(#clip271)" style="stroke:#000000; stroke-linecap:round; stroke-linejoin:round; stroke-width:2; stroke-opacity:0.05; fill:none" points="251.071,1089.44 2352.76,1089.44 "/>
<polyline clip-path="url(#clip271)" style="stroke:#000000; stroke-linecap:round; stroke-linejoin:round; stroke-width:2; stroke-opacity:0.05; fill:none" points="251.071,1061.79 2352.76,1061.79 "/>
<polyline clip-path="url(#clip271)" style="stroke:#000000; stroke-linecap:round; stroke-linejoin:round; stroke-width:2; stroke-opacity:0.05; fill:none" points="251.071,1037.83 2352.76,1037.83 "/>
<polyline clip-path="url(#clip271)" style="stroke:#000000; stroke-linecap:round; stroke-linejoin:round; stroke-width:2; stroke-opacity:0.05; fill:none" points="251.071,1016.7 2352.76,1016.7 "/>
<polyline clip-path="url(#clip271)" style="stroke:#000000; stroke-linecap:round; stroke-linejoin:round; stroke-width:2; stroke-opacity:0.05; fill:none" points="251.071,997.798 2352.76,997.798 "/>
<polyline clip-path="url(#clip271)" style="stroke:#000000; stroke-linecap:round; stroke-linejoin:round; stroke-width:2; stroke-opacity:0.05; fill:none" points="251.071,997.798 2352.76,997.798 "/>
<polyline clip-path="url(#clip271)" style="stroke:#000000; stroke-linecap:round; stroke-linejoin:round; stroke-width:2; stroke-opacity:0.05; fill:none" points="251.071,873.442 2352.76,873.442 "/>
<polyline clip-path="url(#clip271)" style="stroke:#000000; stroke-linecap:round; stroke-linejoin:round; stroke-width:2; stroke-opacity:0.05; fill:none" points="251.071,800.699 2352.76,800.699 "/>
<polyline clip-path="url(#clip271)" style="stroke:#000000; stroke-linecap:round; stroke-linejoin:round; stroke-width:2; stroke-opacity:0.05; fill:none" points="251.071,749.087 2352.76,749.087 "/>
<polyline clip-path="url(#clip271)" style="stroke:#000000; stroke-linecap:round; stroke-linejoin:round; stroke-width:2; stroke-opacity:0.05; fill:none" points="251.071,709.054 2352.76,709.054 "/>
<polyline clip-path="url(#clip271)" style="stroke:#000000; stroke-linecap:round; stroke-linejoin:round; stroke-width:2; stroke-opacity:0.05; fill:none" points="251.071,676.344 2352.76,676.344 "/>
<polyline clip-path="url(#clip271)" style="stroke:#000000; stroke-linecap:round; stroke-linejoin:round; stroke-width:2; stroke-opacity:0.05; fill:none" points="251.071,648.688 2352.76,648.688 "/>
<polyline clip-path="url(#clip271)" style="stroke:#000000; stroke-linecap:round; stroke-linejoin:round; stroke-width:2; stroke-opacity:0.05; fill:none" points="251.071,624.732 2352.76,624.732 "/>
<polyline clip-path="url(#clip271)" style="stroke:#000000; stroke-linecap:round; stroke-linejoin:round; stroke-width:2; stroke-opacity:0.05; fill:none" points="251.071,603.601 2352.76,603.601 "/>
<polyline clip-path="url(#clip271)" style="stroke:#000000; stroke-linecap:round; stroke-linejoin:round; stroke-width:2; stroke-opacity:0.05; fill:none" points="251.071,873.442 2352.76,873.442 "/>
<polyline clip-path="url(#clip271)" style="stroke:#000000; stroke-linecap:round; stroke-linejoin:round; stroke-width:2; stroke-opacity:0.05; fill:none" points="251.071,800.699 2352.76,800.699 "/>
<polyline clip-path="url(#clip271)" style="stroke:#000000; stroke-linecap:round; stroke-linejoin:round; stroke-width:2; stroke-opacity:0.05; fill:none" points="251.071,749.087 2352.76,749.087 "/>
<polyline clip-path="url(#clip271)" style="stroke:#000000; stroke-linecap:round; stroke-linejoin:round; stroke-width:2; stroke-opacity:0.05; fill:none" points="251.071,709.054 2352.76,709.054 "/>
<polyline clip-path="url(#clip271)" style="stroke:#000000; stroke-linecap:round; stroke-linejoin:round; stroke-width:2; stroke-opacity:0.05; fill:none" points="251.071,676.344 2352.76,676.344 "/>
<polyline clip-path="url(#clip271)" style="stroke:#000000; stroke-linecap:round; stroke-linejoin:round; stroke-width:2; stroke-opacity:0.05; fill:none" points="251.071,648.688 2352.76,648.688 "/>
<polyline clip-path="url(#clip271)" style="stroke:#000000; stroke-linecap:round; stroke-linejoin:round; stroke-width:2; stroke-opacity:0.05; fill:none" points="251.071,624.732 2352.76,624.732 "/>
<polyline clip-path="url(#clip271)" style="stroke:#000000; stroke-linecap:round; stroke-linejoin:round; stroke-width:2; stroke-opacity:0.05; fill:none" points="251.071,603.601 2352.76,603.601 "/>
<polyline clip-path="url(#clip271)" style="stroke:#000000; stroke-linecap:round; stroke-linejoin:round; stroke-width:2; stroke-opacity:0.05; fill:none" points="251.071,584.698 2352.76,584.698 "/>
<polyline clip-path="url(#clip271)" style="stroke:#000000; stroke-linecap:round; stroke-linejoin:round; stroke-width:2; stroke-opacity:0.05; fill:none" points="251.071,460.343 2352.76,460.343 "/>
<polyline clip-path="url(#clip271)" style="stroke:#000000; stroke-linecap:round; stroke-linejoin:round; stroke-width:2; stroke-opacity:0.05; fill:none" points="251.071,387.6 2352.76,387.6 "/>
<polyline clip-path="url(#clip271)" style="stroke:#000000; stroke-linecap:round; stroke-linejoin:round; stroke-width:2; stroke-opacity:0.05; fill:none" points="251.071,335.988 2352.76,335.988 "/>
<polyline clip-path="url(#clip271)" style="stroke:#000000; stroke-linecap:round; stroke-linejoin:round; stroke-width:2; stroke-opacity:0.05; fill:none" points="251.071,295.955 2352.76,295.955 "/>
<polyline clip-path="url(#clip271)" style="stroke:#000000; stroke-linecap:round; stroke-linejoin:round; stroke-width:2; stroke-opacity:0.05; fill:none" points="251.071,263.245 2352.76,263.245 "/>
<polyline clip-path="url(#clip271)" style="stroke:#000000; stroke-linecap:round; stroke-linejoin:round; stroke-width:2; stroke-opacity:0.05; fill:none" points="251.071,235.589 2352.76,235.589 "/>
<polyline clip-path="url(#clip271)" style="stroke:#000000; stroke-linecap:round; stroke-linejoin:round; stroke-width:2; stroke-opacity:0.05; fill:none" points="251.071,211.633 2352.76,211.633 "/>
<polyline clip-path="url(#clip271)" style="stroke:#000000; stroke-linecap:round; stroke-linejoin:round; stroke-width:2; stroke-opacity:0.05; fill:none" points="251.071,190.502 2352.76,190.502 "/>
<polyline clip-path="url(#clip271)" style="stroke:#000000; stroke-linecap:round; stroke-linejoin:round; stroke-width:2; stroke-opacity:0.05; fill:none" points="251.071,47.2441 2352.76,47.2441 "/>
<polyline clip-path="url(#clip271)" style="stroke:#000000; stroke-linecap:round; stroke-linejoin:round; stroke-width:2; stroke-opacity:0.1; fill:none" points="1089.66,1410.9 1089.66,47.2441 "/>
<polyline clip-path="url(#clip271)" style="stroke:#000000; stroke-linecap:round; stroke-linejoin:round; stroke-width:2; stroke-opacity:0.1; fill:none" points="1982.4,1410.9 1982.4,47.2441 "/>
<polyline clip-path="url(#clip271)" style="stroke:#000000; stroke-linecap:round; stroke-linejoin:round; stroke-width:2; stroke-opacity:0.1; fill:none" points="251.071,997.798 2352.76,997.798 "/>
<polyline clip-path="url(#clip271)" style="stroke:#000000; stroke-linecap:round; stroke-linejoin:round; stroke-width:2; stroke-opacity:0.1; fill:none" points="251.071,171.599 2352.76,171.599 "/>
<polyline clip-path="url(#clip270)" style="stroke:#000000; stroke-linecap:round; stroke-linejoin:round; stroke-width:4; stroke-opacity:1; fill:none" points="251.071,1410.9 2352.76,1410.9 "/>
<polyline clip-path="url(#clip270)" style="stroke:#000000; stroke-linecap:round; stroke-linejoin:round; stroke-width:4; stroke-opacity:1; fill:none" points="1089.66,1410.9 1089.66,1392 "/>
<polyline clip-path="url(#clip270)" style="stroke:#000000; stroke-linecap:round; stroke-linejoin:round; stroke-width:4; stroke-opacity:1; fill:none" points="1982.4,1410.9 1982.4,1392 "/>
<path clip-path="url(#clip270)" d="M1036.67 1485.02 L1044.31 1485.02 L1044.31 1458.66 L1036 1460.32 L1036 1456.06 L1044.26 1454.4 L1048.94 1454.4 L1048.94 1485.02 L1056.58 1485.02 L1056.58 1488.96 L1036.67 1488.96 L1036.67 1485.02 Z" fill="#000000" fill-rule="nonzero" fill-opacity="1" /><path clip-path="url(#clip270)" d="M1076.02 1457.48 Q1072.41 1457.48 1070.58 1461.04 Q1068.78 1464.58 1068.78 1471.71 Q1068.78 1478.82 1070.58 1482.38 Q1072.41 1485.92 1076.02 1485.92 Q1079.66 1485.92 1081.46 1482.38 Q1083.29 1478.82 1083.29 1471.71 Q1083.29 1464.58 1081.46 1461.04 Q1079.66 1457.48 1076.02 1457.48 M1076.02 1453.77 Q1081.83 1453.77 1084.89 1458.38 Q1087.97 1462.96 1087.97 1471.71 Q1087.97 1480.44 1084.89 1485.04 Q1081.83 1489.63 1076.02 1489.63 Q1070.21 1489.63 1067.13 1485.04 Q1064.08 1480.44 1064.08 1471.71 Q1064.08 1462.96 1067.13 1458.38 Q1070.21 1453.77 1076.02 1453.77 Z" fill="#000000" fill-rule="nonzero" fill-opacity="1" /><path clip-path="url(#clip270)" d="M1097.67 1435.97 Q1094.74 1435.97 1093.25 1438.86 Q1091.78 1441.74 1091.78 1447.53 Q1091.78 1453.31 1093.25 1456.2 Q1094.74 1459.08 1097.67 1459.08 Q1100.62 1459.08 1102.09 1456.2 Q1103.58 1453.31 1103.58 1447.53 Q1103.58 1441.74 1102.09 1438.86 Q1100.62 1435.97 1097.67 1435.97 M1097.67 1432.96 Q1102.39 1432.96 1104.87 1436.7 Q1107.38 1440.43 1107.38 1447.53 Q1107.38 1454.62 1104.87 1458.37 Q1102.39 1462.09 1097.67 1462.09 Q1092.95 1462.09 1090.45 1458.37 Q1087.97 1454.62 1087.97 1447.53 Q1087.97 1440.43 1090.45 1436.7 Q1092.95 1432.96 1097.67 1432.96 Z" fill="#000000" fill-rule="nonzero" fill-opacity="1" /><path clip-path="url(#clip270)" d="M1114.05 1456.77 L1118.02 1456.77 L1118.02 1461.55 L1114.05 1461.55 L1114.05 1456.77 Z" fill="#000000" fill-rule="nonzero" fill-opacity="1" /><path clip-path="url(#clip270)" d="M1126.33 1433.47 L1141.25 1433.47 L1141.25 1436.66 L1129.81 1436.66 L1129.81 1443.55 Q1130.64 1443.27 1131.47 1443.13 Q1132.3 1442.98 1133.12 1442.98 Q1137.83 1442.98 1140.57 1445.56 Q1143.32 1448.14 1143.32 1452.54 Q1143.32 1457.07 1140.5 1459.59 Q1137.67 1462.09 1132.54 1462.09 Q1130.77 1462.09 1128.93 1461.79 Q1127.1 1461.49 1125.15 1460.89 L1125.15 1457.07 Q1126.84 1457.99 1128.65 1458.44 Q1130.45 1458.89 1132.46 1458.89 Q1135.72 1458.89 1137.62 1457.18 Q1139.52 1455.47 1139.52 1452.54 Q1139.52 1449.6 1137.62 1447.89 Q1135.72 1446.18 1132.46 1446.18 Q1130.94 1446.18 1129.42 1446.52 Q1127.91 1446.86 1126.33 1447.57 L1126.33 1433.47 Z" fill="#000000" fill-rule="nonzero" fill-opacity="1" /><path clip-path="url(#clip270)" d="M1929.85 1485.02 L1937.49 1485.02 L1937.49 1458.66 L1929.18 1460.32 L1929.18 1456.06 L1937.45 1454.4 L1942.12 1454.4 L1942.12 1485.02 L1949.76 1485.02 L1949.76 1488.96 L1929.85 1488.96 L1929.85 1485.02 Z" fill="#000000" fill-rule="nonzero" fill-opacity="1" /><path clip-path="url(#clip270)" d="M1969.21 1457.48 Q1965.59 1457.48 1963.77 1461.04 Q1961.96 1464.58 1961.96 1471.71 Q1961.96 1478.82 1963.77 1482.38 Q1965.59 1485.92 1969.21 1485.92 Q1972.84 1485.92 1974.65 1482.38 Q1976.47 1478.82 1976.47 1471.71 Q1976.47 1464.58 1974.65 1461.04 Q1972.84 1457.48 1969.21 1457.48 M1969.21 1453.77 Q1975.02 1453.77 1978.07 1458.38 Q1981.15 1462.96 1981.15 1471.71 Q1981.15 1480.44 1978.07 1485.04 Q1975.02 1489.63 1969.21 1489.63 Q1963.4 1489.63 1960.32 1485.04 Q1957.26 1480.44 1957.26 1471.71 Q1957.26 1462.96 1960.32 1458.38 Q1963.4 1453.77 1969.21 1453.77 Z" fill="#000000" fill-rule="nonzero" fill-opacity="1" /><path clip-path="url(#clip270)" d="M1981.7 1458.35 L1987.9 1458.35 L1987.9 1436.93 L1981.15 1438.28 L1981.15 1434.82 L1987.86 1433.47 L1991.66 1433.47 L1991.66 1458.35 L1997.87 1458.35 L1997.87 1461.55 L1981.7 1461.55 L1981.7 1458.35 Z" fill="#000000" fill-rule="nonzero" fill-opacity="1" /><path clip-path="url(#clip270)" d="M2005.54 1456.77 L2009.51 1456.77 L2009.51 1461.55 L2005.54 1461.55 L2005.54 1456.77 Z" fill="#000000" fill-rule="nonzero" fill-opacity="1" /><path clip-path="url(#clip270)" d="M2025.91 1435.97 Q2022.98 1435.97 2021.49 1438.86 Q2020.03 1441.74 2020.03 1447.53 Q2020.03 1453.31 2021.49 1456.2 Q2022.98 1459.08 2025.91 1459.08 Q2028.86 1459.08 2030.33 1456.2 Q2031.82 1453.31 2031.82 1447.53 Q2031.82 1441.74 2030.33 1438.86 Q2028.86 1435.97 2025.91 1435.97 M2025.91 1432.96 Q2030.63 1432.96 2033.12 1436.7 Q2035.62 1440.43 2035.62 1447.53 Q2035.62 1454.62 2033.12 1458.37 Q2030.63 1462.09 2025.91 1462.09 Q2021.19 1462.09 2018.69 1458.37 Q2016.21 1454.62 2016.21 1447.53 Q2016.21 1440.43 2018.69 1436.7 Q2021.19 1432.96 2025.91 1432.96 Z" fill="#000000" fill-rule="nonzero" fill-opacity="1" /><path clip-path="url(#clip270)" d="M1097.96 1526.67 L1128 1526.67 L1128 1532.08 L1104.39 1532.08 L1104.39 1546.14 L1127.02 1546.14 L1127.02 1551.56 L1104.39 1551.56 L1104.39 1568.77 L1128.58 1568.77 L1128.58 1574.19 L1097.96 1574.19 L1097.96 1526.67 Z" fill="#000000" fill-rule="nonzero" fill-opacity="1" /><path clip-path="url(#clip270)" d="M1168.52 1552.67 L1168.52 1574.19 L1162.66 1574.19 L1162.66 1552.86 Q1162.66 1547.8 1160.69 1545.29 Q1158.72 1542.77 1154.77 1542.77 Q1150.03 1542.77 1147.29 1545.79 Q1144.55 1548.82 1144.55 1554.04 L1144.55 1574.19 L1138.67 1574.19 L1138.67 1538.54 L1144.55 1538.54 L1144.55 1544.08 Q1146.65 1540.86 1149.49 1539.27 Q1152.35 1537.68 1156.08 1537.68 Q1162.22 1537.68 1165.37 1541.5 Q1168.52 1545.29 1168.52 1552.67 Z" fill="#000000" fill-rule="nonzero" fill-opacity="1" /><path clip-path="url(#clip270)" d="M1210.69 1554.9 L1210.69 1557.76 L1183.77 1557.76 Q1184.15 1563.81 1187.39 1566.99 Q1190.67 1570.14 1196.5 1570.14 Q1199.87 1570.14 1203.02 1569.32 Q1206.21 1568.49 1209.32 1566.83 L1209.32 1572.37 Q1206.17 1573.71 1202.86 1574.41 Q1199.55 1575.11 1196.15 1575.11 Q1187.62 1575.11 1182.62 1570.14 Q1177.65 1565.18 1177.65 1556.71 Q1177.65 1547.96 1182.37 1542.83 Q1187.11 1537.68 1195.13 1537.68 Q1202.32 1537.68 1206.49 1542.33 Q1210.69 1546.94 1210.69 1554.9 M1204.84 1553.18 Q1204.77 1548.37 1202.13 1545.51 Q1199.52 1542.64 1195.19 1542.64 Q1190.29 1542.64 1187.33 1545.41 Q1184.4 1548.18 1183.96 1553.21 L1204.84 1553.18 Z" fill="#000000" fill-rule="nonzero" fill-opacity="1" /><path clip-path="url(#clip270)" d="M1240.96 1544.01 Q1239.98 1543.44 1238.8 1543.18 Q1237.65 1542.9 1236.25 1542.9 Q1231.29 1542.9 1228.61 1546.14 Q1225.97 1549.36 1225.97 1555.41 L1225.97 1574.19 L1220.08 1574.19 L1220.08 1538.54 L1225.97 1538.54 L1225.97 1544.08 Q1227.82 1540.83 1230.78 1539.27 Q1233.74 1537.68 1237.97 1537.68 Q1238.57 1537.68 1239.31 1537.77 Q1240.04 1537.84 1240.93 1538 L1240.96 1544.01 Z" fill="#000000" fill-rule="nonzero" fill-opacity="1" /><path clip-path="url(#clip270)" d="M1269.42 1555.95 Q1269.42 1549.58 1266.77 1546.08 Q1264.16 1542.58 1259.42 1542.58 Q1254.71 1542.58 1252.07 1546.08 Q1249.46 1549.58 1249.46 1555.95 Q1249.46 1562.28 1252.07 1565.78 Q1254.71 1569.28 1259.42 1569.28 Q1264.16 1569.28 1266.77 1565.78 Q1269.42 1562.28 1269.42 1555.95 M1275.27 1569.76 Q1275.27 1578.86 1271.23 1583.29 Q1267.19 1587.74 1258.85 1587.74 Q1255.76 1587.74 1253.02 1587.27 Q1250.29 1586.82 1247.71 1585.87 L1247.71 1580.17 Q1250.29 1581.57 1252.8 1582.24 Q1255.32 1582.91 1257.93 1582.91 Q1263.69 1582.91 1266.55 1579.88 Q1269.42 1576.89 1269.42 1570.81 L1269.42 1567.92 Q1267.6 1571.07 1264.77 1572.63 Q1261.94 1574.19 1257.99 1574.19 Q1251.43 1574.19 1247.42 1569.19 Q1243.41 1564.19 1243.41 1555.95 Q1243.41 1547.67 1247.42 1542.68 Q1251.43 1537.68 1257.99 1537.68 Q1261.94 1537.68 1264.77 1539.24 Q1267.6 1540.8 1269.42 1543.95 L1269.42 1538.54 L1275.27 1538.54 L1275.27 1569.76 Z" fill="#000000" fill-rule="nonzero" fill-opacity="1" /><path clip-path="url(#clip270)" d="M1302.17 1577.5 Q1299.69 1583.86 1297.33 1585.8 Q1294.97 1587.74 1291.03 1587.74 L1286.35 1587.74 L1286.35 1582.84 L1289.79 1582.84 Q1292.21 1582.84 1293.54 1581.7 Q1294.88 1580.55 1296.5 1576.29 L1297.55 1573.61 L1283.13 1538.54 L1289.34 1538.54 L1300.48 1566.42 L1311.62 1538.54 L1317.83 1538.54 L1302.17 1577.5 Z" fill="#000000" fill-rule="nonzero" fill-opacity="1" /><path clip-path="url(#clip270)" d="M1360.7 1524.72 Q1356.44 1532.04 1354.37 1539.21 Q1352.3 1546.37 1352.3 1553.72 Q1352.3 1561.07 1354.37 1568.3 Q1356.47 1575.49 1360.7 1582.78 L1355.61 1582.78 Q1350.83 1575.3 1348.45 1568.07 Q1346.09 1560.85 1346.09 1553.72 Q1346.09 1546.62 1348.45 1539.43 Q1350.8 1532.24 1355.61 1524.72 L1360.7 1524.72 Z" fill="#000000" fill-rule="nonzero" fill-opacity="1" /><path clip-path="url(#clip270)" d="M1371.84 1524.66 L1377.73 1524.66 L1377.73 1553.91 L1395.2 1538.54 L1402.68 1538.54 L1383.78 1555.22 L1403.48 1574.19 L1395.84 1574.19 L1377.73 1556.78 L1377.73 1574.19 L1371.84 1574.19 L1371.84 1524.66 Z" fill="#000000" fill-rule="nonzero" fill-opacity="1" /><path clip-path="url(#clip270)" d="M1437.98 1554.9 L1437.98 1557.76 L1411.05 1557.76 Q1411.44 1563.81 1414.68 1566.99 Q1417.96 1570.14 1423.79 1570.14 Q1427.16 1570.14 1430.31 1569.32 Q1433.49 1568.49 1436.61 1566.83 L1436.61 1572.37 Q1433.46 1573.71 1430.15 1574.41 Q1426.84 1575.11 1423.43 1575.11 Q1414.9 1575.11 1409.91 1570.14 Q1404.94 1565.18 1404.94 1556.71 Q1404.94 1547.96 1409.65 1542.83 Q1414.4 1537.68 1422.42 1537.68 Q1429.61 1537.68 1433.78 1542.33 Q1437.98 1546.94 1437.98 1554.9 M1432.12 1553.18 Q1432.06 1548.37 1429.42 1545.51 Q1426.81 1542.64 1422.48 1542.64 Q1417.58 1542.64 1414.62 1545.41 Q1411.69 1548.18 1411.24 1553.21 L1432.12 1553.18 Z" fill="#000000" fill-rule="nonzero" fill-opacity="1" /><path clip-path="url(#clip270)" d="M1460.1 1574.19 L1441.96 1526.67 L1448.67 1526.67 L1463.73 1566.67 L1478.82 1526.67 L1485.5 1526.67 L1467.39 1574.19 L1460.1 1574.19 Z" fill="#000000" fill-rule="nonzero" fill-opacity="1" /><path clip-path="url(#clip270)" d="M1491.26 1524.72 L1496.35 1524.72 Q1501.13 1532.24 1503.48 1539.43 Q1505.87 1546.62 1505.87 1553.72 Q1505.87 1560.85 1503.48 1568.07 Q1501.13 1575.3 1496.35 1582.78 L1491.26 1582.78 Q1495.49 1575.49 1497.56 1568.3 Q1499.66 1561.07 1499.66 1553.72 Q1499.66 1546.37 1497.56 1539.21 Q1495.49 1532.04 1491.26 1524.72 Z" fill="#000000" fill-rule="nonzero" fill-opacity="1" /><polyline clip-path="url(#clip270)" style="stroke:#000000; stroke-linecap:round; stroke-linejoin:round; stroke-width:4; stroke-opacity:1; fill:none" points="251.071,1410.9 251.071,47.2441 "/>
<polyline clip-path="url(#clip270)" style="stroke:#000000; stroke-linecap:round; stroke-linejoin:round; stroke-width:4; stroke-opacity:1; fill:none" points="251.071,997.798 269.969,997.798 "/>
<polyline clip-path="url(#clip270)" style="stroke:#000000; stroke-linecap:round; stroke-linejoin:round; stroke-width:4; stroke-opacity:1; fill:none" points="251.071,171.599 269.969,171.599 "/>
<polyline clip-path="url(#clip270)" style="stroke:#000000; stroke-linecap:round; stroke-linejoin:round; stroke-width:4; stroke-opacity:1; fill:none" points="251.071,1286.54 260.52,1286.54 "/>
<polyline clip-path="url(#clip270)" style="stroke:#000000; stroke-linecap:round; stroke-linejoin:round; stroke-width:4; stroke-opacity:1; fill:none" points="251.071,1213.8 260.52,1213.8 "/>
<polyline clip-path="url(#clip270)" style="stroke:#000000; stroke-linecap:round; stroke-linejoin:round; stroke-width:4; stroke-opacity:1; fill:none" points="251.071,1162.19 260.52,1162.19 "/>
<polyline clip-path="url(#clip270)" style="stroke:#000000; stroke-linecap:round; stroke-linejoin:round; stroke-width:4; stroke-opacity:1; fill:none" points="251.071,1122.15 260.52,1122.15 "/>
<polyline clip-path="url(#clip270)" style="stroke:#000000; stroke-linecap:round; stroke-linejoin:round; stroke-width:4; stroke-opacity:1; fill:none" points="251.071,1089.44 260.52,1089.44 "/>
<polyline clip-path="url(#clip270)" style="stroke:#000000; stroke-linecap:round; stroke-linejoin:round; stroke-width:4; stroke-opacity:1; fill:none" points="251.071,1061.79 260.52,1061.79 "/>
<polyline clip-path="url(#clip270)" style="stroke:#000000; stroke-linecap:round; stroke-linejoin:round; stroke-width:4; stroke-opacity:1; fill:none" points="251.071,1037.83 260.52,1037.83 "/>
<polyline clip-path="url(#clip270)" style="stroke:#000000; stroke-linecap:round; stroke-linejoin:round; stroke-width:4; stroke-opacity:1; fill:none" points="251.071,1016.7 260.52,1016.7 "/>
<polyline clip-path="url(#clip270)" style="stroke:#000000; stroke-linecap:round; stroke-linejoin:round; stroke-width:4; stroke-opacity:1; fill:none" points="251.071,997.798 260.52,997.798 "/>
<polyline clip-path="url(#clip270)" style="stroke:#000000; stroke-linecap:round; stroke-linejoin:round; stroke-width:4; stroke-opacity:1; fill:none" points="251.071,997.798 260.52,997.798 "/>
<polyline clip-path="url(#clip270)" style="stroke:#000000; stroke-linecap:round; stroke-linejoin:round; stroke-width:4; stroke-opacity:1; fill:none" points="251.071,873.442 260.52,873.442 "/>
<polyline clip-path="url(#clip270)" style="stroke:#000000; stroke-linecap:round; stroke-linejoin:round; stroke-width:4; stroke-opacity:1; fill:none" points="251.071,800.699 260.52,800.699 "/>
<polyline clip-path="url(#clip270)" style="stroke:#000000; stroke-linecap:round; stroke-linejoin:round; stroke-width:4; stroke-opacity:1; fill:none" points="251.071,749.087 260.52,749.087 "/>
<polyline clip-path="url(#clip270)" style="stroke:#000000; stroke-linecap:round; stroke-linejoin:round; stroke-width:4; stroke-opacity:1; fill:none" points="251.071,709.054 260.52,709.054 "/>
<polyline clip-path="url(#clip270)" style="stroke:#000000; stroke-linecap:round; stroke-linejoin:round; stroke-width:4; stroke-opacity:1; fill:none" points="251.071,676.344 260.52,676.344 "/>
<polyline clip-path="url(#clip270)" style="stroke:#000000; stroke-linecap:round; stroke-linejoin:round; stroke-width:4; stroke-opacity:1; fill:none" points="251.071,648.688 260.52,648.688 "/>
<polyline clip-path="url(#clip270)" style="stroke:#000000; stroke-linecap:round; stroke-linejoin:round; stroke-width:4; stroke-opacity:1; fill:none" points="251.071,624.732 260.52,624.732 "/>
<polyline clip-path="url(#clip270)" style="stroke:#000000; stroke-linecap:round; stroke-linejoin:round; stroke-width:4; stroke-opacity:1; fill:none" points="251.071,603.601 260.52,603.601 "/>
<polyline clip-path="url(#clip270)" style="stroke:#000000; stroke-linecap:round; stroke-linejoin:round; stroke-width:4; stroke-opacity:1; fill:none" points="251.071,873.442 260.52,873.442 "/>
<polyline clip-path="url(#clip270)" style="stroke:#000000; stroke-linecap:round; stroke-linejoin:round; stroke-width:4; stroke-opacity:1; fill:none" points="251.071,800.699 260.52,800.699 "/>
<polyline clip-path="url(#clip270)" style="stroke:#000000; stroke-linecap:round; stroke-linejoin:round; stroke-width:4; stroke-opacity:1; fill:none" points="251.071,749.087 260.52,749.087 "/>
<polyline clip-path="url(#clip270)" style="stroke:#000000; stroke-linecap:round; stroke-linejoin:round; stroke-width:4; stroke-opacity:1; fill:none" points="251.071,709.054 260.52,709.054 "/>
<polyline clip-path="url(#clip270)" style="stroke:#000000; stroke-linecap:round; stroke-linejoin:round; stroke-width:4; stroke-opacity:1; fill:none" points="251.071,676.344 260.52,676.344 "/>
<polyline clip-path="url(#clip270)" style="stroke:#000000; stroke-linecap:round; stroke-linejoin:round; stroke-width:4; stroke-opacity:1; fill:none" points="251.071,648.688 260.52,648.688 "/>
<polyline clip-path="url(#clip270)" style="stroke:#000000; stroke-linecap:round; stroke-linejoin:round; stroke-width:4; stroke-opacity:1; fill:none" points="251.071,624.732 260.52,624.732 "/>
<polyline clip-path="url(#clip270)" style="stroke:#000000; stroke-linecap:round; stroke-linejoin:round; stroke-width:4; stroke-opacity:1; fill:none" points="251.071,603.601 260.52,603.601 "/>
<polyline clip-path="url(#clip270)" style="stroke:#000000; stroke-linecap:round; stroke-linejoin:round; stroke-width:4; stroke-opacity:1; fill:none" points="251.071,584.698 260.52,584.698 "/>
<polyline clip-path="url(#clip270)" style="stroke:#000000; stroke-linecap:round; stroke-linejoin:round; stroke-width:4; stroke-opacity:1; fill:none" points="251.071,460.343 260.52,460.343 "/>
<polyline clip-path="url(#clip270)" style="stroke:#000000; stroke-linecap:round; stroke-linejoin:round; stroke-width:4; stroke-opacity:1; fill:none" points="251.071,387.6 260.52,387.6 "/>
<polyline clip-path="url(#clip270)" style="stroke:#000000; stroke-linecap:round; stroke-linejoin:round; stroke-width:4; stroke-opacity:1; fill:none" points="251.071,335.988 260.52,335.988 "/>
<polyline clip-path="url(#clip270)" style="stroke:#000000; stroke-linecap:round; stroke-linejoin:round; stroke-width:4; stroke-opacity:1; fill:none" points="251.071,295.955 260.52,295.955 "/>
<polyline clip-path="url(#clip270)" style="stroke:#000000; stroke-linecap:round; stroke-linejoin:round; stroke-width:4; stroke-opacity:1; fill:none" points="251.071,263.245 260.52,263.245 "/>
<polyline clip-path="url(#clip270)" style="stroke:#000000; stroke-linecap:round; stroke-linejoin:round; stroke-width:4; stroke-opacity:1; fill:none" points="251.071,235.589 260.52,235.589 "/>
<polyline clip-path="url(#clip270)" style="stroke:#000000; stroke-linecap:round; stroke-linejoin:round; stroke-width:4; stroke-opacity:1; fill:none" points="251.071,211.633 260.52,211.633 "/>
<polyline clip-path="url(#clip270)" style="stroke:#000000; stroke-linecap:round; stroke-linejoin:round; stroke-width:4; stroke-opacity:1; fill:none" points="251.071,190.502 260.52,190.502 "/>
<polyline clip-path="url(#clip270)" style="stroke:#000000; stroke-linecap:round; stroke-linejoin:round; stroke-width:4; stroke-opacity:1; fill:none" points="251.071,47.2441 260.52,47.2441 "/>
<path clip-path="url(#clip270)" d="M114.931 1017.59 L122.57 1017.59 L122.57 991.224 L114.26 992.891 L114.26 988.632 L122.524 986.965 L127.2 986.965 L127.2 1017.59 L134.839 1017.59 L134.839 1021.53 L114.931 1021.53 L114.931 1017.59 Z" fill="#000000" fill-rule="nonzero" fill-opacity="1" /><path clip-path="url(#clip270)" d="M154.283 990.044 Q150.672 990.044 148.843 993.609 Q147.038 997.15 147.038 1004.28 Q147.038 1011.39 148.843 1014.95 Q150.672 1018.49 154.283 1018.49 Q157.917 1018.49 159.723 1014.95 Q161.552 1011.39 161.552 1004.28 Q161.552 997.15 159.723 993.609 Q157.917 990.044 154.283 990.044 M154.283 986.34 Q160.093 986.34 163.149 990.947 Q166.227 995.53 166.227 1004.28 Q166.227 1013.01 163.149 1017.61 Q160.093 1022.2 154.283 1022.2 Q148.473 1022.2 145.394 1017.61 Q142.339 1013.01 142.339 1004.28 Q142.339 995.53 145.394 990.947 Q148.473 986.34 154.283 986.34 Z" fill="#000000" fill-rule="nonzero" fill-opacity="1" /><path clip-path="url(#clip270)" d="M166.227 980.441 L190.339 980.441 L190.339 983.639 L166.227 983.639 L166.227 980.441 Z" fill="#000000" fill-rule="nonzero" fill-opacity="1" /><path clip-path="url(#clip270)" d="M201.812 990.917 L215.071 990.917 L215.071 994.115 L197.241 994.115 L197.241 990.917 Q199.404 988.679 203.128 984.918 Q206.871 981.137 207.83 980.047 Q209.655 977.996 210.369 976.586 Q211.103 975.157 211.103 973.784 Q211.103 971.545 209.523 970.135 Q207.962 968.724 205.442 968.724 Q203.655 968.724 201.661 969.345 Q199.686 969.966 197.43 971.226 L197.43 967.389 Q199.724 966.467 201.718 965.997 Q203.711 965.527 205.366 965.527 Q209.73 965.527 212.325 967.709 Q214.921 969.89 214.921 973.539 Q214.921 975.269 214.263 976.83 Q213.623 978.373 211.912 980.479 Q211.441 981.025 208.921 983.639 Q206.401 986.234 201.812 990.917 Z" fill="#000000" fill-rule="nonzero" fill-opacity="1" /><path clip-path="url(#clip270)" d="M144.366 191.392 L152.004 191.392 L152.004 165.026 L143.694 166.693 L143.694 162.434 L151.958 160.767 L156.634 160.767 L156.634 191.392 L164.273 191.392 L164.273 195.327 L144.366 195.327 L144.366 191.392 Z" fill="#000000" fill-rule="nonzero" fill-opacity="1" /><path clip-path="url(#clip270)" d="M183.717 163.846 Q180.106 163.846 178.277 167.41 Q176.472 170.952 176.472 178.082 Q176.472 185.188 178.277 188.753 Q180.106 192.295 183.717 192.295 Q187.351 192.295 189.157 188.753 Q190.986 185.188 190.986 178.082 Q190.986 170.952 189.157 167.41 Q187.351 163.846 183.717 163.846 M183.717 160.142 Q189.527 160.142 192.583 164.748 Q195.662 169.332 195.662 178.082 Q195.662 186.808 192.583 191.415 Q189.527 195.998 183.717 195.998 Q177.907 195.998 174.828 191.415 Q171.773 186.808 171.773 178.082 Q171.773 169.332 174.828 164.748 Q177.907 160.142 183.717 160.142 Z" fill="#000000" fill-rule="nonzero" fill-opacity="1" /><path clip-path="url(#clip270)" d="M205.366 142.338 Q202.432 142.338 200.947 145.234 Q199.48 148.112 199.48 153.905 Q199.48 159.679 200.947 162.575 Q202.432 165.453 205.366 165.453 Q208.319 165.453 209.786 162.575 Q211.272 159.679 211.272 153.905 Q211.272 148.112 209.786 145.234 Q208.319 142.338 205.366 142.338 M205.366 139.329 Q210.087 139.329 212.57 143.071 Q215.071 146.795 215.071 153.905 Q215.071 160.995 212.57 164.738 Q210.087 168.462 205.366 168.462 Q200.646 168.462 198.144 164.738 Q195.662 160.995 195.662 153.905 Q195.662 146.795 198.144 143.071 Q200.646 139.329 205.366 139.329 Z" fill="#000000" fill-rule="nonzero" fill-opacity="1" /><path clip-path="url(#clip270)" d="M29.7248 1022.37 L35.1993 1022.37 Q33.8307 1024.85 33.1623 1027.37 Q32.4621 1029.85 32.4621 1032.4 Q32.4621 1038.09 36.0905 1041.24 Q39.6872 1044.4 46.212 1044.4 Q52.7369 1044.4 56.3653 1041.24 Q59.9619 1038.09 59.9619 1032.4 Q59.9619 1029.85 59.2935 1027.37 Q58.5933 1024.85 57.2247 1022.37 L62.6355 1022.37 Q63.7814 1024.82 64.3543 1027.46 Q64.9272 1030.07 64.9272 1033.03 Q64.9272 1041.09 59.8664 1045.83 Q54.8057 1050.57 46.212 1050.57 Q37.491 1050.57 32.4939 1045.8 Q27.4968 1040.99 27.4968 1032.65 Q27.4968 1029.95 28.0697 1027.37 Q28.6108 1024.79 29.7248 1022.37 Z" fill="#000000" fill-rule="nonzero" fill-opacity="1" /><path clip-path="url(#clip270)" d="M32.4621 998.372 Q32.4621 1003.08 36.1542 1005.82 Q39.8145 1008.56 46.212 1008.56 Q52.6095 1008.56 56.3017 1005.85 Q59.9619 1003.11 59.9619 998.372 Q59.9619 993.693 56.2698 990.956 Q52.5777 988.218 46.212 988.218 Q39.8781 988.218 36.186 990.956 Q32.4621 993.693 32.4621 998.372 M27.4968 998.372 Q27.4968 990.733 32.4621 986.372 Q37.4273 982.012 46.212 982.012 Q54.9649 982.012 59.9619 986.372 Q64.9272 990.733 64.9272 998.372 Q64.9272 1006.04 59.9619 1010.4 Q54.9649 1014.73 46.212 1014.73 Q37.4273 1014.73 32.4621 1010.4 Q27.4968 1006.04 27.4968 998.372 Z" fill="#000000" fill-rule="nonzero" fill-opacity="1" /><path clip-path="url(#clip270)" d="M49.9359 972.909 L28.3562 972.909 L28.3562 967.052 L49.7131 967.052 Q54.7739 967.052 57.3202 965.079 Q59.8346 963.106 59.8346 959.159 Q59.8346 954.416 56.8109 951.679 Q53.7872 948.91 48.5673 948.91 L28.3562 948.91 L28.3562 943.054 L64.0042 943.054 L64.0042 948.91 L58.5296 948.91 Q61.7762 951.043 63.3676 953.875 Q64.9272 956.676 64.9272 960.4 Q64.9272 966.543 61.1078 969.726 Q57.2883 972.909 49.9359 972.909 M27.4968 958.172 L27.4968 958.172 Z" fill="#000000" fill-rule="nonzero" fill-opacity="1" /><path clip-path="url(#clip270)" d="M42.4881 901.358 L64.0042 901.358 L64.0042 907.215 L42.679 907.215 Q37.6183 907.215 35.1038 909.188 Q32.5894 911.161 32.5894 915.108 Q32.5894 919.851 35.6131 922.588 Q38.6368 925.325 43.8567 925.325 L64.0042 925.325 L64.0042 931.213 L28.3562 931.213 L28.3562 925.325 L33.8944 925.325 Q30.6797 923.224 29.0883 920.392 Q27.4968 917.527 27.4968 913.803 Q27.4968 907.66 31.3163 904.509 Q35.1038 901.358 42.4881 901.358 Z" fill="#000000" fill-rule="nonzero" fill-opacity="1" /><path clip-path="url(#clip270)" d="M18.2347 883.884 L28.3562 883.884 L28.3562 871.821 L32.9077 871.821 L32.9077 883.884 L52.2594 883.884 Q56.6199 883.884 57.8613 882.707 Q59.1026 881.497 59.1026 877.837 L59.1026 871.821 L64.0042 871.821 L64.0042 877.837 Q64.0042 884.616 61.4897 887.195 Q58.9434 889.773 52.2594 889.773 L32.9077 889.773 L32.9077 894.069 L28.3562 894.069 L28.3562 889.773 L18.2347 889.773 L18.2347 883.884 Z" fill="#000000" fill-rule="nonzero" fill-opacity="1" /><path clip-path="url(#clip270)" d="M29.4065 841.393 L34.9447 841.393 Q33.6716 843.876 33.035 846.549 Q32.3984 849.223 32.3984 852.088 Q32.3984 856.448 33.7352 858.644 Q35.072 860.809 37.7456 860.809 Q39.7826 860.809 40.9603 859.249 Q42.1061 857.689 43.1565 852.979 L43.6021 850.974 Q44.9389 844.735 47.3897 842.125 Q49.8086 839.484 54.1691 839.484 Q59.1344 839.484 62.0308 843.43 Q64.9272 847.345 64.9272 854.22 Q64.9272 857.085 64.3543 860.204 Q63.8132 863.291 62.6992 866.729 L56.6518 866.729 Q58.3387 863.482 59.198 860.331 Q60.0256 857.18 60.0256 854.093 Q60.0256 849.955 58.6251 847.727 Q57.1929 845.499 54.6147 845.499 Q52.2276 845.499 50.9545 847.122 Q49.6813 848.714 48.5037 854.157 L48.0262 856.194 Q46.8804 861.636 44.5251 864.055 Q42.138 866.474 38.0002 866.474 Q32.9713 866.474 30.2341 862.909 Q27.4968 859.345 27.4968 852.788 Q27.4968 849.541 27.9743 846.677 Q28.4517 843.812 29.4065 841.393 Z" fill="#000000" fill-rule="nonzero" fill-opacity="1" /><path clip-path="url(#clip270)" d="M29.4065 786.712 L34.9447 786.712 Q33.6716 789.194 33.035 791.868 Q32.3984 794.542 32.3984 797.406 Q32.3984 801.767 33.7352 803.963 Q35.072 806.127 37.7456 806.127 Q39.7826 806.127 40.9603 804.568 Q42.1061 803.008 43.1565 798.297 L43.6021 796.292 Q44.9389 790.054 47.3897 787.444 Q49.8086 784.802 54.1691 784.802 Q59.1344 784.802 62.0308 788.749 Q64.9272 792.664 64.9272 799.539 Q64.9272 802.403 64.3543 805.523 Q63.8132 808.61 62.6992 812.047 L56.6518 812.047 Q58.3387 808.801 59.198 805.65 Q60.0256 802.499 60.0256 799.411 Q60.0256 795.274 58.6251 793.046 Q57.1929 790.818 54.6147 790.818 Q52.2276 790.818 50.9545 792.441 Q49.6813 794.032 48.5037 799.475 L48.0262 801.512 Q46.8804 806.955 44.5251 809.374 Q42.138 811.793 38.0002 811.793 Q32.9713 811.793 30.2341 808.228 Q27.4968 804.663 27.4968 798.106 Q27.4968 794.86 27.9743 791.995 Q28.4517 789.131 29.4065 786.712 Z" fill="#000000" fill-rule="nonzero" fill-opacity="1" /><path clip-path="url(#clip270)" d="M16.4842 751.191 L34.2127 733.908 L34.2127 740.306 L21.6404 754.31 L34.2127 768.315 L34.2127 774.712 L16.4842 757.43 L16.4842 751.191 Z" fill="#000000" fill-rule="nonzero" fill-opacity="1" /><path clip-path="url(#clip270)" d="M43.5384 723.819 L43.5384 706.663 L48.7583 706.663 L48.7583 723.819 L43.5384 723.819 Z" fill="#000000" fill-rule="nonzero" fill-opacity="1" /><path clip-path="url(#clip270)" d="M58.5933 695.396 L58.5933 684.892 L22.3406 684.892 L24.6323 696.319 L18.7758 696.319 L16.4842 684.956 L16.4842 678.527 L58.5933 678.527 L58.5933 668.023 L64.0042 668.023 L64.0042 695.396 L58.5933 695.396 Z" fill="#000000" fill-rule="nonzero" fill-opacity="1" /><path clip-path="url(#clip270)" d="M14.479 635.367 L14.479 629.479 L43.7294 629.479 L28.3562 612.005 L28.3562 604.525 L45.0344 623.431 L64.0042 603.73 L64.0042 611.368 L46.5939 629.479 L64.0042 629.479 L64.0042 635.367 L14.479 635.367 Z" fill="#000000" fill-rule="nonzero" fill-opacity="1" /><path clip-path="url(#clip270)" d="M44.7161 569.227 L47.5806 569.227 L47.5806 596.154 Q53.6281 595.772 56.8109 592.526 Q59.9619 589.248 59.9619 583.423 Q59.9619 580.049 59.1344 576.898 Q58.3069 573.715 56.6518 570.596 L62.1899 570.596 Q63.5267 573.747 64.227 577.057 Q64.9272 580.367 64.9272 583.773 Q64.9272 592.303 59.9619 597.3 Q54.9967 602.265 46.5303 602.265 Q37.7774 602.265 32.6531 597.555 Q27.4968 592.812 27.4968 584.792 Q27.4968 577.598 32.1438 573.429 Q36.7589 569.227 44.7161 569.227 M42.9973 575.084 Q38.1912 575.148 35.3266 577.789 Q32.4621 580.399 32.4621 584.728 Q32.4621 589.63 35.2312 592.59 Q38.0002 595.518 43.0292 595.963 L42.9973 575.084 Z" fill="#000000" fill-rule="nonzero" fill-opacity="1" /><path clip-path="url(#clip270)" d="M64.0042 547.107 L16.4842 565.249 L16.4842 558.533 L56.4926 543.478 L16.4842 528.391 L16.4842 521.707 L64.0042 539.818 L64.0042 547.107 Z" fill="#000000" fill-rule="nonzero" fill-opacity="1" /><path clip-path="url(#clip270)" d="M16.4842 490.738 L34.2127 473.455 L34.2127 479.853 L21.6404 493.858 L34.2127 507.862 L34.2127 514.26 L16.4842 496.977 L16.4842 490.738 Z" fill="#000000" fill-rule="nonzero" fill-opacity="1" /><path clip-path="url(#clip270)" d="M43.5384 463.366 L43.5384 446.21 L48.7583 446.21 L48.7583 463.366 L43.5384 463.366 Z" fill="#000000" fill-rule="nonzero" fill-opacity="1" /><path clip-path="url(#clip270)" d="M58.5933 434.943 L58.5933 424.439 L22.3406 424.439 L24.6323 435.866 L18.7758 435.866 L16.4842 424.503 L16.4842 418.074 L58.5933 418.074 L58.5933 407.57 L64.0042 407.57 L64.0042 434.943 L58.5933 434.943 Z" fill="#000000" fill-rule="nonzero" fill-opacity="1" /><polyline clip-path="url(#clip271)" style="stroke:#009af9; stroke-linecap:round; stroke-linejoin:round; stroke-width:4; stroke-opacity:1; fill:none" points="310.553,323.298 451.344,323.298 "/>
<polyline clip-path="url(#clip271)" style="stroke:#009af9; stroke-linecap:round; stroke-linejoin:round; stroke-width:4; stroke-opacity:1; fill:none" points="451.344,282.787 576.64,282.787 "/>
<polyline clip-path="url(#clip271)" style="stroke:#009af9; stroke-linecap:round; stroke-linejoin:round; stroke-width:4; stroke-opacity:1; fill:none" points="576.64,195.876 686.739,195.876 "/>
<polyline clip-path="url(#clip271)" style="stroke:#009af9; stroke-linecap:round; stroke-linejoin:round; stroke-width:4; stroke-opacity:1; fill:none" points="686.739,151.006 783.159,151.006 "/>
<polyline clip-path="url(#clip271)" style="stroke:#009af9; stroke-linecap:round; stroke-linejoin:round; stroke-width:4; stroke-opacity:1; fill:none" points="783.159,134.713 868.714,134.713 "/>
<polyline clip-path="url(#clip271)" style="stroke:#009af9; stroke-linecap:round; stroke-linejoin:round; stroke-width:4; stroke-opacity:1; fill:none" points="868.714,163.654 945.442,163.654 "/>
<polyline clip-path="url(#clip271)" style="stroke:#009af9; stroke-linecap:round; stroke-linejoin:round; stroke-width:4; stroke-opacity:1; fill:none" points="945.442,185.533 1015.42,185.533 "/>
<polyline clip-path="url(#clip271)" style="stroke:#009af9; stroke-linecap:round; stroke-linejoin:round; stroke-width:4; stroke-opacity:1; fill:none" points="1015.42,170.24 1079.73,170.24 "/>
<polyline clip-path="url(#clip271)" style="stroke:#009af9; stroke-linecap:round; stroke-linejoin:round; stroke-width:4; stroke-opacity:1; fill:none" points="1079.73,173.803 1139.26,173.803 "/>
<polyline clip-path="url(#clip271)" style="stroke:#009af9; stroke-linecap:round; stroke-linejoin:round; stroke-width:4; stroke-opacity:1; fill:none" points="1139.26,192.578 1194.97,192.578 "/>
<polyline clip-path="url(#clip271)" style="stroke:#009af9; stroke-linecap:round; stroke-linejoin:round; stroke-width:4; stroke-opacity:1; fill:none" points="1194.97,194.28 1248.17,194.28 "/>
<polyline clip-path="url(#clip271)" style="stroke:#009af9; stroke-linecap:round; stroke-linejoin:round; stroke-width:4; stroke-opacity:1; fill:none" points="1248.17,240.354 1299.14,240.354 "/>
<polyline clip-path="url(#clip271)" style="stroke:#009af9; stroke-linecap:round; stroke-linejoin:round; stroke-width:4; stroke-opacity:1; fill:none" points="1299.14,248.1 1347.46,248.1 "/>
<polyline clip-path="url(#clip271)" style="stroke:#009af9; stroke-linecap:round; stroke-linejoin:round; stroke-width:4; stroke-opacity:1; fill:none" points="1347.46,272.397 1393.41,272.397 "/>
<polyline clip-path="url(#clip271)" style="stroke:#009af9; stroke-linecap:round; stroke-linejoin:round; stroke-width:4; stroke-opacity:1; fill:none" points="1393.41,298.958 1437.22,298.958 "/>
<polyline clip-path="url(#clip271)" style="stroke:#009af9; stroke-linecap:round; stroke-linejoin:round; stroke-width:4; stroke-opacity:1; fill:none" points="1437.22,329.968 1479.1,329.968 "/>
<polyline clip-path="url(#clip271)" style="stroke:#009af9; stroke-linecap:round; stroke-linejoin:round; stroke-width:4; stroke-opacity:1; fill:none" points="1479.1,347.499 1519.23,347.499 "/>
<polyline clip-path="url(#clip271)" style="stroke:#009af9; stroke-linecap:round; stroke-linejoin:round; stroke-width:4; stroke-opacity:1; fill:none" points="1519.23,348.401 1557.77,348.401 "/>
<polyline clip-path="url(#clip271)" style="stroke:#009af9; stroke-linecap:round; stroke-linejoin:round; stroke-width:4; stroke-opacity:1; fill:none" points="1557.77,350.95 1594.87,350.95 "/>
<polyline clip-path="url(#clip271)" style="stroke:#009af9; stroke-linecap:round; stroke-linejoin:round; stroke-width:4; stroke-opacity:1; fill:none" points="1594.87,427.806 1630.67,427.806 "/>
<polyline clip-path="url(#clip271)" style="stroke:#009af9; stroke-linecap:round; stroke-linejoin:round; stroke-width:4; stroke-opacity:1; fill:none" points="1630.67,457.575 1665.3,457.575 "/>
<polyline clip-path="url(#clip271)" style="stroke:#009af9; stroke-linecap:round; stroke-linejoin:round; stroke-width:4; stroke-opacity:1; fill:none" points="1665.3,399.953 1698.84,399.953 "/>
<polyline clip-path="url(#clip271)" style="stroke:#009af9; stroke-linecap:round; stroke-linejoin:round; stroke-width:4; stroke-opacity:1; fill:none" points="1698.84,478.824 1731.39,478.824 "/>
<polyline clip-path="url(#clip271)" style="stroke:#009af9; stroke-linecap:round; stroke-linejoin:round; stroke-width:4; stroke-opacity:1; fill:none" points="1731.39,503.573 1763.02,503.573 "/>
<polyline clip-path="url(#clip271)" style="stroke:#009af9; stroke-linecap:round; stroke-linejoin:round; stroke-width:4; stroke-opacity:1; fill:none" points="1763.02,551.697 1793.79,551.697 "/>
<polyline clip-path="url(#clip271)" style="stroke:#009af9; stroke-linecap:round; stroke-linejoin:round; stroke-width:4; stroke-opacity:1; fill:none" points="1793.79,779.39 1823.73,779.39 "/>
<polyline clip-path="url(#clip271)" style="stroke:#009af9; stroke-linecap:round; stroke-linejoin:round; stroke-width:4; stroke-opacity:1; fill:none" points="1823.73,637.837 1852.91,637.837 "/>
<polyline clip-path="url(#clip271)" style="stroke:#009af9; stroke-linecap:round; stroke-linejoin:round; stroke-width:4; stroke-opacity:1; fill:none" points="1852.91,869.089 1881.36,869.089 "/>
<polyline clip-path="url(#clip271)" style="stroke:#009af9; stroke-linecap:round; stroke-linejoin:round; stroke-width:4; stroke-opacity:1; fill:none" points="1881.36,896.184 1909.13,896.184 "/>
<polyline clip-path="url(#clip271)" style="stroke:#009af9; stroke-linecap:round; stroke-linejoin:round; stroke-width:4; stroke-opacity:1; fill:none" points="1909.13,874.101 1936.28,874.101 "/>
<polyline clip-path="url(#clip271)" style="stroke:#009af9; stroke-linecap:round; stroke-linejoin:round; stroke-width:4; stroke-opacity:1; fill:none" points="1936.28,1037.02 1962.86,1037.02 "/>
<polyline clip-path="url(#clip271)" style="stroke:#009af9; stroke-linecap:round; stroke-linejoin:round; stroke-width:4; stroke-opacity:1; fill:none" points="2014.55,734.993 2039.76,734.993 "/>
<polyline clip-path="url(#clip271)" style="stroke:#009af9; stroke-linecap:round; stroke-linejoin:round; stroke-width:4; stroke-opacity:1; fill:none" points="2064.6,955.093 2089.08,955.093 "/>
<polyline clip-path="url(#clip271)" style="stroke:#009af9; stroke-linecap:round; stroke-linejoin:round; stroke-width:4; stroke-opacity:1; fill:none" points="2113.22,668.749 2137.01,668.749 "/>
<polyline clip-path="url(#clip271)" style="stroke:#009af9; stroke-linecap:round; stroke-linejoin:round; stroke-width:4; stroke-opacity:1; fill:none" points="2137.01,678.156 2160.45,678.156 "/>
<polyline clip-path="url(#clip271)" style="stroke:#009af9; stroke-linecap:round; stroke-linejoin:round; stroke-width:4; stroke-opacity:1; fill:none" points="2160.45,888.234 2183.53,888.234 "/>
<polyline clip-path="url(#clip271)" style="stroke:#009af9; stroke-linecap:round; stroke-linejoin:round; stroke-width:4; stroke-opacity:1; fill:none" points="2206.23,720.616 2228.55,720.616 "/>
<polyline clip-path="url(#clip271)" style="stroke:#009af9; stroke-linecap:round; stroke-linejoin:round; stroke-width:4; stroke-opacity:1; fill:none" points="2250.49,739.267 2272.06,739.267 "/>
<polyline clip-path="url(#clip271)" style="stroke:#009af9; stroke-linecap:round; stroke-linejoin:round; stroke-width:4; stroke-opacity:1; fill:none" points="2272.06,1004.8 2293.27,1004.8 "/>
<line clip-path="url(#clip271)" x1="310.553" y1="325.298" x2="310.553" y2="321.298" style="stroke:#009af9; stroke-width:4; stroke-opacity:1"/>
<line clip-path="url(#clip271)" x1="451.344" y1="325.298" x2="451.344" y2="321.298" style="stroke:#009af9; stroke-width:4; stroke-opacity:1"/>
<line clip-path="url(#clip271)" x1="451.344" y1="284.787" x2="451.344" y2="280.787" style="stroke:#009af9; stroke-width:4; stroke-opacity:1"/>
<line clip-path="url(#clip271)" x1="576.64" y1="284.787" x2="576.64" y2="280.787" style="stroke:#009af9; stroke-width:4; stroke-opacity:1"/>
<line clip-path="url(#clip271)" x1="576.64" y1="197.876" x2="576.64" y2="193.876" style="stroke:#009af9; stroke-width:4; stroke-opacity:1"/>
<line clip-path="url(#clip271)" x1="686.739" y1="197.876" x2="686.739" y2="193.876" style="stroke:#009af9; stroke-width:4; stroke-opacity:1"/>
<line clip-path="url(#clip271)" x1="686.739" y1="153.006" x2="686.739" y2="149.006" style="stroke:#009af9; stroke-width:4; stroke-opacity:1"/>
<line clip-path="url(#clip271)" x1="783.159" y1="153.006" x2="783.159" y2="149.006" style="stroke:#009af9; stroke-width:4; stroke-opacity:1"/>
<line clip-path="url(#clip271)" x1="783.159" y1="136.713" x2="783.159" y2="132.713" style="stroke:#009af9; stroke-width:4; stroke-opacity:1"/>
<line clip-path="url(#clip271)" x1="868.714" y1="136.713" x2="868.714" y2="132.713" style="stroke:#009af9; stroke-width:4; stroke-opacity:1"/>
<line clip-path="url(#clip271)" x1="868.714" y1="165.654" x2="868.714" y2="161.654" style="stroke:#009af9; stroke-width:4; stroke-opacity:1"/>
<line clip-path="url(#clip271)" x1="945.442" y1="165.654" x2="945.442" y2="161.654" style="stroke:#009af9; stroke-width:4; stroke-opacity:1"/>
<line clip-path="url(#clip271)" x1="945.442" y1="187.533" x2="945.442" y2="183.533" style="stroke:#009af9; stroke-width:4; stroke-opacity:1"/>
<line clip-path="url(#clip271)" x1="1015.42" y1="187.533" x2="1015.42" y2="183.533" style="stroke:#009af9; stroke-width:4; stroke-opacity:1"/>
<line clip-path="url(#clip271)" x1="1015.42" y1="172.24" x2="1015.42" y2="168.24" style="stroke:#009af9; stroke-width:4; stroke-opacity:1"/>
<line clip-path="url(#clip271)" x1="1079.73" y1="172.24" x2="1079.73" y2="168.24" style="stroke:#009af9; stroke-width:4; stroke-opacity:1"/>
<line clip-path="url(#clip271)" x1="1079.73" y1="175.803" x2="1079.73" y2="171.803" style="stroke:#009af9; stroke-width:4; stroke-opacity:1"/>
<line clip-path="url(#clip271)" x1="1139.26" y1="175.803" x2="1139.26" y2="171.803" style="stroke:#009af9; stroke-width:4; stroke-opacity:1"/>
<line clip-path="url(#clip271)" x1="1139.26" y1="194.578" x2="1139.26" y2="190.578" style="stroke:#009af9; stroke-width:4; stroke-opacity:1"/>
<line clip-path="url(#clip271)" x1="1194.97" y1="194.578" x2="1194.97" y2="190.578" style="stroke:#009af9; stroke-width:4; stroke-opacity:1"/>
<line clip-path="url(#clip271)" x1="1194.97" y1="196.28" x2="1194.97" y2="192.28" style="stroke:#009af9; stroke-width:4; stroke-opacity:1"/>
<line clip-path="url(#clip271)" x1="1248.17" y1="196.28" x2="1248.17" y2="192.28" style="stroke:#009af9; stroke-width:4; stroke-opacity:1"/>
<line clip-path="url(#clip271)" x1="1248.17" y1="242.354" x2="1248.17" y2="238.354" style="stroke:#009af9; stroke-width:4; stroke-opacity:1"/>
<line clip-path="url(#clip271)" x1="1299.14" y1="242.354" x2="1299.14" y2="238.354" style="stroke:#009af9; stroke-width:4; stroke-opacity:1"/>
<line clip-path="url(#clip271)" x1="1299.14" y1="250.1" x2="1299.14" y2="246.1" style="stroke:#009af9; stroke-width:4; stroke-opacity:1"/>
<line clip-path="url(#clip271)" x1="1347.46" y1="250.1" x2="1347.46" y2="246.1" style="stroke:#009af9; stroke-width:4; stroke-opacity:1"/>
<line clip-path="url(#clip271)" x1="1347.46" y1="274.397" x2="1347.46" y2="270.397" style="stroke:#009af9; stroke-width:4; stroke-opacity:1"/>
<line clip-path="url(#clip271)" x1="1393.41" y1="274.397" x2="1393.41" y2="270.397" style="stroke:#009af9; stroke-width:4; stroke-opacity:1"/>
<line clip-path="url(#clip271)" x1="1393.41" y1="300.958" x2="1393.41" y2="296.958" style="stroke:#009af9; stroke-width:4; stroke-opacity:1"/>
<line clip-path="url(#clip271)" x1="1437.22" y1="300.958" x2="1437.22" y2="296.958" style="stroke:#009af9; stroke-width:4; stroke-opacity:1"/>
<line clip-path="url(#clip271)" x1="1437.22" y1="331.968" x2="1437.22" y2="327.968" style="stroke:#009af9; stroke-width:4; stroke-opacity:1"/>
<line clip-path="url(#clip271)" x1="1479.1" y1="331.968" x2="1479.1" y2="327.968" style="stroke:#009af9; stroke-width:4; stroke-opacity:1"/>
<line clip-path="url(#clip271)" x1="1479.1" y1="349.499" x2="1479.1" y2="345.499" style="stroke:#009af9; stroke-width:4; stroke-opacity:1"/>
<line clip-path="url(#clip271)" x1="1519.23" y1="349.499" x2="1519.23" y2="345.499" style="stroke:#009af9; stroke-width:4; stroke-opacity:1"/>
<line clip-path="url(#clip271)" x1="1519.23" y1="350.401" x2="1519.23" y2="346.401" style="stroke:#009af9; stroke-width:4; stroke-opacity:1"/>
<line clip-path="url(#clip271)" x1="1557.77" y1="350.401" x2="1557.77" y2="346.401" style="stroke:#009af9; stroke-width:4; stroke-opacity:1"/>
<line clip-path="url(#clip271)" x1="1557.77" y1="352.95" x2="1557.77" y2="348.95" style="stroke:#009af9; stroke-width:4; stroke-opacity:1"/>
<line clip-path="url(#clip271)" x1="1594.87" y1="352.95" x2="1594.87" y2="348.95" style="stroke:#009af9; stroke-width:4; stroke-opacity:1"/>
<line clip-path="url(#clip271)" x1="1594.87" y1="429.806" x2="1594.87" y2="425.806" style="stroke:#009af9; stroke-width:4; stroke-opacity:1"/>
<line clip-path="url(#clip271)" x1="1630.67" y1="429.806" x2="1630.67" y2="425.806" style="stroke:#009af9; stroke-width:4; stroke-opacity:1"/>
<line clip-path="url(#clip271)" x1="1630.67" y1="459.575" x2="1630.67" y2="455.575" style="stroke:#009af9; stroke-width:4; stroke-opacity:1"/>
<line clip-path="url(#clip271)" x1="1665.3" y1="459.575" x2="1665.3" y2="455.575" style="stroke:#009af9; stroke-width:4; stroke-opacity:1"/>
<line clip-path="url(#clip271)" x1="1665.3" y1="401.953" x2="1665.3" y2="397.953" style="stroke:#009af9; stroke-width:4; stroke-opacity:1"/>
<line clip-path="url(#clip271)" x1="1698.84" y1="401.953" x2="1698.84" y2="397.953" style="stroke:#009af9; stroke-width:4; stroke-opacity:1"/>
<line clip-path="url(#clip271)" x1="1698.84" y1="480.824" x2="1698.84" y2="476.824" style="stroke:#009af9; stroke-width:4; stroke-opacity:1"/>
<line clip-path="url(#clip271)" x1="1731.39" y1="480.824" x2="1731.39" y2="476.824" style="stroke:#009af9; stroke-width:4; stroke-opacity:1"/>
<line clip-path="url(#clip271)" x1="1731.39" y1="505.573" x2="1731.39" y2="501.573" style="stroke:#009af9; stroke-width:4; stroke-opacity:1"/>
<line clip-path="url(#clip271)" x1="1763.02" y1="505.573" x2="1763.02" y2="501.573" style="stroke:#009af9; stroke-width:4; stroke-opacity:1"/>
<line clip-path="url(#clip271)" x1="1763.02" y1="553.697" x2="1763.02" y2="549.697" style="stroke:#009af9; stroke-width:4; stroke-opacity:1"/>
<line clip-path="url(#clip271)" x1="1793.79" y1="553.697" x2="1793.79" y2="549.697" style="stroke:#009af9; stroke-width:4; stroke-opacity:1"/>
<line clip-path="url(#clip271)" x1="1793.79" y1="781.39" x2="1793.79" y2="777.39" style="stroke:#009af9; stroke-width:4; stroke-opacity:1"/>
<line clip-path="url(#clip271)" x1="1823.73" y1="781.39" x2="1823.73" y2="777.39" style="stroke:#009af9; stroke-width:4; stroke-opacity:1"/>
<line clip-path="url(#clip271)" x1="1823.73" y1="639.837" x2="1823.73" y2="635.837" style="stroke:#009af9; stroke-width:4; stroke-opacity:1"/>
<line clip-path="url(#clip271)" x1="1852.91" y1="639.837" x2="1852.91" y2="635.837" style="stroke:#009af9; stroke-width:4; stroke-opacity:1"/>
<line clip-path="url(#clip271)" x1="1852.91" y1="871.089" x2="1852.91" y2="867.089" style="stroke:#009af9; stroke-width:4; stroke-opacity:1"/>
<line clip-path="url(#clip271)" x1="1881.36" y1="871.089" x2="1881.36" y2="867.089" style="stroke:#009af9; stroke-width:4; stroke-opacity:1"/>
<line clip-path="url(#clip271)" x1="1881.36" y1="898.184" x2="1881.36" y2="894.184" style="stroke:#009af9; stroke-width:4; stroke-opacity:1"/>
<line clip-path="url(#clip271)" x1="1909.13" y1="898.184" x2="1909.13" y2="894.184" style="stroke:#009af9; stroke-width:4; stroke-opacity:1"/>
<line clip-path="url(#clip271)" x1="1909.13" y1="876.101" x2="1909.13" y2="872.101" style="stroke:#009af9; stroke-width:4; stroke-opacity:1"/>
<line clip-path="url(#clip271)" x1="1936.28" y1="876.101" x2="1936.28" y2="872.101" style="stroke:#009af9; stroke-width:4; stroke-opacity:1"/>
<line clip-path="url(#clip271)" x1="1936.28" y1="1039.02" x2="1936.28" y2="1035.02" style="stroke:#009af9; stroke-width:4; stroke-opacity:1"/>
<line clip-path="url(#clip271)" x1="1962.86" y1="1039.02" x2="1962.86" y2="1035.02" style="stroke:#009af9; stroke-width:4; stroke-opacity:1"/>
<line clip-path="url(#clip271)" x1="2014.55" y1="736.993" x2="2014.55" y2="732.993" style="stroke:#009af9; stroke-width:4; stroke-opacity:1"/>
<line clip-path="url(#clip271)" x1="2039.76" y1="736.993" x2="2039.76" y2="732.993" style="stroke:#009af9; stroke-width:4; stroke-opacity:1"/>
<line clip-path="url(#clip271)" x1="2064.6" y1="957.093" x2="2064.6" y2="953.093" style="stroke:#009af9; stroke-width:4; stroke-opacity:1"/>
<line clip-path="url(#clip271)" x1="2089.08" y1="957.093" x2="2089.08" y2="953.093" style="stroke:#009af9; stroke-width:4; stroke-opacity:1"/>
<line clip-path="url(#clip271)" x1="2113.22" y1="670.749" x2="2113.22" y2="666.749" style="stroke:#009af9; stroke-width:4; stroke-opacity:1"/>
<line clip-path="url(#clip271)" x1="2137.01" y1="670.749" x2="2137.01" y2="666.749" style="stroke:#009af9; stroke-width:4; stroke-opacity:1"/>
<line clip-path="url(#clip271)" x1="2137.01" y1="680.156" x2="2137.01" y2="676.156" style="stroke:#009af9; stroke-width:4; stroke-opacity:1"/>
<line clip-path="url(#clip271)" x1="2160.45" y1="680.156" x2="2160.45" y2="676.156" style="stroke:#009af9; stroke-width:4; stroke-opacity:1"/>
<line clip-path="url(#clip271)" x1="2160.45" y1="890.234" x2="2160.45" y2="886.234" style="stroke:#009af9; stroke-width:4; stroke-opacity:1"/>
<line clip-path="url(#clip271)" x1="2183.53" y1="890.234" x2="2183.53" y2="886.234" style="stroke:#009af9; stroke-width:4; stroke-opacity:1"/>
<line clip-path="url(#clip271)" x1="2206.23" y1="722.616" x2="2206.23" y2="718.616" style="stroke:#009af9; stroke-width:4; stroke-opacity:1"/>
<line clip-path="url(#clip271)" x1="2228.55" y1="722.616" x2="2228.55" y2="718.616" style="stroke:#009af9; stroke-width:4; stroke-opacity:1"/>
<line clip-path="url(#clip271)" x1="2250.49" y1="741.267" x2="2250.49" y2="737.267" style="stroke:#009af9; stroke-width:4; stroke-opacity:1"/>
<line clip-path="url(#clip271)" x1="2272.06" y1="741.267" x2="2272.06" y2="737.267" style="stroke:#009af9; stroke-width:4; stroke-opacity:1"/>
<line clip-path="url(#clip271)" x1="2272.06" y1="1006.8" x2="2272.06" y2="1002.8" style="stroke:#009af9; stroke-width:4; stroke-opacity:1"/>
<line clip-path="url(#clip271)" x1="2293.27" y1="1006.8" x2="2293.27" y2="1002.8" style="stroke:#009af9; stroke-width:4; stroke-opacity:1"/>
<polyline clip-path="url(#clip271)" style="stroke:#009af9; stroke-linecap:round; stroke-linejoin:round; stroke-width:4; stroke-opacity:1; fill:none" points="384.139,366.667 384.139,288.399 "/>
<polyline clip-path="url(#clip271)" style="stroke:#009af9; stroke-linecap:round; stroke-linejoin:round; stroke-width:4; stroke-opacity:1; fill:none" points="516.52,312.766 516.52,257.107 "/>
<polyline clip-path="url(#clip271)" style="stroke:#009af9; stroke-linecap:round; stroke-linejoin:round; stroke-width:4; stroke-opacity:1; fill:none" points="633.642,211.312 633.642,181.665 "/>
<polyline clip-path="url(#clip271)" style="stroke:#009af9; stroke-linecap:round; stroke-linejoin:round; stroke-width:4; stroke-opacity:1; fill:none" points="736.447,161.943 736.447,140.698 "/>
<polyline clip-path="url(#clip271)" style="stroke:#009af9; stroke-linecap:round; stroke-linejoin:round; stroke-width:4; stroke-opacity:1; fill:none" points="827.116,144.187 827.116,125.715 "/>
<polyline clip-path="url(#clip271)" style="stroke:#009af9; stroke-linecap:round; stroke-linejoin:round; stroke-width:4; stroke-opacity:1; fill:none" points="908.027,174.324 908.027,153.584 "/>
<polyline clip-path="url(#clip271)" style="stroke:#009af9; stroke-linecap:round; stroke-linejoin:round; stroke-width:4; stroke-opacity:1; fill:none" points="981.219,197.166 981.219,174.609 "/>
<polyline clip-path="url(#clip271)" style="stroke:#009af9; stroke-linecap:round; stroke-linejoin:round; stroke-width:4; stroke-opacity:1; fill:none" points="1048.24,180.734 1048.24,160.326 "/>
<polyline clip-path="url(#clip271)" style="stroke:#009af9; stroke-linecap:round; stroke-linejoin:round; stroke-width:4; stroke-opacity:1; fill:none" points="1110.06,184.194 1110.06,163.981 "/>
<polyline clip-path="url(#clip271)" style="stroke:#009af9; stroke-linecap:round; stroke-linejoin:round; stroke-width:4; stroke-opacity:1; fill:none" points="1167.61,203.777 1167.61,182.038 "/>
<polyline clip-path="url(#clip271)" style="stroke:#009af9; stroke-linecap:round; stroke-linejoin:round; stroke-width:4; stroke-opacity:1; fill:none" points="1222.02,205.261 1222.02,183.933 "/>
<polyline clip-path="url(#clip271)" style="stroke:#009af9; stroke-linecap:round; stroke-linejoin:round; stroke-width:4; stroke-opacity:1; fill:none" points="1274.07,254.102 1274.07,227.584 "/>
<polyline clip-path="url(#clip271)" style="stroke:#009af9; stroke-linecap:round; stroke-linejoin:round; stroke-width:4; stroke-opacity:1; fill:none" points="1323.67,262.197 1323.67,235.031 "/>
<polyline clip-path="url(#clip271)" style="stroke:#009af9; stroke-linecap:round; stroke-linejoin:round; stroke-width:4; stroke-opacity:1; fill:none" points="1370.77,288.276 1370.77,257.81 "/>
<polyline clip-path="url(#clip271)" style="stroke:#009af9; stroke-linecap:round; stroke-linejoin:round; stroke-width:4; stroke-opacity:1; fill:none" points="1415.63,317.405 1415.63,282.233 "/>
<polyline clip-path="url(#clip271)" style="stroke:#009af9; stroke-linecap:round; stroke-linejoin:round; stroke-width:4; stroke-opacity:1; fill:none" points="1458.45,351.975 1458.45,310.369 "/>
<polyline clip-path="url(#clip271)" style="stroke:#009af9; stroke-linecap:round; stroke-linejoin:round; stroke-width:4; stroke-opacity:1; fill:none" points="1499.43,371.92 1499.43,326.008 "/>
<polyline clip-path="url(#clip271)" style="stroke:#009af9; stroke-linecap:round; stroke-linejoin:round; stroke-width:4; stroke-opacity:1; fill:none" points="1538.74,373.058 1538.74,326.726 "/>
<polyline clip-path="url(#clip271)" style="stroke:#009af9; stroke-linecap:round; stroke-linejoin:round; stroke-width:4; stroke-opacity:1; fill:none" points="1576.54,376.149 1576.54,328.858 "/>
<polyline clip-path="url(#clip271)" style="stroke:#009af9; stroke-linecap:round; stroke-linejoin:round; stroke-width:4; stroke-opacity:1; fill:none" points="1612.98,467.925 1612.98,395.039 "/>
<polyline clip-path="url(#clip271)" style="stroke:#009af9; stroke-linecap:round; stroke-linejoin:round; stroke-width:4; stroke-opacity:1; fill:none" points="1648.18,505.5 1648.18,419.791 "/>
<polyline clip-path="url(#clip271)" style="stroke:#009af9; stroke-linecap:round; stroke-linejoin:round; stroke-width:4; stroke-opacity:1; fill:none" points="1682.25,433.261 1682.25,371.871 "/>
<polyline clip-path="url(#clip271)" style="stroke:#009af9; stroke-linecap:round; stroke-linejoin:round; stroke-width:4; stroke-opacity:1; fill:none" points="1715.29,533.426 1715.29,437.02 "/>
<polyline clip-path="url(#clip271)" style="stroke:#009af9; stroke-linecap:round; stroke-linejoin:round; stroke-width:4; stroke-opacity:1; fill:none" points="1747.37,566.979 1747.37,456.818 "/>
<polyline clip-path="url(#clip271)" style="stroke:#009af9; stroke-linecap:round; stroke-linejoin:round; stroke-width:4; stroke-opacity:1; fill:none" points="1778.56,639.345 1778.56,493.073 "/>
<polyline clip-path="url(#clip271)" style="stroke:#009af9; stroke-linecap:round; stroke-linejoin:round; stroke-width:4; stroke-opacity:1; fill:none" points="1808.9,6638.07 1808.9,624.985 "/>
<polyline clip-path="url(#clip271)" style="stroke:#009af9; stroke-linecap:round; stroke-linejoin:round; stroke-width:4; stroke-opacity:1; fill:none" points="1838.46,811.013 1838.46,551.384 "/>
<polyline clip-path="url(#clip271)" style="stroke:#009af9; stroke-linecap:round; stroke-linejoin:round; stroke-width:4; stroke-opacity:1; fill:none" points="1867.26,6638.07 1867.26,658.037 "/>
<polyline clip-path="url(#clip271)" style="stroke:#009af9; stroke-linecap:round; stroke-linejoin:round; stroke-width:4; stroke-opacity:1; fill:none" points="1895.37,6638.07 1895.37,664.73 "/>
<polyline clip-path="url(#clip271)" style="stroke:#009af9; stroke-linecap:round; stroke-linejoin:round; stroke-width:4; stroke-opacity:1; fill:none" points="1922.82,6638.07 1922.82,656.912 "/>
<polyline clip-path="url(#clip271)" style="stroke:#009af9; stroke-linecap:round; stroke-linejoin:round; stroke-width:4; stroke-opacity:1; fill:none" points="1949.68,6638.07 1949.68,687.937 "/>
<polyline clip-path="url(#clip271)" style="stroke:#009af9; stroke-linecap:round; stroke-linejoin:round; stroke-width:4; stroke-opacity:1; fill:none" points="1976,6638.07 1976,834.297 "/>
<polyline clip-path="url(#clip271)" style="stroke:#009af9; stroke-linecap:round; stroke-linejoin:round; stroke-width:4; stroke-opacity:1; fill:none" points="2001.85,6638.07 2001.85,6638.07 "/>
<polyline clip-path="url(#clip271)" style="stroke:#009af9; stroke-linecap:round; stroke-linejoin:round; stroke-width:4; stroke-opacity:1; fill:none" points="2027.26,6638.07 2027.26,595.605 "/>
<polyline clip-path="url(#clip271)" style="stroke:#009af9; stroke-linecap:round; stroke-linejoin:round; stroke-width:4; stroke-opacity:1; fill:none" points="2052.28,6638.07 2052.28,6638.07 "/>
<polyline clip-path="url(#clip271)" style="stroke:#009af9; stroke-linecap:round; stroke-linejoin:round; stroke-width:4; stroke-opacity:1; fill:none" points="2076.93,6638.07 2076.93,661.367 "/>
<polyline clip-path="url(#clip271)" style="stroke:#009af9; stroke-linecap:round; stroke-linejoin:round; stroke-width:4; stroke-opacity:1; fill:none" points="2101.24,6638.07 2101.24,742.28 "/>
<polyline clip-path="url(#clip271)" style="stroke:#009af9; stroke-linecap:round; stroke-linejoin:round; stroke-width:4; stroke-opacity:1; fill:none" points="2125.21,1013.73 2125.21,558.011 "/>
<polyline clip-path="url(#clip271)" style="stroke:#009af9; stroke-linecap:round; stroke-linejoin:round; stroke-width:4; stroke-opacity:1; fill:none" points="2148.82,1104.76 2148.82,562.32 "/>
<polyline clip-path="url(#clip271)" style="stroke:#009af9; stroke-linecap:round; stroke-linejoin:round; stroke-width:4; stroke-opacity:1; fill:none" points="2172.08,6638.07 2172.08,642.645 "/>
<polyline clip-path="url(#clip271)" style="stroke:#009af9; stroke-linecap:round; stroke-linejoin:round; stroke-width:4; stroke-opacity:1; fill:none" points="2194.96,6638.07 2194.96,910.984 "/>
<polyline clip-path="url(#clip271)" style="stroke:#009af9; stroke-linecap:round; stroke-linejoin:round; stroke-width:4; stroke-opacity:1; fill:none" points="2217.47,6638.07 2217.47,586.02 "/>
<polyline clip-path="url(#clip271)" style="stroke:#009af9; stroke-linecap:round; stroke-linejoin:round; stroke-width:4; stroke-opacity:1; fill:none" points="2239.6,6638.07 2239.6,769.57 "/>
<polyline clip-path="url(#clip271)" style="stroke:#009af9; stroke-linecap:round; stroke-linejoin:round; stroke-width:4; stroke-opacity:1; fill:none" points="2261.35,6638.07 2261.35,601.803 "/>
<polyline clip-path="url(#clip271)" style="stroke:#009af9; stroke-linecap:round; stroke-linejoin:round; stroke-width:4; stroke-opacity:1; fill:none" points="2282.74,6638.07 2282.74,688.909 "/>
<line clip-path="url(#clip271)" x1="386.139" y1="366.667" x2="382.139" y2="366.667" style="stroke:#009af9; stroke-width:4; stroke-opacity:1"/>
<line clip-path="url(#clip271)" x1="386.139" y1="288.399" x2="382.139" y2="288.399" style="stroke:#009af9; stroke-width:4; stroke-opacity:1"/>
<line clip-path="url(#clip271)" x1="518.52" y1="312.766" x2="514.52" y2="312.766" style="stroke:#009af9; stroke-width:4; stroke-opacity:1"/>
<line clip-path="url(#clip271)" x1="518.52" y1="257.107" x2="514.52" y2="257.107" style="stroke:#009af9; stroke-width:4; stroke-opacity:1"/>
<line clip-path="url(#clip271)" x1="635.642" y1="211.312" x2="631.642" y2="211.312" style="stroke:#009af9; stroke-width:4; stroke-opacity:1"/>
<line clip-path="url(#clip271)" x1="635.642" y1="181.665" x2="631.642" y2="181.665" style="stroke:#009af9; stroke-width:4; stroke-opacity:1"/>
<line clip-path="url(#clip271)" x1="738.447" y1="161.943" x2="734.447" y2="161.943" style="stroke:#009af9; stroke-width:4; stroke-opacity:1"/>
<line clip-path="url(#clip271)" x1="738.447" y1="140.698" x2="734.447" y2="140.698" style="stroke:#009af9; stroke-width:4; stroke-opacity:1"/>
<line clip-path="url(#clip271)" x1="829.116" y1="144.187" x2="825.116" y2="144.187" style="stroke:#009af9; stroke-width:4; stroke-opacity:1"/>
<line clip-path="url(#clip271)" x1="829.116" y1="125.715" x2="825.116" y2="125.715" style="stroke:#009af9; stroke-width:4; stroke-opacity:1"/>
<line clip-path="url(#clip271)" x1="910.027" y1="174.324" x2="906.027" y2="174.324" style="stroke:#009af9; stroke-width:4; stroke-opacity:1"/>
<line clip-path="url(#clip271)" x1="910.027" y1="153.584" x2="906.027" y2="153.584" style="stroke:#009af9; stroke-width:4; stroke-opacity:1"/>
<line clip-path="url(#clip271)" x1="983.219" y1="197.166" x2="979.219" y2="197.166" style="stroke:#009af9; stroke-width:4; stroke-opacity:1"/>
<line clip-path="url(#clip271)" x1="983.219" y1="174.609" x2="979.219" y2="174.609" style="stroke:#009af9; stroke-width:4; stroke-opacity:1"/>
<line clip-path="url(#clip271)" x1="1050.24" y1="180.734" x2="1046.24" y2="180.734" style="stroke:#009af9; stroke-width:4; stroke-opacity:1"/>
<line clip-path="url(#clip271)" x1="1050.24" y1="160.326" x2="1046.24" y2="160.326" style="stroke:#009af9; stroke-width:4; stroke-opacity:1"/>
<line clip-path="url(#clip271)" x1="1112.06" y1="184.194" x2="1108.06" y2="184.194" style="stroke:#009af9; stroke-width:4; stroke-opacity:1"/>
<line clip-path="url(#clip271)" x1="1112.06" y1="163.981" x2="1108.06" y2="163.981" style="stroke:#009af9; stroke-width:4; stroke-opacity:1"/>
<line clip-path="url(#clip271)" x1="1169.61" y1="203.777" x2="1165.61" y2="203.777" style="stroke:#009af9; stroke-width:4; stroke-opacity:1"/>
<line clip-path="url(#clip271)" x1="1169.61" y1="182.038" x2="1165.61" y2="182.038" style="stroke:#009af9; stroke-width:4; stroke-opacity:1"/>
<line clip-path="url(#clip271)" x1="1224.02" y1="205.261" x2="1220.02" y2="205.261" style="stroke:#009af9; stroke-width:4; stroke-opacity:1"/>
<line clip-path="url(#clip271)" x1="1224.02" y1="183.933" x2="1220.02" y2="183.933" style="stroke:#009af9; stroke-width:4; stroke-opacity:1"/>
<line clip-path="url(#clip271)" x1="1276.07" y1="254.102" x2="1272.07" y2="254.102" style="stroke:#009af9; stroke-width:4; stroke-opacity:1"/>
<line clip-path="url(#clip271)" x1="1276.07" y1="227.584" x2="1272.07" y2="227.584" style="stroke:#009af9; stroke-width:4; stroke-opacity:1"/>
<line clip-path="url(#clip271)" x1="1325.67" y1="262.197" x2="1321.67" y2="262.197" style="stroke:#009af9; stroke-width:4; stroke-opacity:1"/>
<line clip-path="url(#clip271)" x1="1325.67" y1="235.031" x2="1321.67" y2="235.031" style="stroke:#009af9; stroke-width:4; stroke-opacity:1"/>
<line clip-path="url(#clip271)" x1="1372.77" y1="288.276" x2="1368.77" y2="288.276" style="stroke:#009af9; stroke-width:4; stroke-opacity:1"/>
<line clip-path="url(#clip271)" x1="1372.77" y1="257.81" x2="1368.77" y2="257.81" style="stroke:#009af9; stroke-width:4; stroke-opacity:1"/>
<line clip-path="url(#clip271)" x1="1417.63" y1="317.405" x2="1413.63" y2="317.405" style="stroke:#009af9; stroke-width:4; stroke-opacity:1"/>
<line clip-path="url(#clip271)" x1="1417.63" y1="282.233" x2="1413.63" y2="282.233" style="stroke:#009af9; stroke-width:4; stroke-opacity:1"/>
<line clip-path="url(#clip271)" x1="1460.45" y1="351.975" x2="1456.45" y2="351.975" style="stroke:#009af9; stroke-width:4; stroke-opacity:1"/>
<line clip-path="url(#clip271)" x1="1460.45" y1="310.369" x2="1456.45" y2="310.369" style="stroke:#009af9; stroke-width:4; stroke-opacity:1"/>
<line clip-path="url(#clip271)" x1="1501.43" y1="371.92" x2="1497.43" y2="371.92" style="stroke:#009af9; stroke-width:4; stroke-opacity:1"/>
<line clip-path="url(#clip271)" x1="1501.43" y1="326.008" x2="1497.43" y2="326.008" style="stroke:#009af9; stroke-width:4; stroke-opacity:1"/>
<line clip-path="url(#clip271)" x1="1540.74" y1="373.058" x2="1536.74" y2="373.058" style="stroke:#009af9; stroke-width:4; stroke-opacity:1"/>
<line clip-path="url(#clip271)" x1="1540.74" y1="326.726" x2="1536.74" y2="326.726" style="stroke:#009af9; stroke-width:4; stroke-opacity:1"/>
<line clip-path="url(#clip271)" x1="1578.54" y1="376.149" x2="1574.54" y2="376.149" style="stroke:#009af9; stroke-width:4; stroke-opacity:1"/>
<line clip-path="url(#clip271)" x1="1578.54" y1="328.858" x2="1574.54" y2="328.858" style="stroke:#009af9; stroke-width:4; stroke-opacity:1"/>
<line clip-path="url(#clip271)" x1="1614.98" y1="467.925" x2="1610.98" y2="467.925" style="stroke:#009af9; stroke-width:4; stroke-opacity:1"/>
<line clip-path="url(#clip271)" x1="1614.98" y1="395.039" x2="1610.98" y2="395.039" style="stroke:#009af9; stroke-width:4; stroke-opacity:1"/>
<line clip-path="url(#clip271)" x1="1650.18" y1="505.5" x2="1646.18" y2="505.5" style="stroke:#009af9; stroke-width:4; stroke-opacity:1"/>
<line clip-path="url(#clip271)" x1="1650.18" y1="419.791" x2="1646.18" y2="419.791" style="stroke:#009af9; stroke-width:4; stroke-opacity:1"/>
<line clip-path="url(#clip271)" x1="1684.25" y1="433.261" x2="1680.25" y2="433.261" style="stroke:#009af9; stroke-width:4; stroke-opacity:1"/>
<line clip-path="url(#clip271)" x1="1684.25" y1="371.871" x2="1680.25" y2="371.871" style="stroke:#009af9; stroke-width:4; stroke-opacity:1"/>
<line clip-path="url(#clip271)" x1="1717.29" y1="533.426" x2="1713.29" y2="533.426" style="stroke:#009af9; stroke-width:4; stroke-opacity:1"/>
<line clip-path="url(#clip271)" x1="1717.29" y1="437.02" x2="1713.29" y2="437.02" style="stroke:#009af9; stroke-width:4; stroke-opacity:1"/>
<line clip-path="url(#clip271)" x1="1749.37" y1="566.979" x2="1745.37" y2="566.979" style="stroke:#009af9; stroke-width:4; stroke-opacity:1"/>
<line clip-path="url(#clip271)" x1="1749.37" y1="456.818" x2="1745.37" y2="456.818" style="stroke:#009af9; stroke-width:4; stroke-opacity:1"/>
<line clip-path="url(#clip271)" x1="1780.56" y1="639.345" x2="1776.56" y2="639.345" style="stroke:#009af9; stroke-width:4; stroke-opacity:1"/>
<line clip-path="url(#clip271)" x1="1780.56" y1="493.073" x2="1776.56" y2="493.073" style="stroke:#009af9; stroke-width:4; stroke-opacity:1"/>
<line clip-path="url(#clip271)" x1="1810.9" y1="624.985" x2="1806.9" y2="624.985" style="stroke:#009af9; stroke-width:4; stroke-opacity:1"/>
<line clip-path="url(#clip271)" x1="1840.46" y1="811.013" x2="1836.46" y2="811.013" style="stroke:#009af9; stroke-width:4; stroke-opacity:1"/>
<line clip-path="url(#clip271)" x1="1840.46" y1="551.384" x2="1836.46" y2="551.384" style="stroke:#009af9; stroke-width:4; stroke-opacity:1"/>
<line clip-path="url(#clip271)" x1="1869.26" y1="658.037" x2="1865.26" y2="658.037" style="stroke:#009af9; stroke-width:4; stroke-opacity:1"/>
<line clip-path="url(#clip271)" x1="1897.37" y1="664.73" x2="1893.37" y2="664.73" style="stroke:#009af9; stroke-width:4; stroke-opacity:1"/>
<line clip-path="url(#clip271)" x1="1924.82" y1="656.912" x2="1920.82" y2="656.912" style="stroke:#009af9; stroke-width:4; stroke-opacity:1"/>
<line clip-path="url(#clip271)" x1="1951.68" y1="687.937" x2="1947.68" y2="687.937" style="stroke:#009af9; stroke-width:4; stroke-opacity:1"/>
<line clip-path="url(#clip271)" x1="1978" y1="834.297" x2="1974" y2="834.297" style="stroke:#009af9; stroke-width:4; stroke-opacity:1"/>
<line clip-path="url(#clip271)" x1="2029.26" y1="595.605" x2="2025.26" y2="595.605" style="stroke:#009af9; stroke-width:4; stroke-opacity:1"/>
<line clip-path="url(#clip271)" x1="2078.93" y1="661.367" x2="2074.93" y2="661.367" style="stroke:#009af9; stroke-width:4; stroke-opacity:1"/>
<line clip-path="url(#clip271)" x1="2103.24" y1="742.28" x2="2099.24" y2="742.28" style="stroke:#009af9; stroke-width:4; stroke-opacity:1"/>
<line clip-path="url(#clip271)" x1="2127.21" y1="1013.73" x2="2123.21" y2="1013.73" style="stroke:#009af9; stroke-width:4; stroke-opacity:1"/>
<line clip-path="url(#clip271)" x1="2127.21" y1="558.011" x2="2123.21" y2="558.011" style="stroke:#009af9; stroke-width:4; stroke-opacity:1"/>
<line clip-path="url(#clip271)" x1="2150.82" y1="1104.76" x2="2146.82" y2="1104.76" style="stroke:#009af9; stroke-width:4; stroke-opacity:1"/>
<line clip-path="url(#clip271)" x1="2150.82" y1="562.32" x2="2146.82" y2="562.32" style="stroke:#009af9; stroke-width:4; stroke-opacity:1"/>
<line clip-path="url(#clip271)" x1="2174.08" y1="642.645" x2="2170.08" y2="642.645" style="stroke:#009af9; stroke-width:4; stroke-opacity:1"/>
<line clip-path="url(#clip271)" x1="2196.96" y1="910.984" x2="2192.96" y2="910.984" style="stroke:#009af9; stroke-width:4; stroke-opacity:1"/>
<line clip-path="url(#clip271)" x1="2219.47" y1="586.02" x2="2215.47" y2="586.02" style="stroke:#009af9; stroke-width:4; stroke-opacity:1"/>
<line clip-path="url(#clip271)" x1="2241.6" y1="769.57" x2="2237.6" y2="769.57" style="stroke:#009af9; stroke-width:4; stroke-opacity:1"/>
<line clip-path="url(#clip271)" x1="2263.35" y1="601.803" x2="2259.35" y2="601.803" style="stroke:#009af9; stroke-width:4; stroke-opacity:1"/>
<line clip-path="url(#clip271)" x1="2284.74" y1="688.909" x2="2280.74" y2="688.909" style="stroke:#009af9; stroke-width:4; stroke-opacity:1"/>
<circle clip-path="url(#clip271)" cx="384.139" cy="323.298" r="1.8" fill="#009af9" fill-rule="evenodd" fill-opacity="1" stroke="none"/>
<circle clip-path="url(#clip271)" cx="516.52" cy="282.787" r="1.8" fill="#009af9" fill-rule="evenodd" fill-opacity="1" stroke="none"/>
<circle clip-path="url(#clip271)" cx="633.642" cy="195.876" r="1.8" fill="#009af9" fill-rule="evenodd" fill-opacity="1" stroke="none"/>
<circle clip-path="url(#clip271)" cx="736.447" cy="151.006" r="1.8" fill="#009af9" fill-rule="evenodd" fill-opacity="1" stroke="none"/>
<circle clip-path="url(#clip271)" cx="827.116" cy="134.713" r="1.8" fill="#009af9" fill-rule="evenodd" fill-opacity="1" stroke="none"/>
<circle clip-path="url(#clip271)" cx="908.027" cy="163.654" r="1.8" fill="#009af9" fill-rule="evenodd" fill-opacity="1" stroke="none"/>
<circle clip-path="url(#clip271)" cx="981.219" cy="185.533" r="1.8" fill="#009af9" fill-rule="evenodd" fill-opacity="1" stroke="none"/>
<circle clip-path="url(#clip271)" cx="1048.24" cy="170.24" r="1.8" fill="#009af9" fill-rule="evenodd" fill-opacity="1" stroke="none"/>
<circle clip-path="url(#clip271)" cx="1110.06" cy="173.803" r="1.8" fill="#009af9" fill-rule="evenodd" fill-opacity="1" stroke="none"/>
<circle clip-path="url(#clip271)" cx="1167.61" cy="192.578" r="1.8" fill="#009af9" fill-rule="evenodd" fill-opacity="1" stroke="none"/>
<circle clip-path="url(#clip271)" cx="1222.02" cy="194.28" r="1.8" fill="#009af9" fill-rule="evenodd" fill-opacity="1" stroke="none"/>
<circle clip-path="url(#clip271)" cx="1274.07" cy="240.354" r="1.8" fill="#009af9" fill-rule="evenodd" fill-opacity="1" stroke="none"/>
<circle clip-path="url(#clip271)" cx="1323.67" cy="248.1" r="1.8" fill="#009af9" fill-rule="evenodd" fill-opacity="1" stroke="none"/>
<circle clip-path="url(#clip271)" cx="1370.77" cy="272.397" r="1.8" fill="#009af9" fill-rule="evenodd" fill-opacity="1" stroke="none"/>
<circle clip-path="url(#clip271)" cx="1415.63" cy="298.958" r="1.8" fill="#009af9" fill-rule="evenodd" fill-opacity="1" stroke="none"/>
<circle clip-path="url(#clip271)" cx="1458.45" cy="329.968" r="1.8" fill="#009af9" fill-rule="evenodd" fill-opacity="1" stroke="none"/>
<circle clip-path="url(#clip271)" cx="1499.43" cy="347.499" r="1.8" fill="#009af9" fill-rule="evenodd" fill-opacity="1" stroke="none"/>
<circle clip-path="url(#clip271)" cx="1538.74" cy="348.401" r="1.8" fill="#009af9" fill-rule="evenodd" fill-opacity="1" stroke="none"/>
<circle clip-path="url(#clip271)" cx="1576.54" cy="350.95" r="1.8" fill="#009af9" fill-rule="evenodd" fill-opacity="1" stroke="none"/>
<circle clip-path="url(#clip271)" cx="1612.98" cy="427.806" r="1.8" fill="#009af9" fill-rule="evenodd" fill-opacity="1" stroke="none"/>
<circle clip-path="url(#clip271)" cx="1648.18" cy="457.575" r="1.8" fill="#009af9" fill-rule="evenodd" fill-opacity="1" stroke="none"/>
<circle clip-path="url(#clip271)" cx="1682.25" cy="399.953" r="1.8" fill="#009af9" fill-rule="evenodd" fill-opacity="1" stroke="none"/>
<circle clip-path="url(#clip271)" cx="1715.29" cy="478.824" r="1.8" fill="#009af9" fill-rule="evenodd" fill-opacity="1" stroke="none"/>
<circle clip-path="url(#clip271)" cx="1747.37" cy="503.573" r="1.8" fill="#009af9" fill-rule="evenodd" fill-opacity="1" stroke="none"/>
<circle clip-path="url(#clip271)" cx="1778.56" cy="551.697" r="1.8" fill="#009af9" fill-rule="evenodd" fill-opacity="1" stroke="none"/>
<circle clip-path="url(#clip271)" cx="1808.9" cy="779.39" r="1.8" fill="#009af9" fill-rule="evenodd" fill-opacity="1" stroke="none"/>
<circle clip-path="url(#clip271)" cx="1838.46" cy="637.837" r="1.8" fill="#009af9" fill-rule="evenodd" fill-opacity="1" stroke="none"/>
<circle clip-path="url(#clip271)" cx="1867.26" cy="869.089" r="1.8" fill="#009af9" fill-rule="evenodd" fill-opacity="1" stroke="none"/>
<circle clip-path="url(#clip271)" cx="1895.37" cy="896.184" r="1.8" fill="#009af9" fill-rule="evenodd" fill-opacity="1" stroke="none"/>
<circle clip-path="url(#clip271)" cx="1922.82" cy="874.101" r="1.8" fill="#009af9" fill-rule="evenodd" fill-opacity="1" stroke="none"/>
<circle clip-path="url(#clip271)" cx="1949.68" cy="1037.02" r="1.8" fill="#009af9" fill-rule="evenodd" fill-opacity="1" stroke="none"/>
<circle clip-path="url(#clip271)" cx="2027.26" cy="734.993" r="1.8" fill="#009af9" fill-rule="evenodd" fill-opacity="1" stroke="none"/>
<circle clip-path="url(#clip271)" cx="2076.93" cy="955.093" r="1.8" fill="#009af9" fill-rule="evenodd" fill-opacity="1" stroke="none"/>
<circle clip-path="url(#clip271)" cx="2125.21" cy="668.749" r="1.8" fill="#009af9" fill-rule="evenodd" fill-opacity="1" stroke="none"/>
<circle clip-path="url(#clip271)" cx="2148.82" cy="678.156" r="1.8" fill="#009af9" fill-rule="evenodd" fill-opacity="1" stroke="none"/>
<circle clip-path="url(#clip271)" cx="2172.08" cy="888.234" r="1.8" fill="#009af9" fill-rule="evenodd" fill-opacity="1" stroke="none"/>
<circle clip-path="url(#clip271)" cx="2217.47" cy="720.616" r="1.8" fill="#009af9" fill-rule="evenodd" fill-opacity="1" stroke="none"/>
<circle clip-path="url(#clip271)" cx="2261.35" cy="739.267" r="1.8" fill="#009af9" fill-rule="evenodd" fill-opacity="1" stroke="none"/>
<circle clip-path="url(#clip271)" cx="2282.74" cy="1004.8" r="1.8" fill="#009af9" fill-rule="evenodd" fill-opacity="1" stroke="none"/>
<polyline clip-path="url(#clip271)" style="stroke:#e26f46; stroke-linecap:round; stroke-linejoin:round; stroke-width:4; stroke-opacity:1; fill:none" points="384.139,414.33 453.151,414.33 453.151,275.262 577.29,275.262 577.29,195.483 686.747,195.483 686.747,154.153 783.106,154.153 783.106,141.49 868.626,141.49 868.626,147.822 945.486,147.822 945.486,163.402 1015.45,163.402 1015.45,178.192 1079.77,178.192 1079.77,188.185 1139.37,188.185 1139.37,197.29 1195.3,197.29 1195.3,210.632 1248.48,210.632 1248.48,228.711 1299.27,228.711 1299.27,249.408 1347.58,249.408 1347.58,271.108 1393.52,271.108 1393.52,293.843 1437.33,293.843 1437.33,317.085 1479.21,317.085 1479.21,340.662 1519.33,340.662 1519.33,364.469 1557.87,364.469 1557.87,388.68 1594.97,388.68 1594.97,413.855 1630.78,413.855 1630.78,440.332 1665.4,440.332 1665.4,467.891 1698.94,467.891 1698.94,495.883 1731.49,495.883 1731.49,523.607 1763.12,523.607 1763.12,550.641 1793.88,550.641 1793.88,577.318 1823.82,577.318 1823.82,603.702 1852.99,603.702 1852.99,630.31 1881.44,630.31 1881.44,657.255 1909.22,657.255 1909.22,683.92 1936.37,683.92 1936.37,710.1 1962.95,710.1 1962.95,736.52 1989.03,736.52 1989.03,763.172 2014.66,763.172 2014.66,790.047 2039.87,790.047 2039.87,816.957 2064.7,816.957 2064.7,843.733 2089.18,843.733 2089.18,870.086 2113.32,870.086 2113.32,896.039 2137.1,896.039 2137.1,921.503 2160.54,921.503 2160.54,946.526 2183.61,946.526 2183.61,971.024 2206.3,971.024 2206.3,995.204 2228.62,995.204 2228.62,1018.95 2250.55,1018.95 2250.55,1042.35 2272.12,1042.35 2272.12,1065.42 2282.74,1065.42 "/>
<path clip-path="url(#clip270)" d="M1630.87 248.219 L2282.7 248.219 L2282.7 92.6992 L1630.87 92.6992  Z" fill="#ffffff" fill-rule="evenodd" fill-opacity="1"/>
<polyline clip-path="url(#clip270)" style="stroke:#000000; stroke-linecap:round; stroke-linejoin:round; stroke-width:4; stroke-opacity:1; fill:none" points="1630.87,248.219 2282.7,248.219 2282.7,92.6992 1630.87,92.6992 1630.87,248.219 "/>
<circle clip-path="url(#clip270)" cx="1724.28" cy="144.539" r="11.52" fill="#009af9" fill-rule="evenodd" fill-opacity="1" stroke="none"/>
<path clip-path="url(#clip270)" d="M1817.68 125.801 L1827.5 125.801 L1827.5 129.111 L1821.94 129.111 L1821.94 164.759 L1827.5 164.759 L1827.5 168.069 L1817.68 168.069 L1817.68 125.801 Z" fill="#000000" fill-rule="nonzero" fill-opacity="1" /><path clip-path="url(#clip270)" d="M1858.12 146.171 L1858.12 161.819 L1853.86 161.819 L1853.86 146.31 Q1853.86 142.629 1852.43 140.801 Q1850.99 138.972 1848.12 138.972 Q1844.67 138.972 1842.68 141.171 Q1840.69 143.37 1840.69 147.166 L1840.69 161.819 L1836.41 161.819 L1836.41 135.893 L1840.69 135.893 L1840.69 139.921 Q1842.22 137.583 1844.28 136.426 Q1846.36 135.268 1849.07 135.268 Q1853.54 135.268 1855.83 138.046 Q1858.12 140.801 1858.12 146.171 Z" fill="#000000" fill-rule="nonzero" fill-opacity="1" /><path clip-path="url(#clip270)" d="M1876.66 138.879 Q1873.24 138.879 1871.25 141.565 Q1869.26 144.227 1869.26 148.879 Q1869.26 153.532 1871.22 156.217 Q1873.22 158.879 1876.66 158.879 Q1880.07 158.879 1882.06 156.194 Q1884.05 153.509 1884.05 148.879 Q1884.05 144.273 1882.06 141.588 Q1880.07 138.879 1876.66 138.879 M1876.66 135.268 Q1882.22 135.268 1885.39 138.879 Q1888.56 142.491 1888.56 148.879 Q1888.56 155.245 1885.39 158.879 Q1882.22 162.49 1876.66 162.49 Q1871.09 162.49 1867.91 158.879 Q1864.77 155.245 1864.77 148.879 Q1864.77 142.491 1867.91 138.879 Q1871.09 135.268 1876.66 135.268 Z" fill="#000000" fill-rule="nonzero" fill-opacity="1" /><path clip-path="url(#clip270)" d="M1920.74 138.879 Q1917.31 138.879 1915.32 141.565 Q1913.33 144.227 1913.33 148.879 Q1913.33 153.532 1915.3 156.217 Q1917.29 158.879 1920.74 158.879 Q1924.14 158.879 1926.13 156.194 Q1928.12 153.509 1928.12 148.879 Q1928.12 144.273 1926.13 141.588 Q1924.14 138.879 1920.74 138.879 M1920.74 135.268 Q1926.29 135.268 1929.47 138.879 Q1932.64 142.491 1932.64 148.879 Q1932.64 155.245 1929.47 158.879 Q1926.29 162.49 1920.74 162.49 Q1915.16 162.49 1911.99 158.879 Q1908.84 155.245 1908.84 148.879 Q1908.84 142.491 1911.99 138.879 Q1915.16 135.268 1920.74 135.268 Z" fill="#000000" fill-rule="nonzero" fill-opacity="1" /><path clip-path="url(#clip270)" d="M1958.31 148.879 Q1958.31 144.18 1956.36 141.518 Q1954.44 138.833 1951.06 138.833 Q1947.68 138.833 1945.74 141.518 Q1943.82 144.18 1943.82 148.879 Q1943.82 153.578 1945.74 156.264 Q1947.68 158.926 1951.06 158.926 Q1954.44 158.926 1956.36 156.264 Q1958.31 153.578 1958.31 148.879 M1943.82 139.829 Q1945.16 137.514 1947.2 136.403 Q1949.26 135.268 1952.1 135.268 Q1956.83 135.268 1959.77 139.018 Q1962.73 142.768 1962.73 148.879 Q1962.73 154.991 1959.77 158.74 Q1956.83 162.49 1952.1 162.49 Q1949.26 162.49 1947.2 161.379 Q1945.16 160.245 1943.82 157.93 L1943.82 161.819 L1939.53 161.819 L1939.53 125.801 L1943.82 125.801 L1943.82 139.829 Z" fill="#000000" fill-rule="nonzero" fill-opacity="1" /><path clip-path="url(#clip270)" d="M1986.32 136.657 L1986.32 140.685 Q1984.51 139.759 1982.57 139.296 Q1980.62 138.833 1978.54 138.833 Q1975.37 138.833 1973.77 139.805 Q1972.2 140.778 1972.2 142.722 Q1972.2 144.204 1973.33 145.06 Q1974.46 145.893 1977.89 146.657 L1979.35 146.981 Q1983.89 147.954 1985.78 149.736 Q1987.71 151.495 1987.71 154.666 Q1987.71 158.278 1984.84 160.384 Q1981.99 162.49 1976.99 162.49 Q1974.9 162.49 1972.64 162.074 Q1970.39 161.68 1967.89 160.87 L1967.89 156.472 Q1970.25 157.699 1972.54 158.324 Q1974.84 158.926 1977.08 158.926 Q1980.09 158.926 1981.71 157.907 Q1983.33 156.866 1983.33 154.991 Q1983.33 153.254 1982.15 152.328 Q1980.99 151.403 1977.03 150.546 L1975.55 150.199 Q1971.59 149.366 1969.84 147.653 Q1968.08 145.916 1968.08 142.907 Q1968.08 139.25 1970.67 137.259 Q1973.26 135.268 1978.03 135.268 Q1980.39 135.268 1982.47 135.616 Q1984.56 135.963 1986.32 136.657 Z" fill="#000000" fill-rule="nonzero" fill-opacity="1" /><path clip-path="url(#clip270)" d="M2016.66 147.791 L2016.66 149.875 L1997.08 149.875 Q1997.36 154.273 1999.72 156.588 Q2002.1 158.879 2006.34 158.879 Q2008.79 158.879 2011.09 158.278 Q2013.4 157.676 2015.67 156.472 L2015.67 160.5 Q2013.38 161.472 2010.97 161.981 Q2008.56 162.49 2006.09 162.49 Q1999.88 162.49 1996.25 158.879 Q1992.64 155.268 1992.64 149.111 Q1992.64 142.745 1996.06 139.018 Q1999.51 135.268 2005.34 135.268 Q2010.58 135.268 2013.61 138.648 Q2016.66 142.004 2016.66 147.791 M2012.4 146.541 Q2012.36 143.046 2010.44 140.963 Q2008.54 138.879 2005.39 138.879 Q2001.83 138.879 1999.67 140.893 Q1997.54 142.907 1997.22 146.565 L2012.4 146.541 Z" fill="#000000" fill-rule="nonzero" fill-opacity="1" /><path clip-path="url(#clip270)" d="M2038.68 139.875 Q2037.96 139.458 2037.1 139.273 Q2036.27 139.065 2035.25 139.065 Q2031.64 139.065 2029.7 141.426 Q2027.77 143.764 2027.77 148.162 L2027.77 161.819 L2023.49 161.819 L2023.49 135.893 L2027.77 135.893 L2027.77 139.921 Q2029.12 137.56 2031.27 136.426 Q2033.42 135.268 2036.5 135.268 Q2036.94 135.268 2037.47 135.338 Q2038.01 135.384 2038.65 135.5 L2038.68 139.875 Z" fill="#000000" fill-rule="nonzero" fill-opacity="1" /><path clip-path="url(#clip270)" d="M2040.09 135.893 L2044.6 135.893 L2052.71 157.653 L2060.81 135.893 L2065.32 135.893 L2055.6 161.819 L2049.81 161.819 L2040.09 135.893 Z" fill="#000000" fill-rule="nonzero" fill-opacity="1" /><path clip-path="url(#clip270)" d="M2082.98 148.787 Q2077.82 148.787 2075.83 149.967 Q2073.84 151.148 2073.84 153.995 Q2073.84 156.264 2075.32 157.606 Q2076.83 158.926 2079.39 158.926 Q2082.94 158.926 2085.07 156.426 Q2087.22 153.903 2087.22 149.736 L2087.22 148.787 L2082.98 148.787 M2091.48 147.028 L2091.48 161.819 L2087.22 161.819 L2087.22 157.884 Q2085.76 160.245 2083.58 161.379 Q2081.41 162.49 2078.26 162.49 Q2074.28 162.49 2071.92 160.268 Q2069.58 158.023 2069.58 154.273 Q2069.58 149.898 2072.5 147.676 Q2075.44 145.454 2081.25 145.454 L2087.22 145.454 L2087.22 145.037 Q2087.22 142.097 2085.27 140.5 Q2083.35 138.879 2079.86 138.879 Q2077.64 138.879 2075.53 139.412 Q2073.42 139.944 2071.48 141.009 L2071.48 137.074 Q2073.82 136.171 2076.02 135.731 Q2078.21 135.268 2080.3 135.268 Q2085.92 135.268 2088.7 138.185 Q2091.48 141.102 2091.48 147.028 Z" fill="#000000" fill-rule="nonzero" fill-opacity="1" /><path clip-path="url(#clip270)" d="M2104.46 128.532 L2104.46 135.893 L2113.24 135.893 L2113.24 139.204 L2104.46 139.204 L2104.46 153.278 Q2104.46 156.449 2105.32 157.352 Q2106.2 158.254 2108.86 158.254 L2113.24 158.254 L2113.24 161.819 L2108.86 161.819 Q2103.93 161.819 2102.06 159.99 Q2100.18 158.139 2100.18 153.278 L2100.18 139.204 L2097.06 139.204 L2097.06 135.893 L2100.18 135.893 L2100.18 128.532 L2104.46 128.532 Z" fill="#000000" fill-rule="nonzero" fill-opacity="1" /><path clip-path="url(#clip270)" d="M2118.84 135.893 L2123.1 135.893 L2123.1 161.819 L2118.84 161.819 L2118.84 135.893 M2118.84 125.801 L2123.1 125.801 L2123.1 131.194 L2118.84 131.194 L2118.84 125.801 Z" fill="#000000" fill-rule="nonzero" fill-opacity="1" /><path clip-path="url(#clip270)" d="M2142.06 138.879 Q2138.63 138.879 2136.64 141.565 Q2134.65 144.227 2134.65 148.879 Q2134.65 153.532 2136.62 156.217 Q2138.61 158.879 2142.06 158.879 Q2145.46 158.879 2147.45 156.194 Q2149.44 153.509 2149.44 148.879 Q2149.44 144.273 2147.45 141.588 Q2145.46 138.879 2142.06 138.879 M2142.06 135.268 Q2147.61 135.268 2150.78 138.879 Q2153.95 142.491 2153.95 148.879 Q2153.95 155.245 2150.78 158.879 Q2147.61 162.49 2142.06 162.49 Q2136.48 162.49 2133.31 158.879 Q2130.16 155.245 2130.16 148.879 Q2130.16 142.491 2133.31 138.879 Q2136.48 135.268 2142.06 135.268 Z" fill="#000000" fill-rule="nonzero" fill-opacity="1" /><path clip-path="url(#clip270)" d="M2182.57 146.171 L2182.57 161.819 L2178.31 161.819 L2178.31 146.31 Q2178.31 142.629 2176.87 140.801 Q2175.44 138.972 2172.57 138.972 Q2169.12 138.972 2167.13 141.171 Q2165.14 143.37 2165.14 147.166 L2165.14 161.819 L2160.85 161.819 L2160.85 135.893 L2165.14 135.893 L2165.14 139.921 Q2166.66 137.583 2168.72 136.426 Q2170.81 135.268 2173.51 135.268 Q2177.98 135.268 2180.27 138.046 Q2182.57 140.801 2182.57 146.171 Z" fill="#000000" fill-rule="nonzero" fill-opacity="1" /><path clip-path="url(#clip270)" d="M2206.13 135.893 L2210.39 135.893 L2210.39 161.819 L2206.13 161.819 L2206.13 135.893 M2206.13 125.801 L2210.39 125.801 L2210.39 131.194 L2206.13 131.194 L2206.13 125.801 Z" fill="#000000" fill-rule="nonzero" fill-opacity="1" /><path clip-path="url(#clip270)" d="M2236.36 139.829 L2236.36 125.801 L2240.62 125.801 L2240.62 161.819 L2236.36 161.819 L2236.36 157.93 Q2235.02 160.245 2232.96 161.379 Q2230.92 162.49 2228.05 162.49 Q2223.35 162.49 2220.39 158.74 Q2217.45 154.991 2217.45 148.879 Q2217.45 142.768 2220.39 139.018 Q2223.35 135.268 2228.05 135.268 Q2230.92 135.268 2232.96 136.403 Q2235.02 137.514 2236.36 139.829 M2221.85 148.879 Q2221.85 153.578 2223.77 156.264 Q2225.71 158.926 2229.09 158.926 Q2232.47 158.926 2234.42 156.264 Q2236.36 153.578 2236.36 148.879 Q2236.36 144.18 2234.42 141.518 Q2232.47 138.833 2229.09 138.833 Q2225.71 138.833 2223.77 141.518 Q2221.85 144.18 2221.85 148.879 Z" fill="#000000" fill-rule="nonzero" fill-opacity="1" /><path clip-path="url(#clip270)" d="M2259.35 125.801 L2259.35 168.069 L2249.53 168.069 L2249.53 164.759 L2255.07 164.759 L2255.07 129.111 L2249.53 129.111 L2249.53 125.801 L2259.35 125.801 Z" fill="#000000" fill-rule="nonzero" fill-opacity="1" /><polyline clip-path="url(#clip270)" style="stroke:#e26f46; stroke-linecap:round; stroke-linejoin:round; stroke-width:4; stroke-opacity:1; fill:none" points="1654.22,196.379 1794.33,196.379 "/>
<path clip-path="url(#clip270)" d="M1822.36 182.942 L1822.36 195.928 L1828.24 195.928 Q1831.5 195.928 1833.29 194.238 Q1835.07 192.548 1835.07 189.423 Q1835.07 186.321 1833.29 184.632 Q1831.5 182.942 1828.24 182.942 L1822.36 182.942 M1817.68 179.099 L1828.24 179.099 Q1834.05 179.099 1837.01 181.738 Q1840 184.354 1840 189.423 Q1840 194.539 1837.01 197.155 Q1834.05 199.77 1828.24 199.77 L1822.36 199.77 L1822.36 213.659 L1817.68 213.659 L1817.68 179.099 Z" fill="#000000" fill-rule="nonzero" fill-opacity="1" /><path clip-path="url(#clip270)" d="M1854.44 190.719 Q1851.02 190.719 1849.03 193.405 Q1847.04 196.067 1847.04 200.719 Q1847.04 205.372 1849 208.057 Q1850.99 210.719 1854.44 210.719 Q1857.85 210.719 1859.84 208.034 Q1861.83 205.349 1861.83 200.719 Q1861.83 196.113 1859.84 193.428 Q1857.85 190.719 1854.44 190.719 M1854.44 187.108 Q1860 187.108 1863.17 190.719 Q1866.34 194.331 1866.34 200.719 Q1866.34 207.085 1863.17 210.719 Q1860 214.33 1854.44 214.33 Q1848.86 214.33 1845.69 210.719 Q1842.54 207.085 1842.54 200.719 Q1842.54 194.331 1845.69 190.719 Q1848.86 187.108 1854.44 187.108 Z" fill="#000000" fill-rule="nonzero" fill-opacity="1" /><path clip-path="url(#clip270)" d="M1870.92 187.733 L1875.18 187.733 L1880.51 207.965 L1885.81 187.733 L1890.83 187.733 L1896.16 207.965 L1901.46 187.733 L1905.72 187.733 L1898.93 213.659 L1893.91 213.659 L1888.33 192.409 L1882.73 213.659 L1877.71 213.659 L1870.92 187.733 Z" fill="#000000" fill-rule="nonzero" fill-opacity="1" /><path clip-path="url(#clip270)" d="M1934.35 199.631 L1934.35 201.715 L1914.77 201.715 Q1915.04 206.113 1917.41 208.428 Q1919.79 210.719 1924.03 210.719 Q1926.48 210.719 1928.77 210.118 Q1931.09 209.516 1933.35 208.312 L1933.35 212.34 Q1931.06 213.312 1928.66 213.821 Q1926.25 214.33 1923.77 214.33 Q1917.57 214.33 1913.93 210.719 Q1910.32 207.108 1910.32 200.951 Q1910.32 194.585 1913.75 190.858 Q1917.2 187.108 1923.03 187.108 Q1928.26 187.108 1931.29 190.488 Q1934.35 193.844 1934.35 199.631 M1930.09 198.381 Q1930.04 194.886 1928.12 192.803 Q1926.22 190.719 1923.08 190.719 Q1919.51 190.719 1917.36 192.733 Q1915.23 194.747 1914.91 198.405 L1930.09 198.381 Z" fill="#000000" fill-rule="nonzero" fill-opacity="1" /><path clip-path="url(#clip270)" d="M1956.36 191.715 Q1955.65 191.298 1954.79 191.113 Q1953.96 190.905 1952.94 190.905 Q1949.33 190.905 1947.38 193.266 Q1945.46 195.604 1945.46 200.002 L1945.46 213.659 L1941.18 213.659 L1941.18 187.733 L1945.46 187.733 L1945.46 191.761 Q1946.8 189.4 1948.96 188.266 Q1951.11 187.108 1954.19 187.108 Q1954.63 187.108 1955.16 187.178 Q1955.69 187.224 1956.34 187.34 L1956.36 191.715 Z" fill="#000000" fill-rule="nonzero" fill-opacity="1" /><path clip-path="url(#clip270)" d="M1961.02 179.099 L1965.69 179.099 L1965.69 209.724 L1982.52 209.724 L1982.52 213.659 L1961.02 213.659 L1961.02 179.099 Z" fill="#000000" fill-rule="nonzero" fill-opacity="1" /><path clip-path="url(#clip270)" d="M1999.03 200.627 Q1993.86 200.627 1991.87 201.807 Q1989.88 202.988 1989.88 205.835 Q1989.88 208.104 1991.36 209.446 Q1992.87 210.766 1995.44 210.766 Q1998.98 210.766 2001.11 208.266 Q2003.26 205.743 2003.26 201.576 L2003.26 200.627 L1999.03 200.627 M2007.52 198.868 L2007.52 213.659 L2003.26 213.659 L2003.26 209.724 Q2001.8 212.085 1999.63 213.219 Q1997.45 214.33 1994.3 214.33 Q1990.32 214.33 1987.96 212.108 Q1985.62 209.863 1985.62 206.113 Q1985.62 201.738 1988.54 199.516 Q1991.48 197.294 1997.29 197.294 L2003.26 197.294 L2003.26 196.877 Q2003.26 193.937 2001.32 192.34 Q1999.4 190.719 1995.9 190.719 Q1993.68 190.719 1991.57 191.252 Q1989.46 191.784 1987.52 192.849 L1987.52 188.914 Q1989.86 188.011 1992.06 187.571 Q1994.26 187.108 1996.34 187.108 Q2001.96 187.108 2004.74 190.025 Q2007.52 192.942 2007.52 198.868 Z" fill="#000000" fill-rule="nonzero" fill-opacity="1" /><path clip-path="url(#clip270)" d="M2013.82 187.733 L2018.08 187.733 L2023.4 207.965 L2028.7 187.733 L2033.72 187.733 L2039.05 207.965 L2044.35 187.733 L2048.61 187.733 L2041.83 213.659 L2036.8 213.659 L2031.22 192.409 L2025.62 213.659 L2020.6 213.659 L2013.82 187.733 Z" fill="#000000" fill-rule="nonzero" fill-opacity="1" /></svg>
