<?xml version="1.0" encoding="utf-8"?>
<svg xmlns="http://www.w3.org/2000/svg" xmlns:xlink="http://www.w3.org/1999/xlink" width="600" height="400" viewBox="0 0 2400 1600">
<defs>
  <clipPath id="clip190">
    <rect x="0" y="0" width="2400" height="1600"/>
  </clipPath>
</defs>
<path clip-path="url(#clip190)" d="
M0 1600 L2400 1600 L2400 0 L0 0  Z
  " fill="#ffffff" fill-rule="evenodd" fill-opacity="1"/>
<defs>
  <clipPath id="clip191">
    <rect x="480" y="0" width="1681" height="1600"/>
  </clipPath>
</defs>
<path clip-path="url(#clip190)" d="
M203.964 1423.18 L2352.76 1423.18 L2352.76 47.2441 L203.964 47.2441  Z
  " fill="#ffffff" fill-rule="evenodd" fill-opacity="1"/>
<defs>
  <clipPath id="clip192">
    <rect x="203" y="47" width="2150" height="1377"/>
  </clipPath>
</defs>
<polyline clip-path="url(#clip192)" style="stroke:#000000; stroke-linecap:butt; stroke-linejoin:round; stroke-width:2; stroke-opacity:0.1; fill:none" points="
  264.778,1423.18 264.778,47.2441 
  "/>
<polyline clip-path="url(#clip192)" style="stroke:#000000; stroke-linecap:butt; stroke-linejoin:round; stroke-width:2; stroke-opacity:0.1; fill:none" points="
  771.569,1423.18 771.569,47.2441 
  "/>
<polyline clip-path="url(#clip192)" style="stroke:#000000; stroke-linecap:butt; stroke-linejoin:round; stroke-width:2; stroke-opacity:0.1; fill:none" points="
  1278.36,1423.18 1278.36,47.2441 
  "/>
<polyline clip-path="url(#clip192)" style="stroke:#000000; stroke-linecap:butt; stroke-linejoin:round; stroke-width:2; stroke-opacity:0.1; fill:none" points="
  1785.15,1423.18 1785.15,47.2441 
  "/>
<polyline clip-path="url(#clip192)" style="stroke:#000000; stroke-linecap:butt; stroke-linejoin:round; stroke-width:2; stroke-opacity:0.1; fill:none" points="
  2291.94,1423.18 2291.94,47.2441 
  "/>
<polyline clip-path="url(#clip190)" style="stroke:#000000; stroke-linecap:butt; stroke-linejoin:round; stroke-width:4; stroke-opacity:1; fill:none" points="
  203.964,1423.18 2352.76,1423.18 
  "/>
<polyline clip-path="url(#clip190)" style="stroke:#000000; stroke-linecap:butt; stroke-linejoin:round; stroke-width:4; stroke-opacity:1; fill:none" points="
  264.778,1423.18 264.778,1404.28 
  "/>
<polyline clip-path="url(#clip190)" style="stroke:#000000; stroke-linecap:butt; stroke-linejoin:round; stroke-width:4; stroke-opacity:1; fill:none" points="
  771.569,1423.18 771.569,1404.28 
  "/>
<polyline clip-path="url(#clip190)" style="stroke:#000000; stroke-linecap:butt; stroke-linejoin:round; stroke-width:4; stroke-opacity:1; fill:none" points="
  1278.36,1423.18 1278.36,1404.28 
  "/>
<polyline clip-path="url(#clip190)" style="stroke:#000000; stroke-linecap:butt; stroke-linejoin:round; stroke-width:4; stroke-opacity:1; fill:none" points="
  1785.15,1423.18 1785.15,1404.28 
  "/>
<polyline clip-path="url(#clip190)" style="stroke:#000000; stroke-linecap:butt; stroke-linejoin:round; stroke-width:4; stroke-opacity:1; fill:none" points="
  2291.94,1423.18 2291.94,1404.28 
  "/>
<path clip-path="url(#clip190)" d="M264.778 1454.1 Q261.167 1454.1 259.339 1457.66 Q257.533 1461.2 257.533 1468.33 Q257.533 1475.44 259.339 1479.01 Q261.167 1482.55 264.778 1482.55 Q268.413 1482.55 270.218 1479.01 Q272.047 1475.44 272.047 1468.33 Q272.047 1461.2 270.218 1457.66 Q268.413 1454.1 264.778 1454.1 M264.778 1450.39 Q270.589 1450.39 273.644 1455 Q276.723 1459.58 276.723 1468.33 Q276.723 1477.06 273.644 1481.67 Q270.589 1486.25 264.778 1486.25 Q258.968 1486.25 255.89 1481.67 Q252.834 1477.06 252.834 1468.33 Q252.834 1459.58 255.89 1455 Q258.968 1450.39 264.778 1450.39 Z" fill="#000000" fill-rule="evenodd" fill-opacity="1" /><path clip-path="url(#clip190)" d="M750.84 1481.64 L767.159 1481.64 L767.159 1485.58 L745.215 1485.58 L745.215 1481.64 Q747.877 1478.89 752.46 1474.26 Q757.067 1469.61 758.247 1468.27 Q760.493 1465.74 761.372 1464.01 Q762.275 1462.25 762.275 1460.56 Q762.275 1457.8 760.331 1456.07 Q758.409 1454.33 755.308 1454.33 Q753.109 1454.33 750.655 1455.09 Q748.224 1455.86 745.447 1457.41 L745.447 1452.69 Q748.271 1451.55 750.724 1450.97 Q753.178 1450.39 755.215 1450.39 Q760.585 1450.39 763.78 1453.08 Q766.974 1455.77 766.974 1460.26 Q766.974 1462.39 766.164 1464.31 Q765.377 1466.2 763.271 1468.8 Q762.692 1469.47 759.59 1472.69 Q756.488 1475.88 750.84 1481.64 Z" fill="#000000" fill-rule="evenodd" fill-opacity="1" /><path clip-path="url(#clip190)" d="M777.02 1451.02 L795.377 1451.02 L795.377 1454.96 L781.303 1454.96 L781.303 1463.43 Q782.321 1463.08 783.34 1462.92 Q784.358 1462.73 785.377 1462.73 Q791.164 1462.73 794.544 1465.9 Q797.923 1469.08 797.923 1474.49 Q797.923 1480.07 794.451 1483.17 Q790.979 1486.25 784.659 1486.25 Q782.483 1486.25 780.215 1485.88 Q777.97 1485.51 775.562 1484.77 L775.562 1480.07 Q777.645 1481.2 779.868 1481.76 Q782.09 1482.32 784.567 1482.32 Q788.571 1482.32 790.909 1480.21 Q793.247 1478.1 793.247 1474.49 Q793.247 1470.88 790.909 1468.77 Q788.571 1466.67 784.567 1466.67 Q782.692 1466.67 780.817 1467.08 Q778.965 1467.5 777.02 1468.38 L777.02 1451.02 Z" fill="#000000" fill-rule="evenodd" fill-opacity="1" /><path clip-path="url(#clip190)" d="M1253.06 1451.02 L1271.42 1451.02 L1271.42 1454.96 L1257.34 1454.96 L1257.34 1463.43 Q1258.36 1463.08 1259.38 1462.92 Q1260.4 1462.73 1261.42 1462.73 Q1267.2 1462.73 1270.58 1465.9 Q1273.96 1469.08 1273.96 1474.49 Q1273.96 1480.07 1270.49 1483.17 Q1267.02 1486.25 1260.7 1486.25 Q1258.52 1486.25 1256.25 1485.88 Q1254.01 1485.51 1251.6 1484.77 L1251.6 1480.07 Q1253.68 1481.2 1255.91 1481.76 Q1258.13 1482.32 1260.61 1482.32 Q1264.61 1482.32 1266.95 1480.21 Q1269.29 1478.1 1269.29 1474.49 Q1269.29 1470.88 1266.95 1468.77 Q1264.61 1466.67 1260.61 1466.67 Q1258.73 1466.67 1256.86 1467.08 Q1255 1467.5 1253.06 1468.38 L1253.06 1451.02 Z" fill="#000000" fill-rule="evenodd" fill-opacity="1" /><path clip-path="url(#clip190)" d="M1293.17 1454.1 Q1289.56 1454.1 1287.73 1457.66 Q1285.93 1461.2 1285.93 1468.33 Q1285.93 1475.44 1287.73 1479.01 Q1289.56 1482.55 1293.17 1482.55 Q1296.81 1482.55 1298.61 1479.01 Q1300.44 1475.44 1300.44 1468.33 Q1300.44 1461.2 1298.61 1457.66 Q1296.81 1454.1 1293.17 1454.1 M1293.17 1450.39 Q1298.98 1450.39 1302.04 1455 Q1305.12 1459.58 1305.12 1468.33 Q1305.12 1477.06 1302.04 1481.67 Q1298.98 1486.25 1293.17 1486.25 Q1287.36 1486.25 1284.29 1481.67 Q1281.23 1477.06 1281.23 1468.33 Q1281.23 1459.58 1284.29 1455 Q1287.36 1450.39 1293.17 1450.39 Z" fill="#000000" fill-rule="evenodd" fill-opacity="1" /><path clip-path="url(#clip190)" d="M1759 1451.02 L1781.23 1451.02 L1781.23 1453.01 L1768.68 1485.58 L1763.8 1485.58 L1775.6 1454.96 L1759 1454.96 L1759 1451.02 Z" fill="#000000" fill-rule="evenodd" fill-opacity="1" /><path clip-path="url(#clip190)" d="M1790.39 1451.02 L1808.75 1451.02 L1808.75 1454.96 L1794.68 1454.96 L1794.68 1463.43 Q1795.69 1463.08 1796.71 1462.92 Q1797.73 1462.73 1798.75 1462.73 Q1804.54 1462.73 1807.92 1465.9 Q1811.3 1469.08 1811.3 1474.49 Q1811.3 1480.07 1807.82 1483.17 Q1804.35 1486.25 1798.03 1486.25 Q1795.86 1486.25 1793.59 1485.88 Q1791.34 1485.51 1788.94 1484.77 L1788.94 1480.07 Q1791.02 1481.2 1793.24 1481.76 Q1795.46 1482.32 1797.94 1482.32 Q1801.94 1482.32 1804.28 1480.21 Q1806.62 1478.1 1806.62 1474.49 Q1806.62 1470.88 1804.28 1468.77 Q1801.94 1466.67 1797.94 1466.67 Q1796.06 1466.67 1794.19 1467.08 Q1792.34 1467.5 1790.39 1468.38 L1790.39 1451.02 Z" fill="#000000" fill-rule="evenodd" fill-opacity="1" /><path clip-path="url(#clip190)" d="M2251.55 1481.64 L2259.19 1481.64 L2259.19 1455.28 L2250.88 1456.95 L2250.88 1452.69 L2259.14 1451.02 L2263.82 1451.02 L2263.82 1481.64 L2271.46 1481.64 L2271.46 1485.58 L2251.55 1485.58 L2251.55 1481.64 Z" fill="#000000" fill-rule="evenodd" fill-opacity="1" /><path clip-path="url(#clip190)" d="M2290.9 1454.1 Q2287.29 1454.1 2285.46 1457.66 Q2283.65 1461.2 2283.65 1468.33 Q2283.65 1475.44 2285.46 1479.01 Q2287.29 1482.55 2290.9 1482.55 Q2294.53 1482.55 2296.34 1479.01 Q2298.17 1475.44 2298.17 1468.33 Q2298.17 1461.2 2296.34 1457.66 Q2294.53 1454.1 2290.9 1454.1 M2290.9 1450.39 Q2296.71 1450.39 2299.77 1455 Q2302.84 1459.58 2302.84 1468.33 Q2302.84 1477.06 2299.77 1481.67 Q2296.71 1486.25 2290.9 1486.25 Q2285.09 1486.25 2282.01 1481.67 Q2278.95 1477.06 2278.95 1468.33 Q2278.95 1459.58 2282.01 1455 Q2285.09 1450.39 2290.9 1450.39 Z" fill="#000000" fill-rule="evenodd" fill-opacity="1" /><path clip-path="url(#clip190)" d="M2321.06 1454.1 Q2317.45 1454.1 2315.62 1457.66 Q2313.82 1461.2 2313.82 1468.33 Q2313.82 1475.44 2315.62 1479.01 Q2317.45 1482.55 2321.06 1482.55 Q2324.7 1482.55 2326.5 1479.01 Q2328.33 1475.44 2328.33 1468.33 Q2328.33 1461.2 2326.5 1457.66 Q2324.7 1454.1 2321.06 1454.1 M2321.06 1450.39 Q2326.87 1450.39 2329.93 1455 Q2333.01 1459.58 2333.01 1468.33 Q2333.01 1477.06 2329.93 1481.67 Q2326.87 1486.25 2321.06 1486.25 Q2315.25 1486.25 2312.17 1481.67 Q2309.12 1477.06 2309.12 1468.33 Q2309.12 1459.58 2312.17 1455 Q2315.25 1450.39 2321.06 1450.39 Z" fill="#000000" fill-rule="evenodd" fill-opacity="1" /><path clip-path="url(#clip190)" d="M1294.97 1532.4 L1282.08 1549.74 L1295.64 1568.04 L1288.74 1568.04 L1278.36 1554.04 L1267.98 1568.04 L1261.08 1568.04 L1274.92 1549.39 L1262.25 1532.4 L1269.16 1532.4 L1278.61 1545.1 L1288.07 1532.4 L1294.97 1532.4 Z" fill="#000000" fill-rule="evenodd" fill-opacity="1" /><polyline clip-path="url(#clip192)" style="stroke:#000000; stroke-linecap:butt; stroke-linejoin:round; stroke-width:2; stroke-opacity:0.1; fill:none" points="
  203.964,1179.7 2352.76,1179.7 
  "/>
<polyline clip-path="url(#clip192)" style="stroke:#000000; stroke-linecap:butt; stroke-linejoin:round; stroke-width:2; stroke-opacity:0.1; fill:none" points="
  203.964,922.521 2352.76,922.521 
  "/>
<polyline clip-path="url(#clip192)" style="stroke:#000000; stroke-linecap:butt; stroke-linejoin:round; stroke-width:2; stroke-opacity:0.1; fill:none" points="
  203.964,665.346 2352.76,665.346 
  "/>
<polyline clip-path="url(#clip192)" style="stroke:#000000; stroke-linecap:butt; stroke-linejoin:round; stroke-width:2; stroke-opacity:0.1; fill:none" points="
  203.964,408.171 2352.76,408.171 
  "/>
<polyline clip-path="url(#clip192)" style="stroke:#000000; stroke-linecap:butt; stroke-linejoin:round; stroke-width:2; stroke-opacity:0.1; fill:none" points="
  203.964,150.996 2352.76,150.996 
  "/>
<polyline clip-path="url(#clip190)" style="stroke:#000000; stroke-linecap:butt; stroke-linejoin:round; stroke-width:4; stroke-opacity:1; fill:none" points="
  203.964,1423.18 203.964,47.2441 
  "/>
<polyline clip-path="url(#clip190)" style="stroke:#000000; stroke-linecap:butt; stroke-linejoin:round; stroke-width:4; stroke-opacity:1; fill:none" points="
  203.964,1179.7 222.861,1179.7 
  "/>
<polyline clip-path="url(#clip190)" style="stroke:#000000; stroke-linecap:butt; stroke-linejoin:round; stroke-width:4; stroke-opacity:1; fill:none" points="
  203.964,922.521 222.861,922.521 
  "/>
<polyline clip-path="url(#clip190)" style="stroke:#000000; stroke-linecap:butt; stroke-linejoin:round; stroke-width:4; stroke-opacity:1; fill:none" points="
  203.964,665.346 222.861,665.346 
  "/>
<polyline clip-path="url(#clip190)" style="stroke:#000000; stroke-linecap:butt; stroke-linejoin:round; stroke-width:4; stroke-opacity:1; fill:none" points="
  203.964,408.171 222.861,408.171 
  "/>
<polyline clip-path="url(#clip190)" style="stroke:#000000; stroke-linecap:butt; stroke-linejoin:round; stroke-width:4; stroke-opacity:1; fill:none" points="
  203.964,150.996 222.861,150.996 
  "/>
<path clip-path="url(#clip190)" d="M147.061 1162.42 L165.417 1162.42 L165.417 1166.35 L151.343 1166.35 L151.343 1174.82 Q152.362 1174.48 153.38 1174.31 Q154.399 1174.13 155.417 1174.13 Q161.204 1174.13 164.584 1177.3 Q167.964 1180.47 167.964 1185.89 Q167.964 1191.47 164.491 1194.57 Q161.019 1197.65 154.7 1197.65 Q152.524 1197.65 150.255 1197.28 Q148.01 1196.91 145.603 1196.17 L145.603 1191.47 Q147.686 1192.6 149.908 1193.16 Q152.13 1193.71 154.607 1193.71 Q158.612 1193.71 160.95 1191.61 Q163.288 1189.5 163.288 1185.89 Q163.288 1182.28 160.95 1180.17 Q158.612 1178.06 154.607 1178.06 Q152.732 1178.06 150.857 1178.48 Q149.005 1178.9 147.061 1179.78 L147.061 1162.42 Z" fill="#000000" fill-rule="evenodd" fill-opacity="1" /><path clip-path="url(#clip190)" d="M116.668 935.866 L124.306 935.866 L124.306 909.5 L115.996 911.167 L115.996 906.908 L124.26 905.241 L128.936 905.241 L128.936 935.866 L136.575 935.866 L136.575 939.801 L116.668 939.801 L116.668 935.866 Z" fill="#000000" fill-rule="evenodd" fill-opacity="1" /><path clip-path="url(#clip190)" d="M156.019 908.32 Q152.408 908.32 150.579 911.884 Q148.774 915.426 148.774 922.556 Q148.774 929.662 150.579 933.227 Q152.408 936.768 156.019 936.768 Q159.653 936.768 161.459 933.227 Q163.288 929.662 163.288 922.556 Q163.288 915.426 161.459 911.884 Q159.653 908.32 156.019 908.32 M156.019 904.616 Q161.829 904.616 164.885 909.222 Q167.964 913.806 167.964 922.556 Q167.964 931.282 164.885 935.889 Q161.829 940.472 156.019 940.472 Q150.209 940.472 147.13 935.889 Q144.075 931.282 144.075 922.556 Q144.075 913.806 147.13 909.222 Q150.209 904.616 156.019 904.616 Z" fill="#000000" fill-rule="evenodd" fill-opacity="1" /><path clip-path="url(#clip190)" d="M117.663 678.691 L125.302 678.691 L125.302 652.325 L116.992 653.992 L116.992 649.733 L125.255 648.066 L129.931 648.066 L129.931 678.691 L137.57 678.691 L137.57 682.626 L117.663 682.626 L117.663 678.691 Z" fill="#000000" fill-rule="evenodd" fill-opacity="1" /><path clip-path="url(#clip190)" d="M147.061 648.066 L165.417 648.066 L165.417 652.001 L151.343 652.001 L151.343 660.473 Q152.362 660.126 153.38 659.964 Q154.399 659.779 155.417 659.779 Q161.204 659.779 164.584 662.95 Q167.964 666.121 167.964 671.538 Q167.964 677.117 164.491 680.219 Q161.019 683.297 154.7 683.297 Q152.524 683.297 150.255 682.927 Q148.01 682.556 145.603 681.816 L145.603 677.117 Q147.686 678.251 149.908 678.806 Q152.13 679.362 154.607 679.362 Q158.612 679.362 160.95 677.256 Q163.288 675.149 163.288 671.538 Q163.288 667.927 160.95 665.82 Q158.612 663.714 154.607 663.714 Q152.732 663.714 150.857 664.131 Q149.005 664.547 147.061 665.427 L147.061 648.066 Z" fill="#000000" fill-rule="evenodd" fill-opacity="1" /><path clip-path="url(#clip190)" d="M119.885 421.516 L136.204 421.516 L136.204 425.451 L114.26 425.451 L114.26 421.516 Q116.922 418.761 121.505 414.132 Q126.112 409.479 127.292 408.136 Q129.538 405.613 130.417 403.877 Q131.32 402.118 131.32 400.428 Q131.32 397.673 129.376 395.937 Q127.455 394.201 124.353 394.201 Q122.154 394.201 119.7 394.965 Q117.269 395.729 114.492 397.28 L114.492 392.558 Q117.316 391.423 119.769 390.845 Q122.223 390.266 124.26 390.266 Q129.63 390.266 132.825 392.951 Q136.019 395.636 136.019 400.127 Q136.019 402.257 135.209 404.178 Q134.422 406.076 132.316 408.669 Q131.737 409.34 128.635 412.558 Q125.533 415.752 119.885 421.516 Z" fill="#000000" fill-rule="evenodd" fill-opacity="1" /><path clip-path="url(#clip190)" d="M156.019 393.97 Q152.408 393.97 150.579 397.534 Q148.774 401.076 148.774 408.206 Q148.774 415.312 150.579 418.877 Q152.408 422.419 156.019 422.419 Q159.653 422.419 161.459 418.877 Q163.288 415.312 163.288 408.206 Q163.288 401.076 161.459 397.534 Q159.653 393.97 156.019 393.97 M156.019 390.266 Q161.829 390.266 164.885 394.872 Q167.964 399.456 167.964 408.206 Q167.964 416.932 164.885 421.539 Q161.829 426.122 156.019 426.122 Q150.209 426.122 147.13 421.539 Q144.075 416.932 144.075 408.206 Q144.075 399.456 147.13 394.872 Q150.209 390.266 156.019 390.266 Z" fill="#000000" fill-rule="evenodd" fill-opacity="1" /><path clip-path="url(#clip190)" d="M120.88 164.341 L137.2 164.341 L137.2 168.276 L115.256 168.276 L115.256 164.341 Q117.918 161.586 122.501 156.957 Q127.107 152.304 128.288 150.961 Q130.533 148.438 131.413 146.702 Q132.316 144.943 132.316 143.253 Q132.316 140.498 130.371 138.762 Q128.45 137.026 125.348 137.026 Q123.149 137.026 120.695 137.79 Q118.265 138.554 115.487 140.105 L115.487 135.383 Q118.311 134.248 120.765 133.67 Q123.218 133.091 125.255 133.091 Q130.626 133.091 133.82 135.776 Q137.015 138.461 137.015 142.952 Q137.015 145.082 136.204 147.003 Q135.417 148.901 133.311 151.494 Q132.732 152.165 129.63 155.383 Q126.529 158.577 120.88 164.341 Z" fill="#000000" fill-rule="evenodd" fill-opacity="1" /><path clip-path="url(#clip190)" d="M147.061 133.716 L165.417 133.716 L165.417 137.651 L151.343 137.651 L151.343 146.123 Q152.362 145.776 153.38 145.614 Q154.399 145.429 155.417 145.429 Q161.204 145.429 164.584 148.6 Q167.964 151.771 167.964 157.188 Q167.964 162.767 164.491 165.869 Q161.019 168.947 154.7 168.947 Q152.524 168.947 150.255 168.577 Q148.01 168.207 145.603 167.466 L145.603 162.767 Q147.686 163.901 149.908 164.457 Q152.13 165.012 154.607 165.012 Q158.612 165.012 160.95 162.906 Q163.288 160.799 163.288 157.188 Q163.288 153.577 160.95 151.471 Q158.612 149.364 154.607 149.364 Q152.732 149.364 150.857 149.781 Q149.005 150.197 147.061 151.077 L147.061 133.716 Z" fill="#000000" fill-rule="evenodd" fill-opacity="1" /><path clip-path="url(#clip190)" d="M67.3143 733.525 Q73.68 736.008 75.6216 738.363 Q77.5631 740.718 77.5631 744.665 L77.5631 749.344 L72.6615 749.344 L72.6615 745.906 Q72.6615 743.487 71.5157 742.151 Q70.3699 740.814 66.1048 739.191 L63.4312 738.14 L28.3562 752.559 L28.3562 746.352 L56.238 735.212 L28.3562 724.072 L28.3562 717.865 L67.3143 733.525 Z" fill="#000000" fill-rule="evenodd" fill-opacity="1" /><circle clip-path="url(#clip192)" cx="264.778" cy="1282.02" r="14.4" fill="#009af9" fill-rule="evenodd" fill-opacity="1" stroke="#000000" stroke-opacity="1" stroke-width="3.2"/>
<circle clip-path="url(#clip192)" cx="366.137" cy="1384.24" r="14.4" fill="#009af9" fill-rule="evenodd" fill-opacity="1" stroke="#000000" stroke-opacity="1" stroke-width="3.2"/>
<circle clip-path="url(#clip192)" cx="467.495" cy="1282.98" r="14.4" fill="#009af9" fill-rule="evenodd" fill-opacity="1" stroke="#000000" stroke-opacity="1" stroke-width="3.2"/>
<circle clip-path="url(#clip192)" cx="568.853" cy="1320.13" r="14.4" fill="#009af9" fill-rule="evenodd" fill-opacity="1" stroke="#000000" stroke-opacity="1" stroke-width="3.2"/>
<circle clip-path="url(#clip192)" cx="670.211" cy="1331.98" r="14.4" fill="#009af9" fill-rule="evenodd" fill-opacity="1" stroke="#000000" stroke-opacity="1" stroke-width="3.2"/>
<circle clip-path="url(#clip192)" cx="771.569" cy="1351.63" r="14.4" fill="#009af9" fill-rule="evenodd" fill-opacity="1" stroke="#000000" stroke-opacity="1" stroke-width="3.2"/>
<circle clip-path="url(#clip192)" cx="872.927" cy="1107.82" r="14.4" fill="#009af9" fill-rule="evenodd" fill-opacity="1" stroke="#000000" stroke-opacity="1" stroke-width="3.2"/>
<circle clip-path="url(#clip192)" cx="974.285" cy="1132.02" r="14.4" fill="#009af9" fill-rule="evenodd" fill-opacity="1" stroke="#000000" stroke-opacity="1" stroke-width="3.2"/>
<circle clip-path="url(#clip192)" cx="1075.64" cy="1128.27" r="14.4" fill="#009af9" fill-rule="evenodd" fill-opacity="1" stroke="#000000" stroke-opacity="1" stroke-width="3.2"/>
<circle clip-path="url(#clip192)" cx="1177" cy="1163.18" r="14.4" fill="#009af9" fill-rule="evenodd" fill-opacity="1" stroke="#000000" stroke-opacity="1" stroke-width="3.2"/>
<circle clip-path="url(#clip192)" cx="1278.36" cy="1025.6" r="14.4" fill="#009af9" fill-rule="evenodd" fill-opacity="1" stroke="#000000" stroke-opacity="1" stroke-width="3.2"/>
<circle clip-path="url(#clip192)" cx="1379.72" cy="943.401" r="14.4" fill="#009af9" fill-rule="evenodd" fill-opacity="1" stroke="#000000" stroke-opacity="1" stroke-width="3.2"/>
<circle clip-path="url(#clip192)" cx="1481.08" cy="885.925" r="14.4" fill="#009af9" fill-rule="evenodd" fill-opacity="1" stroke="#000000" stroke-opacity="1" stroke-width="3.2"/>
<circle clip-path="url(#clip192)" cx="1582.43" cy="851.119" r="14.4" fill="#009af9" fill-rule="evenodd" fill-opacity="1" stroke="#000000" stroke-opacity="1" stroke-width="3.2"/>
<circle clip-path="url(#clip192)" cx="1683.79" cy="724.492" r="14.4" fill="#009af9" fill-rule="evenodd" fill-opacity="1" stroke="#000000" stroke-opacity="1" stroke-width="3.2"/>
<circle clip-path="url(#clip192)" cx="1785.15" cy="639.097" r="14.4" fill="#009af9" fill-rule="evenodd" fill-opacity="1" stroke="#000000" stroke-opacity="1" stroke-width="3.2"/>
<circle clip-path="url(#clip192)" cx="1886.51" cy="601.856" r="14.4" fill="#009af9" fill-rule="evenodd" fill-opacity="1" stroke="#000000" stroke-opacity="1" stroke-width="3.2"/>
<circle clip-path="url(#clip192)" cx="1987.87" cy="450.697" r="14.4" fill="#009af9" fill-rule="evenodd" fill-opacity="1" stroke="#000000" stroke-opacity="1" stroke-width="3.2"/>
<circle clip-path="url(#clip192)" cx="2089.22" cy="445.407" r="14.4" fill="#009af9" fill-rule="evenodd" fill-opacity="1" stroke="#000000" stroke-opacity="1" stroke-width="3.2"/>
<circle clip-path="url(#clip192)" cx="2190.58" cy="213.027" r="14.4" fill="#009af9" fill-rule="evenodd" fill-opacity="1" stroke="#000000" stroke-opacity="1" stroke-width="3.2"/>
<circle clip-path="url(#clip192)" cx="2291.94" cy="86.1857" r="14.4" fill="#009af9" fill-rule="evenodd" fill-opacity="1" stroke="#000000" stroke-opacity="1" stroke-width="3.2"/>
<path clip-path="url(#clip190)" d="
M1942.51 196.789 L2281.13 196.789 L2281.13 93.1086 L1942.51 93.1086  Z
  " fill="#ffffff" fill-rule="evenodd" fill-opacity="1"/>
<polyline clip-path="url(#clip190)" style="stroke:#000000; stroke-linecap:butt; stroke-linejoin:round; stroke-width:4; stroke-opacity:1; fill:none" points="
  1942.51,196.789 2281.13,196.789 2281.13,93.1086 1942.51,93.1086 1942.51,196.789 
  "/>
<circle clip-path="url(#clip190)" cx="2038.02" cy="144.949" r="23.04" fill="#009af9" fill-rule="evenodd" fill-opacity="1" stroke="#000000" stroke-opacity="1" stroke-width="5.12"/>
<path clip-path="url(#clip190)" d="M2152.43 140.238 L2152.43 126.21 L2156.69 126.21 L2156.69 162.229 L2152.43 162.229 L2152.43 158.34 Q2151.09 160.655 2149.03 161.789 Q2146.99 162.9 2144.12 162.9 Q2139.42 162.9 2136.46 159.15 Q2133.52 155.4 2133.52 149.289 Q2133.52 143.178 2136.46 139.428 Q2139.42 135.678 2144.12 135.678 Q2146.99 135.678 2149.03 136.812 Q2151.09 137.923 2152.43 140.238 M2137.92 149.289 Q2137.92 153.988 2139.84 156.673 Q2141.78 159.335 2145.16 159.335 Q2148.54 159.335 2150.49 156.673 Q2152.43 153.988 2152.43 149.289 Q2152.43 144.59 2150.49 141.928 Q2148.54 139.243 2145.16 139.243 Q2141.78 139.243 2139.84 141.928 Q2137.92 144.59 2137.92 149.289 Z" fill="#000000" fill-rule="evenodd" fill-opacity="1" /><path clip-path="url(#clip190)" d="M2177.24 149.196 Q2172.08 149.196 2170.09 150.377 Q2168.1 151.557 2168.1 154.405 Q2168.1 156.673 2169.58 158.016 Q2171.09 159.335 2173.66 159.335 Q2177.2 159.335 2179.33 156.835 Q2181.48 154.312 2181.48 150.145 L2181.48 149.196 L2177.24 149.196 M2185.74 147.437 L2185.74 162.229 L2181.48 162.229 L2181.48 158.293 Q2180.02 160.655 2177.85 161.789 Q2175.67 162.9 2172.52 162.9 Q2168.54 162.9 2166.18 160.678 Q2163.84 158.432 2163.84 154.682 Q2163.84 150.307 2166.76 148.085 Q2169.7 145.863 2175.51 145.863 L2181.48 145.863 L2181.48 145.446 Q2181.48 142.507 2179.54 140.909 Q2177.61 139.289 2174.12 139.289 Q2171.9 139.289 2169.79 139.821 Q2167.68 140.354 2165.74 141.419 L2165.74 137.483 Q2168.08 136.581 2170.28 136.141 Q2172.48 135.678 2174.56 135.678 Q2180.18 135.678 2182.96 138.594 Q2185.74 141.511 2185.74 147.437 Z" fill="#000000" fill-rule="evenodd" fill-opacity="1" /><path clip-path="url(#clip190)" d="M2198.73 128.942 L2198.73 136.303 L2207.5 136.303 L2207.5 139.613 L2198.73 139.613 L2198.73 153.687 Q2198.73 156.858 2199.58 157.761 Q2200.46 158.664 2203.12 158.664 L2207.5 158.664 L2207.5 162.229 L2203.12 162.229 Q2198.19 162.229 2196.32 160.4 Q2194.44 158.548 2194.44 153.687 L2194.44 139.613 L2191.32 139.613 L2191.32 136.303 L2194.44 136.303 L2194.44 128.942 L2198.73 128.942 Z" fill="#000000" fill-rule="evenodd" fill-opacity="1" /><path clip-path="url(#clip190)" d="M2224.88 149.196 Q2219.72 149.196 2217.73 150.377 Q2215.74 151.557 2215.74 154.405 Q2215.74 156.673 2217.22 158.016 Q2218.73 159.335 2221.3 159.335 Q2224.84 159.335 2226.97 156.835 Q2229.12 154.312 2229.12 150.145 L2229.12 149.196 L2224.88 149.196 M2233.38 147.437 L2233.38 162.229 L2229.12 162.229 L2229.12 158.293 Q2227.66 160.655 2225.49 161.789 Q2223.31 162.9 2220.16 162.9 Q2216.18 162.9 2213.82 160.678 Q2211.48 158.432 2211.48 154.682 Q2211.48 150.307 2214.4 148.085 Q2217.34 145.863 2223.15 145.863 L2229.12 145.863 L2229.12 145.446 Q2229.12 142.507 2227.17 140.909 Q2225.25 139.289 2221.76 139.289 Q2219.54 139.289 2217.43 139.821 Q2215.32 140.354 2213.38 141.419 L2213.38 137.483 Q2215.72 136.581 2217.92 136.141 Q2220.11 135.678 2222.2 135.678 Q2227.82 135.678 2230.6 138.594 Q2233.38 141.511 2233.38 147.437 Z" fill="#000000" fill-rule="evenodd" fill-opacity="1" /></svg>
