<?xml version="1.0" encoding="utf-8"?>
<svg xmlns="http://www.w3.org/2000/svg" xmlns:xlink="http://www.w3.org/1999/xlink" width="600" height="400" viewBox="0 0 2400 1600">
<defs>
  <clipPath id="clip900">
    <rect x="0" y="0" width="2400" height="1600"/>
  </clipPath>
</defs>
<path clip-path="url(#clip900)" d="M0 1600 L2400 1600 L2400 0 L0 0  Z" fill="#ffffff" fill-rule="evenodd" fill-opacity="1"/>
<defs>
  <clipPath id="clip901">
    <rect x="480" y="0" width="1681" height="1600"/>
  </clipPath>
</defs>
<path clip-path="url(#clip900)" d="M252.764 1423.18 L2352.76 1423.18 L2352.76 47.2441 L252.764 47.2441  Z" fill="#ffffff" fill-rule="evenodd" fill-opacity="1"/>
<defs>
  <clipPath id="clip902">
    <rect x="252" y="47" width="2101" height="1377"/>
  </clipPath>
</defs>
<polyline clip-path="url(#clip902)" style="stroke:#000000; stroke-linecap:round; stroke-linejoin:round; stroke-width:2; stroke-opacity:0.1; fill:none" points="312.198,1423.18 312.198,47.2441 "/>
<polyline clip-path="url(#clip902)" style="stroke:#000000; stroke-linecap:round; stroke-linejoin:round; stroke-width:2; stroke-opacity:0.1; fill:none" points="708.423,1423.18 708.423,47.2441 "/>
<polyline clip-path="url(#clip902)" style="stroke:#000000; stroke-linecap:round; stroke-linejoin:round; stroke-width:2; stroke-opacity:0.1; fill:none" points="1104.65,1423.18 1104.65,47.2441 "/>
<polyline clip-path="url(#clip902)" style="stroke:#000000; stroke-linecap:round; stroke-linejoin:round; stroke-width:2; stroke-opacity:0.1; fill:none" points="1500.87,1423.18 1500.87,47.2441 "/>
<polyline clip-path="url(#clip902)" style="stroke:#000000; stroke-linecap:round; stroke-linejoin:round; stroke-width:2; stroke-opacity:0.1; fill:none" points="1897.1,1423.18 1897.1,47.2441 "/>
<polyline clip-path="url(#clip902)" style="stroke:#000000; stroke-linecap:round; stroke-linejoin:round; stroke-width:2; stroke-opacity:0.1; fill:none" points="2293.32,1423.18 2293.32,47.2441 "/>
<polyline clip-path="url(#clip900)" style="stroke:#000000; stroke-linecap:round; stroke-linejoin:round; stroke-width:4; stroke-opacity:1; fill:none" points="252.764,1423.18 2352.76,1423.18 "/>
<polyline clip-path="url(#clip900)" style="stroke:#000000; stroke-linecap:round; stroke-linejoin:round; stroke-width:4; stroke-opacity:1; fill:none" points="312.198,1423.18 312.198,1404.28 "/>
<polyline clip-path="url(#clip900)" style="stroke:#000000; stroke-linecap:round; stroke-linejoin:round; stroke-width:4; stroke-opacity:1; fill:none" points="708.423,1423.18 708.423,1404.28 "/>
<polyline clip-path="url(#clip900)" style="stroke:#000000; stroke-linecap:round; stroke-linejoin:round; stroke-width:4; stroke-opacity:1; fill:none" points="1104.65,1423.18 1104.65,1404.28 "/>
<polyline clip-path="url(#clip900)" style="stroke:#000000; stroke-linecap:round; stroke-linejoin:round; stroke-width:4; stroke-opacity:1; fill:none" points="1500.87,1423.18 1500.87,1404.28 "/>
<polyline clip-path="url(#clip900)" style="stroke:#000000; stroke-linecap:round; stroke-linejoin:round; stroke-width:4; stroke-opacity:1; fill:none" points="1897.1,1423.18 1897.1,1404.28 "/>
<polyline clip-path="url(#clip900)" style="stroke:#000000; stroke-linecap:round; stroke-linejoin:round; stroke-width:4; stroke-opacity:1; fill:none" points="2293.32,1423.18 2293.32,1404.28 "/>
<path clip-path="url(#clip900)" d="M312.198 1454.1 Q308.587 1454.1 306.758 1457.66 Q304.952 1461.2 304.952 1468.33 Q304.952 1475.44 306.758 1479.01 Q308.587 1482.55 312.198 1482.55 Q315.832 1482.55 317.637 1479.01 Q319.466 1475.44 319.466 1468.33 Q319.466 1461.2 317.637 1457.66 Q315.832 1454.1 312.198 1454.1 M312.198 1450.39 Q318.008 1450.39 321.063 1455 Q324.142 1459.58 324.142 1468.33 Q324.142 1477.06 321.063 1481.67 Q318.008 1486.25 312.198 1486.25 Q306.388 1486.25 303.309 1481.67 Q300.253 1477.06 300.253 1468.33 Q300.253 1459.58 303.309 1455 Q306.388 1450.39 312.198 1450.39 Z" fill="#000000" fill-rule="nonzero" fill-opacity="1" /><path clip-path="url(#clip900)" d="M683.11 1481.64 L690.749 1481.64 L690.749 1455.28 L682.439 1456.95 L682.439 1452.69 L690.703 1451.02 L695.379 1451.02 L695.379 1481.64 L703.018 1481.64 L703.018 1485.58 L683.11 1485.58 L683.11 1481.64 Z" fill="#000000" fill-rule="nonzero" fill-opacity="1" /><path clip-path="url(#clip900)" d="M722.462 1454.1 Q718.851 1454.1 717.022 1457.66 Q715.217 1461.2 715.217 1468.33 Q715.217 1475.44 717.022 1479.01 Q718.851 1482.55 722.462 1482.55 Q726.096 1482.55 727.902 1479.01 Q729.73 1475.44 729.73 1468.33 Q729.73 1461.2 727.902 1457.66 Q726.096 1454.1 722.462 1454.1 M722.462 1450.39 Q728.272 1450.39 731.328 1455 Q734.406 1459.58 734.406 1468.33 Q734.406 1477.06 731.328 1481.67 Q728.272 1486.25 722.462 1486.25 Q716.652 1486.25 713.573 1481.67 Q710.517 1477.06 710.517 1468.33 Q710.517 1459.58 713.573 1455 Q716.652 1450.39 722.462 1450.39 Z" fill="#000000" fill-rule="nonzero" fill-opacity="1" /><path clip-path="url(#clip900)" d="M1083.42 1481.64 L1099.74 1481.64 L1099.74 1485.58 L1077.8 1485.58 L1077.8 1481.64 Q1080.46 1478.89 1085.04 1474.26 Q1089.65 1469.61 1090.83 1468.27 Q1093.07 1465.74 1093.95 1464.01 Q1094.86 1462.25 1094.86 1460.56 Q1094.86 1457.8 1092.91 1456.07 Q1090.99 1454.33 1087.89 1454.33 Q1085.69 1454.33 1083.24 1455.09 Q1080.81 1455.86 1078.03 1457.41 L1078.03 1452.69 Q1080.85 1451.55 1083.31 1450.97 Q1085.76 1450.39 1087.8 1450.39 Q1093.17 1450.39 1096.36 1453.08 Q1099.55 1455.77 1099.55 1460.26 Q1099.55 1462.39 1098.74 1464.31 Q1097.96 1466.2 1095.85 1468.8 Q1095.27 1469.47 1092.17 1472.69 Q1089.07 1475.88 1083.42 1481.64 Z" fill="#000000" fill-rule="nonzero" fill-opacity="1" /><path clip-path="url(#clip900)" d="M1119.55 1454.1 Q1115.94 1454.1 1114.12 1457.66 Q1112.31 1461.2 1112.31 1468.33 Q1112.31 1475.44 1114.12 1479.01 Q1115.94 1482.55 1119.55 1482.55 Q1123.19 1482.55 1124.99 1479.01 Q1126.82 1475.44 1126.82 1468.33 Q1126.82 1461.2 1124.99 1457.66 Q1123.19 1454.1 1119.55 1454.1 M1119.55 1450.39 Q1125.36 1450.39 1128.42 1455 Q1131.5 1459.58 1131.5 1468.33 Q1131.5 1477.06 1128.42 1481.67 Q1125.36 1486.25 1119.55 1486.25 Q1113.74 1486.25 1110.67 1481.67 Q1107.61 1477.06 1107.61 1468.33 Q1107.61 1459.58 1110.67 1455 Q1113.74 1450.39 1119.55 1450.39 Z" fill="#000000" fill-rule="nonzero" fill-opacity="1" /><path clip-path="url(#clip900)" d="M1489.72 1466.95 Q1493.07 1467.66 1494.95 1469.93 Q1496.84 1472.2 1496.84 1475.53 Q1496.84 1480.65 1493.33 1483.45 Q1489.81 1486.25 1483.33 1486.25 Q1481.15 1486.25 1478.84 1485.81 Q1476.54 1485.39 1474.09 1484.54 L1474.09 1480.02 Q1476.03 1481.16 1478.35 1481.74 Q1480.66 1482.32 1483.19 1482.32 Q1487.59 1482.32 1489.88 1480.58 Q1492.19 1478.84 1492.19 1475.53 Q1492.19 1472.48 1490.04 1470.77 Q1487.91 1469.03 1484.09 1469.03 L1480.06 1469.03 L1480.06 1465.19 L1484.28 1465.19 Q1487.72 1465.19 1489.55 1463.82 Q1491.38 1462.43 1491.38 1459.84 Q1491.38 1457.18 1489.48 1455.77 Q1487.61 1454.33 1484.09 1454.33 Q1482.17 1454.33 1479.97 1454.75 Q1477.77 1455.16 1475.13 1456.04 L1475.13 1451.88 Q1477.79 1451.14 1480.11 1450.77 Q1482.45 1450.39 1484.51 1450.39 Q1489.83 1450.39 1492.93 1452.83 Q1496.03 1455.23 1496.03 1459.35 Q1496.03 1462.22 1494.39 1464.21 Q1492.75 1466.18 1489.72 1466.95 Z" fill="#000000" fill-rule="nonzero" fill-opacity="1" /><path clip-path="url(#clip900)" d="M1515.71 1454.1 Q1512.1 1454.1 1510.27 1457.66 Q1508.46 1461.2 1508.46 1468.33 Q1508.46 1475.44 1510.27 1479.01 Q1512.1 1482.55 1515.71 1482.55 Q1519.34 1482.55 1521.15 1479.01 Q1522.98 1475.44 1522.98 1468.33 Q1522.98 1461.2 1521.15 1457.66 Q1519.34 1454.1 1515.71 1454.1 M1515.71 1450.39 Q1521.52 1450.39 1524.58 1455 Q1527.65 1459.58 1527.65 1468.33 Q1527.65 1477.06 1524.58 1481.67 Q1521.52 1486.25 1515.71 1486.25 Q1509.9 1486.25 1506.82 1481.67 Q1503.77 1477.06 1503.77 1468.33 Q1503.77 1459.58 1506.82 1455 Q1509.9 1450.39 1515.71 1450.39 Z" fill="#000000" fill-rule="nonzero" fill-opacity="1" /><path clip-path="url(#clip900)" d="M1885.27 1455.09 L1873.46 1473.54 L1885.27 1473.54 L1885.27 1455.09 M1884.04 1451.02 L1889.92 1451.02 L1889.92 1473.54 L1894.85 1473.54 L1894.85 1477.43 L1889.92 1477.43 L1889.92 1485.58 L1885.27 1485.58 L1885.27 1477.43 L1869.67 1477.43 L1869.67 1472.92 L1884.04 1451.02 Z" fill="#000000" fill-rule="nonzero" fill-opacity="1" /><path clip-path="url(#clip900)" d="M1912.58 1454.1 Q1908.97 1454.1 1907.14 1457.66 Q1905.34 1461.2 1905.34 1468.33 Q1905.34 1475.44 1907.14 1479.01 Q1908.97 1482.55 1912.58 1482.55 Q1916.22 1482.55 1918.02 1479.01 Q1919.85 1475.44 1919.85 1468.33 Q1919.85 1461.2 1918.02 1457.66 Q1916.22 1454.1 1912.58 1454.1 M1912.58 1450.39 Q1918.39 1450.39 1921.45 1455 Q1924.53 1459.58 1924.53 1468.33 Q1924.53 1477.06 1921.45 1481.67 Q1918.39 1486.25 1912.58 1486.25 Q1906.77 1486.25 1903.69 1481.67 Q1900.64 1477.06 1900.64 1468.33 Q1900.64 1459.58 1903.69 1455 Q1906.77 1450.39 1912.58 1450.39 Z" fill="#000000" fill-rule="nonzero" fill-opacity="1" /><path clip-path="url(#clip900)" d="M2268.02 1451.02 L2286.38 1451.02 L2286.38 1454.96 L2272.3 1454.96 L2272.3 1463.43 Q2273.32 1463.08 2274.34 1462.92 Q2275.36 1462.73 2276.38 1462.73 Q2282.16 1462.73 2285.54 1465.9 Q2288.92 1469.08 2288.92 1474.49 Q2288.92 1480.07 2285.45 1483.17 Q2281.98 1486.25 2275.66 1486.25 Q2273.48 1486.25 2271.22 1485.88 Q2268.97 1485.51 2266.56 1484.77 L2266.56 1480.07 Q2268.65 1481.2 2270.87 1481.76 Q2273.09 1482.32 2275.57 1482.32 Q2279.57 1482.32 2281.91 1480.21 Q2284.25 1478.1 2284.25 1474.49 Q2284.25 1470.88 2281.91 1468.77 Q2279.57 1466.67 2275.57 1466.67 Q2273.69 1466.67 2271.82 1467.08 Q2269.97 1467.5 2268.02 1468.38 L2268.02 1451.02 Z" fill="#000000" fill-rule="nonzero" fill-opacity="1" /><path clip-path="url(#clip900)" d="M2308.14 1454.1 Q2304.53 1454.1 2302.7 1457.66 Q2300.89 1461.2 2300.89 1468.33 Q2300.89 1475.44 2302.7 1479.01 Q2304.53 1482.55 2308.14 1482.55 Q2311.77 1482.55 2313.58 1479.01 Q2315.41 1475.44 2315.41 1468.33 Q2315.41 1461.2 2313.58 1457.66 Q2311.77 1454.1 2308.14 1454.1 M2308.14 1450.39 Q2313.95 1450.39 2317 1455 Q2320.08 1459.58 2320.08 1468.33 Q2320.08 1477.06 2317 1481.67 Q2313.95 1486.25 2308.14 1486.25 Q2302.33 1486.25 2299.25 1481.67 Q2296.19 1477.06 2296.19 1468.33 Q2296.19 1459.58 2299.25 1455 Q2302.33 1450.39 2308.14 1450.39 Z" fill="#000000" fill-rule="nonzero" fill-opacity="1" /><path clip-path="url(#clip900)" d="M1319.37 1532.4 L1306.48 1549.74 L1320.04 1568.04 L1313.14 1568.04 L1302.76 1554.04 L1292.38 1568.04 L1285.48 1568.04 L1299.32 1549.39 L1286.65 1532.4 L1293.56 1532.4 L1303.01 1545.1 L1312.47 1532.4 L1319.37 1532.4 Z" fill="#000000" fill-rule="nonzero" fill-opacity="1" /><polyline clip-path="url(#clip902)" style="stroke:#000000; stroke-linecap:round; stroke-linejoin:round; stroke-width:2; stroke-opacity:0.1; fill:none" points="252.764,1423.18 2352.76,1423.18 "/>
<polyline clip-path="url(#clip902)" style="stroke:#000000; stroke-linecap:round; stroke-linejoin:round; stroke-width:2; stroke-opacity:0.1; fill:none" points="252.764,1147.99 2352.76,1147.99 "/>
<polyline clip-path="url(#clip902)" style="stroke:#000000; stroke-linecap:round; stroke-linejoin:round; stroke-width:2; stroke-opacity:0.1; fill:none" points="252.764,872.806 2352.76,872.806 "/>
<polyline clip-path="url(#clip902)" style="stroke:#000000; stroke-linecap:round; stroke-linejoin:round; stroke-width:2; stroke-opacity:0.1; fill:none" points="252.764,597.618 2352.76,597.618 "/>
<polyline clip-path="url(#clip902)" style="stroke:#000000; stroke-linecap:round; stroke-linejoin:round; stroke-width:2; stroke-opacity:0.1; fill:none" points="252.764,322.431 2352.76,322.431 "/>
<polyline clip-path="url(#clip902)" style="stroke:#000000; stroke-linecap:round; stroke-linejoin:round; stroke-width:2; stroke-opacity:0.1; fill:none" points="252.764,47.2441 2352.76,47.2441 "/>
<polyline clip-path="url(#clip900)" style="stroke:#000000; stroke-linecap:round; stroke-linejoin:round; stroke-width:4; stroke-opacity:1; fill:none" points="252.764,1423.18 252.764,47.2441 "/>
<polyline clip-path="url(#clip900)" style="stroke:#000000; stroke-linecap:round; stroke-linejoin:round; stroke-width:4; stroke-opacity:1; fill:none" points="252.764,1423.18 271.662,1423.18 "/>
<polyline clip-path="url(#clip900)" style="stroke:#000000; stroke-linecap:round; stroke-linejoin:round; stroke-width:4; stroke-opacity:1; fill:none" points="252.764,1147.99 271.662,1147.99 "/>
<polyline clip-path="url(#clip900)" style="stroke:#000000; stroke-linecap:round; stroke-linejoin:round; stroke-width:4; stroke-opacity:1; fill:none" points="252.764,872.806 271.662,872.806 "/>
<polyline clip-path="url(#clip900)" style="stroke:#000000; stroke-linecap:round; stroke-linejoin:round; stroke-width:4; stroke-opacity:1; fill:none" points="252.764,597.618 271.662,597.618 "/>
<polyline clip-path="url(#clip900)" style="stroke:#000000; stroke-linecap:round; stroke-linejoin:round; stroke-width:4; stroke-opacity:1; fill:none" points="252.764,322.431 271.662,322.431 "/>
<polyline clip-path="url(#clip900)" style="stroke:#000000; stroke-linecap:round; stroke-linejoin:round; stroke-width:4; stroke-opacity:1; fill:none" points="252.764,47.2441 271.662,47.2441 "/>
<path clip-path="url(#clip900)" d="M116.135 1442.97 L123.774 1442.97 L123.774 1416.61 L115.464 1418.27 L115.464 1414.01 L123.728 1412.35 L128.404 1412.35 L128.404 1442.97 L136.042 1442.97 L136.042 1446.91 L116.135 1446.91 L116.135 1442.97 Z" fill="#000000" fill-rule="nonzero" fill-opacity="1" /><path clip-path="url(#clip900)" d="M155.487 1415.43 Q151.876 1415.43 150.047 1418.99 Q148.241 1422.53 148.241 1429.66 Q148.241 1436.77 150.047 1440.33 Q151.876 1443.88 155.487 1443.88 Q159.121 1443.88 160.927 1440.33 Q162.755 1436.77 162.755 1429.66 Q162.755 1422.53 160.927 1418.99 Q159.121 1415.43 155.487 1415.43 M155.487 1411.72 Q161.297 1411.72 164.352 1416.33 Q167.431 1420.91 167.431 1429.66 Q167.431 1438.39 164.352 1443 Q161.297 1447.58 155.487 1447.58 Q149.677 1447.58 146.598 1443 Q143.542 1438.39 143.542 1429.66 Q143.542 1420.91 146.598 1416.33 Q149.677 1411.72 155.487 1411.72 Z" fill="#000000" fill-rule="nonzero" fill-opacity="1" /><path clip-path="url(#clip900)" d="M167.431 1405.82 L191.543 1405.82 L191.543 1409.02 L167.431 1409.02 L167.431 1405.82 Z" fill="#000000" fill-rule="nonzero" fill-opacity="1" /><path clip-path="url(#clip900)" d="M199.781 1391.42 L214.695 1391.42 L214.695 1394.61 L203.26 1394.61 L203.26 1401.5 Q204.088 1401.22 204.915 1401.08 Q205.743 1400.93 206.57 1400.93 Q211.272 1400.93 214.018 1403.51 Q216.764 1406.09 216.764 1410.49 Q216.764 1415.02 213.943 1417.54 Q211.122 1420.04 205.987 1420.04 Q204.219 1420.04 202.376 1419.74 Q200.552 1419.44 198.596 1418.84 L198.596 1415.02 Q200.288 1415.94 202.094 1416.39 Q203.899 1416.85 205.912 1416.85 Q209.166 1416.85 211.065 1415.13 Q212.965 1413.42 212.965 1410.49 Q212.965 1407.55 211.065 1405.84 Q209.166 1404.13 205.912 1404.13 Q204.388 1404.13 202.865 1404.47 Q201.36 1404.81 199.781 1405.52 L199.781 1391.42 Z" fill="#000000" fill-rule="nonzero" fill-opacity="1" /><path clip-path="url(#clip900)" d="M114.931 1167.79 L122.57 1167.79 L122.57 1141.42 L114.26 1143.09 L114.26 1138.83 L122.524 1137.16 L127.2 1137.16 L127.2 1167.79 L134.839 1167.79 L134.839 1171.72 L114.931 1171.72 L114.931 1167.79 Z" fill="#000000" fill-rule="nonzero" fill-opacity="1" /><path clip-path="url(#clip900)" d="M154.283 1140.24 Q150.672 1140.24 148.843 1143.8 Q147.038 1147.35 147.038 1154.48 Q147.038 1161.58 148.843 1165.15 Q150.672 1168.69 154.283 1168.69 Q157.917 1168.69 159.723 1165.15 Q161.552 1161.58 161.552 1154.48 Q161.552 1147.35 159.723 1143.8 Q157.917 1140.24 154.283 1140.24 M154.283 1136.54 Q160.093 1136.54 163.149 1141.14 Q166.227 1145.73 166.227 1154.48 Q166.227 1163.2 163.149 1167.81 Q160.093 1172.39 154.283 1172.39 Q148.473 1172.39 145.394 1167.81 Q142.339 1163.2 142.339 1154.48 Q142.339 1145.73 145.394 1141.14 Q148.473 1136.54 154.283 1136.54 Z" fill="#000000" fill-rule="nonzero" fill-opacity="1" /><path clip-path="url(#clip900)" d="M166.227 1130.64 L190.339 1130.64 L190.339 1133.83 L166.227 1133.83 L166.227 1130.64 Z" fill="#000000" fill-rule="nonzero" fill-opacity="1" /><path clip-path="url(#clip900)" d="M208.978 1119.54 L199.386 1134.53 L208.978 1134.53 L208.978 1119.54 M207.981 1116.23 L212.758 1116.23 L212.758 1134.53 L216.764 1134.53 L216.764 1137.69 L212.758 1137.69 L212.758 1144.31 L208.978 1144.31 L208.978 1137.69 L196.301 1137.69 L196.301 1134.02 L207.981 1116.23 Z" fill="#000000" fill-rule="nonzero" fill-opacity="1" /><path clip-path="url(#clip900)" d="M115.853 892.598 L123.492 892.598 L123.492 866.232 L115.182 867.899 L115.182 863.64 L123.446 861.973 L128.121 861.973 L128.121 892.598 L135.76 892.598 L135.76 896.533 L115.853 896.533 L115.853 892.598 Z" fill="#000000" fill-rule="nonzero" fill-opacity="1" /><path clip-path="url(#clip900)" d="M155.205 865.052 Q151.594 865.052 149.765 868.617 Q147.959 872.158 147.959 879.288 Q147.959 886.394 149.765 889.959 Q151.594 893.501 155.205 893.501 Q158.839 893.501 160.644 889.959 Q162.473 886.394 162.473 879.288 Q162.473 872.158 160.644 868.617 Q158.839 865.052 155.205 865.052 M155.205 861.348 Q161.015 861.348 164.07 865.955 Q167.149 870.538 167.149 879.288 Q167.149 888.015 164.07 892.621 Q161.015 897.204 155.205 897.204 Q149.395 897.204 146.316 892.621 Q143.26 888.015 143.26 879.288 Q143.26 870.538 146.316 865.955 Q149.395 861.348 155.205 861.348 Z" fill="#000000" fill-rule="nonzero" fill-opacity="1" /><path clip-path="url(#clip900)" d="M167.149 855.449 L191.261 855.449 L191.261 858.647 L167.149 858.647 L167.149 855.449 Z" fill="#000000" fill-rule="nonzero" fill-opacity="1" /><path clip-path="url(#clip900)" d="M210.971 853.982 Q213.698 854.566 215.222 856.409 Q216.764 858.252 216.764 860.96 Q216.764 865.117 213.905 867.392 Q211.046 869.668 205.78 869.668 Q204.012 869.668 202.132 869.311 Q200.27 868.972 198.276 868.276 L198.276 864.609 Q199.856 865.53 201.737 866.001 Q203.617 866.471 205.667 866.471 Q209.241 866.471 211.103 865.06 Q212.984 863.65 212.984 860.96 Q212.984 858.478 211.234 857.086 Q209.504 855.675 206.401 855.675 L203.128 855.675 L203.128 852.553 L206.551 852.553 Q209.354 852.553 210.84 851.443 Q212.325 850.315 212.325 848.209 Q212.325 846.046 210.783 844.898 Q209.26 843.732 206.401 843.732 Q204.84 843.732 203.053 844.071 Q201.266 844.409 199.122 845.124 L199.122 841.739 Q201.285 841.137 203.166 840.836 Q205.066 840.535 206.739 840.535 Q211.065 840.535 213.585 842.51 Q216.106 844.466 216.106 847.814 Q216.106 850.146 214.77 851.763 Q213.435 853.362 210.971 853.982 Z" fill="#000000" fill-rule="nonzero" fill-opacity="1" /><path clip-path="url(#clip900)" d="M116.624 617.411 L124.263 617.411 L124.263 591.045 L115.953 592.712 L115.953 588.453 L124.217 586.786 L128.893 586.786 L128.893 617.411 L136.531 617.411 L136.531 621.346 L116.624 621.346 L116.624 617.411 Z" fill="#000000" fill-rule="nonzero" fill-opacity="1" /><path clip-path="url(#clip900)" d="M155.976 589.865 Q152.365 589.865 150.536 593.429 Q148.73 596.971 148.73 604.101 Q148.73 611.207 150.536 614.772 Q152.365 618.314 155.976 618.314 Q159.61 618.314 161.416 614.772 Q163.244 611.207 163.244 604.101 Q163.244 596.971 161.416 593.429 Q159.61 589.865 155.976 589.865 M155.976 586.161 Q161.786 586.161 164.841 590.767 Q167.92 595.351 167.92 604.101 Q167.92 612.828 164.841 617.434 Q161.786 622.017 155.976 622.017 Q150.166 622.017 147.087 617.434 Q144.031 612.828 144.031 604.101 Q144.031 595.351 147.087 590.767 Q150.166 586.161 155.976 586.161 Z" fill="#000000" fill-rule="nonzero" fill-opacity="1" /><path clip-path="url(#clip900)" d="M167.92 580.262 L192.032 580.262 L192.032 583.46 L167.92 583.46 L167.92 580.262 Z" fill="#000000" fill-rule="nonzero" fill-opacity="1" /><path clip-path="url(#clip900)" d="M203.504 590.738 L216.764 590.738 L216.764 593.936 L198.934 593.936 L198.934 590.738 Q201.097 588.5 204.821 584.739 Q208.564 580.958 209.523 579.867 Q211.347 577.817 212.062 576.407 Q212.796 574.977 212.796 573.604 Q212.796 571.366 211.216 569.956 Q209.655 568.545 207.134 568.545 Q205.348 568.545 203.354 569.166 Q201.379 569.786 199.122 571.047 L199.122 567.21 Q201.417 566.288 203.41 565.818 Q205.404 565.348 207.059 565.348 Q211.423 565.348 214.018 567.529 Q216.613 569.711 216.613 573.36 Q216.613 575.09 215.955 576.651 Q215.316 578.193 213.604 580.3 Q213.134 580.845 210.614 583.46 Q208.094 586.055 203.504 590.738 Z" fill="#000000" fill-rule="nonzero" fill-opacity="1" /><path clip-path="url(#clip900)" d="M116.323 342.224 L123.962 342.224 L123.962 315.858 L115.652 317.525 L115.652 313.266 L123.916 311.599 L128.592 311.599 L128.592 342.224 L136.231 342.224 L136.231 346.159 L116.323 346.159 L116.323 342.224 Z" fill="#000000" fill-rule="nonzero" fill-opacity="1" /><path clip-path="url(#clip900)" d="M155.675 314.678 Q152.064 314.678 150.235 318.242 Q148.43 321.784 148.43 328.914 Q148.43 336.02 150.235 339.585 Q152.064 343.126 155.675 343.126 Q159.309 343.126 161.115 339.585 Q162.943 336.02 162.943 328.914 Q162.943 321.784 161.115 318.242 Q159.309 314.678 155.675 314.678 M155.675 310.974 Q161.485 310.974 164.541 315.58 Q167.619 320.164 167.619 328.914 Q167.619 337.64 164.541 342.247 Q161.485 346.83 155.675 346.83 Q149.865 346.83 146.786 342.247 Q143.73 337.64 143.73 328.914 Q143.73 320.164 146.786 315.58 Q149.865 310.974 155.675 310.974 Z" fill="#000000" fill-rule="nonzero" fill-opacity="1" /><path clip-path="url(#clip900)" d="M167.619 305.075 L191.731 305.075 L191.731 308.273 L167.619 308.273 L167.619 305.075 Z" fill="#000000" fill-rule="nonzero" fill-opacity="1" /><path clip-path="url(#clip900)" d="M200.589 315.551 L206.796 315.551 L206.796 294.129 L200.044 295.483 L200.044 292.023 L206.758 290.668 L210.557 290.668 L210.557 315.551 L216.764 315.551 L216.764 318.748 L200.589 318.748 L200.589 315.551 Z" fill="#000000" fill-rule="nonzero" fill-opacity="1" /><path clip-path="url(#clip900)" d="M146.058 67.0365 L153.697 67.0365 L153.697 40.6709 L145.387 42.3376 L145.387 38.0784 L153.651 36.4117 L158.327 36.4117 L158.327 67.0365 L165.966 67.0365 L165.966 70.9717 L146.058 70.9717 L146.058 67.0365 Z" fill="#000000" fill-rule="nonzero" fill-opacity="1" /><path clip-path="url(#clip900)" d="M185.41 39.4904 Q181.799 39.4904 179.97 43.0552 Q178.165 46.5968 178.165 53.7264 Q178.165 60.8329 179.97 64.3977 Q181.799 67.9393 185.41 67.9393 Q189.044 67.9393 190.85 64.3977 Q192.678 60.8329 192.678 53.7264 Q192.678 46.5968 190.85 43.0552 Q189.044 39.4904 185.41 39.4904 M185.41 35.7867 Q191.22 35.7867 194.276 40.3932 Q197.354 44.9765 197.354 53.7264 Q197.354 62.4532 194.276 67.0597 Q191.22 71.643 185.41 71.643 Q179.6 71.643 176.521 67.0597 Q173.466 62.4532 173.466 53.7264 Q173.466 44.9765 176.521 40.3932 Q179.6 35.7867 185.41 35.7867 Z" fill="#000000" fill-rule="nonzero" fill-opacity="1" /><path clip-path="url(#clip900)" d="M207.059 17.9827 Q204.125 17.9827 202.639 20.8791 Q201.172 23.7567 201.172 29.5495 Q201.172 35.3235 202.639 38.2199 Q204.125 41.0975 207.059 41.0975 Q210.012 41.0975 211.479 38.2199 Q212.965 35.3235 212.965 29.5495 Q212.965 23.7567 211.479 20.8791 Q210.012 17.9827 207.059 17.9827 M207.059 14.9735 Q211.78 14.9735 214.263 18.7162 Q216.764 22.4402 216.764 29.5495 Q216.764 36.64 214.263 40.3828 Q211.78 44.1067 207.059 44.1067 Q202.338 44.1067 199.837 40.3828 Q197.354 36.64 197.354 29.5495 Q197.354 22.4402 199.837 18.7162 Q202.338 14.9735 207.059 14.9735 Z" fill="#000000" fill-rule="nonzero" fill-opacity="1" /><path clip-path="url(#clip900)" d="M16.4842 738.427 L16.4842 731.997 L64.0042 731.997 L64.0042 738.427 L16.4842 738.427 Z" fill="#000000" fill-rule="nonzero" fill-opacity="1" /><polyline clip-path="url(#clip902)" style="stroke:#009af9; stroke-linecap:round; stroke-linejoin:round; stroke-width:4; stroke-opacity:1; fill:none" points="312.198,47.2441 314.181,47.2524 316.164,47.2773 318.147,47.3188 320.13,47.3769 322.113,47.4516 324.096,47.5429 326.079,47.6508 328.063,47.7753 330.046,47.9164 332.029,48.0741 334.012,48.2485 335.995,48.4394 337.978,48.6469 339.961,48.871 341.944,49.1117 343.927,49.369 345.911,49.643 347.894,49.9335 349.877,50.2406 351.86,50.5643 353.843,50.9046 355.826,51.2616 357.809,51.6351 359.792,52.0252 361.775,52.4319 363.758,52.8553 365.742,53.2952 367.725,53.7517 369.708,54.2249 371.691,54.7146 373.674,55.2209 375.657,55.7439 377.64,56.2834 379.623,56.8395 381.606,57.4123 383.59,58.0016 385.573,58.6075 387.556,59.2301 389.539,59.8692 391.522,60.525 393.505,61.1973 395.488,61.8863 397.471,62.5918 399.454,63.314 401.438,64.0527 403.421,64.8081 405.404,65.58 407.387,66.3686 409.37,67.1737 411.353,67.9955 413.336,68.8338 415.319,69.6888 417.302,70.5603 419.285,71.4485 421.269,72.3533 423.252,73.2746 425.235,74.2126 427.218,75.1671 429.201,76.1383 431.184,77.1261 433.167,78.1304 435.15,79.1514 437.133,80.189 439.117,81.2432 441.1,82.3139 443.083,83.4013 445.066,84.5053 447.049,85.6258 449.032,86.763 451.015,87.9168 452.998,89.0872 454.981,90.2742 456.965,91.4777 458.948,92.6979 460.931,93.9347 462.914,95.1881 464.897,96.4581 466.88,97.7446 468.863,99.0478 470.846,100.368 472.829,101.704 474.813,103.057 476.796,104.427 478.779,105.813 480.762,107.216 482.745,108.635 484.728,110.071 486.711,111.524 488.694,112.993 490.677,114.479 492.66,115.981 494.644,117.5 496.627,119.036 498.61,120.588 500.593,122.157 502.576,123.742 504.559,125.344 506.542,126.963 508.525,128.598 510.508,130.25 512.492,131.918 514.475,133.603 516.458,135.305 518.441,137.023 520.424,138.758 522.407,140.509 524.39,142.277 526.373,144.062 528.356,145.863 530.34,147.681 532.323,149.515 534.306,151.366 536.289,153.234 538.272,155.118 540.255,157.019 542.238,158.936 544.221,160.87 546.204,162.821 548.187,164.788 550.171,166.772 552.154,168.772 554.137,170.79 556.12,172.823 558.103,174.873 560.086,176.94 562.069,179.024 564.052,181.124 566.035,183.24 568.019,185.374 570.002,187.523 571.985,189.69 573.968,191.873 575.951,194.073 577.934,196.289 579.917,198.522 581.9,200.771 583.883,203.037 585.867,205.32 587.85,207.619 589.833,209.935 591.816,212.267 593.799,214.616 595.782,216.982 597.765,219.364 599.748,221.763 601.731,224.179 603.714,226.611 605.698,229.059 607.681,231.525 609.664,234.007 611.647,236.505 613.63,239.02 615.613,241.552 617.596,244.1 619.579,246.665 621.562,249.246 623.546,251.844 625.529,254.459 627.512,257.09 629.495,259.738 631.478,262.403 633.461,265.084 635.444,267.781 637.427,270.496 639.41,273.227 641.394,275.974 643.377,278.738 645.36,281.519 647.343,284.316 649.326,287.13 651.309,289.961 653.292,292.808 655.275,295.671 657.258,298.552 659.242,301.448 661.225,304.362 663.208,307.292 665.191,310.239 667.174,313.202 669.157,316.182 671.14,319.178 673.123,322.192 675.106,325.221 677.089,328.268 679.073,331.33 681.056,334.41 683.039,337.506 685.022,340.619 687.005,343.748 688.988,346.894 690.971,350.057 692.954,353.236 694.937,356.431 696.921,359.644 698.904,362.873 700.887,366.118 702.87,369.38 704.853,372.659 706.836,375.954 708.819,379.266 710.802,382.595 712.785,385.94 714.769,389.302 716.752,392.68 718.735,396.075 720.718,399.486 722.701,402.914 724.684,406.359 726.667,409.82 728.65,413.298 730.633,416.793 732.616,420.304 734.6,423.832 736.583,427.376 738.566,430.937 740.549,434.515 742.532,438.109 744.515,441.72 746.498,445.347 748.481,448.991 750.464,452.651 752.448,456.328 754.431,460.022 756.414,463.733 758.397,467.46 760.38,471.203 762.363,474.963 764.346,478.74 766.329,482.533 768.312,486.343 770.296,490.17 772.279,494.013 774.262,497.873 776.245,501.749 778.228,505.642 780.211,509.552 782.194,513.478 784.177,517.421 786.16,521.38 788.144,525.356 790.127,529.348 792.11,533.358 794.093,537.383 796.076,541.426 798.059,545.485 800.042,549.56 802.025,553.652 804.008,557.761 805.991,561.887 807.975,566.029 809.958,570.187 811.941,574.362 813.924,578.554 815.907,582.762 817.89,586.987 819.873,591.229 821.856,595.487 823.839,599.762 825.823,604.053 827.806,608.361 829.789,612.686 831.772,617.027 833.755,621.385 835.738,625.759 837.721,630.15 839.704,634.558 841.687,638.982 843.671,643.423 845.654,647.88 847.637,652.354 849.62,656.845 851.603,661.352 853.586,665.876 855.569,670.416 857.552,674.973 859.535,679.547 861.518,684.137 863.502,688.744 865.485,693.367 867.468,698.007 869.451,702.664 871.434,707.337 873.417,712.027 875.4,716.733 877.383,721.456 879.366,726.196 881.35,730.952 883.333,735.725 885.316,740.514 887.299,745.32 889.282,750.143 891.265,754.982 893.248,759.838 895.231,764.711 897.214,769.6 899.198,774.505 901.181,779.427 903.164,784.366 905.147,789.322 907.13,794.294 909.113,799.282 911.096,804.288 913.079,809.309 915.062,814.348 917.045,819.403 919.029,824.475 921.012,829.563 922.995,834.668 924.978,839.789 926.961,844.927 928.944,850.082 930.927,855.253 932.91,860.441 934.893,865.645 936.877,870.866 938.86,876.104 940.843,881.358 942.826,886.629 944.809,891.917 946.792,897.221 948.775,902.541 950.758,907.878 952.741,913.232 954.725,918.603 956.708,923.99 958.691,929.394 960.674,934.814 962.657,940.251 964.64,945.704 966.623,951.174 968.606,956.661 970.589,962.164 972.573,967.684 974.556,973.22 976.539,978.773 978.522,984.343 980.505,989.929 982.488,995.532 984.471,1001.15 986.454,1006.79 988.437,1012.44 990.42,1018.11 992.404,1023.8 994.387,1029.5 996.37,1035.22 998.353,1040.95 1000.34,1046.71 1002.32,1052.47 1004.3,1058.26 1006.29,1064.06 1008.27,1069.88 1010.25,1075.72 1012.23,1081.57 1014.22,1087.44 1016.2,1093.32 1018.18,1099.22 1020.17,1105.14 1022.15,1111.08 1024.13,1117.03 1026.12,1123 1028.1,1128.98 1030.08,1134.98 1032.07,1141 1034.05,1147.03 1036.03,1153.09 1038.02,1159.15 1040,1165.24 1041.98,1171.34 1043.96,1177.46 1045.95,1183.59 1047.93,1189.74 1049.91,1195.91 1051.9,1202.09 1053.88,1208.29 1055.86,1214.51 1057.85,1220.74 1059.83,1226.99 1061.81,1233.26 1063.8,1239.54 1065.78,1245.84 1067.76,1252.16 1069.74,1258.49 1071.73,1264.84 1073.71,1271.21 1075.69,1277.59 1077.68,1283.99 1079.66,1290.41 1081.64,1296.84 1083.63,1303.29 1085.61,1309.76 1087.59,1316.24 1089.58,1322.74 1091.56,1329.26 1093.54,1335.79 1095.53,1342.34 1097.51,1348.9 1099.49,1355.49 1101.47,1362.08 1103.46,1368.7 1105.44,1375.33 1107.42,1381.98 1109.41,1388.65 1111.39,1395.33 1113.37,1402.03 1115.36,1408.74 1117.34,1415.47 1119.32,1422.22 1121.31,1428.99 1123.29,1435.77 1125.27,1442.57 1127.25,1449.38 1129.24,1456.21 1131.22,1463.06 1133.2,1469.93 1135.19,1476.81 1137.17,1483.7 1139.15,1490.62 1141.14,1497.55 1143.12,1504.5 1145.1,1511.46 1147.09,1518.44 1149.07,1525.44 1151.05,1532.45 1153.04,1539.48 1155.02,1546.53 1157,1553.59 1158.98,1560.68 1160.97,1567.77 1162.95,1574.89 1164.93,1582.02 1166.92,1589.16 1168.9,1596.33 1170.88,1603.51 1172.87,1610.7 1174.85,1617.92 1176.83,1625.15 1178.82,1632.39 1180.8,1639.66 1182.78,1646.93 1184.77,1654.23 1186.75,1661.54 1188.73,1668.87 1190.71,1676.22 1192.7,1683.58 1194.68,1690.96 1196.66,1698.36 1198.65,1705.77 1200.63,1713.2 1202.61,1720.64 1204.6,1728.11 1206.58,1735.58 1208.56,1743.08 1210.55,1750.59 1212.53,1758.12 1214.51,1765.67 1216.49,1773.23 1218.48,1780.81 1220.46,1788.4 1222.44,1796.01 1224.43,1803.64 1226.41,1811.29 1228.39,1818.95 1230.38,1826.63 1232.36,1834.32 1234.34,1842.03 1236.33,1849.76 1238.31,1857.5 1240.29,1865.26 1242.28,1873.04 1244.26,1880.84 1246.24,1888.65 1248.22,1896.47 1250.21,1904.32 1252.19,1912.18 1254.17,1920.06 1256.16,1927.95 1258.14,1935.86 1260.12,1943.79 1262.11,1951.73 1264.09,1959.69 1266.07,1967.67 1268.06,1975.66 1270.04,1983.67 1272.02,1991.7 1274,1999.74 1275.99,2007.8 1277.97,2015.88 1279.95,2023.97 1281.94,2032.08 1283.92,2040.21 1285.9,2048.35 1287.89,2056.51 1289.87,2064.68 1291.85,2072.88 1293.84,2081.09 1295.82,2089.31 1297.8,2097.56 1299.79,2105.81 1301.77,2114.09 1303.75,2122.38 1305.73,2130.69 1307.72,2139.02 1309.7,2147.36 1311.68,2155.72 1313.67,2164.09 1315.65,2172.48 1317.63,2180.89 1319.62,2189.32 1321.6,2197.76 1323.58,2206.22 1325.57,2214.69 1327.55,2223.18 1329.53,2231.69 1331.51,2240.22 1333.5,2248.76 1335.48,2257.32 1337.46,2265.89 1339.45,2274.48 1341.43,2283.09 1343.41,2291.71 1345.4,2300.35 1347.38,2309.01 1349.36,2317.69 1351.35,2326.38 1353.33,2335.08 1355.31,2343.81 1357.3,2352.55 1359.28,2361.31 1361.26,2370.08 1363.24,2378.87 1365.23,2387.68 1367.21,2396.5 1369.19,2405.34 1371.18,2414.2 1373.16,2423.07 1375.14,2431.96 1377.13,2440.87 1379.11,2449.79 1381.09,2458.73 1383.08,2467.68 1385.06,2476.66 1387.04,2485.65 1389.03,2494.65 1391.01,2503.68 1392.99,2512.72 1394.97,2521.77 1396.96,2530.84 1398.94,2539.93 1400.92,2549.04 1402.91,2558.16 1404.89,2567.3 1406.87,2576.46 1408.86,2585.63 1410.84,2594.82 1412.82,2604.02 1414.81,2613.24 1416.79,2622.48 1418.77,2631.74 1420.75,2641.01 1422.74,2650.3 1424.72,2659.6 1426.7,2668.92 1428.69,2678.26 1430.67,2687.62 1432.65,2696.99 1434.64,2706.38 1436.62,2715.78 1438.6,2725.2 1440.59,2734.64 1442.57,2744.09 1444.55,2753.56 1446.54,2763.05 1448.52,2772.56 1450.5,2782.08 1452.48,2791.61 1454.47,2801.17 1456.45,2810.74 1458.43,2820.33 1460.42,2829.93 1462.4,2839.55 1464.38,2849.19 1466.37,2858.84 1468.35,2868.51 1470.33,2878.2 1472.32,2887.9 1474.3,2897.62 1476.28,2907.36 1478.26,2917.11 1480.25,2926.88 1482.23,2936.67 1484.21,2946.47 1486.2,2956.29 1488.18,2966.12 1490.16,2975.98 1492.15,2985.85 1494.13,2995.73 1496.11,3005.64 1498.1,3015.55 1500.08,3025.49 1502.06,3035.44 1504.05,3045.41 1506.03,3055.4 1508.01,3065.4 1509.99,3075.42 1511.98,3085.45 1513.96,3095.51 1515.94,3105.57 1517.93,3115.66 1519.91,3125.76 1521.89,3135.88 1523.88,3146.01 1525.86,3156.17 1527.84,3166.33 1529.83,3176.52 1531.81,3186.72 1533.79,3196.94 1535.78,3207.17 1537.76,3217.42 1539.74,3227.69 1541.72,3237.98 1543.71,3248.28 1545.69,3258.59 1547.67,3268.93 1549.66,3279.28 1551.64,3289.65 1553.62,3300.03 1555.61,3310.43 1557.59,3320.85 1559.57,3331.28 1561.56,3341.73 1563.54,3352.2 1565.52,3362.68 1567.5,3373.18 1569.49,3383.7 1571.47,3394.23 1573.45,3404.78 1575.44,3415.35 1577.42,3425.93 1579.4,3436.53 1581.39,3447.15 1583.37,3457.78 1585.35,3468.43 1587.34,3479.1 1589.32,3489.78 1591.3,3500.48 1593.29,3511.2 1595.27,3521.93 1597.25,3532.68 1599.23,3543.44 1601.22,3554.23 1603.2,3565.03 1605.18,3575.84 1607.17,3586.67 1609.15,3597.52 1611.13,3608.39 1613.12,3619.27 1615.1,3630.17 1617.08,3641.08 1619.07,3652.02 1621.05,3662.96 1623.03,3673.93 1625.01,3684.91 1627,3695.91 1628.98,3706.92 1630.96,3717.96 1632.95,3729 1634.93,3740.07 1636.91,3751.15 1638.9,3762.25 1640.88,3773.36 1642.86,3784.49 1644.85,3795.64 1646.83,3806.8 1648.81,3817.99 1650.8,3829.18 1652.78,3840.4 1654.76,3851.63 1656.74,3862.87 1658.73,3874.14 1660.71,3885.42 1662.69,3896.72 1664.68,3908.03 1666.66,3919.36 1668.64,3930.71 1670.63,3942.07 1672.61,3953.45 1674.59,3964.85 1676.58,3976.26 1678.56,3987.69 1680.54,3999.14 1682.53,4010.6 1684.51,4022.08 1686.49,4033.58 1688.47,4045.09 1690.46,4056.62 1692.44,4068.16 1694.42,4079.73 1696.41,4091.31 1698.39,4102.9 1700.37,4114.51 1702.36,4126.14 1704.34,4137.79 1706.32,4149.45 1708.31,4161.13 1710.29,4172.83 1712.27,4184.54 1714.25,4196.27 1716.24,4208.01 1718.22,4219.77 1720.2,4231.55 1722.19,4243.35 1724.17,4255.16 1726.15,4266.99 1728.14,4278.83 1730.12,4290.69 1732.1,4302.57 1734.09,4314.47 1736.07,4326.38 1738.05,4338.31 1740.04,4350.25 1742.02,4362.21 1744,4374.19 1745.98,4386.18 1747.97,4398.19 1749.95,4410.22 1751.93,4422.27 1753.92,4434.33 1755.9,4446.4 1757.88,4458.5 1759.87,4470.61 1761.85,4482.74 1763.83,4494.88 1765.82,4507.04 1767.8,4519.22 1769.78,4531.41 1771.76,4543.62 1773.75,4555.85 1775.73,4568.09 1777.71,4580.35 1779.7,4592.63 1781.68,4604.92 1783.66,4617.23 1785.65,4629.56 1787.63,4641.9 1789.61,4654.26 1791.6,4666.63 1793.58,4679.03 1795.56,4691.44 1797.55,4703.86 1799.53,4716.3 1801.51,4728.76 1803.49,4741.24 1805.48,4753.73 1807.46,4766.24 1809.44,4778.77 1811.43,4791.31 1813.41,4803.87 1815.39,4816.44 1817.38,4829.03 1819.36,4841.64 1821.34,4854.27 1823.33,4866.91 1825.31,4879.57 1827.29,4892.24 1829.27,4904.93 1831.26,4917.64 1833.24,4930.37 1835.22,4943.11 1837.21,4955.87 1839.19,4968.64 1841.17,4981.43 1843.16,4994.24 1845.14,5007.06 1847.12,5019.91 1849.11,5032.76 1851.09,5045.64 1853.07,5058.53 1855.06,5071.44 1857.04,5084.36 1859.02,5097.3 1861,5110.26 1862.99,5123.23 1864.97,5136.22 1866.95,5149.23 1868.94,5162.25 1870.92,5175.29 1872.9,5188.35 1874.89,5201.42 1876.87,5214.51 1878.85,5227.62 1880.84,5240.74 1882.82,5253.88 1884.8,5267.04 1886.79,5280.21 1888.77,5293.4 1890.75,5306.61 1892.73,5319.83 1894.72,5333.07 1896.7,5346.32 1898.68,5359.6 1900.67,5372.89 1902.65,5386.19 1904.63,5399.51 1906.62,5412.85 1908.6,5426.21 1910.58,5439.58 1912.57,5452.97 1914.55,5466.38 1916.53,5479.8 1918.51,5493.24 1920.5,5506.69 1922.48,5520.16 1924.46,5533.65 1926.45,5547.16 1928.43,5560.68 1930.41,5574.22 1932.4,5587.77 1934.38,5601.34 1936.36,5614.93 1938.35,5628.53 1940.33,5642.16 1942.31,5655.79 1944.3,5669.45 1946.28,5683.12 1948.26,5696.81 1950.24,5710.51 1952.23,5724.23 1954.21,5737.97 1956.19,5751.72 1958.18,5765.49 1960.16,5779.28 1962.14,5793.09 1964.13,5806.91 1966.11,5820.74 1968.09,5834.6 1970.08,5848.47 1972.06,5862.35 1974.04,5876.26 1976.02,5890.18 1978.01,5904.11 1979.99,5918.07 1981.97,5932.04 1983.96,5946.02 1985.94,5960.03 1987.92,5974.05 1989.91,5988.08 1991.89,6002.13 1993.87,6016.2 1995.86,6030.29 1997.84,6044.39 1999.82,6058.51 2001.81,6072.65 2003.79,6086.8 2005.77,6100.97 2007.75,6115.15 2009.74,6129.36 2011.72,6143.58 2013.7,6157.81 2015.69,6172.06 2017.67,6186.33 2019.65,6200.62 2021.64,6214.92 2023.62,6229.24 2025.6,6243.57 2027.59,6257.92 2029.57,6272.29 2031.55,6286.68 2033.54,6301.08 2035.52,6315.5 2037.5,6329.93 2039.48,6344.38 2041.47,6358.85 2043.45,6373.34 2045.43,6387.84 2047.42,6402.35 2049.4,6416.89 2051.38,6431.44 2053.37,6446.01 2055.35,6460.59 2057.33,6475.19 2059.32,6489.81 2061.3,6504.44 2063.28,6519.09 2065.26,6533.76 2067.25,6548.44 2069.23,6563.14 2071.21,6577.86 2073.2,6592.59 2075.18,6607.34 2077.16,6622.11 2079.15,6636.89 2081.13,6651.69 2083.11,6666.51 2085.1,6681.34 2087.08,6696.19 2089.06,6711.06 2091.05,6725.94 2093.03,6740.84 2095.01,6755.76 2096.99,6770.69 2098.98,6785.64 2100.96,6800.61 2102.94,6815.59 2104.93,6830.59 2106.91,6845.6 2108.89,6860.64 2110.88,6875.68 2112.86,6890.75 2114.84,6905.83 2116.83,6920.93 2118.81,6936.05 2120.79,6951.18 2122.77,6966.33 2124.76,6981.49 2126.74,6996.67 2128.72,7011.87 2130.71,7027.09 2132.69,7042.32 2134.67,7057.57 2136.66,7072.83 2138.64,7088.11 2140.62,7103.41 2142.61,7118.72 2144.59,7134.06 2146.57,7149.4 2148.56,7164.77 2150.54,7180.15 2152.52,7195.55 2154.5,7210.96 2156.49,7226.39 2158.47,7241.84 2160.45,7257.3 2162.44,7272.78 2164.42,7288.28 2166.4,7303.79 2168.39,7319.32 2170.37,7334.87 2172.35,7350.43 2174.34,7366.01 2176.32,7381.61 2178.3,7397.22 2180.29,7412.85 2182.27,7428.5 2184.25,7444.16 2186.23,7459.84 2188.22,7475.54 2190.2,7491.25 2192.18,7506.98 2194.17,7522.73 2196.15,7538.49 2198.13,7554.27 2200.12,7570.07 2202.1,7585.88 2204.08,7601.71 2206.07,7617.55 2208.05,7633.42 2210.03,7649.3 2212.01,7665.19 2214,7681.1 2215.98,7697.03 2217.96,7712.98 2219.95,7728.94 2221.93,7744.92 2223.91,7760.91 2225.9,7776.93 2227.88,7792.95 2229.86,7809 2231.85,7825.06 2233.83,7841.14 2235.81,7857.23 2237.8,7873.34 2239.78,7889.47 2241.76,7905.62 2243.74,7921.78 2245.73,7937.96 2247.71,7954.15 2249.69,7970.36 2251.68,7986.59 2253.66,8002.83 2255.64,8019.09 2257.63,8035.37 2259.61,8051.67 2261.59,8067.98 2263.58,8084.3 2265.56,8100.65 2267.54,8117.01 2269.52,8133.38 2271.51,8149.78 2273.49,8166.19 2275.47,8182.61 2277.46,8199.06 2279.44,8215.52 2281.42,8231.99 2283.41,8248.49 2285.39,8265 2287.37,8281.52 2289.36,8298.07 2291.34,8314.63 2293.32,8331.2 "/>
<polyline clip-path="url(#clip902)" style="stroke:#e26f46; stroke-linecap:round; stroke-linejoin:round; stroke-width:4; stroke-opacity:1; fill:none" points="312.198,47.2441 314.181,47.2519 316.164,47.2753 318.147,47.3143 320.13,47.3689 322.113,47.4392 324.096,47.525 326.079,47.6265 328.063,47.7436 330.046,47.8764 332.029,48.0248 334.012,48.1888 335.995,48.3685 337.978,48.5639 339.961,48.775 341.944,49.0018 343.927,49.2443 345.911,49.5026 347.894,49.7766 349.877,50.0664 351.86,50.3719 353.843,50.6933 355.826,51.0305 357.809,51.3836 359.792,51.7525 361.775,52.1374 363.758,52.5381 365.742,52.9549 367.725,53.3876 369.708,53.8363 371.691,54.3011 373.674,54.7819 375.657,55.2789 377.64,55.792 379.623,56.3213 381.606,56.8668 383.59,57.4285 385.573,58.0065 387.556,58.6009 389.539,59.2116 391.522,59.8388 393.505,60.4823 395.488,61.1424 397.471,61.8191 399.454,62.5123 401.438,63.2222 403.421,63.9488 405.404,64.6922 407.387,65.4523 409.37,66.2293 411.353,67.0232 413.336,67.8341 415.319,68.662 417.302,69.507 419.285,70.3691 421.269,71.2485 423.252,72.1452 425.235,73.0592 427.218,73.9906 429.201,74.9395 431.184,75.906 433.167,76.8901 435.15,77.8919 437.133,78.9115 439.117,79.949 441.1,81.0044 443.083,82.0779 445.066,83.1695 447.049,84.2793 449.032,85.4073 451.015,86.5538 452.998,87.7187 454.981,88.9023 456.965,90.1045 458.948,91.3254 460.931,92.5653 462.914,93.8241 464.897,95.102 466.88,96.3991 468.863,97.7155 470.846,99.0513 472.829,100.407 474.813,101.782 476.796,103.176 478.779,104.591 480.762,106.026 482.745,107.481 484.728,108.956 486.711,110.451 488.694,111.968 490.677,113.505 492.66,115.062 494.644,116.641 496.627,118.241 498.61,119.862 500.593,121.505 502.576,123.169 504.559,124.856 506.542,126.564 508.525,128.294 510.508,130.047 512.492,131.822 514.475,133.62 516.458,135.44 518.441,137.284 520.424,139.152 522.407,141.042 524.39,142.957 526.373,144.895 528.356,146.858 530.34,148.844 532.323,150.856 534.306,152.892 536.289,154.954 538.272,157.041 540.255,159.153 542.238,161.291 544.221,163.456 546.204,165.647 548.187,167.864 550.171,170.109 552.154,172.381 554.137,174.68 556.12,177.008 558.103,179.363 560.086,181.748 562.069,184.161 564.052,186.603 566.035,189.075 568.019,191.577 570.002,194.11 571.985,196.673 573.968,199.268 575.951,201.894 577.934,204.552 579.917,207.242 581.9,209.966 583.883,212.723 585.867,215.513 587.85,218.338 589.833,221.198 591.816,224.094 593.799,227.025 595.782,229.993 597.765,232.998 599.748,236.041 601.731,239.121 603.714,242.241 605.698,245.401 607.681,248.6 609.664,251.841 611.647,255.123 613.63,258.448 615.613,261.816 617.596,265.228 619.579,268.685 621.562,272.188 623.546,275.737 625.529,279.334 627.512,282.979 629.495,286.674 631.478,290.419 633.461,294.216 635.444,298.066 637.427,301.97 639.41,305.929 641.394,309.945 643.377,314.018 645.36,318.15 647.343,322.343 649.326,326.598 651.309,330.917 653.292,335.301 655.275,339.751 657.258,344.271 659.242,348.862 661.225,353.525 663.208,358.263 665.191,363.077 667.174,367.971 669.157,372.947 671.14,378.007 673.123,383.153 675.106,388.389 677.089,393.718 679.073,399.142 681.056,404.665 683.039,410.291 685.022,416.023 687.005,421.866 688.988,427.822 690.971,433.898 692.954,440.097 694.937,446.425 696.921,452.886 698.904,459.488 700.887,466.236 702.87,473.137 704.853,480.198 706.836,487.426 708.819,494.83 710.802,502.42 712.785,510.204 714.769,518.194 716.752,526.402 718.735,534.838 720.718,543.519 722.701,552.458 724.684,561.673 726.667,571.182 728.65,581.005 730.633,591.166 732.616,601.689 734.6,612.604 736.583,623.942 738.566,635.741 740.549,648.04 742.532,660.889 744.515,674.342 746.498,688.463 748.481,703.326 750.464,719.019 752.448,735.647 754.431,753.337 756.414,772.242 758.397,792.556 760.38,814.517 762.363,838.434 764.346,864.715 766.329,893.906 768.312,926.771 770.296,964.424 772.279,1008.58 774.262,1062.08 776.245,1130.18 778.228,1224.36 780.211,1379.35 782.194,1932.58 784.177,1435.37 786.16,1256.83 788.144,1156.84 790.127,1087.36 792.11,1034.25 794.093,991.354 796.076,955.468 798.059,924.685 800.042,897.788 802.025,873.948 804.008,852.579 805.991,833.248 807.975,815.629 809.958,799.466 811.941,784.561 813.924,770.75 815.907,757.903 817.89,745.909 819.873,734.679 821.856,724.134 823.839,714.209 825.823,704.848 827.806,696.001 829.789,687.625 831.772,679.685 833.755,672.146 835.738,664.979 837.721,658.159 839.704,651.662 841.687,645.468 843.671,639.557 845.654,633.913 847.637,628.52 849.62,623.365 851.603,618.434 853.586,613.716 855.569,609.201 857.552,604.878 859.535,600.738 861.518,596.774 863.502,592.977 865.485,589.34 867.468,585.857 869.451,582.522 871.434,579.328 873.417,576.272 875.4,573.346 877.383,570.548 879.366,567.872 881.35,565.314 883.333,562.872 885.316,560.54 887.299,558.316 889.282,556.197 891.265,554.18 893.248,552.261 895.231,550.439 897.214,548.71 899.198,547.072 901.181,545.524 903.164,544.063 905.147,542.687 907.13,541.395 909.113,540.183 911.096,539.052 913.079,537.999 915.062,537.023 917.045,536.122 919.029,535.295 921.012,534.541 922.995,533.858 924.978,533.246 926.961,532.703 928.944,532.229 930.927,531.823 932.91,531.482 934.893,531.208 936.877,530.999 938.86,530.854 940.843,530.772 942.826,530.753 944.809,530.797 946.792,530.902 948.775,531.069 950.758,531.296 952.741,531.584 954.725,531.931 956.708,532.339 958.691,532.805 960.674,533.33 962.657,533.914 964.64,534.556 966.623,535.256 968.606,536.015 970.589,536.831 972.573,537.705 974.556,538.637 976.539,539.626 978.522,540.673 980.505,541.778 982.488,542.94 984.471,544.16 986.454,545.438 988.437,546.774 990.42,548.169 992.404,549.621 994.387,551.133 996.37,552.703 998.353,554.333 1000.34,556.022 1002.32,557.771 1004.3,559.58 1006.29,561.45 1008.27,563.381 1010.25,565.375 1012.23,567.43 1014.22,569.548 1016.2,571.73 1018.18,573.976 1020.17,576.287 1022.15,578.664 1024.13,581.107 1026.12,583.618 1028.1,586.197 1030.08,588.845 1032.07,591.564 1034.05,594.354 1036.03,597.216 1038.02,600.152 1040,603.164 1041.98,606.251 1043.96,609.417 1045.95,612.662 1047.93,615.988 1049.91,619.396 1051.9,622.889 1053.88,626.468 1055.86,630.135 1057.85,633.893 1059.83,637.744 1061.81,641.689 1063.8,645.732 1065.78,649.875 1067.76,654.121 1069.74,658.473 1071.73,662.933 1073.71,667.507 1075.69,672.196 1077.68,677.005 1079.66,681.938 1081.64,686.998 1083.63,692.192 1085.61,697.524 1087.59,702.998 1089.58,708.621 1091.56,714.399 1093.54,720.338 1095.53,726.445 1097.51,732.728 1099.49,739.196 1101.47,745.856 1103.46,752.72 1105.44,759.796 1107.42,767.097 1109.41,774.636 1111.39,782.425 1113.37,790.481 1115.36,798.819 1117.34,807.457 1119.32,816.418 1121.31,825.722 1123.29,835.395 1125.27,845.466 1127.25,855.967 1129.24,866.934 1131.22,878.408 1133.2,890.437 1135.19,903.075 1137.17,916.385 1139.15,930.443 1141.14,945.335 1143.12,961.165 1145.1,978.061 1147.09,996.174 1149.07,1015.7 1151.05,1036.87 1153.04,1059.99 1155.02,1085.48 1157,1113.86 1158.98,1145.91 1160.97,1182.71 1162.95,1225.98 1164.93,1278.52 1166.92,1345.5 1168.9,1438.18 1170.88,1590.24 1172.87,2103.67 1174.85,1655.67 1176.83,1473.23 1178.82,1371.59 1180.8,1300.97 1182.78,1246.9 1184.77,1203.17 1186.75,1166.49 1188.73,1134.96 1190.71,1107.35 1192.7,1082.81 1194.68,1060.75 1196.66,1040.75 1198.65,1022.47 1200.63,1005.66 1202.61,990.107 1204.6,975.661 1206.58,962.186 1208.56,949.572 1210.55,937.726 1212.53,926.572 1214.51,916.044 1216.49,906.084 1218.48,896.644 1220.46,887.681 1222.44,879.158 1224.43,871.041 1226.41,863.3 1228.39,855.911 1230.38,848.85 1232.36,842.095 1234.34,835.629 1236.33,829.433 1238.31,823.493 1240.29,817.794 1242.28,812.324 1244.26,807.071 1246.24,802.024 1248.22,797.173 1250.21,792.51 1252.19,788.026 1254.17,783.713 1256.16,779.564 1258.14,775.572 1260.12,771.732 1262.11,768.037 1264.09,764.482 1266.07,761.062 1268.06,757.773 1270.04,754.609 1272.02,751.568 1274,748.645 1275.99,745.836 1277.97,743.138 1279.95,740.549 1281.94,738.064 1283.92,735.681 1285.9,733.398 1287.89,731.212 1289.87,729.121 1291.85,727.121 1293.84,725.212 1295.82,723.392 1297.8,721.658 1299.79,720.008 1301.77,718.441 1303.75,716.956 1305.73,715.55 1307.72,714.223 1309.7,712.973 1311.68,711.799 1313.67,710.699 1315.65,709.673 1317.63,708.719 1319.62,707.837 1321.6,707.025 1323.58,706.283 1325.57,705.609 1327.55,705.003 1329.53,704.464 1331.51,703.992 1333.5,703.586 1335.48,703.244 1337.46,702.968 1339.45,702.755 1341.43,702.606 1343.41,702.52 1345.4,702.497 1347.38,702.536 1349.36,702.638 1351.35,702.801 1353.33,703.025 1355.31,703.311 1357.3,703.658 1359.28,704.066 1361.26,704.534 1363.24,705.063 1365.23,705.653 1367.21,706.303 1369.19,707.014 1371.18,707.785 1373.16,708.617 1375.14,709.509 1377.13,710.463 1379.11,711.477 1381.09,712.553 1383.08,713.69 1385.06,714.888 1387.04,716.149 1389.03,717.471 1391.01,718.857 1392.99,720.305 1394.97,721.817 1396.96,723.392 1398.94,725.033 1400.92,726.738 1402.91,728.508 1404.89,730.345 1406.87,732.249 1408.86,734.22 1410.84,736.26 1412.82,738.369 1414.81,740.548 1416.79,742.798 1418.77,745.119 1420.75,747.514 1422.74,749.983 1424.72,752.528 1426.7,755.149 1428.69,757.847 1430.67,760.625 1432.65,763.484 1434.64,766.424 1436.62,769.449 1438.6,772.559 1440.59,775.756 1442.57,779.043 1444.55,782.421 1446.54,785.893 1448.52,789.46 1450.5,793.126 1452.48,796.892 1454.47,800.762 1456.45,804.738 1458.43,808.824 1460.42,813.023 1462.4,817.337 1464.38,821.772 1466.37,826.33 1468.35,831.016 1470.33,835.835 1472.32,840.79 1474.3,845.889 1476.28,851.135 1478.26,856.535 1480.25,862.094 1482.23,867.821 1484.21,873.722 1486.2,879.806 1488.18,886.08 1490.16,892.554 1492.15,899.239 1494.13,906.145 1496.11,913.284 1498.1,920.67 1500.08,928.317 1502.06,936.241 1504.05,944.459 1506.03,952.992 1508.01,961.86 1509.99,971.088 1511.98,980.703 1513.96,990.735 1515.94,1001.22 1517.93,1012.19 1519.91,1023.71 1521.89,1035.8 1523.88,1048.55 1525.86,1062.01 1527.84,1076.27 1529.83,1091.42 1531.81,1107.58 1533.79,1124.9 1535.78,1143.54 1537.76,1163.72 1539.74,1185.73 1541.72,1209.91 1543.71,1236.75 1545.69,1266.91 1547.67,1301.32 1549.66,1341.4 1551.64,1389.39 1553.62,1449.26 1555.61,1528.96 1557.59,1648.72 1559.57,1898.05 1561.56,1942.74 1563.54,1665.1 1565.52,1540.6 1567.5,1459.53 1569.49,1399.4 1571.47,1351.65 1573.45,1312.1 1575.44,1278.37 1577.42,1249.01 1579.4,1223.03 1581.39,1199.77 1583.37,1178.72 1585.35,1159.52 1587.34,1141.88 1589.32,1125.59 1591.3,1110.47 1593.29,1096.37 1595.27,1083.17 1597.25,1070.78 1599.23,1059.12 1601.22,1048.1 1603.2,1037.68 1605.18,1027.8 1607.17,1018.41 1609.15,1009.48 1611.13,1000.97 1613.12,992.848 1615.1,985.089 1617.08,977.669 1619.07,970.564 1621.05,963.756 1623.03,957.227 1625.01,950.961 1627,944.942 1628.98,939.158 1630.96,933.597 1632.95,928.248 1634.93,923.1 1636.91,918.144 1638.9,913.371 1640.88,908.773 1642.86,904.343 1644.85,900.074 1646.83,895.96 1648.81,891.994 1650.8,888.172 1652.78,884.488 1654.76,880.937 1656.74,877.514 1658.73,874.217 1660.71,871.039 1662.69,867.979 1664.68,865.032 1666.66,862.195 1668.64,859.465 1670.63,856.84 1672.61,854.316 1674.59,851.89 1676.58,849.561 1678.56,847.327 1680.54,845.184 1682.53,843.131 1684.51,841.167 1686.49,839.288 1688.47,837.494 1690.46,835.783 1692.44,834.153 1694.42,832.603 1696.41,831.131 1698.39,829.737 1700.37,828.418 1702.36,827.175 1704.34,826.005 1706.32,824.907 1708.31,823.882 1710.29,822.927 1712.27,822.042 1714.25,821.226 1716.24,820.478 1718.22,819.798 1720.2,819.185 1722.19,818.638 1724.17,818.156 1726.15,817.74 1728.14,817.389 1730.12,817.102 1732.1,816.878 1734.09,816.718 1736.07,816.621 1738.05,816.587 1740.04,816.615 1742.02,816.705 1744,816.857 1745.98,817.072 1747.97,817.347 1749.95,817.685 1751.93,818.083 1753.92,818.543 1755.9,819.065 1757.88,819.648 1759.87,820.292 1761.85,820.998 1763.83,821.766 1765.82,822.596 1767.8,823.487 1769.78,824.441 1771.76,825.457 1773.75,826.536 1775.73,827.678 1777.71,828.883 1779.7,830.153 1781.68,831.486 1783.66,832.884 1785.65,834.348 1787.63,835.877 1789.61,837.472 1791.6,839.134 1793.58,840.864 1795.56,842.663 1797.55,844.53 1799.53,846.468 1801.51,848.476 1803.49,850.556 1805.48,852.709 1807.46,854.935 1809.44,857.237 1811.43,859.614 1813.41,862.069 1815.39,864.602 1817.38,867.215 1819.36,869.909 1821.34,872.687 1823.33,875.549 1825.31,878.497 1827.29,881.534 1829.27,884.66 1831.26,887.879 1833.24,891.192 1835.22,894.601 1837.21,898.109 1839.19,901.719 1841.17,905.433 1843.16,909.255 1845.14,913.186 1847.12,917.231 1849.11,921.393 1851.09,925.676 1853.07,930.083 1855.06,934.619 1857.04,939.288 1859.02,944.096 1861,949.046 1862.99,954.146 1864.97,959.4 1866.95,964.815 1868.94,970.398 1870.92,976.156 1872.9,982.098 1874.89,988.231 1876.87,994.566 1878.85,1001.11 1880.84,1007.88 1882.82,1014.88 1884.8,1022.14 1886.79,1029.65 1888.77,1037.44 1890.75,1045.53 1892.73,1053.93 1894.72,1062.68 1896.7,1071.78 1898.68,1081.27 1900.67,1091.19 1902.65,1101.55 1904.63,1112.41 1906.62,1123.82 1908.6,1135.81 1910.58,1148.45 1912.57,1161.81 1914.55,1175.98 1916.53,1191.05 1918.51,1207.13 1920.5,1224.38 1922.48,1242.97 1924.46,1263.12 1926.45,1285.1 1928.43,1309.29 1930.41,1336.18 1932.4,1366.42 1934.38,1400.99 1936.36,1441.33 1938.35,1489.77 1940.33,1550.42 1942.31,1631.61 1944.3,1755.04 1946.28,2022.75 1948.26,2009.34 1950.24,1751.73 1952.23,1631.02 1954.21,1551.49 1956.19,1492.15 1958.18,1444.86 1960.16,1405.58 1962.14,1372.03 1964.13,1342.76 1966.11,1316.83 1968.09,1293.58 1970.08,1272.53 1972.06,1253.3 1974.04,1235.62 1976.02,1219.28 1978.01,1204.09 1979.99,1189.92 1981.97,1176.65 1983.96,1164.18 1985.94,1152.43 1987.92,1141.32 1989.91,1130.81 1991.89,1120.83 1993.87,1111.35 1995.86,1102.32 1997.84,1093.71 1999.82,1085.49 2001.81,1077.63 2003.79,1070.1 2005.77,1062.9 2007.75,1055.98 2009.74,1049.35 2011.72,1042.98 2013.7,1036.85 2015.69,1030.96 2017.67,1025.29 2019.65,1019.83 2021.64,1014.58 2023.62,1009.51 2025.6,1004.63 2027.59,999.928 2029.57,995.39 2031.55,991.013 2033.54,986.791 2035.52,982.717 2037.5,978.787 2039.48,974.995 2041.47,971.336 2043.45,967.806 2045.43,964.4 2047.42,961.115 2049.4,957.948 2051.38,954.894 2053.37,951.95 2055.35,949.113 2057.33,946.381 2059.32,943.75 2061.3,941.219 2063.28,938.784 2065.26,936.444 2067.25,934.196 2069.23,932.038 2071.21,929.968 2073.2,927.985 2075.18,926.086 2077.16,924.271 2079.15,922.537 2081.13,920.883 2083.11,919.308 2085.1,917.811 2087.08,916.389 2089.06,915.043 2091.05,913.771 2093.03,912.572 2095.01,911.444 2096.99,910.388 2098.98,909.402 2100.96,908.485 2102.94,907.637 2104.93,906.857 2106.91,906.144 2108.89,905.498 2110.88,904.918 2112.86,904.403 2114.84,903.953 2116.83,903.568 2118.81,903.246 2120.79,902.989 2122.77,902.795 2124.76,902.664 2126.74,902.596 2128.72,902.59 2130.71,902.647 2132.69,902.765 2134.67,902.946 2136.66,903.189 2138.64,903.494 2140.62,903.86 2142.61,904.288 2144.59,904.778 2146.57,905.33 2148.56,905.944 2150.54,906.62 2152.52,907.358 2154.5,908.159 2156.49,909.022 2158.47,909.948 2160.45,910.937 2162.44,911.99 2164.42,913.107 2166.4,914.288 2168.39,915.533 2170.37,916.844 2172.35,918.22 2174.34,919.663 2176.32,921.172 2178.3,922.749 2180.29,924.394 2182.27,926.108 2184.25,927.892 2186.23,929.746 2188.22,931.671 2190.2,933.669 2192.18,935.74 2194.17,937.885 2196.15,940.106 2198.13,942.404 2200.12,944.779 2202.1,947.234 2204.08,949.769 2206.07,952.386 2208.05,955.087 2210.03,957.873 2212.01,960.746 2214,963.709 2215.98,966.762 2217.96,969.908 2219.95,973.149 2221.93,976.487 2223.91,979.926 2225.9,983.467 2227.88,987.113 2229.86,990.867 2231.85,994.733 2233.83,998.713 2235.81,1002.81 2237.8,1007.03 2239.78,1011.38 2241.76,1015.86 2243.74,1020.47 2245.73,1025.22 2247.71,1030.11 2249.69,1035.16 2251.68,1040.36 2253.66,1045.73 2255.64,1051.27 2257.63,1056.98 2259.61,1062.88 2261.59,1068.97 2263.58,1075.27 2265.56,1081.79 2267.54,1088.52 2269.52,1095.5 2271.51,1102.73 2273.49,1110.23 2275.47,1118 2277.46,1126.08 2279.44,1134.49 2281.42,1143.23 2283.41,1152.35 2285.39,1161.86 2287.37,1171.8 2289.36,1182.21 2291.34,1193.12 2293.32,1204.58 "/>
<polyline clip-path="url(#clip902)" style="stroke:#3da44d; stroke-linecap:round; stroke-linejoin:round; stroke-width:4; stroke-opacity:1; fill:none" points="312.198,47.2441 314.181,47.2561 316.164,47.292 318.147,47.3518 320.13,47.4355 322.113,47.5431 324.096,47.6744 326.079,47.8294 328.063,48.0081 330.046,48.2102 332.029,48.4357 334.012,48.6844 335.995,48.9562 337.978,49.251 339.961,49.5685 341.944,49.9086 343.927,50.2711 345.911,50.6558 347.894,51.0624 349.877,51.4908 351.86,51.9407 353.843,52.4118 355.826,52.9039 357.809,53.4168 359.792,53.9501 361.775,54.5036 363.758,55.0769 365.742,55.6699 367.725,56.2821 369.708,56.9133 371.691,57.5631 373.674,58.2313 375.657,58.9175 377.64,59.6214 379.623,60.3426 381.606,61.0809 383.59,61.8357 385.573,62.607 387.556,63.3942 389.539,64.197 391.522,65.0151 393.505,65.8482 395.488,66.6958 397.471,67.5577 399.454,68.4335 401.438,69.3228 403.421,70.2253 405.404,71.1406 407.387,72.0685 409.37,73.0085 411.353,73.9604 413.336,74.9237 415.319,75.8981 417.302,76.8834 419.285,77.8791 421.269,78.885 423.252,79.9008 425.235,80.926 427.218,81.9604 429.201,83.0037 431.184,84.0556 433.167,85.1158 435.15,86.1839 437.133,87.2597 439.117,88.3429 441.1,89.4332 443.083,90.5303 445.066,91.6339 447.049,92.7439 449.032,93.8598 451.015,94.9814 452.998,96.1086 454.981,97.2409 456.965,98.3783 458.948,99.5204 460.931,100.667 462.914,101.818 464.897,102.973 466.88,104.132 468.863,105.294 470.846,106.46 472.829,107.629 474.813,108.801 476.796,109.975 478.779,111.153 480.762,112.332 482.745,113.514 484.728,114.698 486.711,115.884 488.694,117.072 490.677,118.261 492.66,119.452 494.644,120.643 496.627,121.836 498.61,123.03 500.593,124.224 502.576,125.419 504.559,126.615 506.542,127.811 508.525,129.007 510.508,130.203 512.492,131.4 514.475,132.596 516.458,133.792 518.441,134.987 520.424,136.182 522.407,137.377 524.39,138.571 526.373,139.764 528.356,140.956 530.34,142.147 532.323,143.338 534.306,144.527 536.289,145.715 538.272,146.901 540.255,148.087 542.238,149.27 544.221,150.453 546.204,151.634 548.187,152.813 550.171,153.99 552.154,155.166 554.137,156.339 556.12,157.511 558.103,158.681 560.086,159.849 562.069,161.015 564.052,162.179 566.035,163.34 568.019,164.5 570.002,165.657 571.985,166.812 573.968,167.964 575.951,169.114 577.934,170.262 579.917,171.407 581.9,172.55 583.883,173.69 585.867,174.828 587.85,175.963 589.833,177.096 591.816,178.226 593.799,179.353 595.782,180.478 597.765,181.6 599.748,182.719 601.731,183.835 603.714,184.949 605.698,186.06 607.681,187.168 609.664,188.273 611.647,189.376 613.63,190.475 615.613,191.572 617.596,192.666 619.579,193.757 621.562,194.845 623.546,195.93 625.529,197.012 627.512,198.092 629.495,199.168 631.478,200.241 633.461,201.312 635.444,202.379 637.427,203.444 639.41,204.505 641.394,205.564 643.377,206.62 645.36,207.672 647.343,208.722 649.326,209.768 651.309,210.812 653.292,211.853 655.275,212.89 657.258,213.925 659.242,214.957 661.225,215.985 663.208,217.011 665.191,218.034 667.174,219.053 669.157,220.07 671.14,221.084 673.123,222.094 675.106,223.102 677.089,224.107 679.073,225.109 681.056,226.108 683.039,227.103 685.022,228.096 687.005,229.086 688.988,230.073 690.971,231.057 692.954,232.039 694.937,233.017 696.921,233.992 698.904,234.965 700.887,235.934 702.87,236.901 704.853,237.864 706.836,238.825 708.819,239.783 710.802,240.738 712.785,241.69 714.769,242.64 716.752,243.586 718.735,244.53 720.718,245.47 722.701,246.408 724.684,247.344 726.667,248.276 728.65,249.206 730.633,250.132 732.616,251.056 734.6,251.978 736.583,252.896 738.566,253.812 740.549,254.725 742.532,255.635 744.515,256.542 746.498,257.447 748.481,258.349 750.464,259.249 752.448,260.145 754.431,261.039 756.414,261.931 758.397,262.82 760.38,263.706 762.363,264.589 764.346,265.47 766.329,266.348 768.312,267.224 770.296,268.097 772.279,268.967 774.262,269.835 776.245,270.7 778.228,271.563 780.211,272.423 782.194,273.281 784.177,274.136 786.16,274.988 788.144,275.839 790.127,276.686 792.11,277.531 794.093,278.374 796.076,279.214 798.059,280.052 800.042,280.887 802.025,281.72 804.008,282.551 805.991,283.379 807.975,284.204 809.958,285.028 811.941,285.848 813.924,286.667 815.907,287.483 817.89,288.297 819.873,289.108 821.856,289.917 823.839,290.724 825.823,291.529 827.806,292.331 829.789,293.131 831.772,293.929 833.755,294.724 835.738,295.517 837.721,296.308 839.704,297.096 841.687,297.883 843.671,298.667 845.654,299.449 847.637,300.229 849.62,301.006 851.603,301.782 853.586,302.555 855.569,303.326 857.552,304.095 859.535,304.862 861.518,305.626 863.502,306.389 865.485,307.149 867.468,307.908 869.451,308.664 871.434,309.418 873.417,310.17 875.4,310.92 877.383,311.668 879.366,312.414 881.35,313.158 883.333,313.9 885.316,314.639 887.299,315.377 889.282,316.113 891.265,316.847 893.248,317.579 895.231,318.308 897.214,319.036 899.198,319.762 901.181,320.486 903.164,321.208 905.147,321.928 907.13,322.646 909.113,323.363 911.096,324.077 913.079,324.79 915.062,325.5 917.045,326.209 919.029,326.916 921.012,327.621 922.995,328.324 924.978,329.025 926.961,329.724 928.944,330.422 930.927,331.118 932.91,331.812 934.893,332.504 936.877,333.194 938.86,333.883 940.843,334.57 942.826,335.255 944.809,335.938 946.792,336.619 948.775,337.299 950.758,337.977 952.741,338.653 954.725,339.328 956.708,340.001 958.691,340.672 960.674,341.341 962.657,342.009 964.64,342.675 966.623,343.339 968.606,344.002 970.589,344.663 972.573,345.322 974.556,345.98 976.539,346.636 978.522,347.291 980.505,347.943 982.488,348.595 984.471,349.244 986.454,349.892 988.437,350.538 990.42,351.183 992.404,351.826 994.387,352.468 996.37,353.108 998.353,353.746 1000.34,354.383 1002.32,355.019 1004.3,355.652 1006.29,356.285 1008.27,356.915 1010.25,357.545 1012.23,358.172 1014.22,358.798 1016.2,359.423 1018.18,360.046 1020.17,360.668 1022.15,361.288 1024.13,361.907 1026.12,362.524 1028.1,363.14 1030.08,363.754 1032.07,364.367 1034.05,364.978 1036.03,365.588 1038.02,366.197 1040,366.804 1041.98,367.409 1043.96,368.014 1045.95,368.616 1047.93,369.218 1049.91,369.818 1051.9,370.416 1053.88,371.014 1055.86,371.61 1057.85,372.204 1059.83,372.797 1061.81,373.389 1063.8,373.979 1065.78,374.568 1067.76,375.156 1069.74,375.742 1071.73,376.327 1073.71,376.911 1075.69,377.493 1077.68,378.074 1079.66,378.654 1081.64,379.232 1083.63,379.809 1085.61,380.385 1087.59,380.96 1089.58,381.533 1091.56,382.105 1093.54,382.676 1095.53,383.245 1097.51,383.813 1099.49,384.38 1101.47,384.945 1103.46,385.51 1105.44,386.073 1107.42,386.635 1109.41,387.195 1111.39,387.755 1113.37,388.313 1115.36,388.87 1117.34,389.426 1119.32,389.98 1121.31,390.533 1123.29,391.086 1125.27,391.636 1127.25,392.186 1129.24,392.735 1131.22,393.282 1133.2,393.828 1135.19,394.373 1137.17,394.917 1139.15,395.46 1141.14,396.001 1143.12,396.542 1145.1,397.081 1147.09,397.619 1149.07,398.156 1151.05,398.692 1153.04,399.226 1155.02,399.76 1157,400.292 1158.98,400.823 1160.97,401.354 1162.95,401.883 1164.93,402.411 1166.92,402.937 1168.9,403.463 1170.88,403.988 1172.87,404.511 1174.85,405.034 1176.83,405.555 1178.82,406.076 1180.8,406.595 1182.78,407.113 1184.77,407.63 1186.75,408.146 1188.73,408.661 1190.71,409.175 1192.7,409.688 1194.68,410.2 1196.66,410.711 1198.65,411.221 1200.63,411.73 1202.61,412.237 1204.6,412.744 1206.58,413.25 1208.56,413.755 1210.55,414.258 1212.53,414.761 1214.51,415.263 1216.49,415.763 1218.48,416.263 1220.46,416.762 1222.44,417.259 1224.43,417.756 1226.41,418.252 1228.39,418.746 1230.38,419.24 1232.36,419.733 1234.34,420.225 1236.33,420.716 1238.31,421.206 1240.29,421.695 1242.28,422.183 1244.26,422.67 1246.24,423.156 1248.22,423.641 1250.21,424.125 1252.19,424.608 1254.17,425.091 1256.16,425.572 1258.14,426.053 1260.12,426.532 1262.11,427.011 1264.09,427.489 1266.07,427.966 1268.06,428.441 1270.04,428.917 1272.02,429.391 1274,429.864 1275.99,430.336 1277.97,430.808 1279.95,431.278 1281.94,431.748 1283.92,432.217 1285.9,432.685 1287.89,433.152 1289.87,433.618 1291.85,434.083 1293.84,434.547 1295.82,435.011 1297.8,435.474 1299.79,435.935 1301.77,436.396 1303.75,436.857 1305.73,437.316 1307.72,437.774 1309.7,438.232 1311.68,438.689 1313.67,439.144 1315.65,439.6 1317.63,440.054 1319.62,440.507 1321.6,440.96 1323.58,441.412 1325.57,441.863 1327.55,442.313 1329.53,442.762 1331.51,443.21 1333.5,443.658 1335.48,444.105 1337.46,444.551 1339.45,444.996 1341.43,445.441 1343.41,445.885 1345.4,446.328 1347.38,446.77 1349.36,447.211 1351.35,447.652 1353.33,448.091 1355.31,448.53 1357.3,448.968 1359.28,449.406 1361.26,449.843 1363.24,450.278 1365.23,450.714 1367.21,451.148 1369.19,451.582 1371.18,452.014 1373.16,452.447 1375.14,452.878 1377.13,453.308 1379.11,453.738 1381.09,454.167 1383.08,454.596 1385.06,455.023 1387.04,455.45 1389.03,455.876 1391.01,456.302 1392.99,456.727 1394.97,457.151 1396.96,457.574 1398.94,457.996 1400.92,458.418 1402.91,458.839 1404.89,459.259 1406.87,459.679 1408.86,460.098 1410.84,460.516 1412.82,460.934 1414.81,461.351 1416.79,461.767 1418.77,462.182 1420.75,462.597 1422.74,463.011 1424.72,463.424 1426.7,463.837 1428.69,464.249 1430.67,464.66 1432.65,465.071 1434.64,465.48 1436.62,465.89 1438.6,466.298 1440.59,466.706 1442.57,467.113 1444.55,467.52 1446.54,467.926 1448.52,468.331 1450.5,468.735 1452.48,469.139 1454.47,469.542 1456.45,469.945 1458.43,470.347 1460.42,470.748 1462.4,471.148 1464.38,471.548 1466.37,471.948 1468.35,472.346 1470.33,472.744 1472.32,473.141 1474.3,473.538 1476.28,473.934 1478.26,474.33 1480.25,474.724 1482.23,475.119 1484.21,475.512 1486.2,475.905 1488.18,476.297 1490.16,476.689 1492.15,477.08 1494.13,477.47 1496.11,477.86 1498.1,478.249 1500.08,478.638 1502.06,479.026 1504.05,479.413 1506.03,479.8 1508.01,480.186 1509.99,480.571 1511.98,480.956 1513.96,481.341 1515.94,481.724 1517.93,482.107 1519.91,482.49 1521.89,482.872 1523.88,483.253 1525.86,483.634 1527.84,484.014 1529.83,484.393 1531.81,484.772 1533.79,485.151 1535.78,485.529 1537.76,485.906 1539.74,486.282 1541.72,486.659 1543.71,487.034 1545.69,487.409 1547.67,487.783 1549.66,488.157 1551.64,488.53 1553.62,488.903 1555.61,489.275 1557.59,489.646 1559.57,490.017 1561.56,490.388 1563.54,490.758 1565.52,491.127 1567.5,491.495 1569.49,491.864 1571.47,492.231 1573.45,492.598 1575.44,492.965 1577.42,493.331 1579.4,493.696 1581.39,494.061 1583.37,494.425 1585.35,494.789 1587.34,495.152 1589.32,495.515 1591.3,495.877 1593.29,496.239 1595.27,496.6 1597.25,496.961 1599.23,497.321 1601.22,497.68 1603.2,498.039 1605.18,498.398 1607.17,498.755 1609.15,499.113 1611.13,499.47 1613.12,499.826 1615.1,500.182 1617.08,500.537 1619.07,500.892 1621.05,501.246 1623.03,501.6 1625.01,501.953 1627,502.306 1628.98,502.659 1630.96,503.01 1632.95,503.362 1634.93,503.712 1636.91,504.063 1638.9,504.412 1640.88,504.761 1642.86,505.11 1644.85,505.458 1646.83,505.806 1648.81,506.153 1650.8,506.5 1652.78,506.847 1654.76,507.192 1656.74,507.538 1658.73,507.882 1660.71,508.227 1662.69,508.571 1664.68,508.914 1666.66,509.257 1668.64,509.599 1670.63,509.941 1672.61,510.283 1674.59,510.624 1676.58,510.964 1678.56,511.304 1680.54,511.644 1682.53,511.983 1684.51,512.321 1686.49,512.659 1688.47,512.997 1690.46,513.334 1692.44,513.671 1694.42,514.007 1696.41,514.343 1698.39,514.678 1700.37,515.013 1702.36,515.348 1704.34,515.682 1706.32,516.015 1708.31,516.348 1710.29,516.681 1712.27,517.013 1714.25,517.345 1716.24,517.676 1718.22,518.007 1720.2,518.337 1722.19,518.667 1724.17,518.996 1726.15,519.325 1728.14,519.654 1730.12,519.982 1732.1,520.31 1734.09,520.637 1736.07,520.964 1738.05,521.29 1740.04,521.616 1742.02,521.941 1744,522.266 1745.98,522.591 1747.97,522.915 1749.95,523.239 1751.93,523.562 1753.92,523.885 1755.9,524.208 1757.88,524.53 1759.87,524.851 1761.85,525.173 1763.83,525.493 1765.82,525.814 1767.8,526.134 1769.78,526.453 1771.76,526.772 1773.75,527.091 1775.73,527.409 1777.71,527.727 1779.7,528.045 1781.68,528.362 1783.66,528.678 1785.65,528.994 1787.63,529.31 1789.61,529.626 1791.6,529.94 1793.58,530.255 1795.56,530.569 1797.55,530.883 1799.53,531.196 1801.51,531.509 1803.49,531.822 1805.48,532.134 1807.46,532.446 1809.44,532.757 1811.43,533.068 1813.41,533.378 1815.39,533.689 1817.38,533.998 1819.36,534.308 1821.34,534.617 1823.33,534.925 1825.31,535.233 1827.29,535.541 1829.27,535.849 1831.26,536.156 1833.24,536.462 1835.22,536.769 1837.21,537.074 1839.19,537.38 1841.17,537.685 1843.16,537.99 1845.14,538.294 1847.12,538.598 1849.11,538.902 1851.09,539.205 1853.07,539.508 1855.06,539.81 1857.04,540.112 1859.02,540.414 1861,540.715 1862.99,541.016 1864.97,541.317 1866.95,541.617 1868.94,541.917 1870.92,542.216 1872.9,542.515 1874.89,542.814 1876.87,543.112 1878.85,543.41 1880.84,543.708 1882.82,544.005 1884.8,544.302 1886.79,544.598 1888.77,544.895 1890.75,545.19 1892.73,545.486 1894.72,545.781 1896.7,546.076 1898.68,546.37 1900.67,546.664 1902.65,546.958 1904.63,547.251 1906.62,547.544 1908.6,547.837 1910.58,548.129 1912.57,548.421 1914.55,548.712 1916.53,549.003 1918.51,549.294 1920.5,549.585 1922.48,549.875 1924.46,550.165 1926.45,550.454 1928.43,550.743 1930.41,551.032 1932.4,551.32 1934.38,551.609 1936.36,551.896 1938.35,552.184 1940.33,552.471 1942.31,552.757 1944.3,553.044 1946.28,553.33 1948.26,553.616 1950.24,553.901 1952.23,554.186 1954.21,554.471 1956.19,554.755 1958.18,555.039 1960.16,555.323 1962.14,555.606 1964.13,555.889 1966.11,556.172 1968.09,556.454 1970.08,556.736 1972.06,557.018 1974.04,557.3 1976.02,557.581 1978.01,557.861 1979.99,558.142 1981.97,558.422 1983.96,558.702 1985.94,558.981 1987.92,559.26 1989.91,559.539 1991.89,559.818 1993.87,560.096 1995.86,560.374 1997.84,560.651 1999.82,560.928 2001.81,561.205 2003.79,561.482 2005.77,561.758 2007.75,562.034 2009.74,562.31 2011.72,562.585 2013.7,562.86 2015.69,563.135 2017.67,563.409 2019.65,563.683 2021.64,563.957 2023.62,564.23 2025.6,564.504 2027.59,564.776 2029.57,565.049 2031.55,565.321 2033.54,565.593 2035.52,565.865 2037.5,566.136 2039.48,566.407 2041.47,566.678 2043.45,566.948 2045.43,567.218 2047.42,567.488 2049.4,567.758 2051.38,568.027 2053.37,568.296 2055.35,568.564 2057.33,568.833 2059.32,569.101 2061.3,569.368 2063.28,569.636 2065.26,569.903 2067.25,570.17 2069.23,570.436 2071.21,570.702 2073.2,570.968 2075.18,571.234 2077.16,571.499 2079.15,571.765 2081.13,572.029 2083.11,572.294 2085.1,572.558 2087.08,572.822 2089.06,573.086 2091.05,573.349 2093.03,573.612 2095.01,573.875 2096.99,574.137 2098.98,574.4 2100.96,574.661 2102.94,574.923 2104.93,575.184 2106.91,575.446 2108.89,575.706 2110.88,575.967 2112.86,576.227 2114.84,576.487 2116.83,576.747 2118.81,577.006 2120.79,577.265 2122.77,577.524 2124.76,577.783 2126.74,578.041 2128.72,578.299 2130.71,578.557 2132.69,578.814 2134.67,579.071 2136.66,579.328 2138.64,579.585 2140.62,579.841 2142.61,580.097 2144.59,580.353 2146.57,580.609 2148.56,580.864 2150.54,581.119 2152.52,581.374 2154.5,581.628 2156.49,581.883 2158.47,582.136 2160.45,582.39 2162.44,582.644 2164.42,582.897 2166.4,583.15 2168.39,583.402 2170.37,583.655 2172.35,583.907 2174.34,584.159 2176.32,584.41 2178.3,584.661 2180.29,584.912 2182.27,585.163 2184.25,585.414 2186.23,585.664 2188.22,585.914 2190.2,586.164 2192.18,586.413 2194.17,586.663 2196.15,586.912 2198.13,587.16 2200.12,587.409 2202.1,587.657 2204.08,587.905 2206.07,588.153 2208.05,588.4 2210.03,588.647 2212.01,588.894 2214,589.141 2215.98,589.387 2217.96,589.634 2219.95,589.879 2221.93,590.125 2223.91,590.371 2225.9,590.616 2227.88,590.861 2229.86,591.105 2231.85,591.35 2233.83,591.594 2235.81,591.838 2237.8,592.082 2239.78,592.325 2241.76,592.568 2243.74,592.811 2245.73,593.054 2247.71,593.297 2249.69,593.539 2251.68,593.781 2253.66,594.023 2255.64,594.264 2257.63,594.505 2259.61,594.746 2261.59,594.987 2263.58,595.228 2265.56,595.468 2267.54,595.708 2269.52,595.948 2271.51,596.188 2273.49,596.427 2275.47,596.666 2277.46,596.905 2279.44,597.144 2281.42,597.382 2283.41,597.62 2285.39,597.858 2287.37,598.096 2289.36,598.333 2291.34,598.571 2293.32,598.808 "/>
<path clip-path="url(#clip900)" d="M1868.55 300.469 L2282.76 300.469 L2282.76 93.1086 L1868.55 93.1086  Z" fill="#ffffff" fill-rule="evenodd" fill-opacity="1"/>
<polyline clip-path="url(#clip900)" style="stroke:#000000; stroke-linecap:round; stroke-linejoin:round; stroke-width:4; stroke-opacity:1; fill:none" points="1868.55,300.469 2282.76,300.469 2282.76,93.1086 1868.55,93.1086 1868.55,300.469 "/>
<polyline clip-path="url(#clip900)" style="stroke:#009af9; stroke-linecap:round; stroke-linejoin:round; stroke-width:4; stroke-opacity:1; fill:none" points="1891.88,144.949 2031.88,144.949 "/>
<path clip-path="url(#clip900)" d="M2074.12 148.965 Q2074.12 144.335 2072.2 141.789 Q2070.3 139.243 2066.85 139.243 Q2063.43 139.243 2061.51 141.789 Q2059.61 144.335 2059.61 148.965 Q2059.61 153.571 2061.51 156.118 Q2063.43 158.664 2066.85 158.664 Q2070.3 158.664 2072.2 156.118 Q2074.12 153.571 2074.12 148.965 M2078.38 159.011 Q2078.38 165.631 2075.44 168.849 Q2072.5 172.09 2066.44 172.09 Q2064.19 172.09 2062.2 171.742 Q2060.21 171.418 2058.34 170.724 L2058.34 166.58 Q2060.21 167.599 2062.04 168.085 Q2063.87 168.571 2065.77 168.571 Q2069.96 168.571 2072.04 166.372 Q2074.12 164.196 2074.12 159.775 L2074.12 157.668 Q2072.8 159.96 2070.74 161.094 Q2068.68 162.229 2065.81 162.229 Q2061.04 162.229 2058.13 158.594 Q2055.21 154.96 2055.21 148.965 Q2055.21 142.946 2058.13 139.312 Q2061.04 135.678 2065.81 135.678 Q2068.68 135.678 2070.74 136.812 Q2072.8 137.946 2074.12 140.238 L2074.12 136.303 L2078.38 136.303 L2078.38 159.011 Z" fill="#000000" fill-rule="nonzero" fill-opacity="1" /><path clip-path="url(#clip900)" d="M2098.94 149.196 Q2093.78 149.196 2091.78 150.377 Q2089.79 151.557 2089.79 154.405 Q2089.79 156.673 2091.28 158.016 Q2092.78 159.335 2095.35 159.335 Q2098.89 159.335 2101.02 156.835 Q2103.17 154.312 2103.17 150.145 L2103.17 149.196 L2098.94 149.196 M2107.43 147.437 L2107.43 162.229 L2103.17 162.229 L2103.17 158.293 Q2101.72 160.655 2099.54 161.789 Q2097.36 162.9 2094.22 162.9 Q2090.23 162.9 2087.87 160.678 Q2085.53 158.432 2085.53 154.682 Q2085.53 150.307 2088.45 148.085 Q2091.39 145.863 2097.2 145.863 L2103.17 145.863 L2103.17 145.446 Q2103.17 142.507 2101.23 140.909 Q2099.31 139.289 2095.81 139.289 Q2093.59 139.289 2091.48 139.821 Q2089.38 140.354 2087.43 141.419 L2087.43 137.483 Q2089.77 136.581 2091.97 136.141 Q2094.17 135.678 2096.25 135.678 Q2101.88 135.678 2104.66 138.594 Q2107.43 141.511 2107.43 147.437 Z" fill="#000000" fill-rule="nonzero" fill-opacity="1" /><path clip-path="url(#clip900)" d="M2115.77 151.997 L2115.77 136.303 L2120.03 136.303 L2120.03 151.835 Q2120.03 155.516 2121.46 157.368 Q2122.9 159.196 2125.77 159.196 Q2129.22 159.196 2131.21 156.997 Q2133.22 154.798 2133.22 151.002 L2133.22 136.303 L2137.48 136.303 L2137.48 162.229 L2133.22 162.229 L2133.22 158.247 Q2131.67 160.608 2129.61 161.766 Q2127.57 162.9 2124.86 162.9 Q2120.4 162.9 2118.08 160.122 Q2115.77 157.344 2115.77 151.997 M2126.48 135.678 L2126.48 135.678 Z" fill="#000000" fill-rule="nonzero" fill-opacity="1" /><path clip-path="url(#clip900)" d="M2162.78 137.067 L2162.78 141.094 Q2160.97 140.169 2159.03 139.706 Q2157.09 139.243 2155 139.243 Q2151.83 139.243 2150.23 140.215 Q2148.66 141.187 2148.66 143.131 Q2148.66 144.613 2149.79 145.469 Q2150.93 146.303 2154.35 147.067 L2155.81 147.391 Q2160.35 148.363 2162.25 150.145 Q2164.17 151.905 2164.17 155.076 Q2164.17 158.687 2161.3 160.793 Q2158.45 162.9 2153.45 162.9 Q2151.37 162.9 2149.1 162.483 Q2146.85 162.09 2144.35 161.28 L2144.35 156.881 Q2146.72 158.108 2149.01 158.733 Q2151.3 159.335 2153.54 159.335 Q2156.55 159.335 2158.17 158.317 Q2159.79 157.275 2159.79 155.4 Q2159.79 153.664 2158.61 152.738 Q2157.46 151.812 2153.5 150.956 L2152.02 150.608 Q2148.06 149.775 2146.3 148.062 Q2144.54 146.326 2144.54 143.317 Q2144.54 139.659 2147.13 137.669 Q2149.72 135.678 2154.49 135.678 Q2156.85 135.678 2158.94 136.025 Q2161.02 136.372 2162.78 137.067 Z" fill="#000000" fill-rule="nonzero" fill-opacity="1" /><path clip-path="url(#clip900)" d="M2187.48 137.067 L2187.48 141.094 Q2185.67 140.169 2183.73 139.706 Q2181.78 139.243 2179.7 139.243 Q2176.53 139.243 2174.93 140.215 Q2173.36 141.187 2173.36 143.131 Q2173.36 144.613 2174.49 145.469 Q2175.63 146.303 2179.05 147.067 L2180.51 147.391 Q2185.05 148.363 2186.95 150.145 Q2188.87 151.905 2188.87 155.076 Q2188.87 158.687 2186 160.793 Q2183.15 162.9 2178.15 162.9 Q2176.07 162.9 2173.8 162.483 Q2171.55 162.09 2169.05 161.28 L2169.05 156.881 Q2171.41 158.108 2173.71 158.733 Q2176 159.335 2178.24 159.335 Q2181.25 159.335 2182.87 158.317 Q2184.49 157.275 2184.49 155.4 Q2184.49 153.664 2183.31 152.738 Q2182.15 151.812 2178.2 150.956 L2176.72 150.608 Q2172.76 149.775 2171 148.062 Q2169.24 146.326 2169.24 143.317 Q2169.24 139.659 2171.83 137.669 Q2174.42 135.678 2179.19 135.678 Q2181.55 135.678 2183.64 136.025 Q2185.72 136.372 2187.48 137.067 Z" fill="#000000" fill-rule="nonzero" fill-opacity="1" /><path clip-path="url(#clip900)" d="M2195.65 136.303 L2199.91 136.303 L2199.91 162.229 L2195.65 162.229 L2195.65 136.303 M2195.65 126.21 L2199.91 126.21 L2199.91 131.604 L2195.65 131.604 L2195.65 126.21 Z" fill="#000000" fill-rule="nonzero" fill-opacity="1" /><path clip-path="url(#clip900)" d="M2220.6 149.196 Q2215.44 149.196 2213.45 150.377 Q2211.46 151.557 2211.46 154.405 Q2211.46 156.673 2212.94 158.016 Q2214.45 159.335 2217.02 159.335 Q2220.56 159.335 2222.69 156.835 Q2224.84 154.312 2224.84 150.145 L2224.84 149.196 L2220.6 149.196 M2229.1 147.437 L2229.1 162.229 L2224.84 162.229 L2224.84 158.293 Q2223.38 160.655 2221.21 161.789 Q2219.03 162.9 2215.88 162.9 Q2211.9 162.9 2209.54 160.678 Q2207.2 158.432 2207.2 154.682 Q2207.2 150.307 2210.12 148.085 Q2213.06 145.863 2218.87 145.863 L2224.84 145.863 L2224.84 145.446 Q2224.84 142.507 2222.9 140.909 Q2220.97 139.289 2217.48 139.289 Q2215.26 139.289 2213.15 139.821 Q2211.04 140.354 2209.1 141.419 L2209.1 137.483 Q2211.44 136.581 2213.64 136.141 Q2215.84 135.678 2217.92 135.678 Q2223.54 135.678 2226.32 138.594 Q2229.1 141.511 2229.1 147.437 Z" fill="#000000" fill-rule="nonzero" fill-opacity="1" /><path clip-path="url(#clip900)" d="M2259.42 146.581 L2259.42 162.229 L2255.16 162.229 L2255.16 146.719 Q2255.16 143.039 2253.73 141.21 Q2252.29 139.382 2249.42 139.382 Q2245.97 139.382 2243.98 141.581 Q2241.99 143.78 2241.99 147.576 L2241.99 162.229 L2237.71 162.229 L2237.71 136.303 L2241.99 136.303 L2241.99 140.331 Q2243.52 137.993 2245.58 136.835 Q2247.66 135.678 2250.37 135.678 Q2254.84 135.678 2257.13 138.456 Q2259.42 141.21 2259.42 146.581 Z" fill="#000000" fill-rule="nonzero" fill-opacity="1" /><polyline clip-path="url(#clip900)" style="stroke:#e26f46; stroke-linecap:round; stroke-linejoin:round; stroke-width:4; stroke-opacity:1; fill:none" points="1891.88,196.789 2031.88,196.789 "/>
<path clip-path="url(#clip900)" d="M2068.61 201.036 Q2063.45 201.036 2061.46 202.217 Q2059.47 203.397 2059.47 206.245 Q2059.47 208.513 2060.95 209.856 Q2062.46 211.175 2065.03 211.175 Q2068.57 211.175 2070.7 208.675 Q2072.85 206.152 2072.85 201.985 L2072.85 201.036 L2068.61 201.036 M2077.11 199.277 L2077.11 214.069 L2072.85 214.069 L2072.85 210.133 Q2071.39 212.495 2069.22 213.629 Q2067.04 214.74 2063.89 214.74 Q2059.91 214.74 2057.55 212.518 Q2055.21 210.272 2055.21 206.522 Q2055.21 202.147 2058.13 199.925 Q2061.07 197.703 2066.88 197.703 L2072.85 197.703 L2072.85 197.286 Q2072.85 194.347 2070.91 192.749 Q2068.98 191.129 2065.49 191.129 Q2063.27 191.129 2061.16 191.661 Q2059.05 192.194 2057.11 193.259 L2057.11 189.323 Q2059.45 188.421 2061.65 187.981 Q2063.85 187.518 2065.93 187.518 Q2071.55 187.518 2074.33 190.434 Q2077.11 193.351 2077.11 199.277 Z" fill="#000000" fill-rule="nonzero" fill-opacity="1" /><path clip-path="url(#clip900)" d="M2085.88 188.143 L2090.14 188.143 L2090.14 214.069 L2085.88 214.069 L2085.88 188.143 M2085.88 178.05 L2090.14 178.05 L2090.14 183.444 L2085.88 183.444 L2085.88 178.05 Z" fill="#000000" fill-rule="nonzero" fill-opacity="1" /><path clip-path="url(#clip900)" d="M2114.08 192.124 Q2113.36 191.708 2112.5 191.522 Q2111.67 191.314 2110.65 191.314 Q2107.04 191.314 2105.1 193.675 Q2103.17 196.013 2103.17 200.411 L2103.17 214.069 L2098.89 214.069 L2098.89 188.143 L2103.17 188.143 L2103.17 192.171 Q2104.52 189.809 2106.67 188.675 Q2108.82 187.518 2111.9 187.518 Q2112.34 187.518 2112.87 187.587 Q2113.41 187.634 2114.05 187.749 L2114.08 192.124 Z" fill="#000000" fill-rule="nonzero" fill-opacity="1" /><path clip-path="url(#clip900)" d="M2129.33 216.476 Q2127.53 221.106 2125.81 222.518 Q2124.1 223.93 2121.23 223.93 L2117.83 223.93 L2117.83 220.365 L2120.33 220.365 Q2122.09 220.365 2123.06 219.532 Q2124.03 218.698 2125.21 215.596 L2125.97 213.652 L2115.49 188.143 L2120 188.143 L2128.1 208.421 L2136.21 188.143 L2140.72 188.143 L2129.33 216.476 Z" fill="#000000" fill-rule="nonzero" fill-opacity="1" /><path clip-path="url(#clip900)" d="M2163.66 192.078 L2163.66 178.05 L2167.92 178.05 L2167.92 214.069 L2163.66 214.069 L2163.66 210.18 Q2162.32 212.495 2160.26 213.629 Q2158.22 214.74 2155.35 214.74 Q2150.65 214.74 2147.69 210.99 Q2144.75 207.24 2144.75 201.129 Q2144.75 195.018 2147.69 191.268 Q2150.65 187.518 2155.35 187.518 Q2158.22 187.518 2160.26 188.652 Q2162.32 189.763 2163.66 192.078 M2149.15 201.129 Q2149.15 205.828 2151.07 208.513 Q2153.01 211.175 2156.39 211.175 Q2159.77 211.175 2161.72 208.513 Q2163.66 205.828 2163.66 201.129 Q2163.66 196.43 2161.72 193.768 Q2159.77 191.083 2156.39 191.083 Q2153.01 191.083 2151.07 193.768 Q2149.15 196.43 2149.15 201.129 Z" fill="#000000" fill-rule="nonzero" fill-opacity="1" /><path clip-path="url(#clip900)" d="M2176.69 188.143 L2180.95 188.143 L2180.95 214.069 L2176.69 214.069 L2176.69 188.143 M2176.69 178.05 L2180.95 178.05 L2180.95 183.444 L2176.69 183.444 L2176.69 178.05 Z" fill="#000000" fill-rule="nonzero" fill-opacity="1" /><path clip-path="url(#clip900)" d="M2206.39 188.907 L2206.39 192.934 Q2204.59 192.009 2202.64 191.546 Q2200.7 191.083 2198.61 191.083 Q2195.44 191.083 2193.84 192.055 Q2192.27 193.027 2192.27 194.971 Q2192.27 196.453 2193.4 197.309 Q2194.54 198.143 2197.96 198.907 L2199.42 199.231 Q2203.96 200.203 2205.86 201.985 Q2207.78 203.745 2207.78 206.916 Q2207.78 210.527 2204.91 212.633 Q2202.06 214.74 2197.06 214.74 Q2194.98 214.74 2192.71 214.323 Q2190.46 213.93 2187.96 213.12 L2187.96 208.721 Q2190.33 209.948 2192.62 210.573 Q2194.91 211.175 2197.15 211.175 Q2200.16 211.175 2201.78 210.157 Q2203.4 209.115 2203.4 207.24 Q2203.4 205.504 2202.22 204.578 Q2201.07 203.652 2197.11 202.796 L2195.63 202.448 Q2191.67 201.615 2189.91 199.902 Q2188.15 198.166 2188.15 195.157 Q2188.15 191.499 2190.74 189.509 Q2193.34 187.518 2198.1 187.518 Q2200.46 187.518 2202.55 187.865 Q2204.63 188.212 2206.39 188.907 Z" fill="#000000" fill-rule="nonzero" fill-opacity="1" /><path clip-path="url(#clip900)" d="M2214.4 178.05 L2218.68 178.05 L2218.68 199.323 L2231.39 188.143 L2236.83 188.143 L2223.08 200.272 L2237.41 214.069 L2231.85 214.069 L2218.68 201.407 L2218.68 214.069 L2214.4 214.069 L2214.4 178.05 Z" fill="#000000" fill-rule="nonzero" fill-opacity="1" /><polyline clip-path="url(#clip900)" style="stroke:#3da44d; stroke-linecap:round; stroke-linejoin:round; stroke-width:4; stroke-opacity:1; fill:none" points="1891.88,248.629 2031.88,248.629 "/>
<path clip-path="url(#clip900)" d="M2075.56 244.96 Q2077.16 242.089 2079.38 240.724 Q2081.6 239.358 2084.61 239.358 Q2088.66 239.358 2090.86 242.205 Q2093.06 245.029 2093.06 250.261 L2093.06 265.909 L2088.78 265.909 L2088.78 250.399 Q2088.78 246.673 2087.46 244.867 Q2086.14 243.062 2083.43 243.062 Q2080.12 243.062 2078.2 245.261 Q2076.28 247.46 2076.28 251.256 L2076.28 265.909 L2071.99 265.909 L2071.99 250.399 Q2071.99 246.649 2070.67 244.867 Q2069.35 243.062 2066.6 243.062 Q2063.34 243.062 2061.41 245.284 Q2059.49 247.483 2059.49 251.256 L2059.49 265.909 L2055.21 265.909 L2055.21 239.983 L2059.49 239.983 L2059.49 244.011 Q2060.95 241.626 2062.99 240.492 Q2065.03 239.358 2067.83 239.358 Q2070.65 239.358 2072.62 240.793 Q2074.61 242.228 2075.56 244.96 Z" fill="#000000" fill-rule="nonzero" fill-opacity="1" /><path clip-path="url(#clip900)" d="M2111.6 242.969 Q2108.17 242.969 2106.18 245.654 Q2104.19 248.316 2104.19 252.969 Q2104.19 257.622 2106.16 260.307 Q2108.15 262.969 2111.6 262.969 Q2115 262.969 2116.99 260.284 Q2118.98 257.598 2118.98 252.969 Q2118.98 248.362 2116.99 245.677 Q2115 242.969 2111.6 242.969 M2111.6 239.358 Q2117.16 239.358 2120.33 242.969 Q2123.5 246.58 2123.5 252.969 Q2123.5 259.335 2120.33 262.969 Q2117.16 266.58 2111.6 266.58 Q2106.02 266.58 2102.85 262.969 Q2099.7 259.335 2099.7 252.969 Q2099.7 246.58 2102.85 242.969 Q2106.02 239.358 2111.6 239.358 Z" fill="#000000" fill-rule="nonzero" fill-opacity="1" /><path clip-path="url(#clip900)" d="M2143.68 229.89 L2143.68 233.432 L2139.61 233.432 Q2137.32 233.432 2136.41 234.358 Q2135.53 235.284 2135.53 237.691 L2135.53 239.983 L2142.55 239.983 L2142.55 243.293 L2135.53 243.293 L2135.53 265.909 L2131.25 265.909 L2131.25 243.293 L2127.18 243.293 L2127.18 239.983 L2131.25 239.983 L2131.25 238.177 Q2131.25 233.849 2133.27 231.881 Q2135.28 229.89 2139.66 229.89 L2143.68 229.89 Z" fill="#000000" fill-rule="nonzero" fill-opacity="1" /><path clip-path="url(#clip900)" d="M2160.37 229.89 L2160.37 233.432 L2156.3 233.432 Q2154.01 233.432 2153.1 234.358 Q2152.22 235.284 2152.22 237.691 L2152.22 239.983 L2159.24 239.983 L2159.24 243.293 L2152.22 243.293 L2152.22 265.909 L2147.94 265.909 L2147.94 243.293 L2143.87 243.293 L2143.87 239.983 L2147.94 239.983 L2147.94 238.177 Q2147.94 233.849 2149.96 231.881 Q2151.97 229.89 2156.34 229.89 L2160.37 229.89 Z" fill="#000000" fill-rule="nonzero" fill-opacity="1" /><path clip-path="url(#clip900)" d="M2175.72 252.876 Q2170.56 252.876 2168.57 254.057 Q2166.58 255.237 2166.58 258.085 Q2166.58 260.353 2168.06 261.696 Q2169.56 263.015 2172.13 263.015 Q2175.67 263.015 2177.8 260.515 Q2179.96 257.992 2179.96 253.825 L2179.96 252.876 L2175.72 252.876 M2184.21 251.117 L2184.21 265.909 L2179.96 265.909 L2179.96 261.973 Q2178.5 264.335 2176.32 265.469 Q2174.15 266.58 2171 266.58 Q2167.02 266.58 2164.65 264.358 Q2162.32 262.112 2162.32 258.362 Q2162.32 253.987 2165.23 251.765 Q2168.17 249.543 2173.98 249.543 L2179.96 249.543 L2179.96 249.126 Q2179.96 246.187 2178.01 244.589 Q2176.09 242.969 2172.59 242.969 Q2170.37 242.969 2168.27 243.501 Q2166.16 244.034 2164.22 245.099 L2164.22 241.163 Q2166.55 240.261 2168.75 239.821 Q2170.95 239.358 2173.03 239.358 Q2178.66 239.358 2181.44 242.274 Q2184.21 245.191 2184.21 251.117 Z" fill="#000000" fill-rule="nonzero" fill-opacity="1" /><path clip-path="url(#clip900)" d="M2197.2 232.622 L2197.2 239.983 L2205.97 239.983 L2205.97 243.293 L2197.2 243.293 L2197.2 257.367 Q2197.2 260.538 2198.06 261.441 Q2198.94 262.344 2201.6 262.344 L2205.97 262.344 L2205.97 265.909 L2201.6 265.909 Q2196.67 265.909 2194.79 264.08 Q2192.92 262.228 2192.92 257.367 L2192.92 243.293 L2189.79 243.293 L2189.79 239.983 L2192.92 239.983 L2192.92 232.622 L2197.2 232.622 Z" fill="#000000" fill-rule="nonzero" fill-opacity="1" /></svg>
