<?xml version="1.0" encoding="utf-8"?>
<svg xmlns="http://www.w3.org/2000/svg" xmlns:xlink="http://www.w3.org/1999/xlink" width="600" height="400" viewBox="0 0 2400 1600">
<defs>
  <clipPath id="clip820">
    <rect x="0" y="0" width="2400" height="1600"/>
  </clipPath>
</defs>
<path clip-path="url(#clip820)" d="M0 1600 L2400 1600 L2400 0 L0 0  Z" fill="#ffffff" fill-rule="evenodd" fill-opacity="1"/>
<defs>
  <clipPath id="clip821">
    <rect x="216" y="47" width="2137" height="1440"/>
  </clipPath>
</defs>
<path clip-path="url(#clip820)" d="M216.436 1486.45 L2352.76 1486.45 L2352.76 47.2441 L216.436 47.2441  Z" fill="#ffffff" fill-rule="evenodd" fill-opacity="1"/>
<polyline clip-path="url(#clip821)" style="stroke:#000000; stroke-linecap:round; stroke-linejoin:round; stroke-width:2; stroke-opacity:0.1; fill:none" points="479.455,1486.45 479.455,47.2441 "/>
<polyline clip-path="url(#clip821)" style="stroke:#000000; stroke-linecap:round; stroke-linejoin:round; stroke-width:2; stroke-opacity:0.1; fill:none" points="884.57,1486.45 884.57,47.2441 "/>
<polyline clip-path="url(#clip821)" style="stroke:#000000; stroke-linecap:round; stroke-linejoin:round; stroke-width:2; stroke-opacity:0.1; fill:none" points="1289.69,1486.45 1289.69,47.2441 "/>
<polyline clip-path="url(#clip821)" style="stroke:#000000; stroke-linecap:round; stroke-linejoin:round; stroke-width:2; stroke-opacity:0.1; fill:none" points="1694.8,1486.45 1694.8,47.2441 "/>
<polyline clip-path="url(#clip821)" style="stroke:#000000; stroke-linecap:round; stroke-linejoin:round; stroke-width:2; stroke-opacity:0.1; fill:none" points="2099.92,1486.45 2099.92,47.2441 "/>
<polyline clip-path="url(#clip821)" style="stroke:#000000; stroke-linecap:round; stroke-linejoin:round; stroke-width:2; stroke-opacity:0.1; fill:none" points="216.436,1445.72 2352.76,1445.72 "/>
<polyline clip-path="url(#clip821)" style="stroke:#000000; stroke-linecap:round; stroke-linejoin:round; stroke-width:2; stroke-opacity:0.1; fill:none" points="216.436,1107.09 2352.76,1107.09 "/>
<polyline clip-path="url(#clip821)" style="stroke:#000000; stroke-linecap:round; stroke-linejoin:round; stroke-width:2; stroke-opacity:0.1; fill:none" points="216.436,768.452 2352.76,768.452 "/>
<polyline clip-path="url(#clip821)" style="stroke:#000000; stroke-linecap:round; stroke-linejoin:round; stroke-width:2; stroke-opacity:0.1; fill:none" points="216.436,429.818 2352.76,429.818 "/>
<polyline clip-path="url(#clip821)" style="stroke:#000000; stroke-linecap:round; stroke-linejoin:round; stroke-width:2; stroke-opacity:0.1; fill:none" points="216.436,91.1832 2352.76,91.1832 "/>
<polyline clip-path="url(#clip820)" style="stroke:#000000; stroke-linecap:round; stroke-linejoin:round; stroke-width:4; stroke-opacity:1; fill:none" points="216.436,1486.45 2352.76,1486.45 "/>
<polyline clip-path="url(#clip820)" style="stroke:#000000; stroke-linecap:round; stroke-linejoin:round; stroke-width:4; stroke-opacity:1; fill:none" points="479.455,1486.45 479.455,1467.55 "/>
<polyline clip-path="url(#clip820)" style="stroke:#000000; stroke-linecap:round; stroke-linejoin:round; stroke-width:4; stroke-opacity:1; fill:none" points="884.57,1486.45 884.57,1467.55 "/>
<polyline clip-path="url(#clip820)" style="stroke:#000000; stroke-linecap:round; stroke-linejoin:round; stroke-width:4; stroke-opacity:1; fill:none" points="1289.69,1486.45 1289.69,1467.55 "/>
<polyline clip-path="url(#clip820)" style="stroke:#000000; stroke-linecap:round; stroke-linejoin:round; stroke-width:4; stroke-opacity:1; fill:none" points="1694.8,1486.45 1694.8,1467.55 "/>
<polyline clip-path="url(#clip820)" style="stroke:#000000; stroke-linecap:round; stroke-linejoin:round; stroke-width:4; stroke-opacity:1; fill:none" points="2099.92,1486.45 2099.92,1467.55 "/>
<path clip-path="url(#clip820)" d="M448.356 1532.02 L478.032 1532.02 L478.032 1535.95 L448.356 1535.95 L448.356 1532.02 Z" fill="#000000" fill-rule="nonzero" fill-opacity="1" /><path clip-path="url(#clip820)" d="M500.971 1518.36 L489.166 1536.81 L500.971 1536.81 L500.971 1518.36 M499.745 1514.29 L505.624 1514.29 L505.624 1536.81 L510.555 1536.81 L510.555 1540.7 L505.624 1540.7 L505.624 1548.85 L500.971 1548.85 L500.971 1540.7 L485.37 1540.7 L485.37 1536.19 L499.745 1514.29 Z" fill="#000000" fill-rule="nonzero" fill-opacity="1" /><path clip-path="url(#clip820)" d="M854.513 1532.02 L884.188 1532.02 L884.188 1535.95 L854.513 1535.95 L854.513 1532.02 Z" fill="#000000" fill-rule="nonzero" fill-opacity="1" /><path clip-path="url(#clip820)" d="M898.309 1544.91 L914.628 1544.91 L914.628 1548.85 L892.684 1548.85 L892.684 1544.91 Q895.346 1542.16 899.929 1537.53 Q904.535 1532.88 905.716 1531.53 Q907.961 1529.01 908.841 1527.27 Q909.744 1525.51 909.744 1523.82 Q909.744 1521.07 907.799 1519.33 Q905.878 1517.6 902.776 1517.6 Q900.577 1517.6 898.123 1518.36 Q895.693 1519.13 892.915 1520.68 L892.915 1515.95 Q895.739 1514.82 898.193 1514.24 Q900.647 1513.66 902.684 1513.66 Q908.054 1513.66 911.248 1516.35 Q914.443 1519.03 914.443 1523.52 Q914.443 1525.65 913.633 1527.57 Q912.846 1529.47 910.739 1532.07 Q910.16 1532.74 907.059 1535.95 Q903.957 1539.15 898.309 1544.91 Z" fill="#000000" fill-rule="nonzero" fill-opacity="1" /><path clip-path="url(#clip820)" d="M1289.69 1517.37 Q1286.07 1517.37 1284.25 1520.93 Q1282.44 1524.47 1282.44 1531.6 Q1282.44 1538.71 1284.25 1542.27 Q1286.07 1545.82 1289.69 1545.82 Q1293.32 1545.82 1295.13 1542.27 Q1296.95 1538.71 1296.95 1531.6 Q1296.95 1524.47 1295.13 1520.93 Q1293.32 1517.37 1289.69 1517.37 M1289.69 1513.66 Q1295.5 1513.66 1298.55 1518.27 Q1301.63 1522.85 1301.63 1531.6 Q1301.63 1540.33 1298.55 1544.94 Q1295.5 1549.52 1289.69 1549.52 Q1283.88 1549.52 1280.8 1544.94 Q1277.74 1540.33 1277.74 1531.6 Q1277.74 1522.85 1280.8 1518.27 Q1283.88 1513.66 1289.69 1513.66 Z" fill="#000000" fill-rule="nonzero" fill-opacity="1" /><path clip-path="url(#clip820)" d="M1689.45 1544.91 L1705.77 1544.91 L1705.77 1548.85 L1683.83 1548.85 L1683.83 1544.91 Q1686.49 1542.16 1691.07 1537.53 Q1695.68 1532.88 1696.86 1531.53 Q1699.11 1529.01 1699.99 1527.27 Q1700.89 1525.51 1700.89 1523.82 Q1700.89 1521.07 1698.94 1519.33 Q1697.02 1517.6 1693.92 1517.6 Q1691.72 1517.6 1689.27 1518.36 Q1686.84 1519.13 1684.06 1520.68 L1684.06 1515.95 Q1686.88 1514.82 1689.34 1514.24 Q1691.79 1513.66 1693.83 1513.66 Q1699.2 1513.66 1702.39 1516.35 Q1705.59 1519.03 1705.59 1523.52 Q1705.59 1525.65 1704.78 1527.57 Q1703.99 1529.47 1701.88 1532.07 Q1701.3 1532.74 1698.2 1535.95 Q1695.1 1539.15 1689.45 1544.91 Z" fill="#000000" fill-rule="nonzero" fill-opacity="1" /><path clip-path="url(#clip820)" d="M2102.92 1518.36 L2091.12 1536.81 L2102.92 1536.81 L2102.92 1518.36 M2101.7 1514.29 L2107.58 1514.29 L2107.58 1536.81 L2112.51 1536.81 L2112.51 1540.7 L2107.58 1540.7 L2107.58 1548.85 L2102.92 1548.85 L2102.92 1540.7 L2087.32 1540.7 L2087.32 1536.19 L2101.7 1514.29 Z" fill="#000000" fill-rule="nonzero" fill-opacity="1" /><polyline clip-path="url(#clip820)" style="stroke:#000000; stroke-linecap:round; stroke-linejoin:round; stroke-width:4; stroke-opacity:1; fill:none" points="216.436,1486.45 216.436,47.2441 "/>
<polyline clip-path="url(#clip820)" style="stroke:#000000; stroke-linecap:round; stroke-linejoin:round; stroke-width:4; stroke-opacity:1; fill:none" points="216.436,1445.72 235.334,1445.72 "/>
<polyline clip-path="url(#clip820)" style="stroke:#000000; stroke-linecap:round; stroke-linejoin:round; stroke-width:4; stroke-opacity:1; fill:none" points="216.436,1107.09 235.334,1107.09 "/>
<polyline clip-path="url(#clip820)" style="stroke:#000000; stroke-linecap:round; stroke-linejoin:round; stroke-width:4; stroke-opacity:1; fill:none" points="216.436,768.452 235.334,768.452 "/>
<polyline clip-path="url(#clip820)" style="stroke:#000000; stroke-linecap:round; stroke-linejoin:round; stroke-width:4; stroke-opacity:1; fill:none" points="216.436,429.818 235.334,429.818 "/>
<polyline clip-path="url(#clip820)" style="stroke:#000000; stroke-linecap:round; stroke-linejoin:round; stroke-width:4; stroke-opacity:1; fill:none" points="216.436,91.1832 235.334,91.1832 "/>
<path clip-path="url(#clip820)" d="M62.9365 1431.52 Q59.3254 1431.52 57.4967 1435.08 Q55.6912 1438.63 55.6912 1445.76 Q55.6912 1452.86 57.4967 1456.43 Q59.3254 1459.97 62.9365 1459.97 Q66.5707 1459.97 68.3763 1456.43 Q70.205 1452.86 70.205 1445.76 Q70.205 1438.63 68.3763 1435.08 Q66.5707 1431.52 62.9365 1431.52 M62.9365 1427.82 Q68.7467 1427.82 71.8022 1432.42 Q74.8809 1437.01 74.8809 1445.76 Q74.8809 1454.48 71.8022 1459.09 Q68.7467 1463.67 62.9365 1463.67 Q57.1264 1463.67 54.0477 1459.09 Q50.9921 1454.48 50.9921 1445.76 Q50.9921 1437.01 54.0477 1432.42 Q57.1264 1427.82 62.9365 1427.82 Z" fill="#000000" fill-rule="nonzero" fill-opacity="1" /><path clip-path="url(#clip820)" d="M83.0984 1457.12 L87.9827 1457.12 L87.9827 1463 L83.0984 1463 L83.0984 1457.12 Z" fill="#000000" fill-rule="nonzero" fill-opacity="1" /><path clip-path="url(#clip820)" d="M108.168 1431.52 Q104.557 1431.52 102.728 1435.08 Q100.922 1438.63 100.922 1445.76 Q100.922 1452.86 102.728 1456.43 Q104.557 1459.97 108.168 1459.97 Q111.802 1459.97 113.608 1456.43 Q115.436 1452.86 115.436 1445.76 Q115.436 1438.63 113.608 1435.08 Q111.802 1431.52 108.168 1431.52 M108.168 1427.82 Q113.978 1427.82 117.033 1432.42 Q120.112 1437.01 120.112 1445.76 Q120.112 1454.48 117.033 1459.09 Q113.978 1463.67 108.168 1463.67 Q102.358 1463.67 99.2789 1459.09 Q96.2234 1454.48 96.2234 1445.76 Q96.2234 1437.01 99.2789 1432.42 Q102.358 1427.82 108.168 1427.82 Z" fill="#000000" fill-rule="nonzero" fill-opacity="1" /><path clip-path="url(#clip820)" d="M138.33 1431.52 Q134.719 1431.52 132.89 1435.08 Q131.084 1438.63 131.084 1445.76 Q131.084 1452.86 132.89 1456.43 Q134.719 1459.97 138.33 1459.97 Q141.964 1459.97 143.769 1456.43 Q145.598 1452.86 145.598 1445.76 Q145.598 1438.63 143.769 1435.08 Q141.964 1431.52 138.33 1431.52 M138.33 1427.82 Q144.14 1427.82 147.195 1432.42 Q150.274 1437.01 150.274 1445.76 Q150.274 1454.48 147.195 1459.09 Q144.14 1463.67 138.33 1463.67 Q132.519 1463.67 129.441 1459.09 Q126.385 1454.48 126.385 1445.76 Q126.385 1437.01 129.441 1432.42 Q132.519 1427.82 138.33 1427.82 Z" fill="#000000" fill-rule="nonzero" fill-opacity="1" /><path clip-path="url(#clip820)" d="M168.491 1431.52 Q164.88 1431.52 163.052 1435.08 Q161.246 1438.63 161.246 1445.76 Q161.246 1452.86 163.052 1456.43 Q164.88 1459.97 168.491 1459.97 Q172.126 1459.97 173.931 1456.43 Q175.76 1452.86 175.76 1445.76 Q175.76 1438.63 173.931 1435.08 Q172.126 1431.52 168.491 1431.52 M168.491 1427.82 Q174.302 1427.82 177.357 1432.42 Q180.436 1437.01 180.436 1445.76 Q180.436 1454.48 177.357 1459.09 Q174.302 1463.67 168.491 1463.67 Q162.681 1463.67 159.603 1459.09 Q156.547 1454.48 156.547 1445.76 Q156.547 1437.01 159.603 1432.42 Q162.681 1427.82 168.491 1427.82 Z" fill="#000000" fill-rule="nonzero" fill-opacity="1" /><path clip-path="url(#clip820)" d="M63.9319 1092.89 Q60.3208 1092.89 58.4921 1096.45 Q56.6865 1099.99 56.6865 1107.12 Q56.6865 1114.23 58.4921 1117.79 Q60.3208 1121.33 63.9319 1121.33 Q67.5661 1121.33 69.3717 1117.79 Q71.2004 1114.23 71.2004 1107.12 Q71.2004 1099.99 69.3717 1096.45 Q67.5661 1092.89 63.9319 1092.89 M63.9319 1089.18 Q69.742 1089.18 72.7976 1093.79 Q75.8763 1098.37 75.8763 1107.12 Q75.8763 1115.85 72.7976 1120.45 Q69.742 1125.04 63.9319 1125.04 Q58.1217 1125.04 55.043 1120.45 Q51.9875 1115.85 51.9875 1107.12 Q51.9875 1098.37 55.043 1093.79 Q58.1217 1089.18 63.9319 1089.18 Z" fill="#000000" fill-rule="nonzero" fill-opacity="1" /><path clip-path="url(#clip820)" d="M84.0938 1118.49 L88.978 1118.49 L88.978 1124.37 L84.0938 1124.37 L84.0938 1118.49 Z" fill="#000000" fill-rule="nonzero" fill-opacity="1" /><path clip-path="url(#clip820)" d="M109.163 1092.89 Q105.552 1092.89 103.723 1096.45 Q101.918 1099.99 101.918 1107.12 Q101.918 1114.23 103.723 1117.79 Q105.552 1121.33 109.163 1121.33 Q112.797 1121.33 114.603 1117.79 Q116.432 1114.23 116.432 1107.12 Q116.432 1099.99 114.603 1096.45 Q112.797 1092.89 109.163 1092.89 M109.163 1089.18 Q114.973 1089.18 118.029 1093.79 Q121.107 1098.37 121.107 1107.12 Q121.107 1115.85 118.029 1120.45 Q114.973 1125.04 109.163 1125.04 Q103.353 1125.04 100.274 1120.45 Q97.2187 1115.85 97.2187 1107.12 Q97.2187 1098.37 100.274 1093.79 Q103.353 1089.18 109.163 1089.18 Z" fill="#000000" fill-rule="nonzero" fill-opacity="1" /><path clip-path="url(#clip820)" d="M139.325 1092.89 Q135.714 1092.89 133.885 1096.45 Q132.08 1099.99 132.08 1107.12 Q132.08 1114.23 133.885 1117.79 Q135.714 1121.33 139.325 1121.33 Q142.959 1121.33 144.765 1117.79 Q146.593 1114.23 146.593 1107.12 Q146.593 1099.99 144.765 1096.45 Q142.959 1092.89 139.325 1092.89 M139.325 1089.18 Q145.135 1089.18 148.191 1093.79 Q151.269 1098.37 151.269 1107.12 Q151.269 1115.85 148.191 1120.45 Q145.135 1125.04 139.325 1125.04 Q133.515 1125.04 130.436 1120.45 Q127.381 1115.85 127.381 1107.12 Q127.381 1098.37 130.436 1093.79 Q133.515 1089.18 139.325 1089.18 Z" fill="#000000" fill-rule="nonzero" fill-opacity="1" /><path clip-path="url(#clip820)" d="M159.533 1089.81 L177.89 1089.81 L177.89 1093.74 L163.816 1093.74 L163.816 1102.21 Q164.834 1101.87 165.853 1101.7 Q166.871 1101.52 167.89 1101.52 Q173.677 1101.52 177.056 1104.69 Q180.436 1107.86 180.436 1113.28 Q180.436 1118.86 176.964 1121.96 Q173.491 1125.04 167.172 1125.04 Q164.996 1125.04 162.728 1124.67 Q160.482 1124.3 158.075 1123.56 L158.075 1118.86 Q160.158 1119.99 162.38 1120.55 Q164.603 1121.1 167.079 1121.1 Q171.084 1121.1 173.422 1119 Q175.76 1116.89 175.76 1113.28 Q175.76 1109.67 173.422 1107.56 Q171.084 1105.45 167.079 1105.45 Q165.204 1105.45 163.329 1105.87 Q161.478 1106.29 159.533 1107.17 L159.533 1089.81 Z" fill="#000000" fill-rule="nonzero" fill-opacity="1" /><path clip-path="url(#clip820)" d="M62.9365 754.251 Q59.3254 754.251 57.4967 757.816 Q55.6912 761.357 55.6912 768.487 Q55.6912 775.593 57.4967 779.158 Q59.3254 782.7 62.9365 782.7 Q66.5707 782.7 68.3763 779.158 Q70.205 775.593 70.205 768.487 Q70.205 761.357 68.3763 757.816 Q66.5707 754.251 62.9365 754.251 M62.9365 750.547 Q68.7467 750.547 71.8022 755.154 Q74.8809 759.737 74.8809 768.487 Q74.8809 777.214 71.8022 781.82 Q68.7467 786.404 62.9365 786.404 Q57.1264 786.404 54.0477 781.82 Q50.9921 777.214 50.9921 768.487 Q50.9921 759.737 54.0477 755.154 Q57.1264 750.547 62.9365 750.547 Z" fill="#000000" fill-rule="nonzero" fill-opacity="1" /><path clip-path="url(#clip820)" d="M83.0984 779.853 L87.9827 779.853 L87.9827 785.732 L83.0984 785.732 L83.0984 779.853 Z" fill="#000000" fill-rule="nonzero" fill-opacity="1" /><path clip-path="url(#clip820)" d="M108.168 754.251 Q104.557 754.251 102.728 757.816 Q100.922 761.357 100.922 768.487 Q100.922 775.593 102.728 779.158 Q104.557 782.7 108.168 782.7 Q111.802 782.7 113.608 779.158 Q115.436 775.593 115.436 768.487 Q115.436 761.357 113.608 757.816 Q111.802 754.251 108.168 754.251 M108.168 750.547 Q113.978 750.547 117.033 755.154 Q120.112 759.737 120.112 768.487 Q120.112 777.214 117.033 781.82 Q113.978 786.404 108.168 786.404 Q102.358 786.404 99.2789 781.82 Q96.2234 777.214 96.2234 768.487 Q96.2234 759.737 99.2789 755.154 Q102.358 750.547 108.168 750.547 Z" fill="#000000" fill-rule="nonzero" fill-opacity="1" /><path clip-path="url(#clip820)" d="M129.14 781.797 L136.779 781.797 L136.779 755.432 L128.469 757.098 L128.469 752.839 L136.732 751.172 L141.408 751.172 L141.408 781.797 L149.047 781.797 L149.047 785.732 L129.14 785.732 L129.14 781.797 Z" fill="#000000" fill-rule="nonzero" fill-opacity="1" /><path clip-path="url(#clip820)" d="M168.491 754.251 Q164.88 754.251 163.052 757.816 Q161.246 761.357 161.246 768.487 Q161.246 775.593 163.052 779.158 Q164.88 782.7 168.491 782.7 Q172.126 782.7 173.931 779.158 Q175.76 775.593 175.76 768.487 Q175.76 761.357 173.931 757.816 Q172.126 754.251 168.491 754.251 M168.491 750.547 Q174.302 750.547 177.357 755.154 Q180.436 759.737 180.436 768.487 Q180.436 777.214 177.357 781.82 Q174.302 786.404 168.491 786.404 Q162.681 786.404 159.603 781.82 Q156.547 777.214 156.547 768.487 Q156.547 759.737 159.603 755.154 Q162.681 750.547 168.491 750.547 Z" fill="#000000" fill-rule="nonzero" fill-opacity="1" /><path clip-path="url(#clip820)" d="M63.9319 415.616 Q60.3208 415.616 58.4921 419.181 Q56.6865 422.723 56.6865 429.852 Q56.6865 436.959 58.4921 440.524 Q60.3208 444.065 63.9319 444.065 Q67.5661 444.065 69.3717 440.524 Q71.2004 436.959 71.2004 429.852 Q71.2004 422.723 69.3717 419.181 Q67.5661 415.616 63.9319 415.616 M63.9319 411.913 Q69.742 411.913 72.7976 416.519 Q75.8763 421.103 75.8763 429.852 Q75.8763 438.579 72.7976 443.186 Q69.742 447.769 63.9319 447.769 Q58.1217 447.769 55.043 443.186 Q51.9875 438.579 51.9875 429.852 Q51.9875 421.103 55.043 416.519 Q58.1217 411.913 63.9319 411.913 Z" fill="#000000" fill-rule="nonzero" fill-opacity="1" /><path clip-path="url(#clip820)" d="M84.0938 441.218 L88.978 441.218 L88.978 447.098 L84.0938 447.098 L84.0938 441.218 Z" fill="#000000" fill-rule="nonzero" fill-opacity="1" /><path clip-path="url(#clip820)" d="M109.163 415.616 Q105.552 415.616 103.723 419.181 Q101.918 422.723 101.918 429.852 Q101.918 436.959 103.723 440.524 Q105.552 444.065 109.163 444.065 Q112.797 444.065 114.603 440.524 Q116.432 436.959 116.432 429.852 Q116.432 422.723 114.603 419.181 Q112.797 415.616 109.163 415.616 M109.163 411.913 Q114.973 411.913 118.029 416.519 Q121.107 421.103 121.107 429.852 Q121.107 438.579 118.029 443.186 Q114.973 447.769 109.163 447.769 Q103.353 447.769 100.274 443.186 Q97.2187 438.579 97.2187 429.852 Q97.2187 421.103 100.274 416.519 Q103.353 411.913 109.163 411.913 Z" fill="#000000" fill-rule="nonzero" fill-opacity="1" /><path clip-path="url(#clip820)" d="M130.135 443.163 L137.774 443.163 L137.774 416.797 L129.464 418.464 L129.464 414.204 L137.728 412.538 L142.404 412.538 L142.404 443.163 L150.043 443.163 L150.043 447.098 L130.135 447.098 L130.135 443.163 Z" fill="#000000" fill-rule="nonzero" fill-opacity="1" /><path clip-path="url(#clip820)" d="M159.533 412.538 L177.89 412.538 L177.89 416.473 L163.816 416.473 L163.816 424.945 Q164.834 424.598 165.853 424.436 Q166.871 424.251 167.89 424.251 Q173.677 424.251 177.056 427.422 Q180.436 430.593 180.436 436.01 Q180.436 441.589 176.964 444.69 Q173.491 447.769 167.172 447.769 Q164.996 447.769 162.728 447.399 Q160.482 447.028 158.075 446.288 L158.075 441.589 Q160.158 442.723 162.38 443.278 Q164.603 443.834 167.079 443.834 Q171.084 443.834 173.422 441.727 Q175.76 439.621 175.76 436.01 Q175.76 432.399 173.422 430.292 Q171.084 428.186 167.079 428.186 Q165.204 428.186 163.329 428.602 Q161.478 429.019 159.533 429.899 L159.533 412.538 Z" fill="#000000" fill-rule="nonzero" fill-opacity="1" /><path clip-path="url(#clip820)" d="M62.9365 76.9819 Q59.3254 76.9819 57.4967 80.5467 Q55.6912 84.0883 55.6912 91.2179 Q55.6912 98.3244 57.4967 101.889 Q59.3254 105.431 62.9365 105.431 Q66.5707 105.431 68.3763 101.889 Q70.205 98.3244 70.205 91.2179 Q70.205 84.0883 68.3763 80.5467 Q66.5707 76.9819 62.9365 76.9819 M62.9365 73.2782 Q68.7467 73.2782 71.8022 77.8847 Q74.8809 82.468 74.8809 91.2179 Q74.8809 99.9447 71.8022 104.551 Q68.7467 109.134 62.9365 109.134 Q57.1264 109.134 54.0477 104.551 Q50.9921 99.9447 50.9921 91.2179 Q50.9921 82.468 54.0477 77.8847 Q57.1264 73.2782 62.9365 73.2782 Z" fill="#000000" fill-rule="nonzero" fill-opacity="1" /><path clip-path="url(#clip820)" d="M83.0984 102.584 L87.9827 102.584 L87.9827 108.463 L83.0984 108.463 L83.0984 102.584 Z" fill="#000000" fill-rule="nonzero" fill-opacity="1" /><path clip-path="url(#clip820)" d="M108.168 76.9819 Q104.557 76.9819 102.728 80.5467 Q100.922 84.0883 100.922 91.2179 Q100.922 98.3244 102.728 101.889 Q104.557 105.431 108.168 105.431 Q111.802 105.431 113.608 101.889 Q115.436 98.3244 115.436 91.2179 Q115.436 84.0883 113.608 80.5467 Q111.802 76.9819 108.168 76.9819 M108.168 73.2782 Q113.978 73.2782 117.033 77.8847 Q120.112 82.468 120.112 91.2179 Q120.112 99.9447 117.033 104.551 Q113.978 109.134 108.168 109.134 Q102.358 109.134 99.2789 104.551 Q96.2234 99.9447 96.2234 91.2179 Q96.2234 82.468 99.2789 77.8847 Q102.358 73.2782 108.168 73.2782 Z" fill="#000000" fill-rule="nonzero" fill-opacity="1" /><path clip-path="url(#clip820)" d="M132.357 104.528 L148.677 104.528 L148.677 108.463 L126.732 108.463 L126.732 104.528 Q129.394 101.773 133.978 97.1438 Q138.584 92.4911 139.765 91.1485 Q142.01 88.6253 142.89 86.8892 Q143.793 85.13 143.793 83.4402 Q143.793 80.6856 141.848 78.9495 Q139.927 77.2134 136.825 77.2134 Q134.626 77.2134 132.172 77.9773 Q129.742 78.7411 126.964 80.2921 L126.964 75.5699 Q129.788 74.4356 132.242 73.8569 Q134.695 73.2782 136.732 73.2782 Q142.103 73.2782 145.297 75.9634 Q148.492 78.6485 148.492 83.1393 Q148.492 85.2689 147.681 87.1902 Q146.894 89.0883 144.788 91.6809 Q144.209 92.3522 141.107 95.5697 Q138.006 98.7642 132.357 104.528 Z" fill="#000000" fill-rule="nonzero" fill-opacity="1" /><path clip-path="url(#clip820)" d="M168.491 76.9819 Q164.88 76.9819 163.052 80.5467 Q161.246 84.0883 161.246 91.2179 Q161.246 98.3244 163.052 101.889 Q164.88 105.431 168.491 105.431 Q172.126 105.431 173.931 101.889 Q175.76 98.3244 175.76 91.2179 Q175.76 84.0883 173.931 80.5467 Q172.126 76.9819 168.491 76.9819 M168.491 73.2782 Q174.302 73.2782 177.357 77.8847 Q180.436 82.468 180.436 91.2179 Q180.436 99.9447 177.357 104.551 Q174.302 109.134 168.491 109.134 Q162.681 109.134 159.603 104.551 Q156.547 99.9447 156.547 91.2179 Q156.547 82.468 159.603 77.8847 Q162.681 73.2782 168.491 73.2782 Z" fill="#000000" fill-rule="nonzero" fill-opacity="1" /><polyline clip-path="url(#clip821)" style="stroke:#009af9; stroke-linecap:round; stroke-linejoin:round; stroke-width:4; stroke-opacity:1; fill:none" points="276.898,1445.72 287.077,1445.71 297.255,1445.71 307.434,1445.71 317.613,1445.71 327.792,1445.7 337.97,1445.7 348.149,1445.69 358.328,1445.68 368.507,1445.67 378.685,1445.66 388.864,1445.64 399.043,1445.63 409.222,1445.6 419.401,1445.57 429.579,1445.54 439.758,1445.49 449.937,1445.44 460.116,1445.38 470.294,1445.3 480.473,1445.21 490.652,1445.1 500.831,1444.96 511.009,1444.8 521.188,1444.6 531.367,1444.37 541.546,1444.1 551.725,1443.77 561.903,1443.38 572.082,1442.93 582.261,1442.39 592.44,1441.76 602.618,1441.03 612.797,1440.17 622.976,1439.17 633.155,1438.02 643.333,1436.68 653.512,1435.13 663.691,1433.35 673.87,1431.31 684.049,1428.97 694.227,1426.3 704.406,1423.27 714.585,1419.83 724.764,1415.93 734.942,1411.53 745.121,1406.59 755.3,1401.04 765.479,1394.84 775.657,1387.92 785.836,1380.22 796.015,1371.68 806.194,1362.25 816.373,1351.85 826.551,1340.42 836.73,1327.9 846.909,1314.22 857.088,1299.32 867.266,1283.14 877.445,1265.64 887.624,1246.75 897.803,1226.43 907.981,1204.65 918.16,1181.38 928.339,1156.58 938.518,1130.26 948.697,1102.42 958.875,1073.05 969.054,1042.2 979.233,1009.89 989.412,976.188 999.59,941.151 1009.77,904.867 1019.95,867.436 1030.13,828.974 1040.31,789.613 1050.48,749.5 1060.66,708.797 1070.84,667.683 1081.02,626.346 1091.2,584.989 1101.38,543.825 1111.56,503.075 1121.74,462.97 1131.91,423.742 1142.09,385.628 1152.27,348.867 1162.45,313.692 1172.63,280.337 1182.81,249.024 1192.99,219.969 1203.17,193.375 1213.34,169.43 1223.52,148.309 1233.7,130.164 1243.88,115.13 1254.06,103.317 1264.24,94.8161 1274.42,89.6895 1284.6,87.9763 1294.77,89.6895 1304.95,94.8161 1315.13,103.317 1325.31,115.13 1335.49,130.164 1345.67,148.309 1355.85,169.43 1366.03,193.375 1376.2,219.969 1386.38,249.024 1396.56,280.337 1406.74,313.692 1416.92,348.867 1427.1,385.628 1437.28,423.742 1447.46,462.97 1457.63,503.075 1467.81,543.825 1477.99,584.989 1488.17,626.346 1498.35,667.683 1508.53,708.797 1518.71,749.5 1528.89,789.613 1539.07,828.974 1549.24,867.436 1559.42,904.867 1569.6,941.151 1579.78,976.188 1589.96,1009.89 1600.14,1042.2 1610.32,1073.05 1620.5,1102.42 1630.67,1130.26 1640.85,1156.58 1651.03,1181.38 1661.21,1204.65 1671.39,1226.43 1681.57,1246.75 1691.75,1265.64 1701.93,1283.14 1712.1,1299.32 1722.28,1314.22 1732.46,1327.9 1742.64,1340.42 1752.82,1351.85 1763,1362.25 1773.18,1371.68 1783.36,1380.22 1793.53,1387.92 1803.71,1394.84 1813.89,1401.04 1824.07,1406.59 1834.25,1411.53 1844.43,1415.93 1854.61,1419.83 1864.79,1423.27 1874.96,1426.3 1885.14,1428.97 1895.32,1431.31 1905.5,1433.35 1915.68,1435.13 1925.86,1436.68 1936.04,1438.02 1946.22,1439.17 1956.39,1440.17 1966.57,1441.03 1976.75,1441.76 1986.93,1442.39 1997.11,1442.93 2007.29,1443.38 2017.47,1443.77 2027.65,1444.1 2037.82,1444.37 2048,1444.6 2058.18,1444.8 2068.36,1444.96 2078.54,1445.1 2088.72,1445.21 2098.9,1445.3 2109.08,1445.38 2119.25,1445.44 2129.43,1445.49 2139.61,1445.54 2149.79,1445.57 2159.97,1445.6 2170.15,1445.63 2180.33,1445.64 2190.51,1445.66 2200.69,1445.67 2210.86,1445.68 2221.04,1445.69 2231.22,1445.7 2241.4,1445.7 2251.58,1445.71 2261.76,1445.71 2271.94,1445.71 2282.12,1445.71 2292.29,1445.72 "/>
<path clip-path="url(#clip820)" d="M2015.48 198.898 L2281.55 198.898 L2281.55 95.2176 L2015.48 95.2176  Z" fill="#ffffff" fill-rule="evenodd" fill-opacity="1"/>
<polyline clip-path="url(#clip820)" style="stroke:#000000; stroke-linecap:round; stroke-linejoin:round; stroke-width:4; stroke-opacity:1; fill:none" points="2015.48,198.898 2281.55,198.898 2281.55,95.2176 2015.48,95.2176 2015.48,198.898 "/>
<polyline clip-path="url(#clip820)" style="stroke:#009af9; stroke-linecap:round; stroke-linejoin:round; stroke-width:4; stroke-opacity:1; fill:none" points="2039.22,147.058 2181.64,147.058 "/>
<path clip-path="url(#clip820)" d="M2219.22 166.745 Q2217.42 171.375 2215.7 172.787 Q2213.99 174.199 2211.12 174.199 L2207.72 174.199 L2207.72 170.634 L2210.22 170.634 Q2211.98 170.634 2212.95 169.8 Q2213.92 168.967 2215.1 165.865 L2215.86 163.921 L2205.38 138.412 L2209.89 138.412 L2217.99 158.689 L2226.1 138.412 L2230.61 138.412 L2219.22 166.745 Z" fill="#000000" fill-rule="nonzero" fill-opacity="1" /><path clip-path="url(#clip820)" d="M2237.9 160.402 L2245.54 160.402 L2245.54 134.037 L2237.23 135.703 L2237.23 131.444 L2245.49 129.778 L2250.17 129.778 L2250.17 160.402 L2257.81 160.402 L2257.81 164.338 L2237.9 164.338 L2237.9 160.402 Z" fill="#000000" fill-rule="nonzero" fill-opacity="1" /></svg>
