<?xml version="1.0" encoding="UTF-8"?>
<svg xmlns="http://www.w3.org/2000/svg" xmlns:xlink="http://www.w3.org/1999/xlink" width="300" height="300" viewBox="0 0 300 300">
<path fill-rule="nonzero" fill="rgb(79.6%, 23.5%, 20%)" fill-opacity="1" d="M 117.484375 211.253906 C 117.445312 211.257812 117.40625 211.261719 117.367188 211.269531 L 113.519531 212.019531 C 113.5 212.023438 113.480469 212.027344 113.464844 212.03125 L 110.898438 212.683594 C 110.882812 212.6875 110.871094 212.691406 110.855469 212.695312 L 108.917969 213.28125 C 108.90625 213.285156 108.894531 213.289062 108.882812 213.292969 L 107.320312 213.828125 C 107.308594 213.832031 107.300781 213.835938 107.289062 213.839844 L 105.984375 214.335938 C 105.972656 214.339844 105.964844 214.34375 105.957031 214.347656 L 104.832031 214.8125 C 104.824219 214.816406 104.8125 214.820312 104.804688 214.824219 L 103.820312 215.261719 C 103.8125 215.265625 103.804688 215.269531 103.796875 215.273438 L 102.917969 215.691406 C 102.910156 215.695312 102.902344 215.699219 102.898438 215.699219 L 102.101562 216.101562 C 102.097656 216.105469 102.089844 216.105469 102.085938 216.109375 L 101.359375 216.496094 C 101.355469 216.496094 101.347656 216.5 101.34375 216.503906 L 100.675781 216.875 C 100.671875 216.878906 100.667969 216.882812 100.660156 216.882812 L 100.042969 217.242188 C 100.039062 217.246094 100.035156 217.25 100.027344 217.253906 L 99.453125 217.601562 C 99.449219 217.605469 99.445312 217.605469 99.441406 217.609375 L 98.902344 217.949219 C 98.894531 217.953125 98.890625 217.957031 98.886719 217.960938 L 98.378906 218.292969 C 98.375 218.296875 98.371094 218.296875 98.367188 218.300781 L 97.882812 218.628906 C 97.878906 218.632812 97.875 218.632812 97.871094 218.636719 L 97.414062 218.957031 C 97.410156 218.960938 97.40625 218.964844 97.402344 218.96875 L 96.964844 219.285156 C 96.960938 219.285156 96.957031 219.289062 96.953125 219.292969 L 96.535156 219.605469 C 96.53125 219.609375 96.527344 219.609375 96.523438 219.613281 L 96.121094 219.925781 C 96.117188 219.925781 96.113281 219.929688 96.109375 219.933594 L 95.722656 220.242188 C 95.71875 220.242188 95.714844 220.246094 95.710938 220.25 L 95.335938 220.554688 C 95.332031 220.558594 95.328125 220.5625 95.324219 220.566406 L 94.960938 220.871094 C 94.957031 220.875 94.953125 220.878906 94.953125 220.878906 L 94.597656 221.1875 C 94.59375 221.1875 94.589844 221.191406 94.585938 221.195312 L 94.242188 221.5 C 94.238281 221.503906 94.234375 221.507812 94.230469 221.511719 L 93.894531 221.816406 C 93.890625 221.820312 93.886719 221.824219 93.882812 221.828125 L 93.554688 222.136719 C 93.550781 222.140625 93.546875 222.144531 93.542969 222.144531 L 93.21875 222.457031 C 93.214844 222.460938 93.210938 222.464844 93.210938 222.46875 L 92.890625 222.785156 C 92.886719 222.785156 92.882812 222.789062 92.878906 222.792969 L 92.5625 223.113281 C 92.5625 223.117188 92.558594 223.121094 92.554688 223.121094 L 92.242188 223.449219 C 92.238281 223.449219 92.234375 223.453125 92.234375 223.457031 L 91.921875 223.789062 C 91.921875 223.792969 91.917969 223.792969 91.914062 223.796875 L 91.605469 224.136719 C 91.601562 224.140625 91.601562 224.140625 91.597656 224.144531 L 91.289062 224.492188 C 91.289062 224.496094 91.285156 224.496094 91.28125 224.5 L 90.976562 224.855469 C 90.972656 224.859375 90.96875 224.863281 90.96875 224.867188 L 90.660156 225.230469 C 90.660156 225.234375 90.65625 225.238281 90.652344 225.238281 L 90.347656 225.617188 C 90.34375 225.617188 90.339844 225.621094 90.335938 225.625 L 90.027344 226.015625 C 90.027344 226.019531 90.023438 226.019531 90.019531 226.023438 L 89.710938 226.425781 C 89.707031 226.429688 89.703125 226.433594 89.703125 226.4375 L 89.386719 226.855469 C 89.386719 226.859375 89.382812 226.863281 89.378906 226.871094 L 89.0625 227.304688 C 89.058594 227.308594 89.058594 227.3125 89.054688 227.316406 L 88.734375 227.773438 C 88.730469 227.78125 88.726562 227.785156 88.722656 227.789062 L 88.398438 228.269531 C 88.394531 228.273438 88.390625 228.277344 88.390625 228.28125 L 88.054688 228.789062 C 88.054688 228.796875 88.050781 228.800781 88.046875 228.804688 L 87.707031 229.34375 C 87.703125 229.347656 87.699219 229.351562 87.699219 229.359375 L 87.347656 229.933594 C 87.34375 229.9375 87.34375 229.941406 87.339844 229.949219 L 86.980469 230.566406 C 86.976562 230.570312 86.972656 230.574219 86.972656 230.582031 L 86.601562 231.246094 C 86.597656 231.253906 86.59375 231.257812 86.589844 231.265625 L 86.207031 231.988281 C 86.203125 231.992188 86.199219 232 86.195312 232.007812 L 85.796875 232.800781 C 85.792969 232.808594 85.789062 232.8125 85.785156 232.820312 L 85.367188 233.699219 C 85.367188 233.707031 85.363281 233.714844 85.359375 233.722656 L 84.917969 234.710938 C 84.914062 234.71875 84.910156 234.726562 84.90625 234.734375 L 84.441406 235.859375 C 84.4375 235.867188 84.433594 235.878906 84.433594 235.886719 L 83.933594 237.195312 C 83.929688 237.203125 83.925781 237.214844 83.921875 237.222656 L 83.386719 238.785156 C 83.382812 238.796875 83.378906 238.808594 83.375 238.820312 L 82.789062 240.757812 C 82.785156 240.773438 82.78125 240.789062 82.777344 240.800781 L 82.125 243.367188 C 82.121094 243.386719 82.117188 243.40625 82.113281 243.421875 L 81.367188 247.273438 C 81.359375 247.3125 81.351562 247.351562 81.351562 247.390625 L 81.355469 247.332031 C 81.265625 248.53125 79.503906 248.53125 79.414062 247.332031 L 79.417969 247.390625 C 79.417969 247.351562 79.410156 247.3125 79.402344 247.273438 L 78.65625 243.421875 C 78.652344 243.40625 78.648438 243.386719 78.644531 243.367188 L 77.992188 240.800781 C 77.988281 240.789062 77.984375 240.773438 77.980469 240.757812 L 77.394531 238.820312 C 77.390625 238.808594 77.386719 238.796875 77.382812 238.785156 L 76.847656 237.222656 C 76.84375 237.214844 76.839844 237.203125 76.835938 237.195312 L 76.335938 235.886719 C 76.335938 235.878906 76.332031 235.867188 76.328125 235.859375 L 75.863281 234.734375 C 75.859375 234.726562 75.855469 234.71875 75.851562 234.710938 L 75.410156 233.722656 C 75.40625 233.714844 75.402344 233.707031 75.402344 233.699219 L 74.984375 232.820312 C 74.980469 232.8125 74.976562 232.808594 74.972656 232.800781 L 74.574219 232.007812 C 74.570312 232 74.566406 231.992188 74.5625 231.988281 L 74.179688 231.265625 C 74.175781 231.257812 74.171875 231.253906 74.167969 231.246094 L 73.796875 230.582031 C 73.796875 230.574219 73.792969 230.570312 73.789062 230.566406 L 73.429688 229.949219 C 73.425781 229.941406 73.425781 229.9375 73.421875 229.933594 L 73.070312 229.359375 C 73.070312 229.351562 73.066406 229.347656 73.0625 229.34375 L 72.722656 228.804688 C 72.71875 228.800781 72.714844 228.796875 72.714844 228.789062 L 72.378906 228.28125 C 72.378906 228.277344 72.375 228.273438 72.371094 228.269531 L 72.046875 227.789062 C 72.042969 227.785156 72.039062 227.78125 72.035156 227.773438 L 71.714844 227.316406 C 71.710938 227.3125 71.710938 227.308594 71.707031 227.304688 L 71.390625 226.871094 C 71.386719 226.863281 71.382812 226.859375 71.382812 226.855469 L 71.066406 226.4375 C 71.066406 226.433594 71.0625 226.429688 71.058594 226.425781 L 70.75 226.023438 C 70.746094 226.019531 70.742188 226.019531 70.742188 226.015625 L 70.433594 225.625 C 70.429688 225.621094 70.425781 225.617188 70.421875 225.617188 L 70.117188 225.238281 C 70.113281 225.238281 70.109375 225.234375 70.109375 225.230469 L 69.800781 224.867188 C 69.800781 224.863281 69.796875 224.859375 69.792969 224.855469 L 69.488281 224.5 C 69.484375 224.496094 69.480469 224.496094 69.476562 224.492188 L 69.171875 224.144531 C 69.167969 224.140625 69.164062 224.140625 69.164062 224.136719 L 68.855469 223.796875 C 68.851562 223.792969 68.847656 223.792969 68.847656 223.789062 L 68.535156 223.457031 C 68.535156 223.453125 68.53125 223.449219 68.527344 223.449219 L 68.214844 223.121094 C 68.210938 223.121094 68.207031 223.117188 68.207031 223.113281 L 67.890625 222.792969 C 67.886719 222.789062 67.882812 222.785156 67.878906 222.785156 L 67.558594 222.46875 C 67.558594 222.464844 67.554688 222.460938 67.550781 222.457031 L 67.226562 222.144531 C 67.222656 222.144531 67.21875 222.140625 67.214844 222.136719 L 66.886719 221.828125 C 66.882812 221.824219 66.878906 221.820312 66.875 221.816406 L 66.539062 221.511719 C 66.535156 221.507812 66.53125 221.503906 66.527344 221.5 L 66.183594 221.195312 C 66.179688 221.191406 66.175781 221.1875 66.171875 221.1875 L 65.816406 220.878906 C 65.816406 220.878906 65.8125 220.875 65.808594 220.871094 L 65.445312 220.566406 C 65.441406 220.5625 65.4375 220.558594 65.433594 220.554688 L 65.058594 220.25 C 65.054688 220.246094 65.050781 220.242188 65.046875 220.242188 L 64.660156 219.933594 C 64.65625 219.929688 64.652344 219.925781 64.648438 219.925781 L 64.246094 219.613281 C 64.242188 219.609375 64.238281 219.609375 64.234375 219.605469 L 63.816406 219.292969 C 63.8125 219.289062 63.808594 219.285156 63.804688 219.285156 L 63.367188 218.96875 C 63.363281 218.964844 63.359375 218.960938 63.355469 218.957031 L 62.898438 218.636719 C 62.894531 218.632812 62.890625 218.632812 62.886719 218.628906 L 62.402344 218.300781 C 62.398438 218.296875 62.394531 218.296875 62.390625 218.292969 L 61.882812 217.960938 C 61.878906 217.957031 61.875 217.953125 61.867188 217.949219 L 61.328125 217.609375 C 61.324219 217.605469 61.320312 217.605469 61.316406 217.601562 L 60.742188 217.253906 C 60.734375 217.25 60.730469 217.246094 60.726562 217.242188 L 60.109375 216.882812 C 60.101562 216.882812 60.097656 216.878906 60.09375 216.875 L 59.425781 216.503906 C 59.421875 216.5 59.414062 216.496094 59.410156 216.496094 L 58.683594 216.109375 C 58.679688 216.105469 58.671875 216.105469 58.667969 216.101562 L 57.871094 215.699219 C 57.867188 215.699219 57.859375 215.695312 57.851562 215.691406 L 56.972656 215.273438 C 56.964844 215.269531 56.957031 215.265625 56.949219 215.261719 L 55.964844 214.824219 C 55.957031 214.820312 55.945312 214.816406 55.9375 214.8125 L 54.8125 214.347656 C 54.804688 214.34375 54.796875 214.339844 54.785156 214.335938 L 53.480469 213.839844 C 53.46875 213.835938 53.460938 213.832031 53.449219 213.828125 L 51.886719 213.292969 C 51.875 213.289062 51.863281 213.285156 51.851562 213.28125 L 49.914062 212.695312 C 49.898438 212.691406 49.886719 212.6875 49.871094 212.683594 L 47.304688 212.03125 C 47.289062 212.027344 47.269531 212.023438 47.25 212.019531 L 43.402344 211.269531 C 43.363281 211.261719 43.324219 211.257812 43.285156 211.253906 L 43.34375 211.257812 C 42.144531 211.167969 42.144531 209.410156 43.34375 209.320312 L 43.285156 209.324219 C 43.324219 209.320312 43.363281 209.316406 43.402344 209.308594 L 47.25 208.558594 C 47.269531 208.554688 47.289062 208.550781 47.304688 208.546875 L 49.871094 207.894531 C 49.886719 207.890625 49.898438 207.886719 49.914062 207.882812 L 51.851562 207.296875 C 51.863281 207.292969 51.875 207.289062 51.886719 207.285156 L 53.449219 206.75 C 53.460938 206.746094 53.46875 206.742188 53.480469 206.738281 L 54.785156 206.242188 C 54.796875 206.238281 54.804688 206.234375 54.8125 206.230469 L 55.9375 205.765625 C 55.945312 205.761719 55.957031 205.757812 55.964844 205.753906 L 56.949219 205.316406 C 56.957031 205.3125 56.964844 205.308594 56.972656 205.304688 L 57.851562 204.886719 C 57.859375 204.882812 57.867188 204.878906 57.871094 204.875 L 58.667969 204.476562 C 58.671875 204.472656 58.679688 204.46875 58.683594 204.464844 L 59.410156 204.082031 C 59.414062 204.078125 59.421875 204.078125 59.425781 204.074219 L 60.09375 203.703125 C 60.097656 203.699219 60.101562 203.695312 60.109375 203.691406 L 60.726562 203.335938 C 60.730469 203.332031 60.734375 203.328125 60.742188 203.324219 L 61.316406 202.976562 C 61.320312 202.972656 61.324219 202.96875 61.328125 202.964844 L 61.867188 202.625 C 61.875 202.625 61.878906 202.621094 61.882812 202.617188 L 62.390625 202.285156 C 62.394531 202.28125 62.398438 202.277344 62.402344 202.277344 L 62.886719 201.949219 C 62.890625 201.945312 62.894531 201.941406 62.898438 201.941406 L 63.355469 201.621094 C 63.359375 201.617188 63.363281 201.613281 63.367188 201.609375 L 63.804688 201.292969 C 63.808594 201.289062 63.8125 201.289062 63.816406 201.285156 L 64.234375 200.972656 C 64.238281 200.96875 64.242188 200.964844 64.246094 200.964844 L 64.648438 200.652344 C 64.652344 200.648438 64.65625 200.648438 64.660156 200.644531 L 65.046875 200.335938 C 65.050781 200.332031 65.054688 200.332031 65.058594 200.328125 L 65.433594 200.019531 C 65.4375 200.019531 65.441406 200.015625 65.445312 200.011719 L 65.808594 199.707031 C 65.8125 199.703125 65.816406 199.699219 65.816406 199.695312 L 66.171875 199.390625 C 66.175781 199.386719 66.179688 199.386719 66.183594 199.382812 L 66.527344 199.074219 C 66.53125 199.074219 66.535156 199.070312 66.539062 199.066406 L 66.875 198.757812 C 66.878906 198.757812 66.882812 198.753906 66.886719 198.75 L 67.214844 198.441406 C 67.21875 198.4375 67.222656 198.433594 67.226562 198.429688 L 67.550781 198.117188 C 67.554688 198.117188 67.558594 198.113281 67.558594 198.109375 L 67.878906 197.792969 C 67.882812 197.789062 67.886719 197.785156 67.890625 197.785156 L 68.207031 197.464844 C 68.207031 197.460938 68.210938 197.457031 68.214844 197.453125 L 68.527344 197.128906 C 68.53125 197.125 68.535156 197.121094 68.535156 197.121094 L 68.847656 196.789062 C 68.847656 196.785156 68.851562 196.78125 68.855469 196.777344 L 69.164062 196.441406 C 69.164062 196.4375 69.167969 196.433594 69.171875 196.429688 L 69.476562 196.085938 C 69.480469 196.082031 69.484375 196.078125 69.488281 196.074219 L 69.792969 195.722656 C 69.796875 195.71875 69.800781 195.714844 69.800781 195.710938 L 70.109375 195.347656 C 70.109375 195.34375 70.113281 195.339844 70.117188 195.335938 L 70.421875 194.960938 C 70.425781 194.957031 70.429688 194.953125 70.433594 194.949219 L 70.742188 194.5625 C 70.742188 194.558594 70.746094 194.554688 70.75 194.550781 L 71.058594 194.148438 C 71.0625 194.144531 71.066406 194.140625 71.066406 194.136719 L 71.382812 193.71875 C 71.382812 193.714844 71.386719 193.710938 71.390625 193.707031 L 71.707031 193.269531 C 71.710938 193.265625 71.710938 193.261719 71.714844 193.257812 L 72.035156 192.800781 C 72.039062 192.796875 72.042969 192.792969 72.046875 192.789062 L 72.371094 192.308594 C 72.375 192.304688 72.378906 192.300781 72.378906 192.292969 L 72.714844 191.785156 C 72.714844 191.78125 72.71875 191.777344 72.722656 191.773438 L 73.0625 191.234375 C 73.066406 191.230469 73.070312 191.222656 73.070312 191.21875 L 73.421875 190.644531 C 73.425781 190.640625 73.425781 190.632812 73.429688 190.628906 L 73.789062 190.011719 C 73.792969 190.007812 73.796875 190 73.796875 189.996094 L 74.167969 189.332031 C 74.171875 189.324219 74.175781 189.320312 74.179688 189.3125 L 74.5625 188.589844 C 74.566406 188.582031 74.570312 188.578125 74.574219 188.570312 L 74.972656 187.777344 C 74.976562 187.769531 74.980469 187.761719 74.984375 187.757812 L 75.402344 186.875 C 75.402344 186.867188 75.40625 186.863281 75.410156 186.855469 L 75.851562 185.867188 C 75.855469 185.859375 75.859375 185.851562 75.863281 185.84375 L 76.328125 184.71875 C 76.332031 184.707031 76.335938 184.699219 76.335938 184.691406 L 76.835938 183.382812 C 76.839844 183.375 76.84375 183.363281 76.847656 183.351562 L 77.382812 181.792969 C 77.386719 181.78125 77.390625 181.769531 77.394531 181.757812 L 77.980469 179.816406 C 77.984375 179.804688 77.988281 179.789062 77.992188 179.773438 L 78.644531 177.210938 C 78.648438 177.191406 78.652344 177.171875 78.65625 177.152344 L 79.402344 173.304688 C 79.410156 173.265625 79.417969 173.226562 79.417969 173.1875 L 79.414062 173.246094 C 79.503906 172.046875 81.265625 172.046875 81.355469 173.246094 L 81.351562 173.1875 C 81.351562 173.226562 81.359375 173.265625 81.367188 173.304688 L 82.113281 177.152344 C 82.117188 177.171875 82.121094 177.191406 82.125 177.210938 L 82.777344 179.773438 C 82.78125 179.789062 82.785156 179.804688 82.789062 179.816406 L 83.375 181.757812 C 83.378906 181.769531 83.382812 181.78125 83.386719 181.792969 L 83.921875 183.351562 C 83.925781 183.363281 83.929688 183.375 83.933594 183.382812 L 84.433594 184.691406 C 84.433594 184.699219 84.4375 184.707031 84.441406 184.71875 L 84.90625 185.84375 C 84.910156 185.851562 84.914062 185.859375 84.917969 185.867188 L 85.359375 186.855469 C 85.363281 186.863281 85.367188 186.867188 85.367188 186.875 L 85.785156 187.757812 C 85.789062 187.761719 85.792969 187.769531 85.796875 187.777344 L 86.195312 188.570312 C 86.199219 188.578125 86.203125 188.582031 86.207031 188.589844 L 86.589844 189.3125 C 86.59375 189.320312 86.597656 189.324219 86.601562 189.332031 L 86.972656 189.996094 C 86.972656 190 86.976562 190.007812 86.980469 190.011719 L 87.339844 190.628906 C 87.34375 190.632812 87.34375 190.640625 87.347656 190.644531 L 87.699219 191.21875 C 87.699219 191.222656 87.703125 191.230469 87.707031 191.234375 L 88.046875 191.773438 C 88.050781 191.777344 88.054688 191.78125 88.054688 191.785156 L 88.390625 192.292969 C 88.390625 192.300781 88.394531 192.304688 88.398438 192.308594 L 88.722656 192.789062 C 88.726562 192.792969 88.730469 192.796875 88.734375 192.800781 L 89.054688 193.257812 C 89.058594 193.261719 89.058594 193.265625 89.0625 193.269531 L 89.378906 193.707031 C 89.382812 193.710938 89.386719 193.714844 89.386719 193.71875 L 89.703125 194.136719 C 89.703125 194.140625 89.707031 194.144531 89.710938 194.148438 L 90.019531 194.550781 C 90.023438 194.554688 90.027344 194.558594 90.027344 194.5625 L 90.335938 194.949219 C 90.339844 194.953125 90.34375 194.957031 90.347656 194.960938 L 90.652344 195.335938 C 90.65625 195.339844 90.660156 195.34375 90.660156 195.347656 L 90.96875 195.710938 C 90.96875 195.714844 90.972656 195.71875 90.976562 195.722656 L 91.28125 196.074219 C 91.285156 196.078125 91.289062 196.082031 91.289062 196.085938 L 91.597656 196.429688 C 91.601562 196.433594 91.601562 196.4375 91.605469 196.441406 L 91.914062 196.777344 C 91.917969 196.78125 91.921875 196.785156 91.921875 196.789062 L 92.234375 197.121094 C 92.234375 197.121094 92.238281 197.125 92.242188 197.128906 L 92.554688 197.453125 C 92.558594 197.457031 92.5625 197.460938 92.5625 197.464844 L 92.878906 197.785156 C 92.882812 197.785156 92.886719 197.789062 92.890625 197.792969 L 93.210938 198.109375 C 93.210938 198.113281 93.214844 198.117188 93.21875 198.117188 L 93.542969 198.429688 C 93.546875 198.433594 93.550781 198.4375 93.554688 198.441406 L 93.882812 198.75 C 93.886719 198.753906 93.890625 198.757812 93.894531 198.757812 L 94.230469 199.066406 C 94.234375 199.070312 94.238281 199.074219 94.242188 199.074219 L 94.585938 199.382812 C 94.589844 199.386719 94.59375 199.386719 94.597656 199.390625 L 94.953125 199.695312 C 94.953125 199.699219 94.957031 199.703125 94.960938 199.707031 L 95.324219 200.011719 C 95.328125 200.015625 95.332031 200.019531 95.335938 200.019531 L 95.710938 200.328125 C 95.714844 200.332031 95.71875 200.332031 95.722656 200.335938 L 96.109375 200.644531 C 96.113281 200.648438 96.117188 200.648438 96.121094 200.652344 L 96.523438 200.964844 C 96.527344 200.964844 96.53125 200.96875 96.535156 200.972656 L 96.953125 201.285156 C 96.957031 201.289062 96.960938 201.289062 96.964844 201.292969 L 97.402344 201.609375 C 97.40625 201.613281 97.410156 201.617188 97.414062 201.621094 L 97.871094 201.941406 C 97.875 201.941406 97.878906 201.945312 97.882812 201.949219 L 98.367188 202.277344 C 98.371094 202.277344 98.375 202.28125 98.378906 202.285156 L 98.886719 202.617188 C 98.890625 202.621094 98.894531 202.625 98.902344 202.625 L 99.441406 202.964844 C 99.445312 202.96875 99.449219 202.972656 99.453125 202.976562 L 100.027344 203.324219 C 100.035156 203.328125 100.039062 203.332031 100.042969 203.335938 L 100.660156 203.691406 C 100.667969 203.695312 100.671875 203.699219 100.675781 203.703125 L 101.34375 204.074219 C 101.347656 204.078125 101.355469 204.078125 101.359375 204.082031 L 102.085938 204.464844 C 102.089844 204.46875 102.097656 204.472656 102.101562 204.476562 L 102.898438 204.875 C 102.902344 204.878906 102.910156 204.882812 102.917969 204.886719 L 103.796875 205.304688 C 103.804688 205.308594 103.8125 205.3125 103.820312 205.316406 L 104.804688 205.753906 C 104.8125 205.757812 104.824219 205.761719 104.832031 205.765625 L 105.957031 206.230469 C 105.964844 206.234375 105.972656 206.238281 105.984375 206.242188 L 107.289062 206.738281 C 107.300781 206.742188 107.308594 206.746094 107.320312 206.75 L 108.882812 207.285156 C 108.894531 207.289062 108.90625 207.292969 108.917969 207.296875 L 110.855469 207.882812 C 110.871094 207.886719 110.882812 207.890625 110.898438 207.894531 L 113.464844 208.546875 C 113.480469 208.550781 113.5 208.554688 113.519531 208.558594 L 117.367188 209.308594 C 117.40625 209.316406 117.445312 209.320312 117.484375 209.324219 L 117.425781 209.320312 C 118.625 209.410156 118.625 211.167969 117.425781 211.257812 L 117.484375 211.253906 "/>
<path fill-rule="nonzero" fill="rgb(22%, 59.6%, 14.9%)" fill-opacity="1" d="M 194.507812 90.871094 C 194.46875 90.875 194.429688 90.878906 194.390625 90.886719 L 189.757812 91.789062 C 189.738281 91.792969 189.71875 91.796875 189.699219 91.800781 L 186.613281 92.585938 C 186.597656 92.589844 186.582031 92.59375 186.570312 92.597656 L 184.234375 93.300781 C 184.222656 93.304688 184.210938 93.308594 184.199219 93.3125 L 182.320312 93.960938 C 182.308594 93.960938 182.300781 93.964844 182.289062 93.96875 L 180.714844 94.570312 C 180.707031 94.570312 180.695312 94.574219 180.6875 94.578125 L 179.332031 95.140625 C 179.324219 95.144531 179.316406 95.148438 179.308594 95.152344 L 178.117188 95.679688 C 178.113281 95.683594 178.105469 95.6875 178.097656 95.691406 L 177.035156 96.195312 C 177.03125 96.199219 177.023438 96.203125 177.015625 96.207031 L 176.058594 96.6875 C 176.054688 96.691406 176.046875 96.691406 176.039062 96.695312 L 175.167969 97.160156 C 175.164062 97.164062 175.15625 97.164062 175.152344 97.167969 L 174.347656 97.617188 C 174.34375 97.617188 174.339844 97.621094 174.332031 97.625 L 173.589844 98.058594 C 173.585938 98.0625 173.578125 98.0625 173.574219 98.066406 L 172.882812 98.488281 C 172.878906 98.492188 172.871094 98.492188 172.867188 98.496094 L 172.21875 98.90625 C 172.214844 98.910156 172.207031 98.914062 172.203125 98.917969 L 171.589844 99.316406 C 171.585938 99.320312 171.582031 99.324219 171.578125 99.324219 L 171 99.71875 C 170.992188 99.722656 170.988281 99.726562 170.984375 99.730469 L 170.433594 100.117188 C 170.429688 100.117188 170.425781 100.121094 170.421875 100.125 L 169.894531 100.507812 C 169.890625 100.507812 169.886719 100.511719 169.882812 100.515625 L 169.378906 100.890625 C 169.375 100.894531 169.371094 100.898438 169.367188 100.902344 L 168.882812 101.273438 C 168.878906 101.277344 168.875 101.28125 168.871094 101.285156 L 168.402344 101.65625 C 168.402344 101.65625 168.398438 101.660156 168.394531 101.664062 L 167.941406 102.035156 C 167.9375 102.035156 167.933594 102.039062 167.929688 102.042969 L 167.492188 102.410156 C 167.488281 102.414062 167.484375 102.417969 167.480469 102.421875 L 167.054688 102.789062 C 167.050781 102.792969 167.046875 102.796875 167.042969 102.796875 L 166.628906 103.167969 C 166.625 103.171875 166.621094 103.171875 166.617188 103.175781 L 166.210938 103.546875 C 166.207031 103.550781 166.203125 103.554688 166.199219 103.558594 L 165.800781 103.929688 C 165.796875 103.933594 165.796875 103.9375 165.792969 103.941406 L 165.398438 104.316406 C 165.398438 104.320312 165.394531 104.324219 165.390625 104.324219 L 165.003906 104.707031 C 165 104.710938 165 104.714844 164.996094 104.714844 L 164.613281 105.101562 C 164.609375 105.105469 164.609375 105.109375 164.605469 105.113281 L 164.226562 105.503906 C 164.226562 105.507812 164.222656 105.511719 164.21875 105.511719 L 163.84375 105.914062 C 163.84375 105.914062 163.839844 105.917969 163.835938 105.921875 L 163.464844 106.328125 C 163.460938 106.332031 163.460938 106.335938 163.457031 106.339844 L 163.085938 106.753906 C 163.082031 106.757812 163.082031 106.761719 163.078125 106.765625 L 162.707031 107.191406 C 162.707031 107.195312 162.703125 107.199219 162.699219 107.203125 L 162.332031 107.640625 C 162.328125 107.644531 162.324219 107.648438 162.324219 107.652344 L 161.953125 108.105469 C 161.949219 108.109375 161.945312 108.113281 161.945312 108.117188 L 161.574219 108.582031 C 161.570312 108.585938 161.566406 108.589844 161.5625 108.59375 L 161.191406 109.078125 C 161.1875 109.082031 161.183594 109.085938 161.179688 109.089844 L 160.804688 109.59375 C 160.800781 109.597656 160.796875 109.601562 160.792969 109.605469 L 160.414062 110.132812 C 160.410156 110.136719 160.40625 110.140625 160.402344 110.144531 L 160.015625 110.695312 C 160.015625 110.703125 160.011719 110.707031 160.007812 110.710938 L 159.613281 111.289062 C 159.613281 111.292969 159.609375 111.296875 159.605469 111.304688 L 159.203125 111.914062 C 159.203125 111.917969 159.199219 111.925781 159.195312 111.929688 L 158.785156 112.578125 C 158.78125 112.582031 158.777344 112.589844 158.777344 112.59375 L 158.355469 113.285156 C 158.351562 113.292969 158.347656 113.296875 158.347656 113.300781 L 157.914062 114.042969 C 157.910156 114.050781 157.90625 114.054688 157.902344 114.0625 L 157.457031 114.863281 C 157.453125 114.867188 157.453125 114.875 157.449219 114.878906 L 156.984375 115.753906 C 156.980469 115.757812 156.980469 115.765625 156.976562 115.769531 L 156.492188 116.726562 C 156.488281 116.734375 156.488281 116.742188 156.484375 116.75 L 155.980469 117.808594 C 155.976562 117.816406 155.972656 117.824219 155.96875 117.832031 L 155.441406 119.019531 C 155.4375 119.027344 155.433594 119.035156 155.429688 119.042969 L 154.867188 120.398438 C 154.863281 120.40625 154.859375 120.417969 154.855469 120.425781 L 154.257812 122 C 154.253906 122.011719 154.25 122.019531 154.246094 122.03125 L 153.601562 123.910156 C 153.597656 123.921875 153.59375 123.933594 153.589844 123.945312 L 152.886719 126.28125 C 152.882812 126.292969 152.878906 126.308594 152.875 126.324219 L 152.089844 129.410156 C 152.085938 129.429688 152.082031 129.449219 152.078125 129.46875 L 151.175781 134.105469 C 151.167969 134.140625 151.164062 134.179688 151.160156 134.21875 L 150.996094 136.390625 C 150.90625 137.625 149.09375 137.625 149.003906 136.390625 L 148.839844 134.21875 C 148.835938 134.179688 148.832031 134.140625 148.824219 134.105469 L 147.921875 129.46875 C 147.917969 129.449219 147.914062 129.429688 147.910156 129.410156 L 147.125 126.324219 C 147.121094 126.308594 147.117188 126.292969 147.113281 126.28125 L 146.410156 123.945312 C 146.40625 123.933594 146.402344 123.921875 146.398438 123.910156 L 145.753906 122.03125 C 145.75 122.019531 145.746094 122.011719 145.742188 122 L 145.144531 120.425781 C 145.140625 120.417969 145.136719 120.40625 145.132812 120.398438 L 144.570312 119.042969 C 144.566406 119.035156 144.5625 119.027344 144.558594 119.019531 L 144.03125 117.832031 C 144.027344 117.824219 144.023438 117.816406 144.019531 117.808594 L 143.515625 116.75 C 143.511719 116.742188 143.511719 116.734375 143.507812 116.726562 L 143.023438 115.769531 C 143.019531 115.765625 143.019531 115.757812 143.015625 115.753906 L 142.550781 114.878906 C 142.546875 114.875 142.546875 114.867188 142.542969 114.863281 L 142.097656 114.0625 C 142.09375 114.054688 142.089844 114.050781 142.085938 114.042969 L 141.652344 113.300781 C 141.652344 113.296875 141.648438 113.292969 141.644531 113.285156 L 141.222656 112.59375 C 141.222656 112.589844 141.21875 112.582031 141.214844 112.578125 L 140.804688 111.929688 C 140.800781 111.925781 140.796875 111.917969 140.796875 111.914062 L 140.394531 111.304688 C 140.390625 111.296875 140.386719 111.292969 140.386719 111.289062 L 139.992188 110.710938 C 139.988281 110.707031 139.984375 110.703125 139.984375 110.695312 L 139.597656 110.144531 C 139.59375 110.140625 139.589844 110.136719 139.585938 110.132812 L 139.207031 109.605469 C 139.203125 109.601562 139.199219 109.597656 139.195312 109.59375 L 138.820312 109.089844 C 138.816406 109.085938 138.8125 109.082031 138.808594 109.078125 L 138.4375 108.59375 C 138.433594 108.589844 138.429688 108.585938 138.425781 108.582031 L 138.054688 108.117188 C 138.054688 108.113281 138.050781 108.109375 138.046875 108.105469 L 137.675781 107.652344 C 137.675781 107.648438 137.671875 107.644531 137.667969 107.640625 L 137.300781 107.203125 C 137.296875 107.199219 137.292969 107.195312 137.292969 107.191406 L 136.921875 106.765625 C 136.917969 106.761719 136.917969 106.757812 136.914062 106.753906 L 136.542969 106.339844 C 136.539062 106.335938 136.539062 106.332031 136.535156 106.328125 L 136.164062 105.921875 C 136.160156 105.917969 136.15625 105.914062 136.15625 105.914062 L 135.78125 105.511719 C 135.777344 105.511719 135.773438 105.507812 135.773438 105.503906 L 135.394531 105.113281 C 135.390625 105.109375 135.390625 105.105469 135.386719 105.101562 L 135.003906 104.714844 C 135 104.714844 135 104.710938 134.996094 104.707031 L 134.609375 104.324219 C 134.605469 104.324219 134.601562 104.320312 134.601562 104.316406 L 134.207031 103.941406 C 134.203125 103.9375 134.203125 103.933594 134.199219 103.929688 L 133.800781 103.558594 C 133.796875 103.554688 133.792969 103.550781 133.789062 103.546875 L 133.382812 103.175781 C 133.378906 103.171875 133.375 103.171875 133.371094 103.167969 L 132.957031 102.796875 C 132.953125 102.796875 132.949219 102.792969 132.945312 102.789062 L 132.519531 102.421875 C 132.515625 102.417969 132.511719 102.414062 132.507812 102.410156 L 132.070312 102.042969 C 132.066406 102.039062 132.0625 102.035156 132.058594 102.035156 L 131.605469 101.664062 C 131.601562 101.660156 131.597656 101.65625 131.597656 101.65625 L 131.128906 101.285156 C 131.125 101.28125 131.121094 101.277344 131.117188 101.273438 L 130.632812 100.902344 C 130.628906 100.898438 130.625 100.894531 130.621094 100.890625 L 130.117188 100.515625 C 130.113281 100.511719 130.109375 100.507812 130.105469 100.507812 L 129.578125 100.125 C 129.574219 100.121094 129.570312 100.117188 129.566406 100.117188 L 129.015625 99.730469 C 129.011719 99.726562 129.007812 99.722656 129 99.71875 L 128.421875 99.324219 C 128.417969 99.324219 128.414062 99.320312 128.410156 99.316406 L 127.796875 98.917969 C 127.792969 98.914062 127.785156 98.910156 127.78125 98.90625 L 127.132812 98.496094 C 127.128906 98.492188 127.121094 98.492188 127.117188 98.488281 L 126.425781 98.066406 C 126.421875 98.0625 126.414062 98.0625 126.410156 98.058594 L 125.667969 97.625 C 125.660156 97.621094 125.65625 97.617188 125.652344 97.617188 L 124.847656 97.167969 C 124.84375 97.164062 124.835938 97.164062 124.832031 97.160156 L 123.960938 96.695312 C 123.953125 96.691406 123.945312 96.691406 123.941406 96.6875 L 122.984375 96.207031 C 122.976562 96.203125 122.96875 96.199219 122.964844 96.195312 L 121.902344 95.691406 C 121.894531 95.6875 121.886719 95.683594 121.882812 95.679688 L 120.691406 95.152344 C 120.683594 95.148438 120.675781 95.144531 120.667969 95.140625 L 119.3125 94.578125 C 119.304688 94.574219 119.292969 94.570312 119.285156 94.570312 L 117.710938 93.96875 C 117.699219 93.964844 117.691406 93.960938 117.679688 93.960938 L 115.800781 93.3125 C 115.789062 93.308594 115.777344 93.304688 115.765625 93.300781 L 113.429688 92.597656 C 113.417969 92.59375 113.402344 92.589844 113.386719 92.585938 L 110.300781 91.800781 C 110.28125 91.796875 110.261719 91.792969 110.242188 91.789062 L 105.609375 90.886719 C 105.570312 90.878906 105.53125 90.875 105.492188 90.871094 L 103.320312 90.707031 C 102.089844 90.617188 102.089844 88.804688 103.320312 88.714844 L 105.492188 88.550781 C 105.53125 88.550781 105.570312 88.542969 105.609375 88.535156 L 110.242188 87.636719 C 110.261719 87.632812 110.28125 87.628906 110.300781 87.621094 L 113.386719 86.835938 C 113.402344 86.832031 113.417969 86.828125 113.429688 86.824219 L 115.765625 86.121094 C 115.777344 86.117188 115.789062 86.113281 115.800781 86.109375 L 117.679688 85.464844 C 117.691406 85.460938 117.699219 85.457031 117.710938 85.453125 L 119.285156 84.855469 C 119.292969 84.851562 119.304688 84.847656 119.3125 84.84375 L 120.667969 84.28125 C 120.675781 84.277344 120.683594 84.277344 120.691406 84.273438 L 121.882812 83.742188 C 121.886719 83.738281 121.894531 83.734375 121.902344 83.730469 L 122.964844 83.226562 C 122.96875 83.222656 122.976562 83.222656 122.984375 83.21875 L 123.941406 82.734375 C 123.945312 82.734375 123.953125 82.730469 123.960938 82.726562 L 124.832031 82.261719 C 124.835938 82.261719 124.84375 82.257812 124.847656 82.253906 L 125.652344 81.808594 C 125.65625 81.804688 125.660156 81.800781 125.667969 81.796875 L 126.410156 81.363281 C 126.414062 81.363281 126.421875 81.359375 126.425781 81.355469 L 127.117188 80.933594 C 127.121094 80.933594 127.128906 80.929688 127.132812 80.925781 L 127.78125 80.515625 C 127.785156 80.511719 127.792969 80.511719 127.796875 80.507812 L 128.410156 80.105469 C 128.414062 80.101562 128.417969 80.101562 128.421875 80.097656 L 129 79.703125 C 129.007812 79.699219 129.011719 79.699219 129.015625 79.695312 L 129.566406 79.308594 C 129.570312 79.304688 129.574219 79.300781 129.578125 79.296875 L 130.105469 78.917969 C 130.109375 78.914062 130.113281 78.910156 130.117188 78.90625 L 130.621094 78.53125 C 130.625 78.527344 130.628906 78.523438 130.632812 78.523438 L 131.117188 78.148438 C 131.121094 78.144531 131.125 78.140625 131.128906 78.140625 L 131.597656 77.769531 C 131.597656 77.765625 131.601562 77.761719 131.605469 77.757812 L 132.058594 77.390625 C 132.0625 77.386719 132.066406 77.382812 132.070312 77.378906 L 132.507812 77.011719 C 132.511719 77.007812 132.515625 77.003906 132.519531 77.003906 L 132.945312 76.632812 C 132.949219 76.628906 132.953125 76.628906 132.957031 76.625 L 133.371094 76.253906 C 133.375 76.253906 133.378906 76.25 133.382812 76.246094 L 133.789062 75.875 C 133.792969 75.871094 133.796875 75.867188 133.800781 75.867188 L 134.199219 75.492188 C 134.203125 75.488281 134.203125 75.484375 134.207031 75.484375 L 134.601562 75.105469 C 134.601562 75.101562 134.605469 75.101562 134.609375 75.097656 L 134.996094 74.714844 C 135 74.714844 135 74.710938 135.003906 74.707031 L 135.386719 74.320312 C 135.390625 74.316406 135.390625 74.3125 135.394531 74.3125 L 135.773438 73.917969 C 135.773438 73.917969 135.777344 73.914062 135.78125 73.910156 L 136.15625 73.511719 C 136.15625 73.507812 136.160156 73.503906 136.164062 73.5 L 136.535156 73.09375 C 136.539062 73.089844 136.539062 73.085938 136.542969 73.082031 L 136.914062 72.667969 C 136.917969 72.664062 136.917969 72.660156 136.921875 72.65625 L 137.292969 72.230469 C 137.292969 72.226562 137.296875 72.222656 137.300781 72.21875 L 137.667969 71.78125 C 137.671875 71.777344 137.675781 71.773438 137.675781 71.769531 L 138.046875 71.316406 C 138.050781 71.316406 138.054688 71.3125 138.054688 71.308594 L 138.425781 70.839844 C 138.429688 70.835938 138.433594 70.832031 138.4375 70.828125 L 138.808594 70.34375 C 138.8125 70.339844 138.816406 70.335938 138.820312 70.332031 L 139.195312 69.828125 C 139.199219 69.824219 139.203125 69.820312 139.207031 69.816406 L 139.585938 69.289062 C 139.589844 69.285156 139.59375 69.28125 139.597656 69.277344 L 139.984375 68.726562 C 139.984375 68.722656 139.988281 68.71875 139.992188 68.714844 L 140.386719 68.132812 C 140.386719 68.128906 140.390625 68.125 140.394531 68.121094 L 140.796875 67.507812 C 140.796875 67.503906 140.800781 67.5 140.804688 67.492188 L 141.214844 66.84375 C 141.21875 66.839844 141.222656 66.835938 141.222656 66.828125 L 141.644531 66.136719 C 141.648438 66.132812 141.652344 66.125 141.652344 66.121094 L 142.085938 65.378906 C 142.089844 65.371094 142.09375 65.367188 142.097656 65.363281 L 142.542969 64.558594 C 142.546875 64.554688 142.546875 64.546875 142.550781 64.542969 L 143.015625 63.671875 C 143.019531 63.664062 143.019531 63.65625 143.023438 63.652344 L 143.507812 62.695312 C 143.511719 62.6875 143.511719 62.679688 143.515625 62.675781 L 144.019531 61.613281 C 144.023438 61.605469 144.027344 61.601562 144.03125 61.59375 L 144.558594 60.402344 C 144.5625 60.394531 144.566406 60.386719 144.570312 60.378906 L 145.132812 59.023438 C 145.136719 59.015625 145.140625 59.007812 145.144531 58.996094 L 145.742188 57.421875 C 145.746094 57.414062 145.75 57.402344 145.753906 57.390625 L 146.398438 55.511719 C 146.402344 55.5 146.40625 55.488281 146.410156 55.476562 L 147.113281 53.140625 C 147.117188 53.128906 147.121094 53.113281 147.125 53.101562 L 147.910156 50.011719 C 147.914062 49.992188 147.917969 49.972656 147.921875 49.957031 L 148.824219 45.320312 C 148.832031 45.28125 148.835938 45.242188 148.839844 45.203125 L 149.003906 43.035156 C 149.09375 41.800781 150.90625 41.800781 150.996094 43.035156 L 151.160156 45.203125 C 151.164062 45.242188 151.167969 45.28125 151.175781 45.320312 L 152.078125 49.957031 C 152.082031 49.972656 152.085938 49.992188 152.089844 50.011719 L 152.875 53.101562 C 152.878906 53.113281 152.882812 53.128906 152.886719 53.140625 L 153.589844 55.476562 C 153.59375 55.488281 153.597656 55.5 153.601562 55.511719 L 154.246094 57.390625 C 154.25 57.402344 154.253906 57.414062 154.257812 57.421875 L 154.855469 58.996094 C 154.859375 59.007812 154.863281 59.015625 154.867188 59.023438 L 155.429688 60.378906 C 155.433594 60.386719 155.4375 60.394531 155.441406 60.402344 L 155.96875 61.59375 C 155.972656 61.601562 155.976562 61.605469 155.980469 61.613281 L 156.484375 62.675781 C 156.488281 62.679688 156.488281 62.6875 156.492188 62.695312 L 156.976562 63.652344 C 156.980469 63.65625 156.980469 63.664062 156.984375 63.671875 L 157.449219 64.542969 C 157.453125 64.546875 157.453125 64.554688 157.457031 64.558594 L 157.902344 65.363281 C 157.90625 65.367188 157.910156 65.371094 157.914062 65.378906 L 158.347656 66.121094 C 158.347656 66.125 158.351562 66.132812 158.355469 66.136719 L 158.777344 66.828125 C 158.777344 66.835938 158.78125 66.839844 158.785156 66.84375 L 159.195312 67.492188 C 159.199219 67.5 159.203125 67.503906 159.203125 67.507812 L 159.605469 68.121094 C 159.609375 68.125 159.613281 68.128906 159.613281 68.132812 L 160.007812 68.714844 C 160.011719 68.71875 160.015625 68.722656 160.015625 68.726562 L 160.402344 69.277344 C 160.40625 69.28125 160.410156 69.285156 160.414062 69.289062 L 160.792969 69.816406 C 160.796875 69.820312 160.800781 69.824219 160.804688 69.828125 L 161.179688 70.332031 C 161.183594 70.335938 161.1875 70.339844 161.191406 70.34375 L 161.5625 70.828125 C 161.566406 70.832031 161.570312 70.835938 161.574219 70.839844 L 161.945312 71.308594 C 161.945312 71.3125 161.949219 71.316406 161.953125 71.316406 L 162.324219 71.769531 C 162.324219 71.773438 162.328125 71.777344 162.332031 71.78125 L 162.699219 72.21875 C 162.703125 72.222656 162.707031 72.226562 162.707031 72.230469 L 163.078125 72.65625 C 163.082031 72.660156 163.082031 72.664062 163.085938 72.667969 L 163.457031 73.082031 C 163.460938 73.085938 163.460938 73.089844 163.464844 73.09375 L 163.835938 73.5 C 163.839844 73.503906 163.84375 73.507812 163.84375 73.511719 L 164.21875 73.910156 C 164.222656 73.914062 164.226562 73.917969 164.226562 73.917969 L 164.605469 74.3125 C 164.609375 74.3125 164.609375 74.316406 164.613281 74.320312 L 164.996094 74.707031 C 165 74.710938 165 74.714844 165.003906 74.714844 L 165.390625 75.097656 C 165.394531 75.101562 165.398438 75.101562 165.398438 75.105469 L 165.792969 75.484375 C 165.796875 75.484375 165.796875 75.488281 165.800781 75.492188 L 166.199219 75.867188 C 166.203125 75.867188 166.207031 75.871094 166.210938 75.875 L 166.617188 76.246094 C 166.621094 76.25 166.625 76.253906 166.628906 76.253906 L 167.042969 76.625 C 167.046875 76.628906 167.050781 76.628906 167.054688 76.632812 L 167.480469 77.003906 C 167.484375 77.003906 167.488281 77.007812 167.492188 77.011719 L 167.929688 77.378906 C 167.933594 77.382812 167.9375 77.386719 167.941406 77.390625 L 168.394531 77.757812 C 168.398438 77.761719 168.402344 77.765625 168.402344 77.769531 L 168.871094 78.140625 C 168.875 78.140625 168.878906 78.144531 168.882812 78.148438 L 169.367188 78.523438 C 169.371094 78.523438 169.375 78.527344 169.378906 78.53125 L 169.882812 78.90625 C 169.886719 78.910156 169.890625 78.914062 169.894531 78.917969 L 170.421875 79.296875 C 170.425781 79.300781 170.429688 79.304688 170.433594 79.308594 L 170.984375 79.695312 C 170.988281 79.699219 170.992188 79.699219 171 79.703125 L 171.578125 80.097656 C 171.582031 80.101562 171.585938 80.101562 171.589844 80.105469 L 172.203125 80.507812 C 172.207031 80.511719 172.214844 80.511719 172.21875 80.515625 L 172.867188 80.925781 C 172.871094 80.929688 172.878906 80.933594 172.882812 80.933594 L 173.574219 81.355469 C 173.578125 81.359375 173.585938 81.363281 173.589844 81.363281 L 174.332031 81.796875 C 174.339844 81.800781 174.34375 81.804688 174.347656 81.808594 L 175.152344 82.253906 C 175.15625 82.257812 175.164062 82.261719 175.167969 82.261719 L 176.039062 82.726562 C 176.046875 82.730469 176.054688 82.734375 176.058594 82.734375 L 177.015625 83.21875 C 177.023438 83.222656 177.03125 83.222656 177.035156 83.226562 L 178.097656 83.730469 C 178.105469 83.734375 178.113281 83.738281 178.117188 83.742188 L 179.308594 84.273438 C 179.316406 84.277344 179.324219 84.277344 179.332031 84.28125 L 180.6875 84.84375 C 180.695312 84.847656 180.707031 84.851562 180.714844 84.855469 L 182.289062 85.453125 C 182.300781 85.457031 182.308594 85.460938 182.320312 85.464844 L 184.199219 86.109375 C 184.210938 86.113281 184.222656 86.117188 184.234375 86.121094 L 186.570312 86.824219 C 186.582031 86.828125 186.597656 86.832031 186.613281 86.835938 L 189.699219 87.621094 C 189.71875 87.628906 189.738281 87.632812 189.757812 87.636719 L 194.390625 88.535156 C 194.429688 88.542969 194.46875 88.550781 194.507812 88.550781 L 196.679688 88.714844 C 197.910156 88.804688 197.910156 90.617188 196.679688 90.707031 L 194.507812 90.871094 "/>
<path fill-rule="nonzero" fill="rgb(58.4%, 34.5%, 69.8%)" fill-opacity="1" d="M 278.941406 211.835938 C 278.902344 211.839844 278.863281 211.84375 278.824219 211.851562 L 272.613281 213.058594 C 272.59375 213.0625 272.578125 213.066406 272.558594 213.070312 L 268.425781 214.121094 C 268.410156 214.125 268.394531 214.128906 268.382812 214.132812 L 265.257812 215.078125 C 265.246094 215.082031 265.230469 215.085938 265.21875 215.089844 L 262.703125 215.953125 C 262.691406 215.957031 262.683594 215.960938 262.671875 215.964844 L 260.5625 216.765625 C 260.554688 216.769531 260.546875 216.773438 260.535156 216.777344 L 258.722656 217.527344 C 258.714844 217.53125 258.703125 217.535156 258.695312 217.539062 L 257.105469 218.25 C 257.097656 218.253906 257.089844 218.257812 257.082031 218.261719 L 255.660156 218.933594 C 255.652344 218.9375 255.648438 218.941406 255.640625 218.945312 L 254.359375 219.589844 C 254.351562 219.59375 254.347656 219.597656 254.339844 219.601562 L 253.171875 220.222656 C 253.164062 220.222656 253.160156 220.226562 253.152344 220.230469 L 252.078125 220.828125 C 252.074219 220.832031 252.066406 220.835938 252.0625 220.839844 L 251.066406 221.417969 C 251.0625 221.421875 251.054688 221.425781 251.050781 221.429688 L 250.121094 221.992188 C 250.117188 221.996094 250.113281 221.996094 250.105469 222 L 249.238281 222.550781 C 249.230469 222.554688 249.226562 222.558594 249.222656 222.558594 L 248.402344 223.097656 C 248.398438 223.101562 248.394531 223.105469 248.386719 223.105469 L 247.609375 223.632812 C 247.605469 223.636719 247.601562 223.640625 247.597656 223.644531 L 246.859375 224.164062 C 246.855469 224.164062 246.851562 224.167969 246.847656 224.171875 L 246.140625 224.683594 C 246.136719 224.6875 246.132812 224.6875 246.128906 224.691406 L 245.453125 225.199219 C 245.449219 225.199219 245.445312 225.203125 245.441406 225.207031 L 244.789062 225.707031 C 244.785156 225.710938 244.78125 225.714844 244.777344 225.71875 L 244.152344 226.214844 C 244.148438 226.21875 244.144531 226.222656 244.140625 226.222656 L 243.535156 226.71875 C 243.53125 226.722656 243.527344 226.726562 243.523438 226.730469 L 242.933594 227.222656 C 242.933594 227.226562 242.929688 227.230469 242.925781 227.230469 L 242.351562 227.726562 C 242.347656 227.730469 242.34375 227.734375 242.34375 227.734375 L 241.785156 228.230469 C 241.78125 228.234375 241.777344 228.238281 241.773438 228.242188 L 241.226562 228.738281 C 241.222656 228.742188 241.222656 228.746094 241.21875 228.746094 L 240.683594 229.25 C 240.679688 229.25 240.675781 229.253906 240.671875 229.257812 L 240.148438 229.761719 C 240.144531 229.765625 240.140625 229.769531 240.136719 229.773438 L 239.621094 230.285156 C 239.617188 230.285156 239.613281 230.289062 239.609375 230.292969 L 239.097656 230.8125 C 239.097656 230.8125 239.09375 230.816406 239.089844 230.820312 L 238.585938 231.347656 C 238.582031 231.351562 238.578125 231.351562 238.574219 231.355469 L 238.074219 231.890625 C 238.070312 231.894531 238.066406 231.898438 238.066406 231.902344 L 237.566406 232.445312 C 237.5625 232.449219 237.5625 232.453125 237.558594 232.457031 L 237.0625 233.015625 C 237.058594 233.019531 237.054688 233.023438 237.054688 233.027344 L 236.558594 233.597656 C 236.554688 233.601562 236.554688 233.605469 236.550781 233.609375 L 236.054688 234.195312 C 236.050781 234.199219 236.050781 234.203125 236.046875 234.207031 L 235.550781 234.816406 C 235.546875 234.816406 235.542969 234.820312 235.542969 234.824219 L 235.042969 235.453125 C 235.039062 235.457031 235.039062 235.460938 235.035156 235.464844 L 234.535156 236.113281 C 234.53125 236.117188 234.527344 236.121094 234.523438 236.125 L 234.019531 236.800781 C 234.015625 236.804688 234.011719 236.808594 234.007812 236.8125 L 233.496094 237.519531 C 233.496094 237.523438 233.492188 237.527344 233.488281 237.53125 L 232.96875 238.269531 C 232.96875 238.277344 232.964844 238.28125 232.960938 238.285156 L 232.433594 239.0625 C 232.429688 239.066406 232.425781 239.070312 232.425781 239.074219 L 231.886719 239.894531 C 231.882812 239.902344 231.878906 239.90625 231.878906 239.910156 L 231.328125 240.78125 C 231.324219 240.785156 231.320312 240.789062 231.316406 240.796875 L 230.753906 241.722656 C 230.75 241.730469 230.75 241.734375 230.746094 241.738281 L 230.164062 242.734375 C 230.160156 242.742188 230.160156 242.746094 230.15625 242.75 L 229.558594 243.828125 C 229.554688 243.832031 229.550781 243.839844 229.546875 243.84375 L 228.925781 245.011719 C 228.925781 245.019531 228.921875 245.027344 228.917969 245.03125 L 228.273438 246.3125 C 228.269531 246.320312 228.265625 246.328125 228.261719 246.335938 L 227.585938 247.753906 C 227.582031 247.761719 227.578125 247.769531 227.578125 247.777344 L 226.867188 249.371094 C 226.863281 249.378906 226.859375 249.386719 226.855469 249.394531 L 226.105469 251.210938 C 226.101562 251.21875 226.097656 251.226562 226.09375 251.238281 L 225.292969 253.347656 C 225.289062 253.355469 225.285156 253.367188 225.28125 253.375 L 224.417969 255.894531 C 224.414062 255.90625 224.410156 255.917969 224.40625 255.929688 L 223.460938 259.054688 C 223.457031 259.070312 223.453125 259.082031 223.449219 259.097656 L 222.398438 263.230469 C 222.394531 263.25 222.390625 263.269531 222.386719 263.289062 L 221.179688 269.496094 C 221.171875 269.535156 221.164062 269.574219 221.164062 269.613281 L 220.613281 276.964844 C 220.519531 278.199219 218.710938 278.199219 218.617188 276.964844 L 218.066406 269.613281 C 218.066406 269.574219 218.058594 269.535156 218.050781 269.496094 L 216.84375 263.289062 C 216.839844 263.269531 216.835938 263.25 216.832031 263.230469 L 215.78125 259.097656 C 215.777344 259.082031 215.773438 259.070312 215.769531 259.054688 L 214.824219 255.929688 C 214.820312 255.917969 214.816406 255.90625 214.8125 255.894531 L 213.949219 253.375 C 213.945312 253.367188 213.941406 253.355469 213.9375 253.347656 L 213.136719 251.238281 C 213.132812 251.226562 213.128906 251.21875 213.125 251.210938 L 212.375 249.394531 C 212.371094 249.386719 212.367188 249.378906 212.363281 249.371094 L 211.652344 247.777344 C 211.652344 247.769531 211.648438 247.761719 211.644531 247.753906 L 210.96875 246.335938 C 210.964844 246.328125 210.960938 246.320312 210.957031 246.3125 L 210.3125 245.03125 C 210.308594 245.027344 210.308594 245.019531 210.304688 245.011719 L 209.683594 243.84375 C 209.679688 243.839844 209.675781 243.832031 209.671875 243.828125 L 209.074219 242.75 C 209.070312 242.746094 209.070312 242.742188 209.066406 242.734375 L 208.484375 241.738281 C 208.480469 241.734375 208.480469 241.730469 208.476562 241.722656 L 207.914062 240.796875 C 207.910156 240.789062 207.90625 240.785156 207.902344 240.78125 L 207.351562 239.910156 C 207.351562 239.90625 207.347656 239.902344 207.34375 239.894531 L 206.804688 239.074219 C 206.804688 239.070312 206.800781 239.066406 206.796875 239.0625 L 206.269531 238.285156 C 206.265625 238.28125 206.261719 238.277344 206.261719 238.269531 L 205.742188 237.53125 C 205.738281 237.527344 205.734375 237.523438 205.734375 237.519531 L 205.222656 236.8125 C 205.21875 236.808594 205.214844 236.804688 205.210938 236.800781 L 204.707031 236.125 C 204.703125 236.121094 204.699219 236.117188 204.695312 236.113281 L 204.195312 235.464844 C 204.191406 235.460938 204.191406 235.457031 204.1875 235.453125 L 203.6875 234.824219 C 203.6875 234.820312 203.683594 234.816406 203.679688 234.816406 L 203.183594 234.207031 C 203.179688 234.203125 203.179688 234.199219 203.175781 234.195312 L 202.679688 233.609375 C 202.675781 233.605469 202.675781 233.601562 202.671875 233.597656 L 202.175781 233.027344 C 202.175781 233.023438 202.171875 233.019531 202.167969 233.015625 L 201.671875 232.457031 C 201.667969 232.453125 201.667969 232.449219 201.664062 232.445312 L 201.164062 231.902344 C 201.164062 231.898438 201.160156 231.894531 201.15625 231.890625 L 200.65625 231.355469 C 200.652344 231.351562 200.648438 231.351562 200.644531 231.347656 L 200.140625 230.820312 C 200.136719 230.816406 200.132812 230.8125 200.132812 230.8125 L 199.621094 230.292969 C 199.617188 230.289062 199.613281 230.285156 199.609375 230.285156 L 199.09375 229.773438 C 199.089844 229.769531 199.085938 229.765625 199.082031 229.761719 L 198.558594 229.257812 C 198.554688 229.253906 198.550781 229.25 198.546875 229.25 L 198.011719 228.746094 C 198.007812 228.746094 198.007812 228.742188 198.003906 228.738281 L 197.457031 228.242188 C 197.453125 228.238281 197.449219 228.234375 197.445312 228.230469 L 196.886719 227.734375 C 196.886719 227.734375 196.882812 227.730469 196.878906 227.726562 L 196.304688 227.230469 C 196.300781 227.230469 196.296875 227.226562 196.296875 227.222656 L 195.707031 226.730469 C 195.703125 226.726562 195.699219 226.722656 195.695312 226.71875 L 195.089844 226.222656 C 195.085938 226.222656 195.082031 226.21875 195.078125 226.214844 L 194.453125 225.71875 C 194.449219 225.714844 194.445312 225.710938 194.441406 225.707031 L 193.789062 225.207031 C 193.785156 225.203125 193.78125 225.199219 193.777344 225.199219 L 193.101562 224.691406 C 193.097656 224.6875 193.09375 224.6875 193.089844 224.683594 L 192.382812 224.171875 C 192.378906 224.167969 192.375 224.164062 192.371094 224.164062 L 191.632812 223.644531 C 191.628906 223.640625 191.625 223.636719 191.621094 223.632812 L 190.84375 223.105469 C 190.835938 223.105469 190.832031 223.101562 190.828125 223.097656 L 190.007812 222.558594 C 190.003906 222.558594 190 222.554688 189.992188 222.550781 L 189.125 222 C 189.117188 221.996094 189.113281 221.996094 189.109375 221.992188 L 188.179688 221.429688 C 188.175781 221.425781 188.167969 221.421875 188.164062 221.417969 L 187.167969 220.839844 C 187.164062 220.835938 187.15625 220.832031 187.152344 220.828125 L 186.078125 220.230469 C 186.070312 220.226562 186.066406 220.222656 186.058594 220.222656 L 184.890625 219.601562 C 184.882812 219.597656 184.878906 219.59375 184.871094 219.589844 L 183.589844 218.945312 C 183.582031 218.941406 183.578125 218.9375 183.570312 218.933594 L 182.148438 218.261719 C 182.140625 218.257812 182.132812 218.253906 182.125 218.25 L 180.535156 217.539062 C 180.527344 217.535156 180.515625 217.53125 180.507812 217.527344 L 178.695312 216.777344 C 178.683594 216.773438 178.675781 216.769531 178.667969 216.765625 L 176.558594 215.964844 C 176.546875 215.960938 176.539062 215.957031 176.527344 215.953125 L 174.011719 215.089844 C 174 215.085938 173.984375 215.082031 173.972656 215.078125 L 170.847656 214.132812 C 170.835938 214.128906 170.820312 214.125 170.808594 214.121094 L 166.671875 213.070312 C 166.652344 213.066406 166.636719 213.0625 166.617188 213.058594 L 160.40625 211.851562 C 160.367188 211.84375 160.328125 211.839844 160.289062 211.835938 L 152.9375 211.285156 C 151.703125 211.195312 151.703125 209.382812 152.9375 209.292969 L 160.289062 208.742188 C 160.328125 208.738281 160.367188 208.734375 160.40625 208.726562 L 166.617188 207.519531 C 166.636719 207.515625 166.652344 207.511719 166.671875 207.503906 L 170.808594 206.453125 C 170.820312 206.449219 170.835938 206.445312 170.847656 206.441406 L 173.972656 205.5 C 173.984375 205.496094 174 205.492188 174.011719 205.488281 L 176.527344 204.625 C 176.539062 204.621094 176.546875 204.617188 176.558594 204.613281 L 178.667969 203.808594 C 178.675781 203.808594 178.683594 203.804688 178.695312 203.800781 L 180.507812 203.046875 C 180.515625 203.042969 180.527344 203.042969 180.535156 203.039062 L 182.125 202.328125 C 182.132812 202.324219 182.140625 202.320312 182.148438 202.316406 L 183.570312 201.640625 C 183.578125 201.640625 183.582031 201.636719 183.589844 201.632812 L 184.871094 200.988281 C 184.878906 200.984375 184.882812 200.980469 184.890625 200.976562 L 186.058594 200.355469 C 186.066406 200.351562 186.070312 200.351562 186.078125 200.347656 L 187.152344 199.746094 C 187.15625 199.746094 187.164062 199.742188 187.167969 199.738281 L 188.164062 199.160156 C 188.167969 199.15625 188.175781 199.152344 188.179688 199.148438 L 189.109375 198.585938 C 189.113281 198.582031 189.117188 198.578125 189.125 198.578125 L 189.992188 198.027344 C 190 198.023438 190.003906 198.019531 190.007812 198.015625 L 190.828125 197.480469 C 190.832031 197.476562 190.835938 197.472656 190.84375 197.46875 L 191.621094 196.941406 C 191.625 196.941406 191.628906 196.9375 191.632812 196.933594 L 192.371094 196.414062 C 192.375 196.410156 192.378906 196.410156 192.382812 196.40625 L 193.089844 195.894531 C 193.09375 195.890625 193.097656 195.886719 193.101562 195.886719 L 193.777344 195.378906 C 193.78125 195.375 193.785156 195.375 193.789062 195.371094 L 194.441406 194.867188 C 194.445312 194.867188 194.449219 194.863281 194.453125 194.859375 L 195.078125 194.363281 C 195.082031 194.359375 195.085938 194.355469 195.089844 194.351562 L 195.695312 193.855469 C 195.699219 193.855469 195.703125 193.851562 195.707031 193.847656 L 196.296875 193.355469 C 196.296875 193.351562 196.300781 193.347656 196.304688 193.34375 L 196.878906 192.851562 C 196.882812 192.847656 196.886719 192.84375 196.886719 192.839844 L 197.445312 192.34375 C 197.449219 192.34375 197.453125 192.339844 197.457031 192.335938 L 198.003906 191.839844 C 198.007812 191.835938 198.007812 191.832031 198.011719 191.828125 L 198.546875 191.328125 C 198.550781 191.324219 198.554688 191.320312 198.558594 191.320312 L 199.082031 190.8125 C 199.085938 190.808594 199.089844 190.808594 199.09375 190.804688 L 199.609375 190.292969 C 199.613281 190.289062 199.617188 190.285156 199.621094 190.285156 L 200.132812 189.765625 C 200.132812 189.761719 200.136719 189.757812 200.140625 189.757812 L 200.644531 189.230469 C 200.648438 189.226562 200.652344 189.222656 200.65625 189.222656 L 201.15625 188.6875 C 201.160156 188.683594 201.164062 188.679688 201.164062 188.675781 L 201.664062 188.128906 C 201.667969 188.125 201.667969 188.125 201.671875 188.121094 L 202.167969 187.5625 C 202.171875 187.558594 202.175781 187.554688 202.175781 187.550781 L 202.671875 186.980469 C 202.675781 186.976562 202.675781 186.972656 202.679688 186.96875 L 203.175781 186.378906 C 203.179688 186.375 203.179688 186.371094 203.183594 186.371094 L 203.679688 185.761719 C 203.683594 185.757812 203.6875 185.753906 203.6875 185.75 L 204.1875 185.125 C 204.191406 185.121094 204.191406 185.117188 204.195312 185.113281 L 204.695312 184.464844 C 204.699219 184.460938 204.703125 184.457031 204.707031 184.453125 L 205.210938 183.773438 C 205.214844 183.769531 205.21875 183.765625 205.222656 183.761719 L 205.734375 183.058594 C 205.734375 183.054688 205.738281 183.050781 205.742188 183.046875 L 206.261719 182.304688 C 206.261719 182.300781 206.265625 182.296875 206.269531 182.292969 L 206.796875 181.515625 C 206.800781 181.511719 206.804688 181.507812 206.804688 181.503906 L 207.34375 180.679688 C 207.347656 180.675781 207.351562 180.671875 207.351562 180.667969 L 207.902344 179.796875 C 207.90625 179.792969 207.910156 179.785156 207.914062 179.78125 L 208.476562 178.851562 C 208.480469 178.847656 208.480469 178.84375 208.484375 178.835938 L 209.066406 177.84375 C 209.070312 177.835938 209.070312 177.832031 209.074219 177.824219 L 209.671875 176.75 C 209.675781 176.746094 209.679688 176.738281 209.683594 176.734375 L 210.304688 175.5625 C 210.308594 175.558594 210.308594 175.550781 210.3125 175.546875 L 210.957031 174.261719 C 210.960938 174.257812 210.964844 174.25 210.96875 174.242188 L 211.644531 172.824219 C 211.648438 172.816406 211.652344 172.808594 211.652344 172.800781 L 212.363281 171.207031 C 212.367188 171.199219 212.371094 171.191406 212.375 171.183594 L 213.125 169.367188 C 213.128906 169.359375 213.132812 169.347656 213.136719 169.339844 L 213.9375 167.230469 C 213.941406 167.222656 213.945312 167.210938 213.949219 167.199219 L 214.8125 164.683594 C 214.816406 164.671875 214.820312 164.660156 214.824219 164.648438 L 215.769531 161.523438 C 215.773438 161.507812 215.777344 161.496094 215.78125 161.480469 L 216.832031 157.34375 C 216.835938 157.328125 216.839844 157.308594 216.84375 157.289062 L 218.050781 151.078125 C 218.058594 151.039062 218.066406 151.003906 218.066406 150.964844 L 218.617188 143.609375 C 218.710938 142.375 220.519531 142.375 220.613281 143.609375 L 221.164062 150.964844 C 221.164062 151.003906 221.171875 151.039062 221.179688 151.078125 L 222.386719 157.289062 C 222.390625 157.308594 222.394531 157.328125 222.398438 157.34375 L 223.449219 161.480469 C 223.453125 161.496094 223.457031 161.507812 223.460938 161.523438 L 224.40625 164.648438 C 224.410156 164.660156 224.414062 164.671875 224.417969 164.683594 L 225.28125 167.199219 C 225.285156 167.210938 225.289062 167.222656 225.292969 167.230469 L 226.09375 169.339844 C 226.097656 169.347656 226.101562 169.359375 226.105469 169.367188 L 226.855469 171.183594 C 226.859375 171.191406 226.863281 171.199219 226.867188 171.207031 L 227.578125 172.800781 C 227.578125 172.808594 227.582031 172.816406 227.585938 172.824219 L 228.261719 174.242188 C 228.265625 174.25 228.269531 174.257812 228.273438 174.261719 L 228.917969 175.546875 C 228.921875 175.550781 228.925781 175.558594 228.925781 175.5625 L 229.546875 176.734375 C 229.550781 176.738281 229.554688 176.746094 229.558594 176.75 L 230.15625 177.824219 C 230.160156 177.832031 230.160156 177.835938 230.164062 177.84375 L 230.746094 178.835938 C 230.75 178.84375 230.75 178.847656 230.753906 178.851562 L 231.316406 179.78125 C 231.320312 179.785156 231.324219 179.792969 231.328125 179.796875 L 231.878906 180.667969 C 231.878906 180.671875 231.882812 180.675781 231.886719 180.679688 L 232.425781 181.503906 C 232.425781 181.507812 232.429688 181.511719 232.433594 181.515625 L 232.960938 182.292969 C 232.964844 182.296875 232.96875 182.300781 232.96875 182.304688 L 233.488281 183.046875 C 233.492188 183.050781 233.496094 183.054688 233.496094 183.058594 L 234.007812 183.761719 C 234.011719 183.765625 234.015625 183.769531 234.019531 183.773438 L 234.523438 184.453125 C 234.527344 184.457031 234.53125 184.460938 234.535156 184.464844 L 235.035156 185.113281 C 235.039062 185.117188 235.039062 185.121094 235.042969 185.125 L 235.542969 185.75 C 235.542969 185.753906 235.546875 185.757812 235.550781 185.761719 L 236.046875 186.371094 C 236.050781 186.371094 236.050781 186.375 236.054688 186.378906 L 236.550781 186.96875 C 236.554688 186.972656 236.554688 186.976562 236.558594 186.980469 L 237.054688 187.550781 C 237.054688 187.554688 237.058594 187.558594 237.0625 187.5625 L 237.558594 188.121094 C 237.5625 188.125 237.5625 188.125 237.566406 188.128906 L 238.066406 188.675781 C 238.066406 188.679688 238.070312 188.683594 238.074219 188.6875 L 238.574219 189.222656 C 238.578125 189.222656 238.582031 189.226562 238.585938 189.230469 L 239.089844 189.757812 C 239.09375 189.757812 239.097656 189.761719 239.097656 189.765625 L 239.609375 190.285156 C 239.613281 190.285156 239.617188 190.289062 239.621094 190.292969 L 240.136719 190.804688 C 240.140625 190.808594 240.144531 190.808594 240.148438 190.8125 L 240.671875 191.320312 C 240.675781 191.320312 240.679688 191.324219 240.683594 191.328125 L 241.21875 191.828125 C 241.222656 191.832031 241.222656 191.835938 241.226562 191.839844 L 241.773438 192.335938 C 241.777344 192.339844 241.78125 192.34375 241.785156 192.34375 L 242.34375 192.839844 C 242.34375 192.84375 242.347656 192.847656 242.351562 192.851562 L 242.925781 193.34375 C 242.929688 193.347656 242.933594 193.351562 242.933594 193.355469 L 243.523438 193.847656 C 243.527344 193.851562 243.53125 193.855469 243.535156 193.855469 L 244.140625 194.351562 C 244.144531 194.355469 244.148438 194.359375 244.152344 194.363281 L 244.777344 194.859375 C 244.78125 194.863281 244.785156 194.867188 244.789062 194.867188 L 245.441406 195.371094 C 245.445312 195.375 245.449219 195.375 245.453125 195.378906 L 246.128906 195.886719 C 246.132812 195.886719 246.136719 195.890625 246.140625 195.894531 L 246.847656 196.40625 C 246.851562 196.410156 246.855469 196.410156 246.859375 196.414062 L 247.597656 196.933594 C 247.601562 196.9375 247.605469 196.941406 247.609375 196.941406 L 248.386719 197.46875 C 248.394531 197.472656 248.398438 197.476562 248.402344 197.480469 L 249.222656 198.015625 C 249.226562 198.019531 249.230469 198.023438 249.238281 198.027344 L 250.105469 198.578125 C 250.113281 198.578125 250.117188 198.582031 250.121094 198.585938 L 251.050781 199.148438 C 251.054688 199.152344 251.0625 199.15625 251.066406 199.160156 L 252.0625 199.738281 C 252.066406 199.742188 252.074219 199.746094 252.078125 199.746094 L 253.152344 200.347656 C 253.160156 200.351562 253.164062 200.351562 253.171875 200.355469 L 254.339844 200.976562 C 254.347656 200.980469 254.351562 200.984375 254.359375 200.988281 L 255.640625 201.632812 C 255.648438 201.636719 255.652344 201.640625 255.660156 201.640625 L 257.082031 202.316406 C 257.089844 202.320312 257.097656 202.324219 257.105469 202.328125 L 258.695312 203.039062 C 258.703125 203.042969 258.714844 203.042969 258.722656 203.046875 L 260.535156 203.800781 C 260.546875 203.804688 260.554688 203.808594 260.5625 203.808594 L 262.671875 204.613281 C 262.683594 204.617188 262.691406 204.621094 262.703125 204.625 L 265.21875 205.488281 C 265.230469 205.492188 265.246094 205.496094 265.257812 205.5 L 268.382812 206.441406 C 268.394531 206.445312 268.410156 206.449219 268.425781 206.453125 L 272.558594 207.503906 C 272.578125 207.511719 272.59375 207.515625 272.613281 207.519531 L 278.824219 208.726562 C 278.863281 208.734375 278.902344 208.738281 278.941406 208.742188 L 286.292969 209.292969 C 287.527344 209.382812 287.527344 211.195312 286.292969 211.285156 L 278.941406 211.835938 "/>
<path fill="none" stroke-width="1" stroke-linecap="butt" stroke-linejoin="miter" stroke="rgb(0%, 0%, 0%)" stroke-opacity="1" stroke-miterlimit="10" d="M 80.382812 210.289062 L 150 89.710938 L 219.617188 210.289062 Z M 80.382812 210.289062 "/>
<path fill="none" stroke-width="1" stroke-linecap="butt" stroke-linejoin="miter" stroke="rgb(0%, 0%, 0%)" stroke-opacity="1" stroke-miterlimit="10" d="M 150 210.289062 C 150 248.734375 118.832031 279.902344 80.382812 279.902344 C 41.9375 279.902344 10.769531 248.734375 10.769531 210.289062 C 10.769531 171.839844 41.9375 140.671875 80.382812 140.671875 C 118.832031 140.671875 150 171.839844 150 210.289062 Z M 150 210.289062 "/>
<path fill="none" stroke-width="1" stroke-linecap="butt" stroke-linejoin="miter" stroke="rgb(0%, 0%, 0%)" stroke-opacity="1" stroke-miterlimit="10" d="M 219.617188 89.710938 C 219.617188 128.160156 188.449219 159.328125 150 159.328125 C 111.550781 159.328125 80.382812 128.160156 80.382812 89.710938 C 80.382812 51.265625 111.550781 20.097656 150 20.097656 C 188.449219 20.097656 219.617188 51.265625 219.617188 89.710938 Z M 219.617188 89.710938 "/>
<path fill="none" stroke-width="1" stroke-linecap="butt" stroke-linejoin="miter" stroke="rgb(0%, 0%, 0%)" stroke-opacity="1" stroke-miterlimit="10" d="M 289.230469 210.289062 C 289.230469 248.734375 258.0625 279.902344 219.617188 279.902344 C 181.167969 279.902344 150 248.734375 150 210.289062 C 150 171.839844 181.167969 140.671875 219.617188 140.671875 C 258.0625 140.671875 289.230469 171.839844 289.230469 210.289062 Z M 289.230469 210.289062 "/>
<path fill="none" stroke-width="1" stroke-linecap="butt" stroke-linejoin="miter" stroke="rgb(0%, 0%, 0%)" stroke-opacity="1" stroke-miterlimit="10" d="M 0 0 L 300 0 L 300 300 L 0 300 Z M 0 0 "/>
</svg>
