<?xml version="1.0" encoding="UTF-8"?>
<svg xmlns="http://www.w3.org/2000/svg" xmlns:xlink="http://www.w3.org/1999/xlink" width="300" height="300" viewBox="0 0 300 300">
<path fill-rule="nonzero" fill="rgb(79.6%, 23.5%, 20%)" fill-opacity="1" d="M 117.484375 211.253906 C 117.445312 211.257812 117.40625 211.261719 117.367188 211.269531 L 113.519531 212.019531 C 113.5 212.023438 113.480469 212.027344 113.464844 212.03125 L 110.898438 212.683594 C 110.882812 212.6875 110.871094 212.691406 110.855469 212.695312 L 108.917969 213.28125 C 108.90625 213.285156 108.894531 213.289062 108.882812 213.292969 L 107.320312 213.828125 C 107.308594 213.832031 107.300781 213.835938 107.289062 213.839844 L 105.984375 214.335938 C 105.972656 214.339844 105.964844 214.34375 105.957031 214.347656 L 104.832031 214.8125 C 104.824219 214.816406 104.8125 214.820312 104.804688 214.824219 L 103.820312 215.261719 C 103.8125 215.265625 103.804688 215.269531 103.796875 215.273438 L 102.917969 215.691406 C 102.910156 215.695312 102.902344 215.699219 102.898438 215.699219 L 102.101562 216.101562 C 102.097656 216.105469 102.089844 216.105469 102.085938 216.109375 L 101.359375 216.496094 C 101.355469 216.496094 101.347656 216.5 101.34375 216.503906 L 100.675781 216.875 C 100.671875 216.878906 100.667969 216.882812 100.660156 216.882812 L 100.042969 217.242188 C 100.039062 217.246094 100.035156 217.25 100.027344 217.253906 L 99.453125 217.601562 C 99.449219 217.605469 99.445312 217.605469 99.441406 217.609375 L 98.902344 217.949219 C 98.894531 217.953125 98.890625 217.957031 98.886719 217.960938 L 98.378906 218.292969 C 98.375 218.296875 98.371094 218.296875 98.367188 218.300781 L 97.882812 218.628906 C 97.878906 218.632812 97.875 218.632812 97.871094 218.636719 L 97.414062 218.957031 C 97.410156 218.960938 97.40625 218.964844 97.402344 218.96875 L 96.964844 219.285156 C 96.960938 219.285156 96.957031 219.289062 96.953125 219.292969 L 96.535156 219.605469 C 96.53125 219.609375 96.527344 219.609375 96.523438 219.613281 L 96.121094 219.925781 C 96.117188 219.925781 96.113281 219.929688 96.109375 219.933594 L 95.722656 220.242188 C 95.71875 220.242188 95.714844 220.246094 95.710938 220.25 L 95.335938 220.554688 C 95.332031 220.558594 95.328125 220.5625 95.324219 220.566406 L 94.960938 220.871094 C 94.957031 220.875 94.953125 220.878906 94.953125 220.878906 L 94.597656 221.1875 C 94.59375 221.1875 94.589844 221.191406 94.585938 221.195312 L 94.242188 221.5 C 94.238281 221.503906 94.234375 221.507812 94.230469 221.511719 L 93.894531 221.816406 C 93.890625 221.820312 93.886719 221.824219 93.882812 221.828125 L 93.554688 222.136719 C 93.550781 222.140625 93.546875 222.144531 93.542969 222.144531 L 93.21875 222.457031 C 93.214844 222.460938 93.210938 222.464844 93.210938 222.46875 L 92.890625 222.785156 C 92.886719 222.785156 92.882812 222.789062 92.878906 222.792969 L 92.5625 223.113281 C 92.5625 223.117188 92.558594 223.121094 92.554688 223.121094 L 92.242188 223.449219 C 92.238281 223.449219 92.234375 223.453125 92.234375 223.457031 L 91.921875 223.789062 C 91.921875 223.792969 91.917969 223.792969 91.914062 223.796875 L 91.605469 224.136719 C 91.601562 224.140625 91.601562 224.140625 91.597656 224.144531 L 91.289062 224.492188 C 91.289062 224.496094 91.285156 224.496094 91.28125 224.5 L 90.976562 224.855469 C 90.972656 224.859375 90.96875 224.863281 90.96875 224.867188 L 90.660156 225.230469 C 90.660156 225.234375 90.65625 225.238281 90.652344 225.238281 L 90.347656 225.617188 C 90.34375 225.617188 90.339844 225.621094 90.335938 225.625 L 90.027344 226.015625 C 90.027344 226.019531 90.023438 226.019531 90.019531 226.023438 L 89.710938 226.425781 C 89.707031 226.429688 89.703125 226.433594 89.703125 226.4375 L 89.386719 226.855469 C 89.386719 226.859375 89.382812 226.863281 89.378906 226.871094 L 89.0625 227.304688 C 89.058594 227.308594 89.058594 227.3125 89.054688 227.316406 L 88.734375 227.773438 C 88.730469 227.78125 88.726562 227.785156 88.722656 227.789062 L 88.398438 228.269531 C 88.394531 228.273438 88.390625 228.277344 88.390625 228.28125 L 88.054688 228.789062 C 88.054688 228.796875 88.050781 228.800781 88.046875 228.804688 L 87.707031 229.34375 C 87.703125 229.347656 87.699219 229.351562 87.699219 229.359375 L 87.347656 229.933594 C 87.34375 229.9375 87.34375 229.941406 87.339844 229.949219 L 86.980469 230.566406 C 86.976562 230.570312 86.972656 230.574219 86.972656 230.582031 L 86.601562 231.246094 C 86.597656 231.253906 86.59375 231.257812 86.589844 231.265625 L 86.207031 231.988281 C 86.203125 231.992188 86.199219 232 86.195312 232.007812 L 85.796875 232.800781 C 85.792969 232.808594 85.789062 232.8125 85.785156 232.820312 L 85.367188 233.699219 C 85.367188 233.707031 85.363281 233.714844 85.359375 233.722656 L 84.917969 234.710938 C 84.914062 234.71875 84.910156 234.726562 84.90625 234.734375 L 84.441406 235.859375 C 84.4375 235.867188 84.433594 235.878906 84.433594 235.886719 L 83.933594 237.195312 C 83.929688 237.203125 83.925781 237.214844 83.921875 237.222656 L 83.386719 238.785156 C 83.382812 238.796875 83.378906 238.808594 83.375 238.820312 L 82.789062 240.757812 C 82.785156 240.773438 82.78125 240.789062 82.777344 240.800781 L 82.125 243.367188 C 82.121094 243.386719 82.117188 243.40625 82.113281 243.421875 L 81.367188 247.273438 C 81.359375 247.3125 81.351562 247.351562 81.351562 247.390625 L 81.355469 247.332031 C 81.265625 248.53125 79.503906 248.53125 79.414062 247.332031 L 79.417969 247.390625 C 79.417969 247.351562 79.410156 247.3125 79.402344 247.273438 L 78.65625 243.421875 C 78.652344 243.40625 78.648438 243.386719 78.644531 243.367188 L 77.992188 240.800781 C 77.988281 240.789062 77.984375 240.773438 77.980469 240.757812 L 77.394531 238.820312 C 77.390625 238.808594 77.386719 238.796875 77.382812 238.785156 L 76.847656 237.222656 C 76.84375 237.214844 76.839844 237.203125 76.835938 237.195312 L 76.335938 235.886719 C 76.335938 235.878906 76.332031 235.867188 76.328125 235.859375 L 75.863281 234.734375 C 75.859375 234.726562 75.855469 234.71875 75.851562 234.710938 L 75.410156 233.722656 C 75.40625 233.714844 75.402344 233.707031 75.402344 233.699219 L 74.984375 232.820312 C 74.980469 232.8125 74.976562 232.808594 74.972656 232.800781 L 74.574219 232.007812 C 74.570312 232 74.566406 231.992188 74.5625 231.988281 L 74.179688 231.265625 C 74.175781 231.257812 74.171875 231.253906 74.167969 231.246094 L 73.796875 230.582031 C 73.796875 230.574219 73.792969 230.570312 73.789062 230.566406 L 73.429688 229.949219 C 73.425781 229.941406 73.425781 229.9375 73.421875 229.933594 L 73.070312 229.359375 C 73.070312 229.351562 73.066406 229.347656 73.0625 229.34375 L 72.722656 228.804688 C 72.71875 228.800781 72.714844 228.796875 72.714844 228.789062 L 72.378906 228.28125 C 72.378906 228.277344 72.375 228.273438 72.371094 228.269531 L 72.046875 227.789062 C 72.042969 227.785156 72.039062 227.78125 72.035156 227.773438 L 71.714844 227.316406 C 71.710938 227.3125 71.710938 227.308594 71.707031 227.304688 L 71.390625 226.871094 C 71.386719 226.863281 71.382812 226.859375 71.382812 226.855469 L 71.066406 226.4375 C 71.066406 226.433594 71.0625 226.429688 71.058594 226.425781 L 70.75 226.023438 C 70.746094 226.019531 70.742188 226.019531 70.742188 226.015625 L 70.433594 225.625 C 70.429688 225.621094 70.425781 225.617188 70.421875 225.617188 L 70.117188 225.238281 C 70.113281 225.238281 70.109375 225.234375 70.109375 225.230469 L 69.800781 224.867188 C 69.800781 224.863281 69.796875 224.859375 69.792969 224.855469 L 69.488281 224.5 C 69.484375 224.496094 69.480469 224.496094 69.476562 224.492188 L 69.171875 224.144531 C 69.167969 224.140625 69.164062 224.140625 69.164062 224.136719 L 68.855469 223.796875 C 68.851562 223.792969 68.847656 223.792969 68.847656 223.789062 L 68.535156 223.457031 C 68.535156 223.453125 68.53125 223.449219 68.527344 223.449219 L 68.214844 223.121094 C 68.210938 223.121094 68.207031 223.117188 68.207031 223.113281 L 67.890625 222.792969 C 67.886719 222.789062 67.882812 222.785156 67.878906 222.785156 L 67.558594 222.46875 C 67.558594 222.464844 67.554688 222.460938 67.550781 222.457031 L 67.226562 222.144531 C 67.222656 222.144531 67.21875 222.140625 67.214844 222.136719 L 66.886719 221.828125 C 66.882812 221.824219 66.878906 221.820312 66.875 221.816406 L 66.539062 221.511719 C 66.535156 221.507812 66.53125 221.503906 66.527344 221.5 L 66.183594 221.195312 C 66.179688 221.191406 66.175781 221.1875 66.171875 221.1875 L 65.816406 220.878906 C 65.816406 220.878906 65.8125 220.875 65.808594 220.871094 L 65.445312 220.566406 C 65.441406 220.5625 65.4375 220.558594 65.433594 220.554688 L 65.058594 220.25 C 65.054688 220.246094 65.050781 220.242188 65.046875 220.242188 L 64.660156 219.933594 C 64.65625 219.929688 64.652344 219.925781 64.648438 219.925781 L 64.246094 219.613281 C 64.242188 219.609375 64.238281 219.609375 64.234375 219.605469 L 63.816406 219.292969 C 63.8125 219.289062 63.808594 219.285156 63.804688 219.285156 L 63.367188 218.96875 C 63.363281 218.964844 63.359375 218.960938 63.355469 218.957031 L 62.898438 218.636719 C 62.894531 218.632812 62.890625 218.632812 62.886719 218.628906 L 62.402344 218.300781 C 62.398438 218.296875 62.394531 218.296875 62.390625 218.292969 L 61.882812 217.960938 C 61.878906 217.957031 61.875 217.953125 61.867188 217.949219 L 61.328125 217.609375 C 61.324219 217.605469 61.320312 217.605469 61.316406 217.601562 L 60.742188 217.253906 C 60.734375 217.25 60.730469 217.246094 60.726562 217.242188 L 60.109375 216.882812 C 60.101562 216.882812 60.097656 216.878906 60.09375 216.875 L 59.425781 216.503906 C 59.421875 216.5 59.414062 216.496094 59.410156 216.496094 L 58.683594 216.109375 C 58.679688 216.105469 58.671875 216.105469 58.667969 216.101562 L 57.871094 215.699219 C 57.867188 215.699219 57.859375 215.695312 57.851562 215.691406 L 56.972656 215.273438 C 56.964844 215.269531 56.957031 215.265625 56.949219 215.261719 L 55.964844 214.824219 C 55.957031 214.820312 55.945312 214.816406 55.9375 214.8125 L 54.8125 214.347656 C 54.804688 214.34375 54.796875 214.339844 54.785156 214.335938 L 53.480469 213.839844 C 53.46875 213.835938 53.460938 213.832031 53.449219 213.828125 L 51.886719 213.292969 C 51.875 213.289062 51.863281 213.285156 51.851562 213.28125 L 49.914062 212.695312 C 49.898438 212.691406 49.886719 212.6875 49.871094 212.683594 L 47.304688 212.03125 C 47.289062 212.027344 47.269531 212.023438 47.25 212.019531 L 43.402344 211.269531 C 43.363281 211.261719 43.324219 211.257812 43.285156 211.253906 L 43.34375 211.257812 C 42.144531 211.167969 42.144531 209.410156 43.34375 209.320312 L 43.285156 209.324219 C 43.324219 209.320312 43.363281 209.316406 43.402344 209.308594 L 47.25 208.558594 C 47.269531 208.554688 47.289062 208.550781 47.304688 208.546875 L 49.871094 207.894531 C 49.886719 207.890625 49.898438 207.886719 49.914062 207.882812 L 51.851562 207.296875 C 51.863281 207.292969 51.875 207.289062 51.886719 207.285156 L 53.449219 206.75 C 53.460938 206.746094 53.46875 206.742188 53.480469 206.738281 L 54.785156 206.242188 C 54.796875 206.238281 54.804688 206.234375 54.8125 206.230469 L 55.9375 205.765625 C 55.945312 205.761719 55.957031 205.757812 55.964844 205.753906 L 56.949219 205.316406 C 56.957031 205.3125 56.964844 205.308594 56.972656 205.304688 L 57.851562 204.886719 C 57.859375 204.882812 57.867188 204.878906 57.871094 204.875 L 58.667969 204.476562 C 58.671875 204.472656 58.679688 204.46875 58.683594 204.464844 L 59.410156 204.082031 C 59.414062 204.078125 59.421875 204.078125 59.425781 204.074219 L 60.09375 203.703125 C 60.097656 203.699219 60.101562 203.695312 60.109375 203.691406 L 60.726562 203.335938 C 60.730469 203.332031 60.734375 203.328125 60.742188 203.324219 L 61.316406 202.976562 C 61.320312 202.972656 61.324219 202.96875 61.328125 202.964844 L 61.867188 202.625 C 61.875 202.625 61.878906 202.621094 61.882812 202.617188 L 62.390625 202.285156 C 62.394531 202.28125 62.398438 202.277344 62.402344 202.277344 L 62.886719 201.949219 C 62.890625 201.945312 62.894531 201.941406 62.898438 201.941406 L 63.355469 201.621094 C 63.359375 201.617188 63.363281 201.613281 63.367188 201.609375 L 63.804688 201.292969 C 63.808594 201.289062 63.8125 201.289062 63.816406 201.285156 L 64.234375 200.972656 C 64.238281 200.96875 64.242188 200.964844 64.246094 200.964844 L 64.648438 200.652344 C 64.652344 200.648438 64.65625 200.648438 64.660156 200.644531 L 65.046875 200.335938 C 65.050781 200.332031 65.054688 200.332031 65.058594 200.328125 L 65.433594 200.019531 C 65.4375 200.019531 65.441406 200.015625 65.445312 200.011719 L 65.808594 199.707031 C 65.8125 199.703125 65.816406 199.699219 65.816406 199.695312 L 66.171875 199.390625 C 66.175781 199.386719 66.179688 199.386719 66.183594 199.382812 L 66.527344 199.074219 C 66.53125 199.074219 66.535156 199.070312 66.539062 199.066406 L 66.875 198.757812 C 66.878906 198.757812 66.882812 198.753906 66.886719 198.75 L 67.214844 198.441406 C 67.21875 198.4375 67.222656 198.433594 67.226562 198.429688 L 67.550781 198.117188 C 67.554688 198.117188 67.558594 198.113281 67.558594 198.109375 L 67.878906 197.792969 C 67.882812 197.789062 67.886719 197.785156 67.890625 197.785156 L 68.207031 197.464844 C 68.207031 197.460938 68.210938 197.457031 68.214844 197.453125 L 68.527344 197.128906 C 68.53125 197.125 68.535156 197.121094 68.535156 197.121094 L 68.847656 196.789062 C 68.847656 196.785156 68.851562 196.78125 68.855469 196.777344 L 69.164062 196.441406 C 69.164062 196.4375 69.167969 196.433594 69.171875 196.429688 L 69.476562 196.085938 C 69.480469 196.082031 69.484375 196.078125 69.488281 196.074219 L 69.792969 195.722656 C 69.796875 195.71875 69.800781 195.714844 69.800781 195.710938 L 70.109375 195.347656 C 70.109375 195.34375 70.113281 195.339844 70.117188 195.335938 L 70.421875 194.960938 C 70.425781 194.957031 70.429688 194.953125 70.433594 194.949219 L 70.742188 194.5625 C 70.742188 194.558594 70.746094 194.554688 70.75 194.550781 L 71.058594 194.148438 C 71.0625 194.144531 71.066406 194.140625 71.066406 194.136719 L 71.382812 193.71875 C 71.382812 193.714844 71.386719 193.710938 71.390625 193.707031 L 71.707031 193.269531 C 71.710938 193.265625 71.710938 193.261719 71.714844 193.257812 L 72.035156 192.800781 C 72.039062 192.796875 72.042969 192.792969 72.046875 192.789062 L 72.371094 192.308594 C 72.375 192.304688 72.378906 192.300781 72.378906 192.292969 L 72.714844 191.785156 C 72.714844 191.78125 72.71875 191.777344 72.722656 191.773438 L 73.0625 191.234375 C 73.066406 191.230469 73.070312 191.222656 73.070312 191.21875 L 73.421875 190.644531 C 73.425781 190.640625 73.425781 190.632812 73.429688 190.628906 L 73.789062 190.011719 C 73.792969 190.007812 73.796875 190 73.796875 189.996094 L 74.167969 189.332031 C 74.171875 189.324219 74.175781 189.320312 74.179688 189.3125 L 74.5625 188.589844 C 74.566406 188.582031 74.570312 188.578125 74.574219 188.570312 L 74.972656 187.777344 C 74.976562 187.769531 74.980469 187.761719 74.984375 187.757812 L 75.402344 186.875 C 75.402344 186.867188 75.40625 186.863281 75.410156 186.855469 L 75.851562 185.867188 C 75.855469 185.859375 75.859375 185.851562 75.863281 185.84375 L 76.328125 184.71875 C 76.332031 184.707031 76.335938 184.699219 76.335938 184.691406 L 76.835938 183.382812 C 76.839844 183.375 76.84375 183.363281 76.847656 183.351562 L 77.382812 181.792969 C 77.386719 181.78125 77.390625 181.769531 77.394531 181.757812 L 77.980469 179.816406 C 77.984375 179.804688 77.988281 179.789062 77.992188 179.773438 L 78.644531 177.210938 C 78.648438 177.191406 78.652344 177.171875 78.65625 177.152344 L 79.402344 173.304688 C 79.410156 173.265625 79.417969 173.226562 79.417969 173.1875 L 79.414062 173.246094 C 79.503906 172.046875 81.265625 172.046875 81.355469 173.246094 L 81.351562 173.1875 C 81.351562 173.226562 81.359375 173.265625 81.367188 173.304688 L 82.113281 177.152344 C 82.117188 177.171875 82.121094 177.191406 82.125 177.210938 L 82.777344 179.773438 C 82.78125 179.789062 82.785156 179.804688 82.789062 179.816406 L 83.375 181.757812 C 83.378906 181.769531 83.382812 181.78125 83.386719 181.792969 L 83.921875 183.351562 C 83.925781 183.363281 83.929688 183.375 83.933594 183.382812 L 84.433594 184.691406 C 84.433594 184.699219 84.4375 184.707031 84.441406 184.71875 L 84.90625 185.84375 C 84.910156 185.851562 84.914062 185.859375 84.917969 185.867188 L 85.359375 186.855469 C 85.363281 186.863281 85.367188 186.867188 85.367188 186.875 L 85.785156 187.757812 C 85.789062 187.761719 85.792969 187.769531 85.796875 187.777344 L 86.195312 188.570312 C 86.199219 188.578125 86.203125 188.582031 86.207031 188.589844 L 86.589844 189.3125 C 86.59375 189.320312 86.597656 189.324219 86.601562 189.332031 L 86.972656 189.996094 C 86.972656 190 86.976562 190.007812 86.980469 190.011719 L 87.339844 190.628906 C 87.34375 190.632812 87.34375 190.640625 87.347656 190.644531 L 87.699219 191.21875 C 87.699219 191.222656 87.703125 191.230469 87.707031 191.234375 L 88.046875 191.773438 C 88.050781 191.777344 88.054688 191.78125 88.054688 191.785156 L 88.390625 192.292969 C 88.390625 192.300781 88.394531 192.304688 88.398438 192.308594 L 88.722656 192.789062 C 88.726562 192.792969 88.730469 192.796875 88.734375 192.800781 L 89.054688 193.257812 C 89.058594 193.261719 89.058594 193.265625 89.0625 193.269531 L 89.378906 193.707031 C 89.382812 193.710938 89.386719 193.714844 89.386719 193.71875 L 89.703125 194.136719 C 89.703125 194.140625 89.707031 194.144531 89.710938 194.148438 L 90.019531 194.550781 C 90.023438 194.554688 90.027344 194.558594 90.027344 194.5625 L 90.335938 194.949219 C 90.339844 194.953125 90.34375 194.957031 90.347656 194.960938 L 90.652344 195.335938 C 90.65625 195.339844 90.660156 195.34375 90.660156 195.347656 L 90.96875 195.710938 C 90.96875 195.714844 90.972656 195.71875 90.976562 195.722656 L 91.28125 196.074219 C 91.285156 196.078125 91.289062 196.082031 91.289062 196.085938 L 91.597656 196.429688 C 91.601562 196.433594 91.601562 196.4375 91.605469 196.441406 L 91.914062 196.777344 C 91.917969 196.78125 91.921875 196.785156 91.921875 196.789062 L 92.234375 197.121094 C 92.234375 197.121094 92.238281 197.125 92.242188 197.128906 L 92.554688 197.453125 C 92.558594 197.457031 92.5625 197.460938 92.5625 197.464844 L 92.878906 197.785156 C 92.882812 197.785156 92.886719 197.789062 92.890625 197.792969 L 93.210938 198.109375 C 93.210938 198.113281 93.214844 198.117188 93.21875 198.117188 L 93.542969 198.429688 C 93.546875 198.433594 93.550781 198.4375 93.554688 198.441406 L 93.882812 198.75 C 93.886719 198.753906 93.890625 198.757812 93.894531 198.757812 L 94.230469 199.066406 C 94.234375 199.070312 94.238281 199.074219 94.242188 199.074219 L 94.585938 199.382812 C 94.589844 199.386719 94.59375 199.386719 94.597656 199.390625 L 94.953125 199.695312 C 94.953125 199.699219 94.957031 199.703125 94.960938 199.707031 L 95.324219 200.011719 C 95.328125 200.015625 95.332031 200.019531 95.335938 200.019531 L 95.710938 200.328125 C 95.714844 200.332031 95.71875 200.332031 95.722656 200.335938 L 96.109375 200.644531 C 96.113281 200.648438 96.117188 200.648438 96.121094 200.652344 L 96.523438 200.964844 C 96.527344 200.964844 96.53125 200.96875 96.535156 200.972656 L 96.953125 201.285156 C 96.957031 201.289062 96.960938 201.289062 96.964844 201.292969 L 97.402344 201.609375 C 97.40625 201.613281 97.410156 201.617188 97.414062 201.621094 L 97.871094 201.941406 C 97.875 201.941406 97.878906 201.945312 97.882812 201.949219 L 98.367188 202.277344 C 98.371094 202.277344 98.375 202.28125 98.378906 202.285156 L 98.886719 202.617188 C 98.890625 202.621094 98.894531 202.625 98.902344 202.625 L 99.441406 202.964844 C 99.445312 202.96875 99.449219 202.972656 99.453125 202.976562 L 100.027344 203.324219 C 100.035156 203.328125 100.039062 203.332031 100.042969 203.335938 L 100.660156 203.691406 C 100.667969 203.695312 100.671875 203.699219 100.675781 203.703125 L 101.34375 204.074219 C 101.347656 204.078125 101.355469 204.078125 101.359375 204.082031 L 102.085938 204.464844 C 102.089844 204.46875 102.097656 204.472656 102.101562 204.476562 L 102.898438 204.875 C 102.902344 204.878906 102.910156 204.882812 102.917969 204.886719 L 103.796875 205.304688 C 103.804688 205.308594 103.8125 205.3125 103.820312 205.316406 L 104.804688 205.753906 C 104.8125 205.757812 104.824219 205.761719 104.832031 205.765625 L 105.957031 206.230469 C 105.964844 206.234375 105.972656 206.238281 105.984375 206.242188 L 107.289062 206.738281 C 107.300781 206.742188 107.308594 206.746094 107.320312 206.75 L 108.882812 207.285156 C 108.894531 207.289062 108.90625 207.292969 108.917969 207.296875 L 110.855469 207.882812 C 110.871094 207.886719 110.882812 207.890625 110.898438 207.894531 L 113.464844 208.546875 C 113.480469 208.550781 113.5 208.554688 113.519531 208.558594 L 117.367188 209.308594 C 117.40625 209.316406 117.445312 209.320312 117.484375 209.324219 L 117.425781 209.320312 C 118.625 209.410156 118.625 211.167969 117.425781 211.257812 L 117.484375 211.253906 "/>
<path fill-rule="nonzero" fill="rgb(22%, 59.6%, 14.9%)" fill-opacity="1" d="M 209.324219 91.257812 C 209.285156 91.261719 209.246094 91.265625 209.210938 91.273438 L 203 92.480469 C 202.980469 92.484375 202.960938 92.488281 202.941406 92.496094 L 198.808594 93.546875 C 198.792969 93.550781 198.78125 93.554688 198.765625 93.558594 L 195.640625 94.5 C 195.628906 94.503906 195.617188 94.507812 195.605469 94.511719 L 193.089844 95.375 C 193.078125 95.378906 193.066406 95.382812 193.058594 95.386719 L 190.949219 96.191406 C 190.9375 96.191406 190.929688 96.195312 190.921875 96.199219 L 189.105469 96.953125 C 189.097656 96.957031 189.089844 96.957031 189.082031 96.960938 L 187.488281 97.671875 C 187.480469 97.675781 187.472656 97.679688 187.464844 97.683594 L 186.046875 98.359375 C 186.039062 98.359375 186.03125 98.363281 186.023438 98.367188 L 184.742188 99.011719 C 184.738281 99.015625 184.730469 99.019531 184.722656 99.023438 L 183.554688 99.644531 C 183.550781 99.648438 183.542969 99.648438 183.539062 99.652344 L 182.464844 100.253906 C 182.457031 100.253906 182.453125 100.257812 182.445312 100.261719 L 181.449219 100.839844 C 181.445312 100.84375 181.441406 100.847656 181.433594 100.851562 L 180.507812 101.414062 C 180.5 101.417969 180.496094 101.421875 180.492188 101.421875 L 179.621094 101.972656 C 179.617188 101.976562 179.613281 101.980469 179.605469 101.984375 L 178.785156 102.519531 C 178.78125 102.523438 178.777344 102.527344 178.773438 102.53125 L 177.996094 103.058594 C 177.992188 103.058594 177.988281 103.0625 177.984375 103.066406 L 177.242188 103.585938 C 177.238281 103.589844 177.234375 103.589844 177.230469 103.59375 L 176.523438 104.105469 C 176.519531 104.109375 176.515625 104.113281 176.511719 104.113281 L 175.835938 104.621094 C 175.832031 104.625 175.828125 104.625 175.824219 104.628906 L 175.175781 105.132812 C 175.171875 105.132812 175.167969 105.136719 175.164062 105.140625 L 174.535156 105.636719 C 174.535156 105.640625 174.53125 105.644531 174.527344 105.648438 L 173.917969 106.144531 C 173.914062 106.144531 173.914062 106.148438 173.910156 106.152344 L 173.320312 106.644531 C 173.316406 106.648438 173.3125 106.652344 173.308594 106.65625 L 172.738281 107.148438 C 172.734375 107.152344 172.730469 107.15625 172.726562 107.160156 L 172.167969 107.65625 C 172.164062 107.65625 172.160156 107.660156 172.160156 107.664062 L 171.613281 108.160156 C 171.609375 108.164062 171.605469 108.167969 171.601562 108.171875 L 171.066406 108.671875 C 171.0625 108.675781 171.0625 108.679688 171.058594 108.679688 L 170.53125 109.1875 C 170.527344 109.191406 170.527344 109.191406 170.523438 109.195312 L 170.003906 109.707031 C 170 109.710938 170 109.714844 169.996094 109.714844 L 169.484375 110.234375 C 169.480469 110.238281 169.476562 110.242188 169.476562 110.242188 L 168.96875 110.769531 C 168.964844 110.773438 168.964844 110.777344 168.960938 110.777344 L 168.460938 111.3125 C 168.457031 111.316406 168.453125 111.320312 168.449219 111.324219 L 167.953125 111.871094 C 167.949219 111.875 167.945312 111.875 167.941406 111.878906 L 167.449219 112.4375 C 167.445312 112.441406 167.441406 112.445312 167.4375 112.449219 L 166.945312 113.019531 C 166.941406 113.023438 166.9375 113.027344 166.933594 113.03125 L 166.441406 113.621094 C 166.4375 113.625 166.433594 113.628906 166.429688 113.628906 L 165.933594 114.238281 C 165.933594 114.242188 165.929688 114.246094 165.925781 114.25 L 165.429688 114.875 C 165.425781 114.878906 165.421875 114.882812 165.417969 114.886719 L 164.917969 115.535156 C 164.914062 115.539062 164.914062 115.542969 164.910156 115.546875 L 164.402344 116.226562 C 164.398438 116.230469 164.398438 116.234375 164.394531 116.238281 L 163.882812 116.941406 C 163.878906 116.945312 163.875 116.949219 163.875 116.953125 L 163.355469 117.695312 C 163.351562 117.699219 163.347656 117.703125 163.347656 117.707031 L 162.816406 118.484375 C 162.816406 118.488281 162.8125 118.492188 162.808594 118.496094 L 162.269531 119.320312 C 162.269531 119.324219 162.265625 119.328125 162.261719 119.332031 L 161.710938 120.203125 C 161.710938 120.207031 161.707031 120.214844 161.703125 120.21875 L 161.140625 121.148438 C 161.136719 121.152344 161.132812 121.15625 161.128906 121.164062 L 160.550781 122.15625 C 160.546875 122.164062 160.542969 122.167969 160.539062 122.175781 L 159.941406 123.25 C 159.9375 123.253906 159.933594 123.261719 159.933594 123.265625 L 159.3125 124.4375 C 159.308594 124.441406 159.304688 124.449219 159.300781 124.453125 L 158.65625 125.738281 C 158.652344 125.742188 158.648438 125.75 158.644531 125.757812 L 157.972656 127.175781 C 157.96875 127.183594 157.964844 127.191406 157.960938 127.199219 L 157.25 128.792969 C 157.246094 128.800781 157.242188 128.808594 157.242188 128.816406 L 156.488281 130.632812 C 156.484375 130.640625 156.480469 130.652344 156.476562 130.660156 L 155.675781 132.769531 C 155.671875 132.777344 155.667969 132.789062 155.664062 132.800781 L 154.800781 135.316406 C 154.796875 135.328125 154.792969 135.339844 154.789062 135.351562 L 153.847656 138.476562 C 153.839844 138.492188 153.835938 138.503906 153.835938 138.519531 L 152.78125 142.65625 C 152.777344 142.671875 152.773438 142.691406 152.769531 142.710938 L 151.5625 148.921875 C 151.554688 148.960938 151.550781 148.996094 151.546875 149.035156 L 150.996094 156.390625 C 150.90625 157.625 149.09375 157.625 149.003906 156.390625 L 148.453125 149.035156 C 148.449219 148.996094 148.445312 148.960938 148.4375 148.921875 L 147.230469 142.710938 C 147.226562 142.691406 147.222656 142.671875 147.21875 142.65625 L 146.164062 138.519531 C 146.164062 138.503906 146.160156 138.492188 146.152344 138.476562 L 145.210938 135.351562 C 145.207031 135.339844 145.203125 135.328125 145.199219 135.316406 L 144.335938 132.800781 C 144.332031 132.789062 144.328125 132.777344 144.324219 132.769531 L 143.523438 130.660156 C 143.519531 130.652344 143.515625 130.640625 143.511719 130.632812 L 142.757812 128.816406 C 142.757812 128.808594 142.753906 128.800781 142.75 128.792969 L 142.039062 127.199219 C 142.035156 127.191406 142.03125 127.183594 142.027344 127.175781 L 141.355469 125.757812 C 141.351562 125.75 141.347656 125.742188 141.34375 125.738281 L 140.699219 124.453125 C 140.695312 124.449219 140.691406 124.441406 140.6875 124.4375 L 140.066406 123.265625 C 140.066406 123.261719 140.0625 123.253906 140.058594 123.25 L 139.460938 122.175781 C 139.457031 122.167969 139.453125 122.164062 139.449219 122.15625 L 138.871094 121.164062 C 138.867188 121.15625 138.863281 121.152344 138.859375 121.148438 L 138.296875 120.21875 C 138.292969 120.214844 138.289062 120.207031 138.289062 120.203125 L 137.738281 119.332031 C 137.734375 119.328125 137.730469 119.324219 137.730469 119.320312 L 137.191406 118.496094 C 137.1875 118.492188 137.183594 118.488281 137.183594 118.484375 L 136.652344 117.707031 C 136.652344 117.703125 136.648438 117.699219 136.644531 117.695312 L 136.125 116.953125 C 136.125 116.949219 136.121094 116.945312 136.117188 116.941406 L 135.605469 116.238281 C 135.601562 116.234375 135.601562 116.230469 135.597656 116.226562 L 135.089844 115.546875 C 135.085938 115.542969 135.085938 115.539062 135.082031 115.535156 L 134.582031 114.886719 C 134.578125 114.882812 134.574219 114.878906 134.570312 114.875 L 134.074219 114.25 C 134.070312 114.246094 134.066406 114.242188 134.066406 114.238281 L 133.570312 113.628906 C 133.566406 113.628906 133.5625 113.625 133.558594 113.621094 L 133.066406 113.03125 C 133.0625 113.027344 133.058594 113.023438 133.054688 113.019531 L 132.5625 112.449219 C 132.558594 112.445312 132.554688 112.441406 132.550781 112.4375 L 132.058594 111.878906 C 132.054688 111.875 132.050781 111.875 132.046875 111.871094 L 131.550781 111.324219 C 131.546875 111.320312 131.542969 111.316406 131.539062 111.3125 L 131.039062 110.777344 C 131.035156 110.777344 131.035156 110.773438 131.03125 110.769531 L 130.523438 110.242188 C 130.523438 110.242188 130.519531 110.238281 130.515625 110.234375 L 130.003906 109.714844 C 130 109.714844 130 109.710938 129.996094 109.707031 L 129.476562 109.195312 C 129.472656 109.191406 129.472656 109.191406 129.46875 109.1875 L 128.941406 108.679688 C 128.9375 108.679688 128.9375 108.675781 128.933594 108.671875 L 128.398438 108.171875 C 128.394531 108.167969 128.390625 108.164062 128.386719 108.160156 L 127.839844 107.664062 C 127.839844 107.660156 127.835938 107.65625 127.832031 107.65625 L 127.273438 107.160156 C 127.269531 107.15625 127.265625 107.152344 127.261719 107.148438 L 126.691406 106.65625 C 126.6875 106.652344 126.683594 106.648438 126.679688 106.644531 L 126.089844 106.152344 C 126.085938 106.148438 126.085938 106.144531 126.082031 106.144531 L 125.472656 105.648438 C 125.46875 105.644531 125.464844 105.640625 125.464844 105.636719 L 124.835938 105.140625 C 124.832031 105.136719 124.828125 105.132812 124.824219 105.132812 L 124.175781 104.628906 C 124.171875 104.625 124.167969 104.625 124.164062 104.621094 L 123.488281 104.113281 C 123.484375 104.113281 123.480469 104.109375 123.476562 104.105469 L 122.769531 103.59375 C 122.765625 103.589844 122.761719 103.589844 122.757812 103.585938 L 122.015625 103.066406 C 122.011719 103.0625 122.007812 103.058594 122.003906 103.058594 L 121.226562 102.53125 C 121.222656 102.527344 121.21875 102.523438 121.214844 102.519531 L 120.394531 101.984375 C 120.386719 101.980469 120.382812 101.976562 120.378906 101.972656 L 119.507812 101.421875 C 119.503906 101.421875 119.5 101.417969 119.492188 101.414062 L 118.566406 100.851562 C 118.558594 100.847656 118.554688 100.84375 118.550781 100.839844 L 117.554688 100.261719 C 117.546875 100.257812 117.542969 100.253906 117.535156 100.253906 L 116.460938 99.652344 C 116.457031 99.648438 116.449219 99.648438 116.445312 99.644531 L 115.277344 99.023438 C 115.269531 99.019531 115.261719 99.015625 115.257812 99.011719 L 113.976562 98.367188 C 113.96875 98.363281 113.960938 98.359375 113.953125 98.359375 L 112.535156 97.683594 C 112.527344 97.679688 112.519531 97.675781 112.511719 97.671875 L 110.917969 96.960938 C 110.910156 96.957031 110.902344 96.957031 110.894531 96.953125 L 109.078125 96.199219 C 109.070312 96.195312 109.0625 96.191406 109.050781 96.191406 L 106.941406 95.386719 C 106.933594 95.382812 106.921875 95.378906 106.910156 95.375 L 104.394531 94.511719 C 104.382812 94.507812 104.371094 94.503906 104.359375 94.5 L 101.234375 93.558594 C 101.21875 93.554688 101.207031 93.550781 101.191406 93.546875 L 97.058594 92.496094 C 97.039062 92.488281 97.019531 92.484375 97 92.480469 L 90.789062 91.273438 C 90.753906 91.265625 90.714844 91.261719 90.675781 91.257812 L 83.320312 90.707031 C 82.089844 90.617188 82.089844 88.804688 83.320312 88.714844 L 90.675781 88.164062 C 90.714844 88.160156 90.753906 88.15625 90.789062 88.148438 L 97 86.941406 C 97.019531 86.9375 97.039062 86.933594 97.058594 86.929688 L 101.191406 85.878906 C 101.207031 85.875 101.21875 85.871094 101.234375 85.867188 L 104.359375 84.921875 C 104.371094 84.917969 104.382812 84.914062 104.394531 84.910156 L 106.910156 84.046875 C 106.921875 84.042969 106.933594 84.039062 106.941406 84.035156 L 109.050781 83.234375 C 109.0625 83.230469 109.070312 83.226562 109.078125 83.222656 L 110.894531 82.472656 C 110.902344 82.46875 110.910156 82.464844 110.917969 82.460938 L 112.511719 81.75 C 112.519531 81.746094 112.527344 81.742188 112.535156 81.738281 L 113.953125 81.066406 C 113.960938 81.0625 113.96875 81.058594 113.976562 81.054688 L 115.257812 80.410156 C 115.261719 80.40625 115.269531 80.402344 115.277344 80.398438 L 116.445312 79.777344 C 116.449219 79.777344 116.457031 79.773438 116.460938 79.769531 L 117.535156 79.171875 C 117.542969 79.167969 117.546875 79.164062 117.554688 79.160156 L 118.550781 78.582031 C 118.554688 78.578125 118.558594 78.574219 118.566406 78.570312 L 119.492188 78.007812 C 119.5 78.003906 119.503906 78.003906 119.507812 78 L 120.378906 77.449219 C 120.382812 77.445312 120.386719 77.441406 120.394531 77.441406 L 121.214844 76.902344 C 121.21875 76.898438 121.222656 76.894531 121.226562 76.894531 L 122.003906 76.367188 C 122.007812 76.363281 122.011719 76.359375 122.015625 76.355469 L 122.757812 75.835938 C 122.761719 75.835938 122.765625 75.832031 122.769531 75.828125 L 123.476562 75.316406 C 123.480469 75.3125 123.484375 75.3125 123.488281 75.308594 L 124.164062 74.800781 C 124.167969 74.800781 124.171875 74.796875 124.175781 74.792969 L 124.824219 74.292969 C 124.828125 74.289062 124.832031 74.285156 124.835938 74.28125 L 125.464844 73.785156 C 125.464844 73.78125 125.46875 73.777344 125.472656 73.777344 L 126.082031 73.28125 C 126.085938 73.277344 126.085938 73.273438 126.089844 73.269531 L 126.679688 72.777344 C 126.683594 72.773438 126.6875 72.769531 126.691406 72.769531 L 127.261719 72.273438 C 127.265625 72.269531 127.269531 72.265625 127.273438 72.265625 L 127.832031 71.769531 C 127.835938 71.765625 127.839844 71.761719 127.839844 71.757812 L 128.386719 71.261719 C 128.390625 71.257812 128.394531 71.253906 128.398438 71.253906 L 128.933594 70.75 C 128.9375 70.75 128.9375 70.746094 128.941406 70.742188 L 129.46875 70.238281 C 129.472656 70.234375 129.472656 70.230469 129.476562 70.226562 L 129.996094 69.714844 C 130 69.714844 130 69.710938 130.003906 69.707031 L 130.515625 69.1875 C 130.519531 69.1875 130.523438 69.183594 130.523438 69.179688 L 131.03125 68.652344 C 131.035156 68.648438 131.035156 68.648438 131.039062 68.644531 L 131.539062 68.109375 C 131.542969 68.105469 131.546875 68.101562 131.550781 68.097656 L 132.046875 67.554688 C 132.050781 67.550781 132.054688 67.546875 132.058594 67.542969 L 132.550781 66.984375 C 132.554688 66.980469 132.558594 66.976562 132.5625 66.972656 L 133.054688 66.402344 C 133.058594 66.398438 133.0625 66.394531 133.066406 66.390625 L 133.558594 65.804688 C 133.5625 65.800781 133.566406 65.796875 133.570312 65.792969 L 134.066406 65.183594 C 134.066406 65.183594 134.070312 65.179688 134.074219 65.175781 L 134.570312 64.546875 C 134.574219 64.542969 134.578125 64.539062 134.582031 64.535156 L 135.082031 63.886719 C 135.085938 63.882812 135.085938 63.878906 135.089844 63.875 L 135.597656 63.199219 C 135.601562 63.195312 135.601562 63.191406 135.605469 63.1875 L 136.117188 62.480469 C 136.121094 62.476562 136.125 62.472656 136.125 62.46875 L 136.644531 61.730469 C 136.648438 61.722656 136.652344 61.71875 136.652344 61.714844 L 137.183594 60.9375 C 137.183594 60.933594 137.1875 60.929688 137.191406 60.925781 L 137.730469 60.105469 C 137.730469 60.097656 137.734375 60.09375 137.738281 60.089844 L 138.289062 59.21875 C 138.289062 59.214844 138.292969 59.210938 138.296875 59.203125 L 138.859375 58.277344 C 138.863281 58.269531 138.867188 58.265625 138.871094 58.261719 L 139.449219 57.265625 C 139.453125 57.257812 139.457031 57.253906 139.460938 57.25 L 140.058594 56.171875 C 140.0625 56.167969 140.066406 56.160156 140.066406 56.15625 L 140.6875 54.988281 C 140.691406 54.980469 140.695312 54.972656 140.699219 54.96875 L 141.34375 53.6875 C 141.347656 53.679688 141.351562 53.671875 141.355469 53.664062 L 142.027344 52.246094 C 142.03125 52.238281 142.035156 52.230469 142.039062 52.222656 L 142.75 50.628906 C 142.753906 50.621094 142.757812 50.613281 142.757812 50.605469 L 143.511719 48.789062 C 143.515625 48.78125 143.519531 48.773438 143.523438 48.761719 L 144.324219 46.652344 C 144.328125 46.644531 144.332031 46.632812 144.335938 46.625 L 145.199219 44.105469 C 145.203125 44.09375 145.207031 44.082031 145.210938 44.070312 L 146.152344 40.945312 C 146.160156 40.929688 146.164062 40.917969 146.164062 40.902344 L 147.21875 36.769531 C 147.222656 36.75 147.226562 36.730469 147.230469 36.710938 L 148.4375 30.503906 C 148.445312 30.464844 148.449219 30.425781 148.453125 30.386719 L 149.003906 23.035156 C 149.09375 21.800781 150.90625 21.800781 150.996094 23.035156 L 151.546875 30.386719 C 151.550781 30.425781 151.554688 30.464844 151.5625 30.503906 L 152.769531 36.710938 C 152.773438 36.730469 152.777344 36.75 152.78125 36.769531 L 153.835938 40.902344 C 153.835938 40.917969 153.839844 40.929688 153.847656 40.945312 L 154.789062 44.070312 C 154.792969 44.082031 154.796875 44.09375 154.800781 44.105469 L 155.664062 46.625 C 155.667969 46.632812 155.671875 46.644531 155.675781 46.652344 L 156.476562 48.761719 C 156.480469 48.773438 156.484375 48.78125 156.488281 48.789062 L 157.242188 50.605469 C 157.242188 50.613281 157.246094 50.621094 157.25 50.628906 L 157.960938 52.222656 C 157.964844 52.230469 157.96875 52.238281 157.972656 52.246094 L 158.644531 53.664062 C 158.648438 53.671875 158.652344 53.679688 158.65625 53.6875 L 159.300781 54.96875 C 159.304688 54.972656 159.308594 54.980469 159.3125 54.988281 L 159.933594 56.15625 C 159.933594 56.160156 159.9375 56.167969 159.941406 56.171875 L 160.539062 57.25 C 160.542969 57.253906 160.546875 57.257812 160.550781 57.265625 L 161.128906 58.261719 C 161.132812 58.265625 161.136719 58.269531 161.140625 58.277344 L 161.703125 59.203125 C 161.707031 59.210938 161.710938 59.214844 161.710938 59.21875 L 162.261719 60.089844 C 162.265625 60.09375 162.269531 60.097656 162.269531 60.105469 L 162.808594 60.925781 C 162.8125 60.929688 162.816406 60.933594 162.816406 60.9375 L 163.347656 61.714844 C 163.347656 61.71875 163.351562 61.722656 163.355469 61.730469 L 163.875 62.46875 C 163.875 62.472656 163.878906 62.476562 163.882812 62.480469 L 164.394531 63.1875 C 164.398438 63.191406 164.398438 63.195312 164.402344 63.199219 L 164.910156 63.875 C 164.914062 63.878906 164.914062 63.882812 164.917969 63.886719 L 165.417969 64.535156 C 165.421875 64.539062 165.425781 64.542969 165.429688 64.546875 L 165.925781 65.175781 C 165.929688 65.179688 165.933594 65.183594 165.933594 65.183594 L 166.429688 65.792969 C 166.433594 65.796875 166.4375 65.800781 166.441406 65.804688 L 166.933594 66.390625 C 166.9375 66.394531 166.941406 66.398438 166.945312 66.402344 L 167.4375 66.972656 C 167.441406 66.976562 167.445312 66.980469 167.449219 66.984375 L 167.941406 67.542969 C 167.945312 67.546875 167.949219 67.550781 167.953125 67.554688 L 168.449219 68.097656 C 168.453125 68.101562 168.457031 68.105469 168.460938 68.109375 L 168.960938 68.644531 C 168.964844 68.648438 168.964844 68.648438 168.96875 68.652344 L 169.476562 69.179688 C 169.476562 69.183594 169.480469 69.1875 169.484375 69.1875 L 169.996094 69.707031 C 170 69.710938 170 69.714844 170.003906 69.714844 L 170.523438 70.226562 C 170.527344 70.230469 170.527344 70.234375 170.53125 70.238281 L 171.058594 70.742188 C 171.0625 70.746094 171.0625 70.75 171.066406 70.75 L 171.601562 71.253906 C 171.605469 71.253906 171.609375 71.257812 171.613281 71.261719 L 172.160156 71.757812 C 172.160156 71.761719 172.164062 71.765625 172.167969 71.769531 L 172.726562 72.265625 C 172.730469 72.265625 172.734375 72.269531 172.738281 72.273438 L 173.308594 72.769531 C 173.3125 72.769531 173.316406 72.773438 173.320312 72.777344 L 173.910156 73.269531 C 173.914062 73.273438 173.914062 73.277344 173.917969 73.28125 L 174.527344 73.777344 C 174.53125 73.777344 174.535156 73.78125 174.535156 73.785156 L 175.164062 74.28125 C 175.167969 74.285156 175.171875 74.289062 175.175781 74.292969 L 175.824219 74.792969 C 175.828125 74.796875 175.832031 74.800781 175.835938 74.800781 L 176.511719 75.308594 C 176.515625 75.3125 176.519531 75.3125 176.523438 75.316406 L 177.230469 75.828125 C 177.234375 75.832031 177.238281 75.835938 177.242188 75.835938 L 177.984375 76.355469 C 177.988281 76.359375 177.992188 76.363281 177.996094 76.367188 L 178.773438 76.894531 C 178.777344 76.894531 178.78125 76.898438 178.785156 76.902344 L 179.605469 77.441406 C 179.613281 77.441406 179.617188 77.445312 179.621094 77.449219 L 180.492188 78 C 180.496094 78.003906 180.5 78.003906 180.507812 78.007812 L 181.433594 78.570312 C 181.441406 78.574219 181.445312 78.578125 181.449219 78.582031 L 182.445312 79.160156 C 182.453125 79.164062 182.457031 79.167969 182.464844 79.171875 L 183.539062 79.769531 C 183.542969 79.773438 183.550781 79.777344 183.554688 79.777344 L 184.722656 80.398438 C 184.730469 80.402344 184.738281 80.40625 184.742188 80.410156 L 186.023438 81.054688 C 186.03125 81.058594 186.039062 81.0625 186.046875 81.066406 L 187.464844 81.738281 C 187.472656 81.742188 187.480469 81.746094 187.488281 81.75 L 189.082031 82.460938 C 189.089844 82.464844 189.097656 82.46875 189.105469 82.472656 L 190.921875 83.222656 C 190.929688 83.226562 190.9375 83.230469 190.949219 83.234375 L 193.058594 84.035156 C 193.066406 84.039062 193.078125 84.042969 193.089844 84.046875 L 195.605469 84.910156 C 195.617188 84.914062 195.628906 84.917969 195.640625 84.921875 L 198.765625 85.867188 C 198.78125 85.871094 198.792969 85.875 198.808594 85.878906 L 202.941406 86.929688 C 202.960938 86.933594 202.980469 86.9375 203 86.941406 L 209.210938 88.148438 C 209.246094 88.15625 209.285156 88.160156 209.324219 88.164062 L 216.679688 88.714844 C 217.910156 88.804688 217.910156 90.617188 216.679688 90.707031 L 209.324219 91.257812 "/>
<path fill-rule="nonzero" fill="rgb(58.4%, 34.5%, 69.8%)" fill-opacity="1" d="M 264.125 211.449219 C 264.085938 211.449219 264.046875 211.457031 264.007812 211.464844 L 259.371094 212.363281 C 259.351562 212.367188 259.335938 212.371094 259.316406 212.378906 L 256.226562 213.164062 C 256.210938 213.167969 256.199219 213.171875 256.183594 213.175781 L 253.851562 213.878906 C 253.839844 213.882812 253.828125 213.886719 253.816406 213.890625 L 251.933594 214.535156 C 251.925781 214.539062 251.914062 214.542969 251.90625 214.546875 L 250.328125 215.144531 C 250.320312 215.148438 250.3125 215.152344 250.300781 215.15625 L 248.949219 215.71875 C 248.941406 215.722656 248.929688 215.722656 248.921875 215.726562 L 247.734375 216.257812 C 247.726562 216.261719 247.71875 216.265625 247.710938 216.269531 L 246.652344 216.773438 C 246.644531 216.777344 246.636719 216.777344 246.632812 216.78125 L 245.675781 217.265625 C 245.667969 217.265625 245.664062 217.269531 245.65625 217.273438 L 244.785156 217.738281 C 244.777344 217.738281 244.773438 217.742188 244.765625 217.746094 L 243.964844 218.191406 C 243.960938 218.195312 243.953125 218.199219 243.949219 218.203125 L 243.207031 218.636719 C 243.199219 218.636719 243.195312 218.640625 243.191406 218.644531 L 242.496094 219.066406 C 242.492188 219.066406 242.488281 219.070312 242.480469 219.074219 L 241.832031 219.484375 C 241.828125 219.488281 241.824219 219.488281 241.820312 219.492188 L 241.207031 219.894531 C 241.203125 219.898438 241.199219 219.898438 241.191406 219.902344 L 240.613281 220.296875 C 240.609375 220.300781 240.605469 220.300781 240.601562 220.304688 L 240.050781 220.691406 C 240.046875 220.695312 240.042969 220.699219 240.035156 220.703125 L 239.511719 221.082031 C 239.507812 221.085938 239.503906 221.089844 239.5 221.09375 L 238.996094 221.46875 C 238.992188 221.472656 238.988281 221.476562 238.984375 221.476562 L 238.5 221.851562 C 238.496094 221.855469 238.492188 221.859375 238.488281 221.859375 L 238.019531 222.230469 C 238.015625 222.234375 238.011719 222.238281 238.007812 222.242188 L 237.554688 222.609375 C 237.550781 222.613281 237.550781 222.617188 237.546875 222.621094 L 237.105469 222.988281 C 237.101562 222.992188 237.101562 222.996094 237.097656 222.996094 L 236.667969 223.367188 C 236.664062 223.371094 236.664062 223.371094 236.660156 223.375 L 236.242188 223.746094 C 236.238281 223.746094 236.234375 223.75 236.234375 223.753906 L 235.824219 224.125 C 235.824219 224.128906 235.820312 224.132812 235.816406 224.132812 L 235.417969 224.507812 C 235.414062 224.511719 235.410156 224.515625 235.40625 224.515625 L 235.015625 224.894531 C 235.011719 224.898438 235.007812 224.898438 235.007812 224.902344 L 234.621094 225.285156 C 234.617188 225.285156 234.613281 225.289062 234.609375 225.292969 L 234.230469 225.679688 C 234.226562 225.683594 234.222656 225.6875 234.21875 225.6875 L 233.84375 226.082031 C 233.839844 226.082031 233.835938 226.085938 233.835938 226.089844 L 233.460938 226.488281 C 233.457031 226.492188 233.453125 226.496094 233.453125 226.5 L 233.082031 226.90625 C 233.078125 226.910156 233.074219 226.914062 233.070312 226.917969 L 232.703125 227.332031 C 232.699219 227.335938 232.695312 227.339844 232.691406 227.34375 L 232.324219 227.769531 C 232.320312 227.773438 232.316406 227.777344 232.316406 227.78125 L 231.945312 228.21875 C 231.945312 228.222656 231.941406 228.226562 231.9375 228.230469 L 231.566406 228.683594 C 231.566406 228.683594 231.5625 228.6875 231.558594 228.691406 L 231.1875 229.160156 C 231.183594 229.164062 231.183594 229.167969 231.179688 229.171875 L 230.804688 229.65625 C 230.800781 229.660156 230.800781 229.664062 230.796875 229.667969 L 230.417969 230.171875 C 230.414062 230.175781 230.414062 230.179688 230.410156 230.183594 L 230.027344 230.710938 C 230.023438 230.714844 230.023438 230.71875 230.019531 230.722656 L 229.632812 231.273438 C 229.628906 231.277344 229.625 231.28125 229.625 231.285156 L 229.230469 231.867188 C 229.226562 231.871094 229.222656 231.875 229.222656 231.878906 L 228.820312 232.492188 C 228.816406 232.496094 228.8125 232.5 228.8125 232.507812 L 228.402344 233.15625 C 228.398438 233.160156 228.394531 233.164062 228.390625 233.171875 L 227.972656 233.863281 C 227.96875 233.867188 227.964844 233.875 227.960938 233.878906 L 227.527344 234.621094 C 227.527344 234.628906 227.523438 234.632812 227.519531 234.636719 L 227.074219 235.441406 C 227.070312 235.445312 227.066406 235.453125 227.0625 235.457031 L 226.601562 236.328125 C 226.597656 236.335938 226.59375 236.34375 226.589844 236.347656 L 226.109375 237.304688 C 226.105469 237.3125 226.101562 237.320312 226.097656 237.324219 L 225.59375 238.386719 C 225.589844 238.394531 225.589844 238.398438 225.585938 238.40625 L 225.054688 239.597656 C 225.050781 239.605469 225.046875 239.613281 225.042969 239.621094 L 224.484375 240.976562 C 224.480469 240.984375 224.476562 240.992188 224.472656 241.003906 L 223.875 242.578125 C 223.871094 242.585938 223.867188 242.597656 223.863281 242.609375 L 223.21875 244.488281 C 223.214844 244.5 223.210938 244.511719 223.207031 244.523438 L 222.5 246.859375 C 222.496094 246.871094 222.492188 246.886719 222.488281 246.898438 L 221.703125 249.988281 C 221.699219 250.007812 221.695312 250.027344 221.691406 250.042969 L 220.789062 254.679688 C 220.78125 254.71875 220.777344 254.757812 220.773438 254.796875 L 220.613281 256.964844 C 220.519531 258.199219 218.710938 258.199219 218.617188 256.964844 L 218.457031 254.796875 C 218.453125 254.757812 218.449219 254.71875 218.441406 254.679688 L 217.539062 250.042969 C 217.535156 250.027344 217.53125 250.007812 217.527344 249.988281 L 216.742188 246.898438 C 216.738281 246.886719 216.734375 246.871094 216.730469 246.859375 L 216.023438 244.523438 C 216.019531 244.511719 216.015625 244.5 216.011719 244.488281 L 215.367188 242.609375 C 215.363281 242.597656 215.359375 242.585938 215.355469 242.578125 L 214.757812 241.003906 C 214.753906 240.992188 214.75 240.984375 214.746094 240.976562 L 214.1875 239.621094 C 214.183594 239.613281 214.179688 239.605469 214.175781 239.597656 L 213.644531 238.40625 C 213.640625 238.398438 213.640625 238.394531 213.636719 238.386719 L 213.132812 237.324219 C 213.128906 237.320312 213.125 237.3125 213.121094 237.304688 L 212.640625 236.347656 C 212.636719 236.34375 212.632812 236.335938 212.628906 236.328125 L 212.167969 235.457031 C 212.164062 235.453125 212.160156 235.445312 212.15625 235.441406 L 211.710938 234.636719 C 211.707031 234.632812 211.703125 234.628906 211.703125 234.621094 L 211.269531 233.878906 C 211.265625 233.875 211.261719 233.867188 211.257812 233.863281 L 210.839844 233.171875 C 210.835938 233.164062 210.832031 233.160156 210.828125 233.15625 L 210.417969 232.507812 C 210.417969 232.5 210.414062 232.496094 210.410156 232.492188 L 210.007812 231.878906 C 210.007812 231.875 210.003906 231.871094 210 231.867188 L 209.605469 231.285156 C 209.605469 231.28125 209.601562 231.277344 209.597656 231.273438 L 209.210938 230.722656 C 209.207031 230.71875 209.207031 230.714844 209.203125 230.710938 L 208.820312 230.183594 C 208.816406 230.179688 208.816406 230.175781 208.8125 230.171875 L 208.433594 229.667969 C 208.429688 229.664062 208.429688 229.660156 208.425781 229.65625 L 208.050781 229.171875 C 208.046875 229.167969 208.046875 229.164062 208.042969 229.160156 L 207.671875 228.691406 C 207.667969 228.6875 207.664062 228.683594 207.664062 228.683594 L 207.292969 228.230469 C 207.289062 228.226562 207.285156 228.222656 207.285156 228.21875 L 206.914062 227.78125 C 206.914062 227.777344 206.910156 227.773438 206.90625 227.769531 L 206.539062 227.34375 C 206.535156 227.339844 206.53125 227.335938 206.527344 227.332031 L 206.160156 226.917969 C 206.15625 226.914062 206.152344 226.910156 206.148438 226.90625 L 205.777344 226.5 C 205.777344 226.496094 205.773438 226.492188 205.769531 226.488281 L 205.394531 226.089844 C 205.394531 226.085938 205.390625 226.082031 205.386719 226.082031 L 205.011719 225.6875 C 205.007812 225.6875 205.003906 225.683594 205 225.679688 L 204.621094 225.292969 C 204.617188 225.289062 204.613281 225.285156 204.609375 225.285156 L 204.222656 224.902344 C 204.222656 224.898438 204.21875 224.898438 204.214844 224.894531 L 203.824219 224.515625 C 203.820312 224.515625 203.816406 224.511719 203.8125 224.507812 L 203.414062 224.132812 C 203.410156 224.132812 203.40625 224.128906 203.40625 224.125 L 202.996094 223.753906 C 202.996094 223.75 202.992188 223.746094 202.988281 223.746094 L 202.570312 223.375 C 202.566406 223.371094 202.566406 223.371094 202.5625 223.367188 L 202.132812 222.996094 C 202.128906 222.996094 202.128906 222.992188 202.125 222.988281 L 201.683594 222.621094 C 201.679688 222.617188 201.679688 222.613281 201.675781 222.609375 L 201.222656 222.242188 C 201.21875 222.238281 201.214844 222.234375 201.210938 222.230469 L 200.742188 221.859375 C 200.738281 221.859375 200.734375 221.855469 200.730469 221.851562 L 200.246094 221.476562 C 200.242188 221.476562 200.238281 221.472656 200.234375 221.46875 L 199.730469 221.09375 C 199.726562 221.089844 199.722656 221.085938 199.71875 221.082031 L 199.195312 220.703125 C 199.1875 220.699219 199.183594 220.695312 199.179688 220.691406 L 198.628906 220.304688 C 198.625 220.300781 198.621094 220.300781 198.617188 220.296875 L 198.039062 219.902344 C 198.03125 219.898438 198.027344 219.898438 198.023438 219.894531 L 197.410156 219.492188 C 197.40625 219.488281 197.402344 219.488281 197.398438 219.484375 L 196.75 219.074219 C 196.742188 219.070312 196.738281 219.066406 196.734375 219.066406 L 196.039062 218.644531 C 196.035156 218.640625 196.03125 218.636719 196.023438 218.636719 L 195.28125 218.203125 C 195.277344 218.199219 195.269531 218.195312 195.265625 218.191406 L 194.464844 217.746094 C 194.457031 217.742188 194.453125 217.738281 194.445312 217.738281 L 193.574219 217.273438 C 193.566406 217.269531 193.5625 217.265625 193.554688 217.265625 L 192.597656 216.78125 C 192.59375 216.777344 192.585938 216.777344 192.578125 216.773438 L 191.519531 216.269531 C 191.511719 216.265625 191.503906 216.261719 191.496094 216.257812 L 190.308594 215.726562 C 190.300781 215.722656 190.289062 215.722656 190.28125 215.71875 L 188.929688 215.15625 C 188.917969 215.152344 188.910156 215.148438 188.902344 215.144531 L 187.324219 214.546875 C 187.316406 214.542969 187.304688 214.539062 187.296875 214.535156 L 185.414062 213.890625 C 185.402344 213.886719 185.390625 213.882812 185.378906 213.878906 L 183.046875 213.175781 C 183.03125 213.171875 183.019531 213.167969 183.003906 213.164062 L 179.914062 212.378906 C 179.894531 212.371094 179.878906 212.367188 179.859375 212.363281 L 175.222656 211.464844 C 175.183594 211.457031 175.144531 211.449219 175.105469 211.449219 L 172.9375 211.285156 C 171.703125 211.195312 171.703125 209.382812 172.9375 209.292969 L 175.105469 209.128906 C 175.144531 209.125 175.183594 209.121094 175.222656 209.113281 L 179.859375 208.210938 C 179.878906 208.207031 179.894531 208.203125 179.914062 208.199219 L 183.003906 207.414062 C 183.019531 207.410156 183.03125 207.40625 183.046875 207.402344 L 185.378906 206.699219 C 185.390625 206.695312 185.402344 206.691406 185.414062 206.6875 L 187.296875 206.039062 C 187.304688 206.039062 187.316406 206.035156 187.324219 206.03125 L 188.902344 205.429688 C 188.910156 205.429688 188.917969 205.425781 188.929688 205.421875 L 190.28125 204.859375 C 190.289062 204.855469 190.300781 204.851562 190.308594 204.847656 L 191.496094 204.320312 C 191.503906 204.316406 191.511719 204.3125 191.519531 204.308594 L 192.578125 203.804688 C 192.585938 203.800781 192.59375 203.796875 192.597656 203.792969 L 193.554688 203.3125 C 193.5625 203.308594 193.566406 203.308594 193.574219 203.304688 L 194.445312 202.839844 C 194.453125 202.835938 194.457031 202.835938 194.464844 202.832031 L 195.265625 202.382812 C 195.269531 202.382812 195.277344 202.378906 195.28125 202.375 L 196.023438 201.941406 C 196.03125 201.9375 196.035156 201.9375 196.039062 201.933594 L 196.734375 201.511719 C 196.738281 201.507812 196.742188 201.507812 196.75 201.503906 L 197.398438 201.09375 C 197.402344 201.089844 197.40625 201.085938 197.410156 201.082031 L 198.023438 200.683594 C 198.027344 200.679688 198.03125 200.675781 198.039062 200.675781 L 198.617188 200.28125 C 198.621094 200.277344 198.625 200.273438 198.628906 200.269531 L 199.179688 199.882812 C 199.183594 199.882812 199.1875 199.878906 199.195312 199.875 L 199.71875 199.492188 C 199.722656 199.492188 199.726562 199.488281 199.730469 199.484375 L 200.234375 199.109375 C 200.238281 199.105469 200.242188 199.101562 200.246094 199.097656 L 200.730469 198.726562 C 200.734375 198.722656 200.738281 198.71875 200.742188 198.714844 L 201.210938 198.34375 C 201.214844 198.34375 201.21875 198.339844 201.222656 198.335938 L 201.675781 197.964844 C 201.679688 197.964844 201.679688 197.960938 201.683594 197.957031 L 202.125 197.589844 C 202.128906 197.585938 202.128906 197.582031 202.132812 197.578125 L 202.5625 197.210938 C 202.566406 197.207031 202.566406 197.203125 202.570312 197.203125 L 202.988281 196.832031 C 202.992188 196.828125 202.996094 196.828125 202.996094 196.824219 L 203.40625 196.453125 C 203.40625 196.449219 203.410156 196.445312 203.414062 196.441406 L 203.8125 196.070312 C 203.816406 196.066406 203.820312 196.0625 203.824219 196.058594 L 204.214844 195.683594 C 204.21875 195.679688 204.222656 195.675781 204.222656 195.675781 L 204.609375 195.292969 C 204.613281 195.289062 204.617188 195.285156 204.621094 195.285156 L 205 194.898438 C 205.003906 194.894531 205.007812 194.890625 205.011719 194.886719 L 205.386719 194.496094 C 205.390625 194.492188 205.394531 194.488281 205.394531 194.488281 L 205.769531 194.085938 C 205.773438 194.085938 205.777344 194.082031 205.777344 194.078125 L 206.148438 193.671875 C 206.152344 193.667969 206.15625 193.664062 206.160156 193.660156 L 206.527344 193.246094 C 206.53125 193.242188 206.535156 193.238281 206.539062 193.234375 L 206.90625 192.808594 C 206.910156 192.804688 206.914062 192.800781 206.914062 192.796875 L 207.285156 192.359375 C 207.285156 192.355469 207.289062 192.351562 207.292969 192.347656 L 207.664062 191.894531 C 207.664062 191.890625 207.667969 191.886719 207.671875 191.882812 L 208.042969 191.417969 C 208.046875 191.414062 208.046875 191.410156 208.050781 191.40625 L 208.425781 190.921875 C 208.429688 190.917969 208.429688 190.914062 208.433594 190.910156 L 208.8125 190.40625 C 208.816406 190.402344 208.816406 190.398438 208.820312 190.394531 L 209.203125 189.867188 C 209.207031 189.863281 209.207031 189.859375 209.210938 189.855469 L 209.597656 189.304688 C 209.601562 189.296875 209.605469 189.292969 209.605469 189.289062 L 210 188.710938 C 210.003906 188.707031 210.007812 188.703125 210.007812 188.695312 L 210.410156 188.085938 C 210.414062 188.082031 210.417969 188.074219 210.417969 188.070312 L 210.828125 187.421875 C 210.832031 187.417969 210.835938 187.410156 210.839844 187.40625 L 211.257812 186.714844 C 211.261719 186.707031 211.265625 186.703125 211.269531 186.699219 L 211.703125 185.957031 C 211.703125 185.949219 211.707031 185.945312 211.710938 185.9375 L 212.15625 185.136719 C 212.160156 185.132812 212.164062 185.125 212.167969 185.121094 L 212.628906 184.246094 C 212.632812 184.242188 212.636719 184.234375 212.640625 184.230469 L 213.121094 183.273438 C 213.125 183.265625 213.128906 183.257812 213.132812 183.25 L 213.636719 182.191406 C 213.640625 182.183594 213.640625 182.175781 213.644531 182.167969 L 214.175781 180.980469 C 214.179688 180.972656 214.183594 180.964844 214.1875 180.957031 L 214.746094 179.601562 C 214.75 179.59375 214.753906 179.582031 214.757812 179.574219 L 215.355469 178 C 215.359375 177.988281 215.363281 177.980469 215.367188 177.96875 L 216.011719 176.089844 C 216.015625 176.078125 216.019531 176.066406 216.023438 176.054688 L 216.730469 173.71875 C 216.734375 173.707031 216.738281 173.691406 216.742188 173.675781 L 217.527344 170.589844 C 217.53125 170.570312 217.535156 170.550781 217.539062 170.53125 L 218.441406 165.894531 C 218.449219 165.859375 218.453125 165.820312 218.457031 165.78125 L 218.617188 163.609375 C 218.710938 162.375 220.519531 162.375 220.613281 163.609375 L 220.773438 165.78125 C 220.777344 165.820312 220.78125 165.859375 220.789062 165.894531 L 221.691406 170.53125 C 221.695312 170.550781 221.699219 170.570312 221.703125 170.589844 L 222.488281 173.675781 C 222.492188 173.691406 222.496094 173.707031 222.5 173.71875 L 223.207031 176.054688 C 223.210938 176.066406 223.214844 176.078125 223.21875 176.089844 L 223.863281 177.96875 C 223.867188 177.980469 223.871094 177.988281 223.875 178 L 224.472656 179.574219 C 224.476562 179.582031 224.480469 179.59375 224.484375 179.601562 L 225.042969 180.957031 C 225.046875 180.964844 225.050781 180.972656 225.054688 180.980469 L 225.585938 182.167969 C 225.589844 182.175781 225.589844 182.183594 225.59375 182.191406 L 226.097656 183.25 C 226.101562 183.257812 226.105469 183.265625 226.109375 183.273438 L 226.589844 184.230469 C 226.59375 184.234375 226.597656 184.242188 226.601562 184.246094 L 227.0625 185.121094 C 227.066406 185.125 227.070312 185.132812 227.074219 185.136719 L 227.519531 185.9375 C 227.523438 185.945312 227.527344 185.949219 227.527344 185.957031 L 227.960938 186.699219 C 227.964844 186.703125 227.96875 186.707031 227.972656 186.714844 L 228.390625 187.40625 C 228.394531 187.410156 228.398438 187.417969 228.402344 187.421875 L 228.8125 188.070312 C 228.8125 188.074219 228.816406 188.082031 228.820312 188.085938 L 229.222656 188.695312 C 229.222656 188.703125 229.226562 188.707031 229.230469 188.710938 L 229.625 189.289062 C 229.625 189.292969 229.628906 189.296875 229.632812 189.304688 L 230.019531 189.855469 C 230.023438 189.859375 230.023438 189.863281 230.027344 189.867188 L 230.410156 190.394531 C 230.414062 190.398438 230.414062 190.402344 230.417969 190.40625 L 230.796875 190.910156 C 230.800781 190.914062 230.800781 190.917969 230.804688 190.921875 L 231.179688 191.40625 C 231.183594 191.410156 231.183594 191.414062 231.1875 191.417969 L 231.558594 191.882812 C 231.5625 191.886719 231.566406 191.890625 231.566406 191.894531 L 231.9375 192.347656 C 231.941406 192.351562 231.945312 192.355469 231.945312 192.359375 L 232.316406 192.796875 C 232.316406 192.800781 232.320312 192.804688 232.324219 192.808594 L 232.691406 193.234375 C 232.695312 193.238281 232.699219 193.242188 232.703125 193.246094 L 233.070312 193.660156 C 233.074219 193.664062 233.078125 193.667969 233.082031 193.671875 L 233.453125 194.078125 C 233.453125 194.082031 233.457031 194.085938 233.460938 194.085938 L 233.835938 194.488281 C 233.835938 194.488281 233.839844 194.492188 233.84375 194.496094 L 234.21875 194.886719 C 234.222656 194.890625 234.226562 194.894531 234.230469 194.898438 L 234.609375 195.285156 C 234.613281 195.285156 234.617188 195.289062 234.621094 195.292969 L 235.007812 195.675781 C 235.007812 195.675781 235.011719 195.679688 235.015625 195.683594 L 235.40625 196.058594 C 235.410156 196.0625 235.414062 196.066406 235.417969 196.070312 L 235.816406 196.441406 C 235.820312 196.445312 235.824219 196.449219 235.824219 196.453125 L 236.234375 196.824219 C 236.234375 196.828125 236.238281 196.828125 236.242188 196.832031 L 236.660156 197.203125 C 236.664062 197.203125 236.664062 197.207031 236.667969 197.210938 L 237.097656 197.578125 C 237.101562 197.582031 237.101562 197.585938 237.105469 197.589844 L 237.546875 197.957031 C 237.550781 197.960938 237.550781 197.964844 237.554688 197.964844 L 238.007812 198.335938 C 238.011719 198.339844 238.015625 198.34375 238.019531 198.34375 L 238.488281 198.714844 C 238.492188 198.71875 238.496094 198.722656 238.5 198.726562 L 238.984375 199.097656 C 238.988281 199.101562 238.992188 199.105469 238.996094 199.109375 L 239.5 199.484375 C 239.503906 199.488281 239.507812 199.492188 239.511719 199.492188 L 240.035156 199.875 C 240.042969 199.878906 240.046875 199.882812 240.050781 199.882812 L 240.601562 200.269531 C 240.605469 200.273438 240.609375 200.277344 240.613281 200.28125 L 241.191406 200.675781 C 241.199219 200.675781 241.203125 200.679688 241.207031 200.683594 L 241.820312 201.082031 C 241.824219 201.085938 241.828125 201.089844 241.832031 201.09375 L 242.480469 201.503906 C 242.488281 201.507812 242.492188 201.507812 242.496094 201.511719 L 243.191406 201.933594 C 243.195312 201.9375 243.199219 201.9375 243.207031 201.941406 L 243.949219 202.375 C 243.953125 202.378906 243.960938 202.382812 243.964844 202.382812 L 244.765625 202.832031 C 244.773438 202.835938 244.777344 202.835938 244.785156 202.839844 L 245.65625 203.304688 C 245.664062 203.308594 245.667969 203.308594 245.675781 203.3125 L 246.632812 203.792969 C 246.636719 203.796875 246.644531 203.800781 246.652344 203.804688 L 247.710938 204.308594 C 247.71875 204.3125 247.726562 204.316406 247.734375 204.320312 L 248.921875 204.847656 C 248.929688 204.851562 248.941406 204.855469 248.949219 204.859375 L 250.300781 205.421875 C 250.3125 205.425781 250.320312 205.429688 250.328125 205.429688 L 251.90625 206.03125 C 251.914062 206.035156 251.925781 206.039062 251.933594 206.039062 L 253.816406 206.6875 C 253.828125 206.691406 253.839844 206.695312 253.851562 206.699219 L 256.183594 207.402344 C 256.199219 207.40625 256.210938 207.410156 256.226562 207.414062 L 259.316406 208.199219 C 259.335938 208.203125 259.351562 208.207031 259.371094 208.210938 L 264.007812 209.113281 C 264.046875 209.121094 264.085938 209.125 264.125 209.128906 L 266.292969 209.292969 C 267.527344 209.382812 267.527344 211.195312 266.292969 211.285156 L 264.125 211.449219 "/>
</svg>
