<?xml version="1.0" encoding="utf-8"?>
<svg xmlns="http://www.w3.org/2000/svg" xmlns:xlink="http://www.w3.org/1999/xlink" width="600" height="400" viewBox="0 0 2400 1600">
<defs>
  <clipPath id="clip170">
    <rect x="0" y="0" width="2400" height="1600"/>
  </clipPath>
</defs>
<path clip-path="url(#clip170)" d="M0 1600 L2400 1600 L2400 0 L0 0  Z" fill="#ffffff" fill-rule="evenodd" fill-opacity="1"/>
<defs>
  <clipPath id="clip171">
    <rect x="480" y="0" width="1681" height="1600"/>
  </clipPath>
</defs>
<path clip-path="url(#clip170)" d="M249.542 1486.45 L2352.76 1486.45 L2352.76 47.2441 L249.542 47.2441  Z" fill="#ffffff" fill-rule="evenodd" fill-opacity="1"/>
<defs>
  <clipPath id="clip172">
    <rect x="249" y="47" width="2104" height="1440"/>
  </clipPath>
</defs>
<defs>
  <clipPath id="clip173">
    <rect x="634" y="152" width="1335" height="1335"/>
  </clipPath>
</defs>
<polyline clip-path="url(#clip173)" style="stroke:#000000; stroke-linecap:round; stroke-linejoin:round; stroke-width:2; stroke-opacity:0.1; fill:none" points="1968.17,819.426 1301.15,819.426 "/>
<polyline clip-path="url(#clip173)" style="stroke:#000000; stroke-linecap:round; stroke-linejoin:round; stroke-width:2; stroke-opacity:0.1; fill:none" points="1772.8,1291.08 1301.15,819.426 "/>
<polyline clip-path="url(#clip173)" style="stroke:#000000; stroke-linecap:round; stroke-linejoin:round; stroke-width:2; stroke-opacity:0.1; fill:none" points="1301.15,1486.45 1301.15,819.426 "/>
<polyline clip-path="url(#clip173)" style="stroke:#000000; stroke-linecap:round; stroke-linejoin:round; stroke-width:2; stroke-opacity:0.1; fill:none" points="829.494,1291.08 1301.15,819.426 "/>
<polyline clip-path="url(#clip173)" style="stroke:#000000; stroke-linecap:round; stroke-linejoin:round; stroke-width:2; stroke-opacity:0.1; fill:none" points="634.127,819.426 1301.15,819.426 "/>
<polyline clip-path="url(#clip173)" style="stroke:#000000; stroke-linecap:round; stroke-linejoin:round; stroke-width:2; stroke-opacity:0.1; fill:none" points="829.494,347.771 1301.15,819.426 "/>
<polyline clip-path="url(#clip173)" style="stroke:#000000; stroke-linecap:round; stroke-linejoin:round; stroke-width:2; stroke-opacity:0.1; fill:none" points="1301.15,152.405 1301.15,819.426 "/>
<polyline clip-path="url(#clip173)" style="stroke:#000000; stroke-linecap:round; stroke-linejoin:round; stroke-width:2; stroke-opacity:0.1; fill:none" points="1772.8,347.771 1301.15,819.426 "/>
<polyline clip-path="url(#clip173)" style="stroke:#000000; stroke-linecap:round; stroke-linejoin:round; stroke-width:2; stroke-opacity:0.1; fill:none" points="1301.15,819.426 1301.15,819.426 "/>
<polyline clip-path="url(#clip173)" style="stroke:#000000; stroke-linecap:round; stroke-linejoin:round; stroke-width:2; stroke-opacity:0.1; fill:none" points="1501.47,819.426 1501.44,815.93 1501.35,812.435 1501.2,808.942 1500.99,805.452 1500.71,801.967 1500.38,798.487 1499.98,795.013 1499.53,791.546 1499.01,788.089 1498.43,784.64 1497.79,781.202 1497.1,777.776 1496.34,774.363 1495.52,770.963 1494.65,767.578 1493.71,764.209 1492.72,760.857 1491.67,757.522 1490.56,754.207 1489.39,750.911 1488.17,747.636 1486.89,744.383 1485.55,741.153 1484.16,737.947 1482.71,734.765 1481.2,731.609 1479.64,728.48 1478.03,725.379 1476.36,722.307 1474.64,719.264 1472.86,716.251 1471.03,713.27 1469.16,710.321 1467.23,707.406 1465.25,704.524 1463.22,701.678 1461.14,698.867 1459.01,696.094 1456.83,693.357 1454.61,690.66 1452.34,688.001 1450.02,685.382 1447.66,682.805 1445.25,680.268 1442.8,677.775 1440.31,675.324 1437.77,672.917 1435.19,670.555 1432.57,668.239 1429.92,665.968 1427.22,663.744 1424.48,661.568 1421.71,659.439 1418.9,657.36 1416.05,655.329 1413.17,653.349 1410.25,651.419 1407.31,649.541 1404.32,647.714 1401.31,645.939 1398.27,644.218 1395.2,642.549 1392.09,640.935 1388.97,639.375 1385.81,637.87 1382.63,636.42 1379.42,635.026 1376.19,633.688 1372.94,632.406 1369.66,631.182 1366.37,630.015 1363.05,628.905 1359.72,627.854 1356.37,626.861 1353,625.927 1349.61,625.051 1346.21,624.235 1342.8,623.478 1339.37,622.781 1335.94,622.144 1332.49,621.567 1329.03,621.05 1325.56,620.594 1322.09,620.198 1318.61,619.863 1315.12,619.589 1311.63,619.375 1308.14,619.223 1304.65,619.131 1301.15,619.101 1297.65,619.131 1294.16,619.223 1290.66,619.375 1287.17,619.589 1283.69,619.863 1280.21,620.198 1276.74,620.594 1273.27,621.05 1269.81,621.567 1266.36,622.144 1262.93,622.781 1259.5,623.478 1256.09,624.235 1252.69,625.051 1249.3,625.927 1245.93,626.861 1242.58,627.854 1239.24,628.905 1235.93,630.015 1232.63,631.182 1229.36,632.406 1226.11,633.688 1222.88,635.026 1219.67,636.42 1216.49,637.87 1213.33,639.375 1210.2,640.935 1207.1,642.549 1204.03,644.218 1200.99,645.939 1197.97,647.714 1194.99,649.541 1192.04,651.419 1189.13,653.349 1186.25,655.329 1183.4,657.36 1180.59,659.439 1177.82,661.568 1175.08,663.744 1172.38,665.968 1169.72,668.239 1167.1,670.555 1164.53,672.917 1161.99,675.324 1159.5,677.775 1157.05,680.268 1154.64,682.805 1152.28,685.382 1149.96,688.001 1147.69,690.66 1145.47,693.357 1143.29,696.094 1141.16,698.867 1139.08,701.678 1137.05,704.524 1135.07,707.406 1133.14,710.321 1131.26,713.27 1129.44,716.251 1127.66,719.264 1125.94,722.307 1124.27,725.379 1122.66,728.48 1121.1,731.609 1119.59,734.765 1118.14,737.947 1116.75,741.153 1115.41,744.383 1114.13,747.636 1112.9,750.911 1111.74,754.207 1110.63,757.522 1109.58,760.857 1108.58,764.209 1107.65,767.578 1106.77,770.963 1105.96,774.363 1105.2,777.776 1104.5,781.202 1103.87,784.64 1103.29,788.089 1102.77,791.546 1102.32,795.013 1101.92,798.487 1101.59,801.967 1101.31,805.452 1101.1,808.942 1100.95,812.435 1100.85,815.93 1100.82,819.426 1100.85,822.922 1100.95,826.418 1101.1,829.911 1101.31,833.4 1101.59,836.886 1101.92,840.366 1102.32,843.84 1102.77,847.306 1103.29,850.764 1103.87,854.213 1104.5,857.65 1105.2,861.076 1105.96,864.49 1106.77,867.889 1107.65,871.274 1108.58,874.644 1109.58,877.996 1110.63,881.33 1111.74,884.646 1112.9,887.942 1114.13,891.217 1115.41,894.47 1116.75,897.7 1118.14,900.906 1119.59,904.088 1121.1,907.243 1122.66,910.372 1124.27,913.474 1125.94,916.546 1127.66,919.589 1129.44,922.602 1131.26,925.583 1133.14,928.531 1135.07,931.447 1137.05,934.328 1139.08,937.175 1141.16,939.985 1143.29,942.759 1145.47,945.495 1147.69,948.193 1149.96,950.852 1152.28,953.47 1154.64,956.048 1157.05,958.584 1159.5,961.078 1161.99,963.529 1164.53,965.935 1167.1,968.297 1169.72,970.614 1172.38,972.885 1175.08,975.109 1177.82,977.285 1180.59,979.413 1183.4,981.493 1186.25,983.523 1189.13,985.504 1192.04,987.434 1194.99,989.312 1197.97,991.139 1200.99,992.913 1204.03,994.635 1207.1,996.303 1210.2,997.918 1213.33,999.478 1216.49,1000.98 1219.67,1002.43 1222.88,1003.83 1226.11,1005.17 1229.36,1006.45 1232.63,1007.67 1235.93,1008.84 1239.24,1009.95 1242.58,1011 1245.93,1011.99 1249.3,1012.93 1252.69,1013.8 1256.09,1014.62 1259.5,1015.37 1262.93,1016.07 1266.36,1016.71 1269.81,1017.29 1273.27,1017.8 1276.74,1018.26 1280.21,1018.65 1283.69,1018.99 1287.17,1019.26 1290.66,1019.48 1294.16,1019.63 1297.65,1019.72 1301.15,1019.75 1304.65,1019.72 1308.14,1019.63 1311.63,1019.48 1315.12,1019.26 1318.61,1018.99 1322.09,1018.65 1325.56,1018.26 1329.03,1017.8 1332.49,1017.29 1335.94,1016.71 1339.37,1016.07 1342.8,1015.37 1346.21,1014.62 1349.61,1013.8 1353,1012.93 1356.37,1011.99 1359.72,1011 1363.05,1009.95 1366.37,1008.84 1369.66,1007.67 1372.94,1006.45 1376.19,1005.17 1379.42,1003.83 1382.63,1002.43 1385.81,1000.98 1388.97,999.478 1392.09,997.918 1395.2,996.303 1398.27,994.635 1401.31,992.913 1404.32,991.139 1407.31,989.312 1410.25,987.434 1413.17,985.504 1416.05,983.523 1418.9,981.493 1421.71,979.413 1424.48,977.285 1427.22,975.109 1429.92,972.885 1432.57,970.614 1435.19,968.297 1437.77,965.935 1440.31,963.529 1442.8,961.078 1445.25,958.584 1447.66,956.048 1450.02,953.47 1452.34,950.852 1454.61,948.193 1456.83,945.495 1459.01,942.759 1461.14,939.985 1463.22,937.175 1465.25,934.328 1467.23,931.447 1469.16,928.531 1471.03,925.583 1472.86,922.602 1474.64,919.589 1476.36,916.546 1478.03,913.474 1479.64,910.372 1481.2,907.243 1482.71,904.088 1484.16,900.906 1485.55,897.7 1486.89,894.47 1488.17,891.217 1489.39,887.942 1490.56,884.646 1491.67,881.33 1492.72,877.996 1493.71,874.644 1494.65,871.274 1495.52,867.889 1496.34,864.49 1497.1,861.076 1497.79,857.65 1498.43,854.213 1499.01,850.764 1499.53,847.306 1499.98,843.84 1500.38,840.366 1500.71,836.886 1500.99,833.4 1501.2,829.911 1501.35,826.418 1501.44,822.922 "/>
<polyline clip-path="url(#clip173)" style="stroke:#000000; stroke-linecap:round; stroke-linejoin:round; stroke-width:2; stroke-opacity:0.1; fill:none" points="1701.8,819.426 1701.74,812.434 1701.56,805.444 1701.25,798.458 1700.82,791.478 1700.28,784.507 1699.61,777.547 1698.81,770.599 1697.9,763.666 1696.87,756.751 1695.71,749.854 1694.44,742.978 1693.05,736.126 1691.53,729.299 1689.9,722.5 1688.15,715.73 1686.28,708.992 1684.29,702.287 1682.19,695.618 1679.97,688.987 1677.64,682.396 1675.19,675.846 1672.63,669.34 1669.95,662.879 1667.16,656.467 1664.26,650.104 1661.25,643.792 1658.13,637.534 1654.9,631.332 1651.57,625.187 1648.12,619.101 1644.57,613.076 1640.92,607.114 1637.16,601.216 1633.3,595.385 1629.34,589.622 1625.28,583.929 1621.12,578.308 1616.87,572.761 1612.51,567.288 1608.07,561.893 1603.52,556.575 1598.89,551.338 1594.17,546.183 1589.35,541.111 1584.45,536.123 1579.46,531.222 1574.39,526.409 1569.24,521.684 1564,517.051 1558.68,512.51 1553.29,508.062 1547.81,503.709 1542.27,499.452 1536.65,495.293 1530.95,491.232 1525.19,487.271 1519.36,483.412 1513.46,479.655 1507.5,476.001 1501.47,472.452 1495.39,469.009 1489.24,465.672 1483.04,462.443 1476.78,459.323 1470.47,456.313 1464.11,453.413 1457.7,450.625 1451.24,447.949 1444.73,445.386 1438.18,442.937 1431.59,440.603 1424.96,438.384 1418.29,436.282 1411.58,434.296 1404.85,432.427 1398.08,430.676 1391.28,429.044 1384.45,427.53 1377.6,426.136 1370.72,424.862 1363.82,423.708 1356.91,422.674 1349.98,421.761 1343.03,420.97 1336.07,420.3 1329.1,419.751 1322.12,419.324 1315.13,419.019 1308.14,418.836 1301.15,418.775 1294.16,418.836 1287.17,419.019 1280.18,419.324 1273.2,419.751 1266.23,420.3 1259.27,420.97 1252.32,421.761 1245.39,422.674 1238.47,423.708 1231.58,424.862 1224.7,426.136 1217.85,427.53 1211.02,429.044 1204.22,430.676 1197.45,432.427 1190.71,434.296 1184.01,436.282 1177.34,438.384 1170.71,440.603 1164.12,442.937 1157.57,445.386 1151.06,447.949 1144.6,450.625 1138.19,453.413 1131.83,456.313 1125.52,459.323 1119.26,462.443 1113.05,465.672 1106.91,469.009 1100.82,472.452 1094.8,476.001 1088.84,479.655 1082.94,483.412 1077.11,487.271 1071.34,491.232 1065.65,495.293 1060.03,499.452 1054.48,503.709 1049.01,508.062 1043.62,512.51 1038.3,517.051 1033.06,521.684 1027.91,526.409 1022.83,531.222 1017.85,536.123 1012.94,541.111 1008.13,546.183 1003.41,551.338 998.774,556.575 994.232,561.893 989.784,567.288 985.431,572.761 981.175,578.308 977.015,583.929 972.955,589.622 968.994,595.385 965.135,601.216 961.377,607.114 957.724,613.076 954.175,619.101 950.732,625.187 947.395,631.332 944.166,637.534 941.046,643.792 938.036,650.104 935.136,656.467 932.348,662.879 929.672,669.34 927.109,675.846 924.66,682.396 922.326,688.987 920.107,695.618 918.004,702.287 916.018,708.992 914.15,715.73 912.399,722.5 910.766,729.299 909.253,736.126 907.859,742.978 906.585,749.854 905.43,756.751 904.397,763.666 903.484,770.599 902.693,777.547 902.022,784.507 901.474,791.478 901.047,798.458 900.742,805.444 900.559,812.434 900.498,819.426 900.559,826.419 900.742,833.409 901.047,840.395 901.474,847.374 902.022,854.345 902.693,861.306 903.484,868.253 904.397,875.186 905.43,882.102 906.585,888.999 907.859,895.874 909.253,902.726 910.766,909.553 912.399,916.353 914.15,923.123 916.018,929.861 918.004,936.565 920.107,943.234 922.326,949.866 924.66,956.457 927.109,963.007 929.672,969.513 932.348,975.973 935.136,982.386 938.036,988.749 941.046,995.06 944.166,1001.32 947.395,1007.52 950.732,1013.67 954.175,1019.75 957.724,1025.78 961.377,1031.74 965.135,1037.64 968.994,1043.47 972.955,1049.23 977.015,1054.92 981.175,1060.54 985.431,1066.09 989.784,1071.56 994.232,1076.96 998.774,1082.28 1003.41,1087.51 1008.13,1092.67 1012.94,1097.74 1017.85,1102.73 1022.83,1107.63 1027.91,1112.44 1033.06,1117.17 1038.3,1121.8 1043.62,1126.34 1049.01,1130.79 1054.48,1135.14 1060.03,1139.4 1065.65,1143.56 1071.34,1147.62 1077.11,1151.58 1082.94,1155.44 1088.84,1159.2 1094.8,1162.85 1100.82,1166.4 1106.91,1169.84 1113.05,1173.18 1119.26,1176.41 1125.52,1179.53 1131.83,1182.54 1138.19,1185.44 1144.6,1188.23 1151.06,1190.9 1157.57,1193.47 1164.12,1195.92 1170.71,1198.25 1177.34,1200.47 1184.01,1202.57 1190.71,1204.56 1197.45,1206.43 1204.22,1208.18 1211.02,1209.81 1217.85,1211.32 1224.7,1212.72 1231.58,1213.99 1238.47,1215.14 1245.39,1216.18 1252.32,1217.09 1259.27,1217.88 1266.23,1218.55 1273.2,1219.1 1280.18,1219.53 1287.17,1219.83 1294.16,1220.02 1301.15,1220.08 1308.14,1220.02 1315.13,1219.83 1322.12,1219.53 1329.1,1219.1 1336.07,1218.55 1343.03,1217.88 1349.98,1217.09 1356.91,1216.18 1363.82,1215.14 1370.72,1213.99 1377.6,1212.72 1384.45,1211.32 1391.28,1209.81 1398.08,1208.18 1404.85,1206.43 1411.58,1204.56 1418.29,1202.57 1424.96,1200.47 1431.59,1198.25 1438.18,1195.92 1444.73,1193.47 1451.24,1190.9 1457.7,1188.23 1464.11,1185.44 1470.47,1182.54 1476.78,1179.53 1483.04,1176.41 1489.24,1173.18 1495.39,1169.84 1501.47,1166.4 1507.5,1162.85 1513.46,1159.2 1519.36,1155.44 1525.19,1151.58 1530.95,1147.62 1536.65,1143.56 1542.27,1139.4 1547.81,1135.14 1553.29,1130.79 1558.68,1126.34 1564,1121.8 1569.24,1117.17 1574.39,1112.44 1579.46,1107.63 1584.45,1102.73 1589.35,1097.74 1594.17,1092.67 1598.89,1087.51 1603.52,1082.28 1608.07,1076.96 1612.51,1071.56 1616.87,1066.09 1621.12,1060.54 1625.28,1054.92 1629.34,1049.23 1633.3,1043.47 1637.16,1037.64 1640.92,1031.74 1644.57,1025.78 1648.12,1019.75 1651.57,1013.67 1654.9,1007.52 1658.13,1001.32 1661.25,995.06 1664.26,988.749 1667.16,982.386 1669.95,975.973 1672.63,969.513 1675.19,963.007 1677.64,956.457 1679.97,949.866 1682.19,943.234 1684.29,936.565 1686.28,929.861 1688.15,923.123 1689.9,916.353 1691.53,909.553 1693.05,902.726 1694.44,895.874 1695.71,888.999 1696.87,882.102 1697.9,875.186 1698.81,868.253 1699.61,861.306 1700.28,854.345 1700.82,847.374 1701.25,840.395 1701.56,833.409 1701.74,826.419 "/>
<polyline clip-path="url(#clip173)" style="stroke:#000000; stroke-linecap:round; stroke-linejoin:round; stroke-width:2; stroke-opacity:0.1; fill:none" points="1902.13,819.426 1902.03,808.938 1901.76,798.453 1901.3,787.974 1900.66,777.504 1899.84,767.048 1898.83,756.607 1897.65,746.186 1896.28,735.787 1894.73,725.413 1893,715.068 1891.08,704.755 1888.99,694.476 1886.72,684.236 1884.27,674.037 1881.65,663.882 1878.84,653.775 1875.87,643.718 1872.71,633.714 1869.38,623.767 1865.88,613.88 1862.21,604.055 1858.37,594.296 1854.35,584.606 1850.17,574.987 1845.82,565.443 1841.3,555.975 1836.62,546.589 1831.78,537.285 1826.78,528.067 1821.61,518.938 1816.29,509.9 1810.81,500.957 1805.17,492.111 1799.38,483.364 1793.44,474.72 1787.35,466.181 1781.11,457.749 1774.73,449.428 1768.2,441.219 1761.52,433.126 1754.71,425.15 1747.76,417.294 1740.68,409.561 1733.46,401.953 1726.1,394.472 1718.62,387.12 1711.01,379.9 1703.28,372.813 1695.43,365.863 1687.45,359.051 1679.36,352.38 1671.15,345.85 1662.83,339.465 1654.39,333.226 1645.86,327.135 1637.21,321.194 1628.46,315.405 1619.62,309.769 1610.67,304.289 1601.64,298.965 1592.51,293.8 1583.29,288.795 1573.99,283.952 1564.6,279.272 1555.13,274.756 1545.59,270.407 1535.97,266.224 1526.28,262.21 1516.52,258.366 1506.7,254.693 1496.81,251.192 1486.86,247.863 1476.86,244.709 1466.8,241.73 1456.69,238.927 1446.54,236.301 1436.34,233.852 1426.1,231.582 1415.82,229.491 1405.51,227.58 1395.16,225.849 1384.79,224.298 1374.39,222.929 1363.97,221.742 1353.53,220.736 1343.07,219.913 1332.6,219.273 1322.12,218.816 1311.64,218.541 1301.15,218.449 1290.66,218.541 1280.18,218.816 1269.7,219.273 1259.23,219.913 1248.77,220.736 1238.33,221.742 1227.91,222.929 1217.51,224.298 1207.14,225.849 1196.79,227.58 1186.48,229.491 1176.2,231.582 1165.96,233.852 1155.76,236.301 1145.6,238.927 1135.5,241.73 1125.44,244.709 1115.44,247.863 1105.49,251.192 1095.6,254.693 1085.78,258.366 1076.02,262.21 1066.33,266.224 1056.71,270.407 1047.17,274.756 1037.7,279.272 1028.31,283.952 1019.01,288.795 1009.79,293.8 1000.66,298.965 991.623,304.289 982.68,309.769 973.834,315.405 965.087,321.194 956.443,327.135 947.904,333.226 939.472,339.465 931.151,345.85 922.942,352.38 914.848,359.051 906.873,365.863 899.017,372.813 891.284,379.9 883.675,387.12 876.194,394.472 868.842,401.953 861.622,409.561 854.536,417.294 847.586,425.15 840.774,433.126 834.102,441.219 827.573,449.428 821.188,457.749 814.948,466.181 808.858,474.72 802.917,483.364 797.127,492.111 791.492,500.957 786.011,509.9 780.688,518.938 775.523,528.067 770.518,537.285 765.675,546.589 760.995,555.975 756.479,565.443 752.129,574.987 747.947,584.606 743.933,594.296 740.089,604.055 736.415,613.88 732.914,623.767 729.586,633.714 726.432,643.718 723.453,653.775 720.65,663.882 718.024,674.037 715.575,684.236 713.305,694.476 711.214,704.755 709.302,715.068 707.571,725.413 706.021,735.787 704.652,746.186 703.464,756.607 702.459,767.048 701.636,777.504 700.996,787.974 700.538,798.453 700.264,808.938 700.172,819.426 700.264,829.915 700.538,840.4 700.996,850.879 701.636,861.348 702.459,871.805 703.464,882.246 704.652,892.667 706.021,903.066 707.571,913.44 709.302,923.785 711.214,934.098 713.305,944.376 715.575,954.617 718.024,964.816 720.65,974.971 723.453,985.078 726.432,995.135 729.586,1005.14 732.914,1015.09 736.415,1024.97 740.089,1034.8 743.933,1044.56 747.947,1054.25 752.129,1063.87 756.479,1073.41 760.995,1082.88 765.675,1092.26 770.518,1101.57 775.523,1110.79 780.688,1119.91 786.011,1128.95 791.492,1137.9 797.127,1146.74 802.917,1155.49 808.858,1164.13 814.948,1172.67 821.188,1181.1 827.573,1189.42 834.102,1197.63 840.774,1205.73 847.586,1213.7 854.536,1221.56 861.622,1229.29 868.842,1236.9 876.194,1244.38 883.675,1251.73 891.284,1258.95 899.017,1266.04 906.873,1272.99 914.848,1279.8 922.942,1286.47 931.151,1293 939.472,1299.39 947.904,1305.63 956.443,1311.72 965.087,1317.66 973.834,1323.45 982.68,1329.08 991.623,1334.56 1000.66,1339.89 1009.79,1345.05 1019.01,1350.06 1028.31,1354.9 1037.7,1359.58 1047.17,1364.1 1056.71,1368.45 1066.33,1372.63 1076.02,1376.64 1085.78,1380.49 1095.6,1384.16 1105.49,1387.66 1115.44,1390.99 1125.44,1394.14 1135.5,1397.12 1145.6,1399.93 1155.76,1402.55 1165.96,1405 1176.2,1407.27 1186.48,1409.36 1196.79,1411.27 1207.14,1413 1217.51,1414.55 1227.91,1415.92 1238.33,1417.11 1248.77,1418.12 1259.23,1418.94 1269.7,1419.58 1280.18,1420.04 1290.66,1420.31 1301.15,1420.4 1311.64,1420.31 1322.12,1420.04 1332.6,1419.58 1343.07,1418.94 1353.53,1418.12 1363.97,1417.11 1374.39,1415.92 1384.79,1414.55 1395.16,1413 1405.51,1411.27 1415.82,1409.36 1426.1,1407.27 1436.34,1405 1446.54,1402.55 1456.69,1399.93 1466.8,1397.12 1476.86,1394.14 1486.86,1390.99 1496.81,1387.66 1506.7,1384.16 1516.52,1380.49 1526.28,1376.64 1535.97,1372.63 1545.59,1368.45 1555.13,1364.1 1564.6,1359.58 1573.99,1354.9 1583.29,1350.06 1592.51,1345.05 1601.64,1339.89 1610.67,1334.56 1619.62,1329.08 1628.46,1323.45 1637.21,1317.66 1645.86,1311.72 1654.39,1305.63 1662.83,1299.39 1671.15,1293 1679.36,1286.47 1687.45,1279.8 1695.43,1272.99 1703.28,1266.04 1711.01,1258.95 1718.62,1251.73 1726.1,1244.38 1733.46,1236.9 1740.68,1229.29 1747.76,1221.56 1754.71,1213.7 1761.52,1205.73 1768.2,1197.63 1774.73,1189.42 1781.11,1181.1 1787.35,1172.67 1793.44,1164.13 1799.38,1155.49 1805.17,1146.74 1810.81,1137.9 1816.29,1128.95 1821.61,1119.91 1826.78,1110.79 1831.78,1101.57 1836.62,1092.26 1841.3,1082.88 1845.82,1073.41 1850.17,1063.87 1854.35,1054.25 1858.37,1044.56 1862.21,1034.8 1865.88,1024.97 1869.38,1015.09 1872.71,1005.14 1875.87,995.135 1878.84,985.078 1881.65,974.971 1884.27,964.816 1886.72,954.617 1888.99,944.376 1891.08,934.098 1893,923.785 1894.73,913.44 1896.28,903.066 1897.65,892.667 1898.83,882.246 1899.84,871.805 1900.66,861.348 1901.3,850.879 1901.76,840.4 1902.03,829.915 "/>
<polyline clip-path="url(#clip173)" style="stroke:#000000; stroke-linecap:round; stroke-linejoin:round; stroke-width:2; stroke-opacity:0.1; fill:none" points="1968.17,819.426 1968.07,807.785 1967.76,796.148 1967.26,784.517 1966.55,772.897 1965.63,761.292 1964.52,749.704 1963.2,738.137 1961.68,726.595 1959.96,715.081 1958.04,703.599 1955.92,692.153 1953.59,680.745 1951.07,669.379 1948.36,658.059 1945.44,646.788 1942.33,635.57 1939.02,624.408 1935.52,613.305 1931.83,602.265 1927.94,591.292 1923.87,580.387 1919.6,569.556 1915.15,558.8 1910.5,548.124 1905.68,537.531 1900.66,527.023 1895.47,516.605 1890.09,506.279 1884.54,496.048 1878.81,485.916 1872.9,475.885 1866.82,465.959 1860.56,456.14 1854.13,446.433 1847.54,436.838 1840.78,427.361 1833.86,418.003 1826.77,408.767 1819.52,399.656 1812.12,390.673 1804.56,381.821 1796.84,373.102 1788.98,364.519 1780.96,356.074 1772.8,347.771 1764.5,339.611 1756.06,331.598 1747.47,323.733 1738.75,316.019 1729.9,308.458 1720.92,301.053 1711.81,293.806 1702.57,286.719 1693.21,279.795 1683.74,273.034 1674.14,266.44 1664.43,260.015 1654.62,253.76 1644.69,247.677 1634.66,241.769 1624.53,236.036 1614.3,230.481 1603.97,225.106 1593.55,219.911 1583.04,214.9 1572.45,210.072 1561.78,205.43 1551.02,200.975 1540.19,196.708 1529.28,192.631 1518.31,188.745 1507.27,185.051 1496.17,181.55 1485.01,178.244 1473.79,175.133 1462.52,172.218 1451.2,169.501 1439.83,166.981 1428.42,164.66 1416.98,162.538 1405.49,160.617 1393.98,158.896 1382.44,157.377 1370.87,156.059 1359.28,154.943 1347.68,154.03 1336.06,153.319 1324.43,152.811 1312.79,152.506 1301.15,152.405 1289.51,152.506 1277.87,152.811 1266.24,153.319 1254.62,154.03 1243.01,154.943 1231.43,156.059 1219.86,157.377 1208.32,158.896 1196.8,160.617 1185.32,162.538 1173.88,164.66 1162.47,166.981 1151.1,169.501 1139.78,172.218 1128.51,175.133 1117.29,178.244 1106.13,181.55 1095.03,185.051 1083.99,188.745 1073.01,192.631 1062.11,196.708 1051.28,200.975 1040.52,205.43 1029.85,210.072 1019.25,214.9 1008.75,219.911 998.328,225.106 988.001,230.481 977.771,236.036 967.638,241.769 957.607,247.677 947.681,253.76 937.863,260.015 928.155,266.44 918.561,273.034 909.084,279.795 899.725,286.719 890.49,293.806 881.379,301.053 872.396,308.458 863.543,316.019 854.824,323.733 846.241,331.598 837.797,339.611 829.494,347.771 821.334,356.074 813.32,364.519 805.455,373.102 797.741,381.821 790.181,390.673 782.776,399.656 775.529,408.767 768.442,418.003 761.517,427.361 754.757,436.838 748.163,446.433 741.738,456.14 735.483,465.959 729.4,475.885 723.491,485.916 717.759,496.048 712.204,506.279 706.828,516.605 701.634,527.023 696.622,537.531 691.794,548.124 687.152,558.8 682.697,569.556 678.431,580.387 674.354,591.292 670.468,602.265 666.774,613.305 663.273,624.408 659.967,635.57 656.856,646.788 653.941,658.059 651.223,669.379 648.703,680.745 646.382,692.153 644.261,703.599 642.34,715.081 640.619,726.595 639.099,738.137 637.781,749.704 636.666,761.292 635.752,772.897 635.042,784.517 634.534,796.148 634.229,807.785 634.127,819.426 634.229,831.067 634.534,842.705 635.042,854.336 635.752,865.955 636.666,877.561 637.781,889.149 639.099,900.716 640.619,912.258 642.34,923.771 644.261,935.253 646.382,946.7 648.703,958.108 651.223,969.474 653.941,980.793 656.856,992.064 659.967,1003.28 663.273,1014.44 666.774,1025.55 670.468,1036.59 674.354,1047.56 678.431,1058.47 682.697,1069.3 687.152,1080.05 691.794,1090.73 696.622,1101.32 701.634,1111.83 706.828,1122.25 712.204,1132.57 717.759,1142.8 723.491,1152.94 729.4,1162.97 735.483,1172.89 741.738,1182.71 748.163,1192.42 754.757,1202.01 761.517,1211.49 768.442,1220.85 775.529,1230.09 782.776,1239.2 790.181,1248.18 797.741,1257.03 805.455,1265.75 813.32,1274.33 821.334,1282.78 829.494,1291.08 837.797,1299.24 846.241,1307.26 854.824,1315.12 863.543,1322.83 872.396,1330.39 881.379,1337.8 890.49,1345.05 899.725,1352.13 909.084,1359.06 918.561,1365.82 928.155,1372.41 937.863,1378.84 947.681,1385.09 957.607,1391.18 967.638,1397.08 977.771,1402.82 988.001,1408.37 998.328,1413.75 1008.75,1418.94 1019.25,1423.95 1029.85,1428.78 1040.52,1433.42 1051.28,1437.88 1062.11,1442.14 1073.01,1446.22 1083.99,1450.11 1095.03,1453.8 1106.13,1457.3 1117.29,1460.61 1128.51,1463.72 1139.78,1466.63 1151.1,1469.35 1162.47,1471.87 1173.88,1474.19 1185.32,1476.31 1196.8,1478.24 1208.32,1479.96 1219.86,1481.48 1231.43,1482.79 1243.01,1483.91 1254.62,1484.82 1266.24,1485.53 1277.87,1486.04 1289.51,1486.35 1301.15,1486.45 1312.79,1486.35 1324.43,1486.04 1336.06,1485.53 1347.68,1484.82 1359.28,1483.91 1370.87,1482.79 1382.44,1481.48 1393.98,1479.96 1405.49,1478.24 1416.98,1476.31 1428.42,1474.19 1439.83,1471.87 1451.2,1469.35 1462.52,1466.63 1473.79,1463.72 1485.01,1460.61 1496.17,1457.3 1507.27,1453.8 1518.31,1450.11 1529.28,1446.22 1540.19,1442.14 1551.02,1437.88 1561.78,1433.42 1572.45,1428.78 1583.04,1423.95 1593.55,1418.94 1603.97,1413.75 1614.3,1408.37 1624.53,1402.82 1634.66,1397.08 1644.69,1391.18 1654.62,1385.09 1664.43,1378.84 1674.14,1372.41 1683.74,1365.82 1693.21,1359.06 1702.57,1352.13 1711.81,1345.05 1720.92,1337.8 1729.9,1330.39 1738.75,1322.83 1747.47,1315.12 1756.06,1307.26 1764.5,1299.24 1772.8,1291.08 1780.96,1282.78 1788.98,1274.33 1796.84,1265.75 1804.56,1257.03 1812.12,1248.18 1819.52,1239.2 1826.77,1230.09 1833.86,1220.85 1840.78,1211.49 1847.54,1202.01 1854.13,1192.42 1860.56,1182.71 1866.82,1172.89 1872.9,1162.97 1878.81,1152.94 1884.54,1142.8 1890.09,1132.57 1895.47,1122.25 1900.66,1111.83 1905.68,1101.32 1910.5,1090.73 1915.15,1080.05 1919.6,1069.3 1923.87,1058.47 1927.94,1047.56 1931.83,1036.59 1935.52,1025.55 1939.02,1014.44 1942.33,1003.28 1945.44,992.064 1948.36,980.793 1951.07,969.474 1953.59,958.108 1955.92,946.7 1958.04,935.253 1959.96,923.771 1961.68,912.258 1963.2,900.716 1964.52,889.149 1965.63,877.561 1966.55,865.955 1967.26,854.336 1967.76,842.705 1968.07,831.067 "/>
<polyline clip-path="url(#clip173)" style="stroke:#ededed; stroke-linecap:round; stroke-linejoin:round; stroke-width:2; stroke-opacity:1; fill:none" points="1968.17,819.426 1968.07,807.785 1967.76,796.148 1967.26,784.517 1966.55,772.897 1965.63,761.292 1964.52,749.704 1963.2,738.137 1961.68,726.595 1959.96,715.081 1958.04,703.599 1955.92,692.153 1953.59,680.745 1951.07,669.379 1948.36,658.059 1945.44,646.788 1942.33,635.57 1939.02,624.408 1935.52,613.305 1931.83,602.265 1927.94,591.292 1923.87,580.387 1919.6,569.556 1915.15,558.8 1910.5,548.124 1905.68,537.531 1900.66,527.023 1895.47,516.605 1890.09,506.279 1884.54,496.048 1878.81,485.916 1872.9,475.885 1866.82,465.959 1860.56,456.14 1854.13,446.433 1847.54,436.838 1840.78,427.361 1833.86,418.003 1826.77,408.767 1819.52,399.656 1812.12,390.673 1804.56,381.821 1796.84,373.102 1788.98,364.519 1780.96,356.074 1772.8,347.771 1764.5,339.611 1756.06,331.598 1747.47,323.733 1738.75,316.019 1729.9,308.458 1720.92,301.053 1711.81,293.806 1702.57,286.719 1693.21,279.795 1683.74,273.034 1674.14,266.44 1664.43,260.015 1654.62,253.76 1644.69,247.677 1634.66,241.769 1624.53,236.036 1614.3,230.481 1603.97,225.106 1593.55,219.911 1583.04,214.9 1572.45,210.072 1561.78,205.43 1551.02,200.975 1540.19,196.708 1529.28,192.631 1518.31,188.745 1507.27,185.051 1496.17,181.55 1485.01,178.244 1473.79,175.133 1462.52,172.218 1451.2,169.501 1439.83,166.981 1428.42,164.66 1416.98,162.538 1405.49,160.617 1393.98,158.896 1382.44,157.377 1370.87,156.059 1359.28,154.943 1347.68,154.03 1336.06,153.319 1324.43,152.811 1312.79,152.506 1301.15,152.405 1289.51,152.506 1277.87,152.811 1266.24,153.319 1254.62,154.03 1243.01,154.943 1231.43,156.059 1219.86,157.377 1208.32,158.896 1196.8,160.617 1185.32,162.538 1173.88,164.66 1162.47,166.981 1151.1,169.501 1139.78,172.218 1128.51,175.133 1117.29,178.244 1106.13,181.55 1095.03,185.051 1083.99,188.745 1073.01,192.631 1062.11,196.708 1051.28,200.975 1040.52,205.43 1029.85,210.072 1019.25,214.9 1008.75,219.911 998.328,225.106 988.001,230.481 977.771,236.036 967.638,241.769 957.607,247.677 947.681,253.76 937.863,260.015 928.155,266.44 918.561,273.034 909.084,279.795 899.725,286.719 890.49,293.806 881.379,301.053 872.396,308.458 863.543,316.019 854.824,323.733 846.241,331.598 837.797,339.611 829.494,347.771 821.334,356.074 813.32,364.519 805.455,373.102 797.741,381.821 790.181,390.673 782.776,399.656 775.529,408.767 768.442,418.003 761.517,427.361 754.757,436.838 748.163,446.433 741.738,456.14 735.483,465.959 729.4,475.885 723.491,485.916 717.759,496.048 712.204,506.279 706.828,516.605 701.634,527.023 696.622,537.531 691.794,548.124 687.152,558.8 682.697,569.556 678.431,580.387 674.354,591.292 670.468,602.265 666.774,613.305 663.273,624.408 659.967,635.57 656.856,646.788 653.941,658.059 651.223,669.379 648.703,680.745 646.382,692.153 644.261,703.599 642.34,715.081 640.619,726.595 639.099,738.137 637.781,749.704 636.666,761.292 635.752,772.897 635.042,784.517 634.534,796.148 634.229,807.785 634.127,819.426 634.229,831.067 634.534,842.705 635.042,854.336 635.752,865.955 636.666,877.561 637.781,889.149 639.099,900.716 640.619,912.258 642.34,923.771 644.261,935.253 646.382,946.7 648.703,958.108 651.223,969.474 653.941,980.793 656.856,992.064 659.967,1003.28 663.273,1014.44 666.774,1025.55 670.468,1036.59 674.354,1047.56 678.431,1058.47 682.697,1069.3 687.152,1080.05 691.794,1090.73 696.622,1101.32 701.634,1111.83 706.828,1122.25 712.204,1132.57 717.759,1142.8 723.491,1152.94 729.4,1162.97 735.483,1172.89 741.738,1182.71 748.163,1192.42 754.757,1202.01 761.517,1211.49 768.442,1220.85 775.529,1230.09 782.776,1239.2 790.181,1248.18 797.741,1257.03 805.455,1265.75 813.32,1274.33 821.334,1282.78 829.494,1291.08 837.797,1299.24 846.241,1307.26 854.824,1315.12 863.543,1322.83 872.396,1330.39 881.379,1337.8 890.49,1345.05 899.725,1352.13 909.084,1359.06 918.561,1365.82 928.155,1372.41 937.863,1378.84 947.681,1385.09 957.607,1391.18 967.638,1397.08 977.771,1402.82 988.001,1408.37 998.328,1413.75 1008.75,1418.94 1019.25,1423.95 1029.85,1428.78 1040.52,1433.42 1051.28,1437.88 1062.11,1442.14 1073.01,1446.22 1083.99,1450.11 1095.03,1453.8 1106.13,1457.3 1117.29,1460.61 1128.51,1463.72 1139.78,1466.63 1151.1,1469.35 1162.47,1471.87 1173.88,1474.19 1185.32,1476.31 1196.8,1478.24 1208.32,1479.96 1219.86,1481.48 1231.43,1482.79 1243.01,1483.91 1254.62,1484.82 1266.24,1485.53 1277.87,1486.04 1289.51,1486.35 1301.15,1486.45 1312.79,1486.35 1324.43,1486.04 1336.06,1485.53 1347.68,1484.82 1359.28,1483.91 1370.87,1482.79 1382.44,1481.48 1393.98,1479.96 1405.49,1478.24 1416.98,1476.31 1428.42,1474.19 1439.83,1471.87 1451.2,1469.35 1462.52,1466.63 1473.79,1463.72 1485.01,1460.61 1496.17,1457.3 1507.27,1453.8 1518.31,1450.11 1529.28,1446.22 1540.19,1442.14 1551.02,1437.88 1561.78,1433.42 1572.45,1428.78 1583.04,1423.95 1593.55,1418.94 1603.97,1413.75 1614.3,1408.37 1624.53,1402.82 1634.66,1397.08 1644.69,1391.18 1654.62,1385.09 1664.43,1378.84 1674.14,1372.41 1683.74,1365.82 1693.21,1359.06 1702.57,1352.13 1711.81,1345.05 1720.92,1337.8 1729.9,1330.39 1738.75,1322.83 1747.47,1315.12 1756.06,1307.26 1764.5,1299.24 1772.8,1291.08 1780.96,1282.78 1788.98,1274.33 1796.84,1265.75 1804.56,1257.03 1812.12,1248.18 1819.52,1239.2 1826.77,1230.09 1833.86,1220.85 1840.78,1211.49 1847.54,1202.01 1854.13,1192.42 1860.56,1182.71 1866.82,1172.89 1872.9,1162.97 1878.81,1152.94 1884.54,1142.8 1890.09,1132.57 1895.47,1122.25 1900.66,1111.83 1905.68,1101.32 1910.5,1090.73 1915.15,1080.05 1919.6,1069.3 1923.87,1058.47 1927.94,1047.56 1931.83,1036.59 1935.52,1025.55 1939.02,1014.44 1942.33,1003.28 1945.44,992.064 1948.36,980.793 1951.07,969.474 1953.59,958.108 1955.92,946.7 1958.04,935.253 1959.96,923.771 1961.68,912.258 1963.2,900.716 1964.52,889.149 1965.63,877.561 1966.55,865.955 1967.26,854.336 1967.76,842.705 1968.07,831.067 "/>
<path clip-path="url(#clip170)" d="M2021.58 808.765 Q2016.62 808.765 2014.1 813.667 Q2011.62 818.536 2011.62 828.34 Q2011.62 838.111 2014.1 843.012 Q2016.62 847.882 2021.58 847.882 Q2026.58 847.882 2029.06 843.012 Q2031.57 838.111 2031.57 828.34 Q2031.57 818.536 2029.06 813.667 Q2026.58 808.765 2021.58 808.765 M2021.58 803.672 Q2029.57 803.672 2033.77 810.006 Q2038 816.308 2038 828.34 Q2038 840.339 2033.77 846.673 Q2029.57 852.975 2021.58 852.975 Q2013.59 852.975 2009.36 846.673 Q2005.16 840.339 2005.16 828.34 Q2005.16 816.308 2009.36 810.006 Q2013.59 803.672 2021.58 803.672 Z" fill="#000000" fill-rule="nonzero" fill-opacity="1" /><path clip-path="url(#clip170)" d="M2051.3 788.735 Q2047.47 788.735 2045.24 791.734 Q2043.02 794.708 2043.02 799.906 Q2043.02 805.104 2045.22 808.104 Q2047.44 811.078 2051.3 811.078 Q2055.1 811.078 2057.32 808.078 Q2059.55 805.078 2059.55 799.906 Q2059.55 794.76 2057.32 791.76 Q2055.1 788.735 2051.3 788.735 M2051.3 784.7 Q2057.5 784.7 2061.05 788.735 Q2064.59 792.769 2064.59 799.906 Q2064.59 807.018 2061.05 811.078 Q2057.5 815.112 2051.3 815.112 Q2045.06 815.112 2041.52 811.078 Q2038 807.018 2038 799.906 Q2038 792.769 2041.52 788.735 Q2045.06 784.7 2051.3 784.7 Z" fill="#000000" fill-rule="nonzero" fill-opacity="1" /><path clip-path="url(#clip170)" d="M1771.28 1345.25 Q1775.9 1346.24 1778.48 1349.36 Q1781.09 1352.48 1781.09 1357.06 Q1781.09 1364.09 1776.25 1367.94 Q1771.41 1371.8 1762.5 1371.8 Q1759.51 1371.8 1756.32 1371.19 Q1753.17 1370.62 1749.8 1369.44 L1749.8 1363.23 Q1752.47 1364.79 1755.66 1365.59 Q1758.84 1366.38 1762.31 1366.38 Q1768.36 1366.38 1771.51 1364 Q1774.69 1361.61 1774.69 1357.06 Q1774.69 1352.86 1771.73 1350.5 Q1768.8 1348.12 1763.55 1348.12 L1758.01 1348.12 L1758.01 1342.83 L1763.8 1342.83 Q1768.55 1342.83 1771.06 1340.95 Q1773.58 1339.04 1773.58 1335.48 Q1773.58 1331.82 1770.97 1329.88 Q1768.39 1327.9 1763.55 1327.9 Q1760.91 1327.9 1757.88 1328.48 Q1754.86 1329.05 1751.23 1330.26 L1751.23 1324.53 Q1754.89 1323.51 1758.08 1323 Q1761.29 1322.49 1764.12 1322.49 Q1771.44 1322.49 1775.71 1325.84 Q1779.97 1329.15 1779.97 1334.81 Q1779.97 1338.76 1777.71 1341.5 Q1775.45 1344.2 1771.28 1345.25 Z" fill="#000000" fill-rule="nonzero" fill-opacity="1" /><path clip-path="url(#clip170)" d="M1794.39 1365.46 L1804.9 1365.46 L1804.9 1329.21 L1793.47 1331.5 L1793.47 1325.64 L1804.83 1323.35 L1811.26 1323.35 L1811.26 1365.46 L1821.76 1365.46 L1821.76 1370.87 L1794.39 1370.87 L1794.39 1365.46 Z" fill="#000000" fill-rule="nonzero" fill-opacity="1" /><path clip-path="url(#clip170)" d="M1834.81 1323.35 L1860.05 1323.35 L1860.05 1328.76 L1840.7 1328.76 L1840.7 1340.41 Q1842.1 1339.94 1843.5 1339.71 Q1844.9 1339.46 1846.3 1339.46 Q1854.26 1339.46 1858.91 1343.82 Q1863.56 1348.18 1863.56 1355.63 Q1863.56 1363.3 1858.78 1367.56 Q1854.01 1371.8 1845.32 1371.8 Q1842.33 1371.8 1839.21 1371.29 Q1836.12 1370.78 1832.81 1369.76 L1832.81 1363.3 Q1835.67 1364.86 1838.73 1365.62 Q1841.78 1366.38 1845.19 1366.38 Q1850.7 1366.38 1853.91 1363.49 Q1857.13 1360.59 1857.13 1355.63 Q1857.13 1350.66 1853.91 1347.77 Q1850.7 1344.87 1845.19 1344.87 Q1842.61 1344.87 1840.03 1345.44 Q1837.49 1346.01 1834.81 1347.22 L1834.81 1323.35 Z" fill="#000000" fill-rule="nonzero" fill-opacity="1" /><path clip-path="url(#clip170)" d="M1876.85 1307.56 Q1873.02 1307.56 1870.8 1310.56 Q1868.57 1313.53 1868.57 1318.73 Q1868.57 1323.93 1870.77 1326.93 Q1872.99 1329.9 1876.85 1329.9 Q1880.65 1329.9 1882.87 1326.9 Q1885.1 1323.9 1885.1 1318.73 Q1885.1 1313.58 1882.87 1310.58 Q1880.65 1307.56 1876.85 1307.56 M1876.85 1303.52 Q1883.05 1303.52 1886.6 1307.56 Q1890.14 1311.59 1890.14 1318.73 Q1890.14 1325.84 1886.6 1329.9 Q1883.05 1333.93 1876.85 1333.93 Q1870.62 1333.93 1867.07 1329.9 Q1863.56 1325.84 1863.56 1318.73 Q1863.56 1311.59 1867.07 1307.56 Q1870.62 1303.52 1876.85 1303.52 Z" fill="#000000" fill-rule="nonzero" fill-opacity="1" /><path clip-path="url(#clip170)" d="M1237.93 1580.36 L1260.37 1580.36 L1260.37 1585.78 L1230.2 1585.78 L1230.2 1580.36 Q1233.86 1576.58 1240.16 1570.21 Q1246.5 1563.81 1248.12 1561.97 Q1251.21 1558.5 1252.42 1556.11 Q1253.66 1553.69 1253.66 1551.37 Q1253.66 1547.58 1250.98 1545.19 Q1248.34 1542.81 1244.08 1542.81 Q1241.05 1542.81 1237.68 1543.86 Q1234.34 1544.91 1230.52 1547.04 L1230.52 1540.55 Q1234.4 1538.99 1237.77 1538.19 Q1241.15 1537.4 1243.95 1537.4 Q1251.33 1537.4 1255.73 1541.09 Q1260.12 1544.78 1260.12 1550.96 Q1260.12 1553.88 1259 1556.53 Q1257.92 1559.13 1255.03 1562.7 Q1254.23 1563.62 1249.96 1568.05 Q1245.7 1572.44 1237.93 1580.36 Z" fill="#000000" fill-rule="nonzero" fill-opacity="1" /><path clip-path="url(#clip170)" d="M1272.24 1538.26 L1302.8 1538.26 L1302.8 1540.99 L1285.55 1585.78 L1278.83 1585.78 L1295.07 1543.67 L1272.24 1543.67 L1272.24 1538.26 Z" fill="#000000" fill-rule="nonzero" fill-opacity="1" /><path clip-path="url(#clip170)" d="M1329.09 1542.49 Q1324.13 1542.49 1321.61 1547.39 Q1319.13 1552.26 1319.13 1562.06 Q1319.13 1571.83 1321.61 1576.74 Q1324.13 1581.61 1329.09 1581.61 Q1334.09 1581.61 1336.57 1576.74 Q1339.08 1571.83 1339.08 1562.06 Q1339.08 1552.26 1336.57 1547.39 Q1334.09 1542.49 1329.09 1542.49 M1329.09 1537.4 Q1337.08 1537.4 1341.28 1543.73 Q1345.51 1550.03 1345.51 1562.06 Q1345.51 1574.06 1341.28 1580.4 Q1337.08 1586.7 1329.09 1586.7 Q1321.1 1586.7 1316.87 1580.4 Q1312.67 1574.06 1312.67 1562.06 Q1312.67 1550.03 1316.87 1543.73 Q1321.1 1537.4 1329.09 1537.4 Z" fill="#000000" fill-rule="nonzero" fill-opacity="1" /><path clip-path="url(#clip170)" d="M1358.81 1522.46 Q1354.98 1522.46 1352.75 1525.46 Q1350.53 1528.43 1350.53 1533.63 Q1350.53 1538.83 1352.73 1541.83 Q1354.95 1544.8 1358.81 1544.8 Q1362.61 1544.8 1364.83 1541.8 Q1367.06 1538.8 1367.06 1533.63 Q1367.06 1528.48 1364.83 1525.48 Q1362.61 1522.46 1358.81 1522.46 M1358.81 1518.42 Q1365.01 1518.42 1368.56 1522.46 Q1372.1 1526.49 1372.1 1533.63 Q1372.1 1540.74 1368.56 1544.8 Q1365.01 1548.84 1358.81 1548.84 Q1352.57 1548.84 1349.03 1544.8 Q1345.51 1540.74 1345.51 1533.63 Q1345.51 1526.49 1349.03 1522.46 Q1352.57 1518.42 1358.81 1518.42 Z" fill="#000000" fill-rule="nonzero" fill-opacity="1" /><path clip-path="url(#clip170)" d="M719.797 1365.46 L742.236 1365.46 L742.236 1370.87 L712.063 1370.87 L712.063 1365.46 Q715.723 1361.67 722.025 1355.31 Q728.359 1348.91 729.982 1347.07 Q733.069 1343.6 734.279 1341.21 Q735.52 1338.79 735.52 1336.47 Q735.52 1332.68 732.847 1330.29 Q730.205 1327.9 725.94 1327.9 Q722.916 1327.9 719.542 1328.95 Q716.2 1330 712.381 1332.14 L712.381 1325.64 Q716.264 1324.08 719.638 1323.29 Q723.012 1322.49 725.812 1322.49 Q733.197 1322.49 737.589 1326.19 Q741.981 1329.88 741.981 1336.05 Q741.981 1338.98 740.867 1341.62 Q739.785 1344.23 736.889 1347.8 Q736.093 1348.72 731.828 1353.14 Q727.563 1357.54 719.797 1365.46 Z" fill="#000000" fill-rule="nonzero" fill-opacity="1" /><path clip-path="url(#clip170)" d="M761.269 1365.46 L783.709 1365.46 L783.709 1370.87 L753.535 1370.87 L753.535 1365.46 Q757.195 1361.67 763.497 1355.31 Q769.831 1348.91 771.455 1347.07 Q774.542 1343.6 775.751 1341.21 Q776.993 1338.79 776.993 1336.47 Q776.993 1332.68 774.319 1330.29 Q771.677 1327.9 767.412 1327.9 Q764.389 1327.9 761.015 1328.95 Q757.673 1330 753.853 1332.14 L753.853 1325.64 Q757.736 1324.08 761.11 1323.29 Q764.484 1322.49 767.285 1322.49 Q774.669 1322.49 779.062 1326.19 Q783.454 1329.88 783.454 1336.05 Q783.454 1338.98 782.34 1341.62 Q781.258 1344.23 778.361 1347.8 Q777.566 1348.72 773.301 1353.14 Q769.036 1357.54 761.269 1365.46 Z" fill="#000000" fill-rule="nonzero" fill-opacity="1" /><path clip-path="url(#clip170)" d="M797.267 1323.35 L822.508 1323.35 L822.508 1328.76 L803.156 1328.76 L803.156 1340.41 Q804.556 1339.94 805.957 1339.71 Q807.357 1339.46 808.758 1339.46 Q816.715 1339.46 821.362 1343.82 Q826.009 1348.18 826.009 1355.63 Q826.009 1363.3 821.234 1367.56 Q816.46 1371.8 807.771 1371.8 Q804.779 1371.8 801.66 1371.29 Q798.572 1370.78 795.262 1369.76 L795.262 1363.3 Q798.127 1364.86 801.182 1365.62 Q804.238 1366.38 807.644 1366.38 Q813.15 1366.38 816.365 1363.49 Q819.579 1360.59 819.579 1355.63 Q819.579 1350.66 816.365 1347.77 Q813.15 1344.87 807.644 1344.87 Q805.065 1344.87 802.487 1345.44 Q799.941 1346.01 797.267 1347.22 L797.267 1323.35 Z" fill="#000000" fill-rule="nonzero" fill-opacity="1" /><path clip-path="url(#clip170)" d="M839.301 1307.56 Q835.474 1307.56 833.25 1310.56 Q831.026 1313.53 831.026 1318.73 Q831.026 1323.93 833.224 1326.93 Q835.448 1329.9 839.301 1329.9 Q843.103 1329.9 845.327 1326.9 Q847.551 1323.9 847.551 1318.73 Q847.551 1313.58 845.327 1310.58 Q843.103 1307.56 839.301 1307.56 M839.301 1303.52 Q845.508 1303.52 849.051 1307.56 Q852.593 1311.59 852.593 1318.73 Q852.593 1325.84 849.051 1329.9 Q845.508 1333.93 839.301 1333.93 Q833.069 1333.93 829.526 1329.9 Q826.009 1325.84 826.009 1318.73 Q826.009 1311.59 829.526 1307.56 Q833.069 1303.52 839.301 1303.52 Z" fill="#000000" fill-rule="nonzero" fill-opacity="1" /><path clip-path="url(#clip170)" d="M498.592 846.641 L509.096 846.641 L509.096 810.388 L497.669 812.68 L497.669 806.823 L509.032 804.532 L515.461 804.532 L515.461 846.641 L525.965 846.641 L525.965 852.052 L498.592 852.052 L498.592 846.641 Z" fill="#000000" fill-rule="nonzero" fill-opacity="1" /><path clip-path="url(#clip170)" d="M552.701 829.485 Q548.117 829.485 545.476 831.936 Q542.866 834.387 542.866 838.684 Q542.866 842.981 545.476 845.431 Q548.117 847.882 552.701 847.882 Q557.284 847.882 559.926 845.431 Q562.567 842.949 562.567 838.684 Q562.567 834.387 559.926 831.936 Q557.316 829.485 552.701 829.485 M546.271 826.748 Q542.134 825.73 539.81 822.897 Q537.518 820.064 537.518 815.99 Q537.518 810.293 541.561 806.983 Q545.635 803.672 552.701 803.672 Q559.798 803.672 563.841 806.983 Q567.883 810.293 567.883 815.99 Q567.883 820.064 565.559 822.897 Q563.268 825.73 559.162 826.748 Q563.809 827.83 566.387 830.981 Q568.997 834.132 568.997 838.684 Q568.997 845.591 564.764 849.283 Q560.562 852.975 552.701 852.975 Q544.839 852.975 540.606 849.283 Q536.404 845.591 536.404 838.684 Q536.404 834.132 539.014 830.981 Q541.624 827.83 546.271 826.748 M543.916 816.595 Q543.916 820.287 546.208 822.356 Q548.531 824.425 552.701 824.425 Q556.838 824.425 559.162 822.356 Q561.517 820.287 561.517 816.595 Q561.517 812.903 559.162 810.834 Q556.838 808.765 552.701 808.765 Q548.531 808.765 546.208 810.834 Q543.916 812.903 543.916 816.595 Z" fill="#000000" fill-rule="nonzero" fill-opacity="1" /><path clip-path="url(#clip170)" d="M594.173 808.765 Q589.208 808.765 586.693 813.667 Q584.211 818.536 584.211 828.34 Q584.211 838.111 586.693 843.012 Q589.208 847.882 594.173 847.882 Q599.17 847.882 601.653 843.012 Q604.167 838.111 604.167 828.34 Q604.167 818.536 601.653 813.667 Q599.17 808.765 594.173 808.765 M594.173 803.672 Q602.162 803.672 606.364 810.006 Q610.597 816.308 610.597 828.34 Q610.597 840.339 606.364 846.673 Q602.162 852.975 594.173 852.975 Q586.184 852.975 581.951 846.673 Q577.75 840.339 577.75 828.34 Q577.75 816.308 581.951 810.006 Q586.184 803.672 594.173 803.672 Z" fill="#000000" fill-rule="nonzero" fill-opacity="1" /><path clip-path="url(#clip170)" d="M623.889 788.735 Q620.062 788.735 617.838 791.734 Q615.614 794.708 615.614 799.906 Q615.614 805.104 617.812 808.104 Q620.036 811.078 623.889 811.078 Q627.691 811.078 629.915 808.078 Q632.139 805.078 632.139 799.906 Q632.139 794.76 629.915 791.76 Q627.691 788.735 623.889 788.735 M623.889 784.7 Q630.096 784.7 633.639 788.735 Q637.181 792.769 637.181 799.906 Q637.181 807.018 633.639 811.078 Q630.096 815.112 623.889 815.112 Q617.657 815.112 614.114 811.078 Q610.597 807.018 610.597 799.906 Q610.597 792.769 614.114 788.735 Q617.657 784.7 623.889 784.7 Z" fill="#000000" fill-rule="nonzero" fill-opacity="1" /><path clip-path="url(#clip170)" d="M714.179 327.82 L724.683 327.82 L724.683 291.567 L713.256 293.859 L713.256 288.002 L724.619 285.711 L731.048 285.711 L731.048 327.82 L741.552 327.82 L741.552 333.231 L714.179 333.231 L714.179 327.82 Z" fill="#000000" fill-rule="nonzero" fill-opacity="1" /><path clip-path="url(#clip170)" d="M774.017 307.609 Q778.632 308.595 781.21 311.715 Q783.82 314.834 783.82 319.417 Q783.82 326.451 778.982 330.303 Q774.144 334.154 765.232 334.154 Q762.24 334.154 759.057 333.549 Q755.906 332.976 752.532 331.798 L752.532 325.592 Q755.206 327.152 758.389 327.947 Q761.572 328.743 765.041 328.743 Q771.089 328.743 774.24 326.356 Q777.422 323.969 777.422 319.417 Q777.422 315.216 774.462 312.861 Q771.534 310.473 766.282 310.473 L760.744 310.473 L760.744 305.19 L766.537 305.19 Q771.279 305.19 773.794 303.312 Q776.308 301.402 776.308 297.837 Q776.308 294.177 773.698 292.236 Q771.12 290.262 766.282 290.262 Q763.641 290.262 760.617 290.835 Q757.593 291.408 753.965 292.618 L753.965 286.888 Q757.625 285.87 760.808 285.361 Q764.023 284.851 766.855 284.851 Q774.176 284.851 778.441 288.193 Q782.706 291.504 782.706 297.169 Q782.706 301.116 780.446 303.853 Q778.186 306.558 774.017 307.609 Z" fill="#000000" fill-rule="nonzero" fill-opacity="1" /><path clip-path="url(#clip170)" d="M796.074 285.711 L821.314 285.711 L821.314 291.122 L801.962 291.122 L801.962 302.771 Q803.363 302.293 804.763 302.071 Q806.164 301.816 807.564 301.816 Q815.521 301.816 820.168 306.177 Q824.815 310.537 824.815 317.985 Q824.815 325.656 820.041 329.921 Q815.267 334.154 806.577 334.154 Q803.585 334.154 800.466 333.645 Q797.379 333.135 794.069 332.117 L794.069 325.656 Q796.933 327.215 799.989 327.979 Q803.044 328.743 806.45 328.743 Q811.956 328.743 815.171 325.847 Q818.386 322.95 818.386 317.985 Q818.386 313.02 815.171 310.123 Q811.956 307.227 806.45 307.227 Q803.872 307.227 801.294 307.8 Q798.748 308.373 796.074 309.582 L796.074 285.711 Z" fill="#000000" fill-rule="nonzero" fill-opacity="1" /><path clip-path="url(#clip170)" d="M838.107 269.914 Q834.28 269.914 832.056 272.913 Q829.832 275.887 829.832 281.085 Q829.832 286.283 832.03 289.283 Q834.254 292.257 838.107 292.257 Q841.909 292.257 844.133 289.257 Q846.357 286.257 846.357 281.085 Q846.357 275.939 844.133 272.939 Q841.909 269.914 838.107 269.914 M838.107 265.879 Q844.314 265.879 847.857 269.914 Q851.4 273.948 851.4 281.085 Q851.4 288.197 847.857 292.257 Q844.314 296.291 838.107 296.291 Q831.875 296.291 828.332 292.257 Q824.815 288.197 824.815 281.085 Q824.815 273.948 828.332 269.914 Q831.875 265.879 838.107 265.879 Z" fill="#000000" fill-rule="nonzero" fill-opacity="1" /><path clip-path="url(#clip170)" d="M1253.66 117.341 L1253.66 111.485 Q1256.08 112.631 1258.56 113.236 Q1261.04 113.84 1263.43 113.84 Q1269.79 113.84 1273.14 109.575 Q1276.51 105.278 1276.99 96.5574 Q1275.14 99.2946 1272.31 100.759 Q1269.48 102.223 1266.04 102.223 Q1258.91 102.223 1254.74 97.926 Q1250.6 93.5973 1250.6 86.1176 Q1250.6 78.797 1254.93 74.3729 Q1259.26 69.9487 1266.45 69.9487 Q1274.7 69.9487 1279.02 76.2826 Q1283.38 82.5846 1283.38 94.6158 Q1283.38 105.851 1278.04 112.567 Q1272.72 119.251 1263.71 119.251 Q1261.3 119.251 1258.81 118.774 Q1256.33 118.296 1253.66 117.341 M1266.45 97.1939 Q1270.78 97.1939 1273.3 94.2339 Q1275.84 91.2738 1275.84 86.1176 Q1275.84 80.9932 1273.3 78.0332 Q1270.78 75.0413 1266.45 75.0413 Q1262.12 75.0413 1259.58 78.0332 Q1257.06 80.9932 1257.06 86.1176 Q1257.06 91.2738 1259.58 94.2339 Q1262.12 97.1939 1266.45 97.1939 Z" fill="#000000" fill-rule="nonzero" fill-opacity="1" /><path clip-path="url(#clip170)" d="M1308.69 75.0413 Q1303.72 75.0413 1301.21 79.9429 Q1298.73 84.8126 1298.73 94.6158 Q1298.73 104.387 1301.21 109.289 Q1303.72 114.159 1308.69 114.159 Q1313.69 114.159 1316.17 109.289 Q1318.68 104.387 1318.68 94.6158 Q1318.68 84.8126 1316.17 79.9429 Q1313.69 75.0413 1308.69 75.0413 M1308.69 69.9487 Q1316.68 69.9487 1320.88 76.2826 Q1325.11 82.5846 1325.11 94.6158 Q1325.11 106.615 1320.88 112.949 Q1316.68 119.251 1308.69 119.251 Q1300.7 119.251 1296.47 112.949 Q1292.26 106.615 1292.26 94.6158 Q1292.26 82.5846 1296.47 76.2826 Q1300.7 69.9487 1308.69 69.9487 Z" fill="#000000" fill-rule="nonzero" fill-opacity="1" /><path clip-path="url(#clip170)" d="M1338.4 55.0108 Q1334.58 55.0108 1332.35 58.0107 Q1330.13 60.9847 1330.13 66.1827 Q1330.13 71.3807 1332.33 74.3805 Q1334.55 77.3545 1338.4 77.3545 Q1342.21 77.3545 1344.43 74.3546 Q1346.65 71.3548 1346.65 66.1827 Q1346.65 61.0364 1344.43 58.0365 Q1342.21 55.0108 1338.4 55.0108 M1338.4 50.9766 Q1344.61 50.9766 1348.15 55.0108 Q1351.7 59.0451 1351.7 66.1827 Q1351.7 73.2943 1348.15 77.3545 Q1344.61 81.3887 1338.4 81.3887 Q1332.17 81.3887 1328.63 77.3545 Q1325.11 73.2943 1325.11 66.1827 Q1325.11 59.0451 1328.63 55.0108 Q1332.17 50.9766 1338.4 50.9766 Z" fill="#000000" fill-rule="nonzero" fill-opacity="1" /><path clip-path="url(#clip170)" d="M1791.1 291.313 L1774.86 316.68 L1791.1 316.68 L1791.1 291.313 M1789.41 285.711 L1797.5 285.711 L1797.5 316.68 L1804.27 316.68 L1804.27 322.027 L1797.5 322.027 L1797.5 333.231 L1791.1 333.231 L1791.1 322.027 L1769.65 322.027 L1769.65 315.821 L1789.41 285.711 Z" fill="#000000" fill-rule="nonzero" fill-opacity="1" /><path clip-path="url(#clip170)" d="M1814.97 285.711 L1840.21 285.711 L1840.21 291.122 L1820.86 291.122 L1820.86 302.771 Q1822.26 302.293 1823.66 302.071 Q1825.06 301.816 1826.46 301.816 Q1834.42 301.816 1839.06 306.177 Q1843.71 310.537 1843.71 317.985 Q1843.71 325.656 1838.94 329.921 Q1834.16 334.154 1825.47 334.154 Q1822.48 334.154 1819.36 333.645 Q1816.27 333.135 1812.96 332.117 L1812.96 325.656 Q1815.83 327.215 1818.88 327.979 Q1821.94 328.743 1825.35 328.743 Q1830.85 328.743 1834.07 325.847 Q1837.28 322.95 1837.28 317.985 Q1837.28 313.02 1834.07 310.123 Q1830.85 307.227 1825.35 307.227 Q1822.77 307.227 1820.19 307.8 Q1817.64 308.373 1814.97 309.582 L1814.97 285.711 Z" fill="#000000" fill-rule="nonzero" fill-opacity="1" /><path clip-path="url(#clip170)" d="M1857 269.914 Q1853.18 269.914 1850.95 272.913 Q1848.73 275.887 1848.73 281.085 Q1848.73 286.283 1850.93 289.283 Q1853.15 292.257 1857 292.257 Q1860.8 292.257 1863.03 289.257 Q1865.25 286.257 1865.25 281.085 Q1865.25 275.939 1863.03 272.939 Q1860.8 269.914 1857 269.914 M1857 265.879 Q1863.21 265.879 1866.75 269.914 Q1870.29 273.948 1870.29 281.085 Q1870.29 288.197 1866.75 292.257 Q1863.21 296.291 1857 296.291 Q1850.77 296.291 1847.23 292.257 Q1843.71 288.197 1843.71 281.085 Q1843.71 273.948 1847.23 269.914 Q1850.77 265.879 1857 265.879 Z" fill="#000000" fill-rule="nonzero" fill-opacity="1" /><path clip-path="url(#clip170)" d="M1282.67 799.9 Q1277.7 799.9 1275.19 804.801 Q1272.7 809.671 1272.7 819.474 Q1272.7 829.245 1275.19 834.147 Q1277.7 839.017 1282.67 839.017 Q1287.66 839.017 1290.15 834.147 Q1292.66 829.245 1292.66 819.474 Q1292.66 809.671 1290.15 804.801 Q1287.66 799.9 1282.67 799.9 M1282.67 794.807 Q1290.66 794.807 1294.86 801.141 Q1299.09 807.443 1299.09 819.474 Q1299.09 831.473 1294.86 837.807 Q1290.66 844.109 1282.67 844.109 Q1274.68 844.109 1270.45 837.807 Q1266.24 831.473 1266.24 819.474 Q1266.24 807.443 1270.45 801.141 Q1274.68 794.807 1282.67 794.807 Z" fill="#000000" fill-rule="nonzero" fill-opacity="1" /><path clip-path="url(#clip170)" d="M1310.39 835.102 L1317.11 835.102 L1317.11 843.186 L1310.39 843.186 L1310.39 835.102 Z" fill="#000000" fill-rule="nonzero" fill-opacity="1" /><path clip-path="url(#clip170)" d="M1344.86 799.9 Q1339.89 799.9 1337.38 804.801 Q1334.9 809.671 1334.9 819.474 Q1334.9 829.245 1337.38 834.147 Q1339.89 839.017 1344.86 839.017 Q1349.86 839.017 1352.34 834.147 Q1354.85 829.245 1354.85 819.474 Q1354.85 809.671 1352.34 804.801 Q1349.86 799.9 1344.86 799.9 M1344.86 794.807 Q1352.85 794.807 1357.05 801.141 Q1361.28 807.443 1361.28 819.474 Q1361.28 831.473 1357.05 837.807 Q1352.85 844.109 1344.86 844.109 Q1336.87 844.109 1332.64 837.807 Q1328.44 831.473 1328.44 819.474 Q1328.44 807.443 1332.64 801.141 Q1336.87 794.807 1344.86 794.807 Z" fill="#000000" fill-rule="nonzero" fill-opacity="1" /><path clip-path="url(#clip170)" d="M1386.33 799.9 Q1381.37 799.9 1378.85 804.801 Q1376.37 809.671 1376.37 819.474 Q1376.37 829.245 1378.85 834.147 Q1381.37 839.017 1386.33 839.017 Q1391.33 839.017 1393.81 834.147 Q1396.33 829.245 1396.33 819.474 Q1396.33 809.671 1393.81 804.801 Q1391.33 799.9 1386.33 799.9 M1386.33 794.807 Q1394.32 794.807 1398.52 801.141 Q1402.76 807.443 1402.76 819.474 Q1402.76 831.473 1398.52 837.807 Q1394.32 844.109 1386.33 844.109 Q1378.34 844.109 1374.11 837.807 Q1369.91 831.473 1369.91 819.474 Q1369.91 807.443 1374.11 801.141 Q1378.34 794.807 1386.33 794.807 Z" fill="#000000" fill-rule="nonzero" fill-opacity="1" /><path clip-path="url(#clip170)" d="M1283.35 599.574 Q1278.39 599.574 1275.87 604.476 Q1273.39 609.345 1273.39 619.148 Q1273.39 628.92 1275.87 633.821 Q1278.39 638.691 1283.35 638.691 Q1288.35 638.691 1290.83 633.821 Q1293.35 628.92 1293.35 619.148 Q1293.35 609.345 1290.83 604.476 Q1288.35 599.574 1283.35 599.574 M1283.35 594.481 Q1291.34 594.481 1295.54 600.815 Q1299.78 607.117 1299.78 619.148 Q1299.78 631.148 1295.54 637.482 Q1291.34 643.784 1283.35 643.784 Q1275.36 643.784 1271.13 637.482 Q1266.93 631.148 1266.93 619.148 Q1266.93 607.117 1271.13 600.815 Q1275.36 594.481 1283.35 594.481 Z" fill="#000000" fill-rule="nonzero" fill-opacity="1" /><path clip-path="url(#clip170)" d="M1311.07 634.776 L1317.79 634.776 L1317.79 642.861 L1311.07 642.861 L1311.07 634.776 Z" fill="#000000" fill-rule="nonzero" fill-opacity="1" /><path clip-path="url(#clip170)" d="M1345.54 599.574 Q1340.58 599.574 1338.06 604.476 Q1335.58 609.345 1335.58 619.148 Q1335.58 628.92 1338.06 633.821 Q1340.58 638.691 1345.54 638.691 Q1350.54 638.691 1353.02 633.821 Q1355.54 628.92 1355.54 619.148 Q1355.54 609.345 1353.02 604.476 Q1350.54 599.574 1345.54 599.574 M1345.54 594.481 Q1353.53 594.481 1357.73 600.815 Q1361.97 607.117 1361.97 619.148 Q1361.97 631.148 1357.73 637.482 Q1353.53 643.784 1345.54 643.784 Q1337.56 643.784 1333.32 637.482 Q1329.12 631.148 1329.12 619.148 Q1329.12 607.117 1333.32 600.815 Q1337.56 594.481 1345.54 594.481 Z" fill="#000000" fill-rule="nonzero" fill-opacity="1" /><path clip-path="url(#clip170)" d="M1373.33 595.341 L1398.57 595.341 L1398.57 600.752 L1379.22 600.752 L1379.22 612.401 Q1380.62 611.923 1382.02 611.701 Q1383.42 611.446 1384.82 611.446 Q1392.78 611.446 1397.43 615.806 Q1402.07 620.167 1402.07 627.615 Q1402.07 635.286 1397.3 639.551 Q1392.52 643.784 1383.83 643.784 Q1380.84 643.784 1377.72 643.274 Q1374.64 642.765 1371.33 641.747 L1371.33 635.286 Q1374.19 636.845 1377.25 637.609 Q1380.3 638.373 1383.71 638.373 Q1389.21 638.373 1392.43 635.476 Q1395.64 632.58 1395.64 627.615 Q1395.64 622.65 1392.43 619.753 Q1389.21 616.857 1383.71 616.857 Q1381.13 616.857 1378.55 617.43 Q1376 618.003 1373.33 619.212 L1373.33 595.341 Z" fill="#000000" fill-rule="nonzero" fill-opacity="1" /><path clip-path="url(#clip170)" d="M1282.67 399.248 Q1277.7 399.248 1275.19 404.15 Q1272.7 409.02 1272.7 418.823 Q1272.7 428.594 1275.19 433.496 Q1277.7 438.366 1282.67 438.366 Q1287.66 438.366 1290.15 433.496 Q1292.66 428.594 1292.66 418.823 Q1292.66 409.02 1290.15 404.15 Q1287.66 399.248 1282.67 399.248 M1282.67 394.156 Q1290.66 394.156 1294.86 400.49 Q1299.09 406.792 1299.09 418.823 Q1299.09 430.822 1294.86 437.156 Q1290.66 443.458 1282.67 443.458 Q1274.68 443.458 1270.45 437.156 Q1266.24 430.822 1266.24 418.823 Q1266.24 406.792 1270.45 400.49 Q1274.68 394.156 1282.67 394.156 Z" fill="#000000" fill-rule="nonzero" fill-opacity="1" /><path clip-path="url(#clip170)" d="M1310.39 434.451 L1317.11 434.451 L1317.11 442.535 L1310.39 442.535 L1310.39 434.451 Z" fill="#000000" fill-rule="nonzero" fill-opacity="1" /><path clip-path="url(#clip170)" d="M1332.22 437.124 L1342.73 437.124 L1342.73 400.872 L1331.3 403.163 L1331.3 397.307 L1342.66 395.015 L1349.09 395.015 L1349.09 437.124 L1359.6 437.124 L1359.6 442.535 L1332.22 442.535 L1332.22 437.124 Z" fill="#000000" fill-rule="nonzero" fill-opacity="1" /><path clip-path="url(#clip170)" d="M1386.33 399.248 Q1381.37 399.248 1378.85 404.15 Q1376.37 409.02 1376.37 418.823 Q1376.37 428.594 1378.85 433.496 Q1381.37 438.366 1386.33 438.366 Q1391.33 438.366 1393.81 433.496 Q1396.33 428.594 1396.33 418.823 Q1396.33 409.02 1393.81 404.15 Q1391.33 399.248 1386.33 399.248 M1386.33 394.156 Q1394.32 394.156 1398.52 400.49 Q1402.76 406.792 1402.76 418.823 Q1402.76 430.822 1398.52 437.156 Q1394.32 443.458 1386.33 443.458 Q1378.34 443.458 1374.11 437.156 Q1369.91 430.822 1369.91 418.823 Q1369.91 406.792 1374.11 400.49 Q1378.34 394.156 1386.33 394.156 Z" fill="#000000" fill-rule="nonzero" fill-opacity="1" /><path clip-path="url(#clip170)" d="M1283.35 198.923 Q1278.39 198.923 1275.87 203.824 Q1273.39 208.694 1273.39 218.497 Q1273.39 228.269 1275.87 233.17 Q1278.39 238.04 1283.35 238.04 Q1288.35 238.04 1290.83 233.17 Q1293.35 228.269 1293.35 218.497 Q1293.35 208.694 1290.83 203.824 Q1288.35 198.923 1283.35 198.923 M1283.35 193.83 Q1291.34 193.83 1295.54 200.164 Q1299.78 206.466 1299.78 218.497 Q1299.78 230.497 1295.54 236.83 Q1291.34 243.133 1283.35 243.133 Q1275.36 243.133 1271.13 236.83 Q1266.93 230.497 1266.93 218.497 Q1266.93 206.466 1271.13 200.164 Q1275.36 193.83 1283.35 193.83 Z" fill="#000000" fill-rule="nonzero" fill-opacity="1" /><path clip-path="url(#clip170)" d="M1311.07 234.125 L1317.79 234.125 L1317.79 242.209 L1311.07 242.209 L1311.07 234.125 Z" fill="#000000" fill-rule="nonzero" fill-opacity="1" /><path clip-path="url(#clip170)" d="M1332.91 236.799 L1343.41 236.799 L1343.41 200.546 L1331.99 202.838 L1331.99 196.981 L1343.35 194.689 L1349.78 194.689 L1349.78 236.799 L1360.28 236.799 L1360.28 242.209 L1332.91 242.209 L1332.91 236.799 Z" fill="#000000" fill-rule="nonzero" fill-opacity="1" /><path clip-path="url(#clip170)" d="M1373.33 194.689 L1398.57 194.689 L1398.57 200.1 L1379.22 200.1 L1379.22 211.75 Q1380.62 211.272 1382.02 211.049 Q1383.42 210.795 1384.82 210.795 Q1392.78 210.795 1397.43 215.155 Q1402.07 219.516 1402.07 226.964 Q1402.07 234.634 1397.3 238.899 Q1392.52 243.133 1383.83 243.133 Q1380.84 243.133 1377.72 242.623 Q1374.64 242.114 1371.33 241.095 L1371.33 234.634 Q1374.19 236.194 1377.25 236.958 Q1380.3 237.722 1383.71 237.722 Q1389.21 237.722 1392.43 234.825 Q1395.64 231.929 1395.64 226.964 Q1395.64 221.998 1392.43 219.102 Q1389.21 216.206 1383.71 216.206 Q1381.13 216.206 1378.55 216.778 Q1376 217.351 1373.33 218.561 L1373.33 194.689 Z" fill="#000000" fill-rule="nonzero" fill-opacity="1" /><polyline clip-path="url(#clip173)" style="stroke:#000000; stroke-linecap:round; stroke-linejoin:round; stroke-width:4; stroke-opacity:1; fill:none" points="712.807,1117.16 729.296,1147.72 "/>
<line clip-path="url(#clip173)" x1="712.807" y1="1133.16" x2="712.807" y2="1101.16" style="stroke:#000000; stroke-width:4; stroke-opacity:1"/>
<line clip-path="url(#clip173)" x1="729.296" y1="1163.72" x2="729.296" y2="1131.72" style="stroke:#000000; stroke-width:4; stroke-opacity:1"/>
<polyline clip-path="url(#clip173)" style="stroke:#000000; stroke-linecap:round; stroke-linejoin:round; stroke-width:4; stroke-opacity:1; fill:none" points="726.45,1129.52 715.25,1135.57 "/>
<line clip-path="url(#clip173)" x1="742.45" y1="1129.52" x2="710.45" y2="1129.52" style="stroke:#000000; stroke-width:4; stroke-opacity:1"/>
<line clip-path="url(#clip173)" x1="731.25" y1="1135.57" x2="699.25" y2="1135.57" style="stroke:#000000; stroke-width:4; stroke-opacity:1"/>
<circle clip-path="url(#clip173)" cx="720.85" cy="1132.54" r="14.4" fill="#009af9" fill-rule="evenodd" fill-opacity="1" stroke="#000000" stroke-opacity="1" stroke-width="3.2"/>
<path clip-path="url(#clip170)" d="M1750.36 198.898 L2282.65 198.898 L2282.65 95.2176 L1750.36 95.2176  Z" fill="#ffffff" fill-rule="evenodd" fill-opacity="1"/>
<polyline clip-path="url(#clip170)" style="stroke:#000000; stroke-linecap:round; stroke-linejoin:round; stroke-width:4; stroke-opacity:1; fill:none" points="1750.36,198.898 2282.65,198.898 2282.65,95.2176 1750.36,95.2176 1750.36,198.898 "/>
<circle clip-path="url(#clip170)" cx="1843.84" cy="147.058" r="20.48" fill="#009af9" fill-rule="evenodd" fill-opacity="1" stroke="#000000" stroke-opacity="1" stroke-width="4.55111"/>
<path clip-path="url(#clip170)" d="M1959.56 130.912 L1959.56 135.472 Q1956.9 134.199 1954.54 133.574 Q1952.17 132.949 1949.98 132.949 Q1946.16 132.949 1944.07 134.43 Q1942.01 135.912 1942.01 138.643 Q1942.01 140.935 1943.38 142.115 Q1944.77 143.273 1948.61 143.99 L1951.43 144.569 Q1956.67 145.565 1959.14 148.088 Q1961.64 150.588 1961.64 154.801 Q1961.64 159.824 1958.26 162.416 Q1954.91 165.009 1948.4 165.009 Q1945.95 165.009 1943.17 164.453 Q1940.42 163.898 1937.45 162.81 L1937.45 157.995 Q1940.3 159.592 1943.03 160.402 Q1945.76 161.213 1948.4 161.213 Q1952.41 161.213 1954.58 159.639 Q1956.76 158.064 1956.76 155.148 Q1956.76 152.602 1955.18 151.166 Q1953.63 149.731 1950.07 149.014 L1947.22 148.458 Q1941.99 147.416 1939.65 145.194 Q1937.31 142.972 1937.31 139.014 Q1937.31 134.43 1940.53 131.791 Q1943.77 129.153 1949.44 129.153 Q1951.87 129.153 1954.4 129.592 Q1956.92 130.032 1959.56 130.912 Z" fill="#000000" fill-rule="nonzero" fill-opacity="1" /><path clip-path="url(#clip170)" d="M1981.36 134.384 L1975.02 151.583 L1987.73 151.583 L1981.36 134.384 M1978.73 129.778 L1984.03 129.778 L1997.2 164.338 L1992.34 164.338 L1989.19 155.472 L1973.61 155.472 L1970.46 164.338 L1965.53 164.338 L1978.73 129.778 Z" fill="#000000" fill-rule="nonzero" fill-opacity="1" /><path clip-path="url(#clip170)" d="M2015.44 132.949 Q2010.35 132.949 2007.34 136.745 Q2004.35 140.541 2004.35 147.092 Q2004.35 153.62 2007.34 157.416 Q2010.35 161.213 2015.44 161.213 Q2020.53 161.213 2023.49 157.416 Q2026.48 153.62 2026.48 147.092 Q2026.48 140.541 2023.49 136.745 Q2020.53 132.949 2015.44 132.949 M2015.44 129.153 Q2022.71 129.153 2027.06 134.037 Q2031.41 138.898 2031.41 147.092 Q2031.41 155.264 2027.06 160.148 Q2022.71 165.009 2015.44 165.009 Q2008.15 165.009 2003.77 160.148 Q1999.42 155.287 1999.42 147.092 Q1999.42 138.898 2003.77 134.037 Q2008.15 129.153 2015.44 129.153 Z" fill="#000000" fill-rule="nonzero" fill-opacity="1" /><path clip-path="url(#clip170)" d="M2055.02 160.402 L2062.66 160.402 L2062.66 134.037 L2054.35 135.703 L2054.35 131.444 L2062.61 129.778 L2067.29 129.778 L2067.29 160.402 L2074.93 160.402 L2074.93 164.338 L2055.02 164.338 L2055.02 160.402 Z" fill="#000000" fill-rule="nonzero" fill-opacity="1" /><path clip-path="url(#clip170)" d="M2098.54 145.703 Q2101.9 146.421 2103.77 148.689 Q2105.67 150.958 2105.67 154.291 Q2105.67 159.407 2102.15 162.208 Q2098.63 165.009 2092.15 165.009 Q2089.98 165.009 2087.66 164.569 Q2085.37 164.152 2082.91 163.296 L2082.91 158.782 Q2084.86 159.916 2087.17 160.495 Q2089.49 161.074 2092.01 161.074 Q2096.41 161.074 2098.7 159.338 Q2101.02 157.601 2101.02 154.291 Q2101.02 151.236 2098.86 149.523 Q2096.73 147.787 2092.91 147.787 L2088.89 147.787 L2088.89 143.944 L2093.1 143.944 Q2096.55 143.944 2098.38 142.578 Q2100.21 141.19 2100.21 138.597 Q2100.21 135.935 2098.31 134.523 Q2096.43 133.088 2092.91 133.088 Q2090.99 133.088 2088.79 133.504 Q2086.6 133.921 2083.96 134.801 L2083.96 130.634 Q2086.62 129.893 2088.93 129.523 Q2091.27 129.153 2093.33 129.153 Q2098.66 129.153 2101.76 131.583 Q2104.86 133.99 2104.86 138.111 Q2104.86 140.981 2103.22 142.972 Q2101.57 144.94 2098.54 145.703 Z" fill="#000000" fill-rule="nonzero" fill-opacity="1" /><path clip-path="url(#clip170)" d="M2125.11 145.194 Q2121.97 145.194 2120.11 147.347 Q2118.29 149.5 2118.29 153.25 Q2118.29 156.976 2120.11 159.152 Q2121.97 161.305 2125.11 161.305 Q2128.26 161.305 2130.09 159.152 Q2131.94 156.976 2131.94 153.25 Q2131.94 149.5 2130.09 147.347 Q2128.26 145.194 2125.11 145.194 M2134.4 130.541 L2134.4 134.801 Q2132.64 133.967 2130.83 133.528 Q2129.05 133.088 2127.29 133.088 Q2122.66 133.088 2120.21 136.213 Q2117.78 139.338 2117.43 145.657 Q2118.79 143.643 2120.85 142.578 Q2122.91 141.49 2125.39 141.49 Q2130.6 141.49 2133.61 144.662 Q2136.64 147.81 2136.64 153.25 Q2136.64 158.574 2133.49 161.791 Q2130.35 165.009 2125.11 165.009 Q2119.12 165.009 2115.95 160.426 Q2112.78 155.819 2112.78 147.092 Q2112.78 138.898 2116.66 134.037 Q2120.55 129.153 2127.1 129.153 Q2128.86 129.153 2130.65 129.5 Q2132.45 129.847 2134.4 130.541 Z" fill="#000000" fill-rule="nonzero" fill-opacity="1" /><path clip-path="url(#clip170)" d="M2143.52 129.778 L2165.74 129.778 L2165.74 131.768 L2153.19 164.338 L2148.31 164.338 L2160.11 133.713 L2143.52 133.713 L2143.52 129.778 Z" fill="#000000" fill-rule="nonzero" fill-opacity="1" /><path clip-path="url(#clip170)" d="M2175 163.62 L2175 159.361 Q2176.76 160.194 2178.56 160.634 Q2180.37 161.074 2182.1 161.074 Q2186.73 161.074 2189.16 157.972 Q2191.62 154.847 2191.97 148.504 Q2190.62 150.495 2188.56 151.56 Q2186.5 152.625 2184 152.625 Q2178.82 152.625 2175.78 149.5 Q2172.78 146.352 2172.78 140.912 Q2172.78 135.588 2175.92 132.37 Q2179.07 129.153 2184.3 129.153 Q2190.3 129.153 2193.45 133.759 Q2196.62 138.342 2196.62 147.092 Q2196.62 155.264 2192.73 160.148 Q2188.86 165.009 2182.31 165.009 Q2180.55 165.009 2178.75 164.662 Q2176.94 164.314 2175 163.62 M2184.3 148.967 Q2187.45 148.967 2189.28 146.814 Q2191.13 144.662 2191.13 140.912 Q2191.13 137.185 2189.28 135.032 Q2187.45 132.856 2184.3 132.856 Q2181.16 132.856 2179.3 135.032 Q2177.47 137.185 2177.47 140.912 Q2177.47 144.662 2179.3 146.814 Q2181.16 148.967 2184.3 148.967 Z" fill="#000000" fill-rule="nonzero" fill-opacity="1" /><path clip-path="url(#clip170)" d="M2205.16 163.62 L2205.16 159.361 Q2206.92 160.194 2208.72 160.634 Q2210.53 161.074 2212.27 161.074 Q2216.9 161.074 2219.33 157.972 Q2221.78 154.847 2222.13 148.504 Q2220.78 150.495 2218.72 151.56 Q2216.66 152.625 2214.16 152.625 Q2208.98 152.625 2205.95 149.5 Q2202.94 146.352 2202.94 140.912 Q2202.94 135.588 2206.09 132.37 Q2209.23 129.153 2214.47 129.153 Q2220.46 129.153 2223.61 133.759 Q2226.78 138.342 2226.78 147.092 Q2226.78 155.264 2222.89 160.148 Q2219.03 165.009 2212.47 165.009 Q2210.72 165.009 2208.91 164.662 Q2207.1 164.314 2205.16 163.62 M2214.47 148.967 Q2217.61 148.967 2219.44 146.814 Q2221.29 144.662 2221.29 140.912 Q2221.29 137.185 2219.44 135.032 Q2217.61 132.856 2214.47 132.856 Q2211.32 132.856 2209.47 135.032 Q2207.64 137.185 2207.64 140.912 Q2207.64 144.662 2209.47 146.814 Q2211.32 148.967 2214.47 148.967 Z" fill="#000000" fill-rule="nonzero" fill-opacity="1" /><path clip-path="url(#clip170)" d="M2239.44 147.833 L2239.44 160.495 L2246.94 160.495 Q2250.71 160.495 2252.52 158.944 Q2254.35 157.37 2254.35 154.152 Q2254.35 150.912 2252.52 149.384 Q2250.71 147.833 2246.94 147.833 L2239.44 147.833 M2239.44 133.62 L2239.44 144.037 L2246.36 144.037 Q2249.79 144.037 2251.46 142.764 Q2253.15 141.467 2253.15 138.828 Q2253.15 136.213 2251.46 134.916 Q2249.79 133.62 2246.36 133.62 L2239.44 133.62 M2234.77 129.778 L2246.71 129.778 Q2252.06 129.778 2254.95 132 Q2257.84 134.222 2257.84 138.319 Q2257.84 141.49 2256.36 143.365 Q2254.88 145.24 2252.01 145.703 Q2255.46 146.444 2257.36 148.805 Q2259.28 151.143 2259.28 154.662 Q2259.28 159.291 2256.13 161.814 Q2252.98 164.338 2247.17 164.338 L2234.77 164.338 L2234.77 129.778 Z" fill="#000000" fill-rule="nonzero" fill-opacity="1" /></svg>
