<?xml version="1.0" encoding="utf-8"?>
<svg xmlns="http://www.w3.org/2000/svg" xmlns:xlink="http://www.w3.org/1999/xlink" width="600" height="400" viewBox="0 0 2400 1600">
<defs>
  <clipPath id="clip220">
    <rect x="0" y="0" width="2400" height="1600"/>
  </clipPath>
</defs>
<path clip-path="url(#clip220)" d="M0 1600 L2400 1600 L2400 0 L0 0  Z" fill="#ffffff" fill-rule="evenodd" fill-opacity="1"/>
<defs>
  <clipPath id="clip221">
    <rect x="480" y="0" width="1681" height="1600"/>
  </clipPath>
</defs>
<path clip-path="url(#clip220)" d="M209.029 1486.45 L2352.76 1486.45 L2352.76 47.2441 L209.029 47.2441  Z" fill="#ffffff" fill-rule="evenodd" fill-opacity="1"/>
<defs>
  <clipPath id="clip222">
    <rect x="209" y="47" width="2145" height="1440"/>
  </clipPath>
</defs>
<polyline clip-path="url(#clip222)" style="stroke:#000000; stroke-linecap:round; stroke-linejoin:round; stroke-width:2; stroke-opacity:0.1; fill:none" points="269.7,1486.45 269.7,47.2441 "/>
<polyline clip-path="url(#clip222)" style="stroke:#000000; stroke-linecap:round; stroke-linejoin:round; stroke-width:2; stroke-opacity:0.1; fill:none" points="775.296,1486.45 775.296,47.2441 "/>
<polyline clip-path="url(#clip222)" style="stroke:#000000; stroke-linecap:round; stroke-linejoin:round; stroke-width:2; stroke-opacity:0.1; fill:none" points="1280.89,1486.45 1280.89,47.2441 "/>
<polyline clip-path="url(#clip222)" style="stroke:#000000; stroke-linecap:round; stroke-linejoin:round; stroke-width:2; stroke-opacity:0.1; fill:none" points="1786.49,1486.45 1786.49,47.2441 "/>
<polyline clip-path="url(#clip222)" style="stroke:#000000; stroke-linecap:round; stroke-linejoin:round; stroke-width:2; stroke-opacity:0.1; fill:none" points="2292.08,1486.45 2292.08,47.2441 "/>
<polyline clip-path="url(#clip222)" style="stroke:#000000; stroke-linecap:round; stroke-linejoin:round; stroke-width:2; stroke-opacity:0.1; fill:none" points="209.029,1383.19 2352.76,1383.19 "/>
<polyline clip-path="url(#clip222)" style="stroke:#000000; stroke-linecap:round; stroke-linejoin:round; stroke-width:2; stroke-opacity:0.1; fill:none" points="209.029,1106.92 2352.76,1106.92 "/>
<polyline clip-path="url(#clip222)" style="stroke:#000000; stroke-linecap:round; stroke-linejoin:round; stroke-width:2; stroke-opacity:0.1; fill:none" points="209.029,830.64 2352.76,830.64 "/>
<polyline clip-path="url(#clip222)" style="stroke:#000000; stroke-linecap:round; stroke-linejoin:round; stroke-width:2; stroke-opacity:0.1; fill:none" points="209.029,554.364 2352.76,554.364 "/>
<polyline clip-path="url(#clip222)" style="stroke:#000000; stroke-linecap:round; stroke-linejoin:round; stroke-width:2; stroke-opacity:0.1; fill:none" points="209.029,278.088 2352.76,278.088 "/>
<polyline clip-path="url(#clip220)" style="stroke:#000000; stroke-linecap:round; stroke-linejoin:round; stroke-width:4; stroke-opacity:1; fill:none" points="209.029,1486.45 2352.76,1486.45 "/>
<polyline clip-path="url(#clip220)" style="stroke:#000000; stroke-linecap:round; stroke-linejoin:round; stroke-width:4; stroke-opacity:1; fill:none" points="269.7,1486.45 269.7,1467.55 "/>
<polyline clip-path="url(#clip220)" style="stroke:#000000; stroke-linecap:round; stroke-linejoin:round; stroke-width:4; stroke-opacity:1; fill:none" points="775.296,1486.45 775.296,1467.55 "/>
<polyline clip-path="url(#clip220)" style="stroke:#000000; stroke-linecap:round; stroke-linejoin:round; stroke-width:4; stroke-opacity:1; fill:none" points="1280.89,1486.45 1280.89,1467.55 "/>
<polyline clip-path="url(#clip220)" style="stroke:#000000; stroke-linecap:round; stroke-linejoin:round; stroke-width:4; stroke-opacity:1; fill:none" points="1786.49,1486.45 1786.49,1467.55 "/>
<polyline clip-path="url(#clip220)" style="stroke:#000000; stroke-linecap:round; stroke-linejoin:round; stroke-width:4; stroke-opacity:1; fill:none" points="2292.08,1486.45 2292.08,1467.55 "/>
<path clip-path="url(#clip220)" d="M226.992 1527.9 Q228.589 1525.03 230.811 1523.66 Q233.034 1522.3 236.043 1522.3 Q240.094 1522.3 242.293 1525.14 Q244.492 1527.97 244.492 1533.2 L244.492 1548.85 L240.209 1548.85 L240.209 1533.34 Q240.209 1529.61 238.89 1527.81 Q237.571 1526 234.862 1526 Q231.552 1526 229.631 1528.2 Q227.71 1530.4 227.71 1534.2 L227.71 1548.85 L223.427 1548.85 L223.427 1533.34 Q223.427 1529.59 222.108 1527.81 Q220.788 1526 218.034 1526 Q214.77 1526 212.848 1528.22 Q210.927 1530.42 210.927 1534.2 L210.927 1548.85 L206.645 1548.85 L206.645 1522.92 L210.927 1522.92 L210.927 1526.95 Q212.386 1524.57 214.423 1523.43 Q216.46 1522.3 219.26 1522.3 Q222.085 1522.3 224.052 1523.73 Q226.043 1525.17 226.992 1527.9 Z" fill="#000000" fill-rule="nonzero" fill-opacity="1" /><path clip-path="url(#clip220)" d="M275.163 1534.82 L275.163 1536.9 L255.58 1536.9 Q255.858 1541.3 258.219 1543.62 Q260.603 1545.91 264.839 1545.91 Q267.293 1545.91 269.584 1545.31 Q271.899 1544.7 274.168 1543.5 L274.168 1547.53 Q271.876 1548.5 269.469 1549.01 Q267.061 1549.52 264.584 1549.52 Q258.381 1549.52 254.746 1545.91 Q251.135 1542.3 251.135 1536.14 Q251.135 1529.77 254.561 1526.05 Q258.01 1522.3 263.844 1522.3 Q269.075 1522.3 272.107 1525.68 Q275.163 1529.03 275.163 1534.82 M270.904 1533.57 Q270.857 1530.07 268.936 1527.99 Q267.038 1525.91 263.89 1525.91 Q260.325 1525.91 258.172 1527.92 Q256.043 1529.94 255.719 1533.59 L270.904 1533.57 Z" fill="#000000" fill-rule="nonzero" fill-opacity="1" /><path clip-path="url(#clip220)" d="M293.936 1535.82 Q288.774 1535.82 286.783 1537 Q284.793 1538.18 284.793 1541.02 Q284.793 1543.29 286.274 1544.63 Q287.779 1545.95 290.348 1545.95 Q293.89 1545.95 296.019 1543.45 Q298.172 1540.93 298.172 1536.76 L298.172 1535.82 L293.936 1535.82 M302.431 1534.06 L302.431 1548.85 L298.172 1548.85 L298.172 1544.91 Q296.714 1547.27 294.538 1548.41 Q292.362 1549.52 289.214 1549.52 Q285.232 1549.52 282.871 1547.3 Q280.533 1545.05 280.533 1541.3 Q280.533 1536.93 283.45 1534.7 Q286.39 1532.48 292.2 1532.48 L298.172 1532.48 L298.172 1532.07 Q298.172 1529.13 296.228 1527.53 Q294.306 1525.91 290.811 1525.91 Q288.589 1525.91 286.482 1526.44 Q284.376 1526.97 282.431 1528.04 L282.431 1524.1 Q284.769 1523.2 286.968 1522.76 Q289.168 1522.3 291.251 1522.3 Q296.876 1522.3 299.654 1525.21 Q302.431 1528.13 302.431 1534.06 Z" fill="#000000" fill-rule="nonzero" fill-opacity="1" /><path clip-path="url(#clip220)" d="M332.755 1533.2 L332.755 1548.85 L328.496 1548.85 L328.496 1533.34 Q328.496 1529.66 327.061 1527.83 Q325.626 1526 322.755 1526 Q319.306 1526 317.316 1528.2 Q315.325 1530.4 315.325 1534.2 L315.325 1548.85 L311.042 1548.85 L311.042 1522.92 L315.325 1522.92 L315.325 1526.95 Q316.853 1524.61 318.913 1523.45 Q320.996 1522.3 323.704 1522.3 Q328.172 1522.3 330.464 1525.07 Q332.755 1527.83 332.755 1533.2 Z" fill="#000000" fill-rule="nonzero" fill-opacity="1" /><path clip-path="url(#clip220)" d="M710.956 1527.9 Q712.553 1525.03 714.776 1523.66 Q716.998 1522.3 720.007 1522.3 Q724.058 1522.3 726.257 1525.14 Q728.456 1527.97 728.456 1533.2 L728.456 1548.85 L724.174 1548.85 L724.174 1533.34 Q724.174 1529.61 722.854 1527.81 Q721.535 1526 718.827 1526 Q715.516 1526 713.595 1528.2 Q711.674 1530.4 711.674 1534.2 L711.674 1548.85 L707.391 1548.85 L707.391 1533.34 Q707.391 1529.59 706.072 1527.81 Q704.753 1526 701.998 1526 Q698.734 1526 696.813 1528.22 Q694.891 1530.42 694.891 1534.2 L694.891 1548.85 L690.609 1548.85 L690.609 1522.92 L694.891 1522.92 L694.891 1526.95 Q696.35 1524.57 698.387 1523.43 Q700.424 1522.3 703.225 1522.3 Q706.049 1522.3 708.016 1523.73 Q710.007 1525.17 710.956 1527.9 Z" fill="#000000" fill-rule="nonzero" fill-opacity="1" /><path clip-path="url(#clip220)" d="M759.127 1534.82 L759.127 1536.9 L739.544 1536.9 Q739.822 1541.3 742.183 1543.62 Q744.567 1545.91 748.803 1545.91 Q751.257 1545.91 753.549 1545.31 Q755.863 1544.7 758.132 1543.5 L758.132 1547.53 Q755.84 1548.5 753.433 1549.01 Q751.025 1549.52 748.549 1549.52 Q742.345 1549.52 738.711 1545.91 Q735.1 1542.3 735.1 1536.14 Q735.1 1529.77 738.525 1526.05 Q741.975 1522.3 747.808 1522.3 Q753.039 1522.3 756.072 1525.68 Q759.127 1529.03 759.127 1534.82 M754.868 1533.57 Q754.822 1530.07 752.9 1527.99 Q751.002 1525.91 747.854 1525.91 Q744.289 1525.91 742.137 1527.92 Q740.007 1529.94 739.683 1533.59 L754.868 1533.57 Z" fill="#000000" fill-rule="nonzero" fill-opacity="1" /><path clip-path="url(#clip220)" d="M783.178 1526.86 L783.178 1512.83 L787.437 1512.83 L787.437 1548.85 L783.178 1548.85 L783.178 1544.96 Q781.835 1547.27 779.775 1548.41 Q777.738 1549.52 774.868 1549.52 Q770.169 1549.52 767.206 1545.77 Q764.266 1542.02 764.266 1535.91 Q764.266 1529.8 767.206 1526.05 Q770.169 1522.3 774.868 1522.3 Q777.738 1522.3 779.775 1523.43 Q781.835 1524.54 783.178 1526.86 M768.664 1535.91 Q768.664 1540.61 770.586 1543.29 Q772.53 1545.95 775.91 1545.95 Q779.289 1545.95 781.234 1543.29 Q783.178 1540.61 783.178 1535.91 Q783.178 1531.21 781.234 1528.55 Q779.289 1525.86 775.91 1525.86 Q772.53 1525.86 770.586 1528.55 Q768.664 1531.21 768.664 1535.91 Z" fill="#000000" fill-rule="nonzero" fill-opacity="1" /><path clip-path="url(#clip220)" d="M796.21 1522.92 L800.47 1522.92 L800.47 1548.85 L796.21 1548.85 L796.21 1522.92 M796.21 1512.83 L800.47 1512.83 L800.47 1518.22 L796.21 1518.22 L796.21 1512.83 Z" fill="#000000" fill-rule="nonzero" fill-opacity="1" /><path clip-path="url(#clip220)" d="M821.164 1535.82 Q816.002 1535.82 814.011 1537 Q812.02 1538.18 812.02 1541.02 Q812.02 1543.29 813.502 1544.63 Q815.007 1545.95 817.576 1545.95 Q821.118 1545.95 823.247 1543.45 Q825.4 1540.93 825.4 1536.76 L825.4 1535.82 L821.164 1535.82 M829.659 1534.06 L829.659 1548.85 L825.4 1548.85 L825.4 1544.91 Q823.942 1547.27 821.766 1548.41 Q819.59 1549.52 816.442 1549.52 Q812.46 1549.52 810.099 1547.3 Q807.761 1545.05 807.761 1541.3 Q807.761 1536.93 810.678 1534.7 Q813.618 1532.48 819.428 1532.48 L825.4 1532.48 L825.4 1532.07 Q825.4 1529.13 823.456 1527.53 Q821.534 1525.91 818.039 1525.91 Q815.817 1525.91 813.71 1526.44 Q811.604 1526.97 809.659 1528.04 L809.659 1524.1 Q811.997 1523.2 814.196 1522.76 Q816.395 1522.3 818.479 1522.3 Q824.104 1522.3 826.881 1525.21 Q829.659 1528.13 829.659 1534.06 Z" fill="#000000" fill-rule="nonzero" fill-opacity="1" /><path clip-path="url(#clip220)" d="M859.983 1533.2 L859.983 1548.85 L855.724 1548.85 L855.724 1533.34 Q855.724 1529.66 854.289 1527.83 Q852.854 1526 849.983 1526 Q846.534 1526 844.543 1528.2 Q842.553 1530.4 842.553 1534.2 L842.553 1548.85 L838.27 1548.85 L838.27 1522.92 L842.553 1522.92 L842.553 1526.95 Q844.08 1524.61 846.141 1523.45 Q848.224 1522.3 850.932 1522.3 Q855.4 1522.3 857.692 1525.07 Q859.983 1527.83 859.983 1533.2 Z" fill="#000000" fill-rule="nonzero" fill-opacity="1" /><path clip-path="url(#clip220)" d="M1106.02 1523.69 L1106.02 1527.71 Q1104.21 1526.79 1102.27 1526.32 Q1100.33 1525.86 1098.24 1525.86 Q1095.07 1525.86 1093.47 1526.83 Q1091.9 1527.81 1091.9 1529.75 Q1091.9 1531.23 1093.03 1532.09 Q1094.17 1532.92 1097.59 1533.69 L1099.05 1534.01 Q1103.59 1534.98 1105.49 1536.76 Q1107.41 1538.52 1107.41 1541.7 Q1107.41 1545.31 1104.54 1547.41 Q1101.69 1549.52 1096.69 1549.52 Q1094.61 1549.52 1092.34 1549.1 Q1090.09 1548.71 1087.59 1547.9 L1087.59 1543.5 Q1089.96 1544.73 1092.25 1545.35 Q1094.54 1545.95 1096.78 1545.95 Q1099.79 1545.95 1101.41 1544.94 Q1103.03 1543.89 1103.03 1542.02 Q1103.03 1540.28 1101.85 1539.36 Q1100.7 1538.43 1096.74 1537.57 L1095.26 1537.23 Q1091.3 1536.39 1089.54 1534.68 Q1087.78 1532.95 1087.78 1529.94 Q1087.78 1526.28 1090.37 1524.29 Q1092.96 1522.3 1097.73 1522.3 Q1100.09 1522.3 1102.18 1522.64 Q1104.26 1522.99 1106.02 1523.69 Z" fill="#000000" fill-rule="nonzero" fill-opacity="1" /><path clip-path="url(#clip220)" d="M1124.24 1525.91 Q1120.81 1525.91 1118.82 1528.59 Q1116.83 1531.26 1116.83 1535.91 Q1116.83 1540.56 1118.8 1543.25 Q1120.79 1545.91 1124.24 1545.91 Q1127.64 1545.91 1129.63 1543.22 Q1131.62 1540.54 1131.62 1535.91 Q1131.62 1531.3 1129.63 1528.62 Q1127.64 1525.91 1124.24 1525.91 M1124.24 1522.3 Q1129.79 1522.3 1132.96 1525.91 Q1136.14 1529.52 1136.14 1535.91 Q1136.14 1542.27 1132.96 1545.91 Q1129.79 1549.52 1124.24 1549.52 Q1118.66 1549.52 1115.49 1545.91 Q1112.34 1542.27 1112.34 1535.91 Q1112.34 1529.52 1115.49 1525.91 Q1118.66 1522.3 1124.24 1522.3 Z" fill="#000000" fill-rule="nonzero" fill-opacity="1" /><path clip-path="url(#clip220)" d="M1142.76 1538.62 L1142.76 1522.92 L1147.02 1522.92 L1147.02 1538.45 Q1147.02 1542.13 1148.45 1543.99 Q1149.89 1545.82 1152.76 1545.82 Q1156.21 1545.82 1158.2 1543.62 Q1160.21 1541.42 1160.21 1537.62 L1160.21 1522.92 L1164.47 1522.92 L1164.47 1548.85 L1160.21 1548.85 L1160.21 1544.87 Q1158.66 1547.23 1156.6 1548.38 Q1154.56 1549.52 1151.85 1549.52 Q1147.39 1549.52 1145.07 1546.74 Q1142.76 1543.96 1142.76 1538.62 M1153.47 1522.3 L1153.47 1522.3 Z" fill="#000000" fill-rule="nonzero" fill-opacity="1" /><path clip-path="url(#clip220)" d="M1188.27 1526.9 Q1187.55 1526.49 1186.69 1526.3 Q1185.86 1526.09 1184.84 1526.09 Q1181.23 1526.09 1179.28 1528.45 Q1177.36 1530.79 1177.36 1535.19 L1177.36 1548.85 L1173.08 1548.85 L1173.08 1522.92 L1177.36 1522.92 L1177.36 1526.95 Q1178.71 1524.59 1180.86 1523.45 Q1183.01 1522.3 1186.09 1522.3 Q1186.53 1522.3 1187.06 1522.37 Q1187.59 1522.41 1188.24 1522.53 L1188.27 1526.9 Z" fill="#000000" fill-rule="nonzero" fill-opacity="1" /><path clip-path="url(#clip220)" d="M1210.35 1523.92 L1210.35 1527.9 Q1208.54 1526.9 1206.71 1526.42 Q1204.91 1525.91 1203.06 1525.91 Q1198.91 1525.91 1196.62 1528.55 Q1194.33 1531.16 1194.33 1535.91 Q1194.33 1540.65 1196.62 1543.29 Q1198.91 1545.91 1203.06 1545.91 Q1204.91 1545.91 1206.71 1545.42 Q1208.54 1544.91 1210.35 1543.92 L1210.35 1547.85 Q1208.57 1548.69 1206.64 1549.1 Q1204.75 1549.52 1202.59 1549.52 Q1196.74 1549.52 1193.29 1545.84 Q1189.84 1542.16 1189.84 1535.91 Q1189.84 1529.57 1193.31 1525.93 Q1196.81 1522.3 1202.87 1522.3 Q1204.84 1522.3 1206.71 1522.71 Q1208.59 1523.11 1210.35 1523.92 Z" fill="#000000" fill-rule="nonzero" fill-opacity="1" /><path clip-path="url(#clip220)" d="M1239.93 1534.82 L1239.93 1536.9 L1220.35 1536.9 Q1220.63 1541.3 1222.99 1543.62 Q1225.37 1545.91 1229.61 1545.91 Q1232.06 1545.91 1234.35 1545.31 Q1236.67 1544.7 1238.94 1543.5 L1238.94 1547.53 Q1236.64 1548.5 1234.24 1549.01 Q1231.83 1549.52 1229.35 1549.52 Q1223.15 1549.52 1219.52 1545.91 Q1215.9 1542.3 1215.9 1536.14 Q1215.9 1529.77 1219.33 1526.05 Q1222.78 1522.3 1228.61 1522.3 Q1233.84 1522.3 1236.88 1525.68 Q1239.93 1529.03 1239.93 1534.82 M1235.67 1533.57 Q1235.63 1530.07 1233.7 1527.99 Q1231.81 1525.91 1228.66 1525.91 Q1225.09 1525.91 1222.94 1527.92 Q1220.81 1529.94 1220.49 1533.59 L1235.67 1533.57 Z" fill="#000000" fill-rule="nonzero" fill-opacity="1" /><path clip-path="url(#clip220)" d="M1284.17 1534.82 L1284.17 1536.9 L1264.58 1536.9 Q1264.86 1541.3 1267.22 1543.62 Q1269.61 1545.91 1273.84 1545.91 Q1276.3 1545.91 1278.59 1545.31 Q1280.9 1544.7 1283.17 1543.5 L1283.17 1547.53 Q1280.88 1548.5 1278.47 1549.01 Q1276.07 1549.52 1273.59 1549.52 Q1267.39 1549.52 1263.75 1545.91 Q1260.14 1542.3 1260.14 1536.14 Q1260.14 1529.77 1263.57 1526.05 Q1267.01 1522.3 1272.85 1522.3 Q1278.08 1522.3 1281.11 1525.68 Q1284.17 1529.03 1284.17 1534.82 M1279.91 1533.57 Q1279.86 1530.07 1277.94 1527.99 Q1276.04 1525.91 1272.89 1525.91 Q1269.33 1525.91 1267.18 1527.92 Q1265.05 1529.94 1264.72 1533.59 L1279.91 1533.57 Z" fill="#000000" fill-rule="nonzero" fill-opacity="1" /><path clip-path="url(#clip220)" d="M1311.88 1522.92 L1302.5 1535.54 L1312.36 1548.85 L1307.34 1548.85 L1299.79 1538.66 L1292.25 1548.85 L1287.22 1548.85 L1297.29 1535.28 L1288.08 1522.92 L1293.1 1522.92 L1299.98 1532.16 L1306.85 1522.92 L1311.88 1522.92 Z" fill="#000000" fill-rule="nonzero" fill-opacity="1" /><path clip-path="url(#clip220)" d="M1322.59 1515.56 L1322.59 1522.92 L1331.37 1522.92 L1331.37 1526.23 L1322.59 1526.23 L1322.59 1540.31 Q1322.59 1543.48 1323.45 1544.38 Q1324.33 1545.28 1326.99 1545.28 L1331.37 1545.28 L1331.37 1548.85 L1326.99 1548.85 Q1322.06 1548.85 1320.19 1547.02 Q1318.31 1545.17 1318.31 1540.31 L1318.31 1526.23 L1315.19 1526.23 L1315.19 1522.92 L1318.31 1522.92 L1318.31 1515.56 L1322.59 1515.56 Z" fill="#000000" fill-rule="nonzero" fill-opacity="1" /><path clip-path="url(#clip220)" d="M1351.99 1526.9 Q1351.27 1526.49 1350.42 1526.3 Q1349.58 1526.09 1348.57 1526.09 Q1344.95 1526.09 1343.01 1528.45 Q1341.09 1530.79 1341.09 1535.19 L1341.09 1548.85 L1336.81 1548.85 L1336.81 1522.92 L1341.09 1522.92 L1341.09 1526.95 Q1342.43 1524.59 1344.58 1523.45 Q1346.74 1522.3 1349.82 1522.3 Q1350.26 1522.3 1350.79 1522.37 Q1351.32 1522.41 1351.97 1522.53 L1351.99 1526.9 Z" fill="#000000" fill-rule="nonzero" fill-opacity="1" /><path clip-path="url(#clip220)" d="M1368.24 1535.82 Q1363.08 1535.82 1361.09 1537 Q1359.1 1538.18 1359.1 1541.02 Q1359.1 1543.29 1360.58 1544.63 Q1362.08 1545.95 1364.65 1545.95 Q1368.19 1545.95 1370.32 1543.45 Q1372.48 1540.93 1372.48 1536.76 L1372.48 1535.82 L1368.24 1535.82 M1376.74 1534.06 L1376.74 1548.85 L1372.48 1548.85 L1372.48 1544.91 Q1371.02 1547.27 1368.84 1548.41 Q1366.67 1549.52 1363.52 1549.52 Q1359.54 1549.52 1357.18 1547.3 Q1354.84 1545.05 1354.84 1541.3 Q1354.84 1536.93 1357.76 1534.7 Q1360.7 1532.48 1366.51 1532.48 L1372.48 1532.48 L1372.48 1532.07 Q1372.48 1529.13 1370.53 1527.53 Q1368.61 1525.91 1365.12 1525.91 Q1362.89 1525.91 1360.79 1526.44 Q1358.68 1526.97 1356.74 1528.04 L1356.74 1524.1 Q1359.07 1523.2 1361.27 1522.76 Q1363.47 1522.3 1365.56 1522.3 Q1371.18 1522.3 1373.96 1525.21 Q1376.74 1528.13 1376.74 1534.06 Z" fill="#000000" fill-rule="nonzero" fill-opacity="1" /><path clip-path="url(#clip220)" d="M1404.17 1523.92 L1404.17 1527.9 Q1402.36 1526.9 1400.53 1526.42 Q1398.73 1525.91 1396.88 1525.91 Q1392.73 1525.91 1390.44 1528.55 Q1388.15 1531.16 1388.15 1535.91 Q1388.15 1540.65 1390.44 1543.29 Q1392.73 1545.91 1396.88 1545.91 Q1398.73 1545.91 1400.53 1545.42 Q1402.36 1544.91 1404.17 1543.92 L1404.17 1547.85 Q1402.38 1548.69 1400.46 1549.1 Q1398.57 1549.52 1396.41 1549.52 Q1390.56 1549.52 1387.11 1545.84 Q1383.66 1542.16 1383.66 1535.91 Q1383.66 1529.57 1387.13 1525.93 Q1390.63 1522.3 1396.69 1522.3 Q1398.66 1522.3 1400.53 1522.71 Q1402.41 1523.11 1404.17 1523.92 Z" fill="#000000" fill-rule="nonzero" fill-opacity="1" /><path clip-path="url(#clip220)" d="M1415.79 1515.56 L1415.79 1522.92 L1424.56 1522.92 L1424.56 1526.23 L1415.79 1526.23 L1415.79 1540.31 Q1415.79 1543.48 1416.64 1544.38 Q1417.52 1545.28 1420.19 1545.28 L1424.56 1545.28 L1424.56 1548.85 L1420.19 1548.85 Q1415.25 1548.85 1413.38 1547.02 Q1411.5 1545.17 1411.5 1540.31 L1411.5 1526.23 L1408.38 1526.23 L1408.38 1522.92 L1411.5 1522.92 L1411.5 1515.56 L1415.79 1515.56 Z" fill="#000000" fill-rule="nonzero" fill-opacity="1" /><path clip-path="url(#clip220)" d="M1440.21 1525.91 Q1436.78 1525.91 1434.79 1528.59 Q1432.8 1531.26 1432.8 1535.91 Q1432.8 1540.56 1434.77 1543.25 Q1436.76 1545.91 1440.21 1545.91 Q1443.61 1545.91 1445.6 1543.22 Q1447.59 1540.54 1447.59 1535.91 Q1447.59 1531.3 1445.6 1528.62 Q1443.61 1525.91 1440.21 1525.91 M1440.21 1522.3 Q1445.76 1522.3 1448.94 1525.91 Q1452.11 1529.52 1452.11 1535.91 Q1452.11 1542.27 1448.94 1545.91 Q1445.76 1549.52 1440.21 1549.52 Q1434.63 1549.52 1431.46 1545.91 Q1428.31 1542.27 1428.31 1535.91 Q1428.31 1529.52 1431.46 1525.91 Q1434.63 1522.3 1440.21 1522.3 Z" fill="#000000" fill-rule="nonzero" fill-opacity="1" /><path clip-path="url(#clip220)" d="M1474.19 1526.9 Q1473.47 1526.49 1472.62 1526.3 Q1471.78 1526.09 1470.76 1526.09 Q1467.15 1526.09 1465.21 1528.45 Q1463.29 1530.79 1463.29 1535.19 L1463.29 1548.85 L1459 1548.85 L1459 1522.92 L1463.29 1522.92 L1463.29 1526.95 Q1464.63 1524.59 1466.78 1523.45 Q1468.94 1522.3 1472.01 1522.3 Q1472.45 1522.3 1472.99 1522.37 Q1473.52 1522.41 1474.17 1522.53 L1474.19 1526.9 Z" fill="#000000" fill-rule="nonzero" fill-opacity="1" /><path clip-path="url(#clip220)" d="M1729.78 1514.29 L1736.74 1514.29 L1745.56 1537.81 L1754.43 1514.29 L1761.4 1514.29 L1761.4 1548.85 L1756.84 1548.85 L1756.84 1518.5 L1747.92 1542.2 L1743.22 1542.2 L1734.31 1518.5 L1734.31 1548.85 L1729.78 1548.85 L1729.78 1514.29 Z" fill="#000000" fill-rule="nonzero" fill-opacity="1" /><path clip-path="url(#clip220)" d="M1770.68 1514.29 L1777.65 1514.29 L1786.47 1537.81 L1795.33 1514.29 L1802.3 1514.29 L1802.3 1548.85 L1797.74 1548.85 L1797.74 1518.5 L1788.83 1542.2 L1784.13 1542.2 L1775.22 1518.5 L1775.22 1548.85 L1770.68 1548.85 L1770.68 1514.29 Z" fill="#000000" fill-rule="nonzero" fill-opacity="1" /><path clip-path="url(#clip220)" d="M1811.58 1514.29 L1818.55 1514.29 L1827.37 1537.81 L1836.23 1514.29 L1843.2 1514.29 L1843.2 1548.85 L1838.64 1548.85 L1838.64 1518.5 L1829.73 1542.2 L1825.03 1542.2 L1816.12 1518.5 L1816.12 1548.85 L1811.58 1548.85 L1811.58 1514.29 Z" fill="#000000" fill-rule="nonzero" fill-opacity="1" /><path clip-path="url(#clip220)" d="M2111.89 1535.91 Q2111.89 1531.21 2109.94 1528.55 Q2108.02 1525.86 2104.64 1525.86 Q2101.26 1525.86 2099.32 1528.55 Q2097.4 1531.21 2097.4 1535.91 Q2097.4 1540.61 2099.32 1543.29 Q2101.26 1545.95 2104.64 1545.95 Q2108.02 1545.95 2109.94 1543.29 Q2111.89 1540.61 2111.89 1535.91 M2097.4 1526.86 Q2098.74 1524.54 2100.78 1523.43 Q2102.84 1522.3 2105.68 1522.3 Q2110.41 1522.3 2113.35 1526.05 Q2116.31 1529.8 2116.31 1535.91 Q2116.31 1542.02 2113.35 1545.77 Q2110.41 1549.52 2105.68 1549.52 Q2102.84 1549.52 2100.78 1548.41 Q2098.74 1547.27 2097.4 1544.96 L2097.4 1548.85 L2093.12 1548.85 L2093.12 1512.83 L2097.4 1512.83 L2097.4 1526.86 Z" fill="#000000" fill-rule="nonzero" fill-opacity="1" /><path clip-path="url(#clip220)" d="M2123.37 1522.92 L2127.63 1522.92 L2127.63 1548.85 L2123.37 1548.85 L2123.37 1522.92 M2123.37 1512.83 L2127.63 1512.83 L2127.63 1518.22 L2123.37 1518.22 L2123.37 1512.83 Z" fill="#000000" fill-rule="nonzero" fill-opacity="1" /><path clip-path="url(#clip220)" d="M2134.06 1522.92 L2138.32 1522.92 L2143.65 1543.15 L2148.95 1522.92 L2153.97 1522.92 L2159.3 1543.15 L2164.6 1522.92 L2168.86 1522.92 L2162.07 1548.85 L2157.05 1548.85 L2151.47 1527.6 L2145.87 1548.85 L2140.85 1548.85 L2134.06 1522.92 Z" fill="#000000" fill-rule="nonzero" fill-opacity="1" /><path clip-path="url(#clip220)" d="M2197.49 1534.82 L2197.49 1536.9 L2177.91 1536.9 Q2178.18 1541.3 2180.55 1543.62 Q2182.93 1545.91 2187.17 1545.91 Q2189.62 1545.91 2191.91 1545.31 Q2194.23 1544.7 2196.49 1543.5 L2196.49 1547.53 Q2194.2 1548.5 2191.8 1549.01 Q2189.39 1549.52 2186.91 1549.52 Q2180.71 1549.52 2177.07 1545.91 Q2173.46 1542.3 2173.46 1536.14 Q2173.46 1529.77 2176.89 1526.05 Q2180.34 1522.3 2186.17 1522.3 Q2191.4 1522.3 2194.43 1525.68 Q2197.49 1529.03 2197.49 1534.82 M2193.23 1533.57 Q2193.18 1530.07 2191.26 1527.99 Q2189.37 1525.91 2186.22 1525.91 Q2182.65 1525.91 2180.5 1527.92 Q2178.37 1529.94 2178.05 1533.59 L2193.23 1533.57 Z" fill="#000000" fill-rule="nonzero" fill-opacity="1" /><path clip-path="url(#clip220)" d="M2204.48 1522.92 L2208.74 1522.92 L2208.74 1548.85 L2204.48 1548.85 L2204.48 1522.92 M2204.48 1512.83 L2208.74 1512.83 L2208.74 1518.22 L2204.48 1518.22 L2204.48 1512.83 Z" fill="#000000" fill-rule="nonzero" fill-opacity="1" /><path clip-path="url(#clip220)" d="M2234.71 1535.58 Q2234.71 1530.95 2232.79 1528.41 Q2230.89 1525.86 2227.44 1525.86 Q2224.02 1525.86 2222.1 1528.41 Q2220.2 1530.95 2220.2 1535.58 Q2220.2 1540.19 2222.1 1542.74 Q2224.02 1545.28 2227.44 1545.28 Q2230.89 1545.28 2232.79 1542.74 Q2234.71 1540.19 2234.71 1535.58 M2238.97 1545.63 Q2238.97 1552.25 2236.03 1555.47 Q2233.09 1558.71 2227.03 1558.71 Q2224.78 1558.71 2222.79 1558.36 Q2220.8 1558.04 2218.93 1557.34 L2218.93 1553.2 Q2220.8 1554.22 2222.63 1554.7 Q2224.46 1555.19 2226.36 1555.19 Q2230.55 1555.19 2232.63 1552.99 Q2234.71 1550.82 2234.71 1546.39 L2234.71 1544.29 Q2233.39 1546.58 2231.33 1547.71 Q2229.27 1548.85 2226.4 1548.85 Q2221.63 1548.85 2218.72 1545.21 Q2215.8 1541.58 2215.8 1535.58 Q2215.8 1529.57 2218.72 1525.93 Q2221.63 1522.3 2226.4 1522.3 Q2229.27 1522.3 2231.33 1523.43 Q2233.39 1524.57 2234.71 1526.86 L2234.71 1522.92 L2238.97 1522.92 L2238.97 1545.63 Z" fill="#000000" fill-rule="nonzero" fill-opacity="1" /><path clip-path="url(#clip220)" d="M2269.3 1533.2 L2269.3 1548.85 L2265.04 1548.85 L2265.04 1533.34 Q2265.04 1529.66 2263.6 1527.83 Q2262.17 1526 2259.3 1526 Q2255.85 1526 2253.86 1528.2 Q2251.86 1530.4 2251.86 1534.2 L2251.86 1548.85 L2247.58 1548.85 L2247.58 1512.83 L2251.86 1512.83 L2251.86 1526.95 Q2253.39 1524.61 2255.45 1523.45 Q2257.54 1522.3 2260.24 1522.3 Q2264.71 1522.3 2267 1525.07 Q2269.3 1527.83 2269.3 1533.2 Z" fill="#000000" fill-rule="nonzero" fill-opacity="1" /><path clip-path="url(#clip220)" d="M2282 1515.56 L2282 1522.92 L2290.78 1522.92 L2290.78 1526.23 L2282 1526.23 L2282 1540.31 Q2282 1543.48 2282.86 1544.38 Q2283.74 1545.28 2286.4 1545.28 L2290.78 1545.28 L2290.78 1548.85 L2286.4 1548.85 Q2281.47 1548.85 2279.6 1547.02 Q2277.72 1545.17 2277.72 1540.31 L2277.72 1526.23 L2274.6 1526.23 L2274.6 1522.92 L2277.72 1522.92 L2277.72 1515.56 L2282 1515.56 Z" fill="#000000" fill-rule="nonzero" fill-opacity="1" /><path clip-path="url(#clip220)" d="M2311.45 1512.83 L2315.71 1512.83 L2315.71 1548.85 L2311.45 1548.85 L2311.45 1512.83 Z" fill="#000000" fill-rule="nonzero" fill-opacity="1" /><path clip-path="url(#clip220)" d="M2334.67 1525.91 Q2331.24 1525.91 2329.25 1528.59 Q2327.26 1531.26 2327.26 1535.91 Q2327.26 1540.56 2329.23 1543.25 Q2331.22 1545.91 2334.67 1545.91 Q2338.07 1545.91 2340.06 1543.22 Q2342.05 1540.54 2342.05 1535.91 Q2342.05 1531.3 2340.06 1528.62 Q2338.07 1525.91 2334.67 1525.91 M2334.67 1522.3 Q2340.22 1522.3 2343.39 1525.91 Q2346.56 1529.52 2346.56 1535.91 Q2346.56 1542.27 2343.39 1545.91 Q2340.22 1549.52 2334.67 1549.52 Q2329.09 1549.52 2325.92 1545.91 Q2322.77 1542.27 2322.77 1535.91 Q2322.77 1529.52 2325.92 1525.91 Q2329.09 1522.3 2334.67 1522.3 Z" fill="#000000" fill-rule="nonzero" fill-opacity="1" /><path clip-path="url(#clip220)" d="M2372.28 1523.92 L2372.28 1527.9 Q2370.48 1526.9 2368.65 1526.42 Q2366.84 1525.91 2364.99 1525.91 Q2360.85 1525.91 2358.55 1528.55 Q2356.26 1531.16 2356.26 1535.91 Q2356.26 1540.65 2358.55 1543.29 Q2360.85 1545.91 2364.99 1545.91 Q2366.84 1545.91 2368.65 1545.42 Q2370.48 1544.91 2372.28 1543.92 L2372.28 1547.85 Q2370.5 1548.69 2368.58 1549.1 Q2366.68 1549.52 2364.53 1549.52 Q2358.67 1549.52 2355.22 1545.84 Q2351.77 1542.16 2351.77 1535.91 Q2351.77 1529.57 2355.24 1525.93 Q2358.74 1522.3 2364.8 1522.3 Q2366.77 1522.3 2368.65 1522.71 Q2370.52 1523.11 2372.28 1523.92 Z" fill="#000000" fill-rule="nonzero" fill-opacity="1" /><path clip-path="url(#clip220)" d="M2391.47 1535.82 Q2386.31 1535.82 2384.32 1537 Q2382.33 1538.18 2382.33 1541.02 Q2382.33 1543.29 2383.81 1544.63 Q2385.31 1545.95 2387.88 1545.95 Q2391.42 1545.95 2393.55 1543.45 Q2395.71 1540.93 2395.71 1536.76 L2395.71 1535.82 L2391.47 1535.82 M2399.97 1534.06 L2399.97 1548.85 L2395.71 1548.85 L2395.71 1544.91 Q2394.25 1547.27 2392.07 1548.41 Q2389.9 1549.52 2386.75 1549.52 Q2382.77 1549.52 2380.41 1547.3 Q2378.07 1545.05 2378.07 1541.3 Q2378.07 1536.93 2380.98 1534.7 Q2383.92 1532.48 2389.73 1532.48 L2395.71 1532.48 L2395.71 1532.07 Q2395.71 1529.13 2393.76 1527.53 Q2391.84 1525.91 2388.35 1525.91 Q2386.12 1525.91 2384.02 1526.44 Q2381.91 1526.97 2379.97 1528.04 L2379.97 1524.1 Q2382.3 1523.2 2384.5 1522.76 Q2386.7 1522.3 2388.79 1522.3 Q2394.41 1522.3 2397.19 1525.21 Q2399.97 1528.13 2399.97 1534.06 Z" fill="#000000" fill-rule="nonzero" fill-opacity="1" /><path clip-path="url(#clip220)" d="M2412.95 1515.56 L2412.95 1522.92 L2421.72 1522.92 L2421.72 1526.23 L2412.95 1526.23 L2412.95 1540.31 Q2412.95 1543.48 2413.81 1544.38 Q2414.69 1545.28 2417.35 1545.28 L2421.72 1545.28 L2421.72 1548.85 L2417.35 1548.85 Q2412.42 1548.85 2410.54 1547.02 Q2408.67 1545.17 2408.67 1540.31 L2408.67 1526.23 L2405.54 1526.23 L2405.54 1522.92 L2408.67 1522.92 L2408.67 1515.56 L2412.95 1515.56 Z" fill="#000000" fill-rule="nonzero" fill-opacity="1" /><path clip-path="url(#clip220)" d="M2427.33 1522.92 L2431.59 1522.92 L2431.59 1548.85 L2427.33 1548.85 L2427.33 1522.92 M2427.33 1512.83 L2431.59 1512.83 L2431.59 1518.22 L2427.33 1518.22 L2427.33 1512.83 Z" fill="#000000" fill-rule="nonzero" fill-opacity="1" /><path clip-path="url(#clip220)" d="M2450.54 1525.91 Q2447.12 1525.91 2445.13 1528.59 Q2443.14 1531.26 2443.14 1535.91 Q2443.14 1540.56 2445.1 1543.25 Q2447.1 1545.91 2450.54 1545.91 Q2453.95 1545.91 2455.94 1543.22 Q2457.93 1540.54 2457.93 1535.91 Q2457.93 1531.3 2455.94 1528.62 Q2453.95 1525.91 2450.54 1525.91 M2450.54 1522.3 Q2456.1 1522.3 2459.27 1525.91 Q2462.44 1529.52 2462.44 1535.91 Q2462.44 1542.27 2459.27 1545.91 Q2456.1 1549.52 2450.54 1549.52 Q2444.97 1549.52 2441.79 1545.91 Q2438.65 1542.27 2438.65 1535.91 Q2438.65 1529.52 2441.79 1525.91 Q2444.97 1522.3 2450.54 1522.3 Z" fill="#000000" fill-rule="nonzero" fill-opacity="1" /><path clip-path="url(#clip220)" d="M2491.05 1533.2 L2491.05 1548.85 L2486.79 1548.85 L2486.79 1533.34 Q2486.79 1529.66 2485.36 1527.83 Q2483.92 1526 2481.05 1526 Q2477.6 1526 2475.61 1528.2 Q2473.62 1530.4 2473.62 1534.2 L2473.62 1548.85 L2469.34 1548.85 L2469.34 1522.92 L2473.62 1522.92 L2473.62 1526.95 Q2475.15 1524.61 2477.21 1523.45 Q2479.29 1522.3 2482 1522.3 Q2486.47 1522.3 2488.76 1525.07 Q2491.05 1527.83 2491.05 1533.2 Z" fill="#000000" fill-rule="nonzero" fill-opacity="1" /><polyline clip-path="url(#clip220)" style="stroke:#000000; stroke-linecap:round; stroke-linejoin:round; stroke-width:4; stroke-opacity:1; fill:none" points="209.029,1486.45 209.029,47.2441 "/>
<polyline clip-path="url(#clip220)" style="stroke:#000000; stroke-linecap:round; stroke-linejoin:round; stroke-width:4; stroke-opacity:1; fill:none" points="209.029,1383.19 227.926,1383.19 "/>
<polyline clip-path="url(#clip220)" style="stroke:#000000; stroke-linecap:round; stroke-linejoin:round; stroke-width:4; stroke-opacity:1; fill:none" points="209.029,1106.92 227.926,1106.92 "/>
<polyline clip-path="url(#clip220)" style="stroke:#000000; stroke-linecap:round; stroke-linejoin:round; stroke-width:4; stroke-opacity:1; fill:none" points="209.029,830.64 227.926,830.64 "/>
<polyline clip-path="url(#clip220)" style="stroke:#000000; stroke-linecap:round; stroke-linejoin:round; stroke-width:4; stroke-opacity:1; fill:none" points="209.029,554.364 227.926,554.364 "/>
<polyline clip-path="url(#clip220)" style="stroke:#000000; stroke-linecap:round; stroke-linejoin:round; stroke-width:4; stroke-opacity:1; fill:none" points="209.029,278.088 227.926,278.088 "/>
<path clip-path="url(#clip220)" d="M50.9921 1383.64 L80.6679 1383.64 L80.6679 1387.58 L50.9921 1387.58 L50.9921 1383.64 Z" fill="#000000" fill-rule="nonzero" fill-opacity="1" /><path clip-path="url(#clip220)" d="M101.339 1381.33 Q98.1909 1381.33 96.3391 1383.48 Q94.5104 1385.63 94.5104 1389.38 Q94.5104 1393.11 96.3391 1395.29 Q98.1909 1397.44 101.339 1397.44 Q104.487 1397.44 106.316 1395.29 Q108.168 1393.11 108.168 1389.38 Q108.168 1385.63 106.316 1383.48 Q104.487 1381.33 101.339 1381.33 M110.621 1366.68 L110.621 1370.93 Q108.862 1370.1 107.057 1369.66 Q105.274 1369.22 103.515 1369.22 Q98.8854 1369.22 96.4317 1372.35 Q94.0012 1375.47 93.6539 1381.79 Q95.0197 1379.78 97.0798 1378.71 Q99.14 1377.62 101.617 1377.62 Q106.825 1377.62 109.834 1380.8 Q112.867 1383.94 112.867 1389.38 Q112.867 1394.71 109.719 1397.93 Q106.571 1401.14 101.339 1401.14 Q95.3437 1401.14 92.1725 1396.56 Q89.0012 1391.95 89.0012 1383.23 Q89.0012 1375.03 92.89 1370.17 Q96.7789 1365.29 103.33 1365.29 Q105.089 1365.29 106.871 1365.63 Q108.677 1365.98 110.621 1366.68 Z" fill="#000000" fill-rule="nonzero" fill-opacity="1" /><path clip-path="url(#clip220)" d="M130.922 1368.99 Q127.311 1368.99 125.482 1372.55 Q123.677 1376.1 123.677 1383.23 Q123.677 1390.33 125.482 1393.9 Q127.311 1397.44 130.922 1397.44 Q134.556 1397.44 136.362 1393.9 Q138.191 1390.33 138.191 1383.23 Q138.191 1376.1 136.362 1372.55 Q134.556 1368.99 130.922 1368.99 M130.922 1365.29 Q136.732 1365.29 139.788 1369.89 Q142.867 1374.48 142.867 1383.23 Q142.867 1391.95 139.788 1396.56 Q136.732 1401.14 130.922 1401.14 Q125.112 1401.14 122.033 1396.56 Q118.978 1391.95 118.978 1383.23 Q118.978 1374.48 122.033 1369.89 Q125.112 1365.29 130.922 1365.29 Z" fill="#000000" fill-rule="nonzero" fill-opacity="1" /><path clip-path="url(#clip220)" d="M161.084 1368.99 Q157.473 1368.99 155.644 1372.55 Q153.839 1376.1 153.839 1383.23 Q153.839 1390.33 155.644 1393.9 Q157.473 1397.44 161.084 1397.44 Q164.718 1397.44 166.524 1393.9 Q168.353 1390.33 168.353 1383.23 Q168.353 1376.1 166.524 1372.55 Q164.718 1368.99 161.084 1368.99 M161.084 1365.29 Q166.894 1365.29 169.95 1369.89 Q173.029 1374.48 173.029 1383.23 Q173.029 1391.95 169.95 1396.56 Q166.894 1401.14 161.084 1401.14 Q155.274 1401.14 152.195 1396.56 Q149.14 1391.95 149.14 1383.23 Q149.14 1374.48 152.195 1369.89 Q155.274 1365.29 161.084 1365.29 Z" fill="#000000" fill-rule="nonzero" fill-opacity="1" /><path clip-path="url(#clip220)" d="M50.9921 1107.37 L80.6679 1107.37 L80.6679 1111.3 L50.9921 1111.3 L50.9921 1107.37 Z" fill="#000000" fill-rule="nonzero" fill-opacity="1" /><path clip-path="url(#clip220)" d="M103.608 1093.71 L91.8021 1112.16 L103.608 1112.16 L103.608 1093.71 M102.381 1089.64 L108.26 1089.64 L108.26 1112.16 L113.191 1112.16 L113.191 1116.05 L108.26 1116.05 L108.26 1124.2 L103.608 1124.2 L103.608 1116.05 L88.0058 1116.05 L88.0058 1111.53 L102.381 1089.64 Z" fill="#000000" fill-rule="nonzero" fill-opacity="1" /><path clip-path="url(#clip220)" d="M130.922 1092.71 Q127.311 1092.71 125.482 1096.28 Q123.677 1099.82 123.677 1106.95 Q123.677 1114.06 125.482 1117.62 Q127.311 1121.16 130.922 1121.16 Q134.556 1121.16 136.362 1117.62 Q138.191 1114.06 138.191 1106.95 Q138.191 1099.82 136.362 1096.28 Q134.556 1092.71 130.922 1092.71 M130.922 1089.01 Q136.732 1089.01 139.788 1093.62 Q142.867 1098.2 142.867 1106.95 Q142.867 1115.68 139.788 1120.28 Q136.732 1124.87 130.922 1124.87 Q125.112 1124.87 122.033 1120.28 Q118.978 1115.68 118.978 1106.95 Q118.978 1098.2 122.033 1093.62 Q125.112 1089.01 130.922 1089.01 Z" fill="#000000" fill-rule="nonzero" fill-opacity="1" /><path clip-path="url(#clip220)" d="M161.084 1092.71 Q157.473 1092.71 155.644 1096.28 Q153.839 1099.82 153.839 1106.95 Q153.839 1114.06 155.644 1117.62 Q157.473 1121.16 161.084 1121.16 Q164.718 1121.16 166.524 1117.62 Q168.353 1114.06 168.353 1106.95 Q168.353 1099.82 166.524 1096.28 Q164.718 1092.71 161.084 1092.71 M161.084 1089.01 Q166.894 1089.01 169.95 1093.62 Q173.029 1098.2 173.029 1106.95 Q173.029 1115.68 169.95 1120.28 Q166.894 1124.87 161.084 1124.87 Q155.274 1124.87 152.195 1120.28 Q149.14 1115.68 149.14 1106.95 Q149.14 1098.2 152.195 1093.62 Q155.274 1089.01 161.084 1089.01 Z" fill="#000000" fill-rule="nonzero" fill-opacity="1" /><path clip-path="url(#clip220)" d="M50.9921 831.091 L80.6679 831.091 L80.6679 835.026 L50.9921 835.026 L50.9921 831.091 Z" fill="#000000" fill-rule="nonzero" fill-opacity="1" /><path clip-path="url(#clip220)" d="M94.7882 843.985 L111.108 843.985 L111.108 847.92 L89.1632 847.92 L89.1632 843.985 Q91.8252 841.23 96.4085 836.6 Q101.015 831.948 102.196 830.605 Q104.441 828.082 105.321 826.346 Q106.223 824.586 106.223 822.897 Q106.223 820.142 104.279 818.406 Q102.358 816.67 99.2558 816.67 Q97.0567 816.67 94.603 817.434 Q92.1725 818.198 89.3947 819.749 L89.3947 815.026 Q92.2188 813.892 94.6724 813.313 Q97.1261 812.735 99.1632 812.735 Q104.534 812.735 107.728 815.42 Q110.922 818.105 110.922 822.596 Q110.922 824.725 110.112 826.647 Q109.325 828.545 107.219 831.137 Q106.64 831.809 103.538 835.026 Q100.436 838.221 94.7882 843.985 Z" fill="#000000" fill-rule="nonzero" fill-opacity="1" /><path clip-path="url(#clip220)" d="M130.922 816.438 Q127.311 816.438 125.482 820.003 Q123.677 823.545 123.677 830.674 Q123.677 837.781 125.482 841.346 Q127.311 844.887 130.922 844.887 Q134.556 844.887 136.362 841.346 Q138.191 837.781 138.191 830.674 Q138.191 823.545 136.362 820.003 Q134.556 816.438 130.922 816.438 M130.922 812.735 Q136.732 812.735 139.788 817.341 Q142.867 821.924 142.867 830.674 Q142.867 839.401 139.788 844.008 Q136.732 848.591 130.922 848.591 Q125.112 848.591 122.033 844.008 Q118.978 839.401 118.978 830.674 Q118.978 821.924 122.033 817.341 Q125.112 812.735 130.922 812.735 Z" fill="#000000" fill-rule="nonzero" fill-opacity="1" /><path clip-path="url(#clip220)" d="M161.084 816.438 Q157.473 816.438 155.644 820.003 Q153.839 823.545 153.839 830.674 Q153.839 837.781 155.644 841.346 Q157.473 844.887 161.084 844.887 Q164.718 844.887 166.524 841.346 Q168.353 837.781 168.353 830.674 Q168.353 823.545 166.524 820.003 Q164.718 816.438 161.084 816.438 M161.084 812.735 Q166.894 812.735 169.95 817.341 Q173.029 821.924 173.029 830.674 Q173.029 839.401 169.95 844.008 Q166.894 848.591 161.084 848.591 Q155.274 848.591 152.195 844.008 Q149.14 839.401 149.14 830.674 Q149.14 821.924 152.195 817.341 Q155.274 812.735 161.084 812.735 Z" fill="#000000" fill-rule="nonzero" fill-opacity="1" /><path clip-path="url(#clip220)" d="M161.084 540.162 Q157.473 540.162 155.644 543.727 Q153.839 547.269 153.839 554.399 Q153.839 561.505 155.644 565.07 Q157.473 568.611 161.084 568.611 Q164.718 568.611 166.524 565.07 Q168.353 561.505 168.353 554.399 Q168.353 547.269 166.524 543.727 Q164.718 540.162 161.084 540.162 M161.084 536.459 Q166.894 536.459 169.95 541.065 Q173.029 545.649 173.029 554.399 Q173.029 563.125 169.95 567.732 Q166.894 572.315 161.084 572.315 Q155.274 572.315 152.195 567.732 Q149.14 563.125 149.14 554.399 Q149.14 545.649 152.195 541.065 Q155.274 536.459 161.084 536.459 Z" fill="#000000" fill-rule="nonzero" fill-opacity="1" /><path clip-path="url(#clip220)" d="M94.7882 291.433 L111.108 291.433 L111.108 295.368 L89.1632 295.368 L89.1632 291.433 Q91.8252 288.678 96.4085 284.049 Q101.015 279.396 102.196 278.053 Q104.441 275.53 105.321 273.794 Q106.223 272.035 106.223 270.345 Q106.223 267.59 104.279 265.854 Q102.358 264.118 99.2558 264.118 Q97.0567 264.118 94.603 264.882 Q92.1725 265.646 89.3947 267.197 L89.3947 262.475 Q92.2188 261.34 94.6724 260.762 Q97.1261 260.183 99.1632 260.183 Q104.534 260.183 107.728 262.868 Q110.922 265.553 110.922 270.044 Q110.922 272.174 110.112 274.095 Q109.325 275.993 107.219 278.586 Q106.64 279.257 103.538 282.474 Q100.436 285.669 94.7882 291.433 Z" fill="#000000" fill-rule="nonzero" fill-opacity="1" /><path clip-path="url(#clip220)" d="M130.922 263.887 Q127.311 263.887 125.482 267.451 Q123.677 270.993 123.677 278.123 Q123.677 285.229 125.482 288.794 Q127.311 292.336 130.922 292.336 Q134.556 292.336 136.362 288.794 Q138.191 285.229 138.191 278.123 Q138.191 270.993 136.362 267.451 Q134.556 263.887 130.922 263.887 M130.922 260.183 Q136.732 260.183 139.788 264.789 Q142.867 269.373 142.867 278.123 Q142.867 286.849 139.788 291.456 Q136.732 296.039 130.922 296.039 Q125.112 296.039 122.033 291.456 Q118.978 286.849 118.978 278.123 Q118.978 269.373 122.033 264.789 Q125.112 260.183 130.922 260.183 Z" fill="#000000" fill-rule="nonzero" fill-opacity="1" /><path clip-path="url(#clip220)" d="M161.084 263.887 Q157.473 263.887 155.644 267.451 Q153.839 270.993 153.839 278.123 Q153.839 285.229 155.644 288.794 Q157.473 292.336 161.084 292.336 Q164.718 292.336 166.524 288.794 Q168.353 285.229 168.353 278.123 Q168.353 270.993 166.524 267.451 Q164.718 263.887 161.084 263.887 M161.084 260.183 Q166.894 260.183 169.95 264.789 Q173.029 269.373 173.029 278.123 Q173.029 286.849 169.95 291.456 Q166.894 296.039 161.084 296.039 Q155.274 296.039 152.195 291.456 Q149.14 286.849 149.14 278.123 Q149.14 269.373 152.195 264.789 Q155.274 260.183 161.084 260.183 Z" fill="#000000" fill-rule="nonzero" fill-opacity="1" /><circle clip-path="url(#clip222)" cx="269.7" cy="87.9763" r="14.4" fill="#009af9" fill-rule="evenodd" fill-opacity="1" stroke="#000000" stroke-opacity="1" stroke-width="3.2"/>
<circle clip-path="url(#clip222)" cx="775.296" cy="540.556" r="14.4" fill="#009af9" fill-rule="evenodd" fill-opacity="1" stroke="#000000" stroke-opacity="1" stroke-width="3.2"/>
<circle clip-path="url(#clip222)" cx="1280.89" cy="1219.43" r="14.4" fill="#009af9" fill-rule="evenodd" fill-opacity="1" stroke="#000000" stroke-opacity="1" stroke-width="3.2"/>
<circle clip-path="url(#clip222)" cx="1786.49" cy="1445.72" r="14.4" fill="#009af9" fill-rule="evenodd" fill-opacity="1" stroke="#000000" stroke-opacity="1" stroke-width="3.2"/>
<circle clip-path="url(#clip222)" cx="2292.08" cy="540.558" r="14.4" fill="#009af9" fill-rule="evenodd" fill-opacity="1" stroke="#000000" stroke-opacity="1" stroke-width="3.2"/>
<polyline clip-path="url(#clip222)" style="stroke:#000000; stroke-linecap:round; stroke-linejoin:round; stroke-width:4; stroke-opacity:1; fill:none" stroke-dasharray="16, 10" points="-1934.7,540.55 4496.48,540.55 "/>
<path clip-path="url(#clip220)" d="M1828.87 198.898 L2281.3 198.898 L2281.3 95.2176 L1828.87 95.2176  Z" fill="#ffffff" fill-rule="evenodd" fill-opacity="1"/>
<polyline clip-path="url(#clip220)" style="stroke:#000000; stroke-linecap:round; stroke-linejoin:round; stroke-width:4; stroke-opacity:1; fill:none" points="1828.87,198.898 2281.3,198.898 2281.3,95.2176 1828.87,95.2176 1828.87,198.898 "/>
<polyline clip-path="url(#clip220)" style="stroke:#000000; stroke-linecap:round; stroke-linejoin:round; stroke-width:4; stroke-opacity:1; fill:none" stroke-dasharray="16, 10" points="1852.69,147.058 1995.61,147.058 "/>
<path clip-path="url(#clip220)" d="M2026.83 131.051 L2026.83 138.412 L2035.61 138.412 L2035.61 141.722 L2026.83 141.722 L2026.83 155.796 Q2026.83 158.967 2027.69 159.87 Q2028.57 160.773 2031.23 160.773 L2035.61 160.773 L2035.61 164.338 L2031.23 164.338 Q2026.3 164.338 2024.42 162.509 Q2022.55 160.657 2022.55 155.796 L2022.55 141.722 L2019.42 141.722 L2019.42 138.412 L2022.55 138.412 L2022.55 131.051 L2026.83 131.051 Z" fill="#000000" fill-rule="nonzero" fill-opacity="1" /><path clip-path="url(#clip220)" d="M2056.23 142.393 Q2055.51 141.977 2054.66 141.791 Q2053.82 141.583 2052.8 141.583 Q2049.19 141.583 2047.25 143.944 Q2045.33 146.282 2045.33 150.68 L2045.33 164.338 L2041.05 164.338 L2041.05 138.412 L2045.33 138.412 L2045.33 142.44 Q2046.67 140.078 2048.82 138.944 Q2050.98 137.787 2054.05 137.787 Q2054.49 137.787 2055.03 137.856 Q2055.56 137.903 2056.21 138.018 L2056.23 142.393 Z" fill="#000000" fill-rule="nonzero" fill-opacity="1" /><path clip-path="url(#clip220)" d="M2060.26 154.106 L2060.26 138.412 L2064.52 138.412 L2064.52 153.944 Q2064.52 157.625 2065.95 159.476 Q2067.39 161.305 2070.26 161.305 Q2073.71 161.305 2075.7 159.106 Q2077.71 156.907 2077.71 153.111 L2077.71 138.412 L2081.97 138.412 L2081.97 164.338 L2077.71 164.338 L2077.71 160.356 Q2076.16 162.717 2074.1 163.875 Q2072.06 165.009 2069.36 165.009 Q2064.89 165.009 2062.57 162.231 Q2060.26 159.453 2060.26 154.106 M2070.98 137.787 L2070.98 137.787 Z" fill="#000000" fill-rule="nonzero" fill-opacity="1" /><path clip-path="url(#clip220)" d="M2112.92 150.31 L2112.92 152.393 L2093.34 152.393 Q2093.61 156.791 2095.98 159.106 Q2098.36 161.398 2102.6 161.398 Q2105.05 161.398 2107.34 160.796 Q2109.66 160.194 2111.92 158.99 L2111.92 163.018 Q2109.63 163.99 2107.23 164.5 Q2104.82 165.009 2102.34 165.009 Q2096.14 165.009 2092.5 161.398 Q2088.89 157.787 2088.89 151.629 Q2088.89 145.264 2092.32 141.537 Q2095.77 137.787 2101.6 137.787 Q2106.83 137.787 2109.86 141.166 Q2112.92 144.523 2112.92 150.31 M2108.66 149.06 Q2108.61 145.565 2106.69 143.481 Q2104.79 141.398 2101.65 141.398 Q2098.08 141.398 2095.93 143.412 Q2093.8 145.426 2093.48 149.083 L2108.66 149.06 Z" fill="#000000" fill-rule="nonzero" fill-opacity="1" /><path clip-path="url(#clip220)" d="M2131.92 138.412 L2136.44 138.412 L2144.54 160.171 L2152.64 138.412 L2157.16 138.412 L2147.43 164.338 L2141.65 164.338 L2131.92 138.412 Z" fill="#000000" fill-rule="nonzero" fill-opacity="1" /><path clip-path="url(#clip220)" d="M2174.82 151.305 Q2169.66 151.305 2167.66 152.486 Q2165.67 153.666 2165.67 156.514 Q2165.67 158.782 2167.16 160.125 Q2168.66 161.444 2171.23 161.444 Q2174.77 161.444 2176.9 158.944 Q2179.05 156.421 2179.05 152.254 L2179.05 151.305 L2174.82 151.305 M2183.31 149.546 L2183.31 164.338 L2179.05 164.338 L2179.05 160.402 Q2177.6 162.763 2175.42 163.898 Q2173.24 165.009 2170.1 165.009 Q2166.11 165.009 2163.75 162.787 Q2161.41 160.541 2161.41 156.791 Q2161.41 152.416 2164.33 150.194 Q2167.27 147.972 2173.08 147.972 L2179.05 147.972 L2179.05 147.555 Q2179.05 144.615 2177.11 143.018 Q2175.19 141.398 2171.69 141.398 Q2169.47 141.398 2167.36 141.93 Q2165.26 142.463 2163.31 143.527 L2163.31 139.592 Q2165.65 138.69 2167.85 138.25 Q2170.05 137.787 2172.13 137.787 Q2177.76 137.787 2180.54 140.703 Q2183.31 143.62 2183.31 149.546 Z" fill="#000000" fill-rule="nonzero" fill-opacity="1" /><path clip-path="url(#clip220)" d="M2192.09 128.319 L2196.35 128.319 L2196.35 164.338 L2192.09 164.338 L2192.09 128.319 Z" fill="#000000" fill-rule="nonzero" fill-opacity="1" /><path clip-path="url(#clip220)" d="M2204.82 154.106 L2204.82 138.412 L2209.08 138.412 L2209.08 153.944 Q2209.08 157.625 2210.51 159.476 Q2211.95 161.305 2214.82 161.305 Q2218.27 161.305 2220.26 159.106 Q2222.27 156.907 2222.27 153.111 L2222.27 138.412 L2226.53 138.412 L2226.53 164.338 L2222.27 164.338 L2222.27 160.356 Q2220.72 162.717 2218.66 163.875 Q2216.62 165.009 2213.91 165.009 Q2209.45 165.009 2207.13 162.231 Q2204.82 159.453 2204.82 154.106 M2215.53 137.787 L2215.53 137.787 Z" fill="#000000" fill-rule="nonzero" fill-opacity="1" /><path clip-path="url(#clip220)" d="M2257.48 150.31 L2257.48 152.393 L2237.9 152.393 Q2238.17 156.791 2240.53 159.106 Q2242.92 161.398 2247.16 161.398 Q2249.61 161.398 2251.9 160.796 Q2254.22 160.194 2256.48 158.99 L2256.48 163.018 Q2254.19 163.99 2251.78 164.5 Q2249.38 165.009 2246.9 165.009 Q2240.7 165.009 2237.06 161.398 Q2233.45 157.787 2233.45 151.629 Q2233.45 145.264 2236.88 141.537 Q2240.33 137.787 2246.16 137.787 Q2251.39 137.787 2254.42 141.166 Q2257.48 144.523 2257.48 150.31 M2253.22 149.06 Q2253.17 145.565 2251.25 143.481 Q2249.35 141.398 2246.21 141.398 Q2242.64 141.398 2240.49 143.412 Q2238.36 145.426 2238.03 149.083 L2253.22 149.06 Z" fill="#000000" fill-rule="nonzero" fill-opacity="1" /></svg>
