<?xml version="1.0" encoding="utf-8"?>
<svg xmlns="http://www.w3.org/2000/svg" xmlns:xlink="http://www.w3.org/1999/xlink" width="600" height="400" viewBox="0 0 2400 1600">
<defs>
  <clipPath id="clip250">
    <rect x="0" y="0" width="2400" height="1600"/>
  </clipPath>
</defs>
<path clip-path="url(#clip250)" d="M0 1600 L2400 1600 L2400 0 L0 0  Z" fill="#ffffff" fill-rule="evenodd" fill-opacity="1"/>
<defs>
  <clipPath id="clip251">
    <rect x="480" y="0" width="1681" height="1600"/>
  </clipPath>
</defs>
<path clip-path="url(#clip250)" d="M202.177 1486.45 L2352.76 1486.45 L2352.76 47.2441 L202.177 47.2441  Z" fill="#ffffff" fill-rule="evenodd" fill-opacity="1"/>
<defs>
  <clipPath id="clip252">
    <rect x="202" y="47" width="2152" height="1440"/>
  </clipPath>
</defs>
<polyline clip-path="url(#clip252)" style="stroke:#000000; stroke-linecap:round; stroke-linejoin:round; stroke-width:2; stroke-opacity:0.1; fill:none" points="263.042,1486.45 263.042,47.2441 "/>
<polyline clip-path="url(#clip252)" style="stroke:#000000; stroke-linecap:round; stroke-linejoin:round; stroke-width:2; stroke-opacity:0.1; fill:none" points="1277.47,1486.45 1277.47,47.2441 "/>
<polyline clip-path="url(#clip252)" style="stroke:#000000; stroke-linecap:round; stroke-linejoin:round; stroke-width:2; stroke-opacity:0.1; fill:none" points="2291.89,1486.45 2291.89,47.2441 "/>
<polyline clip-path="url(#clip252)" style="stroke:#000000; stroke-linecap:round; stroke-linejoin:round; stroke-width:2; stroke-opacity:0.1; fill:none" points="202.177,1446.01 2352.76,1446.01 "/>
<polyline clip-path="url(#clip252)" style="stroke:#000000; stroke-linecap:round; stroke-linejoin:round; stroke-width:2; stroke-opacity:0.1; fill:none" points="202.177,1152.18 2352.76,1152.18 "/>
<polyline clip-path="url(#clip252)" style="stroke:#000000; stroke-linecap:round; stroke-linejoin:round; stroke-width:2; stroke-opacity:0.1; fill:none" points="202.177,858.344 2352.76,858.344 "/>
<polyline clip-path="url(#clip252)" style="stroke:#000000; stroke-linecap:round; stroke-linejoin:round; stroke-width:2; stroke-opacity:0.1; fill:none" points="202.177,564.511 2352.76,564.511 "/>
<polyline clip-path="url(#clip252)" style="stroke:#000000; stroke-linecap:round; stroke-linejoin:round; stroke-width:2; stroke-opacity:0.1; fill:none" points="202.177,270.679 2352.76,270.679 "/>
<polyline clip-path="url(#clip250)" style="stroke:#000000; stroke-linecap:round; stroke-linejoin:round; stroke-width:4; stroke-opacity:1; fill:none" points="202.177,1486.45 2352.76,1486.45 "/>
<polyline clip-path="url(#clip250)" style="stroke:#000000; stroke-linecap:round; stroke-linejoin:round; stroke-width:4; stroke-opacity:1; fill:none" points="263.042,1486.45 263.042,1467.55 "/>
<polyline clip-path="url(#clip250)" style="stroke:#000000; stroke-linecap:round; stroke-linejoin:round; stroke-width:4; stroke-opacity:1; fill:none" points="1277.47,1486.45 1277.47,1467.55 "/>
<polyline clip-path="url(#clip250)" style="stroke:#000000; stroke-linecap:round; stroke-linejoin:round; stroke-width:4; stroke-opacity:1; fill:none" points="2291.89,1486.45 2291.89,1467.55 "/>
<path clip-path="url(#clip250)" d="M248.216 1523.69 L248.216 1527.71 Q246.41 1526.79 244.466 1526.32 Q242.521 1525.86 240.438 1525.86 Q237.267 1525.86 235.67 1526.83 Q234.096 1527.81 234.096 1529.75 Q234.096 1531.23 235.23 1532.09 Q236.364 1532.92 239.79 1533.69 L241.248 1534.01 Q245.785 1534.98 247.683 1536.76 Q249.605 1538.52 249.605 1541.7 Q249.605 1545.31 246.734 1547.41 Q243.887 1549.52 238.887 1549.52 Q236.804 1549.52 234.535 1549.1 Q232.29 1548.71 229.79 1547.9 L229.79 1543.5 Q232.151 1544.73 234.443 1545.35 Q236.734 1545.95 238.98 1545.95 Q241.989 1545.95 243.609 1544.94 Q245.23 1543.89 245.23 1542.02 Q245.23 1540.28 244.049 1539.36 Q242.892 1538.43 238.933 1537.57 L237.452 1537.23 Q233.494 1536.39 231.734 1534.68 Q229.975 1532.95 229.975 1529.94 Q229.975 1526.28 232.568 1524.29 Q235.16 1522.3 239.929 1522.3 Q242.29 1522.3 244.373 1522.64 Q246.457 1522.99 248.216 1523.69 Z" fill="#000000" fill-rule="nonzero" fill-opacity="1" /><path clip-path="url(#clip250)" d="M260.6 1515.56 L260.6 1522.92 L269.373 1522.92 L269.373 1526.23 L260.6 1526.23 L260.6 1540.31 Q260.6 1543.48 261.457 1544.38 Q262.336 1545.28 264.998 1545.28 L269.373 1545.28 L269.373 1548.85 L264.998 1548.85 Q260.068 1548.85 258.193 1547.02 Q256.318 1545.17 256.318 1540.31 L256.318 1526.23 L253.193 1526.23 L253.193 1522.92 L256.318 1522.92 L256.318 1515.56 L260.6 1515.56 Z" fill="#000000" fill-rule="nonzero" fill-opacity="1" /><path clip-path="url(#clip250)" d="M292.035 1526.86 L292.035 1512.83 L296.294 1512.83 L296.294 1548.85 L292.035 1548.85 L292.035 1544.96 Q290.692 1547.27 288.632 1548.41 Q286.595 1549.52 283.725 1549.52 Q279.026 1549.52 276.063 1545.77 Q273.123 1542.02 273.123 1535.91 Q273.123 1529.8 276.063 1526.05 Q279.026 1522.3 283.725 1522.3 Q286.595 1522.3 288.632 1523.43 Q290.692 1524.54 292.035 1526.86 M277.521 1535.91 Q277.521 1540.61 279.443 1543.29 Q281.387 1545.95 284.767 1545.95 Q288.146 1545.95 290.091 1543.29 Q292.035 1540.61 292.035 1535.91 Q292.035 1531.21 290.091 1528.55 Q288.146 1525.86 284.767 1525.86 Q281.387 1525.86 279.443 1528.55 Q277.521 1531.21 277.521 1535.91 Z" fill="#000000" fill-rule="nonzero" fill-opacity="1" /><path clip-path="url(#clip250)" d="M1226.27 1514.29 L1233.24 1514.29 L1242.06 1537.81 L1250.93 1514.29 L1257.89 1514.29 L1257.89 1548.85 L1253.33 1548.85 L1253.33 1518.5 L1244.42 1542.2 L1239.72 1542.2 L1230.81 1518.5 L1230.81 1548.85 L1226.27 1548.85 L1226.27 1514.29 Z" fill="#000000" fill-rule="nonzero" fill-opacity="1" /><path clip-path="url(#clip250)" d="M1278.73 1518.89 L1272.39 1536.09 L1285.09 1536.09 L1278.73 1518.89 M1276.09 1514.29 L1281.39 1514.29 L1294.56 1548.85 L1289.7 1548.85 L1286.55 1539.98 L1270.97 1539.98 L1267.83 1548.85 L1262.89 1548.85 L1276.09 1514.29 Z" fill="#000000" fill-rule="nonzero" fill-opacity="1" /><path clip-path="url(#clip250)" d="M1304.28 1518.13 L1304.28 1545.01 L1309.93 1545.01 Q1317.08 1545.01 1320.39 1541.76 Q1323.73 1538.52 1323.73 1531.53 Q1323.73 1524.59 1320.39 1521.37 Q1317.08 1518.13 1309.93 1518.13 L1304.28 1518.13 M1299.61 1514.29 L1309.21 1514.29 Q1319.26 1514.29 1323.96 1518.48 Q1328.66 1522.64 1328.66 1531.53 Q1328.66 1540.47 1323.94 1544.66 Q1319.21 1548.85 1309.21 1548.85 L1299.61 1548.85 L1299.61 1514.29 Z" fill="#000000" fill-rule="nonzero" fill-opacity="1" /><path clip-path="url(#clip250)" d="M2143.92 1535.91 Q2143.92 1531.21 2141.97 1528.55 Q2140.05 1525.86 2136.67 1525.86 Q2133.29 1525.86 2131.35 1528.55 Q2129.43 1531.21 2129.43 1535.91 Q2129.43 1540.61 2131.35 1543.29 Q2133.29 1545.95 2136.67 1545.95 Q2140.05 1545.95 2141.97 1543.29 Q2143.92 1540.61 2143.92 1535.91 M2129.43 1526.86 Q2130.77 1524.54 2132.81 1523.43 Q2134.87 1522.3 2137.71 1522.3 Q2142.44 1522.3 2145.38 1526.05 Q2148.34 1529.8 2148.34 1535.91 Q2148.34 1542.02 2145.38 1545.77 Q2142.44 1549.52 2137.71 1549.52 Q2134.87 1549.52 2132.81 1548.41 Q2130.77 1547.27 2129.43 1544.96 L2129.43 1548.85 L2125.14 1548.85 L2125.14 1512.83 L2129.43 1512.83 L2129.43 1526.86 Z" fill="#000000" fill-rule="nonzero" fill-opacity="1" /><path clip-path="url(#clip250)" d="M2155.4 1522.92 L2159.66 1522.92 L2159.66 1548.85 L2155.4 1548.85 L2155.4 1522.92 M2155.4 1512.83 L2159.66 1512.83 L2159.66 1518.22 L2155.4 1518.22 L2155.4 1512.83 Z" fill="#000000" fill-rule="nonzero" fill-opacity="1" /><path clip-path="url(#clip250)" d="M2166.09 1522.92 L2170.35 1522.92 L2175.68 1543.15 L2180.98 1522.92 L2186 1522.92 L2191.32 1543.15 L2196.62 1522.92 L2200.88 1522.92 L2194.1 1548.85 L2189.08 1548.85 L2183.5 1527.6 L2177.9 1548.85 L2172.87 1548.85 L2166.09 1522.92 Z" fill="#000000" fill-rule="nonzero" fill-opacity="1" /><path clip-path="url(#clip250)" d="M2229.52 1534.82 L2229.52 1536.9 L2209.93 1536.9 Q2210.21 1541.3 2212.57 1543.62 Q2214.96 1545.91 2219.19 1545.91 Q2221.65 1545.91 2223.94 1545.31 Q2226.25 1544.7 2228.52 1543.5 L2228.52 1547.53 Q2226.23 1548.5 2223.82 1549.01 Q2221.42 1549.52 2218.94 1549.52 Q2212.74 1549.52 2209.1 1545.91 Q2205.49 1542.3 2205.49 1536.14 Q2205.49 1529.77 2208.92 1526.05 Q2212.37 1522.3 2218.2 1522.3 Q2223.43 1522.3 2226.46 1525.68 Q2229.52 1529.03 2229.52 1534.82 M2225.26 1533.57 Q2225.21 1530.07 2223.29 1527.99 Q2221.39 1525.91 2218.25 1525.91 Q2214.68 1525.91 2212.53 1527.92 Q2210.4 1529.94 2210.07 1533.59 L2225.26 1533.57 Z" fill="#000000" fill-rule="nonzero" fill-opacity="1" /><path clip-path="url(#clip250)" d="M2236.51 1522.92 L2240.77 1522.92 L2240.77 1548.85 L2236.51 1548.85 L2236.51 1522.92 M2236.51 1512.83 L2240.77 1512.83 L2240.77 1518.22 L2236.51 1518.22 L2236.51 1512.83 Z" fill="#000000" fill-rule="nonzero" fill-opacity="1" /><path clip-path="url(#clip250)" d="M2266.74 1535.58 Q2266.74 1530.95 2264.82 1528.41 Q2262.92 1525.86 2259.47 1525.86 Q2256.05 1525.86 2254.12 1528.41 Q2252.23 1530.95 2252.23 1535.58 Q2252.23 1540.19 2254.12 1542.74 Q2256.05 1545.28 2259.47 1545.28 Q2262.92 1545.28 2264.82 1542.74 Q2266.74 1540.19 2266.74 1535.58 M2271 1545.63 Q2271 1552.25 2268.06 1555.47 Q2265.12 1558.71 2259.05 1558.71 Q2256.81 1558.71 2254.82 1558.36 Q2252.83 1558.04 2250.95 1557.34 L2250.95 1553.2 Q2252.83 1554.22 2254.66 1554.7 Q2256.49 1555.19 2258.38 1555.19 Q2262.57 1555.19 2264.66 1552.99 Q2266.74 1550.82 2266.74 1546.39 L2266.74 1544.29 Q2265.42 1546.58 2263.36 1547.71 Q2261.3 1548.85 2258.43 1548.85 Q2253.66 1548.85 2250.74 1545.21 Q2247.83 1541.58 2247.83 1535.58 Q2247.83 1529.57 2250.74 1525.93 Q2253.66 1522.3 2258.43 1522.3 Q2261.3 1522.3 2263.36 1523.43 Q2265.42 1524.57 2266.74 1526.86 L2266.74 1522.92 L2271 1522.92 L2271 1545.63 Z" fill="#000000" fill-rule="nonzero" fill-opacity="1" /><path clip-path="url(#clip250)" d="M2301.32 1533.2 L2301.32 1548.85 L2297.06 1548.85 L2297.06 1533.34 Q2297.06 1529.66 2295.63 1527.83 Q2294.19 1526 2291.32 1526 Q2287.87 1526 2285.88 1528.2 Q2283.89 1530.4 2283.89 1534.2 L2283.89 1548.85 L2279.61 1548.85 L2279.61 1512.83 L2283.89 1512.83 L2283.89 1526.95 Q2285.42 1524.61 2287.48 1523.45 Q2289.56 1522.3 2292.27 1522.3 Q2296.74 1522.3 2299.03 1525.07 Q2301.32 1527.83 2301.32 1533.2 Z" fill="#000000" fill-rule="nonzero" fill-opacity="1" /><path clip-path="url(#clip250)" d="M2314.03 1515.56 L2314.03 1522.92 L2322.8 1522.92 L2322.8 1526.23 L2314.03 1526.23 L2314.03 1540.31 Q2314.03 1543.48 2314.89 1544.38 Q2315.77 1545.28 2318.43 1545.28 L2322.8 1545.28 L2322.8 1548.85 L2318.43 1548.85 Q2313.5 1548.85 2311.62 1547.02 Q2309.75 1545.17 2309.75 1540.31 L2309.75 1526.23 L2306.62 1526.23 L2306.62 1522.92 L2309.75 1522.92 L2309.75 1515.56 L2314.03 1515.56 Z" fill="#000000" fill-rule="nonzero" fill-opacity="1" /><path clip-path="url(#clip250)" d="M2360 1523.69 L2360 1527.71 Q2358.2 1526.79 2356.25 1526.32 Q2354.31 1525.86 2352.23 1525.86 Q2349.05 1525.86 2347.46 1526.83 Q2345.88 1527.81 2345.88 1529.75 Q2345.88 1531.23 2347.02 1532.09 Q2348.15 1532.92 2351.58 1533.69 L2353.04 1534.01 Q2357.57 1534.98 2359.47 1536.76 Q2361.39 1538.52 2361.39 1541.7 Q2361.39 1545.31 2358.52 1547.41 Q2355.67 1549.52 2350.67 1549.52 Q2348.59 1549.52 2346.32 1549.1 Q2344.08 1548.71 2341.58 1547.9 L2341.58 1543.5 Q2343.94 1544.73 2346.23 1545.35 Q2348.52 1545.95 2350.77 1545.95 Q2353.78 1545.95 2355.4 1544.94 Q2357.02 1543.89 2357.02 1542.02 Q2357.02 1540.28 2355.84 1539.36 Q2354.68 1538.43 2350.72 1537.57 L2349.24 1537.23 Q2345.28 1536.39 2343.52 1534.68 Q2341.76 1532.95 2341.76 1529.94 Q2341.76 1526.28 2344.36 1524.29 Q2346.95 1522.3 2351.72 1522.3 Q2354.08 1522.3 2356.16 1522.64 Q2358.24 1522.99 2360 1523.69 Z" fill="#000000" fill-rule="nonzero" fill-opacity="1" /><path clip-path="url(#clip250)" d="M2386.83 1523.92 L2386.83 1527.9 Q2385.03 1526.9 2383.2 1526.42 Q2381.39 1525.91 2379.54 1525.91 Q2375.4 1525.91 2373.11 1528.55 Q2370.81 1531.16 2370.81 1535.91 Q2370.81 1540.65 2373.11 1543.29 Q2375.4 1545.91 2379.54 1545.91 Q2381.39 1545.91 2383.2 1545.42 Q2385.03 1544.91 2386.83 1543.92 L2386.83 1547.85 Q2385.05 1548.69 2383.13 1549.1 Q2381.23 1549.52 2379.08 1549.52 Q2373.22 1549.52 2369.77 1545.84 Q2366.32 1542.16 2366.32 1535.91 Q2366.32 1529.57 2369.8 1525.93 Q2373.29 1522.3 2379.36 1522.3 Q2381.32 1522.3 2383.2 1522.71 Q2385.07 1523.11 2386.83 1523.92 Z" fill="#000000" fill-rule="nonzero" fill-opacity="1" /><path clip-path="url(#clip250)" d="M2406.02 1535.82 Q2400.86 1535.82 2398.87 1537 Q2396.88 1538.18 2396.88 1541.02 Q2396.88 1543.29 2398.36 1544.63 Q2399.86 1545.95 2402.43 1545.95 Q2405.98 1545.95 2408.11 1543.45 Q2410.26 1540.93 2410.26 1536.76 L2410.26 1535.82 L2406.02 1535.82 M2414.52 1534.06 L2414.52 1548.85 L2410.26 1548.85 L2410.26 1544.91 Q2408.8 1547.27 2406.62 1548.41 Q2404.45 1549.52 2401.3 1549.52 Q2397.32 1549.52 2394.96 1547.3 Q2392.62 1545.05 2392.62 1541.3 Q2392.62 1536.93 2395.54 1534.7 Q2398.48 1532.48 2404.29 1532.48 L2410.26 1532.48 L2410.26 1532.07 Q2410.26 1529.13 2408.31 1527.53 Q2406.39 1525.91 2402.9 1525.91 Q2400.67 1525.91 2398.57 1526.44 Q2396.46 1526.97 2394.52 1528.04 L2394.52 1524.1 Q2396.86 1523.2 2399.05 1522.76 Q2401.25 1522.3 2403.34 1522.3 Q2408.96 1522.3 2411.74 1525.21 Q2414.52 1528.13 2414.52 1534.06 Z" fill="#000000" fill-rule="nonzero" fill-opacity="1" /><path clip-path="url(#clip250)" d="M2423.29 1512.83 L2427.55 1512.83 L2427.55 1548.85 L2423.29 1548.85 L2423.29 1512.83 Z" fill="#000000" fill-rule="nonzero" fill-opacity="1" /><path clip-path="url(#clip250)" d="M2458.64 1534.82 L2458.64 1536.9 L2439.05 1536.9 Q2439.33 1541.3 2441.69 1543.62 Q2444.08 1545.91 2448.31 1545.91 Q2450.77 1545.91 2453.06 1545.31 Q2455.37 1544.7 2457.64 1543.5 L2457.64 1547.53 Q2455.35 1548.5 2452.94 1549.01 Q2450.54 1549.52 2448.06 1549.52 Q2441.85 1549.52 2438.22 1545.91 Q2434.61 1542.3 2434.61 1536.14 Q2434.61 1529.77 2438.04 1526.05 Q2441.48 1522.3 2447.32 1522.3 Q2452.55 1522.3 2455.58 1525.68 Q2458.64 1529.03 2458.64 1534.82 M2454.38 1533.57 Q2454.33 1530.07 2452.41 1527.99 Q2450.51 1525.91 2447.36 1525.91 Q2443.8 1525.91 2441.65 1527.92 Q2439.52 1529.94 2439.19 1533.59 L2454.38 1533.57 Z" fill="#000000" fill-rule="nonzero" fill-opacity="1" /><polyline clip-path="url(#clip250)" style="stroke:#000000; stroke-linecap:round; stroke-linejoin:round; stroke-width:4; stroke-opacity:1; fill:none" points="202.177,1486.45 202.177,47.2441 "/>
<polyline clip-path="url(#clip250)" style="stroke:#000000; stroke-linecap:round; stroke-linejoin:round; stroke-width:4; stroke-opacity:1; fill:none" points="202.177,1446.01 221.074,1446.01 "/>
<polyline clip-path="url(#clip250)" style="stroke:#000000; stroke-linecap:round; stroke-linejoin:round; stroke-width:4; stroke-opacity:1; fill:none" points="202.177,1152.18 221.074,1152.18 "/>
<polyline clip-path="url(#clip250)" style="stroke:#000000; stroke-linecap:round; stroke-linejoin:round; stroke-width:4; stroke-opacity:1; fill:none" points="202.177,858.344 221.074,858.344 "/>
<polyline clip-path="url(#clip250)" style="stroke:#000000; stroke-linecap:round; stroke-linejoin:round; stroke-width:4; stroke-opacity:1; fill:none" points="202.177,564.511 221.074,564.511 "/>
<polyline clip-path="url(#clip250)" style="stroke:#000000; stroke-linecap:round; stroke-linejoin:round; stroke-width:4; stroke-opacity:1; fill:none" points="202.177,270.679 221.074,270.679 "/>
<path clip-path="url(#clip250)" d="M154.232 1431.81 Q150.621 1431.81 148.793 1435.37 Q146.987 1438.91 146.987 1446.04 Q146.987 1453.15 148.793 1456.72 Q150.621 1460.26 154.232 1460.26 Q157.867 1460.26 159.672 1456.72 Q161.501 1453.15 161.501 1446.04 Q161.501 1438.91 159.672 1435.37 Q157.867 1431.81 154.232 1431.81 M154.232 1428.1 Q160.042 1428.1 163.098 1432.71 Q166.177 1437.29 166.177 1446.04 Q166.177 1454.77 163.098 1459.38 Q160.042 1463.96 154.232 1463.96 Q148.422 1463.96 145.343 1459.38 Q142.288 1454.77 142.288 1446.04 Q142.288 1437.29 145.343 1432.71 Q148.422 1428.1 154.232 1428.1 Z" fill="#000000" fill-rule="nonzero" fill-opacity="1" /><path clip-path="url(#clip250)" d="M54.5569 1165.52 L62.1958 1165.52 L62.1958 1139.16 L53.8856 1140.82 L53.8856 1136.56 L62.1495 1134.9 L66.8254 1134.9 L66.8254 1165.52 L74.4642 1165.52 L74.4642 1169.46 L54.5569 1169.46 L54.5569 1165.52 Z" fill="#000000" fill-rule="nonzero" fill-opacity="1" /><path clip-path="url(#clip250)" d="M93.9086 1137.98 Q90.2975 1137.98 88.4688 1141.54 Q86.6632 1145.08 86.6632 1152.21 Q86.6632 1159.32 88.4688 1162.88 Q90.2975 1166.42 93.9086 1166.42 Q97.5428 1166.42 99.3483 1162.88 Q101.177 1159.32 101.177 1152.21 Q101.177 1145.08 99.3483 1141.54 Q97.5428 1137.98 93.9086 1137.98 M93.9086 1134.27 Q99.7187 1134.27 102.774 1138.88 Q105.853 1143.46 105.853 1152.21 Q105.853 1160.94 102.774 1165.54 Q99.7187 1170.13 93.9086 1170.13 Q88.0984 1170.13 85.0197 1165.54 Q81.9642 1160.94 81.9642 1152.21 Q81.9642 1143.46 85.0197 1138.88 Q88.0984 1134.27 93.9086 1134.27 Z" fill="#000000" fill-rule="nonzero" fill-opacity="1" /><path clip-path="url(#clip250)" d="M124.07 1137.98 Q120.459 1137.98 118.631 1141.54 Q116.825 1145.08 116.825 1152.21 Q116.825 1159.32 118.631 1162.88 Q120.459 1166.42 124.07 1166.42 Q127.705 1166.42 129.51 1162.88 Q131.339 1159.32 131.339 1152.21 Q131.339 1145.08 129.51 1141.54 Q127.705 1137.98 124.07 1137.98 M124.07 1134.27 Q129.881 1134.27 132.936 1138.88 Q136.015 1143.46 136.015 1152.21 Q136.015 1160.94 132.936 1165.54 Q129.881 1170.13 124.07 1170.13 Q118.26 1170.13 115.182 1165.54 Q112.126 1160.94 112.126 1152.21 Q112.126 1143.46 115.182 1138.88 Q118.26 1134.27 124.07 1134.27 Z" fill="#000000" fill-rule="nonzero" fill-opacity="1" /><path clip-path="url(#clip250)" d="M154.232 1137.98 Q150.621 1137.98 148.793 1141.54 Q146.987 1145.08 146.987 1152.21 Q146.987 1159.32 148.793 1162.88 Q150.621 1166.42 154.232 1166.42 Q157.867 1166.42 159.672 1162.88 Q161.501 1159.32 161.501 1152.21 Q161.501 1145.08 159.672 1141.54 Q157.867 1137.98 154.232 1137.98 M154.232 1134.27 Q160.042 1134.27 163.098 1138.88 Q166.177 1143.46 166.177 1152.21 Q166.177 1160.94 163.098 1165.54 Q160.042 1170.13 154.232 1170.13 Q148.422 1170.13 145.343 1165.54 Q142.288 1160.94 142.288 1152.21 Q142.288 1143.46 145.343 1138.88 Q148.422 1134.27 154.232 1134.27 Z" fill="#000000" fill-rule="nonzero" fill-opacity="1" /><path clip-path="url(#clip250)" d="M57.7745 871.689 L74.0939 871.689 L74.0939 875.624 L52.1495 875.624 L52.1495 871.689 Q54.8115 868.934 59.3949 864.305 Q64.0013 859.652 65.1819 858.309 Q67.4272 855.786 68.3068 854.05 Q69.2096 852.291 69.2096 850.601 Q69.2096 847.846 67.2652 846.11 Q65.3439 844.374 62.2421 844.374 Q60.043 844.374 57.5893 845.138 Q55.1588 845.902 52.381 847.453 L52.381 842.731 Q55.2051 841.596 57.6588 841.018 Q60.1124 840.439 62.1495 840.439 Q67.5198 840.439 70.7142 843.124 Q73.9087 845.809 73.9087 850.3 Q73.9087 852.43 73.0985 854.351 Q72.3115 856.249 70.205 858.842 Q69.6263 859.513 66.5245 862.73 Q63.4226 865.925 57.7745 871.689 Z" fill="#000000" fill-rule="nonzero" fill-opacity="1" /><path clip-path="url(#clip250)" d="M93.9086 844.143 Q90.2975 844.143 88.4688 847.707 Q86.6632 851.249 86.6632 858.379 Q86.6632 865.485 88.4688 869.05 Q90.2975 872.592 93.9086 872.592 Q97.5428 872.592 99.3483 869.05 Q101.177 865.485 101.177 858.379 Q101.177 851.249 99.3483 847.707 Q97.5428 844.143 93.9086 844.143 M93.9086 840.439 Q99.7187 840.439 102.774 845.045 Q105.853 849.629 105.853 858.379 Q105.853 867.105 102.774 871.712 Q99.7187 876.295 93.9086 876.295 Q88.0984 876.295 85.0197 871.712 Q81.9642 867.105 81.9642 858.379 Q81.9642 849.629 85.0197 845.045 Q88.0984 840.439 93.9086 840.439 Z" fill="#000000" fill-rule="nonzero" fill-opacity="1" /><path clip-path="url(#clip250)" d="M124.07 844.143 Q120.459 844.143 118.631 847.707 Q116.825 851.249 116.825 858.379 Q116.825 865.485 118.631 869.05 Q120.459 872.592 124.07 872.592 Q127.705 872.592 129.51 869.05 Q131.339 865.485 131.339 858.379 Q131.339 851.249 129.51 847.707 Q127.705 844.143 124.07 844.143 M124.07 840.439 Q129.881 840.439 132.936 845.045 Q136.015 849.629 136.015 858.379 Q136.015 867.105 132.936 871.712 Q129.881 876.295 124.07 876.295 Q118.26 876.295 115.182 871.712 Q112.126 867.105 112.126 858.379 Q112.126 849.629 115.182 845.045 Q118.26 840.439 124.07 840.439 Z" fill="#000000" fill-rule="nonzero" fill-opacity="1" /><path clip-path="url(#clip250)" d="M154.232 844.143 Q150.621 844.143 148.793 847.707 Q146.987 851.249 146.987 858.379 Q146.987 865.485 148.793 869.05 Q150.621 872.592 154.232 872.592 Q157.867 872.592 159.672 869.05 Q161.501 865.485 161.501 858.379 Q161.501 851.249 159.672 847.707 Q157.867 844.143 154.232 844.143 M154.232 840.439 Q160.042 840.439 163.098 845.045 Q166.177 849.629 166.177 858.379 Q166.177 867.105 163.098 871.712 Q160.042 876.295 154.232 876.295 Q148.422 876.295 145.343 871.712 Q142.288 867.105 142.288 858.379 Q142.288 849.629 145.343 845.045 Q148.422 840.439 154.232 840.439 Z" fill="#000000" fill-rule="nonzero" fill-opacity="1" /><path clip-path="url(#clip250)" d="M67.9133 563.157 Q71.2698 563.875 73.1448 566.143 Q75.0429 568.412 75.0429 571.745 Q75.0429 576.861 71.5244 579.662 Q68.0059 582.463 61.5245 582.463 Q59.3486 582.463 57.0338 582.023 Q54.7421 581.606 52.2884 580.75 L52.2884 576.236 Q54.2328 577.37 56.5477 577.949 Q58.8625 578.527 61.3856 578.527 Q65.7837 578.527 68.0754 576.791 Q70.3902 575.055 70.3902 571.745 Q70.3902 568.689 68.2374 566.977 Q66.1078 565.24 62.2884 565.24 L58.2606 565.24 L58.2606 561.398 L62.4735 561.398 Q65.9226 561.398 67.7513 560.032 Q69.58 558.643 69.58 556.051 Q69.58 553.389 67.6819 551.977 Q65.8069 550.541 62.2884 550.541 Q60.3671 550.541 58.168 550.958 Q55.969 551.375 53.3301 552.254 L53.3301 548.088 Q55.9921 547.347 58.3069 546.977 Q60.6449 546.606 62.705 546.606 Q68.0291 546.606 71.1309 549.037 Q74.2327 551.444 74.2327 555.565 Q74.2327 558.435 72.5892 560.426 Q70.9457 562.393 67.9133 563.157 Z" fill="#000000" fill-rule="nonzero" fill-opacity="1" /><path clip-path="url(#clip250)" d="M93.9086 550.31 Q90.2975 550.31 88.4688 553.875 Q86.6632 557.416 86.6632 564.546 Q86.6632 571.652 88.4688 575.217 Q90.2975 578.759 93.9086 578.759 Q97.5428 578.759 99.3483 575.217 Q101.177 571.652 101.177 564.546 Q101.177 557.416 99.3483 553.875 Q97.5428 550.31 93.9086 550.31 M93.9086 546.606 Q99.7187 546.606 102.774 551.213 Q105.853 555.796 105.853 564.546 Q105.853 573.273 102.774 577.879 Q99.7187 582.463 93.9086 582.463 Q88.0984 582.463 85.0197 577.879 Q81.9642 573.273 81.9642 564.546 Q81.9642 555.796 85.0197 551.213 Q88.0984 546.606 93.9086 546.606 Z" fill="#000000" fill-rule="nonzero" fill-opacity="1" /><path clip-path="url(#clip250)" d="M124.07 550.31 Q120.459 550.31 118.631 553.875 Q116.825 557.416 116.825 564.546 Q116.825 571.652 118.631 575.217 Q120.459 578.759 124.07 578.759 Q127.705 578.759 129.51 575.217 Q131.339 571.652 131.339 564.546 Q131.339 557.416 129.51 553.875 Q127.705 550.31 124.07 550.31 M124.07 546.606 Q129.881 546.606 132.936 551.213 Q136.015 555.796 136.015 564.546 Q136.015 573.273 132.936 577.879 Q129.881 582.463 124.07 582.463 Q118.26 582.463 115.182 577.879 Q112.126 573.273 112.126 564.546 Q112.126 555.796 115.182 551.213 Q118.26 546.606 124.07 546.606 Z" fill="#000000" fill-rule="nonzero" fill-opacity="1" /><path clip-path="url(#clip250)" d="M154.232 550.31 Q150.621 550.31 148.793 553.875 Q146.987 557.416 146.987 564.546 Q146.987 571.652 148.793 575.217 Q150.621 578.759 154.232 578.759 Q157.867 578.759 159.672 575.217 Q161.501 571.652 161.501 564.546 Q161.501 557.416 159.672 553.875 Q157.867 550.31 154.232 550.31 M154.232 546.606 Q160.042 546.606 163.098 551.213 Q166.177 555.796 166.177 564.546 Q166.177 573.273 163.098 577.879 Q160.042 582.463 154.232 582.463 Q148.422 582.463 145.343 577.879 Q142.288 573.273 142.288 564.546 Q142.288 555.796 145.343 551.213 Q148.422 546.606 154.232 546.606 Z" fill="#000000" fill-rule="nonzero" fill-opacity="1" /><path clip-path="url(#clip250)" d="M66.5939 257.473 L54.7884 275.922 L66.5939 275.922 L66.5939 257.473 M65.367 253.399 L71.2466 253.399 L71.2466 275.922 L76.1772 275.922 L76.1772 279.811 L71.2466 279.811 L71.2466 287.959 L66.5939 287.959 L66.5939 279.811 L50.9921 279.811 L50.9921 275.297 L65.367 253.399 Z" fill="#000000" fill-rule="nonzero" fill-opacity="1" /><path clip-path="url(#clip250)" d="M93.9086 256.477 Q90.2975 256.477 88.4688 260.042 Q86.6632 263.584 86.6632 270.713 Q86.6632 277.82 88.4688 281.385 Q90.2975 284.926 93.9086 284.926 Q97.5428 284.926 99.3483 281.385 Q101.177 277.82 101.177 270.713 Q101.177 263.584 99.3483 260.042 Q97.5428 256.477 93.9086 256.477 M93.9086 252.774 Q99.7187 252.774 102.774 257.38 Q105.853 261.963 105.853 270.713 Q105.853 279.44 102.774 284.047 Q99.7187 288.63 93.9086 288.63 Q88.0984 288.63 85.0197 284.047 Q81.9642 279.44 81.9642 270.713 Q81.9642 261.963 85.0197 257.38 Q88.0984 252.774 93.9086 252.774 Z" fill="#000000" fill-rule="nonzero" fill-opacity="1" /><path clip-path="url(#clip250)" d="M124.07 256.477 Q120.459 256.477 118.631 260.042 Q116.825 263.584 116.825 270.713 Q116.825 277.82 118.631 281.385 Q120.459 284.926 124.07 284.926 Q127.705 284.926 129.51 281.385 Q131.339 277.82 131.339 270.713 Q131.339 263.584 129.51 260.042 Q127.705 256.477 124.07 256.477 M124.07 252.774 Q129.881 252.774 132.936 257.38 Q136.015 261.963 136.015 270.713 Q136.015 279.44 132.936 284.047 Q129.881 288.63 124.07 288.63 Q118.26 288.63 115.182 284.047 Q112.126 279.44 112.126 270.713 Q112.126 261.963 115.182 257.38 Q118.26 252.774 124.07 252.774 Z" fill="#000000" fill-rule="nonzero" fill-opacity="1" /><path clip-path="url(#clip250)" d="M154.232 256.477 Q150.621 256.477 148.793 260.042 Q146.987 263.584 146.987 270.713 Q146.987 277.82 148.793 281.385 Q150.621 284.926 154.232 284.926 Q157.867 284.926 159.672 281.385 Q161.501 277.82 161.501 270.713 Q161.501 263.584 159.672 260.042 Q157.867 256.477 154.232 256.477 M154.232 252.774 Q160.042 252.774 163.098 257.38 Q166.177 261.963 166.177 270.713 Q166.177 279.44 163.098 284.047 Q160.042 288.63 154.232 288.63 Q148.422 288.63 145.343 284.047 Q142.288 279.44 142.288 270.713 Q142.288 261.963 145.343 257.38 Q148.422 252.774 154.232 252.774 Z" fill="#000000" fill-rule="nonzero" fill-opacity="1" /><circle clip-path="url(#clip252)" cx="263.042" cy="87.9763" r="14.4" fill="#009af9" fill-rule="evenodd" fill-opacity="1" stroke="#000000" stroke-opacity="1" stroke-width="3.2"/>
<circle clip-path="url(#clip252)" cx="1277.47" cy="1445.72" r="14.4" fill="#009af9" fill-rule="evenodd" fill-opacity="1" stroke="#000000" stroke-opacity="1" stroke-width="3.2"/>
<circle clip-path="url(#clip252)" cx="2291.89" cy="1445.71" r="14.4" fill="#009af9" fill-rule="evenodd" fill-opacity="1" stroke="#000000" stroke-opacity="1" stroke-width="3.2"/>
<polyline clip-path="url(#clip252)" style="stroke:#000000; stroke-linecap:round; stroke-linejoin:round; stroke-width:4; stroke-opacity:1; fill:none" stroke-dasharray="16, 10" points="-1948.4,1445.72 4503.34,1445.72 "/>
<path clip-path="url(#clip250)" d="M1827.96 198.898 L2281.07 198.898 L2281.07 95.2176 L1827.96 95.2176  Z" fill="#ffffff" fill-rule="evenodd" fill-opacity="1"/>
<polyline clip-path="url(#clip250)" style="stroke:#000000; stroke-linecap:round; stroke-linejoin:round; stroke-width:4; stroke-opacity:1; fill:none" points="1827.96,198.898 2281.07,198.898 2281.07,95.2176 1827.96,95.2176 1827.96,198.898 "/>
<polyline clip-path="url(#clip250)" style="stroke:#000000; stroke-linecap:round; stroke-linejoin:round; stroke-width:4; stroke-opacity:1; fill:none" stroke-dasharray="16, 10" points="1851.85,147.058 1995.23,147.058 "/>
<path clip-path="url(#clip250)" d="M2026.53 131.051 L2026.53 138.412 L2035.3 138.412 L2035.3 141.722 L2026.53 141.722 L2026.53 155.796 Q2026.53 158.967 2027.38 159.87 Q2028.26 160.773 2030.93 160.773 L2035.3 160.773 L2035.3 164.338 L2030.93 164.338 Q2026 164.338 2024.12 162.509 Q2022.25 160.657 2022.25 155.796 L2022.25 141.722 L2019.12 141.722 L2019.12 138.412 L2022.25 138.412 L2022.25 131.051 L2026.53 131.051 Z" fill="#000000" fill-rule="nonzero" fill-opacity="1" /><path clip-path="url(#clip250)" d="M2055.93 142.393 Q2055.21 141.977 2054.35 141.791 Q2053.52 141.583 2052.5 141.583 Q2048.89 141.583 2046.94 143.944 Q2045.02 146.282 2045.02 150.68 L2045.02 164.338 L2040.74 164.338 L2040.74 138.412 L2045.02 138.412 L2045.02 142.44 Q2046.37 140.078 2048.52 138.944 Q2050.67 137.787 2053.75 137.787 Q2054.19 137.787 2054.72 137.856 Q2055.25 137.903 2055.9 138.018 L2055.93 142.393 Z" fill="#000000" fill-rule="nonzero" fill-opacity="1" /><path clip-path="url(#clip250)" d="M2059.95 154.106 L2059.95 138.412 L2064.21 138.412 L2064.21 153.944 Q2064.21 157.625 2065.65 159.476 Q2067.08 161.305 2069.95 161.305 Q2073.4 161.305 2075.39 159.106 Q2077.41 156.907 2077.41 153.111 L2077.41 138.412 L2081.67 138.412 L2081.67 164.338 L2077.41 164.338 L2077.41 160.356 Q2075.86 162.717 2073.8 163.875 Q2071.76 165.009 2069.05 165.009 Q2064.58 165.009 2062.27 162.231 Q2059.95 159.453 2059.95 154.106 M2070.67 137.787 L2070.67 137.787 Z" fill="#000000" fill-rule="nonzero" fill-opacity="1" /><path clip-path="url(#clip250)" d="M2112.62 150.31 L2112.62 152.393 L2093.03 152.393 Q2093.31 156.791 2095.67 159.106 Q2098.06 161.398 2102.29 161.398 Q2104.74 161.398 2107.04 160.796 Q2109.35 160.194 2111.62 158.99 L2111.62 163.018 Q2109.33 163.99 2106.92 164.5 Q2104.51 165.009 2102.04 165.009 Q2095.83 165.009 2092.2 161.398 Q2088.59 157.787 2088.59 151.629 Q2088.59 145.264 2092.01 141.537 Q2095.46 137.787 2101.3 137.787 Q2106.53 137.787 2109.56 141.166 Q2112.62 144.523 2112.62 150.31 M2108.36 149.06 Q2108.31 145.565 2106.39 143.481 Q2104.49 141.398 2101.34 141.398 Q2097.78 141.398 2095.62 143.412 Q2093.49 145.426 2093.17 149.083 L2108.36 149.06 Z" fill="#000000" fill-rule="nonzero" fill-opacity="1" /><path clip-path="url(#clip250)" d="M2131.62 138.412 L2136.13 138.412 L2144.24 160.171 L2152.34 138.412 L2156.85 138.412 L2147.13 164.338 L2141.34 164.338 L2131.62 138.412 Z" fill="#000000" fill-rule="nonzero" fill-opacity="1" /><path clip-path="url(#clip250)" d="M2174.51 151.305 Q2169.35 151.305 2167.36 152.486 Q2165.37 153.666 2165.37 156.514 Q2165.37 158.782 2166.85 160.125 Q2168.36 161.444 2170.93 161.444 Q2174.47 161.444 2176.6 158.944 Q2178.75 156.421 2178.75 152.254 L2178.75 151.305 L2174.51 151.305 M2183.01 149.546 L2183.01 164.338 L2178.75 164.338 L2178.75 160.402 Q2177.29 162.763 2175.11 163.898 Q2172.94 165.009 2169.79 165.009 Q2165.81 165.009 2163.45 162.787 Q2161.11 160.541 2161.11 156.791 Q2161.11 152.416 2164.03 150.194 Q2166.97 147.972 2172.78 147.972 L2178.75 147.972 L2178.75 147.555 Q2178.75 144.615 2176.8 143.018 Q2174.88 141.398 2171.39 141.398 Q2169.17 141.398 2167.06 141.93 Q2164.95 142.463 2163.01 143.527 L2163.01 139.592 Q2165.35 138.69 2167.55 138.25 Q2169.74 137.787 2171.83 137.787 Q2177.45 137.787 2180.23 140.703 Q2183.01 143.62 2183.01 149.546 Z" fill="#000000" fill-rule="nonzero" fill-opacity="1" /><path clip-path="url(#clip250)" d="M2191.78 128.319 L2196.04 128.319 L2196.04 164.338 L2191.78 164.338 L2191.78 128.319 Z" fill="#000000" fill-rule="nonzero" fill-opacity="1" /><path clip-path="url(#clip250)" d="M2204.51 154.106 L2204.51 138.412 L2208.77 138.412 L2208.77 153.944 Q2208.77 157.625 2210.21 159.476 Q2211.64 161.305 2214.51 161.305 Q2217.96 161.305 2219.95 159.106 Q2221.97 156.907 2221.97 153.111 L2221.97 138.412 L2226.23 138.412 L2226.23 164.338 L2221.97 164.338 L2221.97 160.356 Q2220.42 162.717 2218.36 163.875 Q2216.32 165.009 2213.61 165.009 Q2209.14 165.009 2206.83 162.231 Q2204.51 159.453 2204.51 154.106 M2215.23 137.787 L2215.23 137.787 Z" fill="#000000" fill-rule="nonzero" fill-opacity="1" /><path clip-path="url(#clip250)" d="M2257.17 150.31 L2257.17 152.393 L2237.59 152.393 Q2237.87 156.791 2240.23 159.106 Q2242.61 161.398 2246.85 161.398 Q2249.3 161.398 2251.6 160.796 Q2253.91 160.194 2256.18 158.99 L2256.18 163.018 Q2253.89 163.99 2251.48 164.5 Q2249.07 165.009 2246.6 165.009 Q2240.39 165.009 2236.76 161.398 Q2233.15 157.787 2233.15 151.629 Q2233.15 145.264 2236.57 141.537 Q2240.02 137.787 2245.86 137.787 Q2251.09 137.787 2254.12 141.166 Q2257.17 144.523 2257.17 150.31 M2252.92 149.06 Q2252.87 145.565 2250.95 143.481 Q2249.05 141.398 2245.9 141.398 Q2242.34 141.398 2240.18 143.412 Q2238.05 145.426 2237.73 149.083 L2252.92 149.06 Z" fill="#000000" fill-rule="nonzero" fill-opacity="1" /></svg>
