<?xml version="1.0" encoding="utf-8"?>
<svg xmlns="http://www.w3.org/2000/svg" xmlns:xlink="http://www.w3.org/1999/xlink" width="600" height="400" viewBox="0 0 2400 1600">
<defs>
  <clipPath id="clip730">
    <rect x="0" y="0" width="2400" height="1600"/>
  </clipPath>
</defs>
<path clip-path="url(#clip730)" d="M0 1600 L2400 1600 L2400 0 L0 0  Z" fill="#ffffff" fill-rule="evenodd" fill-opacity="1"/>
<defs>
  <clipPath id="clip731">
    <rect x="186" y="47" width="2167" height="1440"/>
  </clipPath>
</defs>
<path clip-path="url(#clip730)" d="M186.76 1486.45 L2352.76 1486.45 L2352.76 47.2441 L186.76 47.2441  Z" fill="#ffffff" fill-rule="evenodd" fill-opacity="1"/>
<polyline clip-path="url(#clip731)" style="stroke:#000000; stroke-linecap:round; stroke-linejoin:round; stroke-width:2; stroke-opacity:0.1; fill:none" points="230.715,1486.45 230.715,47.2441 "/>
<polyline clip-path="url(#clip731)" style="stroke:#000000; stroke-linecap:round; stroke-linejoin:round; stroke-width:2; stroke-opacity:0.1; fill:none" points="664.38,1486.45 664.38,47.2441 "/>
<polyline clip-path="url(#clip731)" style="stroke:#000000; stroke-linecap:round; stroke-linejoin:round; stroke-width:2; stroke-opacity:0.1; fill:none" points="1098.04,1486.45 1098.04,47.2441 "/>
<polyline clip-path="url(#clip731)" style="stroke:#000000; stroke-linecap:round; stroke-linejoin:round; stroke-width:2; stroke-opacity:0.1; fill:none" points="1531.71,1486.45 1531.71,47.2441 "/>
<polyline clip-path="url(#clip731)" style="stroke:#000000; stroke-linecap:round; stroke-linejoin:round; stroke-width:2; stroke-opacity:0.1; fill:none" points="1965.37,1486.45 1965.37,47.2441 "/>
<polyline clip-path="url(#clip731)" style="stroke:#000000; stroke-linecap:round; stroke-linejoin:round; stroke-width:2; stroke-opacity:0.1; fill:none" points="186.76,1445.72 2352.76,1445.72 "/>
<polyline clip-path="url(#clip731)" style="stroke:#000000; stroke-linecap:round; stroke-linejoin:round; stroke-width:2; stroke-opacity:0.1; fill:none" points="186.76,1067.12 2352.76,1067.12 "/>
<polyline clip-path="url(#clip731)" style="stroke:#000000; stroke-linecap:round; stroke-linejoin:round; stroke-width:2; stroke-opacity:0.1; fill:none" points="186.76,688.525 2352.76,688.525 "/>
<polyline clip-path="url(#clip731)" style="stroke:#000000; stroke-linecap:round; stroke-linejoin:round; stroke-width:2; stroke-opacity:0.1; fill:none" points="186.76,309.929 2352.76,309.929 "/>
<polyline clip-path="url(#clip730)" style="stroke:#000000; stroke-linecap:round; stroke-linejoin:round; stroke-width:4; stroke-opacity:1; fill:none" points="186.76,1486.45 2352.76,1486.45 "/>
<polyline clip-path="url(#clip730)" style="stroke:#000000; stroke-linecap:round; stroke-linejoin:round; stroke-width:4; stroke-opacity:1; fill:none" points="230.715,1486.45 230.715,1467.55 "/>
<polyline clip-path="url(#clip730)" style="stroke:#000000; stroke-linecap:round; stroke-linejoin:round; stroke-width:4; stroke-opacity:1; fill:none" points="664.38,1486.45 664.38,1467.55 "/>
<polyline clip-path="url(#clip730)" style="stroke:#000000; stroke-linecap:round; stroke-linejoin:round; stroke-width:4; stroke-opacity:1; fill:none" points="1098.04,1486.45 1098.04,1467.55 "/>
<polyline clip-path="url(#clip730)" style="stroke:#000000; stroke-linecap:round; stroke-linejoin:round; stroke-width:4; stroke-opacity:1; fill:none" points="1531.71,1486.45 1531.71,1467.55 "/>
<polyline clip-path="url(#clip730)" style="stroke:#000000; stroke-linecap:round; stroke-linejoin:round; stroke-width:4; stroke-opacity:1; fill:none" points="1965.37,1486.45 1965.37,1467.55 "/>
<path clip-path="url(#clip730)" d="M208.1 1517.37 Q204.489 1517.37 202.66 1520.93 Q200.854 1524.47 200.854 1531.6 Q200.854 1538.71 202.66 1542.27 Q204.489 1545.82 208.1 1545.82 Q211.734 1545.82 213.539 1542.27 Q215.368 1538.71 215.368 1531.6 Q215.368 1524.47 213.539 1520.93 Q211.734 1517.37 208.1 1517.37 M208.1 1513.66 Q213.91 1513.66 216.965 1518.27 Q220.044 1522.85 220.044 1531.6 Q220.044 1540.33 216.965 1544.94 Q213.91 1549.52 208.1 1549.52 Q202.29 1549.52 199.211 1544.94 Q196.155 1540.33 196.155 1531.6 Q196.155 1522.85 199.211 1518.27 Q202.29 1513.66 208.1 1513.66 Z" fill="#000000" fill-rule="nonzero" fill-opacity="1" /><path clip-path="url(#clip730)" d="M228.262 1542.97 L233.146 1542.97 L233.146 1548.85 L228.262 1548.85 L228.262 1542.97 Z" fill="#000000" fill-rule="nonzero" fill-opacity="1" /><path clip-path="url(#clip730)" d="M253.331 1517.37 Q249.72 1517.37 247.891 1520.93 Q246.086 1524.47 246.086 1531.6 Q246.086 1538.71 247.891 1542.27 Q249.72 1545.82 253.331 1545.82 Q256.965 1545.82 258.771 1542.27 Q260.599 1538.71 260.599 1531.6 Q260.599 1524.47 258.771 1520.93 Q256.965 1517.37 253.331 1517.37 M253.331 1513.66 Q259.141 1513.66 262.197 1518.27 Q265.275 1522.85 265.275 1531.6 Q265.275 1540.33 262.197 1544.94 Q259.141 1549.52 253.331 1549.52 Q247.521 1549.52 244.442 1544.94 Q241.387 1540.33 241.387 1531.6 Q241.387 1522.85 244.442 1518.27 Q247.521 1513.66 253.331 1513.66 Z" fill="#000000" fill-rule="nonzero" fill-opacity="1" /><path clip-path="url(#clip730)" d="M636.116 1544.91 L652.435 1544.91 L652.435 1548.85 L630.491 1548.85 L630.491 1544.91 Q633.153 1542.16 637.736 1537.53 Q642.343 1532.88 643.523 1531.53 Q645.769 1529.01 646.648 1527.27 Q647.551 1525.51 647.551 1523.82 Q647.551 1521.07 645.607 1519.33 Q643.686 1517.6 640.584 1517.6 Q638.385 1517.6 635.931 1518.36 Q633.5 1519.13 630.723 1520.68 L630.723 1515.95 Q633.547 1514.82 636 1514.24 Q638.454 1513.66 640.491 1513.66 Q645.861 1513.66 649.056 1516.35 Q652.25 1519.03 652.25 1523.52 Q652.25 1525.65 651.44 1527.57 Q650.653 1529.47 648.547 1532.07 Q647.968 1532.74 644.866 1535.95 Q641.764 1539.15 636.116 1544.91 Z" fill="#000000" fill-rule="nonzero" fill-opacity="1" /><path clip-path="url(#clip730)" d="M662.25 1542.97 L667.134 1542.97 L667.134 1548.85 L662.25 1548.85 L662.25 1542.97 Z" fill="#000000" fill-rule="nonzero" fill-opacity="1" /><path clip-path="url(#clip730)" d="M677.366 1514.29 L695.722 1514.29 L695.722 1518.22 L681.648 1518.22 L681.648 1526.7 Q682.667 1526.35 683.685 1526.19 Q684.704 1526 685.722 1526 Q691.509 1526 694.889 1529.17 Q698.269 1532.34 698.269 1537.76 Q698.269 1543.34 694.796 1546.44 Q691.324 1549.52 685.005 1549.52 Q682.829 1549.52 680.56 1549.15 Q678.315 1548.78 675.908 1548.04 L675.908 1543.34 Q677.991 1544.47 680.213 1545.03 Q682.435 1545.58 684.912 1545.58 Q688.917 1545.58 691.255 1543.48 Q693.593 1541.37 693.593 1537.76 Q693.593 1534.15 691.255 1532.04 Q688.917 1529.94 684.912 1529.94 Q683.037 1529.94 681.162 1530.35 Q679.31 1530.77 677.366 1531.65 L677.366 1514.29 Z" fill="#000000" fill-rule="nonzero" fill-opacity="1" /><path clip-path="url(#clip730)" d="M1065.21 1514.29 L1083.57 1514.29 L1083.57 1518.22 L1069.49 1518.22 L1069.49 1526.7 Q1070.51 1526.35 1071.53 1526.19 Q1072.55 1526 1073.57 1526 Q1079.35 1526 1082.73 1529.17 Q1086.11 1532.34 1086.11 1537.76 Q1086.11 1543.34 1082.64 1546.44 Q1079.17 1549.52 1072.85 1549.52 Q1070.67 1549.52 1068.4 1549.15 Q1066.16 1548.78 1063.75 1548.04 L1063.75 1543.34 Q1065.83 1544.47 1068.06 1545.03 Q1070.28 1545.58 1072.76 1545.58 Q1076.76 1545.58 1079.1 1543.48 Q1081.44 1541.37 1081.44 1537.76 Q1081.44 1534.15 1079.1 1532.04 Q1076.76 1529.94 1072.76 1529.94 Q1070.88 1529.94 1069.01 1530.35 Q1067.15 1530.77 1065.21 1531.65 L1065.21 1514.29 Z" fill="#000000" fill-rule="nonzero" fill-opacity="1" /><path clip-path="url(#clip730)" d="M1095.32 1542.97 L1100.21 1542.97 L1100.21 1548.85 L1095.32 1548.85 L1095.32 1542.97 Z" fill="#000000" fill-rule="nonzero" fill-opacity="1" /><path clip-path="url(#clip730)" d="M1120.39 1517.37 Q1116.78 1517.37 1114.95 1520.93 Q1113.15 1524.47 1113.15 1531.6 Q1113.15 1538.71 1114.95 1542.27 Q1116.78 1545.82 1120.39 1545.82 Q1124.03 1545.82 1125.83 1542.27 Q1127.66 1538.71 1127.66 1531.6 Q1127.66 1524.47 1125.83 1520.93 Q1124.03 1517.37 1120.39 1517.37 M1120.39 1513.66 Q1126.2 1513.66 1129.26 1518.27 Q1132.34 1522.85 1132.34 1531.6 Q1132.34 1540.33 1129.26 1544.94 Q1126.2 1549.52 1120.39 1549.52 Q1114.58 1549.52 1111.5 1544.94 Q1108.45 1540.33 1108.45 1531.6 Q1108.45 1522.85 1111.5 1518.27 Q1114.58 1513.66 1120.39 1513.66 Z" fill="#000000" fill-rule="nonzero" fill-opacity="1" /><path clip-path="url(#clip730)" d="M1498.03 1514.29 L1520.25 1514.29 L1520.25 1516.28 L1507.7 1548.85 L1502.82 1548.85 L1514.63 1518.22 L1498.03 1518.22 L1498.03 1514.29 Z" fill="#000000" fill-rule="nonzero" fill-opacity="1" /><path clip-path="url(#clip730)" d="M1529.37 1542.97 L1534.26 1542.97 L1534.26 1548.85 L1529.37 1548.85 L1529.37 1542.97 Z" fill="#000000" fill-rule="nonzero" fill-opacity="1" /><path clip-path="url(#clip730)" d="M1544.49 1514.29 L1562.84 1514.29 L1562.84 1518.22 L1548.77 1518.22 L1548.77 1526.7 Q1549.79 1526.35 1550.81 1526.19 Q1551.82 1526 1552.84 1526 Q1558.63 1526 1562.01 1529.17 Q1565.39 1532.34 1565.39 1537.76 Q1565.39 1543.34 1561.92 1546.44 Q1558.44 1549.52 1552.13 1549.52 Q1549.95 1549.52 1547.68 1549.15 Q1545.44 1548.78 1543.03 1548.04 L1543.03 1543.34 Q1545.11 1544.47 1547.33 1545.03 Q1549.56 1545.58 1552.03 1545.58 Q1556.04 1545.58 1558.38 1543.48 Q1560.71 1541.37 1560.71 1537.76 Q1560.71 1534.15 1558.38 1532.04 Q1556.04 1529.94 1552.03 1529.94 Q1550.16 1529.94 1548.28 1530.35 Q1546.43 1530.77 1544.49 1531.65 L1544.49 1514.29 Z" fill="#000000" fill-rule="nonzero" fill-opacity="1" /><path clip-path="url(#clip730)" d="M1917.45 1544.91 L1925.08 1544.91 L1925.08 1518.55 L1916.77 1520.21 L1916.77 1515.95 L1925.04 1514.29 L1929.71 1514.29 L1929.71 1544.91 L1937.35 1544.91 L1937.35 1548.85 L1917.45 1548.85 L1917.45 1544.91 Z" fill="#000000" fill-rule="nonzero" fill-opacity="1" /><path clip-path="url(#clip730)" d="M1956.8 1517.37 Q1953.19 1517.37 1951.36 1520.93 Q1949.55 1524.47 1949.55 1531.6 Q1949.55 1538.71 1951.36 1542.27 Q1953.19 1545.82 1956.8 1545.82 Q1960.43 1545.82 1962.24 1542.27 Q1964.07 1538.71 1964.07 1531.6 Q1964.07 1524.47 1962.24 1520.93 Q1960.43 1517.37 1956.8 1517.37 M1956.8 1513.66 Q1962.61 1513.66 1965.66 1518.27 Q1968.74 1522.85 1968.74 1531.6 Q1968.74 1540.33 1965.66 1544.94 Q1962.61 1549.52 1956.8 1549.52 Q1950.99 1549.52 1947.91 1544.94 Q1944.85 1540.33 1944.85 1531.6 Q1944.85 1522.85 1947.91 1518.27 Q1950.99 1513.66 1956.8 1513.66 Z" fill="#000000" fill-rule="nonzero" fill-opacity="1" /><path clip-path="url(#clip730)" d="M1976.96 1542.97 L1981.84 1542.97 L1981.84 1548.85 L1976.96 1548.85 L1976.96 1542.97 Z" fill="#000000" fill-rule="nonzero" fill-opacity="1" /><path clip-path="url(#clip730)" d="M2002.03 1517.37 Q1998.42 1517.37 1996.59 1520.93 Q1994.78 1524.47 1994.78 1531.6 Q1994.78 1538.71 1996.59 1542.27 Q1998.42 1545.82 2002.03 1545.82 Q2005.66 1545.82 2007.47 1542.27 Q2009.3 1538.71 2009.3 1531.6 Q2009.3 1524.47 2007.47 1520.93 Q2005.66 1517.37 2002.03 1517.37 M2002.03 1513.66 Q2007.84 1513.66 2010.89 1518.27 Q2013.97 1522.85 2013.97 1531.6 Q2013.97 1540.33 2010.89 1544.94 Q2007.84 1549.52 2002.03 1549.52 Q1996.22 1549.52 1993.14 1544.94 Q1990.08 1540.33 1990.08 1531.6 Q1990.08 1522.85 1993.14 1518.27 Q1996.22 1513.66 2002.03 1513.66 Z" fill="#000000" fill-rule="nonzero" fill-opacity="1" /><polyline clip-path="url(#clip730)" style="stroke:#000000; stroke-linecap:round; stroke-linejoin:round; stroke-width:4; stroke-opacity:1; fill:none" points="186.76,1486.45 186.76,47.2441 "/>
<polyline clip-path="url(#clip730)" style="stroke:#000000; stroke-linecap:round; stroke-linejoin:round; stroke-width:4; stroke-opacity:1; fill:none" points="186.76,1445.72 205.658,1445.72 "/>
<polyline clip-path="url(#clip730)" style="stroke:#000000; stroke-linecap:round; stroke-linejoin:round; stroke-width:4; stroke-opacity:1; fill:none" points="186.76,1067.12 205.658,1067.12 "/>
<polyline clip-path="url(#clip730)" style="stroke:#000000; stroke-linecap:round; stroke-linejoin:round; stroke-width:4; stroke-opacity:1; fill:none" points="186.76,688.525 205.658,688.525 "/>
<polyline clip-path="url(#clip730)" style="stroke:#000000; stroke-linecap:round; stroke-linejoin:round; stroke-width:4; stroke-opacity:1; fill:none" points="186.76,309.929 205.658,309.929 "/>
<path clip-path="url(#clip730)" d="M63.4226 1431.51 Q59.8115 1431.51 57.9828 1435.08 Q56.1773 1438.62 56.1773 1445.75 Q56.1773 1452.86 57.9828 1456.42 Q59.8115 1459.96 63.4226 1459.96 Q67.0569 1459.96 68.8624 1456.42 Q70.6911 1452.86 70.6911 1445.75 Q70.6911 1438.62 68.8624 1435.08 Q67.0569 1431.51 63.4226 1431.51 M63.4226 1427.81 Q69.2328 1427.81 72.2883 1432.42 Q75.367 1437 75.367 1445.75 Q75.367 1454.48 72.2883 1459.08 Q69.2328 1463.67 63.4226 1463.67 Q57.6125 1463.67 54.5338 1459.08 Q51.4782 1454.48 51.4782 1445.75 Q51.4782 1437 54.5338 1432.42 Q57.6125 1427.81 63.4226 1427.81 Z" fill="#000000" fill-rule="nonzero" fill-opacity="1" /><path clip-path="url(#clip730)" d="M83.5845 1457.12 L88.4688 1457.12 L88.4688 1463 L83.5845 1463 L83.5845 1457.12 Z" fill="#000000" fill-rule="nonzero" fill-opacity="1" /><path clip-path="url(#clip730)" d="M108.654 1431.51 Q105.043 1431.51 103.214 1435.08 Q101.409 1438.62 101.409 1445.75 Q101.409 1452.86 103.214 1456.42 Q105.043 1459.96 108.654 1459.96 Q112.288 1459.96 114.094 1456.42 Q115.922 1452.86 115.922 1445.75 Q115.922 1438.62 114.094 1435.08 Q112.288 1431.51 108.654 1431.51 M108.654 1427.81 Q114.464 1427.81 117.52 1432.42 Q120.598 1437 120.598 1445.75 Q120.598 1454.48 117.52 1459.08 Q114.464 1463.67 108.654 1463.67 Q102.844 1463.67 99.765 1459.08 Q96.7095 1454.48 96.7095 1445.75 Q96.7095 1437 99.765 1432.42 Q102.844 1427.81 108.654 1427.81 Z" fill="#000000" fill-rule="nonzero" fill-opacity="1" /><path clip-path="url(#clip730)" d="M138.816 1431.51 Q135.205 1431.51 133.376 1435.08 Q131.57 1438.62 131.57 1445.75 Q131.57 1452.86 133.376 1456.42 Q135.205 1459.96 138.816 1459.96 Q142.45 1459.96 144.256 1456.42 Q146.084 1452.86 146.084 1445.75 Q146.084 1438.62 144.256 1435.08 Q142.45 1431.51 138.816 1431.51 M138.816 1427.81 Q144.626 1427.81 147.681 1432.42 Q150.76 1437 150.76 1445.75 Q150.76 1454.48 147.681 1459.08 Q144.626 1463.67 138.816 1463.67 Q133.006 1463.67 129.927 1459.08 Q126.871 1454.48 126.871 1445.75 Q126.871 1437 129.927 1432.42 Q133.006 1427.81 138.816 1427.81 Z" fill="#000000" fill-rule="nonzero" fill-opacity="1" /><path clip-path="url(#clip730)" d="M65.0198 1052.92 Q61.4087 1052.92 59.58 1056.48 Q57.7745 1060.03 57.7745 1067.15 Q57.7745 1074.26 59.58 1077.83 Q61.4087 1081.37 65.0198 1081.37 Q68.6541 1081.37 70.4596 1077.83 Q72.2883 1074.26 72.2883 1067.15 Q72.2883 1060.03 70.4596 1056.48 Q68.6541 1052.92 65.0198 1052.92 M65.0198 1049.22 Q70.83 1049.22 73.8855 1053.82 Q76.9642 1058.4 76.9642 1067.15 Q76.9642 1075.88 73.8855 1080.49 Q70.83 1085.07 65.0198 1085.07 Q59.2097 1085.07 56.131 1080.49 Q53.0754 1075.88 53.0754 1067.15 Q53.0754 1058.4 56.131 1053.82 Q59.2097 1049.22 65.0198 1049.22 Z" fill="#000000" fill-rule="nonzero" fill-opacity="1" /><path clip-path="url(#clip730)" d="M85.1818 1078.52 L90.066 1078.52 L90.066 1084.4 L85.1818 1084.4 L85.1818 1078.52 Z" fill="#000000" fill-rule="nonzero" fill-opacity="1" /><path clip-path="url(#clip730)" d="M110.251 1052.92 Q106.64 1052.92 104.811 1056.48 Q103.006 1060.03 103.006 1067.15 Q103.006 1074.26 104.811 1077.83 Q106.64 1081.37 110.251 1081.37 Q113.885 1081.37 115.691 1077.83 Q117.52 1074.26 117.52 1067.15 Q117.52 1060.03 115.691 1056.48 Q113.885 1052.92 110.251 1052.92 M110.251 1049.22 Q116.061 1049.22 119.117 1053.82 Q122.195 1058.4 122.195 1067.15 Q122.195 1075.88 119.117 1080.49 Q116.061 1085.07 110.251 1085.07 Q104.441 1085.07 101.362 1080.49 Q98.3067 1075.88 98.3067 1067.15 Q98.3067 1058.4 101.362 1053.82 Q104.441 1049.22 110.251 1049.22 Z" fill="#000000" fill-rule="nonzero" fill-opacity="1" /><path clip-path="url(#clip730)" d="M134.441 1080.47 L150.76 1080.47 L150.76 1084.4 L128.816 1084.4 L128.816 1080.47 Q131.478 1077.71 136.061 1073.08 Q140.668 1068.43 141.848 1067.09 Q144.093 1064.56 144.973 1062.83 Q145.876 1061.07 145.876 1059.38 Q145.876 1056.62 143.931 1054.89 Q142.01 1053.15 138.908 1053.15 Q136.709 1053.15 134.256 1053.91 Q131.825 1054.68 129.047 1056.23 L129.047 1051.51 Q131.871 1050.37 134.325 1049.79 Q136.779 1049.22 138.816 1049.22 Q144.186 1049.22 147.38 1051.9 Q150.575 1054.59 150.575 1059.08 Q150.575 1061.21 149.765 1063.13 Q148.978 1065.03 146.871 1067.62 Q146.293 1068.29 143.191 1071.51 Q140.089 1074.7 134.441 1080.47 Z" fill="#000000" fill-rule="nonzero" fill-opacity="1" /><path clip-path="url(#clip730)" d="M62.9365 674.323 Q59.3254 674.323 57.4967 677.888 Q55.6912 681.43 55.6912 688.559 Q55.6912 695.666 57.4967 699.231 Q59.3254 702.772 62.9365 702.772 Q66.5707 702.772 68.3763 699.231 Q70.205 695.666 70.205 688.559 Q70.205 681.43 68.3763 677.888 Q66.5707 674.323 62.9365 674.323 M62.9365 670.62 Q68.7467 670.62 71.8022 675.226 Q74.8809 679.809 74.8809 688.559 Q74.8809 697.286 71.8022 701.893 Q68.7467 706.476 62.9365 706.476 Q57.1264 706.476 54.0477 701.893 Q50.9921 697.286 50.9921 688.559 Q50.9921 679.809 54.0477 675.226 Q57.1264 670.62 62.9365 670.62 Z" fill="#000000" fill-rule="nonzero" fill-opacity="1" /><path clip-path="url(#clip730)" d="M83.0984 699.925 L87.9827 699.925 L87.9827 705.805 L83.0984 705.805 L83.0984 699.925 Z" fill="#000000" fill-rule="nonzero" fill-opacity="1" /><path clip-path="url(#clip730)" d="M108.168 674.323 Q104.557 674.323 102.728 677.888 Q100.922 681.43 100.922 688.559 Q100.922 695.666 102.728 699.231 Q104.557 702.772 108.168 702.772 Q111.802 702.772 113.608 699.231 Q115.436 695.666 115.436 688.559 Q115.436 681.43 113.608 677.888 Q111.802 674.323 108.168 674.323 M108.168 670.62 Q113.978 670.62 117.033 675.226 Q120.112 679.809 120.112 688.559 Q120.112 697.286 117.033 701.893 Q113.978 706.476 108.168 706.476 Q102.358 706.476 99.2789 701.893 Q96.2234 697.286 96.2234 688.559 Q96.2234 679.809 99.2789 675.226 Q102.358 670.62 108.168 670.62 Z" fill="#000000" fill-rule="nonzero" fill-opacity="1" /><path clip-path="url(#clip730)" d="M141.177 675.319 L129.371 693.768 L141.177 693.768 L141.177 675.319 M139.95 671.245 L145.83 671.245 L145.83 693.768 L150.76 693.768 L150.76 697.657 L145.83 697.657 L145.83 705.805 L141.177 705.805 L141.177 697.657 L125.575 697.657 L125.575 693.143 L139.95 671.245 Z" fill="#000000" fill-rule="nonzero" fill-opacity="1" /><path clip-path="url(#clip730)" d="M63.2606 295.728 Q59.6495 295.728 57.8208 299.293 Q56.0152 302.834 56.0152 309.964 Q56.0152 317.07 57.8208 320.635 Q59.6495 324.177 63.2606 324.177 Q66.8948 324.177 68.7004 320.635 Q70.5291 317.07 70.5291 309.964 Q70.5291 302.834 68.7004 299.293 Q66.8948 295.728 63.2606 295.728 M63.2606 292.024 Q69.0707 292.024 72.1263 296.631 Q75.205 301.214 75.205 309.964 Q75.205 318.691 72.1263 323.297 Q69.0707 327.881 63.2606 327.881 Q57.4504 327.881 54.3717 323.297 Q51.3162 318.691 51.3162 309.964 Q51.3162 301.214 54.3717 296.631 Q57.4504 292.024 63.2606 292.024 Z" fill="#000000" fill-rule="nonzero" fill-opacity="1" /><path clip-path="url(#clip730)" d="M83.4225 321.33 L88.3067 321.33 L88.3067 327.209 L83.4225 327.209 L83.4225 321.33 Z" fill="#000000" fill-rule="nonzero" fill-opacity="1" /><path clip-path="url(#clip730)" d="M108.492 295.728 Q104.881 295.728 103.052 299.293 Q101.246 302.834 101.246 309.964 Q101.246 317.07 103.052 320.635 Q104.881 324.177 108.492 324.177 Q112.126 324.177 113.932 320.635 Q115.76 317.07 115.76 309.964 Q115.76 302.834 113.932 299.293 Q112.126 295.728 108.492 295.728 M108.492 292.024 Q114.302 292.024 117.358 296.631 Q120.436 301.214 120.436 309.964 Q120.436 318.691 117.358 323.297 Q114.302 327.881 108.492 327.881 Q102.682 327.881 99.603 323.297 Q96.5474 318.691 96.5474 309.964 Q96.5474 301.214 99.603 296.631 Q102.682 292.024 108.492 292.024 Z" fill="#000000" fill-rule="nonzero" fill-opacity="1" /><path clip-path="url(#clip730)" d="M139.232 308.066 Q136.084 308.066 134.232 310.219 Q132.404 312.371 132.404 316.121 Q132.404 319.848 134.232 322.024 Q136.084 324.177 139.232 324.177 Q142.381 324.177 144.209 322.024 Q146.061 319.848 146.061 316.121 Q146.061 312.371 144.209 310.219 Q142.381 308.066 139.232 308.066 M148.515 293.413 L148.515 297.672 Q146.756 296.839 144.95 296.399 Q143.168 295.959 141.408 295.959 Q136.779 295.959 134.325 299.084 Q131.894 302.209 131.547 308.529 Q132.913 306.515 134.973 305.45 Q137.033 304.362 139.51 304.362 Q144.718 304.362 147.728 307.533 Q150.76 310.682 150.76 316.121 Q150.76 321.445 147.612 324.663 Q144.464 327.881 139.232 327.881 Q133.237 327.881 130.066 323.297 Q126.894 318.691 126.894 309.964 Q126.894 301.77 130.783 296.908 Q134.672 292.024 141.223 292.024 Q142.982 292.024 144.765 292.371 Q146.57 292.719 148.515 293.413 Z" fill="#000000" fill-rule="nonzero" fill-opacity="1" /><polyline clip-path="url(#clip731)" style="stroke:#009af9; stroke-linecap:round; stroke-linejoin:round; stroke-width:4; stroke-opacity:1; fill:none" points="248.062,1445.72 268.913,1445.72 289.764,1445.72 310.615,1444.25 331.466,1443.77 352.317,1413.39 373.168,1357.97 394.018,1295.34 414.869,1161.18 435.72,1018.4 456.571,883.542 477.422,808.145 498.273,707.25 519.124,625.516 539.975,553.294 560.826,533.873 581.677,477.832 602.528,428.839 623.379,385.679 644.23,347.4 665.081,330.279 685.932,298.506 706.783,269.922 727.634,244.486 748.484,221.302 769.335,200.467 790.186,184.968 811.037,168.114 831.888,153.143 852.739,139.94 873.59,128.404 894.441,118.444 915.292,109.977 936.143,104.748 956.994,98.9303 977.845,94.404 998.696,91.1079 1019.55,88.9838 1040.4,87.9763 1061.25,88.0329 1082.1,89.1031 1102.95,91.139 1123.8,94.094 1144.65,97.9233 1165.5,102.584 1186.35,108.035 1207.21,114.235 1228.06,121.146 1248.91,128.73 1269.76,136.951 1290.61,146.002 1311.46,155.38 1332.31,165.292 1353.16,175.708 1374.01,186.595 1394.86,197.925 1415.71,209.667 1436.57,221.794 1457.42,234.278 1478.27,265.397 1499.12,277.576 1519.97,290.089 1540.82,302.909 1561.67,316.009 1582.52,329.393 1603.37,342.981 1624.22,356.779 1645.07,370.764 1665.93,384.917 1686.78,399.742 1707.63,414.143 1728.48,428.656 1749.33,443.261 1770.18,457.944 1791.03,472.686 1811.88,487.472 1832.73,502.289 1853.58,517.122 1874.44,531.958 1895.29,546.784 1916.14,561.588 1936.99,576.358 1957.84,591.085 1978.69,605.757 1999.54,620.365 2020.39,634.899 2041.24,649.352 2062.09,663.714 2082.94,677.979 2103.8,692.138 2124.65,706.187 2145.5,720.117 2166.35,733.923 2187.2,747.6 2208.05,761.142 2228.9,774.545 2249.75,787.805 2270.6,800.918 2291.45,813.879 "/>
<path clip-path="url(#clip730)" d="M2011.53 198.898 L2280.56 198.898 L2280.56 95.2176 L2011.53 95.2176  Z" fill="#ffffff" fill-rule="evenodd" fill-opacity="1"/>
<polyline clip-path="url(#clip730)" style="stroke:#000000; stroke-linecap:round; stroke-linejoin:round; stroke-width:4; stroke-opacity:1; fill:none" points="2011.53,198.898 2280.56,198.898 2280.56,95.2176 2011.53,95.2176 2011.53,198.898 "/>
<polyline clip-path="url(#clip730)" style="stroke:#009af9; stroke-linecap:round; stroke-linejoin:round; stroke-width:4; stroke-opacity:1; fill:none" points="2035.59,147.058 2179.99,147.058 "/>
<path clip-path="url(#clip730)" d="M2217.9 166.745 Q2216.1 171.375 2214.38 172.787 Q2212.67 174.199 2209.8 174.199 L2206.4 174.199 L2206.4 170.634 L2208.9 170.634 Q2210.66 170.634 2211.63 169.8 Q2212.6 168.967 2213.78 165.865 L2214.55 163.921 L2204.06 138.412 L2208.57 138.412 L2216.67 158.689 L2224.78 138.412 L2229.29 138.412 L2217.9 166.745 Z" fill="#000000" fill-rule="nonzero" fill-opacity="1" /><path clip-path="url(#clip730)" d="M2236.58 160.402 L2244.22 160.402 L2244.22 134.037 L2235.91 135.703 L2235.91 131.444 L2244.17 129.778 L2248.85 129.778 L2248.85 160.402 L2256.49 160.402 L2256.49 164.338 L2236.58 164.338 L2236.58 160.402 Z" fill="#000000" fill-rule="nonzero" fill-opacity="1" /></svg>
